<svg width="19" height="19" viewBox="0 0 19 19" fill="none" xmlns="http://www.w3.org/2000/svg">
<path d="M9.51948 2.17254C12.89 2.17254 14.6233 3.58546 14.6233 5.69462C14.6233 5.88831 14.6077 6.08169 14.5767 6.27286C14.8095 5.71733 14.9286 5.12042 14.927 4.51767C14.927 3.9244 14.8107 3.33694 14.5848 2.78883C14.3588 2.24072 14.0276 1.7427 13.6101 1.32319C13.1926 0.90369 12.6969 0.570921 12.1514 0.343887C11.6059 0.116853 11.0212 0 10.4308 0H0V9.03533H2.93377V2.17254H9.51948Z" fill="#24356C"/>
<path d="M11.4838 6.1197C11.4838 5.05586 10.656 4.5332 9.13428 4.5332H6.03358V7.7257H9.13913C10.656 7.7257 11.4838 7.18452 11.4838 6.1197Z" fill="#24356C"/>
<path d="M12.1583 11.6928C12.1583 10.5519 11.2917 10.0098 9.67387 10.0098H6.03358V13.3573H9.67484C11.2917 13.3573 12.1583 12.8542 12.1583 11.6928Z" fill="#3683BC"/>
<path d="M13.6781 9.05469C14.6854 9.65535 15.2968 10.6656 15.2968 12.0219C15.2968 14.3622 13.4481 15.7176 9.90483 15.7176H3.05806V18.797H13.3083C14.5953 18.797 15.8295 18.2833 16.7395 17.369C17.6495 16.4546 18.1607 15.2145 18.1607 13.9214C18.1621 12.6918 17.7009 11.507 16.8696 10.6045C16.0384 9.70195 14.8984 9.14839 13.6781 9.05469Z" fill="#3683BC"/>
</svg>
