<svg width="52" height="49" viewBox="0 0 52 49" fill="none" xmlns="http://www.w3.org/2000/svg">
<path d="M50.2664 19.0631H48.5334V8.66505C48.5334 8.20542 48.3508 7.76463 48.0258 7.43962C47.7008 7.11462 47.26 6.93204 46.8004 6.93204H5.20815C4.79779 6.93873 4.39838 6.79957 4.08102 6.53934C3.76366 6.27911 3.54896 5.91469 3.47514 5.51097V4.88709C3.54896 4.48337 3.76366 4.11895 4.08102 3.85872C4.39838 3.59848 4.79779 3.45933 5.20815 3.46602H46.0725C46.5321 3.46602 46.9729 3.28343 47.2979 2.95843C47.6229 2.63343 47.8055 2.19263 47.8055 1.73301C47.8055 1.27339 47.6229 0.832589 47.2979 0.507587C46.9729 0.182585 46.5321 0 46.0725 0H5.20815C3.82928 0 2.50689 0.547753 1.53188 1.52276C0.556876 2.49777 0.00912298 3.82016 0.00912298 5.19903C-0.00304099 5.40681 -0.00304099 5.61513 0.00912298 5.82291V41.4709C0.0159255 42.404 0.206454 43.3266 0.56983 44.1861C0.933206 45.0455 1.46231 45.825 2.12694 46.48C2.79156 47.1349 3.57869 47.6526 4.44337 48.0033C5.30805 48.3541 6.23336 48.5311 7.16645 48.5243H46.8004C47.26 48.5243 47.7008 48.3417 48.0258 48.0167C48.3508 47.6917 48.5334 47.2509 48.5334 46.7913V36.3932H50.2664C50.726 36.3932 51.1668 36.2106 51.4918 35.8856C51.8168 35.5606 51.9994 35.1198 51.9994 34.6602V20.7961C51.9994 20.3365 51.8168 19.8957 51.4918 19.5707C51.1668 19.2457 50.726 19.0631 50.2664 19.0631ZM45.0674 45.0582H7.16645C6.20255 45.0676 5.27397 44.6959 4.58269 44.0241C3.89142 43.3523 3.49337 42.4347 3.47514 41.4709V10.1901C4.03768 10.3531 4.62302 10.4234 5.20815 10.3981H45.0674V19.0631H32.9363C30.6382 19.0631 28.4342 19.976 26.8092 21.601C25.1842 23.226 24.2713 25.43 24.2713 27.7282C24.2713 30.0263 25.1842 32.2303 26.8092 33.8553C28.4342 35.4803 30.6382 36.3932 32.9363 36.3932H45.0674V45.0582ZM48.5334 32.9272H32.9363C31.5574 32.9272 30.235 32.3794 29.26 31.4044C28.285 30.4294 27.7373 29.107 27.7373 27.7282C27.7373 26.3493 28.285 25.0269 29.26 24.0519C30.235 23.0769 31.5574 22.5291 32.9363 22.5291H48.5334V32.9272Z" fill="#3683BC"/>
</svg>
