<svg width="10" height="11" viewBox="0 0 10 11" fill="none" xmlns="http://www.w3.org/2000/svg">
<path d="M9.07591 9.87344H8.59387V8.61066C8.59387 7.90902 7.88948 7.31838 7.22133 6.7474C6.98549 6.54931 6.7601 6.33913 6.54604 6.11769V4.95706C6.76006 4.73558 6.98546 4.52526 7.22133 4.32721C7.89003 3.75623 8.59387 3.1656 8.59387 2.46395V1.20118H9.07591C9.14054 1.20336 9.20498 1.19251 9.26534 1.16928C9.32569 1.14605 9.38076 1.11089 9.42726 1.06593C9.47375 1.02098 9.51071 0.967173 9.53596 0.907635C9.56121 0.848097 9.57423 0.784117 9.57423 0.719446C9.57423 0.654774 9.56121 0.59066 9.53596 0.531122C9.51071 0.471585 9.47375 0.417775 9.42726 0.372823C9.38076 0.327872 9.32569 0.292709 9.26534 0.26948C9.20498 0.246252 9.14054 0.235397 9.07591 0.237579H1.36551C1.30087 0.235397 1.23643 0.246252 1.17608 0.26948C1.11572 0.292709 1.06065 0.327872 1.01416 0.372823C0.967665 0.417775 0.930707 0.471585 0.905455 0.531122C0.880203 0.59066 0.867187 0.654774 0.867188 0.719446C0.867187 0.784117 0.880203 0.848097 0.905455 0.907635C0.930707 0.967173 0.967665 1.02098 1.01416 1.06593C1.06065 1.11089 1.11572 1.14605 1.17608 1.16928C1.23643 1.19251 1.30087 1.20336 1.36551 1.20118H1.84754V2.46395C1.84754 3.1656 2.55138 3.75623 3.22009 4.32721C3.45597 4.52526 3.68136 4.73557 3.89537 4.95706V6.12037C3.68132 6.34182 3.45593 6.552 3.22009 6.75008C2.55138 7.32106 1.84754 7.91183 1.84754 8.61348V9.87625H1.36551C1.23766 9.87625 1.11505 9.92699 1.02465 10.0174C0.934249 10.1078 0.88344 10.2304 0.88344 10.3583C0.88344 10.4861 0.934249 10.6087 1.02465 10.6991C1.11505 10.7895 1.23766 10.8403 1.36551 10.8403H9.07591C9.20375 10.8403 9.32637 10.7895 9.41677 10.6991C9.50717 10.6087 9.55798 10.4861 9.55798 10.3583C9.55798 10.2304 9.50717 10.1078 9.41677 10.0174C9.32637 9.92699 9.20375 9.87625 9.07591 9.87625V9.87344ZM2.81107 8.61066C2.81107 8.35317 3.48854 7.78722 3.84595 7.48032C4.42681 6.9862 4.85891 6.62607 4.85891 6.16983V4.9021C4.85891 4.44587 4.42681 4.08738 3.84595 3.59161C3.48854 3.28636 2.81107 2.71863 2.81107 2.46114V1.19836H7.63034V2.46114C7.63034 2.71863 6.95288 3.28471 6.59547 3.59161C6.01461 4.08573 5.58197 4.44587 5.58197 4.9021V6.16983C5.58197 6.62607 6.01406 6.98456 6.59547 7.48032C6.95288 7.78558 7.63034 8.35317 7.63034 8.61066V9.87344H2.81107V8.61066ZM6.30501 2.28434V2.03892C6.30501 1.98354 6.31592 1.92882 6.33711 1.87767C6.3583 1.82651 6.38937 1.77997 6.42852 1.74082C6.46768 1.70166 6.51415 1.67059 6.56531 1.6494C6.61647 1.62821 6.67129 1.61737 6.72666 1.61737C6.78203 1.61737 6.83688 1.62821 6.88804 1.6494C6.9392 1.67059 6.98567 1.70166 7.02483 1.74082C7.06398 1.77997 7.09502 1.82651 7.11621 1.87767C7.1374 1.92882 7.14831 1.98354 7.14831 2.03892V2.28434C7.14831 2.39617 7.1039 2.5035 7.02483 2.58257C6.94575 2.66165 6.83849 2.70602 6.72666 2.70602C6.61483 2.70602 6.5076 2.66165 6.42852 2.58257C6.34945 2.5035 6.30501 2.39617 6.30501 2.28434Z" fill="white"/>
</svg>
