<svg width="49" height="45" viewBox="0 0 49 45" fill="none" xmlns="http://www.w3.org/2000/svg">
<g filter="url(#filter0_d)">
<path d="M35.9645 15.4025V29.2947C35.9645 30.5729 34.8742 31.61 33.5304 31.61H12.4342C11.0903 31.61 10 30.5729 10 29.2947V15.4025C10 14.1242 11.0903 13.0871 12.4342 13.0871H16.8968L17.5206 11.5002C17.8756 10.5981 18.7833 10 19.7976 10H26.1619C27.1762 10 28.0839 10.5981 28.4389 11.5002L29.0677 13.0871H33.5304C34.8742 13.0871 35.9645 14.1242 35.9645 15.4025ZM29.0677 22.3486C29.0677 19.1553 26.3394 16.5602 22.9823 16.5602C19.6251 16.5602 16.8968 19.1553 16.8968 22.3486C16.8968 25.5418 19.6251 28.137 22.9823 28.137C26.3394 28.137 29.0677 25.5418 29.0677 22.3486ZM27.4449 22.3486C27.4449 24.6881 25.4418 26.5934 22.9823 26.5934C20.5227 26.5934 18.5196 24.6881 18.5196 22.3486C18.5196 20.0091 20.5227 18.1038 22.9823 18.1038C25.4418 18.1038 27.4449 20.0091 27.4449 22.3486Z" fill="white"/>
<circle cx="33.1577" cy="29.4263" r="5.57372" fill="#3683BC"/>
<path d="M33.7433 30.0222L36.4505 30.0222C36.5788 30.0224 36.702 29.9715 36.7928 29.881C36.8837 29.7904 36.9348 29.6675 36.9349 29.5393C36.935 29.4111 36.8841 29.2881 36.7934 29.1973C36.7028 29.1066 36.5797 29.0556 36.4513 29.0554L33.7442 29.0554L33.7442 26.3517C33.7442 26.2234 33.6932 26.1003 33.6023 26.0096C33.5115 25.9189 33.3882 25.8679 33.2598 25.8679C33.1313 25.8679 33.0081 25.9189 32.9172 26.0096C32.8264 26.1003 32.7753 26.2234 32.7753 26.3517L32.7753 29.0554L30.0682 29.0554C29.9397 29.0554 29.8165 29.1064 29.7257 29.1972C29.6348 29.2879 29.5838 29.411 29.5838 29.5393C29.5838 29.6676 29.6348 29.7907 29.7257 29.8814C29.8165 29.9721 29.9397 30.0231 30.0682 30.0231L32.7753 30.0231V32.7268C32.7753 32.8552 32.8264 32.9782 32.9172 33.0689C33.0081 33.1597 33.1313 33.2107 33.2598 33.2107C33.3882 33.2107 33.5115 33.1597 33.6023 33.0689C33.6932 32.9782 33.7442 32.8552 33.7442 32.7268L33.7433 30.0222Z" fill="white"/>
</g>
<defs>
<filter id="filter0_d" x="0" y="0" width="48.7314" height="45" filterUnits="userSpaceOnUse" color-interpolation-filters="sRGB">
<feFlood flood-opacity="0" result="BackgroundImageFix"/>
<feColorMatrix in="SourceAlpha" type="matrix" values="0 0 0 0 0 0 0 0 0 0 0 0 0 0 0 0 0 0 127 0"/>
<feOffset/>
<feGaussianBlur stdDeviation="5"/>
<feColorMatrix type="matrix" values="0 0 0 0 0 0 0 0 0 0 0 0 0 0 0 0 0 0 0.1 0"/>
<feBlend mode="normal" in2="BackgroundImageFix" result="effect1_dropShadow"/>
<feBlend mode="normal" in="SourceGraphic" in2="effect1_dropShadow" result="shape"/>
</filter>
</defs>
</svg>
