<svg width="18" height="18" viewBox="0 0 18 18" fill="none" xmlns="http://www.w3.org/2000/svg">
<path d="M17.6941 6.42858L16.9517 10.6876C16.8602 11.158 16.4853 11.4441 16.0531 11.4495H5.22976L5.01488 12.6608H15.3302C15.8734 12.702 16.2418 13.0868 16.2484 13.5789C16.2089 14.121 15.8242 14.4904 15.3302 14.4972H3.92082C3.30377 14.4417 2.93582 13.9498 3.00259 13.4031L3.491 10.7461L2.74861 3.28314L0.638664 2.61894C0.123049 2.41422 -0.0873955 1.94777 0.0330293 1.46628C0.233265 0.964472 0.713061 0.735203 1.18569 0.860644L3.88174 1.72026C4.24495 1.85641 4.45389 2.15372 4.50691 2.50173L4.66319 3.98651L16.8931 5.35407C17.455 5.47579 17.7601 5.92089 17.6941 6.42858ZM6.7164 16.4252C6.7164 17.1993 6.08883 17.8269 5.31465 17.8269C4.54048 17.8269 3.91291 17.1993 3.91291 16.4252C3.91291 15.651 4.5405 15.0234 5.31465 15.0234C6.08882 15.0234 6.7164 15.651 6.7164 16.4252ZM15.0848 16.4252C15.0848 17.1993 14.4572 17.8269 13.683 17.8269C12.9089 17.8269 12.2813 17.1993 12.2813 16.4252C12.2813 15.651 12.9089 15.0234 13.683 15.0234C14.4572 15.0234 15.0848 15.651 15.0848 16.4252Z" fill="white"/>
</svg>
