<svg width="20" height="16" viewBox="0 0 20 16" fill="none" xmlns="http://www.w3.org/2000/svg">
<path d="M0 4.37594V3.75093C0 3.23316 0.419727 2.81343 0.9375 2.81343H15V0.938435C15 0.103786 16.0117 -0.313206 16.6004 0.275505L19.7254 3.40051C20.0915 3.76664 20.0915 4.36023 19.7254 4.72633L16.6004 7.85133C16.0139 8.43773 15 8.02656 15 7.18844V5.31344H0.9375C0.419727 5.31344 0 4.89371 0 4.37594ZM19.0625 10.3134H5V8.43844C5 7.60586 3.98977 7.18531 3.39957 7.77551L0.27457 10.9005C-0.0915234 11.2666 -0.0915234 11.8602 0.27457 12.2263L3.39957 15.3513C3.9866 15.9383 5 15.5258 5 14.6884V12.8134H19.0625C19.5803 12.8134 20 12.3937 20 11.8759V11.2509C20 10.7332 19.5803 10.3134 19.0625 10.3134Z" fill="white"/>
</svg>
