<svg width="11" height="11" viewBox="0 0 11 11" fill="none" xmlns="http://www.w3.org/2000/svg">
<path d="M10.6469 8.72042C10.7314 8.80097 10.7991 8.89758 10.8458 9.00465C10.8924 9.11172 10.9171 9.22705 10.9186 9.34383C10.92 9.46062 10.8981 9.57652 10.8541 9.68469C10.8101 9.79287 10.7447 9.89116 10.6622 9.97375C10.5796 10.0563 10.4813 10.1215 10.3732 10.1656C10.265 10.2096 10.1491 10.2316 10.0323 10.2302C9.91553 10.2287 9.80026 10.2039 9.69319 10.1572C9.58613 10.1106 9.48945 10.043 9.4089 9.95847L5.8447 6.39419L2.28036 9.95847C2.11486 10.1161 1.89433 10.2027 1.66579 10.1999C1.43726 10.1971 1.21887 10.1051 1.05726 9.94352C0.895653 9.78191 0.803633 9.56352 0.800846 9.33499C0.79806 9.10646 0.884763 8.88592 1.04238 8.72042L4.60659 5.15615L1.04238 1.59195C0.884763 1.42645 0.79806 1.20585 0.800846 0.977317C0.803633 0.748785 0.895653 0.530393 1.05726 0.368785C1.21887 0.207176 1.43726 0.115156 1.66579 0.11237C1.89433 0.109583 2.11486 0.196286 2.28036 0.353906L5.8447 3.91811L9.4089 0.353906C9.5744 0.196286 9.79493 0.109583 10.0235 0.11237C10.252 0.115156 10.4704 0.207176 10.632 0.368785C10.7936 0.530393 10.8856 0.748785 10.8884 0.977317C10.8912 1.20585 10.8045 1.42645 10.6469 1.59195L7.08267 5.15615L10.6469 8.72042Z" fill="white"/>
</svg>
