<svg width="18" height="18" viewBox="0 0 18 18" fill="none" xmlns="http://www.w3.org/2000/svg">
<path d="M16.8 1.2002C15.8 0.200195 14.2 0.200195 13.2 1.2002L11.4 3.0002L10.7 2.3002C10.3 1.9002 9.7 1.9002 9.3 2.3002L8.5 3.0002C8.1 3.4002 8.1 4.0002 8.5 4.4002L13.5 9.4002C13.9 9.80019 14.5 9.80019 14.9 9.4002L15.6 8.7002C16 8.3002 16 7.7002 15.6 7.3002L15 6.60019L16.8 4.8002C17.8 3.8002 17.8 2.2002 16.8 1.2002ZM3.4 11.0002C1.2 13.2002 2.5 14.2002 0.5 16.8002L1.2 17.5002C3.8 15.5002 4.8 16.8002 7 14.6002L12.1 9.5002L8.5 5.9002L3.4 11.0002Z" fill="white"/>
</svg>
