<svg width="12" height="17" viewBox="0 0 12 17" fill="none" xmlns="http://www.w3.org/2000/svg">
<path d="M10.2857 0H1.71429C1.25963 0 0.823593 0.179107 0.502103 0.497918C0.180612 0.81673 0 1.24913 0 1.7V16.15C0 16.3754 0.090306 16.5916 0.251051 16.751C0.411797 16.9104 0.629814 17 0.857143 17H11.1429C11.3702 17 11.5882 16.9104 11.7489 16.751C11.9097 16.5916 12 16.3754 12 16.15V1.7C12 1.24913 11.8194 0.81673 11.4979 0.497918C11.1764 0.179107 10.7404 0 10.2857 0ZM5.14286 11.9H2.57143V10.2H5.14286V11.9ZM5.14286 8.5H2.57143V6.8H5.14286V8.5ZM5.14286 5.1H2.57143V3.4H5.14286V5.1ZM9.42857 11.9H6.85714V10.2H9.42857V11.9ZM9.42857 8.5H6.85714V6.8H9.42857V8.5ZM9.42857 5.1H6.85714V3.4H9.42857V5.1Z" fill="#C4C4C4"/>
</svg>
