<svg width="17" height="17" viewBox="0 0 17 17" fill="none" xmlns="http://www.w3.org/2000/svg">
<path d="M16.4882 1.06886L15.9302 0.511238C15.7685 0.348672 15.5762 0.219559 15.3644 0.131844C15.1526 0.0441283 14.9254 -0.000676208 14.6962 7.71318e-06C14.4667 -0.00067776 14.2394 0.0444396 14.0273 0.132332C13.8153 0.220224 13.6229 0.349348 13.4612 0.512215L2.35419 11.6392C2.28644 11.707 2.23334 11.7878 2.19818 11.877L0.880191 15.2051C0.828103 15.3325 0.814725 15.4725 0.841738 15.6074C0.868752 15.7424 0.934965 15.8663 1.03208 15.9639C1.12919 16.0614 1.25289 16.1282 1.38773 16.1558C1.52257 16.1834 1.66257 16.1707 1.79019 16.1191L5.12821 14.812C5.2185 14.7764 5.30052 14.7224 5.3692 14.6538L16.4872 3.53712C16.8141 3.20973 16.9979 2.76592 16.998 2.30323C16.9982 1.84054 16.8149 1.39651 16.4882 1.06886ZM3.42719 12.5928L4.41519 13.5811L2.78321 14.2202L3.42719 12.5928ZM15.4942 2.542L5.78818 12.2481L4.7602 11.2202L14.4602 1.50587C14.4917 1.4743 14.5291 1.44922 14.5703 1.43214C14.6114 1.41505 14.6556 1.40626 14.7002 1.40626C14.7448 1.40626 14.789 1.41505 14.8301 1.43214C14.8713 1.44922 14.9087 1.4743 14.9402 1.50587L15.4972 2.06397C15.5597 2.12801 15.5944 2.21424 15.5939 2.30372C15.5933 2.3932 15.5575 2.47875 15.4942 2.542Z" fill="white"/>
</svg>
