<svg width="16" height="9" viewBox="0 0 16 9" fill="none" xmlns="http://www.w3.org/2000/svg">
<path d="M8 0C2.7512 0 0 3.8656 0 4.48C0 5.0928 2.7512 8.96 8 8.96C13.248 8.96 16 5.0928 16 4.48C16 3.8656 13.248 0 8 0ZM8 7.9256C6.036 7.9256 4.444 6.3832 4.444 4.48C4.444 2.5768 6.036 1.0328 8 1.0328C9.964 1.0328 11.5552 2.5768 11.5552 4.48C11.5552 6.3832 9.964 7.9256 8 7.9256ZM8 4.48C7.6744 4.1224 8.5304 2.7568 8 2.7568C7.0176 2.7568 6.2216 3.5288 6.2216 4.48C6.2216 5.4312 7.0176 6.2032 8 6.2032C8.9816 6.2032 9.7784 5.4312 9.7784 4.48C9.7784 4.0424 8.2768 4.7832 8 4.48Z" fill="#C3C3C3"/>
</svg>
