<svg width="27" height="34" viewBox="0 0 27 34" fill="none" xmlns="http://www.w3.org/2000/svg">
<path d="M13.5013 1.00001L13.4988 1.00001C10.1934 0.996064 7.02142 2.30314 4.67837 4.63456C2.33576 6.96555 1.01299 10.1302 1 13.4349C1.00067 18.9849 3.92342 23.5471 7.01605 26.8149C10.1013 30.0749 13.2546 31.9373 13.4807 32.0691L13.5013 1.00001ZM13.5013 1.00001C16.8068 0.995819 19.979 2.30277 22.3223 4.63422C24.6651 6.96521 25.988 10.13 26.001 13.4348C26.0004 18.9853 23.0776 23.5478 19.9849 26.8156C16.9045 30.0705 13.7564 31.9318 13.5226 32.0677L13.5013 1.00001ZM13.4952 17.539L14.5 17.5439V17.416C15.2141 17.238 15.8736 16.8697 16.404 16.342C17.1759 15.574 17.6115 14.5311 17.615 13.4423V13.439C17.615 12.629 17.375 11.8371 16.9254 11.1633C16.4757 10.4895 15.8366 9.96393 15.0885 9.65304C14.3405 9.34214 13.5172 9.2598 12.7224 9.4164C11.9276 9.573 11.1971 9.96152 10.6229 10.5329C10.0487 11.1043 9.65665 11.833 9.49622 12.627C9.33579 13.421 9.41416 14.2448 9.72144 14.9943C10.0287 15.7439 10.5511 16.3855 11.2227 16.8384C11.8944 17.2913 12.6851 17.5351 13.4952 17.539Z" fill="white" stroke="#3683BC" stroke-width="2"/>
</svg>
