<svg width="20" height="20" viewBox="0 0 20 20" fill="none" xmlns="http://www.w3.org/2000/svg">
<path d="M10.0003 0C7.34803 0 4.80442 1.0536 2.92901 2.92901C1.0536 4.80442 0 7.34803 0 10.0003C6.83709e-05 11.3135 0.258801 12.6139 0.761424 13.8272C1.26405 15.0404 2.00072 16.1428 2.92938 17.0714C3.85803 17.9999 4.96049 18.7365 6.17381 19.239C7.38712 19.7415 8.68753 20.0001 10.0008 20C11.314 19.9999 12.6144 19.7412 13.8277 19.2386C15.0409 18.736 16.1433 17.9993 17.0719 17.0706C18.0004 16.142 18.737 15.0395 19.2395 13.8262C19.742 12.6129 20.0006 11.3125 20.0005 9.99922C20.0005 4.4772 15.5223 0 10.0003 0ZM10.0003 17.9161C8.95303 17.9281 7.91382 17.7322 6.94283 17.3398C5.97184 16.9473 5.08836 16.3661 4.34357 15.6298C3.59878 14.8935 3.00749 14.0168 2.60393 13.0504C2.20037 12.0839 1.99258 11.047 1.99258 9.99974C1.99258 8.95244 2.20037 7.91555 2.60393 6.94912C3.00749 5.98269 3.59878 5.10594 4.34357 4.36965C5.08836 3.63336 5.97184 3.05215 6.94283 2.65971C7.91382 2.26726 8.95303 2.07137 10.0003 2.08339C11.0475 2.07137 12.0867 2.26726 13.0577 2.65971C14.0287 3.05215 14.9122 3.63336 15.6569 4.36965C16.4017 5.10594 16.993 5.98269 17.3966 6.94912C17.8001 7.91555 18.0079 8.95244 18.0079 9.99974C18.0079 11.047 17.8001 12.0839 17.3966 13.0504C16.993 14.0168 16.4017 14.8935 15.6569 15.6298C14.9122 16.3661 14.0287 16.9473 13.0577 17.3398C12.0867 17.7322 11.0475 17.9281 10.0003 17.9161ZM7.39707 9.73984C8.25959 9.73984 8.95857 8.92419 8.95857 7.91687C8.95857 6.90955 8.25855 6.09391 7.39603 6.09391C6.5335 6.09391 5.83348 6.90955 5.83348 7.91687C5.83348 8.92419 6.5335 9.73984 7.39707 9.73984ZM12.6045 9.73984C13.4681 9.73984 14.167 8.92419 14.167 7.91687C14.167 6.90955 13.467 6.09391 12.6045 6.09391C11.742 6.09391 11.042 6.9106 11.042 7.91687C11.042 8.92315 11.742 9.73984 12.6045 9.73984ZM14.5223 11.392C14.3384 11.2992 14.1255 11.2822 13.9292 11.3445C13.733 11.4068 13.5689 11.5435 13.4722 11.7253C13.4368 11.7941 12.567 13.3847 10.0013 13.3847C7.44811 13.3847 6.57309 11.8086 6.52934 11.7263C6.43568 11.5414 6.27238 11.4012 6.07536 11.3366C5.87835 11.2721 5.66375 11.2884 5.47879 11.3821C5.29382 11.4757 5.15364 11.639 5.08907 11.836C5.02451 12.0331 5.04085 12.2476 5.13451 12.4326C5.18659 12.5357 6.43454 14.9473 10.0013 14.9473C13.5691 14.9473 14.815 12.5347 14.866 12.4316C14.9578 12.248 14.9732 12.0356 14.9087 11.8408C14.8443 11.646 14.7054 11.4846 14.5223 11.392Z" fill="#3683BC"/>
</svg>
