<svg width="21" height="22" viewBox="0 0 21 22" fill="none" xmlns="http://www.w3.org/2000/svg">
<path d="M19.9065 7.20516C19.896 6.42496 19.7487 5.65251 19.4713 4.92237C19.2307 4.30651 18.8633 3.74719 18.3925 3.28016C17.9217 2.81313 17.3578 2.44865 16.7369 2.21002C16.0103 1.93946 15.2427 1.79316 14.4667 1.77736C13.4677 1.73306 13.1509 1.7207 10.6149 1.7207C8.07882 1.7207 7.75377 1.7207 6.76199 1.77736C5.98638 1.79328 5.21912 1.93957 4.49284 2.21002C3.87187 2.44848 3.30792 2.8129 2.83707 3.27995C2.36622 3.74701 1.99884 4.30641 1.75843 4.92237C1.48513 5.64258 1.33796 6.40383 1.32329 7.17323C1.27864 8.16525 1.26514 8.47944 1.26514 10.995C1.26514 13.5106 1.26514 13.832 1.32329 14.8169C1.33887 15.5874 1.4853 16.3476 1.75843 17.0698C1.99924 17.6855 2.36689 18.2447 2.8379 18.7116C3.30891 19.1784 3.87291 19.5427 4.49388 19.7811C5.21817 20.0625 5.98557 20.2193 6.76303 20.2446C7.76312 20.2889 8.07986 20.3023 10.6159 20.3023C13.152 20.3023 13.477 20.3023 14.4688 20.2446C15.2447 20.2295 16.0124 20.0835 16.739 19.813C17.3597 19.5741 17.9234 19.2095 18.3942 18.7425C18.865 18.2756 19.2325 17.7164 19.4734 17.1007C19.7465 16.3796 19.893 15.6193 19.9085 14.8478C19.9532 13.8568 19.9667 13.5426 19.9667 11.0259C19.9646 8.51035 19.9646 8.191 19.9065 7.20516ZM10.6086 15.7522C7.95628 15.7522 5.8076 13.6209 5.8076 10.9899C5.8076 8.35891 7.95628 6.22756 10.6086 6.22756C11.882 6.22756 13.1031 6.7293 14.0035 7.62241C14.9039 8.51552 15.4097 9.72684 15.4097 10.9899C15.4097 12.2529 14.9039 13.4643 14.0035 14.3574C13.1031 15.2505 11.882 15.7522 10.6086 15.7522ZM15.6008 7.16189C14.9808 7.16189 14.4813 6.66537 14.4813 6.0514C14.4813 5.90564 14.5102 5.7613 14.5664 5.62664C14.6227 5.49197 14.7051 5.36961 14.809 5.26653C14.9129 5.16346 15.0363 5.0817 15.172 5.02592C15.3078 4.97014 15.4533 4.94143 15.6003 4.94143C15.7472 4.94143 15.8927 4.97014 16.0285 5.02592C16.1642 5.0817 16.2876 5.16346 16.3915 5.26653C16.4954 5.36961 16.5778 5.49197 16.6341 5.62664C16.6903 5.7613 16.7193 5.90564 16.7193 6.0514C16.7193 6.66537 16.2187 7.16189 15.6008 7.16189Z" fill="#3683BC"/>
<path d="M10.6084 14.0835C12.3308 14.0835 13.7271 12.6985 13.7271 10.99C13.7271 9.28149 12.3308 7.89648 10.6084 7.89648C8.88602 7.89648 7.48975 9.28149 7.48975 10.99C7.48975 12.6985 8.88602 14.0835 10.6084 14.0835Z" fill="#3683BC"/>
</svg>
