<svg width="34" height="41" viewBox="0 0 34 41" fill="none" xmlns="http://www.w3.org/2000/svg">
<path d="M27.15 12.0745H25.1V8.2C25.1 6.02522 24.2361 3.93952 22.6983 2.40172C21.1605 0.863926 19.0748 0 16.9 0C14.7252 0 12.6395 0.863926 11.1017 2.40172C9.56393 3.93952 8.7 6.02522 8.7 8.2V12.0745H6.65C5.01892 12.0745 3.45464 12.7224 2.30129 13.8758C1.14794 15.0291 0.5 16.5934 0.5 18.2245V34.6245C0.5 36.2556 1.14794 37.8199 2.30129 38.9732C3.45464 40.1266 5.01892 40.7745 6.65 40.7745H27.15C28.7811 40.7745 30.3454 40.1266 31.4987 38.9732C32.6521 37.8199 33.3 36.2556 33.3 34.6245V18.2245C33.3 16.5934 32.6521 15.0291 31.4987 13.8758C30.3454 12.7224 28.7811 12.0745 27.15 12.0745ZM12.8 8.2C12.7724 7.08336 13.1884 6.00127 13.9568 5.19059C14.7252 4.37992 15.7835 3.90669 16.9 3.8745C18.0165 3.90669 19.0748 4.37992 19.8432 5.19059C20.6116 6.00127 21.0276 7.08336 21 8.2V12.0745H12.8V8.2ZM29.2 34.6245C29.2 35.1682 28.984 35.6896 28.5996 36.0741C28.2151 36.4585 27.6937 36.6745 27.15 36.6745H6.65C6.10631 36.6745 5.58488 36.4585 5.20043 36.0741C4.81598 35.6896 4.6 35.1682 4.6 34.6245V18.2245C4.6 17.6808 4.81598 17.1594 5.20043 16.7749C5.58488 16.3905 6.10631 16.1745 6.65 16.1745H27.15C27.6937 16.1745 28.2151 16.3905 28.5996 16.7749C28.984 17.1594 29.2 17.6808 29.2 18.2245V34.6245Z" fill="#AAAAAA"/>
<path d="M16.9 20.2745C15.6836 20.2745 14.4946 20.6352 13.4832 21.311C12.4719 21.9868 11.6836 22.9473 11.2181 24.071C10.7527 25.1948 10.6309 26.4314 10.8682 27.6243C11.1055 28.8173 11.6912 29.9132 12.5513 30.7732C13.4114 31.6333 14.5072 32.2191 15.7002 32.4564C16.8932 32.6937 18.1297 32.5719 19.2535 32.1064C20.3773 31.6409 21.3378 30.8527 22.0135 29.8413C22.6893 28.8299 23.05 27.6409 23.05 26.4245C23.05 24.7935 22.4021 23.2292 21.2487 22.0758C20.0954 20.9225 18.5311 20.2745 16.9 20.2745ZM16.9 28.4745C16.4946 28.4745 16.0982 28.3543 15.7611 28.129C15.424 27.9038 15.1612 27.5836 15.0061 27.209C14.8509 26.8344 14.8103 26.4223 14.8894 26.0246C14.9685 25.6269 15.1637 25.2617 15.4504 24.975C15.7371 24.6883 16.1024 24.493 16.5001 24.4139C16.8977 24.3348 17.3099 24.3754 17.6845 24.5306C18.0591 24.6857 18.3793 24.9485 18.6045 25.2856C18.8298 25.6227 18.95 26.0191 18.95 26.4245C18.95 26.9682 18.734 27.4897 18.3496 27.8741C17.9651 28.2586 17.4437 28.4745 16.9 28.4745Z" fill="#AAAAAA"/>
</svg>
