<svg width="10" height="13" viewBox="0 0 10 13" fill="none" xmlns="http://www.w3.org/2000/svg">
<path d="M4.341 12.9489C4.164 12.8369 0.015001 10.1659 0.015001 5.87494C-0.0358141 5.2531 0.0427954 4.62747 0.245882 4.03754C0.448968 3.4476 0.772124 2.90617 1.19495 2.44739C1.61777 1.9886 2.13109 1.62241 2.70252 1.37195C3.27395 1.12149 3.89109 0.992188 4.515 0.992188C5.13891 0.992188 5.75605 1.12149 6.32749 1.37195C6.89892 1.62241 7.41223 1.9886 7.83505 2.44739C8.25788 2.90617 8.58103 3.4476 8.78412 4.03754C8.98721 4.62747 9.06582 5.2531 9.015 5.87494C9.015 10.1659 4.866 12.8369 4.69 12.9489C4.6379 12.9822 4.57735 12.9999 4.5155 12.9999C4.45366 12.9999 4.39311 12.9822 4.341 12.9489ZM0.707002 5.87494C0.707002 9.26794 3.746 11.6369 4.515 12.1819C5.283 11.6369 8.323 9.26194 8.323 5.87494C8.36475 5.34945 8.2973 4.82102 8.12486 4.32288C7.95243 3.82473 7.67876 3.36764 7.32108 2.98041C6.96339 2.59318 6.52944 2.28416 6.04651 2.07281C5.56358 1.86147 5.04215 1.75238 4.515 1.75238C3.98785 1.75238 3.46642 1.86147 2.98349 2.07281C2.50057 2.28416 2.06661 2.59318 1.70893 2.98041C1.35124 3.36764 1.07757 3.82473 0.905138 4.32288C0.732707 4.82102 0.665252 5.34945 0.707002 5.87494ZM3.476 5.87494C3.49213 5.67304 3.56675 5.48022 3.69074 5.32007C3.81472 5.15991 3.98269 5.03934 4.1741 4.97314C4.36552 4.90694 4.57209 4.89799 4.76853 4.94733C4.96496 4.99666 5.14275 5.10219 5.28017 5.25098C5.41758 5.39977 5.50866 5.58536 5.54225 5.7851C5.57585 5.98483 5.55051 6.19005 5.46933 6.37561C5.38815 6.56117 5.25465 6.71901 5.08516 6.8299C4.91567 6.94078 4.71754 6.99988 4.515 6.99994C4.22823 6.98798 3.95789 6.86289 3.76315 6.65204C3.56842 6.44119 3.46517 6.16175 3.476 5.87494Z" fill="#919191"/>
</svg>
