<svg width="1200" height="194" viewBox="0 0 1200 194" fill="none" xmlns="http://www.w3.org/2000/svg">
<path d="M688.717 180.5H728.533C754.603 180.5 767.401 166.043 767.401 139.499V55.601C767.401 29.057 754.603 14.6 728.533 14.6H688.717V180.5ZM714.787 156.8V38.3H728.059C736.354 38.3 741.331 42.566 741.331 54.416V140.684C741.331 152.534 736.354 156.8 728.059 156.8H714.787Z" fill="#3683BC"/>
<path d="M784.998 180.5H811.068V109.4H820.074C831.924 109.4 836.427 114.377 836.427 129.782V160.118C836.427 173.627 837.375 176.234 838.797 180.5H865.341C862.734 174.338 862.497 168.413 862.497 160.355V131.204C862.497 112.481 858.231 100.157 845.196 96.128V95.654C856.809 90.914 862.26 80.012 862.26 62.948V52.757C862.26 27.161 850.647 14.6 823.629 14.6H784.998V180.5ZM811.068 85.7V38.3H822.918C832.161 38.3 836.19 43.514 836.19 55.364V68.162C836.19 81.434 830.265 85.7 820.548 85.7H811.068Z" fill="#3683BC"/>
<path d="M880.585 180.5H906.655V14.6H880.585V180.5Z" fill="#3683BC"/>
<path d="M944.429 180.5H979.031L1004.15 14.6H980.216L963.152 143.291H962.678L945.614 14.6H919.307L944.429 180.5Z" fill="#3683BC"/>
<path d="M1016.67 180.5H1087.77V156.8H1042.74V105.845H1078.53V82.145H1042.74V38.3H1087.77V14.6H1016.67V180.5Z" fill="#3683BC"/>
<path d="M1102.77 180.5H1126V59.393H1126.47L1157.76 180.5H1184.54V14.6H1161.31V113.903H1160.84L1135.48 14.6H1102.77V180.5Z" fill="#3683BC"/>
<path d="M98.3996 23.12C133.13 23.12 150.99 37.61 150.99 59.24C150.989 61.2264 150.829 63.2095 150.51 65.17C152.908 59.473 154.136 53.3515 154.12 47.17C154.12 41.0859 152.921 35.0613 150.593 29.4403C148.265 23.8193 144.852 18.7119 140.55 14.4098C136.248 10.1076 131.14 6.69499 125.519 4.36669C119.898 2.03839 113.874 0.840027 107.79 0.840027H0.30957V93.5H30.5396V23.12H98.3996Z" fill="#24356C"/>
<path d="M118.64 63.6C118.64 52.69 110.11 47.33 94.4305 47.33H62.4805V80.07H94.4805C110.11 80.07 118.64 74.52 118.64 63.6Z" fill="#24356C"/>
<path d="M125.59 120.75C125.59 109.05 116.66 103.49 99.9905 103.49H62.4805V137.82H100C116.66 137.82 125.59 132.66 125.59 120.75Z" fill="#3683BC"/>
<path d="M141.25 93.7C151.63 99.86 157.93 110.22 157.93 124.13C157.93 148.13 138.88 162.03 102.37 162.03H31.8203V193.61H137.44C150.701 193.61 163.419 188.342 172.796 178.965C182.172 169.588 187.44 156.871 187.44 143.61C187.454 130.999 182.702 118.849 174.137 109.593C165.571 100.338 153.825 94.6609 141.25 93.7Z" fill="#3683BC"/>
<path d="M307 53.17V59.08C307 76.08 301.8 86.95 290.22 92.39C304.16 97.82 309.59 110.39 309.59 127.82V141.29C309.59 166.8 296.13 180.5 270.14 180.5H229.22V15.14H268.44C295.37 15.14 307 27.66 307 53.17ZM255.21 38.76V82.46H265.37C275.05 82.46 280.96 78.21 280.96 64.98V55.77C280.96 43.96 276.96 38.77 267.73 38.77L255.21 38.76ZM255.21 106.09V156.88H270.09C278.83 156.88 283.56 152.88 283.56 140.58V126.17C283.56 110.81 278.56 106.09 266.79 106.09H255.21Z" fill="#24356C"/>
<path d="M409.23 180.5H383L378.51 150.5H346.63L342.14 180.5H318.28L344.74 15.14H382.74L409.23 180.5ZM349.94 128.06H374.94L362.46 44.43L349.94 128.06Z" fill="#24356C"/>
<path d="M404.74 15.14H485.06V38.76H457.9V180.5H431.9V38.76H404.74V15.14Z" fill="#24356C"/>
<path d="M571.76 118.84V140.84C571.76 167.29 558.53 182.41 533.02 182.41C507.51 182.41 494.27 167.29 494.27 140.84V54.84C494.27 28.38 507.5 13.26 533.02 13.26C558.54 13.26 571.76 28.38 571.76 54.84V70.9H547.19V53.17C547.19 41.36 541.989 36.87 533.719 36.87C525.449 36.87 520.26 41.36 520.26 53.17V142.47C520.26 154.28 525.459 158.53 533.719 158.53C541.979 158.53 547.19 154.28 547.19 142.47V118.84H571.76Z" fill="#24356C"/>
<path d="M613.57 180.5H587.57V15.14H613.57V86H643.1V15.14H669.56V180.5H643.1V109.63H613.57V180.5Z" fill="#24356C"/>
</svg>
