<svg width="68" height="69" viewBox="0 0 68 69" fill="none" xmlns="http://www.w3.org/2000/svg">
<path d="M31.7035 17.3161C31.906 17.5151 32.1786 17.6266 32.4625 17.6266C32.7464 17.6266 33.0189 17.5151 33.2214 17.3161C33.4209 17.1069 33.5322 16.829 33.5322 16.5399C33.5322 16.2509 33.4209 15.9729 33.2214 15.7637L24.9417 7.48392C24.8405 7.37816 24.7192 7.29371 24.5849 7.23552C24.4506 7.17733 24.3061 7.14658 24.1597 7.14508C24.0134 7.14358 23.8682 7.17136 23.7327 7.22679C23.5973 7.28222 23.4743 7.36417 23.371 7.46784C23.2677 7.5715 23.1861 7.69477 23.1312 7.83041C23.0762 7.96605 23.0489 8.11131 23.0509 8.25765C23.0529 8.40399 23.0841 8.54846 23.1428 8.68255C23.2014 8.81664 23.2863 8.93765 23.3924 9.03847L31.7035 17.3161Z" fill="white"/>
<path d="M51.4345 34.0188C51.2287 33.8129 50.9494 33.6973 50.6583 33.6973C50.3672 33.6973 50.0879 33.8129 49.8821 34.0188C49.6762 34.2247 49.5605 34.5039 49.5605 34.795C49.5605 35.0862 49.6762 35.3654 49.8821 35.5712L58.1618 43.851C58.3644 44.05 58.6369 44.1614 58.9208 44.1614C59.2047 44.1614 59.4773 44.05 59.6798 43.851C59.8793 43.6418 59.9905 43.3638 59.9905 43.0748C59.9905 42.7857 59.8793 42.5078 59.6798 42.2986L51.4345 34.0188Z" fill="white"/>
<path d="M66.1729 24.563H54.4777C54.194 24.563 53.922 24.6757 53.7215 24.8762C53.5209 25.0768 53.4082 25.3488 53.4082 25.6325C53.4082 25.9161 53.5209 26.1881 53.7215 26.3887C53.922 26.5893 54.194 26.7019 54.4777 26.7019H66.1729C66.4565 26.7019 66.7285 26.5893 66.9291 26.3887C67.1296 26.1881 67.2423 25.9161 67.2423 25.6325C67.2423 25.3488 67.1296 25.0768 66.9291 24.8762C66.7285 24.6757 66.4565 24.563 66.1729 24.563Z" fill="white"/>
<path d="M50.6804 17.6305C50.8213 17.6307 50.9609 17.6031 51.0912 17.5493C51.2214 17.4955 51.3397 17.4165 51.4394 17.3168L59.7191 9.03707C59.925 8.8312 60.0407 8.55198 60.0407 8.26084C60.0407 7.9697 59.925 7.69048 59.7191 7.48461C59.6172 7.38268 59.4962 7.30182 59.363 7.24665C59.2298 7.19148 59.0871 7.16309 58.9429 7.16309C58.6518 7.16309 58.3725 7.27874 58.1667 7.48461L49.8869 15.7644C49.6874 15.9736 49.5762 16.2515 49.5762 16.5406C49.5762 16.8297 49.6874 17.1076 49.8869 17.3168C50.1048 17.5138 50.3867 17.6252 50.6804 17.6305Z" fill="white"/>
<path d="M41.5677 13.8686C41.8509 13.8672 42.1222 13.7541 42.3224 13.5539C42.5227 13.3536 42.6358 13.0824 42.6372 12.7991V1.06947C42.6372 0.78583 42.5245 0.513804 42.3239 0.31324C42.1234 0.112675 41.8514 0 41.5677 0C41.2841 0 41.0121 0.112675 40.8115 0.31324C40.6109 0.513804 40.4983 0.78583 40.4983 1.06947V12.7646C40.4955 12.9075 40.521 13.0495 40.5733 13.1824C40.6257 13.3153 40.7038 13.4366 40.8032 13.5392C40.9026 13.6418 41.0213 13.7238 41.1526 13.7803C41.2838 13.8368 41.4249 13.8668 41.5677 13.8686Z" fill="white"/>
<path d="M49.7123 45.7112C49.237 44.8484 48.4991 44.1596 47.6057 43.7448C48.6592 43.0558 49.4123 41.9931 49.7132 40.7709C50.0141 39.5487 49.8404 38.2578 49.2272 37.1586L48.7442 36.2961C48.2826 35.4718 47.602 34.7913 46.7778 34.3297C47.775 33.5841 48.4708 32.5047 48.738 31.2886C49.0052 30.0724 48.8259 28.8007 48.233 27.7058L47.8838 27.0786C47.4413 26.2759 46.792 25.6063 46.0034 25.1392C45.2148 24.6721 44.3155 24.4245 43.3989 24.4222H43.1574C43.369 23.7759 43.4445 23.0929 43.3792 22.416C43.3139 21.7392 43.1092 21.0831 42.778 20.4893L42.295 19.6268C41.8646 18.8418 41.2304 18.1875 40.4593 17.7327C39.6883 17.2779 38.8088 17.0394 37.9136 17.0425C37.0693 17.0437 36.2388 17.2573 35.4987 17.6635L26.3564 22.7693L21.2506 20.8374C19.9582 20.3323 18.5554 20.1773 17.1839 20.3879C15.4037 20.6785 13.7809 21.5814 12.5955 22.9408C12.561 22.9408 12.561 22.9753 12.561 23.0098L2.90125 35.4639C2.86676 35.5329 2.83226 35.5685 2.79671 35.6364C0.280273 40.7186 -0.288259 46.5463 1.19847 52.0191C2.68521 57.4918 6.12431 62.2308 10.8663 65.3411C14.6601 67.6653 19.0079 68.9289 23.4564 69.0001C25.8802 69.0021 28.2858 68.5819 30.5653 67.7582C35.9017 65.7309 40.2758 61.7634 42.8125 56.6495L48.5393 53.4756C49.0866 53.1757 49.5692 52.7706 49.9594 52.2835C50.3495 51.7964 50.6395 51.237 50.8127 50.6374C50.9858 50.0378 51.0387 49.4099 50.9682 48.7899C50.8978 48.1698 50.7054 47.5697 50.4022 47.0243L49.7123 45.7112ZM46.8143 37.3238L47.2973 38.1862C47.4783 38.5097 47.5934 38.8658 47.6358 39.234C47.6783 39.6022 47.6472 39.9752 47.5446 40.3313C47.4419 40.6875 47.2696 41.0197 47.0377 41.3088C46.8057 41.5979 46.5188 41.8382 46.1934 42.0156C44.8134 42.8436 36.6026 47.7425 34.8777 48.1909C34.6618 48.2345 34.4424 48.2576 34.2222 48.2599C33.717 48.2597 33.2209 48.1254 32.7846 47.8709C32.3482 47.6163 31.9872 47.2506 31.7383 46.811L31.2553 45.9485C31.072 45.627 30.956 45.2716 30.9145 44.9039C30.873 44.5362 30.9068 44.1638 31.0138 43.8096C31.1324 43.3629 31.371 42.9573 31.7038 42.6366L44.0199 35.9135C44.1245 35.9135 44.229 35.879 44.3335 35.879C44.8395 35.8708 45.338 36.0011 45.7752 36.2557C46.2125 36.5104 46.5718 36.8797 46.8143 37.3238ZM41.95 27.0472C42.3811 26.8015 42.8682 26.6709 43.3644 26.6677C43.8826 26.6697 44.3912 26.8077 44.8393 27.0681C45.2873 27.3284 45.6591 27.7019 45.9174 28.1512L46.2624 28.7722C46.454 29.1032 46.5744 29.4705 46.616 29.8507C46.6576 30.2309 46.6194 30.6155 46.5038 30.9801C46.4055 31.3518 46.2323 31.6995 45.9951 32.002C45.7578 32.3045 45.4614 32.5555 45.1239 32.7396L43.1229 33.8435C39.0176 36.086 34.9122 38.3284 30.8068 40.5343C30.5904 40.5743 30.3713 40.5973 30.1513 40.6033C29.5925 40.5931 29.0458 40.4386 28.5644 40.1548C28.1668 39.889 27.8361 39.5347 27.5984 39.1198L27.2534 38.4988C27.2534 38.4643 27.2189 38.4643 27.2189 38.4298C26.8817 37.7697 26.7959 37.0095 26.9774 36.2909C27.0796 35.9255 27.2557 35.5849 27.4949 35.2904C28.4851 35.3257 29.4765 35.2908 30.4618 35.1859C31.5065 35.0732 32.5045 34.6934 33.3597 34.0829C33.5672 33.951 33.7534 33.7881 33.9117 33.5999C34.763 32.7548 35.3401 31.6728 35.5677 30.495L37.2926 29.5291L41.95 27.0472ZM36.4991 19.6247C36.9206 19.39 37.3967 19.2709 37.8791 19.2797C38.3843 19.28 38.8804 19.4142 39.3167 19.6688C39.7531 19.9233 40.1141 20.2891 40.363 20.7287L40.846 21.5912C41.027 21.9146 41.1421 22.2707 41.1845 22.6389C41.2269 23.0071 41.1959 23.3801 41.0933 23.7363C40.9906 24.0924 40.8183 24.4246 40.5864 24.7137C40.3544 25.0029 40.0674 25.2431 39.742 25.4205L35.7402 27.6337C35.7131 27.3321 35.667 27.0325 35.6022 26.7367C35.5659 26.5652 35.4868 26.4056 35.3721 26.2728C35.2575 26.1401 35.1111 26.0386 34.9467 25.9778L29.0128 23.7332L36.4991 19.6247ZM29.8753 65.8639C21.0781 69.0723 13.4193 64.5529 11.9703 63.6214C7.65533 60.7954 4.5228 56.4889 3.16293 51.5133C1.80307 46.5377 2.30975 41.2366 4.58752 36.6087L14.1438 24.2559C15.0161 23.2745 16.1954 22.6178 17.4891 22.393C18.5123 22.2307 19.5603 22.35 20.5208 22.738L23.9018 24.0144L24.0398 24.0834L25.3852 24.6009L26.6962 25.1236L29.6286 26.2276L33.7016 27.7372C33.7453 28.0805 33.7683 28.4261 33.7706 28.7722V29.0858C33.7562 29.4229 33.71 29.7579 33.6326 30.0863C33.5981 30.2243 33.5636 30.3623 33.528 30.4658C33.3968 30.9071 33.199 31.3259 32.9415 31.7077C32.8022 31.8904 32.6524 32.0649 32.4931 32.2304C32.3972 32.3217 32.2921 32.4026 32.1794 32.4719C31.9266 32.6607 31.6477 32.8118 31.3515 32.9204C30.9759 33.0687 30.5808 33.1617 30.1785 33.1964C29.5833 33.2687 28.9841 33.3036 28.3845 33.301H27.3496C27.0387 33.3067 26.7277 33.2952 26.4181 33.2665C25.1647 33.1618 23.9267 32.9189 22.7267 32.542C22.1525 32.3655 21.5882 32.1582 21.0362 31.921L20.1048 31.5028C19.9837 31.4376 19.8494 31.4006 19.712 31.3946C19.5746 31.3886 19.4376 31.4138 19.3113 31.4683C19.0573 31.563 18.848 31.7495 18.7248 31.991L17.2069 35.1994C17.1255 35.3782 17.0954 35.5761 17.1197 35.771C17.1441 35.9658 17.222 36.1502 17.3448 36.3034C19.3765 38.6095 20.4285 41.6171 20.2773 44.6867C20.1117 46.8814 19.3083 48.9799 17.9658 50.724C17.8101 50.9393 17.7455 51.2072 17.7858 51.4698C17.8261 51.7324 17.9681 51.9686 18.1812 52.1272C18.3943 52.2859 18.6613 52.3543 18.9244 52.3177C19.1875 52.2811 19.4256 52.1423 19.5873 51.9315L19.9009 51.5133C21.2892 49.528 22.112 47.2027 22.2813 44.786C22.4852 41.4039 21.4143 38.0682 19.2799 35.4368L20.1079 33.7118C21.6845 34.3867 23.3433 34.8507 25.0413 35.0918C24.7397 35.8089 24.6047 36.5851 24.6465 37.362C24.6883 38.1388 24.9059 38.8961 25.2828 39.5766L25.5588 40.0596L25.6278 40.1976C25.9591 40.7958 26.4045 41.3232 26.9387 41.7501C27.5714 42.2336 28.301 42.5748 29.0777 42.7506C28.8158 43.4361 28.7049 44.1701 28.7526 44.9024C28.8002 45.6347 29.0052 46.3481 29.3536 46.9939L29.8366 47.8564C30.1965 48.4964 30.6916 49.0501 31.2874 49.4791C31.8833 49.9081 32.5655 50.202 33.2865 50.3403C32.7652 51.4027 32.6666 52.6234 33.0105 53.7557C33.1204 54.0897 33.2604 54.413 33.4287 54.7217L34.1532 55.9982C34.3435 56.3362 34.5753 56.6491 34.8432 56.9297C35.2898 57.4064 35.8294 57.7865 36.4287 58.0466C37.028 58.3066 37.6743 58.4409 38.3276 58.4413C38.7002 58.4465 39.0717 58.4001 39.4315 58.3033C37.1166 61.7622 33.774 64.4068 29.8753 65.8639ZM48.8498 50.0633C48.6523 50.7497 48.1941 51.3316 47.5733 51.6848L42.6745 54.4102L41.2945 55.1692L39.673 56.0661C39.2764 56.3003 38.8226 56.4197 38.3621 56.4111C38.0167 56.4144 37.6742 56.349 37.3544 56.2187C37.0346 56.0884 36.7439 55.8958 36.4991 55.6521C36.3113 55.4674 36.1489 55.2586 36.0161 55.0312L35.5677 54.2032L35.2917 53.7547C34.9549 53.1317 34.8686 52.4037 35.0502 51.7193C35.2477 51.0329 35.7058 50.4509 36.3266 50.0978L40.4968 47.778L41.7388 47.088L42.7048 46.5705L44.2917 45.7081C44.6883 45.4739 45.1422 45.3545 45.6027 45.3631C46.0821 45.3588 46.5536 45.4849 46.9669 45.728C47.3801 45.9711 47.7195 46.3219 47.9486 46.743L48.6731 48.0195C48.9567 48.6606 49.0188 49.3778 48.8498 50.0581V50.0633Z" fill="white"/>
</svg>
