<svg width="15" height="11" viewBox="0 0 15 11" fill="none" xmlns="http://www.w3.org/2000/svg">
<path d="M15 9.625V1.375C15 0.614167 14.4092 0 13.6772 0H1.32275C0.590829 0 0 0.614167 0 1.375V9.625C0 10.3858 0.590829 11 1.32275 11H13.6772C14.4092 11 15 10.3858 15 9.625ZM13.8448 1.27417C14.1358 1.57667 13.9771 1.88833 13.8183 2.04417L10.2381 5.45417L13.6772 9.17583C13.7831 9.30417 13.8536 9.50583 13.7302 9.64333C13.6155 9.79 13.351 9.78083 13.2363 9.68917L9.38272 6.27L7.49559 8.0575L5.61728 6.27L1.76367 9.68917C1.64903 9.78083 1.38448 9.79 1.26984 9.64333C1.14638 9.50583 1.21693 9.30417 1.32275 9.17583L4.7619 5.45417L1.18166 2.04417C1.02293 1.88833 0.864197 1.57667 1.1552 1.27417C1.44621 0.971667 1.74603 1.11833 1.99295 1.33833L7.49559 5.95833L13.0071 1.33833C13.254 1.11833 13.5538 0.971667 13.8448 1.27417Z" fill="#C3C3C3"/>
</svg>
