<svg width="40" height="32" viewBox="0 0 40 32" fill="none" xmlns="http://www.w3.org/2000/svg">
<path d="M30 0H10C7.34784 0 4.8043 1.05357 2.92893 2.92893C1.05357 4.8043 0 7.34784 0 10V32H36C37.0609 32 38.0783 31.5786 38.8284 30.8284C39.5786 30.0783 40 29.0609 40 28V10C40 7.34784 38.9464 4.8043 37.0711 2.92893C35.1957 1.05357 32.6522 0 30 0ZM16 28H4V10C4 8.4087 4.63214 6.88258 5.75736 5.75736C6.88258 4.63214 8.4087 4 10 4C11.5913 4 13.1174 4.63214 14.2426 5.75736C15.3679 6.88258 16 8.4087 16 10V28ZM34 22H30V18H22V14H34V22ZM14 14H6V10H14V14Z" fill="#C3C3C3"/>
</svg>
