<svg width="100" height="100" viewBox="0 0 100 100" fill="none" xmlns="http://www.w3.org/2000/svg">
<path d="M91.9673 7.96091C91.9673 7.94491 91.9723 7.92991 91.9723 7.91391C91.9723 7.18959 91.6848 6.4949 91.1729 5.98245C90.661 5.46999 89.9666 5.1817 89.2423 5.18091H89.2403H39.5593V5.19191L8.03132 36.7209H8.02832V92.0859H8.03132V92.0869C8.03238 92.8114 8.32086 93.5059 8.83344 94.0179C9.34602 94.5299 10.0408 94.8176 10.7653 94.8179H89.2443C89.8668 94.8168 90.4702 94.6031 90.9546 94.212C91.4389 93.821 91.7751 93.2762 91.9073 92.6679H91.9673V92.1319C91.9673 92.1169 91.9713 92.1029 91.9713 92.0879C91.9713 92.0729 91.9673 92.0589 91.9673 92.0439V7.96091ZM67.6393 15.1379H82.0103V39.7349L63.8973 21.6209L67.6393 15.1379ZM39.5703 39.4529V39.4519C40.2928 39.4493 40.9848 39.1605 41.495 38.6489C42.0051 38.1373 42.2918 37.4444 42.2923 36.7219V15.1379H61.8803L34.7103 62.1979L17.9853 45.4729V39.4529H39.5703ZM17.9853 84.8619V52.5269L32.1283 66.6699L21.6263 84.8619H17.9853ZM27.3853 84.8619L61.3153 26.0929L82.0113 46.7889V84.8619H27.3853Z" fill="#3683BC"/>
<path d="M62.0299 45.5759C55.3849 45.5759 50.0039 50.9629 50.0039 57.6029C50.0039 60.2619 50.8769 62.7119 52.3379 64.7029L60.0969 78.1419C60.1439 78.2359 60.1939 78.3279 60.2539 78.4129L60.2699 78.4399L60.2739 78.4379C60.4657 78.7048 60.7158 78.9243 61.0053 79.0799C61.2947 79.2354 61.6158 79.3229 61.9442 79.3356C62.2725 79.3484 62.5994 79.286 62.9 79.1533C63.2007 79.0206 63.467 78.8211 63.6789 78.5699L63.6989 78.5809L63.7739 78.4519C63.8904 78.2992 63.9868 78.1322 64.0609 77.9549L71.6689 64.7769C73.2205 62.7067 74.0591 60.1891 74.0589 57.6019C74.0559 50.9629 68.6749 45.5759 62.0299 45.5759ZM61.9109 63.6999C58.6369 63.6999 55.9849 61.0489 55.9849 57.7749C55.9847 56.6028 56.3321 55.457 56.9831 54.4823C57.6342 53.5077 58.5596 52.748 59.6424 52.2993C60.7252 51.8506 61.9168 51.7331 63.0664 51.9617C64.216 52.1902 65.272 52.7545 66.1009 53.5833C66.9297 54.412 67.4942 55.4679 67.723 56.6175C67.9517 57.767 67.8344 58.9586 67.3859 60.0415C66.9374 61.1244 66.1779 62.0499 65.2033 62.7011C64.2288 63.3523 63.083 63.6999 61.9109 63.6999Z" fill="#3683BC"/>
<path d="M25.0524 36.6842C32.61 36.6842 38.7366 30.5576 38.7366 23C38.7366 15.4424 32.61 9.3158 25.0524 9.3158C17.4948 9.3158 11.3682 15.4424 11.3682 23C11.3682 30.5576 17.4948 36.6842 25.0524 36.6842Z" fill="white"/>
<path d="M24 29C27.3137 29 30 26.3137 30 23C30 19.6863 27.3137 17 24 17C20.6863 17 18 19.6863 18 23C18 26.3137 20.6863 29 24 29Z" fill="#3683BC"/>
<path d="M28.2406 2H28.24H19.76C18.3568 2 17.0125 2.59962 16.0666 3.62024L16.0665 3.62021L16.0608 3.62651L13.8983 6H8C5.24772 6 3 8.24772 3 11V35C3 37.7523 5.24772 40 8 40H40C42.7523 40 45 37.7523 45 35V11C45 8.24772 42.7523 6 40 6H34.0993L31.9193 3.62663C31.9188 3.62606 31.9183 3.62548 31.9177 3.6249C31.4517 3.11368 30.8842 2.70516 30.2515 2.42539C29.6181 2.14531 28.9332 2.00043 28.2406 2ZM24 32C19.0323 32 15 27.9677 15 23C15 18.0323 19.0323 14 24 14C28.9677 14 33 18.0323 33 23C33 27.9677 28.9677 32 24 32Z" fill="#3683BC" stroke="white" stroke-width="2"/>
</svg>
