<svg width="22" height="21" viewBox="0 0 22 21" fill="none" xmlns="http://www.w3.org/2000/svg">
<path d="M11.0003 9.99967C11.5986 9.99967 12.0837 9.51465 12.0837 8.91634C12.0837 8.31803 11.5986 7.83301 11.0003 7.83301C10.402 7.83301 9.91699 8.31803 9.91699 8.91634C9.91699 9.51465 10.402 9.99967 11.0003 9.99967Z" fill="#454545"/>
<path d="M15.3324 9.99967C15.9307 9.99967 16.4157 9.51465 16.4157 8.91634C16.4157 8.31803 15.9307 7.83301 15.3324 7.83301C14.734 7.83301 14.249 8.31803 14.249 8.91634C14.249 9.51465 14.734 9.99967 15.3324 9.99967Z" fill="#454545"/>
<path d="M6.66829 9.99967C7.2666 9.99967 7.75163 9.51465 7.75163 8.91634C7.75163 8.31803 7.2666 7.83301 6.66829 7.83301C6.06999 7.83301 5.58496 8.31803 5.58496 8.91634C5.58496 9.51465 6.06999 9.99967 6.66829 9.99967Z" fill="#454545"/>
<path d="M18.5837 0.25H3.41699C2.55504 0.25 1.72839 0.59241 1.1189 1.2019C0.509402 1.8114 0.166992 2.63805 0.166992 3.5V19.75C0.167323 19.942 0.218655 20.1304 0.315734 20.296C0.412814 20.4616 0.552154 20.5984 0.719492 20.6925C0.881403 20.7843 1.06422 20.8328 1.25033 20.8333C1.44477 20.8333 1.63561 20.7809 1.80283 20.6817L6.66699 17.735C6.84679 17.628 7.05374 17.5753 7.26283 17.5833H18.5837C19.4456 17.5833 20.2723 17.2409 20.8818 16.6314C21.4913 16.0219 21.8337 15.1953 21.8337 14.3333V3.5C21.8337 2.63805 21.4913 1.8114 20.8818 1.2019C20.2723 0.59241 19.4456 0.25 18.5837 0.25ZM19.667 14.3333C19.667 14.6207 19.5529 14.8962 19.3497 15.0994C19.1465 15.3025 18.871 15.4167 18.5837 15.4167H7.26283C6.67113 15.4162 6.09054 15.5773 5.58366 15.8825L2.33366 17.8325V3.5C2.33366 3.21268 2.4478 2.93713 2.65096 2.73397C2.85412 2.5308 3.12967 2.41667 3.41699 2.41667H18.5837C18.871 2.41667 19.1465 2.5308 19.3497 2.73397C19.5529 2.93713 19.667 3.21268 19.667 3.5V14.3333Z" fill="#454545"/>
</svg>
