<svg width="15" height="16" viewBox="0 0 15 16" fill="none" xmlns="http://www.w3.org/2000/svg">
<path d="M13.3378 14.8827L14.0846 12.0645C14.1655 11.7583 14.0146 11.4364 13.7293 11.3015L10.7138 9.89241C10.4499 9.76912 10.1335 9.83543 9.94328 10.0561L8.53577 11.6669C6.47345 10.6166 4.787 8.84312 3.85398 6.67311L5.55211 5.37231C5.7847 5.19397 5.87118 4.8852 5.76515 4.61395L4.55329 1.51393C4.43439 1.21767 4.12289 1.04637 3.81209 1.10741L0.951618 1.67108C0.654561 1.72982 0.433158 1.98505 0.42321 2.29355C0.19773 9.28545 5.67973 15.1441 12.6825 15.3699C12.9883 15.3798 13.2599 15.1781 13.3378 14.8827Z" fill="#C3C3C3"/>
</svg>
