<svg width="16" height="15" viewBox="0 0 16 15" fill="none" xmlns="http://www.w3.org/2000/svg">
<path d="M13.1328 13.125L13.2939 13.2422C13.1865 13.3398 13.1328 13.457 13.1328 13.5938C13.1328 13.7207 13.1792 13.8306 13.272 13.9233C13.3647 14.0161 13.4746 14.0625 13.6016 14.0625H14.3779L14.627 14.2529C14.2461 14.751 13.748 15 13.1328 15H1.88281C1.36523 15 0.92334 14.8169 0.557129 14.4507C0.190918 14.0845 0.0078125 13.6426 0.0078125 13.125V1.875C0.0078125 1.35742 0.190918 0.915527 0.557129 0.549316C0.92334 0.183105 1.36523 0 1.88281 0H13.1328C13.748 0 14.2461 0.249023 14.627 0.74707L14.3779 0.9375H13.6016C13.4746 0.9375 13.3647 0.983887 13.272 1.07666C13.1792 1.16943 13.1328 1.2793 13.1328 1.40625C13.1328 1.54297 13.1865 1.66016 13.2939 1.75781L13.1328 1.875L15.0078 3.28125L13.1328 4.6875L15.0078 6.09375L13.1328 7.5L15.0078 8.90625L13.1328 10.3125L15.0078 11.7188L13.1328 13.125ZM7.97656 14.0625H8.91406C9.04102 14.0625 9.15088 14.0161 9.24365 13.9233C9.33643 13.8306 9.38281 13.7207 9.38281 13.5938C9.38281 13.4668 9.33643 13.3569 9.24365 13.2642C9.15088 13.1714 9.04102 13.125 8.91406 13.125H7.97656C7.84961 13.125 7.73975 13.1714 7.64697 13.2642C7.5542 13.3569 7.50781 13.4668 7.50781 13.5938C7.50781 13.7207 7.5542 13.8306 7.64697 13.9233C7.73975 14.0161 7.84961 14.0625 7.97656 14.0625ZM10.3203 11.25C10.8379 11.25 11.2798 11.0669 11.646 10.7007C12.0122 10.3345 12.1953 9.89258 12.1953 9.375C12.1953 8.85742 12.0122 8.41553 11.646 8.04932C11.2798 7.68311 10.8379 7.5 10.3203 7.5C9.80273 7.5 9.36084 7.68311 8.99463 8.04932C8.62842 8.41553 8.44531 8.85742 8.44531 9.375C8.44531 9.89258 8.62842 10.3345 8.99463 10.7007C9.36084 11.0669 9.80273 11.25 10.3203 11.25ZM5.16406 14.0625H6.10156C6.22852 14.0625 6.33838 14.0161 6.43115 13.9233C6.52393 13.8306 6.57031 13.7207 6.57031 13.5938C6.57031 13.4668 6.52393 13.3569 6.43115 13.2642C6.33838 13.1714 6.22852 13.125 6.10156 13.125H5.16406C5.03711 13.125 4.92725 13.1714 4.83447 13.2642C4.7417 13.3569 4.69531 13.4668 4.69531 13.5938C4.69531 13.7207 4.7417 13.8306 4.83447 13.9233C4.92725 14.0161 5.03711 14.0625 5.16406 14.0625ZM2.35156 14.0625H3.28906C3.41602 14.0625 3.52588 14.0161 3.61865 13.9233C3.71143 13.8306 3.75781 13.7207 3.75781 13.5938C3.75781 13.4668 3.71143 13.3569 3.61865 13.2642C3.52588 13.1714 3.41602 13.125 3.28906 13.125H2.35156C2.22461 13.125 2.11475 13.1714 2.02197 13.2642C1.9292 13.3569 1.88281 13.4668 1.88281 13.5938C1.88281 13.7207 1.9292 13.8306 2.02197 13.9233C2.11475 14.0161 2.22461 14.0625 2.35156 14.0625ZM0.945312 12.1875C0.945312 12.3145 0.991699 12.4243 1.08447 12.5171C1.17725 12.6099 1.28711 12.6562 1.41406 12.6562C1.54102 12.6562 1.65088 12.6099 1.74365 12.5171C1.83643 12.4243 1.88281 12.3145 1.88281 12.1875V11.25C1.88281 11.123 1.83643 11.0132 1.74365 10.9204C1.65088 10.8276 1.54102 10.7812 1.41406 10.7812C1.28711 10.7812 1.17725 10.8276 1.08447 10.9204C0.991699 11.0132 0.945312 11.123 0.945312 11.25V12.1875ZM0.945312 9.375C0.945312 9.50195 0.991699 9.61182 1.08447 9.70459C1.17725 9.79736 1.28711 9.84375 1.41406 9.84375C1.54102 9.84375 1.65088 9.79736 1.74365 9.70459C1.83643 9.61182 1.88281 9.50195 1.88281 9.375V8.4375C1.88281 8.31055 1.83643 8.20068 1.74365 8.10791C1.65088 8.01514 1.54102 7.96875 1.41406 7.96875C1.28711 7.96875 1.17725 8.01514 1.08447 8.10791C0.991699 8.20068 0.945312 8.31055 0.945312 8.4375V9.375ZM0.945312 6.5625C0.945312 6.68945 0.991699 6.79932 1.08447 6.89209C1.17725 6.98486 1.28711 7.03125 1.41406 7.03125C1.54102 7.03125 1.65088 6.98486 1.74365 6.89209C1.83643 6.79932 1.88281 6.68945 1.88281 6.5625V5.625C1.88281 5.49805 1.83643 5.38818 1.74365 5.29541C1.65088 5.20264 1.54102 5.15625 1.41406 5.15625C1.28711 5.15625 1.17725 5.20264 1.08447 5.29541C0.991699 5.38818 0.945312 5.49805 0.945312 5.625V6.5625ZM1.41406 2.34375C1.28711 2.34375 1.17725 2.39014 1.08447 2.48291C0.991699 2.57568 0.945312 2.68555 0.945312 2.8125V3.75C0.945312 3.87695 0.991699 3.98682 1.08447 4.07959C1.17725 4.17236 1.28711 4.21875 1.41406 4.21875C1.54102 4.21875 1.65088 4.17236 1.74365 4.07959C1.83643 3.98682 1.88281 3.87695 1.88281 3.75V2.8125C1.88281 2.68555 1.83643 2.57568 1.74365 2.48291C1.65088 2.39014 1.54102 2.34375 1.41406 2.34375ZM3.28906 0.9375H2.35156C2.22461 0.9375 2.11475 0.983887 2.02197 1.07666C1.9292 1.16943 1.88281 1.2793 1.88281 1.40625C1.88281 1.5332 1.9292 1.64307 2.02197 1.73584C2.11475 1.82861 2.22461 1.875 2.35156 1.875H3.28906C3.41602 1.875 3.52588 1.82861 3.61865 1.73584C3.71143 1.64307 3.75781 1.5332 3.75781 1.40625C3.75781 1.2793 3.71143 1.16943 3.61865 1.07666C3.52588 0.983887 3.41602 0.9375 3.28906 0.9375ZM6.10156 0.9375H5.16406C5.03711 0.9375 4.92725 0.983887 4.83447 1.07666C4.7417 1.16943 4.69531 1.2793 4.69531 1.40625C4.69531 1.5332 4.7417 1.64307 4.83447 1.73584C4.92725 1.82861 5.03711 1.875 5.16406 1.875H6.10156C6.22852 1.875 6.33838 1.82861 6.43115 1.73584C6.52393 1.64307 6.57031 1.5332 6.57031 1.40625C6.57031 1.2793 6.52393 1.16943 6.43115 1.07666C6.33838 0.983887 6.22852 0.9375 6.10156 0.9375ZM5.63281 3.75C5.11523 3.75 4.67334 3.93311 4.30713 4.29932C3.94092 4.66553 3.75781 5.10742 3.75781 5.625C3.75781 6.14258 3.94092 6.58447 4.30713 6.95068C4.67334 7.31689 5.11523 7.5 5.63281 7.5C6.15039 7.5 6.59229 7.31689 6.9585 6.95068C7.32471 6.58447 7.50781 6.14258 7.50781 5.625C7.50781 5.10742 7.32471 4.66553 6.9585 4.29932C6.59229 3.93311 6.15039 3.75 5.63281 3.75ZM8.91406 0.9375H7.97656C7.84961 0.9375 7.73975 0.983887 7.64697 1.07666C7.5542 1.16943 7.50781 1.2793 7.50781 1.40625C7.50781 1.5332 7.5542 1.64307 7.64697 1.73584C7.73975 1.82861 7.84961 1.875 7.97656 1.875H8.91406C9.04102 1.875 9.15088 1.82861 9.24365 1.73584C9.33643 1.64307 9.38281 1.5332 9.38281 1.40625C9.38281 1.2793 9.33643 1.16943 9.24365 1.07666C9.15088 0.983887 9.04102 0.9375 8.91406 0.9375ZM10.1079 3.81592C10.0054 3.75244 9.89551 3.73535 9.77832 3.76465C9.66113 3.79395 9.56836 3.86719 9.5 3.98438L5.69141 10.5615C5.63281 10.6689 5.61816 10.7861 5.64746 10.9131C5.67676 11.04 5.74512 11.1353 5.85254 11.1987C5.95996 11.2622 6.07227 11.2769 6.18945 11.2427C6.30664 11.2085 6.39453 11.1377 6.45312 11.0303L10.2764 4.43848C10.335 4.33105 10.3472 4.21631 10.313 4.09424C10.2788 3.97217 10.2104 3.87939 10.1079 3.81592ZM11.7266 0.9375H10.7891C10.6621 0.9375 10.5522 0.983887 10.4595 1.07666C10.3667 1.16943 10.3203 1.2793 10.3203 1.40625C10.3203 1.5332 10.3667 1.64307 10.4595 1.73584C10.5522 1.82861 10.6621 1.875 10.7891 1.875H11.7266C11.8535 1.875 11.9634 1.82861 12.0562 1.73584C12.1489 1.64307 12.1953 1.5332 12.1953 1.40625C12.1953 1.2793 12.1489 1.16943 12.0562 1.07666C11.9634 0.983887 11.8535 0.9375 11.7266 0.9375ZM11.7266 13.125H10.7891C10.6621 13.125 10.5522 13.1714 10.4595 13.2642C10.3667 13.3569 10.3203 13.4668 10.3203 13.5938C10.3203 13.7207 10.3667 13.8306 10.4595 13.9233C10.5522 14.0161 10.6621 14.0625 10.7891 14.0625H11.7266C11.8535 14.0625 11.9634 14.0161 12.0562 13.9233C12.1489 13.8306 12.1953 13.7207 12.1953 13.5938C12.1953 13.4668 12.1489 13.3569 12.0562 13.2642C11.9634 13.1714 11.8535 13.125 11.7266 13.125ZM5.64014 6.5625C5.38135 6.5625 5.15918 6.46973 4.97363 6.28418C4.78809 6.09863 4.69531 5.87646 4.69531 5.61768C4.69531 5.35889 4.78809 5.13916 4.97363 4.9585C5.15918 4.77783 5.38135 4.6875 5.64014 4.6875C5.89893 4.6875 6.11865 4.77783 6.29932 4.9585C6.47998 5.13916 6.57031 5.35889 6.57031 5.61768C6.57031 5.87646 6.47998 6.09863 6.29932 6.28418C6.11865 6.46973 5.89893 6.5625 5.64014 6.5625ZM10.3276 8.4375C10.5864 8.4375 10.8062 8.52783 10.9868 8.7085C11.1675 8.88916 11.2578 9.10889 11.2578 9.36768C11.2578 9.62646 11.1675 9.84863 10.9868 10.0342C10.8062 10.2197 10.5864 10.3125 10.3276 10.3125C10.0688 10.3125 9.84668 10.2197 9.66113 10.0342C9.47559 9.84863 9.38281 9.62646 9.38281 9.36768C9.38281 9.10889 9.47559 8.88916 9.66113 8.7085C9.84668 8.52783 10.0688 8.4375 10.3276 8.4375Z" fill="#C4C4C4"/>
</svg>
