<svg width="14" height="14" viewBox="0 0 14 14" fill="none" xmlns="http://www.w3.org/2000/svg">
<path d="M11.8998 0H4.89985C4.12775 0 3.49985 0.6279 3.49985 1.4V5.3102L0.204951 8.6051C0.107084 8.703 0.0404397 8.82771 0.0134424 8.96348C-0.0135549 9.09925 0.000307266 9.23997 0.0532763 9.36786C0.106245 9.49575 0.195943 9.60506 0.31103 9.68198C0.426117 9.7589 0.561426 9.79997 0.699851 9.8V13.3C0.699851 13.4857 0.773601 13.6637 0.904876 13.795C1.03615 13.9263 1.2142 14 1.39985 14H12.5999C12.7855 14 12.9635 13.9263 13.0948 13.795C13.2261 13.6637 13.2999 13.4857 13.2999 13.3V1.4C13.2999 0.6279 12.672 0 11.8998 0ZM6.29985 12.6H2.09985V8.6898L4.19985 6.5898L6.29985 8.6898V12.6ZM11.8998 12.6H7.69985V9.8C7.83843 9.80031 7.97397 9.75943 8.08927 9.68257C8.20458 9.60571 8.29445 9.49632 8.34747 9.36829C8.4005 9.24026 8.41429 9.09937 8.3871 8.96349C8.35991 8.8276 8.29296 8.70286 8.19475 8.6051L4.89985 5.3102V1.4H11.8998V12.6Z" fill="#8F8F8F"/>
<path d="M6.3 2.7998H7.7V4.1998H6.3V2.7998ZM9.1 2.7998H10.5V4.1998H9.1V2.7998ZM9.1 5.6215H10.5V6.9998H9.1V5.6215ZM9.1 8.3998H10.5V9.7998H9.1V8.3998ZM3.5 9.0998H4.9V10.4998H3.5V9.0998Z" fill="#8F8F8F"/>
</svg>
