<svg _ngcontent-ceu-c271="" _ngcontent-uhu-c261="" width="40" height="38" viewBox="0 0 40 38" fill="none" xmlns="http://www.w3.org/2000/svg"><ellipse _ngcontent-ceu-c271="" _ngcontent-uhu-c261="" cx="20" cy="19" rx="20" ry="19" fill="#C4C4C4"></ellipse><ellipse _ngcontent-ceu-c271="" _ngcontent-uhu-c261="" cx="20" cy="19" rx="20" ry="19" fill="#3683bc"></ellipse><path _ngcontent-ceu-c271="" _ngcontent-uhu-c261="" d="M17.6053 9.95617C16.5358 10.7202 16.2485 11.9299 16.3011 12.5737C16.3685 13.361 16.5348 14.3858 16.5348 14.3858C16.5348 14.3858 16.2053 14.5576 16.2053 15.2489C16.3201 16.9841 16.9243 16.2352 17.0485 16.9962C17.3474 18.8295 18.0306 18.5031 18.0306 19.5036C18.0306 21.1701 17.3148 21.9493 15.0801 22.8731C12.8379 23.8008 10.5264 24.9681 10.5264 26.9894V28H29.4737V26.9894C29.4737 24.9681 27.1611 23.8008 24.9179 22.8741C22.6832 21.9504 21.9695 21.1722 21.9695 19.5046C21.9695 18.5041 22.6506 18.8305 22.9506 16.9972C23.0758 16.2362 23.679 16.9851 23.7958 15.2499C23.7958 14.5586 23.4653 14.3868 23.4653 14.3868C23.4653 14.3868 23.6316 13.362 23.6979 12.5747C23.7664 11.749 23.279 9.98649 21.2769 9.4458C20.9264 9.10219 20.6895 8.55543 21.7674 8.00666C19.4095 7.90054 18.8611 9.085 17.6053 9.95617Z" fill="white"></path></svg>