<svg _ngcontent-ayh-c275="" width="40" height="42" viewBox="0 0 40 40" fill="none" xmlns="http://www.w3.org/2000/svg"><circle _ngcontent-ayh-c275="" cx="20" cy="20" r="20" fill="#C4C4C4"></circle><path _ngcontent-ayh-c275="" d="M20.7337 18.642C17.9312 17.9136 17.03 17.1605 17.03 15.9877C17.03 14.642 18.2769 13.7037 20.3633 13.7037C22.5609 13.7037 23.3757 14.7531 23.4497 16.2963H26.1781C26.0917 14.1729 24.7954 12.2222 22.2152 11.5926V8.88892H18.5115V11.5556C16.1164 12.0741 14.1905 13.6297 14.1905 16.0124C14.1905 18.8642 16.5485 20.284 19.993 21.1111C23.0794 21.8519 23.6967 22.9383 23.6967 24.0864C23.6967 24.9383 23.0917 26.2963 20.3633 26.2963C17.8201 26.2963 16.8201 25.1605 16.6843 23.7037H13.9683C14.1164 26.4074 16.1411 27.926 18.5115 28.4321V31.1111H22.2152V28.4568C24.6226 28 26.5362 26.605 26.5362 24.0741C26.5362 20.5679 23.5362 19.3704 20.7337 18.642Z" fill="white"></path></svg>