<svg width="18" height="20" viewBox="0 0 18 20" fill="none" xmlns="http://www.w3.org/2000/svg">
<path d="M5.72 2.62H5.54C5.639 2.62 5.72 2.539 5.72 2.44V2.62H12.56V2.44C12.56 2.539 12.641 2.62 12.74 2.62H12.56V4.24H14.18V2.44C14.18 1.64575 13.5342 1 12.74 1H5.54C4.74575 1 4.1 1.64575 4.1 2.44V4.24H5.72V2.62ZM17.06 4.24H1.22C0.82175 4.24 0.5 4.56175 0.5 4.96V5.68C0.5 5.779 0.581 5.86 0.68 5.86H2.039L2.59475 17.6275C2.63075 18.3948 3.26525 19 4.0325 19H14.2475C15.017 19 15.6493 18.397 15.6853 17.6275L16.241 5.86H17.6C17.699 5.86 17.78 5.779 17.78 5.68V4.96C17.78 4.56175 17.4583 4.24 17.06 4.24ZM14.0742 17.38H4.20575L3.66125 5.86H14.6187L14.0742 17.38Z" fill="white"/>
<path d="M5.72 2.62H5.54C5.639 2.62 5.72 2.539 5.72 2.44V2.62ZM5.72 2.62H12.56V2.44C12.56 2.539 12.641 2.62 12.74 2.62H12.56V4.24H14.18V2.44C14.18 1.64575 13.5342 1 12.74 1H5.54C4.74575 1 4.1 1.64575 4.1 2.44V4.24H5.72V2.62ZM17.06 4.24H1.22C0.82175 4.24 0.5 4.56175 0.5 4.96V5.68C0.5 5.779 0.581 5.86 0.68 5.86H2.039L2.59475 17.6275C2.63075 18.3948 3.26525 19 4.0325 19H14.2475C15.017 19 15.6492 18.397 15.6852 17.6275L16.241 5.86H17.6C17.699 5.86 17.78 5.779 17.78 5.68V4.96C17.78 4.56175 17.4582 4.24 17.06 4.24ZM14.0742 17.38H4.20575L3.66125 5.86H14.6187L14.0742 17.38Z" stroke="white" stroke-width="0.2"/>
</svg>
