<svg width="98" height="93" viewBox="0 0 98 93" fill="none" xmlns="http://www.w3.org/2000/svg">
<path fill-rule="evenodd" clip-rule="evenodd" d="M50.431 59.25H65.5603C73.8972 59.25 80.6897 66.8262 80.6897 76.125C80.6897 85.4238 73.8972 93 65.5603 93H21.7799C23.9075 90.1348 26.7127 86.1094 29.2342 81.75H65.5603C68.334 81.75 70.6034 79.2187 70.6034 76.125C70.6034 73.0312 68.334 70.5 65.5603 70.5H50.431C42.0942 70.5 35.3017 62.9238 35.3017 53.625C35.3017 44.3262 42.0942 36.75 50.431 36.75H57.5702L65.5603 48H50.431C47.6573 48 45.3879 50.5313 45.3879 53.625C45.3879 56.7188 47.6573 59.25 50.431 59.25ZM0 64.875C0 55.5586 6.77667 48 15.1293 48C23.4819 48 30.2586 55.5586 30.2586 64.875C30.2586 74.1914 15.1293 93 15.1293 93C15.1293 93 0 74.1914 0 64.875ZM10.0862 64.875C10.0862 67.9863 12.3398 70.5 15.1293 70.5C17.9188 70.5 20.1724 67.9863 20.1724 64.875C20.1724 61.7637 17.9188 59.25 15.1293 59.25C12.3398 59.25 10.0862 61.7637 10.0862 64.875Z" fill="#3683BC"/>
<path d="M84.6693 25.7083L84.6179 26.219C84.5942 26.4548 84.5548 26.6825 84.5011 26.9025L91.7371 30.2124C91.7375 30.2125 91.7378 30.2127 91.7382 30.2129C93.2241 30.892 94.7374 32.2155 94.8396 34.2526C94.9411 36.2733 93.5881 37.7491 92.1963 38.5951C92.196 38.5952 92.1958 38.5954 92.1955 38.5956C92.1954 38.5956 92.1953 38.5957 92.1952 38.5957L78.0143 47.2218L78.0132 47.2225C76.5285 48.1246 74.7288 48.5 73.0679 48.5C71.4072 48.5 69.6075 48.1246 68.1232 47.2219L68.1229 47.2218L53.9452 38.5963C53.9451 38.5963 53.945 38.5962 53.945 38.5962L84.6693 25.7083ZM84.6693 25.7083L84.5152 25.2187L82.2563 18.0385L80.7195 13.1536L80.7215 13.1497L80.4195 12.1877C80.2328 11.5932 80.052 11.0169 79.8785 10.4641C79.2675 8.51734 78.7479 6.86204 78.3891 5.72601C77.9408 4.29963 76.808 3.50248 75.9313 3.10065C75.0163 2.6813 73.9946 2.5 73.0687 2.5C72.1428 2.5 71.121 2.6813 70.2061 3.10065C69.3292 3.50255 68.1962 4.29989 67.7481 5.72671C67.748 5.72704 67.7479 5.72737 67.7478 5.7277L65.7181 12.1871L65.4157 13.1494L65.417 13.152L63.8809 18.0391L61.624 25.2193L61.4702 25.7087L61.5215 26.219C61.5451 26.4545 61.5845 26.6819 61.638 26.9016L84.6693 25.7083ZM77.0942 16.7331C77.3954 16.6129 77.7089 16.4678 78.0201 16.2939L77.4959 18.0085C77.4857 18.0105 77.3103 18.2904 76.5345 18.6246C75.6791 18.9931 74.4563 19.2524 73.0687 19.2524C71.6811 19.2524 70.4583 18.9931 69.6028 18.6246C68.8271 18.2904 68.6517 18.0105 68.6415 18.0085L68.1171 16.2936C68.4288 16.4677 68.7427 16.6129 69.0442 16.7332C70.2608 17.2187 71.669 17.4617 73.0687 17.4617C74.4692 17.4617 75.8775 17.2188 77.0942 16.7331ZM80.3669 31.2734C80.6158 31.157 80.8687 31.0277 81.1208 30.8851L81.4512 31.93C81.4135 31.9909 81.3575 32.0682 81.2747 32.1599C80.9923 32.473 80.4824 32.861 79.6848 33.2393C78.0909 33.9952 75.7421 34.5241 73.0687 34.5241C70.396 34.5241 68.0466 33.9956 66.4521 33.2399C65.6542 32.8617 65.1444 32.4738 64.8621 32.1609C64.7794 32.0692 64.7234 31.9919 64.6859 31.9311L65.0168 30.8845C65.269 31.0273 65.5221 31.1567 65.7712 31.2732C67.8 32.2221 70.3792 32.7357 73.0687 32.7357C75.7582 32.7357 78.3378 32.2221 80.3669 31.2734Z" fill="#3683BC" stroke="white" stroke-width="5"/>
</svg>
