<svg width="120" height="121" viewBox="0 0 120 121" fill="none" xmlns="http://www.w3.org/2000/svg">
<g filter="url(#filter0_d)">
<circle cx="60" cy="60.7422" r="50" fill="white"/>
</g>
<path d="M73.675 50.7562H74.2854L73.8504 50.328L67.5087 44.0866L67.0833 43.668V44.2648V50.5062V50.7562H67.3333H73.675ZM49.75 78.0633V78.3133H50H74H74.25V78.0633V54.4429V54.1929H74H65.3333C64.3593 54.1929 63.5833 53.4235 63.5833 52.4745V43.9449V43.6949H63.3333H50H49.75V43.9449V78.0633ZM64.6105 59.0172L64.611 59.0163C64.7418 58.7772 64.9907 58.6296 65.2667 58.6296H67.6667C68.2477 58.6296 68.5982 59.2455 68.3103 59.7277L68.3098 59.7287C67.6438 60.8552 66.6944 62.431 65.9038 63.737C65.5086 64.3899 65.1533 64.9751 64.8931 65.4027C64.763 65.6165 64.6567 65.7908 64.5812 65.9145L64.4919 66.0604L64.4664 66.1017L64.4591 66.1136C64.457 66.1169 64.4565 66.1178 64.4567 66.1173L64.3718 66.2486L64.4527 66.3824L68.3175 72.7764C68.3178 72.7769 68.3181 72.7774 68.3184 72.7779C68.6001 73.2627 68.2532 73.8765 67.6667 73.8765H65.2667C64.9884 73.8765 64.7324 73.727 64.6027 73.4899L64.6022 73.4891C63.4379 71.3789 63.2823 71.0279 63.0422 70.486C62.8918 70.1468 62.7084 69.7328 62.2235 68.7655L61.9873 68.2944L61.7719 68.7753C61.6989 68.9381 61.6348 69.0853 61.5717 69.2303C61.2317 70.0112 60.9187 70.7299 59.3977 73.4892L59.3973 73.4899C59.2665 73.729 59.0176 73.8765 58.7417 73.8765H56.3333C55.7424 73.8765 55.3947 73.2597 55.6809 72.779C55.6811 72.7788 55.6812 72.7786 55.6813 72.7784L59.5391 66.3822L59.617 66.2531L59.5391 66.124L55.6825 59.7298C55.6823 59.7293 55.682 59.7288 55.6817 59.7284C55.3998 59.2436 55.7467 58.6296 56.3333 58.6296H58.7417C59.0199 58.6296 59.276 58.7792 59.4057 59.0163C60.6236 61.248 60.7506 61.5258 61.0622 62.2078C61.2123 62.5363 61.4052 62.9585 61.7834 63.7377L62.0234 64.2322L62.2384 63.7264C62.7674 62.4818 63.1132 61.727 64.6105 59.0172ZM69.658 41.3346L76.6496 48.2157C77.3524 48.9073 77.75 49.8522 77.75 50.826V78.0633C77.75 80.0949 76.074 81.75 74 81.75H50C47.926 81.75 46.25 80.0949 46.25 78.0633V43.9449C46.25 41.9137 47.9258 40.2579 50.0005 40.25H67.0083C68.0009 40.25 68.9547 40.6424 69.658 41.3346Z" fill="#3683BC" stroke="white" stroke-width="0.5"/>
<defs>
<filter id="filter0_d" x="0" y="0.742188" width="120" height="120" filterUnits="userSpaceOnUse" color-interpolation-filters="sRGB">
<feFlood flood-opacity="0" result="BackgroundImageFix"/>
<feColorMatrix in="SourceAlpha" type="matrix" values="0 0 0 0 0 0 0 0 0 0 0 0 0 0 0 0 0 0 127 0"/>
<feOffset/>
<feGaussianBlur stdDeviation="5"/>
<feColorMatrix type="matrix" values="0 0 0 0 0.268807 0 0 0 0 0.618425 0 0 0 0 1 0 0 0 0.3 0"/>
<feBlend mode="normal" in2="BackgroundImageFix" result="effect1_dropShadow"/>
<feBlend mode="normal" in="SourceGraphic" in2="effect1_dropShadow" result="shape"/>
</filter>
</defs>
</svg>
