<svg width="120" height="121" viewBox="0 0 120 121" fill="none" xmlns="http://www.w3.org/2000/svg">
<g filter="url(#filter0_d)">
<circle cx="60" cy="60.7422" r="50" fill="white"/>
</g>
<path fill-rule="evenodd" clip-rule="evenodd" d="M41.752 74.9248V54.3429H44.9184V74.9248C44.9184 75.3446 45.0852 75.7473 45.3821 76.0443C45.679 76.3412 46.0817 76.508 46.5016 76.508H74.9995C75.4194 76.508 75.8221 76.3412 76.119 76.0443C76.4159 75.7473 76.5827 75.3446 76.5827 74.9248V54.3429H79.7492V74.9248C79.7492 76.1844 79.2488 77.3925 78.358 78.2833C77.4673 79.174 76.2592 79.6744 74.9995 79.6744H46.5016C45.2419 79.6744 44.0338 79.174 43.1431 78.2833C42.2524 77.3925 41.752 76.1844 41.752 74.9248ZM76.5827 40.094V51.1765L70.2499 44.8436V40.094C70.2499 39.6741 70.4167 39.2714 70.7136 38.9745C71.0105 38.6775 71.4132 38.5107 71.8331 38.5107H74.9995C75.4194 38.5107 75.8221 38.6775 76.119 38.9745C76.4159 39.2714 76.5827 39.6741 76.5827 40.094Z" fill="#3683BC"/>
<path fill-rule="evenodd" clip-rule="evenodd" d="M58.5116 36.9271C59.1054 36.3335 59.9106 36 60.7503 36C61.5899 36 62.3951 36.3335 62.9889 36.9271L84.0362 57.9712C84.3335 58.2685 84.5005 58.6717 84.5005 59.0921C84.5005 59.5126 84.3335 59.9158 84.0362 60.2131C83.7389 60.5103 83.3357 60.6774 82.9153 60.6774C82.4949 60.6774 82.0917 60.5103 81.7944 60.2131L60.7503 39.1658L39.7061 60.2131C39.4088 60.5103 39.0056 60.6774 38.5852 60.6774C38.1648 60.6774 37.7616 60.5103 37.4643 60.2131C37.167 59.9158 37 59.5126 37 59.0921C37 58.6717 37.167 58.2685 37.4643 57.9712L58.5116 36.9271Z" fill="#3683BC"/>
<path fill-rule="evenodd" clip-rule="evenodd" d="M75.4772 63.4711C75.9675 64.5707 75.5472 65.7298 74.5389 66.0673L48.9252 74.5649C47.9105 74.9003 46.6962 74.2825 46.2037 73.185C45.7134 72.0876 46.1316 70.9264 47.142 70.591L72.7557 62.0913C73.7662 61.7559 74.9804 62.3736 75.4772 63.4711Z" fill="#3683BC"/>
<path fill-rule="evenodd" clip-rule="evenodd" d="M72.756 74.5653C73.7685 74.9007 74.9828 74.2829 75.4774 73.1854C75.9678 72.0879 75.5474 70.9268 74.5391 70.5914L71.1639 69.4727L64.2817 71.7547L72.756 74.5653Z" fill="#3683BC"/>
<path fill-rule="evenodd" clip-rule="evenodd" d="M48.9227 62.0913C47.908 61.7559 46.6938 62.3736 46.2013 63.4711C45.7109 64.5707 46.1291 65.7298 47.1396 66.0673L50.5191 67.186L57.3969 64.9019L48.9227 62.0913Z" fill="#3683BC"/>
<defs>
<filter id="filter0_d" x="0" y="0.742188" width="120" height="120" filterUnits="userSpaceOnUse" color-interpolation-filters="sRGB">
<feFlood flood-opacity="0" result="BackgroundImageFix"/>
<feColorMatrix in="SourceAlpha" type="matrix" values="0 0 0 0 0 0 0 0 0 0 0 0 0 0 0 0 0 0 127 0"/>
<feOffset/>
<feGaussianBlur stdDeviation="5"/>
<feColorMatrix type="matrix" values="0 0 0 0 0.268807 0 0 0 0 0.618425 0 0 0 0 1 0 0 0 0.3 0"/>
<feBlend mode="normal" in2="BackgroundImageFix" result="effect1_dropShadow"/>
<feBlend mode="normal" in="SourceGraphic" in2="effect1_dropShadow" result="shape"/>
</filter>
</defs>
</svg>
