<svg width="120" height="121" viewBox="0 0 120 121" fill="none" xmlns="http://www.w3.org/2000/svg">
<g filter="url(#filter0_d)">
<circle cx="60" cy="60.7422" r="50" fill="white"/>
</g>
<path fill-rule="evenodd" clip-rule="evenodd" d="M45.6562 44.4375C45.333 44.4375 45.023 44.5659 44.7945 44.7945C44.5659 45.023 44.4375 45.333 44.4375 45.6562V52.9688C44.4375 53.292 44.3091 53.602 44.0805 53.8305C43.852 54.0591 43.542 54.1875 43.2188 54.1875C42.8955 54.1875 42.5855 54.0591 42.357 53.8305C42.1284 53.602 42 53.292 42 52.9688V45.6562C42 44.6866 42.3852 43.7566 43.0709 43.0709C43.7566 42.3852 44.6866 42 45.6562 42H52.9688C53.292 42 53.602 42.1284 53.8305 42.357C54.0591 42.5855 54.1875 42.8955 54.1875 43.2188C54.1875 43.542 54.0591 43.852 53.8305 44.0805C53.602 44.3091 53.292 44.4375 52.9688 44.4375H45.6562ZM68.8125 43.2188C68.8125 42.8955 68.9409 42.5855 69.1695 42.357C69.398 42.1284 69.708 42 70.0312 42H77.3438C78.3134 42 79.2434 42.3852 79.9291 43.0709C80.6148 43.7566 81 44.6866 81 45.6562V52.9688C81 53.292 80.8716 53.602 80.643 53.8305C80.4145 54.0591 80.1045 54.1875 79.7812 54.1875C79.458 54.1875 79.148 54.0591 78.9195 53.8305C78.6909 53.602 78.5625 53.292 78.5625 52.9688V45.6562C78.5625 45.333 78.4341 45.023 78.2055 44.7945C77.977 44.5659 77.667 44.4375 77.3438 44.4375H70.0312C69.708 44.4375 69.398 44.3091 69.1695 44.0805C68.9409 43.852 68.8125 43.542 68.8125 43.2188ZM43.2188 68.8125C43.542 68.8125 43.852 68.9409 44.0805 69.1695C44.3091 69.398 44.4375 69.708 44.4375 70.0312V77.3438C44.4375 77.667 44.5659 77.977 44.7945 78.2055C45.023 78.4341 45.333 78.5625 45.6562 78.5625H52.9688C53.292 78.5625 53.602 78.6909 53.8305 78.9195C54.0591 79.148 54.1875 79.458 54.1875 79.7812C54.1875 80.1045 54.0591 80.4145 53.8305 80.643C53.602 80.8716 53.292 81 52.9688 81H45.6562C44.6866 81 43.7566 80.6148 43.0709 79.9291C42.3852 79.2434 42 78.3134 42 77.3438V70.0312C42 69.708 42.1284 69.398 42.357 69.1695C42.5855 68.9409 42.8955 68.8125 43.2188 68.8125ZM79.7812 68.8125C80.1045 68.8125 80.4145 68.9409 80.643 69.1695C80.8716 69.398 81 69.708 81 70.0312V77.3438C81 78.3134 80.6148 79.2434 79.9291 79.9291C79.2434 80.6148 78.3134 81 77.3438 81H70.0312C69.708 81 69.398 80.8716 69.1695 80.643C68.9409 80.4145 68.8125 80.1045 68.8125 79.7812C68.8125 79.458 68.9409 79.148 69.1695 78.9195C69.398 78.6909 69.708 78.5625 70.0312 78.5625H77.3438C77.667 78.5625 77.977 78.4341 78.2055 78.2055C78.4341 77.977 78.5625 77.667 78.5625 77.3438V70.0312C78.5625 69.708 78.6909 69.398 78.9195 69.1695C79.148 68.9409 79.458 68.8125 79.7812 68.8125Z" fill="#3683BC"/>
<path fill-rule="evenodd" clip-rule="evenodd" d="M49.3125 76.125C49.3125 76.125 46.875 76.125 46.875 73.6875C46.875 71.25 49.3125 63.9375 61.5 63.9375C73.6875 63.9375 76.125 71.25 76.125 73.6875C76.125 76.125 73.6875 76.125 73.6875 76.125H49.3125ZM61.5 61.5C63.4394 61.5 65.2994 60.7296 66.6707 59.3582C68.0421 57.9869 68.8125 56.1269 68.8125 54.1875C68.8125 52.2481 68.0421 50.3881 66.6707 49.0168C65.2994 47.6454 63.4394 46.875 61.5 46.875C59.5606 46.875 57.7006 47.6454 56.3293 49.0168C54.9579 50.3881 54.1875 52.2481 54.1875 54.1875C54.1875 56.1269 54.9579 57.9869 56.3293 59.3582C57.7006 60.7296 59.5606 61.5 61.5 61.5Z" fill="#3683BC"/>
<defs>
<filter id="filter0_d" x="0" y="0.742188" width="120" height="120" filterUnits="userSpaceOnUse" color-interpolation-filters="sRGB">
<feFlood flood-opacity="0" result="BackgroundImageFix"/>
<feColorMatrix in="SourceAlpha" type="matrix" values="0 0 0 0 0 0 0 0 0 0 0 0 0 0 0 0 0 0 127 0"/>
<feOffset/>
<feGaussianBlur stdDeviation="5"/>
<feColorMatrix type="matrix" values="0 0 0 0 0.268807 0 0 0 0 0.618425 0 0 0 0 1 0 0 0 0.3 0"/>
<feBlend mode="normal" in2="BackgroundImageFix" result="effect1_dropShadow"/>
<feBlend mode="normal" in="SourceGraphic" in2="effect1_dropShadow" result="shape"/>
</filter>
</defs>
</svg>
