<svg width="120" height="121" viewBox="0 0 120 121" fill="none" xmlns="http://www.w3.org/2000/svg">
<g filter="url(#filter0_d)">
<circle cx="60" cy="60.7422" r="50" fill="white"/>
</g>
<path d="M42.8568 68.0739H43.1068V67.8239V53.2949C43.1068 50.6953 44.1627 48.201 46.0441 46.3611C47.9256 44.521 50.4788 43.4863 53.142 43.4863C55.8053 43.4863 58.3584 44.521 60.24 46.3611C62.1214 48.201 63.1773 50.6953 63.1773 53.2949V68.9415C63.1773 70.4916 63.807 71.9772 64.9261 73.0716C66.0449 74.1658 67.5613 74.7795 69.1413 74.7795C70.7212 74.7795 72.2376 74.1658 73.3565 73.0716C74.4755 71.9772 75.1053 70.4916 75.1053 68.9415V54.0325V53.8544L74.937 53.7962C73.466 53.2878 72.2275 52.2876 71.4393 50.9739C70.6512 49.6603 70.3637 48.1173 70.6267 46.6172C70.8898 45.117 71.687 43.7549 72.8787 42.7723C74.0706 41.7896 75.5802 41.25 77.1409 41.25C78.7015 41.25 80.2112 41.7896 81.4031 42.7723C82.5948 43.7549 83.3919 45.117 83.655 46.6172C83.9181 48.1173 83.6306 49.6603 82.8425 50.9739C82.0543 52.2876 80.8158 53.2878 79.3448 53.7962L79.1765 53.8544V54.0325V68.9415C79.1765 71.541 78.1206 74.0353 76.2392 75.8752C74.3577 77.7153 71.8046 78.75 69.1413 78.75C66.478 78.75 63.9249 77.7153 62.0433 75.8752C60.1619 74.0353 59.106 71.541 59.106 68.9415V53.2949C59.106 51.7447 58.4763 50.2592 57.3572 49.1648C56.2384 48.0705 54.722 47.4568 53.142 47.4568C51.5621 47.4568 50.0457 48.0705 48.9268 49.1648C47.8078 50.2592 47.178 51.7447 47.178 53.2949V67.8239V68.0739H47.428H53.7573L45.1424 78.6052L36.5275 68.0739H42.8568ZM77.1409 50.192C77.8116 50.192 78.4559 49.9315 78.9319 49.4661C79.408 49.0004 79.6765 48.3677 79.6765 47.7068C79.6765 47.0458 79.408 46.4131 78.9319 45.9475C78.4559 45.4821 77.8116 45.2216 77.1409 45.2216C76.4702 45.2216 75.8258 45.4821 75.3499 45.9475C74.8738 46.4131 74.6053 47.0458 74.6053 47.7068C74.6053 48.3677 74.8738 49.0004 75.3499 49.4661C75.8258 49.9315 76.4702 50.192 77.1409 50.192Z" fill="#3683BC" stroke="white" stroke-width="0.5"/>
<defs>
<filter id="filter0_d" x="0" y="0.742188" width="120" height="120" filterUnits="userSpaceOnUse" color-interpolation-filters="sRGB">
<feFlood flood-opacity="0" result="BackgroundImageFix"/>
<feColorMatrix in="SourceAlpha" type="matrix" values="0 0 0 0 0 0 0 0 0 0 0 0 0 0 0 0 0 0 127 0"/>
<feOffset/>
<feGaussianBlur stdDeviation="5"/>
<feColorMatrix type="matrix" values="0 0 0 0 0.268807 0 0 0 0 0.618425 0 0 0 0 1 0 0 0 0.3 0"/>
<feBlend mode="normal" in2="BackgroundImageFix" result="effect1_dropShadow"/>
<feBlend mode="normal" in="SourceGraphic" in2="effect1_dropShadow" result="shape"/>
</filter>
</defs>
</svg>
