<svg width="120" height="121" viewBox="0 0 120 121" fill="none" xmlns="http://www.w3.org/2000/svg">
<g filter="url(#filter0_d)">
<circle cx="60" cy="60.7422" r="50" fill="white"/>
</g>
<path d="M63.5323 84.206L63.5326 84.2061C63.8172 84.2774 64.1143 84.2828 64.4012 84.2219C64.6882 84.161 64.9574 84.0353 65.1884 83.8544L65.1894 83.8537C65.6587 83.4887 65.9333 82.9263 65.9333 82.3308V79.9974V79.5974H66.3333H75.6667C76.1794 79.5974 76.6712 79.3937 77.0337 79.0312C77.3963 78.6686 77.6 78.1768 77.6 77.6641V44.9974C77.6 44.4847 77.3963 43.9929 77.0337 43.6303C76.6712 43.2678 76.1794 43.0641 75.6667 43.0641H66.3333H65.9333V42.6641V40.3317C65.932 40.0385 65.8643 39.7493 65.7352 39.486C65.6059 39.2225 65.4186 38.9918 65.1873 38.8111L65.4335 38.4959L65.1873 38.8111C64.956 38.6305 64.6868 38.5047 64.3998 38.4431L64.4836 38.0523L64.3998 38.4431C64.1131 38.3817 63.8162 38.386 63.5315 38.4557C63.5312 38.4558 63.5309 38.4558 63.5307 38.4559L44.8657 43.1221L44.8655 43.1222C44.447 43.2266 44.0755 43.4678 43.81 43.8076C43.5444 44.1474 43.4001 44.5662 43.4 44.9974C43.4 44.9975 43.4 44.9975 43.4 44.9975V77.6641V77.6643C43.3998 78.0955 43.5439 78.5145 43.8095 78.8543C44.075 79.1941 44.4466 79.4352 44.8652 79.5392L44.8657 79.5394L63.5323 84.206ZM61.5697 42.9317L62.0667 42.8074V43.3198V79.3418V79.8541L61.5697 79.7298L47.5697 76.2298L47.2667 76.1541V75.8418V46.8198V46.5074L47.5697 46.4317L61.5697 42.9317ZM73.7333 75.3308V75.7308H73.3333H66.3333H65.9333V75.3308V47.3308V46.9308H66.3333H73.3333H73.7333V47.3308V75.3308Z" fill="#3683BC" stroke="white" stroke-width="0.8"/>
<path d="M58.9335 60.8936L58.9335 60.8934C58.9338 60.3806 58.7303 59.8888 58.3679 59.526C58.0055 59.1633 57.5139 58.9593 57.0011 58.9591C56.4884 58.9588 55.9965 59.1623 55.6338 59.5247C55.271 59.887 55.0671 60.3787 55.0668 60.8914V61.7709C55.0668 62.6581 55.6697 63.4316 56.5324 63.6485C56.8173 63.7195 57.1147 63.7248 57.4019 63.6637C57.6891 63.6027 57.9587 63.4771 58.1902 63.2963C58.4216 63.1155 58.6088 62.8844 58.7376 62.6205C58.8664 62.3566 58.9334 62.0669 58.9335 61.7733C58.9335 61.7732 58.9335 61.7732 58.9335 61.7731L58.9335 60.8936Z" fill="#3683BC" stroke="white" stroke-width="0.8"/>
<defs>
<filter id="filter0_d" x="0" y="0.742188" width="120" height="120" filterUnits="userSpaceOnUse" color-interpolation-filters="sRGB">
<feFlood flood-opacity="0" result="BackgroundImageFix"/>
<feColorMatrix in="SourceAlpha" type="matrix" values="0 0 0 0 0 0 0 0 0 0 0 0 0 0 0 0 0 0 127 0"/>
<feOffset/>
<feGaussianBlur stdDeviation="5"/>
<feColorMatrix type="matrix" values="0 0 0 0 0.268807 0 0 0 0 0.618425 0 0 0 0 1 0 0 0 0.3 0"/>
<feBlend mode="normal" in2="BackgroundImageFix" result="effect1_dropShadow"/>
<feBlend mode="normal" in="SourceGraphic" in2="effect1_dropShadow" result="shape"/>
</filter>
</defs>
</svg>
