<svg width="100" height="100" viewBox="0 0 100 100" fill="none" xmlns="http://www.w3.org/2000/svg">
<path d="M91.9663 7.96066C91.9663 7.94466 91.9713 7.92966 91.9713 7.91366C91.9713 7.18935 91.6838 6.49465 91.1719 5.9822C90.66 5.46975 89.9657 5.18146 89.2413 5.18066H89.2393H39.5583V5.19166L8.03034 36.7207H8.02734V92.0857H8.03034V92.0867C8.0314 92.8112 8.31989 93.5056 8.83247 94.0177C9.34505 94.5297 10.0398 94.8174 10.7643 94.8177H89.2433C89.8658 94.8166 90.4693 94.6028 90.9536 94.2118C91.4379 93.8208 91.7741 93.2759 91.9063 92.6677H91.9663V92.1317C91.9663 92.1167 91.9703 92.1027 91.9703 92.0877C91.9703 92.0727 91.9663 92.0587 91.9663 92.0437V7.96066ZM67.6383 15.1377H82.0093V39.7347L63.8963 21.6207L67.6383 15.1377ZM39.5693 39.4527V39.4517C40.2918 39.449 40.9839 39.1603 41.494 38.6487C42.0041 38.137 42.2908 37.4442 42.2913 36.7217V15.1377H61.8793L34.7093 62.1977L17.9843 45.4727V39.4527H39.5693ZM17.9843 84.8617V52.5267L32.1273 66.6697L21.6253 84.8617H17.9843ZM27.3843 84.8617L61.3143 26.0927L82.0103 46.7887V84.8617H27.3843Z" fill="#3683BC"/>
<path d="M62.0299 45.5757C55.3849 45.5757 50.0039 50.9627 50.0039 57.6027C50.0039 60.2617 50.8769 62.7117 52.3379 64.7027L60.0969 78.1417C60.1439 78.2357 60.1939 78.3277 60.2539 78.4127L60.2699 78.4397L60.2739 78.4377C60.4657 78.7045 60.7158 78.924 61.0053 79.0796C61.2947 79.2352 61.6158 79.3226 61.9442 79.3354C62.2725 79.3481 62.5994 79.2858 62.9 79.1531C63.2007 79.0204 63.467 78.8209 63.6789 78.5697L63.6989 78.5807L63.7739 78.4517C63.8904 78.299 63.9868 78.1319 64.0609 77.9547L71.6689 64.7767C73.2205 62.7064 74.0591 60.1889 74.0589 57.6017C74.0559 50.9627 68.6749 45.5757 62.0299 45.5757ZM61.9109 63.6997C58.6369 63.6997 55.9849 61.0487 55.9849 57.7747C55.9847 56.6026 56.3321 55.4568 56.9831 54.4821C57.6342 53.5074 58.5596 52.7477 59.6424 52.2991C60.7252 51.8504 61.9168 51.7329 63.0664 51.9614C64.216 52.19 65.272 52.7543 66.1009 53.583C66.9297 54.4117 67.4942 55.4677 67.723 56.6172C67.9517 57.7668 67.8344 58.9583 67.3859 60.0412C66.9374 61.1241 66.1779 62.0497 65.2033 62.7009C64.2288 63.3521 63.083 63.6997 61.9109 63.6997Z" fill="#3683BC"/>
<path d="M25.0514 36.6843C32.609 36.6843 38.7356 30.5577 38.7356 23.0001C38.7356 15.4425 32.609 9.31592 25.0514 9.31592C17.4938 9.31592 11.3672 15.4425 11.3672 23.0001C11.3672 30.5577 17.4938 36.6843 25.0514 36.6843Z" fill="white"/>
<path d="M24 29C27.3137 29 30 26.3137 30 23C30 19.6863 27.3137 17 24 17C20.6863 17 18 19.6863 18 23C18 26.3137 20.6863 29 24 29Z" fill="#3683BC"/>
<path d="M28.2406 2H28.24H19.76C18.3568 2 17.0125 2.59962 16.0666 3.62024L16.0665 3.62021L16.0608 3.62651L13.8983 6H8C5.24772 6 3 8.24772 3 11V35C3 37.7523 5.24772 40 8 40H40C42.7523 40 45 37.7523 45 35V11C45 8.24772 42.7523 6 40 6H34.0993L31.9193 3.62663C31.9188 3.62606 31.9183 3.62548 31.9177 3.6249C31.4517 3.11368 30.8842 2.70516 30.2515 2.42539C29.6181 2.14531 28.9332 2.00043 28.2406 2ZM24 32C19.0323 32 15 27.9677 15 23C15 18.0323 19.0323 14 24 14C28.9677 14 33 18.0323 33 23C33 27.9677 28.9677 32 24 32Z" fill="#3683BC" stroke="white" stroke-width="2"/>
</svg>
