<svg width="33" height="29" viewBox="0 0 33 29" fill="none" xmlns="http://www.w3.org/2000/svg">
<path d="M20.2422 17.2858L1.09939 17.2858C0.923909 17.2858 0.780337 17.4294 0.780337 17.6049L0.780337 19.8382C0.780337 20.0137 0.923909 20.1573 1.09939 20.1573L20.2422 20.1573C20.4176 20.1573 20.5612 20.0137 20.5612 19.8382L20.5612 17.6049C20.5612 17.4294 20.4176 17.2858 20.2422 17.2858ZM20.5612 9.15016C20.5612 8.97469 20.4176 8.83111 20.2422 8.83111L1.09939 8.83111C0.92391 8.83111 0.780338 8.97468 0.780338 9.15016L0.780338 11.3835C0.780338 11.559 0.92391 11.7025 1.09939 11.7025L20.2422 11.7025C20.4176 11.7025 20.5612 11.559 20.5612 11.3835L20.5612 9.15016ZM0.46129 28.5322L31.7278 28.5322C31.9033 28.5322 32.0469 28.3887 32.0469 28.2132L32.0469 25.9799C32.0469 25.8044 31.9033 25.6608 31.7278 25.6608L0.461291 25.6608C0.285816 25.6608 0.142245 25.8044 0.142245 25.9799L0.142244 28.2132C0.142244 28.3887 0.285816 28.5322 0.46129 28.5322ZM0.461293 3.32757L31.7278 3.32757C31.9033 3.32757 32.0469 3.184 32.0469 3.00852L32.0469 0.775198C32.0469 0.599724 31.9033 0.45615 31.7278 0.45615L0.461293 0.456147C0.285819 0.456147 0.142247 0.599721 0.142247 0.775195L0.142247 3.00852C0.142247 3.184 0.285818 3.32757 0.461293 3.32757ZM31.9113 14.219L25.6779 9.30969C25.4466 9.12623 25.1036 9.28975 25.1036 9.58486L25.1036 19.4035C25.1036 19.6986 25.4426 19.8621 25.6779 19.6787L31.9113 14.7694C31.9532 14.7368 31.9871 14.695 32.0104 14.6474C32.0338 14.5997 32.0459 14.5473 32.0459 14.4942C32.0459 14.4411 32.0338 14.3887 32.0104 14.341C31.9871 14.2933 31.9532 14.2516 31.9113 14.219Z" fill="#C3C3C3"/>
</svg>
