<svg width="14" height="14" viewBox="0 0 14 14" fill="none" xmlns="http://www.w3.org/2000/svg">
<path d="M10.563 13.001H2.125C1.82654 13.0007 1.54039 12.882 1.32944 12.6708C1.11849 12.4597 1 12.1734 1 11.875C1.00106 10.9802 1.35698 10.1224 1.98969 9.48965C2.62239 8.85695 3.48022 8.50103 4.375 8.49997C4.47446 8.49997 4.56984 8.53948 4.64017 8.6098C4.71049 8.68013 4.75 8.77551 4.75 8.87497C4.75 8.97443 4.71049 9.06981 4.64017 9.14014C4.56984 9.21046 4.47446 9.24997 4.375 9.24997C3.67905 9.25076 3.01183 9.52757 2.51971 10.0197C2.0276 10.5118 1.75079 11.179 1.75 11.875C1.75026 11.9743 1.78987 12.0696 1.86014 12.1399C1.93041 12.2101 2.02562 12.2497 2.125 12.25H11.875C11.9744 12.2497 12.0696 12.2101 12.1399 12.1399C12.2101 12.0696 12.2497 11.9743 12.25 11.875C12.2492 11.179 11.9724 10.5118 11.4803 10.0197C10.9882 9.52757 10.3209 9.25076 9.625 9.24997C9.52554 9.24997 9.43016 9.21046 9.35983 9.14014C9.28951 9.06981 9.25 8.97443 9.25 8.87497C9.25 8.77551 9.28951 8.68013 9.35983 8.6098C9.43016 8.53948 9.52554 8.49997 9.625 8.49997C10.5198 8.50103 11.3776 8.85695 12.0103 9.48965C12.643 10.1224 12.9989 10.9802 13 11.875C13 12.1734 12.8815 12.4597 12.6706 12.6708C12.4596 12.882 12.1735 13.0007 11.875 13.001H10.563ZM3.625 5.12598C3.61022 4.08306 3.94894 3.06586 4.586 2.23999C4.86727 1.86308 5.23101 1.55548 5.64941 1.34073C6.06781 1.12598 6.52979 1.00977 7 1.00098C8.861 1.00098 10.375 2.85198 10.375 5.12598C10.375 7.39998 8.861 9.25098 7 9.25098C5.139 9.25098 3.625 7.40098 3.625 5.12598ZM4.375 5.12598C4.375 6.98698 5.553 8.50098 7 8.50098C8.447 8.50098 9.625 6.98698 9.625 5.12598C9.625 3.26498 8.447 1.75098 7 1.75098C5.553 1.75098 4.375 3.26498 4.375 5.12598Z" fill="#8F8F8F" stroke="#8F8F8F" stroke-width="0.7"/>
</svg>
