<svg width="34" height="40" viewBox="0 0 34 40" fill="none" xmlns="http://www.w3.org/2000/svg">
<path d="M25.9279 25.427C27.6592 23.5979 28.8165 21.3014 29.2568 18.8217C29.697 16.3419 29.401 13.7875 28.4053 11.4741C27.4096 9.16072 25.7578 7.18983 23.6541 5.80503C21.5505 4.42023 19.0871 3.68221 16.5686 3.68221C14.05 3.68221 11.5866 4.42023 9.48296 5.80503C7.37928 7.18983 5.72751 9.16072 4.73179 11.4741C3.73607 13.7875 3.44006 16.3419 3.88035 18.8217C4.32064 21.3014 5.47793 23.5979 7.20916 25.427C8.20266 23.8417 9.58281 22.5349 11.22 21.6294C12.8572 20.7238 14.6976 20.2493 16.5686 20.2503C18.4395 20.2493 20.2799 20.7238 21.9171 21.6294C23.5543 22.5349 24.9344 23.8417 25.9279 25.427ZM16.5686 40L4.85275 28.2842C2.53562 25.967 0.957637 23.0148 0.318353 19.8008C-0.320932 16.5869 0.0071923 13.2555 1.26123 10.228C2.51527 7.20049 4.6389 4.61285 7.36358 2.79229C10.0883 0.971723 13.2916 0 16.5686 0C19.8455 0 23.0488 0.971723 25.7735 2.79229C28.4982 4.61285 30.6218 7.20049 31.8759 10.228C33.1299 13.2555 33.458 16.5869 32.8187 19.8008C32.1795 23.0148 30.6015 25.967 28.2844 28.2842L16.5686 40ZM16.5686 18.4093C15.1038 18.4093 13.699 17.8275 12.6633 16.7917C11.6276 15.756 11.0457 14.3513 11.0457 12.8865C11.0457 11.4218 11.6276 10.017 12.6633 8.98126C13.699 7.94552 15.1038 7.36365 16.5686 7.36365C18.0333 7.36365 19.4381 7.94552 20.4738 8.98126C21.5095 10.017 22.0914 11.4218 22.0914 12.8865C22.0914 14.3513 21.5095 15.756 20.4738 16.7917C19.4381 17.8275 18.0333 18.4093 16.5686 18.4093Z" fill="#C3C3C3"/>
</svg>
