<svg width="12" height="20" viewBox="0 0 12 20" fill="none"
  xmlns="http://www.w3.org/2000/svg">
  <path d="M8.35008 16.0449C10.3846 16.3691 11.7984 17.0932 11.7984 17.9311C11.7984 19.0725 9.17422 20.0001 5.93629 20.0001C2.69836 20.0001 0.0742188 19.0725 0.0742188 17.9311C0.0742188 17.0932 1.48801 16.3691 3.52249 16.0449H8.35008Z" fill="white"/>
  <path d="M5.93723 4.82759C7.27033 4.82759 8.35102 3.74689 8.35102 2.41379C8.35102 1.08069 7.27033 0 5.93723 0C4.60413 0 3.52344 1.08069 3.52344 2.41379C3.52344 3.74689 4.60413 4.82759 5.93723 4.82759Z" fill="#FCC10A"/>
  <path d="M10.0747 7.58675V11.3799C10.0747 11.9512 9.61153 12.4143 9.0402 12.4143C8.79344 12.4155 8.55459 12.3273 8.36779 12.1661L8.36089 12.1592C8.35744 12.1592 8.354 12.1557 8.35055 12.1523L8.35055 16.7247C8.35055 17.3912 7.8102 17.9316 7.14365 17.9316C6.8236 17.9322 6.51671 17.8042 6.29193 17.5764L6.28158 17.5661C6.06021 17.342 5.93628 17.0396 5.93676 16.7247C5.93676 17.3912 5.39641 17.9316 4.72986 17.9316C4.06331 17.9316 3.52297 17.3912 3.52297 16.7247L3.52297 12.1523C3.21872 12.4244 2.78289 12.4922 2.41037 12.3253C2.03785 12.1584 1.79829 11.788 1.79883 11.3799V7.58675C1.79883 6.0632 3.03391 4.82812 4.55745 4.82812H7.31607C8.83961 4.82812 10.0747 6.0632 10.0747 7.58675Z" fill="#FCC10A"/>
  <path d="M10.0748 11.2345V11.3793C10.0748 11.9507 9.61167 12.4138 9.04034 12.4138C8.79358 12.415 8.55473 12.3268 8.36793 12.1656L8.36103 12.1587C8.13395 11.9042 8.00765 11.5756 8.00586 11.2345V7.78623C8.00586 7.59579 8.16024 7.44141 8.35069 7.44141C8.54113 7.44141 8.69551 7.59579 8.69551 7.78623V11.2345C8.69684 11.6149 9.00483 11.9228 9.38517 11.9242C9.76559 11.923 10.0737 11.6149 10.0748 11.2345Z" fill="#F5AB01"/>
  <path d="M3.86779 7.79307V11.2413C3.86684 11.5765 3.74432 11.9 3.52296 12.1517C3.21871 12.4238 2.78289 12.4916 2.41037 12.3247C2.03785 12.1578 1.79829 11.7875 1.79883 11.3793L1.79883 11.2413C1.79997 11.6217 2.10807 11.9299 2.48848 11.931C2.65792 11.9315 2.82146 11.8688 2.9471 11.7551C3.09374 11.6246 3.17778 11.4377 3.17814 11.2413V7.79307C3.17814 7.60263 3.33252 7.44824 3.52296 7.44824C3.71341 7.44824 3.86779 7.60263 3.86779 7.79307Z" fill="#F5AB01"/>
  <path d="M7.99585 16.8859C7.77107 17.1137 7.46418 17.2417 7.14413 17.2411H7.12413C6.64586 17.2166 6.27325 16.8171 6.28206 16.3383V11.379C6.28206 11.1886 6.12767 11.0342 5.93723 11.0342C5.74679 11.0342 5.5924 11.1886 5.5924 11.379V16.3383C5.60121 16.8171 5.2286 17.2166 4.75033 17.2411H4.73033C4.06512 17.2379 3.52665 16.6994 3.52344 16.0342V16.7238C3.52344 17.3904 4.06378 17.9307 4.73033 17.9307C5.39688 17.9307 5.93723 17.3904 5.93723 16.7238C5.93723 17.3904 6.47758 17.9307 7.14413 17.9307C7.81068 17.9307 8.35102 17.3904 8.35102 16.7238V16.0342C8.35166 16.3542 8.22369 16.6611 7.99585 16.8859Z" fill="#F5AB01"/>
</svg>
