<svg width="22" height="25" viewBox="0 0 22 25" fill="none" xmlns="http://www.w3.org/2000/svg">
<path d="M3.96188 18.9093C3.96188 19.5622 4.49478 20.0951 5.15044 20.0951H6.5092V23.4543C6.5092 24.3053 7.19276 25 8.03257 25C8.87516 25 9.55594 24.3081 9.55594 23.4543V20.0923H11.9275V23.4515C11.9275 24.3025 12.611 24.9972 13.4509 24.9972C14.2934 24.9972 14.9742 24.3053 14.9742 23.4515V20.0923H16.333C16.9886 20.0923 17.5215 19.5594 17.5215 18.9065V7.88023H3.96188V18.9093ZM13.9252 2.1662L15.1779 0.352659C15.2504 0.246637 15.2337 0.104345 15.136 0.0345932C15.0384 -0.0323681 14.8989 0.0011127 14.8263 0.107135L13.5262 1.99321C12.6696 1.65561 11.7154 1.46868 10.7138 1.46868C9.71218 1.46868 8.75798 1.65561 7.90143 1.99321L6.60127 0.109925C6.52873 0.00390271 6.38922 -0.032368 6.29157 0.0373834C6.19392 0.104345 6.17718 0.243847 6.24972 0.355449L7.50246 2.16898C5.51036 3.09528 4.11533 4.85023 3.93677 6.90092H17.4964C17.3123 4.84744 15.9145 3.09249 13.9252 2.1662ZM7.85121 5.026C7.70277 5.026 7.55767 4.98198 7.43424 4.89951C7.31082 4.81705 7.21462 4.69983 7.15782 4.56269C7.10101 4.42555 7.08615 4.27464 7.11511 4.12906C7.14407 3.98347 7.21555 3.84974 7.32051 3.74478C7.42547 3.63981 7.55921 3.56833 7.70479 3.53937C7.85038 3.51041 8.00129 3.52528 8.13843 3.58208C8.27557 3.63889 8.39278 3.73508 8.47525 3.85851C8.55772 3.98193 8.60174 4.12704 8.60174 4.27548C8.60122 4.47437 8.52198 4.66497 8.38134 4.80561C8.24071 4.94625 8.05011 5.02549 7.85121 5.026ZM13.6657 5.026C13.5172 5.026 13.3721 4.98198 13.2487 4.89951C13.1253 4.81705 13.0291 4.69983 12.9723 4.56269C12.9155 4.42555 12.9006 4.27464 12.9296 4.12906C12.9585 3.98347 13.03 3.84974 13.135 3.74478C13.2399 3.63981 13.3737 3.56833 13.5193 3.53937C13.6649 3.51041 13.8158 3.52528 13.9529 3.58208C14.09 3.63889 14.2073 3.73508 14.2897 3.85851C14.3722 3.98193 14.4162 4.12704 14.4162 4.27548C14.4157 4.47437 14.3365 4.66497 14.1958 4.80561C14.0552 4.94625 13.8646 5.02549 13.6657 5.026ZM19.8987 7.83559C19.0561 7.83559 18.3753 8.52752 18.3753 9.38128V15.419C18.3753 16.2699 19.0589 16.9646 19.8987 16.9646C20.7413 16.9646 21.422 16.2727 21.422 15.419V9.37849C21.4248 8.52473 20.7441 7.83559 19.8987 7.83559ZM1.52337 7.83559C0.680773 7.83559 0 8.52752 0 9.38128V15.419C0 16.2699 0.683563 16.9646 1.52337 16.9646C2.36597 16.9646 3.04674 16.2727 3.04674 15.419V9.37849C3.04674 8.52473 2.36318 7.83559 1.52337 7.83559Z" fill="white"/>
</svg>
