<svg width="69" height="71" viewBox="0 0 69 71" fill="none" xmlns="http://www.w3.org/2000/svg">
<path fill-rule="evenodd" clip-rule="evenodd" d="M55.4621 9.37581C39.0024 -6.91712 24.9823 0.492696 22.5427 12.9056C20.1031 25.3185 -2.55927 27.7969 0.238838 42.4584C3.03695 57.1198 33.5158 48.4146 33.5158 61.7015C33.5158 74.9885 68.7556 74.5303 68.7556 57.1198C68.7556 39.7093 71.9219 25.6687 55.4621 9.37581Z" fill="#E4EAF0"/>
<path d="M31 57L39 47H33V25H29V47H23L31 57Z" fill="#3683BC"/>
<path d="M45 39H37V43H45V61H17V43H25V39H17C14.794 39 13 40.794 13 43V61C13 63.206 14.794 65 17 65H45C47.206 65 49 63.206 49 61V43C49 40.794 47.206 39 45 39Z" fill="#3683BC"/>
</svg>
