<svg width="104" height="104" viewBox="0 0 104 104" fill="none" xmlns="http://www.w3.org/2000/svg">
<path d="M30.556 36.281C30.371 36.092 30.308 35.816 30.392 35.566C30.476 35.316 30.693 35.134 30.953 35.094L35.557 34.391L37.622 29.991C37.738 29.744 37.986 29.587 38.259 29.587C38.532 29.587 38.78 29.744 38.896 29.991L40.961 34.391L45.565 35.094C45.825 35.134 46.042 35.316 46.126 35.566C46.21 35.816 46.147 36.091 45.962 36.28L42.61 39.717L43.404 44.574C43.447 44.84 43.336 45.107 43.115 45.262C42.994 45.347 42.852 45.39 42.71 45.39C42.593 45.39 42.476 45.361 42.37 45.303L38.26 43.032L34.152 45.303C33.918 45.434 33.628 45.418 33.407 45.262C33.187 45.107 33.075 44.84 33.118 44.574L33.909 39.717L30.556 36.281ZM58.674 36.281C58.489 36.092 58.426 35.816 58.51 35.566C58.594 35.316 58.811 35.134 59.072 35.094L63.676 34.391L65.74 29.991C65.855 29.744 66.103 29.587 66.377 29.587C66.651 29.587 66.898 29.744 67.014 29.991L69.079 34.391L73.683 35.094C73.943 35.134 74.16 35.316 74.244 35.566C74.328 35.816 74.265 36.091 74.08 36.28L70.726 39.718L71.521 44.575C71.564 44.841 71.453 45.108 71.232 45.263C71.111 45.348 70.968 45.391 70.827 45.391C70.71 45.391 70.594 45.362 70.487 45.304L66.377 43.033L62.27 45.304C62.036 45.435 61.746 45.419 61.524 45.263C61.305 45.108 61.193 44.841 61.236 44.575L62.027 39.718L58.674 36.281ZM77.364 59.885C77.629 60.287 77.674 60.797 77.482 61.24C73.197 71.144 63.164 77.544 51.919 77.544C40.433 77.544 30.339 71.113 26.205 61.162C26.02 60.719 26.07 60.213 26.336 59.814C26.603 59.417 27.05 59.177 27.528 59.177C27.529 59.177 27.529 59.177 27.53 59.177L76.168 59.238C76.65 59.238 77.1 59.48 77.364 59.885ZM85.465 103.696H18.23C8.177 103.696 0 95.517 0 85.467V18.23C0 8.178 8.178 0 18.23 0H85.465C95.518 0 103.694 8.178 103.694 18.23V85.465C103.695 95.518 95.518 103.696 85.465 103.696ZM18.23 8.579C12.908 8.579 8.578 12.909 8.578 18.23V85.465C8.578 90.786 12.908 95.116 18.23 95.116H85.465C90.786 95.116 95.116 90.786 95.116 85.465V18.23C95.116 12.909 90.786 8.579 85.465 8.579H18.23Z" fill="#3683BC"/>
</svg>
