<svg width="104" height="104" viewBox="0 0 104 104" fill="none" xmlns="http://www.w3.org/2000/svg">
<path d="M31.789 39.249L33.548 37.49L31.788 35.729C30.555 34.496 30.492 32.5 31.645 31.185C31.67 31.15 31.723 31.088 31.782 31.028C33.059 29.75 35.242 29.758 36.5 31.017L38.26 32.776L40.02 31.016C41.218 29.817 43.287 29.754 44.564 30.871C44.605 30.901 44.67 30.957 44.731 31.017C45.36 31.646 45.707 32.482 45.708 33.371C45.708 34.261 45.362 35.098 44.732 35.727L42.972 37.487L44.73 39.246C45.36 39.875 45.707 40.712 45.707 41.601C45.707 42.491 45.361 43.328 44.731 43.958C43.473 45.218 41.279 45.219 40.019 43.958L38.261 42.2L36.503 43.958C35.872 44.588 35.036 44.935 34.147 44.935C33.257 44.935 32.42 44.588 31.791 43.958C30.491 42.662 30.491 40.549 31.789 39.249ZM59.906 39.234L61.665 37.475L59.905 35.714C58.673 34.481 58.608 32.485 59.762 31.17C59.786 31.135 59.84 31.073 59.899 31.013C61.176 29.735 63.358 29.743 64.617 31.002L66.377 32.761L68.138 31.001C69.335 29.802 71.405 29.739 72.681 30.856C72.722 30.886 72.787 30.942 72.849 31.002C73.478 31.631 73.825 32.467 73.826 33.356C73.826 34.246 73.48 35.083 72.849 35.712L71.089 37.472L72.847 39.231C73.478 39.86 73.825 40.697 73.825 41.586C73.825 42.476 73.478 43.313 72.849 43.943C71.591 45.203 69.396 45.204 68.136 43.943L66.378 42.185L64.62 43.943C63.989 44.573 63.153 44.921 62.265 44.921C61.374 44.921 60.537 44.574 59.909 43.943C58.606 42.648 58.606 40.534 59.906 39.234ZM28.997 72.504V68.399C28.997 67.848 29.445 67.399 29.997 67.399C31.265 67.399 33.806 66.424 34.901 64.895C35.089 64.633 35.392 64.479 35.714 64.479C35.714 64.479 35.714 64.479 35.715 64.479C36.038 64.479 36.34 64.635 36.528 64.897C37.647 66.465 39.477 67.401 41.423 67.401C43.372 67.401 45.202 66.465 46.319 64.899C46.507 64.635 46.809 64.479 47.132 64.479C47.132 64.479 47.132 64.479 47.133 64.479C47.455 64.479 47.758 64.635 47.946 64.897C49.07 66.465 50.903 67.401 52.848 67.401C54.795 67.401 56.626 66.465 57.747 64.897C58.122 64.373 58.998 64.373 59.374 64.897C60.495 66.465 62.326 67.401 64.271 67.401C66.22 67.401 68.05 66.465 69.171 64.897C69.359 64.635 69.661 64.479 69.984 64.479C70.305 64.479 70.609 64.635 70.797 64.897C71.891 66.426 74.43 67.401 75.696 67.401C76.248 67.401 76.696 67.848 76.696 68.401V72.505C76.696 73.058 76.248 73.505 75.696 73.505C74.03 73.505 71.599 72.572 70.008 71.105C68.516 72.626 66.447 73.505 64.27 73.505C62.106 73.505 60.047 72.634 58.557 71.13C57.068 72.634 55.01 73.505 52.844 73.505C50.681 73.505 48.622 72.634 47.131 71.13C45.643 72.634 43.585 73.505 41.419 73.505C39.243 73.505 37.175 72.625 35.684 71.105C34.092 72.573 31.66 73.505 29.993 73.505C29.445 73.504 28.997 73.057 28.997 72.504ZM85.467 103.696H18.23C8.179 103.696 0 95.518 0 85.467V18.23C0 8.178 8.179 0 18.23 0H85.465C95.518 0 103.695 8.178 103.695 18.23V85.465C103.697 95.518 95.518 103.696 85.467 103.696ZM18.23 8.579C12.909 8.579 8.579 12.909 8.579 18.23V85.465C8.579 90.786 12.909 95.116 18.23 95.116H85.465C90.786 95.116 95.116 90.786 95.116 85.465V18.23C95.116 12.909 90.786 8.579 85.465 8.579H18.23Z" fill="#454545"/>
</svg>
