<svg width="104" height="104" viewBox="0 0 104 104" fill="none" xmlns="http://www.w3.org/2000/svg">
<path d="M75.835 72.818C76.491 74.339 75.792 76.105 74.272 76.763C72.752 77.421 70.986 76.72 70.328 75.2C67.434 68.512 60.599 64.187 52.908 64.187C45.039 64.187 38.16 68.507 35.385 75.193C34.905 76.345 33.789 77.043 32.614 77.045C32.229 77.045 31.841 76.971 31.464 76.815C29.933 76.178 29.208 74.422 29.845 72.893C33.554 63.96 42.609 58.19 52.909 58.19C62.993 58.189 71.993 63.932 75.835 72.818ZM28.452 36.484C27.776 35.308 28.182 33.808 29.358 33.133L38.403 27.937C39.579 27.263 41.079 27.669 41.755 28.844C42.431 30.02 42.025 31.52 40.849 32.195L31.804 37.389C30.626 38.065 29.126 37.66 28.452 36.484ZM42.487 36.59C44.175 38.279 44.175 41.019 42.487 42.705C40.799 44.393 38.061 44.393 36.37 42.703C34.682 41.015 34.682 38.277 36.37 36.59C38.059 34.901 40.797 34.901 42.487 36.59ZM57.188 21.907C57.309 20.557 58.5 19.56 59.85 19.681L70.241 20.615C71.591 20.736 72.589 21.928 72.466 23.279C72.345 24.63 71.154 25.626 69.802 25.504L59.413 24.571C58.063 24.45 57.065 23.256 57.188 21.907ZM68.28 36.519C69.968 38.207 69.968 40.945 68.28 42.632C66.589 44.322 63.85 44.322 62.163 42.634C60.475 40.947 60.475 38.208 62.163 36.519C63.852 34.829 66.59 34.829 68.28 36.519ZM85.465 103.695H18.23C8.178 103.695 0 95.518 0 85.465V18.23C0 8.177 8.179 0 18.23 0H85.465C95.518 0 103.694 8.178 103.694 18.23V85.465C103.696 95.518 95.518 103.695 85.465 103.695ZM18.23 8.577C12.908 8.577 8.578 12.907 8.578 18.229V85.463C8.578 90.785 12.908 95.115 18.23 95.115H85.465C90.786 95.115 95.116 90.785 95.116 85.463V18.23C95.116 12.908 90.786 8.578 85.465 8.578L18.23 8.577Z" fill="#3683BC"/>
</svg>
