<svg width="493" height="502" viewBox="0 0 493 502" fill="none" xmlns="http://www.w3.org/2000/svg">
<path fill-rule="evenodd" clip-rule="evenodd" d="M380.672 64.2766C267.698 -47.4209 171.469 3.37772 154.725 88.4753C137.98 173.573 -17.5659 190.564 1.6393 291.077C20.8445 391.59 230.041 331.91 230.041 423C230.041 514.09 471.914 510.949 471.914 391.59C471.914 272.231 493.646 175.974 380.672 64.2766Z" fill="white" fill-opacity="0.2"/>
<mask id="mask0" mask-type="alpha" maskUnits="userSpaceOnUse" x="0" y="0" width="474" height="487">
<path fill-rule="evenodd" clip-rule="evenodd" d="M380.672 64.2766C267.698 -47.4209 171.469 3.37772 154.725 88.4753C137.98 173.573 -17.5659 190.564 1.6393 291.077C20.8445 391.59 230.041 331.91 230.041 423C230.041 514.09 471.914 510.949 471.914 391.59C471.914 272.231 493.646 175.974 380.672 64.2766Z" fill="white"/>
</mask>
<g mask="url(#mask0)">
<rect width="477" height="490" fill="#3683BC"/>
</g>
<path fill-rule="evenodd" clip-rule="evenodd" d="M329.667 336.333C329.667 337.622 328.622 338.667 327.333 338.667C326.045 338.667 325 337.622 325 336.333C325 335.045 326.045 334 327.333 334C328.622 334 329.667 335.045 329.667 336.333Z" fill="#C3C3C3"/>
<path fill-rule="evenodd" clip-rule="evenodd" d="M353 336.333C353 337.622 351.955 338.667 350.666 338.667C349.378 338.667 348.333 337.622 348.333 336.333C348.333 335.045 349.378 334 350.666 334C351.955 334 353 335.045 353 336.333Z" fill="#C3C3C3"/>
<path fill-rule="evenodd" clip-rule="evenodd" d="M376.334 336.333C376.334 337.622 375.289 338.667 374 338.667C372.712 338.667 371.667 337.622 371.667 336.333C371.667 335.045 372.712 334 374 334C375.289 334 376.334 335.045 376.334 336.333Z" fill="#C3C3C3"/>
<path fill-rule="evenodd" clip-rule="evenodd" d="M399.667 336.333C399.667 337.622 398.622 338.667 397.333 338.667C396.045 338.667 395 337.622 395 336.333C395 335.045 396.045 334 397.333 334C398.622 334 399.667 335.045 399.667 336.333Z" fill="#C3C3C3"/>
<path fill-rule="evenodd" clip-rule="evenodd" d="M423 336.333C423 337.622 421.955 338.667 420.666 338.667C419.378 338.667 418.333 337.622 418.333 336.333C418.333 335.045 419.378 334 420.666 334C421.955 334 423 335.045 423 336.333Z" fill="#C3C3C3"/>
<path fill-rule="evenodd" clip-rule="evenodd" d="M446.334 336.333C446.334 337.622 445.289 338.667 444 338.667C442.712 338.667 441.667 337.622 441.667 336.333C441.667 335.045 442.712 334 444 334C445.289 334 446.334 335.045 446.334 336.333Z" fill="#C3C3C3"/>
<path fill-rule="evenodd" clip-rule="evenodd" d="M469.667 336.333C469.667 337.622 468.622 338.667 467.333 338.667C466.045 338.667 465 337.622 465 336.333C465 335.045 466.045 334 467.333 334C468.622 334 469.667 335.045 469.667 336.333Z" fill="#C3C3C3"/>
<path fill-rule="evenodd" clip-rule="evenodd" d="M493 336.333C493 337.622 491.955 338.667 490.666 338.667C489.378 338.667 488.333 337.622 488.333 336.333C488.333 335.045 489.378 334 490.666 334C491.955 334 493 335.045 493 336.333Z" fill="#C3C3C3"/>
<path fill-rule="evenodd" clip-rule="evenodd" d="M329.667 359.667C329.667 360.955 328.622 362 327.333 362C326.045 362 325 360.955 325 359.667C325 358.378 326.045 357.333 327.333 357.333C328.622 357.333 329.667 358.378 329.667 359.667Z" fill="#C3C3C3"/>
<path fill-rule="evenodd" clip-rule="evenodd" d="M353 359.667C353 360.955 351.955 362 350.666 362C349.378 362 348.333 360.955 348.333 359.667C348.333 358.378 349.378 357.333 350.666 357.333C351.955 357.333 353 358.378 353 359.667Z" fill="#C3C3C3"/>
<path fill-rule="evenodd" clip-rule="evenodd" d="M376.334 359.667C376.334 360.955 375.289 362 374 362C372.712 362 371.667 360.955 371.667 359.667C371.667 358.378 372.712 357.333 374 357.333C375.289 357.333 376.334 358.378 376.334 359.667Z" fill="#C3C3C3"/>
<path fill-rule="evenodd" clip-rule="evenodd" d="M399.667 359.667C399.667 360.955 398.622 362 397.333 362C396.045 362 395 360.955 395 359.667C395 358.378 396.045 357.333 397.333 357.333C398.622 357.333 399.667 358.378 399.667 359.667Z" fill="#C3C3C3"/>
<path fill-rule="evenodd" clip-rule="evenodd" d="M423 359.667C423 360.955 421.955 362 420.666 362C419.378 362 418.333 360.955 418.333 359.667C418.333 358.378 419.378 357.333 420.666 357.333C421.955 357.333 423 358.378 423 359.667Z" fill="#C3C3C3"/>
<path fill-rule="evenodd" clip-rule="evenodd" d="M446.334 359.667C446.334 360.955 445.289 362 444 362C442.712 362 441.667 360.955 441.667 359.667C441.667 358.378 442.712 357.333 444 357.333C445.289 357.333 446.334 358.378 446.334 359.667Z" fill="#C3C3C3"/>
<path fill-rule="evenodd" clip-rule="evenodd" d="M469.667 359.667C469.667 360.955 468.622 362 467.333 362C466.045 362 465 360.955 465 359.667C465 358.378 466.045 357.333 467.333 357.333C468.622 357.333 469.667 358.378 469.667 359.667Z" fill="#C3C3C3"/>
<path fill-rule="evenodd" clip-rule="evenodd" d="M493 359.667C493 360.955 491.955 362 490.666 362C489.378 362 488.333 360.955 488.333 359.667C488.333 358.378 489.378 357.333 490.666 357.333C491.955 357.333 493 358.378 493 359.667Z" fill="#C3C3C3"/>
<path fill-rule="evenodd" clip-rule="evenodd" d="M329.667 383C329.667 384.289 328.622 385.333 327.333 385.333C326.045 385.333 325 384.289 325 383C325 381.711 326.045 380.667 327.333 380.667C328.622 380.667 329.667 381.711 329.667 383Z" fill="#C3C3C3"/>
<path fill-rule="evenodd" clip-rule="evenodd" d="M353 383C353 384.289 351.955 385.333 350.666 385.333C349.378 385.333 348.333 384.289 348.333 383C348.333 381.711 349.378 380.667 350.666 380.667C351.955 380.667 353 381.711 353 383Z" fill="#C3C3C3"/>
<path fill-rule="evenodd" clip-rule="evenodd" d="M376.334 383C376.334 384.289 375.289 385.333 374 385.333C372.712 385.333 371.667 384.289 371.667 383C371.667 381.711 372.712 380.667 374 380.667C375.289 380.667 376.334 381.711 376.334 383Z" fill="#C3C3C3"/>
<path fill-rule="evenodd" clip-rule="evenodd" d="M399.667 383C399.667 384.289 398.622 385.333 397.333 385.333C396.045 385.333 395 384.289 395 383C395 381.711 396.045 380.667 397.333 380.667C398.622 380.667 399.667 381.711 399.667 383Z" fill="#C3C3C3"/>
<path fill-rule="evenodd" clip-rule="evenodd" d="M423 383C423 384.289 421.955 385.333 420.666 385.333C419.378 385.333 418.333 384.289 418.333 383C418.333 381.711 419.378 380.667 420.666 380.667C421.955 380.667 423 381.711 423 383Z" fill="#C3C3C3"/>
<path fill-rule="evenodd" clip-rule="evenodd" d="M446.334 383C446.334 384.289 445.289 385.333 444 385.333C442.712 385.333 441.667 384.289 441.667 383C441.667 381.711 442.712 380.667 444 380.667C445.289 380.667 446.334 381.711 446.334 383Z" fill="#C3C3C3"/>
<path fill-rule="evenodd" clip-rule="evenodd" d="M469.667 383C469.667 384.289 468.622 385.333 467.333 385.333C466.045 385.333 465 384.289 465 383C465 381.711 466.045 380.667 467.333 380.667C468.622 380.667 469.667 381.711 469.667 383Z" fill="#C3C3C3"/>
<path fill-rule="evenodd" clip-rule="evenodd" d="M493 383C493 384.289 491.955 385.333 490.666 385.333C489.378 385.333 488.333 384.289 488.333 383C488.333 381.711 489.378 380.667 490.666 380.667C491.955 380.667 493 381.711 493 383Z" fill="#C3C3C3"/>
<path fill-rule="evenodd" clip-rule="evenodd" d="M329.667 406.333C329.667 407.622 328.622 408.667 327.333 408.667C326.045 408.667 325 407.622 325 406.333C325 405.045 326.045 404 327.333 404C328.622 404 329.667 405.045 329.667 406.333Z" fill="#C3C3C3"/>
<path fill-rule="evenodd" clip-rule="evenodd" d="M353 406.333C353 407.622 351.955 408.667 350.666 408.667C349.378 408.667 348.333 407.622 348.333 406.333C348.333 405.045 349.378 404 350.666 404C351.955 404 353 405.045 353 406.333Z" fill="#C3C3C3"/>
<path fill-rule="evenodd" clip-rule="evenodd" d="M376.334 406.333C376.334 407.622 375.289 408.667 374 408.667C372.712 408.667 371.667 407.622 371.667 406.333C371.667 405.045 372.712 404 374 404C375.289 404 376.334 405.045 376.334 406.333Z" fill="#C3C3C3"/>
<path fill-rule="evenodd" clip-rule="evenodd" d="M399.667 406.333C399.667 407.622 398.622 408.667 397.333 408.667C396.045 408.667 395 407.622 395 406.333C395 405.045 396.045 404 397.333 404C398.622 404 399.667 405.045 399.667 406.333Z" fill="#C3C3C3"/>
<path fill-rule="evenodd" clip-rule="evenodd" d="M423 406.333C423 407.622 421.955 408.667 420.666 408.667C419.378 408.667 418.333 407.622 418.333 406.333C418.333 405.045 419.378 404 420.666 404C421.955 404 423 405.045 423 406.333Z" fill="#C3C3C3"/>
<path fill-rule="evenodd" clip-rule="evenodd" d="M446.334 406.333C446.334 407.622 445.289 408.667 444 408.667C442.712 408.667 441.667 407.622 441.667 406.333C441.667 405.045 442.712 404 444 404C445.289 404 446.334 405.045 446.334 406.333Z" fill="#C3C3C3"/>
<path fill-rule="evenodd" clip-rule="evenodd" d="M469.667 406.333C469.667 407.622 468.622 408.667 467.333 408.667C466.045 408.667 465 407.622 465 406.333C465 405.045 466.045 404 467.333 404C468.622 404 469.667 405.045 469.667 406.333Z" fill="#C3C3C3"/>
<path fill-rule="evenodd" clip-rule="evenodd" d="M493 406.333C493 407.622 491.955 408.667 490.666 408.667C489.378 408.667 488.333 407.622 488.333 406.333C488.333 405.045 489.378 404 490.666 404C491.955 404 493 405.045 493 406.333Z" fill="#C3C3C3"/>
<path fill-rule="evenodd" clip-rule="evenodd" d="M329.667 429.667C329.667 430.955 328.622 432 327.333 432C326.045 432 325 430.955 325 429.667C325 428.378 326.045 427.333 327.333 427.333C328.622 427.333 329.667 428.378 329.667 429.667Z" fill="#C3C3C3"/>
<path fill-rule="evenodd" clip-rule="evenodd" d="M353 429.667C353 430.955 351.955 432 350.666 432C349.378 432 348.333 430.955 348.333 429.667C348.333 428.378 349.378 427.333 350.666 427.333C351.955 427.333 353 428.378 353 429.667Z" fill="#C3C3C3"/>
<path fill-rule="evenodd" clip-rule="evenodd" d="M376.334 429.667C376.334 430.955 375.289 432 374 432C372.712 432 371.667 430.955 371.667 429.667C371.667 428.378 372.712 427.333 374 427.333C375.289 427.333 376.334 428.378 376.334 429.667Z" fill="#C3C3C3"/>
<path fill-rule="evenodd" clip-rule="evenodd" d="M399.667 429.667C399.667 430.955 398.622 432 397.333 432C396.045 432 395 430.955 395 429.667C395 428.378 396.045 427.333 397.333 427.333C398.622 427.333 399.667 428.378 399.667 429.667Z" fill="#C3C3C3"/>
<path fill-rule="evenodd" clip-rule="evenodd" d="M423 429.667C423 430.955 421.955 432 420.666 432C419.378 432 418.333 430.955 418.333 429.667C418.333 428.378 419.378 427.333 420.666 427.333C421.955 427.333 423 428.378 423 429.667Z" fill="#C3C3C3"/>
<path fill-rule="evenodd" clip-rule="evenodd" d="M446.334 429.667C446.334 430.955 445.289 432 444 432C442.712 432 441.667 430.955 441.667 429.667C441.667 428.378 442.712 427.333 444 427.333C445.289 427.333 446.334 428.378 446.334 429.667Z" fill="#C3C3C3"/>
<path fill-rule="evenodd" clip-rule="evenodd" d="M469.667 429.667C469.667 430.955 468.622 432 467.333 432C466.045 432 465 430.955 465 429.667C465 428.378 466.045 427.333 467.333 427.333C468.622 427.333 469.667 428.378 469.667 429.667Z" fill="#C3C3C3"/>
<path fill-rule="evenodd" clip-rule="evenodd" d="M493 429.667C493 430.955 491.955 432 490.666 432C489.378 432 488.333 430.955 488.333 429.667C488.333 428.378 489.378 427.333 490.666 427.333C491.955 427.333 493 428.378 493 429.667Z" fill="#C3C3C3"/>
<path fill-rule="evenodd" clip-rule="evenodd" d="M329.667 453C329.667 454.289 328.622 455.333 327.333 455.333C326.045 455.333 325 454.289 325 453C325 451.711 326.045 450.667 327.333 450.667C328.622 450.667 329.667 451.711 329.667 453Z" fill="#C3C3C3"/>
<path fill-rule="evenodd" clip-rule="evenodd" d="M353 453C353 454.289 351.955 455.333 350.666 455.333C349.378 455.333 348.333 454.289 348.333 453C348.333 451.711 349.378 450.667 350.666 450.667C351.955 450.667 353 451.711 353 453Z" fill="#C3C3C3"/>
<path fill-rule="evenodd" clip-rule="evenodd" d="M376.334 453C376.334 454.289 375.289 455.333 374 455.333C372.712 455.333 371.667 454.289 371.667 453C371.667 451.711 372.712 450.667 374 450.667C375.289 450.667 376.334 451.711 376.334 453Z" fill="#C3C3C3"/>
<path fill-rule="evenodd" clip-rule="evenodd" d="M399.667 453C399.667 454.289 398.622 455.333 397.333 455.333C396.045 455.333 395 454.289 395 453C395 451.711 396.045 450.667 397.333 450.667C398.622 450.667 399.667 451.711 399.667 453Z" fill="#C3C3C3"/>
<path fill-rule="evenodd" clip-rule="evenodd" d="M423 453C423 454.289 421.955 455.333 420.666 455.333C419.378 455.333 418.333 454.289 418.333 453C418.333 451.711 419.378 450.667 420.666 450.667C421.955 450.667 423 451.711 423 453Z" fill="#C3C3C3"/>
<path fill-rule="evenodd" clip-rule="evenodd" d="M446.334 453C446.334 454.289 445.289 455.333 444 455.333C442.712 455.333 441.667 454.289 441.667 453C441.667 451.711 442.712 450.667 444 450.667C445.289 450.667 446.334 451.711 446.334 453Z" fill="#C3C3C3"/>
<path fill-rule="evenodd" clip-rule="evenodd" d="M469.667 453C469.667 454.289 468.622 455.333 467.333 455.333C466.045 455.333 465 454.289 465 453C465 451.711 466.045 450.667 467.333 450.667C468.622 450.667 469.667 451.711 469.667 453Z" fill="#C3C3C3"/>
<path fill-rule="evenodd" clip-rule="evenodd" d="M493 453C493 454.289 491.955 455.333 490.666 455.333C489.378 455.333 488.333 454.289 488.333 453C488.333 451.711 489.378 450.667 490.666 450.667C491.955 450.667 493 451.711 493 453Z" fill="#C3C3C3"/>
<path fill-rule="evenodd" clip-rule="evenodd" d="M329.667 476.333C329.667 477.622 328.622 478.667 327.333 478.667C326.045 478.667 325 477.622 325 476.333C325 475.045 326.045 474 327.333 474C328.622 474 329.667 475.045 329.667 476.333Z" fill="#C3C3C3"/>
<path fill-rule="evenodd" clip-rule="evenodd" d="M353 476.333C353 477.622 351.955 478.667 350.666 478.667C349.378 478.667 348.333 477.622 348.333 476.333C348.333 475.045 349.378 474 350.666 474C351.955 474 353 475.045 353 476.333Z" fill="#C3C3C3"/>
<path fill-rule="evenodd" clip-rule="evenodd" d="M376.334 476.333C376.334 477.622 375.289 478.667 374 478.667C372.712 478.667 371.667 477.622 371.667 476.333C371.667 475.045 372.712 474 374 474C375.289 474 376.334 475.045 376.334 476.333Z" fill="#C3C3C3"/>
<path fill-rule="evenodd" clip-rule="evenodd" d="M399.667 476.333C399.667 477.622 398.622 478.667 397.333 478.667C396.045 478.667 395 477.622 395 476.333C395 475.045 396.045 474 397.333 474C398.622 474 399.667 475.045 399.667 476.333Z" fill="#C3C3C3"/>
<path fill-rule="evenodd" clip-rule="evenodd" d="M423 476.333C423 477.622 421.955 478.667 420.666 478.667C419.378 478.667 418.333 477.622 418.333 476.333C418.333 475.045 419.378 474 420.666 474C421.955 474 423 475.045 423 476.333Z" fill="#C3C3C3"/>
<path fill-rule="evenodd" clip-rule="evenodd" d="M446.334 476.333C446.334 477.622 445.289 478.667 444 478.667C442.712 478.667 441.667 477.622 441.667 476.333C441.667 475.045 442.712 474 444 474C445.289 474 446.334 475.045 446.334 476.333Z" fill="#C3C3C3"/>
<path fill-rule="evenodd" clip-rule="evenodd" d="M469.667 476.333C469.667 477.622 468.622 478.667 467.333 478.667C466.045 478.667 465 477.622 465 476.333C465 475.045 466.045 474 467.333 474C468.622 474 469.667 475.045 469.667 476.333Z" fill="#C3C3C3"/>
<path fill-rule="evenodd" clip-rule="evenodd" d="M493 476.333C493 477.622 491.955 478.667 490.666 478.667C489.378 478.667 488.333 477.622 488.333 476.333C488.333 475.045 489.378 474 490.666 474C491.955 474 493 475.045 493 476.333Z" fill="#C3C3C3"/>
<path fill-rule="evenodd" clip-rule="evenodd" d="M329.667 499.667C329.667 500.955 328.622 502 327.333 502C326.045 502 325 500.955 325 499.667C325 498.378 326.045 497.333 327.333 497.333C328.622 497.333 329.667 498.378 329.667 499.667Z" fill="#C3C3C3"/>
<path fill-rule="evenodd" clip-rule="evenodd" d="M353 499.667C353 500.955 351.955 502 350.666 502C349.378 502 348.333 500.955 348.333 499.667C348.333 498.378 349.378 497.333 350.666 497.333C351.955 497.333 353 498.378 353 499.667Z" fill="#C3C3C3"/>
<path fill-rule="evenodd" clip-rule="evenodd" d="M376.334 499.667C376.334 500.955 375.289 502 374 502C372.712 502 371.667 500.955 371.667 499.667C371.667 498.378 372.712 497.333 374 497.333C375.289 497.333 376.334 498.378 376.334 499.667Z" fill="#C3C3C3"/>
<path fill-rule="evenodd" clip-rule="evenodd" d="M399.667 499.667C399.667 500.955 398.622 502 397.333 502C396.045 502 395 500.955 395 499.667C395 498.378 396.045 497.333 397.333 497.333C398.622 497.333 399.667 498.378 399.667 499.667Z" fill="#C3C3C3"/>
<path fill-rule="evenodd" clip-rule="evenodd" d="M423 499.667C423 500.955 421.955 502 420.666 502C419.378 502 418.333 500.955 418.333 499.667C418.333 498.378 419.378 497.333 420.666 497.333C421.955 497.333 423 498.378 423 499.667Z" fill="#C3C3C3"/>
<path fill-rule="evenodd" clip-rule="evenodd" d="M446.334 499.667C446.334 500.955 445.289 502 444 502C442.712 502 441.667 500.955 441.667 499.667C441.667 498.378 442.712 497.333 444 497.333C445.289 497.333 446.334 498.378 446.334 499.667Z" fill="#C3C3C3"/>
<path fill-rule="evenodd" clip-rule="evenodd" d="M469.667 499.667C469.667 500.955 468.622 502 467.333 502C466.045 502 465 500.955 465 499.667C465 498.378 466.045 497.333 467.333 497.333C468.622 497.333 469.667 498.378 469.667 499.667Z" fill="#C3C3C3"/>
<path fill-rule="evenodd" clip-rule="evenodd" d="M493 499.667C493 500.955 491.955 502 490.666 502C489.378 502 488.333 500.955 488.333 499.667C488.333 498.378 489.378 497.333 490.666 497.333C491.955 497.333 493 498.378 493 499.667Z" fill="#C3C3C3"/>
<path fill-rule="evenodd" clip-rule="evenodd" d="M25.6667 97.3333C25.6667 98.6219 24.6219 99.6667 23.3333 99.6667C22.0447 99.6667 21 98.6219 21 97.3333C21 96.0447 22.0447 95 23.3333 95C24.6219 95 25.6667 96.0447 25.6667 97.3333Z" fill="#C3C3C3"/>
<path fill-rule="evenodd" clip-rule="evenodd" d="M48.9997 97.3333C48.9997 98.6219 47.9549 99.6667 46.6663 99.6667C45.3778 99.6667 44.333 98.6219 44.333 97.3333C44.333 96.0447 45.3778 95 46.6663 95C47.9549 95 48.9997 96.0447 48.9997 97.3333Z" fill="#C3C3C3"/>
<path fill-rule="evenodd" clip-rule="evenodd" d="M72.3337 97.3333C72.3337 98.6219 71.2889 99.6667 70.0003 99.6667C68.7117 99.6667 67.667 98.6219 67.667 97.3333C67.667 96.0447 68.7117 95 70.0003 95C71.2889 95 72.3337 96.0447 72.3337 97.3333Z" fill="#C3C3C3"/>
<path fill-rule="evenodd" clip-rule="evenodd" d="M95.6667 97.3333C95.6667 98.6219 94.6219 99.6667 93.3333 99.6667C92.0448 99.6667 91 98.6219 91 97.3333C91 96.0447 92.0448 95 93.3333 95C94.6219 95 95.6667 96.0447 95.6667 97.3333Z" fill="#C3C3C3"/>
<path fill-rule="evenodd" clip-rule="evenodd" d="M119 97.3333C119 98.6219 117.955 99.6667 116.666 99.6667C115.378 99.6667 114.333 98.6219 114.333 97.3333C114.333 96.0447 115.378 95 116.666 95C117.955 95 119 96.0447 119 97.3333Z" fill="#C3C3C3"/>
<path fill-rule="evenodd" clip-rule="evenodd" d="M142.334 97.3333C142.334 98.6219 141.289 99.6667 140 99.6667C138.712 99.6667 137.667 98.6219 137.667 97.3333C137.667 96.0447 138.712 95 140 95C141.289 95 142.334 96.0447 142.334 97.3333Z" fill="#C3C3C3"/>
<path fill-rule="evenodd" clip-rule="evenodd" d="M165.667 97.3333C165.667 98.6219 164.622 99.6667 163.333 99.6667C162.045 99.6667 161 98.6219 161 97.3333C161 96.0447 162.045 95 163.333 95C164.622 95 165.667 96.0447 165.667 97.3333Z" fill="white"/>
<path fill-rule="evenodd" clip-rule="evenodd" d="M189 97.3333C189 98.6219 187.955 99.6667 186.666 99.6667C185.378 99.6667 184.333 98.6219 184.333 97.3333C184.333 96.0447 185.378 95 186.666 95C187.955 95 189 96.0447 189 97.3333Z" fill="white"/>
<path fill-rule="evenodd" clip-rule="evenodd" d="M25.6667 120.667C25.6667 121.955 24.6219 123 23.3333 123C22.0447 123 21 121.955 21 120.667C21 119.378 22.0447 118.333 23.3333 118.333C24.6219 118.333 25.6667 119.378 25.6667 120.667Z" fill="#C3C3C3"/>
<path fill-rule="evenodd" clip-rule="evenodd" d="M48.9997 120.667C48.9997 121.955 47.9549 123 46.6663 123C45.3778 123 44.333 121.955 44.333 120.667C44.333 119.378 45.3778 118.333 46.6663 118.333C47.9549 118.333 48.9997 119.378 48.9997 120.667Z" fill="#C3C3C3"/>
<path fill-rule="evenodd" clip-rule="evenodd" d="M72.3337 120.667C72.3337 121.955 71.2889 123 70.0003 123C68.7117 123 67.667 121.955 67.667 120.667C67.667 119.378 68.7117 118.333 70.0003 118.333C71.2889 118.333 72.3337 119.378 72.3337 120.667Z" fill="#C3C3C3"/>
<path fill-rule="evenodd" clip-rule="evenodd" d="M95.6667 120.667C95.6667 121.955 94.6219 123 93.3333 123C92.0448 123 91 121.955 91 120.667C91 119.378 92.0448 118.333 93.3333 118.333C94.6219 118.333 95.6667 119.378 95.6667 120.667Z" fill="#C3C3C3"/>
<path fill-rule="evenodd" clip-rule="evenodd" d="M119 120.667C119 121.955 117.955 123 116.666 123C115.378 123 114.333 121.955 114.333 120.667C114.333 119.378 115.378 118.333 116.666 118.333C117.955 118.333 119 119.378 119 120.667Z" fill="#C3C3C3"/>
<path fill-rule="evenodd" clip-rule="evenodd" d="M142.334 120.667C142.334 121.955 141.289 123 140 123C138.712 123 137.667 121.955 137.667 120.667C137.667 119.378 138.712 118.333 140 118.333C141.289 118.333 142.334 119.378 142.334 120.667Z" fill="white"/>
<path fill-rule="evenodd" clip-rule="evenodd" d="M165.667 120.667C165.667 121.955 164.622 123 163.333 123C162.045 123 161 121.955 161 120.667C161 119.378 162.045 118.333 163.333 118.333C164.622 118.333 165.667 119.378 165.667 120.667Z" fill="white"/>
<path fill-rule="evenodd" clip-rule="evenodd" d="M189 120.667C189 121.955 187.955 123 186.666 123C185.378 123 184.333 121.955 184.333 120.667C184.333 119.378 185.378 118.333 186.666 118.333C187.955 118.333 189 119.378 189 120.667Z" fill="white"/>
<path fill-rule="evenodd" clip-rule="evenodd" d="M25.6667 144C25.6667 145.289 24.6219 146.333 23.3333 146.333C22.0447 146.333 21 145.289 21 144C21 142.711 22.0447 141.667 23.3333 141.667C24.6219 141.667 25.6667 142.711 25.6667 144Z" fill="#C3C3C3"/>
<path fill-rule="evenodd" clip-rule="evenodd" d="M48.9997 144C48.9997 145.289 47.9549 146.333 46.6663 146.333C45.3778 146.333 44.333 145.289 44.333 144C44.333 142.711 45.3778 141.667 46.6663 141.667C47.9549 141.667 48.9997 142.711 48.9997 144Z" fill="#C3C3C3"/>
<path fill-rule="evenodd" clip-rule="evenodd" d="M72.3337 144C72.3337 145.289 71.2889 146.333 70.0003 146.333C68.7117 146.333 67.667 145.289 67.667 144C67.667 142.711 68.7117 141.667 70.0003 141.667C71.2889 141.667 72.3337 142.711 72.3337 144Z" fill="#C3C3C3"/>
<path fill-rule="evenodd" clip-rule="evenodd" d="M95.6667 144C95.6667 145.289 94.6219 146.333 93.3333 146.333C92.0448 146.333 91 145.289 91 144C91 142.711 92.0448 141.667 93.3333 141.667C94.6219 141.667 95.6667 142.711 95.6667 144Z" fill="#C3C3C3"/>
<path fill-rule="evenodd" clip-rule="evenodd" d="M119 144C119 145.289 117.955 146.333 116.666 146.333C115.378 146.333 114.333 145.289 114.333 144C114.333 142.711 115.378 141.667 116.666 141.667C117.955 141.667 119 142.711 119 144Z" fill="white"/>
<path fill-rule="evenodd" clip-rule="evenodd" d="M142.334 144C142.334 145.289 141.289 146.333 140 146.333C138.712 146.333 137.667 145.289 137.667 144C137.667 142.711 138.712 141.667 140 141.667C141.289 141.667 142.334 142.711 142.334 144Z" fill="white"/>
<path fill-rule="evenodd" clip-rule="evenodd" d="M165.667 144C165.667 145.289 164.622 146.333 163.333 146.333C162.045 146.333 161 145.289 161 144C161 142.711 162.045 141.667 163.333 141.667C164.622 141.667 165.667 142.711 165.667 144Z" fill="white"/>
<path fill-rule="evenodd" clip-rule="evenodd" d="M189 144C189 145.289 187.955 146.333 186.666 146.333C185.378 146.333 184.333 145.289 184.333 144C184.333 142.711 185.378 141.667 186.666 141.667C187.955 141.667 189 142.711 189 144Z" fill="white"/>
<path fill-rule="evenodd" clip-rule="evenodd" d="M25.6667 167.333C25.6667 168.622 24.6219 169.667 23.3333 169.667C22.0447 169.667 21 168.622 21 167.333C21 166.045 22.0447 165 23.3333 165C24.6219 165 25.6667 166.045 25.6667 167.333Z" fill="#C3C3C3"/>
<path fill-rule="evenodd" clip-rule="evenodd" d="M48.9997 167.333C48.9997 168.622 47.9549 169.667 46.6663 169.667C45.3778 169.667 44.333 168.622 44.333 167.333C44.333 166.045 45.3778 165 46.6663 165C47.9549 165 48.9997 166.045 48.9997 167.333Z" fill="#C3C3C3"/>
<path fill-rule="evenodd" clip-rule="evenodd" d="M72.3337 167.333C72.3337 168.622 71.2889 169.667 70.0003 169.667C68.7117 169.667 67.667 168.622 67.667 167.333C67.667 166.045 68.7117 165 70.0003 165C71.2889 165 72.3337 166.045 72.3337 167.333Z" fill="#C3C3C3"/>
<path fill-rule="evenodd" clip-rule="evenodd" d="M95.6667 167.333C95.6667 168.622 94.6219 169.667 93.3333 169.667C92.0448 169.667 91 168.622 91 167.333C91 166.045 92.0448 165 93.3333 165C94.6219 165 95.6667 166.045 95.6667 167.333Z" fill="white"/>
<path fill-rule="evenodd" clip-rule="evenodd" d="M119 167.333C119 168.622 117.955 169.667 116.666 169.667C115.378 169.667 114.333 168.622 114.333 167.333C114.333 166.045 115.378 165 116.666 165C117.955 165 119 166.045 119 167.333Z" fill="white"/>
<path fill-rule="evenodd" clip-rule="evenodd" d="M142.334 167.333C142.334 168.622 141.289 169.667 140 169.667C138.712 169.667 137.667 168.622 137.667 167.333C137.667 166.045 138.712 165 140 165C141.289 165 142.334 166.045 142.334 167.333Z" fill="white"/>
<path fill-rule="evenodd" clip-rule="evenodd" d="M165.667 167.333C165.667 168.622 164.622 169.667 163.333 169.667C162.045 169.667 161 168.622 161 167.333C161 166.045 162.045 165 163.333 165C164.622 165 165.667 166.045 165.667 167.333Z" fill="white"/>
<path fill-rule="evenodd" clip-rule="evenodd" d="M189 167.333C189 168.622 187.955 169.667 186.666 169.667C185.378 169.667 184.333 168.622 184.333 167.333C184.333 166.045 185.378 165 186.666 165C187.955 165 189 166.045 189 167.333Z" fill="white"/>
<path fill-rule="evenodd" clip-rule="evenodd" d="M25.6667 190.667C25.6667 191.955 24.6219 193 23.3333 193C22.0447 193 21 191.955 21 190.667C21 189.378 22.0447 188.333 23.3333 188.333C24.6219 188.333 25.6667 189.378 25.6667 190.667Z" fill="#C3C3C3"/>
<path fill-rule="evenodd" clip-rule="evenodd" d="M48.9997 190.667C48.9997 191.955 47.9549 193 46.6663 193C45.3778 193 44.333 191.955 44.333 190.667C44.333 189.378 45.3778 188.333 46.6663 188.333C47.9549 188.333 48.9997 189.378 48.9997 190.667Z" fill="#C3C3C3"/>
<path fill-rule="evenodd" clip-rule="evenodd" d="M72.3337 190.667C72.3337 191.955 71.2889 193 70.0003 193C68.7117 193 67.667 191.955 67.667 190.667C67.667 189.378 68.7117 188.333 70.0003 188.333C71.2889 188.333 72.3337 189.378 72.3337 190.667Z" fill="white"/>
<path fill-rule="evenodd" clip-rule="evenodd" d="M95.6667 190.667C95.6667 191.955 94.6219 193 93.3333 193C92.0448 193 91 191.955 91 190.667C91 189.378 92.0448 188.333 93.3333 188.333C94.6219 188.333 95.6667 189.378 95.6667 190.667Z" fill="white"/>
<path fill-rule="evenodd" clip-rule="evenodd" d="M119 190.667C119 191.955 117.955 193 116.666 193C115.378 193 114.333 191.955 114.333 190.667C114.333 189.378 115.378 188.333 116.666 188.333C117.955 188.333 119 189.378 119 190.667Z" fill="white"/>
<path fill-rule="evenodd" clip-rule="evenodd" d="M142.334 190.667C142.334 191.955 141.289 193 140 193C138.712 193 137.667 191.955 137.667 190.667C137.667 189.378 138.712 188.333 140 188.333C141.289 188.333 142.334 189.378 142.334 190.667Z" fill="white"/>
<path fill-rule="evenodd" clip-rule="evenodd" d="M165.667 190.667C165.667 191.955 164.622 193 163.333 193C162.045 193 161 191.955 161 190.667C161 189.378 162.045 188.333 163.333 188.333C164.622 188.333 165.667 189.378 165.667 190.667Z" fill="white"/>
<path fill-rule="evenodd" clip-rule="evenodd" d="M189 190.667C189 191.955 187.955 193 186.666 193C185.378 193 184.333 191.955 184.333 190.667C184.333 189.378 185.378 188.333 186.666 188.333C187.955 188.333 189 189.378 189 190.667Z" fill="white"/>
<path fill-rule="evenodd" clip-rule="evenodd" d="M25.6667 214C25.6667 215.289 24.6219 216.333 23.3333 216.333C22.0447 216.333 21 215.289 21 214C21 212.711 22.0447 211.667 23.3333 211.667C24.6219 211.667 25.6667 212.711 25.6667 214Z" fill="#C3C3C3"/>
<path fill-rule="evenodd" clip-rule="evenodd" d="M48.9997 214C48.9997 215.289 47.9549 216.333 46.6663 216.333C45.3778 216.333 44.333 215.289 44.333 214C44.333 212.711 45.3778 211.667 46.6663 211.667C47.9549 211.667 48.9997 212.711 48.9997 214Z" fill="white"/>
<path fill-rule="evenodd" clip-rule="evenodd" d="M72.3337 214C72.3337 215.289 71.2889 216.333 70.0003 216.333C68.7117 216.333 67.667 215.289 67.667 214C67.667 212.711 68.7117 211.667 70.0003 211.667C71.2889 211.667 72.3337 212.711 72.3337 214Z" fill="white"/>
<path fill-rule="evenodd" clip-rule="evenodd" d="M95.6667 214C95.6667 215.289 94.6219 216.333 93.3333 216.333C92.0448 216.333 91 215.289 91 214C91 212.711 92.0448 211.667 93.3333 211.667C94.6219 211.667 95.6667 212.711 95.6667 214Z" fill="white"/>
<path fill-rule="evenodd" clip-rule="evenodd" d="M119 214C119 215.289 117.955 216.333 116.666 216.333C115.378 216.333 114.333 215.289 114.333 214C114.333 212.711 115.378 211.667 116.666 211.667C117.955 211.667 119 212.711 119 214Z" fill="white"/>
<path fill-rule="evenodd" clip-rule="evenodd" d="M142.334 214C142.334 215.289 141.289 216.333 140 216.333C138.712 216.333 137.667 215.289 137.667 214C137.667 212.711 138.712 211.667 140 211.667C141.289 211.667 142.334 212.711 142.334 214Z" fill="white"/>
<path fill-rule="evenodd" clip-rule="evenodd" d="M165.667 214C165.667 215.289 164.622 216.333 163.333 216.333C162.045 216.333 161 215.289 161 214C161 212.711 162.045 211.667 163.333 211.667C164.622 211.667 165.667 212.711 165.667 214Z" fill="white"/>
<path fill-rule="evenodd" clip-rule="evenodd" d="M189 214C189 215.289 187.955 216.333 186.666 216.333C185.378 216.333 184.333 215.289 184.333 214C184.333 212.711 185.378 211.667 186.666 211.667C187.955 211.667 189 212.711 189 214Z" fill="white"/>
<path fill-rule="evenodd" clip-rule="evenodd" d="M25.6667 237.333C25.6667 238.622 24.6219 239.667 23.3333 239.667C22.0447 239.667 21 238.622 21 237.333C21 236.045 22.0447 235 23.3333 235C24.6219 235 25.6667 236.045 25.6667 237.333Z" fill="white"/>
<path fill-rule="evenodd" clip-rule="evenodd" d="M48.9997 237.333C48.9997 238.622 47.9549 239.667 46.6663 239.667C45.3778 239.667 44.333 238.622 44.333 237.333C44.333 236.045 45.3778 235 46.6663 235C47.9549 235 48.9997 236.045 48.9997 237.333Z" fill="white"/>
<path fill-rule="evenodd" clip-rule="evenodd" d="M72.3337 237.333C72.3337 238.622 71.2889 239.667 70.0003 239.667C68.7117 239.667 67.667 238.622 67.667 237.333C67.667 236.045 68.7117 235 70.0003 235C71.2889 235 72.3337 236.045 72.3337 237.333Z" fill="white"/>
<path fill-rule="evenodd" clip-rule="evenodd" d="M95.6667 237.333C95.6667 238.622 94.6219 239.667 93.3333 239.667C92.0448 239.667 91 238.622 91 237.333C91 236.045 92.0448 235 93.3333 235C94.6219 235 95.6667 236.045 95.6667 237.333Z" fill="white"/>
<path fill-rule="evenodd" clip-rule="evenodd" d="M119 237.333C119 238.622 117.955 239.667 116.666 239.667C115.378 239.667 114.333 238.622 114.333 237.333C114.333 236.045 115.378 235 116.666 235C117.955 235 119 236.045 119 237.333Z" fill="white"/>
<path fill-rule="evenodd" clip-rule="evenodd" d="M142.334 237.333C142.334 238.622 141.289 239.667 140 239.667C138.712 239.667 137.667 238.622 137.667 237.333C137.667 236.045 138.712 235 140 235C141.289 235 142.334 236.045 142.334 237.333Z" fill="white"/>
<path fill-rule="evenodd" clip-rule="evenodd" d="M165.667 237.333C165.667 238.622 164.622 239.667 163.333 239.667C162.045 239.667 161 238.622 161 237.333C161 236.045 162.045 235 163.333 235C164.622 235 165.667 236.045 165.667 237.333Z" fill="white"/>
<path fill-rule="evenodd" clip-rule="evenodd" d="M189 237.333C189 238.622 187.955 239.667 186.666 239.667C185.378 239.667 184.333 238.622 184.333 237.333C184.333 236.045 185.378 235 186.666 235C187.955 235 189 236.045 189 237.333Z" fill="white"/>
<path fill-rule="evenodd" clip-rule="evenodd" d="M25.6667 260.667C25.6667 261.955 24.6219 263 23.3333 263C22.0447 263 21 261.955 21 260.667C21 259.378 22.0447 258.333 23.3333 258.333C24.6219 258.333 25.6667 259.378 25.6667 260.667Z" fill="white"/>
<path fill-rule="evenodd" clip-rule="evenodd" d="M48.9997 260.667C48.9997 261.955 47.9549 263 46.6663 263C45.3778 263 44.333 261.955 44.333 260.667C44.333 259.378 45.3778 258.333 46.6663 258.333C47.9549 258.333 48.9997 259.378 48.9997 260.667Z" fill="white"/>
<path fill-rule="evenodd" clip-rule="evenodd" d="M72.3337 260.667C72.3337 261.955 71.2889 263 70.0003 263C68.7117 263 67.667 261.955 67.667 260.667C67.667 259.378 68.7117 258.333 70.0003 258.333C71.2889 258.333 72.3337 259.378 72.3337 260.667Z" fill="white"/>
<path fill-rule="evenodd" clip-rule="evenodd" d="M95.6667 260.667C95.6667 261.955 94.6219 263 93.3333 263C92.0448 263 91 261.955 91 260.667C91 259.378 92.0448 258.333 93.3333 258.333C94.6219 258.333 95.6667 259.378 95.6667 260.667Z" fill="white"/>
<path fill-rule="evenodd" clip-rule="evenodd" d="M119 260.667C119 261.955 117.955 263 116.666 263C115.378 263 114.333 261.955 114.333 260.667C114.333 259.378 115.378 258.333 116.666 258.333C117.955 258.333 119 259.378 119 260.667Z" fill="white"/>
<path fill-rule="evenodd" clip-rule="evenodd" d="M142.334 260.667C142.334 261.955 141.289 263 140 263C138.712 263 137.667 261.955 137.667 260.667C137.667 259.378 138.712 258.333 140 258.333C141.289 258.333 142.334 259.378 142.334 260.667Z" fill="white"/>
<path fill-rule="evenodd" clip-rule="evenodd" d="M165.667 260.667C165.667 261.955 164.622 263 163.333 263C162.045 263 161 261.955 161 260.667C161 259.378 162.045 258.333 163.333 258.333C164.622 258.333 165.667 259.378 165.667 260.667Z" fill="white"/>
<path fill-rule="evenodd" clip-rule="evenodd" d="M189 260.667C189 261.955 187.955 263 186.666 263C185.378 263 184.333 261.955 184.333 260.667C184.333 259.378 185.378 258.333 186.666 258.333C187.955 258.333 189 259.378 189 260.667Z" fill="white"/>
</svg>
