<svg width="99" height="99" viewBox="0 0 99 99" fill="none" xmlns="http://www.w3.org/2000/svg">
<path fill-rule="evenodd" clip-rule="evenodd" d="M50.9341 82.9638C74.0506 84.3821 79.7195 69.5722 73.3793 58.6253C67.0392 47.6785 82.459 30.8869 70.6967 21.698C58.9345 12.509 41.7345 39.1342 32.983 29.1365C24.2315 19.1388 -1.98274 42.6943 9.48474 55.7948C20.9522 68.8953 27.8176 81.5455 50.9341 82.9638Z" fill="#E4EAF0"/>
<path d="M39.7695 43.1923H62.2695V46.6538H39.7695V43.1923Z" fill="#3683BC"/>
<path d="M39.7695 74.3462H62.2695V77.8077H39.7695V74.3462Z" fill="#3683BC"/>
<path d="M20.7305 58.7693H43.2305V62.2308H20.7305V58.7693Z" fill="#3683BC"/>
<path d="M25.9231 51.8462C24.5538 51.8462 23.2153 51.4401 22.0768 50.6794C20.9383 49.9187 20.051 48.8375 19.527 47.5724C19.003 46.3074 18.8659 44.9154 19.133 43.5725C19.4002 42.2295 20.0595 40.9959 21.0277 40.0277C21.9959 39.0595 23.2295 38.4002 24.5725 38.133C25.9154 37.8659 27.3074 38.003 28.5724 38.527C29.8375 39.051 30.9187 39.9383 31.6794 41.0768C32.4401 42.2153 32.8462 43.5538 32.8462 44.9231C32.8462 46.7592 32.1168 48.5201 30.8184 49.8184C29.5201 51.1168 27.7592 51.8462 25.9231 51.8462ZM25.9231 41.4615C25.2385 41.4615 24.5692 41.6646 24 42.0449C23.4307 42.4253 22.987 42.9659 22.725 43.5984C22.463 44.2309 22.3945 44.9269 22.5281 45.5984C22.6616 46.2699 22.9913 46.8867 23.4754 47.3708C23.9595 47.8549 24.5763 48.1845 25.2478 48.3181C25.9192 48.4517 26.6152 48.3831 27.2478 48.1211C27.8803 47.8591 28.4209 47.4155 28.8012 46.8462C29.1816 46.277 29.3846 45.6077 29.3846 44.9231C29.3846 44.005 29.0199 43.1246 28.3708 42.4754C27.7216 41.8262 26.8411 41.4615 25.9231 41.4615Z" fill="#3683BC"/>
<path d="M25.9231 83C24.5538 83 23.2153 82.5939 22.0768 81.8332C20.9383 81.0725 20.051 79.9913 19.527 78.7262C19.003 77.4612 18.8659 76.0692 19.133 74.7263C19.4002 73.3833 20.0595 72.1497 21.0277 71.1815C21.9959 70.2133 23.2295 69.554 24.5725 69.2868C25.9154 69.0197 27.3074 69.1568 28.5724 69.6808C29.8375 70.2048 30.9187 71.0921 31.6794 72.2306C32.4401 73.3691 32.8462 74.7076 32.8462 76.0769C32.8462 77.913 32.1168 79.6739 30.8184 80.9722C29.5201 82.2706 27.7592 83 25.9231 83ZM25.9231 72.6154C25.2385 72.6154 24.5692 72.8184 24 73.1987C23.4307 73.5791 22.987 74.1197 22.725 74.7522C22.463 75.3847 22.3945 76.0807 22.5281 76.7522C22.6616 77.4237 22.9913 78.0405 23.4754 78.5246C23.9595 79.0087 24.5763 79.3384 25.2478 79.4719C25.9192 79.6055 26.6152 79.5369 27.2478 79.2749C27.8803 79.0129 28.4209 78.5693 28.8012 78C29.1816 77.4308 29.3846 76.7615 29.3846 76.0769C29.3846 75.1588 29.0199 74.2784 28.3708 73.6292C27.7216 72.98 26.8411 72.6154 25.9231 72.6154Z" fill="#3683BC"/>
<path d="M57.0764 67.4231C55.7071 67.4231 54.3686 67.017 53.2301 66.2563C52.0917 65.4956 51.2043 64.4144 50.6803 63.1493C50.1563 61.8843 50.0192 60.4923 50.2863 59.1494C50.5535 57.8064 51.2128 56.5728 52.181 55.6046C53.1493 54.6364 54.3828 53.9771 55.7258 53.7099C57.0687 53.4428 58.4607 53.5799 59.7257 54.1039C60.9908 54.6279 62.072 55.5152 62.8327 56.6537C63.5934 57.7922 63.9995 59.1307 63.9995 60.5C63.9995 62.3361 63.2701 64.097 61.9718 65.3953C60.6734 66.6937 58.9125 67.4231 57.0764 67.4231ZM57.0764 57.0384C56.3918 57.0384 55.7225 57.2415 55.1533 57.6218C54.584 58.0022 54.1404 58.5428 53.8784 59.1753C53.6164 59.8078 53.5478 60.5038 53.6814 61.1753C53.8149 61.8468 54.1446 62.4636 54.6287 62.9477C55.1128 63.4318 55.7296 63.7614 56.4011 63.895C57.0726 64.0286 57.7686 63.96 58.4011 63.698C59.0336 63.436 59.5742 62.9924 59.9546 62.4231C60.3349 61.8539 60.5379 61.1846 60.5379 60.5C60.5379 59.5819 60.1732 58.7015 59.5241 58.0523C58.8749 57.4031 57.9945 57.0384 57.0764 57.0384Z" fill="#3683BC"/>
</svg>
