<svg width="208" height="403" viewBox="0 0 208 403" fill="none" xmlns="http://www.w3.org/2000/svg">
<path fill-rule="evenodd" clip-rule="evenodd" d="M9.29815 2.79868C10.8437 4.34421 10.8437 6.85036 9.29815 8.39589C7.75262 9.94142 5.24647 9.94142 3.70094 8.39589C2.15542 6.85036 2.15542 4.34421 3.70095 2.79869C5.24648 1.25316 7.75263 1.25316 9.29815 2.79868Z" fill="#C3C3C3"/>
<path fill-rule="evenodd" clip-rule="evenodd" d="M9.29817 58.7706C10.8437 60.3161 10.8437 62.8223 9.29816 64.3678C7.75262 65.9133 5.24647 65.9133 3.70094 64.3678C2.15542 62.8223 2.15542 60.3161 3.70096 58.7706C5.24649 57.2251 7.75264 57.2251 9.29817 58.7706Z" fill="#C3C3C3"/>
<path fill-rule="evenodd" clip-rule="evenodd" d="M37.2835 30.7846C38.829 32.3302 38.829 34.8363 37.2835 36.3818C35.738 37.9274 33.2318 37.9274 31.6863 36.3819C30.1408 34.8363 30.1408 32.3302 31.6863 30.7846C33.2318 29.2391 35.738 29.2391 37.2835 30.7846Z" fill="#C3C3C3"/>
<path fill-rule="evenodd" clip-rule="evenodd" d="M9.29815 114.743C10.8437 116.288 10.8437 118.794 9.29815 120.34C7.75262 121.885 5.24647 121.885 3.70094 120.34C2.15542 118.794 2.15542 116.288 3.70095 114.743C5.24648 113.197 7.75263 113.197 9.29815 114.743Z" fill="#C3C3C3"/>
<path fill-rule="evenodd" clip-rule="evenodd" d="M37.2835 86.7565C38.829 88.3021 38.829 90.8082 37.2835 92.3538C35.738 93.8993 33.2318 93.8993 31.6863 92.3538C30.1408 90.8082 30.1408 88.3021 31.6863 86.7566C33.2318 85.211 35.738 85.211 37.2835 86.7565Z" fill="#C3C3C3"/>
<path fill-rule="evenodd" clip-rule="evenodd" d="M65.2698 58.7706C66.8154 60.3161 66.8154 62.8223 65.2698 64.3678C63.7243 65.9133 61.2181 65.9133 59.6726 64.3678C58.1271 62.8223 58.1271 60.3161 59.6726 58.7706C61.2182 57.2251 63.7243 57.2251 65.2698 58.7706Z" fill="#C3C3C3"/>
<path fill-rule="evenodd" clip-rule="evenodd" d="M9.29816 170.715C10.8437 172.26 10.8437 174.766 9.29816 176.312C7.75263 177.857 5.24648 177.857 3.70095 176.312C2.15542 174.766 2.15542 172.26 3.70095 170.715C5.24648 169.169 7.75263 169.169 9.29816 170.715Z" fill="#C3C3C3"/>
<path fill-rule="evenodd" clip-rule="evenodd" d="M37.2835 142.729C38.829 144.274 38.829 146.78 37.2835 148.326C35.738 149.871 33.2318 149.871 31.6863 148.326C30.1408 146.78 30.1408 144.274 31.6863 142.729C33.2318 141.183 35.738 141.183 37.2835 142.729Z" fill="#C3C3C3"/>
<path fill-rule="evenodd" clip-rule="evenodd" d="M65.2699 114.743C66.8154 116.288 66.8154 118.794 65.2698 120.34C63.7243 121.885 61.2182 121.885 59.6726 120.34C58.1271 118.794 58.1271 116.288 59.6726 114.743C61.2182 113.197 63.7243 113.197 65.2699 114.743Z" fill="#C3C3C3"/>
<path fill-rule="evenodd" clip-rule="evenodd" d="M93.2562 86.7568C94.8017 88.3023 94.8017 90.8085 93.2562 92.354C91.7106 93.8996 89.2045 93.8996 87.659 92.354C86.1134 90.8085 86.1134 88.3023 87.659 86.7568C89.2045 85.2113 91.7106 85.2113 93.2562 86.7568Z" fill="#C3C3C3"/>
<path fill-rule="evenodd" clip-rule="evenodd" d="M9.29816 226.687C10.8437 228.232 10.8437 230.738 9.29816 232.284C7.75263 233.829 5.24648 233.829 3.70095 232.284C2.15542 230.738 2.15542 228.232 3.70095 226.687C5.24648 225.141 7.75263 225.141 9.29816 226.687Z" fill="#C3C3C3"/>
<path fill-rule="evenodd" clip-rule="evenodd" d="M37.2845 198.701C38.83 200.246 38.83 202.752 37.2845 204.298C35.739 205.843 33.2328 205.843 31.6873 204.298C30.1417 202.752 30.1417 200.246 31.6873 198.701C33.2328 197.155 35.739 197.155 37.2845 198.701Z" fill="#C3C3C3"/>
<path fill-rule="evenodd" clip-rule="evenodd" d="M65.2698 170.715C66.8154 172.26 66.8154 174.767 65.2698 176.312C63.7243 177.858 61.2182 177.858 59.6726 176.312C58.1271 174.767 58.1271 172.26 59.6726 170.715C61.2182 169.169 63.7243 169.169 65.2698 170.715Z" fill="#C3C3C3"/>
<path fill-rule="evenodd" clip-rule="evenodd" d="M93.2562 142.729C94.8017 144.274 94.8017 146.78 93.2562 148.326C91.7106 149.871 89.2045 149.871 87.659 148.326C86.1134 146.78 86.1134 144.274 87.659 142.729C89.2045 141.183 91.7107 141.183 93.2562 142.729Z" fill="#C3C3C3"/>
<path fill-rule="evenodd" clip-rule="evenodd" d="M121.242 114.743C122.787 116.288 122.787 118.794 121.242 120.34C119.696 121.886 117.19 121.886 115.644 120.34C114.099 118.794 114.099 116.288 115.644 114.743C117.19 113.197 119.696 113.197 121.242 114.743Z" fill="#C3C3C3"/>
<path fill-rule="evenodd" clip-rule="evenodd" d="M9.29815 282.659C10.8437 284.204 10.8437 286.71 9.29814 288.256C7.75262 289.801 5.24647 289.801 3.70094 288.256C2.15542 286.71 2.15542 284.204 3.70095 282.659C5.24647 281.113 7.75262 281.113 9.29815 282.659Z" fill="#C3C3C3"/>
<path fill-rule="evenodd" clip-rule="evenodd" d="M37.2835 254.673C38.829 256.218 38.829 258.724 37.2835 260.27C35.738 261.815 33.2318 261.815 31.6863 260.27C30.1408 258.724 30.1408 256.218 31.6863 254.673C33.2318 253.127 35.738 253.127 37.2835 254.673Z" fill="#C3C3C3"/>
<path fill-rule="evenodd" clip-rule="evenodd" d="M65.2698 226.686C66.8154 228.232 66.8154 230.738 65.2698 232.284C63.7243 233.829 61.2181 233.829 59.6726 232.284C58.1271 230.738 58.1271 228.232 59.6726 226.687C61.2182 225.141 63.7243 225.141 65.2698 226.686Z" fill="#C3C3C3"/>
<path fill-rule="evenodd" clip-rule="evenodd" d="M93.2562 198.701C94.8017 200.246 94.8017 202.752 93.2562 204.298C91.7106 205.843 89.2045 205.843 87.659 204.298C86.1134 202.752 86.1134 200.246 87.659 198.701C89.2045 197.155 91.7106 197.155 93.2562 198.701Z" fill="#C3C3C3"/>
<path fill-rule="evenodd" clip-rule="evenodd" d="M121.242 170.715C122.787 172.26 122.787 174.766 121.242 176.312C119.696 177.857 117.19 177.857 115.644 176.312C114.099 174.766 114.099 172.26 115.644 170.715C117.19 169.169 119.696 169.169 121.242 170.715Z" fill="#C3C3C3"/>
<path fill-rule="evenodd" clip-rule="evenodd" d="M149.228 142.729C150.773 144.274 150.773 146.78 149.228 148.326C147.682 149.871 145.176 149.871 143.631 148.326C142.085 146.78 142.085 144.274 143.631 142.729C145.176 141.183 147.682 141.183 149.228 142.729Z" fill="#C3C3C3"/>
<path fill-rule="evenodd" clip-rule="evenodd" d="M9.29815 338.631C10.8437 340.176 10.8437 342.683 9.29815 344.228C7.75263 345.774 5.24648 345.774 3.70095 344.228C2.15542 342.683 2.15542 340.176 3.70094 338.631C5.24647 337.085 7.75262 337.085 9.29815 338.631Z" fill="#C3C3C3"/>
<path fill-rule="evenodd" clip-rule="evenodd" d="M37.2835 310.645C38.829 312.19 38.829 314.696 37.2835 316.242C35.738 317.787 33.2318 317.787 31.6863 316.242C30.1408 314.696 30.1408 312.19 31.6863 310.645C33.2318 309.099 35.738 309.099 37.2835 310.645Z" fill="#C3C3C3"/>
<path fill-rule="evenodd" clip-rule="evenodd" d="M65.2698 282.659C66.8154 284.204 66.8154 286.71 65.2698 288.256C63.7243 289.801 61.2182 289.801 59.6726 288.256C58.1271 286.71 58.1271 284.204 59.6726 282.659C61.2182 281.113 63.7243 281.113 65.2698 282.659Z" fill="#C3C3C3"/>
<path fill-rule="evenodd" clip-rule="evenodd" d="M93.2562 254.673C94.8017 256.218 94.8017 258.724 93.2562 260.27C91.7106 261.815 89.2045 261.815 87.659 260.27C86.1134 258.724 86.1134 256.218 87.659 254.673C89.2045 253.127 91.7106 253.127 93.2562 254.673Z" fill="#C3C3C3"/>
<path fill-rule="evenodd" clip-rule="evenodd" d="M121.242 226.687C122.787 228.232 122.787 230.738 121.242 232.284C119.696 233.829 117.19 233.829 115.644 232.284C114.099 230.738 114.099 228.232 115.644 226.687C117.19 225.141 119.696 225.141 121.242 226.687Z" fill="#C3C3C3"/>
<path fill-rule="evenodd" clip-rule="evenodd" d="M149.228 198.701C150.773 200.246 150.773 202.752 149.228 204.298C147.682 205.843 145.176 205.843 143.631 204.298C142.085 202.752 142.085 200.246 143.631 198.701C145.176 197.155 147.682 197.155 149.228 198.701Z" fill="#C3C3C3"/>
<path fill-rule="evenodd" clip-rule="evenodd" d="M177.214 170.715C178.76 172.26 178.76 174.766 177.214 176.312C175.669 177.857 173.162 177.857 171.617 176.312C170.071 174.766 170.071 172.26 171.617 170.715C173.162 169.169 175.669 169.169 177.214 170.715Z" fill="#C3C3C3"/>
<path fill-rule="evenodd" clip-rule="evenodd" d="M9.29815 394.603C10.8437 396.148 10.8437 398.655 9.29815 400.2C7.75263 401.746 5.24648 401.746 3.70095 400.2C2.15542 398.655 2.15542 396.148 3.70094 394.603C5.24647 393.057 7.75262 393.057 9.29815 394.603Z" fill="#C3C3C3"/>
<path fill-rule="evenodd" clip-rule="evenodd" d="M37.2835 366.617C38.829 368.162 38.829 370.669 37.2835 372.214C35.738 373.76 33.2318 373.76 31.6863 372.214C30.1408 370.669 30.1408 368.162 31.6863 366.617C33.2318 365.071 35.738 365.071 37.2835 366.617Z" fill="#C3C3C3"/>
<path fill-rule="evenodd" clip-rule="evenodd" d="M65.2698 338.631C66.8154 340.176 66.8154 342.683 65.2698 344.228C63.7243 345.774 61.2182 345.774 59.6726 344.228C58.1271 342.683 58.1271 340.176 59.6726 338.631C61.2182 337.085 63.7243 337.085 65.2698 338.631Z" fill="#C3C3C3"/>
<path fill-rule="evenodd" clip-rule="evenodd" d="M93.2562 310.645C94.8017 312.19 94.8017 314.696 93.2562 316.242C91.7106 317.787 89.2045 317.787 87.659 316.242C86.1134 314.696 86.1134 312.19 87.659 310.645C89.2045 309.099 91.7106 309.099 93.2562 310.645Z" fill="#C3C3C3"/>
<path fill-rule="evenodd" clip-rule="evenodd" d="M121.242 282.659C122.788 284.204 122.788 286.71 121.242 288.256C119.697 289.801 117.191 289.801 115.645 288.256C114.1 286.71 114.1 284.204 115.645 282.659C117.191 281.113 119.697 281.113 121.242 282.659Z" fill="#C3C3C3"/>
<path fill-rule="evenodd" clip-rule="evenodd" d="M149.228 254.673C150.773 256.218 150.773 258.724 149.228 260.27C147.682 261.815 145.176 261.815 143.631 260.27C142.085 258.724 142.085 256.218 143.631 254.673C145.176 253.127 147.682 253.127 149.228 254.673Z" fill="#C3C3C3"/>
<path fill-rule="evenodd" clip-rule="evenodd" d="M177.214 226.687C178.76 228.232 178.76 230.738 177.214 232.284C175.669 233.829 173.162 233.829 171.617 232.284C170.071 230.738 170.071 228.232 171.617 226.687C173.163 225.141 175.669 225.141 177.214 226.687Z" fill="#C3C3C3"/>
<path fill-rule="evenodd" clip-rule="evenodd" d="M205.2 198.701C206.745 200.246 206.745 202.752 205.2 204.298C203.654 205.844 201.148 205.844 199.602 204.298C198.057 202.752 198.057 200.246 199.602 198.701C201.148 197.155 203.654 197.155 205.2 198.701Z" fill="#C3C3C3"/>
</svg>
