<svg width="125" height="280" viewBox="0 0 125 280" fill="none" xmlns="http://www.w3.org/2000/svg">
<path fill-rule="evenodd" clip-rule="evenodd" d="M6.46157 60.1701C7.53347 61.242 7.53347 62.9801 6.46157 64.052C5.38967 65.1239 3.65154 65.1239 2.57964 64.052C1.50774 62.9801 1.50774 61.242 2.57964 60.1701C3.65154 59.0982 5.38968 59.0982 6.46157 60.1701Z" fill="#3683BC"/>
<path fill-rule="evenodd" clip-rule="evenodd" d="M25.8717 40.7601C26.9436 41.832 26.9436 43.5702 25.8717 44.6421C24.7998 45.714 23.0617 45.714 21.9898 44.6421C20.9179 43.5702 20.9179 41.832 21.9898 40.7601C23.0617 39.6882 24.7998 39.6882 25.8717 40.7601Z" fill="#3683BC"/>
<path fill-rule="evenodd" clip-rule="evenodd" d="M45.2809 21.3506C46.3528 22.4225 46.3528 24.1606 45.2809 25.2326C44.209 26.3045 42.4709 26.3045 41.399 25.2326C40.3271 24.1607 40.3271 22.4225 41.399 21.3506C42.4709 20.2787 44.209 20.2787 45.2809 21.3506Z" fill="#3683BC"/>
<path fill-rule="evenodd" clip-rule="evenodd" d="M64.6901 1.94108C65.762 3.01298 65.762 4.75111 64.6901 5.82301C63.6182 6.89491 61.8801 6.89491 60.8082 5.82302C59.7363 4.75112 59.7363 3.01298 60.8082 1.94108C61.8801 0.869182 63.6182 0.869181 64.6901 1.94108Z" fill="#3683BC"/>
<path fill-rule="evenodd" clip-rule="evenodd" d="M25.8717 79.5796C26.9436 80.6515 26.9436 82.3896 25.8717 83.4615C24.7998 84.5334 23.0617 84.5334 21.9898 83.4615C20.9179 82.3896 20.9179 80.6515 21.9898 79.5796C23.0617 78.5077 24.7998 78.5077 25.8717 79.5796Z" fill="#3683BC"/>
<path fill-rule="evenodd" clip-rule="evenodd" d="M45.2809 60.1701C46.3528 61.242 46.3528 62.9801 45.2809 64.052C44.209 65.1239 42.4709 65.1239 41.399 64.052C40.3271 62.9801 40.3271 61.242 41.399 60.1701C42.4709 59.0982 44.209 59.0982 45.2809 60.1701Z" fill="#3683BC"/>
<path fill-rule="evenodd" clip-rule="evenodd" d="M64.6911 40.7601C65.763 41.832 65.763 43.5702 64.6911 44.6421C63.6192 45.714 61.881 45.714 60.8091 44.6421C59.7372 43.5702 59.7372 41.832 60.8091 40.7601C61.881 39.6882 63.6192 39.6882 64.6911 40.7601Z" fill="#3683BC"/>
<path fill-rule="evenodd" clip-rule="evenodd" d="M84.1002 21.3506C85.1721 22.4225 85.1721 24.1607 84.1002 25.2326C83.0283 26.3045 81.2902 26.3045 80.2183 25.2326C79.1464 24.1607 79.1464 22.4225 80.2183 21.3506C81.2902 20.2787 83.0283 20.2787 84.1002 21.3506Z" fill="#3683BC"/>
<path fill-rule="evenodd" clip-rule="evenodd" d="M6.46157 137.809C7.53347 138.88 7.53347 140.619 6.46157 141.69C5.38967 142.762 3.65153 142.762 2.57964 141.69C1.50774 140.619 1.50774 138.88 2.57964 137.809C3.65154 136.737 5.38967 136.737 6.46157 137.809Z" fill="#3683BC"/>
<path fill-rule="evenodd" clip-rule="evenodd" d="M25.8717 118.399C26.9436 119.471 26.9436 121.209 25.8717 122.281C24.7998 123.353 23.0617 123.353 21.9898 122.281C20.9179 121.209 20.9179 119.471 21.9898 118.399C23.0617 117.327 24.7998 117.327 25.8717 118.399Z" fill="#3683BC"/>
<path fill-rule="evenodd" clip-rule="evenodd" d="M45.2809 98.9891C46.3528 100.061 46.3528 101.799 45.2809 102.871C44.209 103.943 42.4709 103.943 41.399 102.871C40.3271 101.799 40.3271 100.061 41.399 98.9891C42.4709 97.9172 44.209 97.9172 45.2809 98.9891Z" fill="#3683BC"/>
<path fill-rule="evenodd" clip-rule="evenodd" d="M64.6901 79.5796C65.762 80.6515 65.762 82.3896 64.6901 83.4615C63.6182 84.5334 61.8801 84.5334 60.8082 83.4615C59.7363 82.3896 59.7363 80.6515 60.8082 79.5796C61.8801 78.5077 63.6182 78.5077 64.6901 79.5796Z" fill="#3683BC"/>
<path fill-rule="evenodd" clip-rule="evenodd" d="M84.1003 60.17C85.1722 61.2419 85.1722 62.9801 84.1002 64.052C83.0283 65.1239 81.2902 65.1239 80.2183 64.052C79.1464 62.9801 79.1464 61.242 80.2183 60.17C81.2902 59.0981 83.0284 59.0981 84.1003 60.17Z" fill="#3683BC"/>
<path fill-rule="evenodd" clip-rule="evenodd" d="M103.509 40.7601C104.581 41.832 104.581 43.5702 103.509 44.6421C102.438 45.714 100.699 45.714 99.6275 44.6421C98.5556 43.5702 98.5556 41.832 99.6275 40.7601C100.699 39.6882 102.438 39.6882 103.509 40.7601Z" fill="#3683BC"/>
<path fill-rule="evenodd" clip-rule="evenodd" d="M25.8717 157.218C26.9436 158.29 26.9436 160.028 25.8717 161.1C24.7998 162.172 23.0617 162.172 21.9898 161.1C20.9179 160.028 20.9179 158.29 21.9898 157.218C23.0617 156.146 24.7998 156.146 25.8717 157.218Z" fill="#3683BC"/>
<path fill-rule="evenodd" clip-rule="evenodd" d="M45.2809 137.809C46.3528 138.88 46.3528 140.619 45.2809 141.69C44.209 142.762 42.4709 142.762 41.399 141.69C40.3271 140.619 40.3271 138.88 41.399 137.809C42.4709 136.737 44.209 136.737 45.2809 137.809Z" fill="#3683BC"/>
<path fill-rule="evenodd" clip-rule="evenodd" d="M64.6911 118.399C65.763 119.471 65.763 121.209 64.6911 122.281C63.6192 123.353 61.881 123.353 60.8091 122.281C59.7372 121.209 59.7372 119.471 60.8091 118.399C61.881 117.327 63.6192 117.327 64.6911 118.399Z" fill="#3683BC"/>
<path fill-rule="evenodd" clip-rule="evenodd" d="M84.1002 98.9891C85.1721 100.061 85.1721 101.799 84.1002 102.871C83.0283 103.943 81.2902 103.943 80.2183 102.871C79.1464 101.799 79.1464 100.061 80.2183 98.9891C81.2902 97.9172 83.0283 97.9172 84.1002 98.9891Z" fill="#3683BC"/>
<path fill-rule="evenodd" clip-rule="evenodd" d="M103.51 79.5796C104.582 80.6515 104.582 82.3896 103.51 83.4615C102.439 84.5334 100.7 84.5334 99.6285 83.4615C98.5566 82.3896 98.5566 80.6515 99.6285 79.5796C100.7 78.5077 102.439 78.5077 103.51 79.5796Z" fill="#3683BC"/>
<path fill-rule="evenodd" clip-rule="evenodd" d="M122.92 60.1701C123.991 61.242 123.991 62.9801 122.92 64.052C121.848 65.1239 120.11 65.1239 119.038 64.052C117.966 62.9801 117.966 61.242 119.038 60.1701C120.11 59.0982 121.848 59.0982 122.92 60.1701Z" fill="#3683BC"/>
<path fill-rule="evenodd" clip-rule="evenodd" d="M6.46157 215.447C7.53347 216.519 7.53347 218.257 6.46157 219.329C5.38968 220.401 3.65154 220.401 2.57964 219.329C1.50774 218.257 1.50774 216.519 2.57964 215.447C3.65154 214.375 5.38967 214.375 6.46157 215.447Z" fill="#3683BC"/>
<path fill-rule="evenodd" clip-rule="evenodd" d="M25.8717 196.037C26.9436 197.109 26.9436 198.848 25.8717 199.919C24.7998 200.991 23.0617 200.991 21.9898 199.919C20.9179 198.848 20.9179 197.109 21.9898 196.037C23.0617 194.966 24.7998 194.966 25.8717 196.037Z" fill="#3683BC"/>
<path fill-rule="evenodd" clip-rule="evenodd" d="M45.2809 176.628C46.3528 177.7 46.3528 179.438 45.2809 180.51C44.209 181.582 42.4709 181.582 41.399 180.51C40.3271 179.438 40.3271 177.7 41.399 176.628C42.4709 175.556 44.209 175.556 45.2809 176.628Z" fill="#3683BC"/>
<path fill-rule="evenodd" clip-rule="evenodd" d="M64.6911 157.218C65.763 158.29 65.763 160.028 64.6911 161.1C63.6192 162.172 61.881 162.172 60.8091 161.1C59.7372 160.028 59.7372 158.29 60.8091 157.218C61.881 156.146 63.6192 156.146 64.6911 157.218Z" fill="#3683BC"/>
<path fill-rule="evenodd" clip-rule="evenodd" d="M84.1002 137.809C85.1721 138.88 85.1721 140.619 84.1002 141.69C83.0283 142.762 81.2902 142.762 80.2183 141.69C79.1464 140.619 79.1464 138.88 80.2183 137.809C81.2902 136.737 83.0283 136.737 84.1002 137.809Z" fill="#3683BC"/>
<path fill-rule="evenodd" clip-rule="evenodd" d="M103.51 118.399C104.582 119.471 104.582 121.209 103.51 122.281C102.439 123.353 100.7 123.353 99.6285 122.281C98.5566 121.209 98.5566 119.471 99.6285 118.399C100.7 117.327 102.439 117.327 103.51 118.399Z" fill="#3683BC"/>
<path fill-rule="evenodd" clip-rule="evenodd" d="M25.8717 234.857C26.9436 235.929 26.9436 237.667 25.8717 238.739C24.7998 239.811 23.0617 239.811 21.9898 238.739C20.9179 237.667 20.9179 235.929 21.9898 234.857C23.0617 233.785 24.7998 233.785 25.8717 234.857Z" fill="#3683BC"/>
<path fill-rule="evenodd" clip-rule="evenodd" d="M45.2809 215.447C46.3528 216.519 46.3528 218.257 45.2809 219.329C44.209 220.401 42.4709 220.401 41.399 219.329C40.3271 218.257 40.3271 216.519 41.399 215.447C42.4709 214.375 44.209 214.375 45.2809 215.447Z" fill="#3683BC"/>
<path fill-rule="evenodd" clip-rule="evenodd" d="M64.6901 196.037C65.762 197.109 65.762 198.848 64.6901 199.919C63.6182 200.991 61.8801 200.991 60.8082 199.919C59.7363 198.848 59.7363 197.109 60.8082 196.037C61.8801 194.966 63.6182 194.966 64.6901 196.037Z" fill="#3683BC"/>
<path fill-rule="evenodd" clip-rule="evenodd" d="M84.1002 176.628C85.1721 177.7 85.1721 179.438 84.1002 180.51C83.0283 181.582 81.2902 181.582 80.2183 180.51C79.1464 179.438 79.1464 177.7 80.2183 176.628C81.2902 175.556 83.0283 175.556 84.1002 176.628Z" fill="#3683BC"/>
<path fill-rule="evenodd" clip-rule="evenodd" d="M103.51 157.218C104.582 158.29 104.582 160.028 103.51 161.1C102.438 162.172 100.7 162.172 99.6285 161.1C98.5566 160.028 98.5566 158.29 99.6285 157.218C100.7 156.146 102.439 156.146 103.51 157.218Z" fill="#3683BC"/>
<path fill-rule="evenodd" clip-rule="evenodd" d="M122.92 137.809C123.991 138.88 123.991 140.619 122.92 141.69C121.848 142.762 120.11 142.762 119.038 141.69C117.966 140.619 117.966 138.88 119.038 137.809C120.11 136.737 121.848 136.737 122.92 137.809Z" fill="#3683BC"/>
<path fill-rule="evenodd" clip-rule="evenodd" d="M45.2809 254.266C46.3528 255.338 46.3528 257.077 45.2809 258.148C44.209 259.22 42.4709 259.22 41.399 258.148C40.3271 257.077 40.3271 255.338 41.399 254.266C42.4709 253.195 44.209 253.195 45.2809 254.266Z" fill="#3683BC"/>
<path fill-rule="evenodd" clip-rule="evenodd" d="M64.6901 234.857C65.762 235.929 65.762 237.667 64.6901 238.739C63.6182 239.811 61.8801 239.811 60.8082 238.739C59.7363 237.667 59.7363 235.929 60.8082 234.857C61.8801 233.785 63.6182 233.785 64.6901 234.857Z" fill="#3683BC"/>
<path fill-rule="evenodd" clip-rule="evenodd" d="M84.1002 215.447C85.1721 216.519 85.1721 218.257 84.1002 219.329C83.0283 220.401 81.2902 220.401 80.2183 219.329C79.1464 218.257 79.1464 216.519 80.2183 215.447C81.2902 214.375 83.0283 214.375 84.1002 215.447Z" fill="#3683BC"/>
<path fill-rule="evenodd" clip-rule="evenodd" d="M103.51 196.037C104.582 197.109 104.582 198.848 103.51 199.919C102.439 200.991 100.7 200.991 99.6285 199.919C98.5566 198.848 98.5566 197.109 99.6285 196.037C100.7 194.966 102.439 194.966 103.51 196.037Z" fill="#3683BC"/>
<path fill-rule="evenodd" clip-rule="evenodd" d="M64.6911 273.676C65.763 274.748 65.763 276.486 64.6911 277.558C63.6192 278.63 61.881 278.63 60.8091 277.558C59.7372 276.486 59.7372 274.748 60.8091 273.676C61.881 272.604 63.6192 272.604 64.6911 273.676Z" fill="#3683BC"/>
<path fill-rule="evenodd" clip-rule="evenodd" d="M84.1002 254.267C85.1721 255.339 85.1721 257.077 84.1002 258.149C83.0283 259.221 81.2902 259.221 80.2183 258.149C79.1464 257.077 79.1464 255.339 80.2183 254.267C81.2902 253.195 83.0283 253.195 84.1002 254.267Z" fill="#3683BC"/>
<path fill-rule="evenodd" clip-rule="evenodd" d="M103.51 234.857C104.582 235.929 104.582 237.667 103.51 238.739C102.439 239.811 100.7 239.811 99.6285 238.739C98.5566 237.667 98.5566 235.929 99.6285 234.857C100.7 233.785 102.439 233.785 103.51 234.857Z" fill="#3683BC"/>
<path fill-rule="evenodd" clip-rule="evenodd" d="M122.92 215.447C123.991 216.519 123.991 218.257 122.92 219.329C121.848 220.401 120.11 220.401 119.038 219.329C117.966 218.257 117.966 216.519 119.038 215.447C120.11 214.375 121.848 214.375 122.92 215.447Z" fill="#3683BC"/>
</svg>
