<svg width="167" height="285" viewBox="0 0 167 285" fill="none" xmlns="http://www.w3.org/2000/svg">
<path fill-rule="evenodd" clip-rule="evenodd" d="M3.9754 277.065C6.1611 277.065 7.93322 278.837 7.93322 281.023C7.93322 283.209 6.1611 284.981 3.9754 284.981C1.78969 284.981 0.017578 283.209 0.017578 281.023C0.0175779 278.837 1.78969 277.065 3.9754 277.065Z" fill="#C3C3C3"/>
<path fill-rule="evenodd" clip-rule="evenodd" d="M3.9754 237.487C6.1611 237.487 7.93322 239.259 7.93322 241.445C7.93322 243.631 6.1611 245.403 3.9754 245.403C1.78969 245.403 0.017578 243.631 0.017578 241.445C0.0175779 239.259 1.78969 237.487 3.9754 237.487Z" fill="#C3C3C3"/>
<path fill-rule="evenodd" clip-rule="evenodd" d="M3.9754 197.909C6.1611 197.909 7.93322 199.681 7.93322 201.867C7.93322 204.053 6.1611 205.825 3.9754 205.825C1.78969 205.825 0.017578 204.053 0.017578 201.867C0.0175779 199.681 1.78969 197.909 3.9754 197.909Z" fill="#C3C3C3"/>
<path fill-rule="evenodd" clip-rule="evenodd" d="M3.9754 158.331C6.1611 158.331 7.93322 160.103 7.93322 162.289C7.93322 164.474 6.1611 166.246 3.9754 166.246C1.78969 166.246 0.017578 164.474 0.017578 162.289C0.0175779 160.103 1.78969 158.331 3.9754 158.331Z" fill="#C3C3C3"/>
<path fill-rule="evenodd" clip-rule="evenodd" d="M3.9754 118.753C6.1611 118.753 7.93322 120.525 7.93322 122.71C7.93322 124.896 6.1611 126.668 3.9754 126.668C1.78969 126.668 0.017578 124.896 0.017578 122.71C0.0175779 120.525 1.78969 118.753 3.9754 118.753Z" fill="#C3C3C3"/>
<path fill-rule="evenodd" clip-rule="evenodd" d="M3.9754 79.1742C6.1611 79.1742 7.93322 80.9463 7.93322 83.132C7.93322 85.3177 6.1611 87.0898 3.9754 87.0898C1.78969 87.0898 0.017578 85.3177 0.017578 83.132C0.0175779 80.9463 1.78969 79.1742 3.9754 79.1742Z" fill="#C3C3C3"/>
<path fill-rule="evenodd" clip-rule="evenodd" d="M3.9754 39.596C6.1611 39.596 7.93322 41.3682 7.93322 43.5539C7.93322 45.7396 6.1611 47.5117 3.9754 47.5117C1.78969 47.5117 0.017578 45.7396 0.017578 43.5539C0.0175779 41.3682 1.78969 39.596 3.9754 39.596Z" fill="#C3C3C3"/>
<path fill-rule="evenodd" clip-rule="evenodd" d="M3.9754 0.0179451C6.1611 0.017945 7.93322 1.79006 7.93322 3.97577C7.93322 6.16148 6.1611 7.93359 3.9754 7.93359C1.78969 7.93359 0.017578 6.16148 0.017578 3.97577C0.0175779 1.79006 1.78969 0.0179452 3.9754 0.0179451Z" fill="#C3C3C3"/>
<path fill-rule="evenodd" clip-rule="evenodd" d="M43.5535 277.065C45.7392 277.065 47.5113 278.837 47.5113 281.023C47.5113 283.209 45.7392 284.981 43.5535 284.981C41.3678 284.981 39.5957 283.209 39.5957 281.023C39.5957 278.837 41.3678 277.065 43.5535 277.065Z" fill="#C3C3C3"/>
<path fill-rule="evenodd" clip-rule="evenodd" d="M43.5535 237.487C45.7392 237.487 47.5113 239.259 47.5113 241.445C47.5113 243.631 45.7392 245.403 43.5535 245.403C41.3678 245.403 39.5957 243.631 39.5957 241.445C39.5957 239.259 41.3678 237.487 43.5535 237.487Z" fill="#C3C3C3"/>
<path fill-rule="evenodd" clip-rule="evenodd" d="M43.5535 197.909C45.7392 197.909 47.5113 199.681 47.5113 201.867C47.5113 204.053 45.7392 205.825 43.5535 205.825C41.3678 205.825 39.5957 204.053 39.5957 201.867C39.5957 199.681 41.3678 197.909 43.5535 197.909Z" fill="#C3C3C3"/>
<path fill-rule="evenodd" clip-rule="evenodd" d="M43.5535 158.331C45.7392 158.331 47.5113 160.103 47.5113 162.289C47.5113 164.474 45.7392 166.246 43.5535 166.246C41.3678 166.246 39.5957 164.474 39.5957 162.289C39.5957 160.103 41.3678 158.331 43.5535 158.331Z" fill="#C3C3C3"/>
<path fill-rule="evenodd" clip-rule="evenodd" d="M43.5535 118.752C45.7392 118.752 47.5113 120.524 47.5113 122.71C47.5113 124.896 45.7392 126.668 43.5535 126.668C41.3678 126.668 39.5957 124.896 39.5957 122.71C39.5957 120.524 41.3678 118.752 43.5535 118.752Z" fill="#C3C3C3"/>
<path fill-rule="evenodd" clip-rule="evenodd" d="M43.5535 79.1744C45.7392 79.1744 47.5113 80.9466 47.5113 83.1323C47.5113 85.318 45.7392 87.0901 43.5535 87.0901C41.3678 87.0901 39.5957 85.318 39.5957 83.1323C39.5957 80.9466 41.3678 79.1744 43.5535 79.1744Z" fill="#C3C3C3"/>
<path fill-rule="evenodd" clip-rule="evenodd" d="M43.5535 39.596C45.7392 39.596 47.5113 41.3682 47.5113 43.5539C47.5113 45.7396 45.7392 47.5117 43.5535 47.5117C41.3678 47.5117 39.5957 45.7396 39.5957 43.5539C39.5957 41.3682 41.3678 39.596 43.5535 39.596Z" fill="#C3C3C3"/>
<path fill-rule="evenodd" clip-rule="evenodd" d="M43.5535 0.0179451C45.7392 0.017945 47.5113 1.79006 47.5113 3.97577C47.5113 6.16148 45.7392 7.93359 43.5535 7.93359C41.3678 7.93359 39.5957 6.16148 39.5957 3.97577C39.5957 1.79006 41.3678 0.0179452 43.5535 0.0179451Z" fill="#C3C3C3"/>
<path fill-rule="evenodd" clip-rule="evenodd" d="M83.1316 277.065C85.3174 277.065 87.0895 278.837 87.0895 281.023C87.0895 283.209 85.3174 284.981 83.1316 284.981C80.9459 284.981 79.1738 283.209 79.1738 281.023C79.1738 278.837 80.9459 277.065 83.1316 277.065Z" fill="#C3C3C3"/>
<path fill-rule="evenodd" clip-rule="evenodd" d="M83.1316 237.487C85.3174 237.487 87.0895 239.259 87.0895 241.445C87.0895 243.631 85.3174 245.403 83.1316 245.403C80.9459 245.403 79.1738 243.631 79.1738 241.445C79.1738 239.259 80.9459 237.487 83.1316 237.487Z" fill="#C3C3C3"/>
<path fill-rule="evenodd" clip-rule="evenodd" d="M83.1316 197.909C85.3174 197.909 87.0895 199.681 87.0895 201.867C87.0895 204.053 85.3174 205.825 83.1316 205.825C80.9459 205.825 79.1738 204.053 79.1738 201.867C79.1738 199.681 80.9459 197.909 83.1316 197.909Z" fill="#C3C3C3"/>
<path fill-rule="evenodd" clip-rule="evenodd" d="M83.1316 158.331C85.3174 158.331 87.0895 160.103 87.0895 162.289C87.0895 164.474 85.3174 166.246 83.1316 166.246C80.9459 166.246 79.1738 164.474 79.1738 162.289C79.1738 160.103 80.9459 158.331 83.1316 158.331Z" fill="#C3C3C3"/>
<path fill-rule="evenodd" clip-rule="evenodd" d="M83.1316 118.752C85.3174 118.752 87.0895 120.524 87.0895 122.71C87.0895 124.896 85.3174 126.668 83.1316 126.668C80.9459 126.668 79.1738 124.896 79.1738 122.71C79.1738 120.524 80.9459 118.752 83.1316 118.752Z" fill="#C3C3C3"/>
<path fill-rule="evenodd" clip-rule="evenodd" d="M83.1316 79.1744C85.3174 79.1744 87.0895 80.9466 87.0895 83.1323C87.0895 85.318 85.3174 87.0901 83.1316 87.0901C80.9459 87.0901 79.1738 85.318 79.1738 83.1323C79.1738 80.9466 80.9459 79.1744 83.1316 79.1744Z" fill="#C3C3C3"/>
<path fill-rule="evenodd" clip-rule="evenodd" d="M83.1316 39.596C85.3174 39.596 87.0895 41.3682 87.0895 43.5539C87.0895 45.7396 85.3174 47.5117 83.1316 47.5117C80.9459 47.5117 79.1738 45.7396 79.1738 43.5539C79.1738 41.3682 80.9459 39.596 83.1316 39.596Z" fill="#C3C3C3"/>
<path fill-rule="evenodd" clip-rule="evenodd" d="M83.1316 0.0179451C85.3174 0.017945 87.0895 1.79006 87.0895 3.97577C87.0895 6.16148 85.3174 7.93359 83.1316 7.93359C80.9459 7.93359 79.1738 6.16148 79.1738 3.97577C79.1738 1.79006 80.9459 0.0179452 83.1316 0.0179451Z" fill="#C3C3C3"/>
<path fill-rule="evenodd" clip-rule="evenodd" d="M122.71 277.065C124.895 277.065 126.668 278.837 126.668 281.023C126.668 283.209 124.895 284.981 122.71 284.981C120.524 284.981 118.752 283.209 118.752 281.023C118.752 278.837 120.524 277.065 122.71 277.065Z" fill="#C3C3C3"/>
<path fill-rule="evenodd" clip-rule="evenodd" d="M122.71 237.487C124.895 237.487 126.668 239.259 126.668 241.445C126.668 243.631 124.895 245.403 122.71 245.403C120.524 245.403 118.752 243.631 118.752 241.445C118.752 239.259 120.524 237.487 122.71 237.487Z" fill="#C3C3C3"/>
<path fill-rule="evenodd" clip-rule="evenodd" d="M122.71 197.909C124.895 197.909 126.668 199.681 126.668 201.867C126.668 204.052 124.895 205.824 122.71 205.824C120.524 205.824 118.752 204.052 118.752 201.867C118.752 199.681 120.524 197.909 122.71 197.909Z" fill="#C3C3C3"/>
<path fill-rule="evenodd" clip-rule="evenodd" d="M122.71 158.331C124.895 158.331 126.668 160.103 126.668 162.289C126.668 164.474 124.895 166.246 122.71 166.246C120.524 166.246 118.752 164.474 118.752 162.289C118.752 160.103 120.524 158.331 122.71 158.331Z" fill="#C3C3C3"/>
<path fill-rule="evenodd" clip-rule="evenodd" d="M122.71 118.752C124.895 118.752 126.668 120.524 126.668 122.71C126.668 124.896 124.895 126.668 122.71 126.668C120.524 126.668 118.752 124.896 118.752 122.71C118.752 120.524 120.524 118.752 122.71 118.752Z" fill="#C3C3C3"/>
<path fill-rule="evenodd" clip-rule="evenodd" d="M122.71 79.1744C124.895 79.1744 126.668 80.9466 126.668 83.1323C126.668 85.318 124.895 87.0901 122.71 87.0901C120.524 87.0901 118.752 85.318 118.752 83.1323C118.752 80.9466 120.524 79.1744 122.71 79.1744Z" fill="#C3C3C3"/>
<path fill-rule="evenodd" clip-rule="evenodd" d="M122.71 39.596C124.895 39.596 126.668 41.3682 126.668 43.5539C126.668 45.7396 124.895 47.5117 122.71 47.5117C120.524 47.5117 118.752 45.7396 118.752 43.5539C118.752 41.3682 120.524 39.596 122.71 39.596Z" fill="#C3C3C3"/>
<path fill-rule="evenodd" clip-rule="evenodd" d="M122.71 0.0181893C124.895 0.0181892 126.668 1.7903 126.668 3.97601C126.668 6.16172 124.895 7.93384 122.71 7.93384C120.524 7.93384 118.752 6.16172 118.752 3.97601C118.752 1.79031 120.524 0.0181894 122.71 0.0181893Z" fill="#C3C3C3"/>
<path fill-rule="evenodd" clip-rule="evenodd" d="M162.288 277.065C164.474 277.065 166.246 278.837 166.246 281.023C166.246 283.209 164.474 284.981 162.288 284.981C160.102 284.981 158.33 283.209 158.33 281.023C158.33 278.837 160.102 277.065 162.288 277.065Z" fill="#C3C3C3"/>
<path fill-rule="evenodd" clip-rule="evenodd" d="M162.288 237.487C164.474 237.487 166.246 239.259 166.246 241.445C166.246 243.631 164.474 245.403 162.288 245.403C160.102 245.403 158.33 243.631 158.33 241.445C158.33 239.259 160.102 237.487 162.288 237.487Z" fill="#C3C3C3"/>
<path fill-rule="evenodd" clip-rule="evenodd" d="M162.288 197.909C164.474 197.909 166.246 199.681 166.246 201.867C166.246 204.052 164.474 205.824 162.288 205.824C160.102 205.824 158.33 204.052 158.33 201.867C158.33 199.681 160.102 197.909 162.288 197.909Z" fill="#C3C3C3"/>
<path fill-rule="evenodd" clip-rule="evenodd" d="M162.288 158.331C164.474 158.331 166.246 160.103 166.246 162.289C166.246 164.474 164.474 166.246 162.288 166.246C160.102 166.246 158.33 164.474 158.33 162.289C158.33 160.103 160.102 158.331 162.288 158.331Z" fill="#C3C3C3"/>
<path fill-rule="evenodd" clip-rule="evenodd" d="M162.288 118.752C164.474 118.752 166.246 120.524 166.246 122.71C166.246 124.896 164.474 126.668 162.288 126.668C160.102 126.668 158.33 124.896 158.33 122.71C158.33 120.524 160.102 118.752 162.288 118.752Z" fill="#C3C3C3"/>
<path fill-rule="evenodd" clip-rule="evenodd" d="M162.288 79.1744C164.474 79.1744 166.246 80.9466 166.246 83.1323C166.246 85.318 164.474 87.0901 162.288 87.0901C160.102 87.0901 158.33 85.318 158.33 83.1323C158.33 80.9466 160.102 79.1744 162.288 79.1744Z" fill="#C3C3C3"/>
<path fill-rule="evenodd" clip-rule="evenodd" d="M162.288 39.596C164.474 39.596 166.246 41.3682 166.246 43.5539C166.246 45.7396 164.474 47.5117 162.288 47.5117C160.102 47.5117 158.33 45.7396 158.33 43.5539C158.33 41.3682 160.102 39.596 162.288 39.596Z" fill="#C3C3C3"/>
<path fill-rule="evenodd" clip-rule="evenodd" d="M162.288 0.0181893C164.474 0.0181892 166.246 1.7903 166.246 3.97601C166.246 6.16172 164.474 7.93384 162.288 7.93384C160.102 7.93384 158.33 6.16172 158.33 3.97601C158.33 1.79031 160.102 0.0181894 162.288 0.0181893Z" fill="#C3C3C3"/>
</svg>
