<svg width="69" height="71" viewBox="0 0 69 71" fill="none" xmlns="http://www.w3.org/2000/svg">
<path fill-rule="evenodd" clip-rule="evenodd" d="M55.4621 9.37581C39.0024 -6.91712 24.9823 0.492696 22.5427 12.9056C20.1031 25.3185 -2.55927 27.7969 0.238838 42.4584C3.03695 57.1198 33.5158 48.4146 33.5158 61.7015C33.5158 74.9885 68.7556 74.5303 68.7556 57.1198C68.7556 39.7093 71.9219 25.6687 55.4621 9.37581Z" fill="#E4EAF0"/>
<path d="M40.5 47H33C31.625 47 30.5 45.875 30.5 44.5C30.5 43.125 31.625 42 33 42H40.5C40.5 42 48 33.6406 48 29.5C48 25.3594 44.6406 22 40.5 22C36.3594 22 33 25.3594 33 29.5C33 31.4922 34.7344 34.4531 36.5391 37H33C28.8672 37 25.5 40.3672 25.5 44.5C25.5 48.6328 28.8672 52 33 52H40.5C41.875 52 43 53.125 43 54.5C43 55.875 41.875 57 40.5 57H22.4922C21.2422 58.9375 19.8516 60.7266 18.7969 62H40.5C44.6328 62 48 58.6328 48 54.5C48 50.3672 44.6328 47 40.5 47ZM40.5 27C41.8828 27 43 28.1172 43 29.5C43 30.8828 41.8828 32 40.5 32C39.1172 32 38 30.8828 38 29.5C38 28.1172 39.1172 27 40.5 27ZM15.5 42C11.3594 42 8 45.3594 8 49.5C8 53.6406 15.5 62 15.5 62C15.5 62 23 53.6406 23 49.5C23 45.3594 19.6406 42 15.5 42ZM15.5 52C14.1172 52 13 50.8828 13 49.5C13 48.1172 14.1172 47 15.5 47C16.8828 47 18 48.1172 18 49.5C18 50.8828 16.8828 52 15.5 52Z" fill="#3683BC"/>
</svg>
