<svg width="315" height="69" viewBox="0 0 315 69" fill="none" xmlns="http://www.w3.org/2000/svg">
<path d="M11.4 10.4H29.64V0.799995H0.84V68H29.64V58.4H11.4V38.72H25.896V29.12H11.4V10.4ZM69.0158 68C67.9598 65.504 67.8638 63.104 67.8638 59.84V49.472C67.8638 42.464 66.1358 37.376 60.8558 35.168C65.5598 32.96 67.7678 28.448 67.7678 21.536V16.256C67.7678 5.888 63.0638 0.799995 52.1198 0.799995H36.1838V68H46.7438V40.64H50.3918C55.1918 40.64 57.3038 42.944 57.3038 49.184V59.744C57.3038 65.216 57.6877 66.272 58.2638 68H69.0158ZM51.8318 10.4C55.5758 10.4 57.2078 12.512 57.2078 17.312V23.936C57.2078 29.312 54.8078 31.04 50.8718 31.04H46.7438V10.4H51.8318ZM107.641 68C106.585 65.504 106.489 63.104 106.489 59.84V49.472C106.489 42.464 104.761 37.376 99.4808 35.168C104.185 32.96 106.393 28.448 106.393 21.536V16.256C106.393 5.888 101.689 0.799995 90.7448 0.799995H74.8088V68H85.3688V40.64H89.0168C93.8168 40.64 95.9288 42.944 95.9288 49.184V59.744C95.9288 65.216 96.3127 66.272 96.8888 68H107.641ZM90.4568 10.4C94.2008 10.4 95.8328 12.512 95.8328 17.312V23.936C95.8328 29.312 93.4328 31.04 89.4968 31.04H85.3688V10.4H90.4568ZM123.13 16.256C123.13 11.456 125.242 9.632 128.602 9.632C131.962 9.632 134.074 11.456 134.074 16.256V52.544C134.074 57.344 131.962 59.168 128.602 59.168C125.242 59.168 123.13 57.344 123.13 52.544V16.256ZM112.57 51.872C112.57 62.624 118.234 68.768 128.602 68.768C138.97 68.768 144.634 62.624 144.634 51.872V16.928C144.634 6.17599 138.97 0.0319996 128.602 0.0319996C118.234 0.0319996 112.57 6.17599 112.57 16.928V51.872ZM184.328 68C183.272 65.504 183.176 63.104 183.176 59.84V49.472C183.176 42.464 181.448 37.376 176.168 35.168C180.872 32.96 183.08 28.448 183.08 21.536V16.256C183.08 5.888 178.376 0.799995 167.432 0.799995H151.496V68H162.056V40.64H165.704C170.504 40.64 172.616 42.944 172.616 49.184V59.744C172.616 65.216 173 66.272 173.576 68H184.328ZM167.144 10.4C170.888 10.4 172.52 12.512 172.52 17.312V23.936C172.52 29.312 170.12 31.04 166.184 31.04H162.056V10.4H167.144ZM202.532 55.808H222.884V68H233.252V55.808H238.244V46.208H233.252V0.799995H221.732L202.532 46.208V55.808ZM212.228 46.208L222.884 20.96V46.208H212.228ZM252.786 16.256C252.786 11.456 254.898 9.632 258.258 9.632C261.618 9.632 263.73 11.456 263.73 16.256V52.544C263.73 57.344 261.618 59.168 258.258 59.168C254.898 59.168 252.786 57.344 252.786 52.544V16.256ZM242.226 51.872C242.226 62.624 247.89 68.768 258.258 68.768C268.626 68.768 274.29 62.624 274.29 51.872V16.928C274.29 6.17599 268.626 0.0319996 258.258 0.0319996C247.89 0.0319996 242.226 6.17599 242.226 16.928V51.872ZM278.657 55.808H299.009V68H309.377V55.808H314.369V46.208H309.377V0.799995H297.857L278.657 46.208V55.808ZM288.353 46.208L299.009 20.96V46.208H288.353Z" fill="#3683BC"/>
</svg>
