<svg width="354" height="161" viewBox="0 0 354 161" fill="none" xmlns="http://www.w3.org/2000/svg">
<g clip-path="url(#clip0)">
<g filter="url(#filter0_d)">
<path fill-rule="evenodd" clip-rule="evenodd" d="M18 6C8.05887 6 0 14.0589 0 24V98.1474C0 108.089 8.05887 116.147 18 116.147H59.5225V153.692L94.6313 116.147H330C339.941 116.147 348 108.089 348 98.1474V24C348 14.0589 339.941 6 330 6H18Z" fill="white"/>
</g>
<path d="M57.259 75.5032C55.9388 75.5032 54.6967 74.8002 54.0249 73.6752L49.0017 65.3476L43.9864 73.6752C43.3068 74.808 42.0647 75.5111 40.7444 75.5111C40.3929 75.5111 40.0414 75.4642 39.7054 75.3626L29.003 72.3003V86.2057C29.003 87.3541 29.7842 88.354 30.8935 88.6274L47.7831 92.8537C48.5799 93.049 49.4158 93.049 50.2048 92.8537L67.11 88.6274C68.2193 88.3462 69.0005 87.3463 69.0005 86.2057V72.3003L58.298 75.3548C57.9621 75.4564 57.6106 75.5032 57.259 75.5032ZM73.8673 66.7382L69.8442 58.7074C69.602 58.2231 69.0786 57.9419 68.5396 58.0122L49.0017 60.5042L56.1653 72.3863C56.4622 72.8784 57.0559 73.1128 57.6106 72.9565L73.0705 68.5427C73.8439 68.3162 74.2189 67.4569 73.8673 66.7382ZM28.1593 58.7074L24.1361 66.7382C23.7768 67.4569 24.1595 68.3162 24.9251 68.5349L40.3851 72.9487C40.9397 73.105 41.5335 72.8706 41.8303 72.3784L49.0017 60.5042L29.4561 58.0122C28.9171 57.9497 28.4015 58.2231 28.1593 58.7074Z" fill="#C3C3C3"/>
<path fill-rule="evenodd" clip-rule="evenodd" d="M49.8068 42.5989L55.1304 37.2057L55.9613 38.0259L50.6376 43.4191C50.529 43.5291 50.4686 43.6778 50.4697 43.8325C50.4708 43.9872 50.5333 44.1353 50.6435 44.244L58.1211 51.6253C58.2312 51.7341 58.38 51.7947 58.5347 51.7938C58.6894 51.7929 58.8374 51.7305 58.946 51.6205L64.2697 46.2273L65.1005 47.0475L59.7768 52.4407C59.451 52.7707 59.0072 52.9577 58.5431 52.9604C58.079 52.9631 57.6326 52.7813 57.302 52.455L49.8245 45.0737C49.494 44.7475 49.3064 44.3034 49.3031 43.8393C49.2998 43.3752 49.4809 42.929 49.8068 42.5989ZM67.9553 42.4936L65.0887 45.3976L65.0651 42.0979L66.2936 40.8533C66.4022 40.7432 66.5502 40.6809 66.7049 40.68C66.8596 40.6791 67.0084 40.7397 67.1185 40.8485L67.9494 41.6686C68.0596 41.7774 68.1221 41.9254 68.1232 42.0801C68.1243 42.2348 68.0639 42.3835 67.9553 42.4936Z" fill="#3683BC" stroke="#3683BC" stroke-width="0.5"/>
<path fill-rule="evenodd" clip-rule="evenodd" d="M64.0342 36.9827C64.3434 36.981 64.6409 37.1021 64.8612 37.3195C65.0814 37.537 65.2064 37.8328 65.2087 38.1421L65.288 49.1053C65.2891 49.2602 65.2286 49.409 65.1199 49.5192C65.0112 49.6293 64.8631 49.6917 64.7083 49.6926C64.5534 49.6935 64.4044 49.6328 64.2941 49.524C64.1839 49.4151 64.1213 49.2669 64.1202 49.1121L64.0425 38.1489L53.0793 38.2134C52.9245 38.2143 52.7755 38.1536 52.6652 38.0447C52.5549 37.9359 52.4923 37.7877 52.4912 37.6328C52.4901 37.478 52.5506 37.3291 52.6593 37.219C52.768 37.1088 52.9161 37.0464 53.071 37.0455L64.0342 36.9827Z" fill="#3683BC" stroke="#3683BC" stroke-width="0.5"/>
<path fill-rule="evenodd" clip-rule="evenodd" d="M34.8079 55.65L32.8383 50.6364L33.6437 50.2993L35.6133 55.3129C35.6535 55.4152 35.7344 55.4955 35.8384 55.5362C35.9423 55.5769 36.0607 55.5747 36.1675 55.53L43.4165 52.4959C43.5233 52.4512 43.6097 52.3677 43.6568 52.2637C43.704 52.1598 43.7078 52.044 43.6677 51.9417L41.6981 46.9281L42.5035 46.5909L44.4731 51.6045C44.5936 51.9114 44.582 52.259 44.4406 52.5708C44.2993 52.8826 44.0399 53.1331 43.7195 53.2672L36.4705 56.3013C36.1501 56.4354 35.7949 56.4421 35.4831 56.32C35.1713 56.1979 34.9284 55.9569 34.8079 55.65ZM40.3346 43.4571L41.3951 46.1567L39.1782 45.2883L38.7237 44.1314C38.6835 44.0291 38.6874 43.9132 38.7345 43.8093C38.7816 43.7053 38.8681 43.6218 38.9749 43.5771L39.7803 43.24C39.8871 43.1953 40.0055 43.1931 40.1095 43.2338C40.2134 43.2745 40.2944 43.3548 40.3346 43.4571Z" fill="#3683BC" stroke="#3683BC" stroke-width="0.7"/>
<path fill-rule="evenodd" clip-rule="evenodd" d="M35.3949 44.5859C35.4882 44.3806 35.6595 44.2158 35.871 44.1275C36.0825 44.0392 36.317 44.0348 36.5228 44.1151L43.8197 46.9644C43.9227 47.0047 44.003 47.0841 44.0429 47.1853C44.0827 47.2864 44.0789 47.4009 44.0321 47.5037C43.9854 47.6065 43.8997 47.689 43.7938 47.7333C43.6878 47.7775 43.5704 47.7797 43.4674 47.7394L36.171 44.889L32.8643 52.1644C32.8175 52.2672 32.7318 52.3498 32.6259 52.394C32.52 52.4382 32.4025 52.4404 32.2995 52.4001C32.1964 52.3599 32.1161 52.2804 32.0763 52.1793C32.0364 52.0782 32.0403 51.9636 32.087 51.8608L35.3949 44.5859Z" fill="#3683BC" stroke="#3683BC" stroke-width="0.7"/>
<mask id="path-7-inside-1" fill="white">
<path fill-rule="evenodd" clip-rule="evenodd" d="M18 6.4165C8.05887 6.4165 0 14.4754 0 24.4165V98.5639C0 108.505 8.05887 116.564 18 116.564H59.5225V154.109L94.6313 116.564H330C339.941 116.564 348 108.505 348 98.5639V24.4165C348 14.4754 339.941 6.4165 330 6.4165H18Z"/>
</mask>
<path d="M59.5225 116.564H61.5225V114.564H59.5225V116.564ZM59.5225 154.109H57.5225V159.176L60.9833 155.475L59.5225 154.109ZM94.6313 116.564V114.564H93.7633L93.1705 115.198L94.6313 116.564ZM2 24.4165C2 15.5799 9.16344 8.4165 18 8.4165V4.4165C6.95431 4.4165 -2 13.3708 -2 24.4165H2ZM2 98.5639V24.4165H-2V98.5639H2ZM18 114.564C9.16344 114.564 2 107.4 2 98.5639H-2C-2 109.61 6.9543 118.564 18 118.564V114.564ZM59.5225 114.564H18V118.564H59.5225V114.564ZM57.5225 116.564V154.109H61.5225V116.564H57.5225ZM60.9833 155.475L96.0921 117.93L93.1705 115.198L58.0616 152.743L60.9833 155.475ZM330 114.564H94.6313V118.564H330V114.564ZM346 98.5639C346 107.4 338.837 114.564 330 114.564V118.564C341.046 118.564 350 109.61 350 98.5639H346ZM346 24.4165V98.5639H350V24.4165H346ZM330 8.4165C338.837 8.4165 346 15.5799 346 24.4165H350C350 13.3708 341.046 4.4165 330 4.4165V8.4165ZM18 8.4165H330V4.4165H18V8.4165Z" fill="#3683BC" mask="url(#path-7-inside-1)"/>
<path d="M104.065 49.65C104.065 49.55 104.115 49.5 104.215 49.5H105.355C105.455 49.5 105.505 49.55 105.505 49.65V59.85C105.505 59.95 105.455 60 105.355 60H104.215C104.115 60 104.065 59.95 104.065 59.85V55.395C104.065 55.355 104.045 55.335 104.005 55.335H99.73C99.69 55.335 99.67 55.355 99.67 55.395V59.85C99.67 59.95 99.62 60 99.52 60H98.38C98.28 60 98.23 59.95 98.23 59.85V49.65C98.23 49.55 98.28 49.5 98.38 49.5H99.52C99.62 49.5 99.67 49.55 99.67 49.65V54.03C99.67 54.07 99.69 54.09 99.73 54.09H104.005C104.045 54.09 104.065 54.07 104.065 54.03V49.65ZM110.508 52.245C111.118 52.245 111.648 52.355 112.098 52.575C112.558 52.785 112.908 53.085 113.148 53.475C113.398 53.855 113.523 54.29 113.523 54.78V59.85C113.523 59.95 113.473 60 113.373 60H112.233C112.133 60 112.083 59.95 112.083 59.85V59.31C112.083 59.26 112.058 59.25 112.008 59.28C111.748 59.55 111.428 59.76 111.048 59.91C110.678 60.05 110.263 60.12 109.803 60.12C109.063 60.12 108.448 59.935 107.958 59.565C107.478 59.185 107.238 58.615 107.238 57.855C107.238 57.075 107.508 56.465 108.048 56.025C108.598 55.575 109.363 55.35 110.343 55.35H112.023C112.063 55.35 112.083 55.33 112.083 55.29V54.885C112.083 54.445 111.953 54.105 111.693 53.865C111.443 53.615 111.058 53.49 110.538 53.49C110.118 53.49 109.773 53.575 109.503 53.745C109.243 53.905 109.083 54.125 109.023 54.405C108.993 54.505 108.933 54.55 108.843 54.54L107.628 54.375C107.528 54.355 107.483 54.315 107.493 54.255C107.573 53.665 107.888 53.185 108.438 52.815C108.988 52.435 109.678 52.245 110.508 52.245ZM110.118 58.905C110.648 58.905 111.108 58.765 111.498 58.485C111.888 58.205 112.083 57.85 112.083 57.42V56.535C112.083 56.495 112.063 56.475 112.023 56.475H110.613C110.023 56.475 109.553 56.59 109.203 56.82C108.853 57.05 108.678 57.37 108.678 57.78C108.678 58.15 108.808 58.43 109.068 58.62C109.338 58.81 109.688 58.905 110.118 58.905ZM119.129 53.4C119.129 53.5 119.079 53.55 118.979 53.55H117.359C117.319 53.55 117.299 53.57 117.299 53.61V57.585C117.299 58.005 117.394 58.31 117.584 58.5C117.774 58.68 118.069 58.77 118.469 58.77H118.904C119.004 58.77 119.054 58.82 119.054 58.92V59.85C119.054 59.95 119.004 60 118.904 60C118.584 60.02 118.354 60.03 118.214 60.03C117.454 60.03 116.879 59.895 116.489 59.625C116.109 59.345 115.919 58.835 115.919 58.095V53.61C115.919 53.57 115.899 53.55 115.859 53.55H114.944C114.844 53.55 114.794 53.5 114.794 53.4V52.515C114.794 52.415 114.844 52.365 114.944 52.365H115.859C115.899 52.365 115.919 52.345 115.919 52.305V50.535C115.919 50.435 115.969 50.385 116.069 50.385H117.149C117.249 50.385 117.299 50.435 117.299 50.535V52.305C117.299 52.345 117.319 52.365 117.359 52.365H118.979C119.079 52.365 119.129 52.415 119.129 52.515V53.4ZM126.906 55.23C126.946 55.64 126.961 56.1 126.951 56.61C126.951 56.71 126.901 56.76 126.801 56.76H122.016C121.976 56.76 121.956 56.78 121.956 56.82C121.956 57.16 121.986 57.42 122.046 57.6C122.156 58 122.376 58.315 122.706 58.545C123.046 58.765 123.471 58.875 123.981 58.875C124.721 58.875 125.291 58.57 125.691 57.96C125.741 57.86 125.806 57.845 125.886 57.915L126.741 58.485C126.811 58.545 126.826 58.61 126.786 58.68C126.506 59.13 126.106 59.485 125.586 59.745C125.076 60.005 124.496 60.135 123.846 60.135C123.116 60.135 122.501 59.975 122.001 59.655C121.501 59.335 121.126 58.88 120.876 58.29C120.636 57.7 120.516 56.985 120.516 56.145C120.516 55.415 120.571 54.86 120.681 54.48C120.861 53.79 121.221 53.245 121.761 52.845C122.301 52.445 122.956 52.245 123.726 52.245C124.736 52.245 125.491 52.5 125.991 53.01C126.491 53.51 126.796 54.25 126.906 55.23ZM123.726 53.49C123.296 53.49 122.941 53.6 122.661 53.82C122.381 54.03 122.191 54.315 122.091 54.675C122.021 54.895 121.976 55.175 121.956 55.515C121.956 55.555 121.976 55.575 122.016 55.575H125.451C125.491 55.575 125.511 55.555 125.511 55.515C125.491 55.185 125.461 54.94 125.421 54.78C125.321 54.39 125.121 54.08 124.821 53.85C124.531 53.61 124.166 53.49 123.726 53.49ZM136.466 52.515C136.466 52.415 136.516 52.365 136.616 52.365H137.756C137.856 52.365 137.906 52.415 137.906 52.515V59.61C137.906 60.82 137.561 61.685 136.871 62.205C136.191 62.725 135.276 62.985 134.126 62.985C133.966 62.985 133.716 62.975 133.376 62.955C133.276 62.945 133.226 62.89 133.226 62.79L133.271 61.755C133.271 61.715 133.286 61.68 133.316 61.65C133.346 61.62 133.386 61.61 133.436 61.62C133.576 61.63 133.781 61.635 134.051 61.635C134.901 61.635 135.516 61.475 135.896 61.155C136.276 60.845 136.466 60.315 136.466 59.565V59.295C136.466 59.275 136.456 59.26 136.436 59.25C136.426 59.24 136.411 59.245 136.391 59.265C135.971 59.755 135.356 60 134.546 60C133.896 60 133.306 59.83 132.776 59.49C132.256 59.15 131.896 58.65 131.696 57.99C131.566 57.55 131.501 56.94 131.501 56.16C131.501 55.33 131.576 54.69 131.726 54.24C131.916 53.64 132.251 53.16 132.731 52.8C133.221 52.43 133.796 52.245 134.456 52.245C135.276 52.245 135.921 52.495 136.391 52.995C136.411 53.015 136.426 53.025 136.436 53.025C136.456 53.015 136.466 53 136.466 52.98V52.515ZM136.376 57.555C136.406 57.395 136.426 57.225 136.436 57.045C136.456 56.865 136.466 56.565 136.466 56.145C136.466 55.725 136.456 55.43 136.436 55.26C136.426 55.08 136.401 54.91 136.361 54.75C136.281 54.38 136.101 54.08 135.821 53.85C135.541 53.61 135.191 53.49 134.771 53.49C134.351 53.49 134.001 53.61 133.721 53.85C133.441 54.08 133.241 54.38 133.121 54.75C133.011 55.05 132.956 55.515 132.956 56.145C132.956 56.835 133.006 57.305 133.106 57.555C133.206 57.925 133.401 58.23 133.691 58.47C133.991 58.7 134.351 58.815 134.771 58.815C135.211 58.815 135.566 58.7 135.836 58.47C136.116 58.23 136.296 57.925 136.376 57.555ZM146.095 55.23C146.135 55.64 146.15 56.1 146.14 56.61C146.14 56.71 146.09 56.76 145.99 56.76H141.205C141.165 56.76 141.145 56.78 141.145 56.82C141.145 57.16 141.175 57.42 141.235 57.6C141.345 58 141.565 58.315 141.895 58.545C142.235 58.765 142.66 58.875 143.17 58.875C143.91 58.875 144.48 58.57 144.88 57.96C144.93 57.86 144.995 57.845 145.075 57.915L145.93 58.485C146 58.545 146.015 58.61 145.975 58.68C145.695 59.13 145.295 59.485 144.775 59.745C144.265 60.005 143.685 60.135 143.035 60.135C142.305 60.135 141.69 59.975 141.19 59.655C140.69 59.335 140.315 58.88 140.065 58.29C139.825 57.7 139.705 56.985 139.705 56.145C139.705 55.415 139.76 54.86 139.87 54.48C140.05 53.79 140.41 53.245 140.95 52.845C141.49 52.445 142.145 52.245 142.915 52.245C143.925 52.245 144.68 52.5 145.18 53.01C145.68 53.51 145.985 54.25 146.095 55.23ZM142.915 53.49C142.485 53.49 142.13 53.6 141.85 53.82C141.57 54.03 141.38 54.315 141.28 54.675C141.21 54.895 141.165 55.175 141.145 55.515C141.145 55.555 141.165 55.575 141.205 55.575H144.64C144.68 55.575 144.7 55.555 144.7 55.515C144.68 55.185 144.65 54.94 144.61 54.78C144.51 54.39 144.31 54.08 144.01 53.85C143.72 53.61 143.355 53.49 142.915 53.49ZM151.605 53.4C151.605 53.5 151.555 53.55 151.455 53.55H149.835C149.795 53.55 149.775 53.57 149.775 53.61V57.585C149.775 58.005 149.87 58.31 150.06 58.5C150.25 58.68 150.545 58.77 150.945 58.77H151.38C151.48 58.77 151.53 58.82 151.53 58.92V59.85C151.53 59.95 151.48 60 151.38 60C151.06 60.02 150.83 60.03 150.69 60.03C149.93 60.03 149.355 59.895 148.965 59.625C148.585 59.345 148.395 58.835 148.395 58.095V53.61C148.395 53.57 148.375 53.55 148.335 53.55H147.42C147.32 53.55 147.27 53.5 147.27 53.4V52.515C147.27 52.415 147.32 52.365 147.42 52.365H148.335C148.375 52.365 148.395 52.345 148.395 52.305V50.535C148.395 50.435 148.445 50.385 148.545 50.385H149.625C149.725 50.385 149.775 50.435 149.775 50.535V52.305C149.775 52.345 149.795 52.365 149.835 52.365H151.455C151.555 52.365 151.605 52.415 151.605 52.515V53.4ZM157.142 53.4C157.142 53.5 157.092 53.55 156.992 53.55H155.372C155.332 53.55 155.312 53.57 155.312 53.61V57.585C155.312 58.005 155.407 58.31 155.597 58.5C155.787 58.68 156.082 58.77 156.482 58.77H156.917C157.017 58.77 157.067 58.82 157.067 58.92V59.85C157.067 59.95 157.017 60 156.917 60C156.597 60.02 156.367 60.03 156.227 60.03C155.467 60.03 154.892 59.895 154.502 59.625C154.122 59.345 153.932 58.835 153.932 58.095V53.61C153.932 53.57 153.912 53.55 153.872 53.55H152.957C152.857 53.55 152.807 53.5 152.807 53.4V52.515C152.807 52.415 152.857 52.365 152.957 52.365H153.872C153.912 52.365 153.932 52.345 153.932 52.305V50.535C153.932 50.435 153.982 50.385 154.082 50.385H155.162C155.262 50.385 155.312 50.435 155.312 50.535V52.305C155.312 52.345 155.332 52.365 155.372 52.365H156.992C157.092 52.365 157.142 52.415 157.142 52.515V53.4ZM159.784 51.165C159.504 51.165 159.274 51.075 159.094 50.895C158.914 50.715 158.824 50.485 158.824 50.205C158.824 49.925 158.914 49.695 159.094 49.515C159.274 49.335 159.504 49.245 159.784 49.245C160.064 49.245 160.294 49.335 160.474 49.515C160.654 49.695 160.744 49.925 160.744 50.205C160.744 50.485 160.654 50.715 160.474 50.895C160.294 51.075 160.064 51.165 159.784 51.165ZM159.184 59.985C159.084 59.985 159.034 59.935 159.034 59.835V52.515C159.034 52.415 159.084 52.365 159.184 52.365H160.324C160.424 52.365 160.474 52.415 160.474 52.515V59.835C160.474 59.935 160.424 59.985 160.324 59.985H159.184ZM166.143 52.26C166.963 52.26 167.613 52.5 168.093 52.98C168.573 53.45 168.813 54.09 168.813 54.9V59.85C168.813 59.95 168.763 60 168.663 60H167.523C167.423 60 167.373 59.95 167.373 59.85V55.185C167.373 54.685 167.228 54.28 166.938 53.97C166.648 53.66 166.263 53.505 165.783 53.505C165.313 53.505 164.928 53.66 164.628 53.97C164.328 54.28 164.178 54.68 164.178 55.17V59.85C164.178 59.95 164.128 60 164.028 60H162.888C162.788 60 162.738 59.95 162.738 59.85V52.515C162.738 52.415 162.788 52.365 162.888 52.365H164.028C164.128 52.365 164.178 52.415 164.178 52.515V53.055C164.178 53.075 164.183 53.09 164.193 53.1C164.213 53.11 164.228 53.105 164.238 53.085C164.668 52.535 165.303 52.26 166.143 52.26ZM175.562 52.515C175.562 52.415 175.612 52.365 175.712 52.365H176.852C176.952 52.365 177.002 52.415 177.002 52.515V59.61C177.002 60.82 176.657 61.685 175.967 62.205C175.287 62.725 174.372 62.985 173.222 62.985C173.062 62.985 172.812 62.975 172.472 62.955C172.372 62.945 172.322 62.89 172.322 62.79L172.367 61.755C172.367 61.715 172.382 61.68 172.412 61.65C172.442 61.62 172.482 61.61 172.532 61.62C172.672 61.63 172.877 61.635 173.147 61.635C173.997 61.635 174.612 61.475 174.992 61.155C175.372 60.845 175.562 60.315 175.562 59.565V59.295C175.562 59.275 175.552 59.26 175.532 59.25C175.522 59.24 175.507 59.245 175.487 59.265C175.067 59.755 174.452 60 173.642 60C172.992 60 172.402 59.83 171.872 59.49C171.352 59.15 170.992 58.65 170.792 57.99C170.662 57.55 170.597 56.94 170.597 56.16C170.597 55.33 170.672 54.69 170.822 54.24C171.012 53.64 171.347 53.16 171.827 52.8C172.317 52.43 172.892 52.245 173.552 52.245C174.372 52.245 175.017 52.495 175.487 52.995C175.507 53.015 175.522 53.025 175.532 53.025C175.552 53.015 175.562 53 175.562 52.98V52.515ZM175.472 57.555C175.502 57.395 175.522 57.225 175.532 57.045C175.552 56.865 175.562 56.565 175.562 56.145C175.562 55.725 175.552 55.43 175.532 55.26C175.522 55.08 175.497 54.91 175.457 54.75C175.377 54.38 175.197 54.08 174.917 53.85C174.637 53.61 174.287 53.49 173.867 53.49C173.447 53.49 173.097 53.61 172.817 53.85C172.537 54.08 172.337 54.38 172.217 54.75C172.107 55.05 172.052 55.515 172.052 56.145C172.052 56.835 172.102 57.305 172.202 57.555C172.302 57.925 172.497 58.23 172.787 58.47C173.087 58.7 173.447 58.815 173.867 58.815C174.307 58.815 174.662 58.7 174.932 58.47C175.212 58.23 175.392 57.925 175.472 57.555ZM186.56 52.515C186.56 52.415 186.61 52.365 186.71 52.365H187.835C187.935 52.365 187.985 52.415 187.985 52.515V59.85C187.985 59.95 187.935 60 187.835 60H186.71C186.61 60 186.56 59.95 186.56 59.85V59.295C186.56 59.275 186.55 59.265 186.53 59.265C186.52 59.255 186.505 59.26 186.485 59.28C186.085 59.83 185.47 60.105 184.64 60.105C184.15 60.105 183.695 60.01 183.275 59.82C182.865 59.63 182.535 59.35 182.285 58.98C182.035 58.61 181.91 58.16 181.91 57.63V52.515C181.91 52.415 181.96 52.365 182.06 52.365H183.185C183.285 52.365 183.335 52.415 183.335 52.515V57.18C183.335 57.7 183.47 58.11 183.74 58.41C184.02 58.71 184.41 58.86 184.91 58.86C185.41 58.86 185.81 58.71 186.11 58.41C186.41 58.1 186.56 57.69 186.56 57.18V52.515ZM193.491 52.26C194.311 52.26 194.961 52.5 195.441 52.98C195.921 53.45 196.161 54.09 196.161 54.9V59.85C196.161 59.95 196.111 60 196.011 60H194.871C194.771 60 194.721 59.95 194.721 59.85V55.185C194.721 54.685 194.576 54.28 194.286 53.97C193.996 53.66 193.611 53.505 193.131 53.505C192.661 53.505 192.276 53.66 191.976 53.97C191.676 54.28 191.526 54.68 191.526 55.17V59.85C191.526 59.95 191.476 60 191.376 60H190.236C190.136 60 190.086 59.95 190.086 59.85V52.515C190.086 52.415 190.136 52.365 190.236 52.365H191.376C191.476 52.365 191.526 52.415 191.526 52.515V53.055C191.526 53.075 191.531 53.09 191.541 53.1C191.561 53.11 191.576 53.105 191.586 53.085C192.016 52.535 192.651 52.26 193.491 52.26ZM202.868 49.65C202.868 49.55 202.918 49.5 203.018 49.5H204.158C204.258 49.5 204.308 49.55 204.308 49.65V59.85C204.308 59.95 204.258 60 204.158 60H203.018C202.918 60 202.868 59.95 202.868 59.85V59.355C202.868 59.335 202.858 59.32 202.838 59.31C202.828 59.3 202.813 59.305 202.793 59.325C202.573 59.575 202.313 59.77 202.013 59.91C201.713 60.05 201.388 60.12 201.038 60.12C200.318 60.12 199.718 59.945 199.238 59.595C198.768 59.235 198.423 58.73 198.203 58.08C198.013 57.55 197.918 56.91 197.918 56.16C197.918 55.46 197.998 54.855 198.158 54.345C198.368 53.685 198.713 53.17 199.193 52.8C199.673 52.43 200.288 52.245 201.038 52.245C201.378 52.245 201.698 52.315 201.998 52.455C202.308 52.585 202.573 52.775 202.793 53.025C202.813 53.045 202.828 53.05 202.838 53.04C202.858 53.03 202.868 53.015 202.868 52.995V49.65ZM202.493 58.065C202.723 57.645 202.838 57.015 202.838 56.175C202.838 55.335 202.713 54.695 202.463 54.255C202.173 53.745 201.748 53.49 201.188 53.49C200.588 53.49 200.143 53.73 199.853 54.21C199.533 54.71 199.373 55.37 199.373 56.19C199.373 56.96 199.498 57.58 199.748 58.05C200.038 58.6 200.513 58.875 201.173 58.875C201.753 58.875 202.193 58.605 202.493 58.065ZM212.599 55.23C212.639 55.64 212.654 56.1 212.644 56.61C212.644 56.71 212.594 56.76 212.494 56.76H207.709C207.669 56.76 207.649 56.78 207.649 56.82C207.649 57.16 207.679 57.42 207.739 57.6C207.849 58 208.069 58.315 208.399 58.545C208.739 58.765 209.164 58.875 209.674 58.875C210.414 58.875 210.984 58.57 211.384 57.96C211.434 57.86 211.499 57.845 211.579 57.915L212.434 58.485C212.504 58.545 212.519 58.61 212.479 58.68C212.199 59.13 211.799 59.485 211.279 59.745C210.769 60.005 210.189 60.135 209.539 60.135C208.809 60.135 208.194 59.975 207.694 59.655C207.194 59.335 206.819 58.88 206.569 58.29C206.329 57.7 206.209 56.985 206.209 56.145C206.209 55.415 206.264 54.86 206.374 54.48C206.554 53.79 206.914 53.245 207.454 52.845C207.994 52.445 208.649 52.245 209.419 52.245C210.429 52.245 211.184 52.5 211.684 53.01C212.184 53.51 212.489 54.25 212.599 55.23ZM209.419 53.49C208.989 53.49 208.634 53.6 208.354 53.82C208.074 54.03 207.884 54.315 207.784 54.675C207.714 54.895 207.669 55.175 207.649 55.515C207.649 55.555 207.669 55.575 207.709 55.575H211.144C211.184 55.575 211.204 55.555 211.204 55.515C211.184 55.185 211.154 54.94 211.114 54.78C211.014 54.39 210.814 54.08 210.514 53.85C210.224 53.61 209.859 53.49 209.419 53.49ZM217.806 52.29C218.126 52.29 218.416 52.355 218.676 52.485C218.746 52.515 218.771 52.575 218.751 52.665L218.511 53.79C218.501 53.88 218.441 53.91 218.331 53.88C218.161 53.81 217.961 53.775 217.731 53.775L217.521 53.79C217.051 53.81 216.661 53.975 216.351 54.285C216.051 54.585 215.901 54.98 215.901 55.47V59.85C215.901 59.95 215.851 60 215.751 60H214.611C214.511 60 214.461 59.95 214.461 59.85V52.515C214.461 52.415 214.511 52.365 214.611 52.365H215.751C215.851 52.365 215.901 52.415 215.901 52.515V53.31C215.901 53.34 215.906 53.36 215.916 53.37C215.936 53.37 215.951 53.36 215.961 53.34C216.411 52.64 217.026 52.29 217.806 52.29ZM222.97 60.12C222.21 60.12 221.56 59.93 221.02 59.55C220.48 59.16 220.11 58.635 219.91 57.975C219.76 57.515 219.685 56.91 219.685 56.16C219.685 55.47 219.76 54.865 219.91 54.345C220.11 53.705 220.48 53.195 221.02 52.815C221.57 52.435 222.22 52.245 222.97 52.245C223.72 52.245 224.375 52.435 224.935 52.815C225.495 53.195 225.86 53.675 226.03 54.255C226.09 54.415 226.13 54.58 226.15 54.75C226.15 54.83 226.105 54.88 226.015 54.9L224.89 55.065H224.86C224.79 55.065 224.74 55.02 224.71 54.93L224.665 54.69C224.585 54.35 224.39 54.065 224.08 53.835C223.77 53.605 223.395 53.49 222.955 53.49C222.525 53.49 222.16 53.605 221.86 53.835C221.56 54.065 221.365 54.37 221.275 54.75C221.185 55.11 221.14 55.585 221.14 56.175C221.14 56.755 221.185 57.225 221.275 57.585C221.375 57.985 221.57 58.3 221.86 58.53C222.16 58.76 222.525 58.875 222.955 58.875C223.395 58.875 223.77 58.76 224.08 58.53C224.4 58.3 224.6 58 224.68 57.63C224.69 57.62 224.69 57.61 224.68 57.6C224.68 57.58 224.685 57.565 224.695 57.555V57.495C224.725 57.415 224.78 57.385 224.86 57.405L225.985 57.585C226.065 57.605 226.105 57.645 226.105 57.705V57.765C226.105 57.855 226.08 57.965 226.03 58.095C225.86 58.705 225.495 59.195 224.935 59.565C224.375 59.935 223.72 60.12 222.97 60.12ZM232.351 52.515C232.351 52.415 232.401 52.365 232.501 52.365H233.626C233.726 52.365 233.776 52.415 233.776 52.515V59.85C233.776 59.95 233.726 60 233.626 60H232.501C232.401 60 232.351 59.95 232.351 59.85V59.295C232.351 59.275 232.341 59.265 232.321 59.265C232.311 59.255 232.296 59.26 232.276 59.28C231.876 59.83 231.261 60.105 230.431 60.105C229.941 60.105 229.486 60.01 229.066 59.82C228.656 59.63 228.326 59.35 228.076 58.98C227.826 58.61 227.701 58.16 227.701 57.63V52.515C227.701 52.415 227.751 52.365 227.851 52.365H228.976C229.076 52.365 229.126 52.415 229.126 52.515V57.18C229.126 57.7 229.261 58.11 229.531 58.41C229.811 58.71 230.201 58.86 230.701 58.86C231.201 58.86 231.601 58.71 231.901 58.41C232.201 58.1 232.351 57.69 232.351 57.18V52.515ZM239.642 53.4C239.642 53.5 239.592 53.55 239.492 53.55H237.872C237.832 53.55 237.812 53.57 237.812 53.61V57.585C237.812 58.005 237.907 58.31 238.097 58.5C238.287 58.68 238.582 58.77 238.982 58.77H239.417C239.517 58.77 239.567 58.82 239.567 58.92V59.85C239.567 59.95 239.517 60 239.417 60C239.097 60.02 238.867 60.03 238.727 60.03C237.967 60.03 237.392 59.895 237.002 59.625C236.622 59.345 236.432 58.835 236.432 58.095V53.61C236.432 53.57 236.412 53.55 236.372 53.55H235.457C235.357 53.55 235.307 53.5 235.307 53.4V52.515C235.307 52.415 235.357 52.365 235.457 52.365H236.372C236.412 52.365 236.432 52.345 236.432 52.305V50.535C236.432 50.435 236.482 50.385 236.582 50.385H237.662C237.762 50.385 237.812 50.435 237.812 50.535V52.305C237.812 52.345 237.832 52.365 237.872 52.365H239.492C239.592 52.365 239.642 52.415 239.642 52.515V53.4ZM250.582 54.345C250.742 54.855 250.822 55.46 250.822 56.16C250.822 56.91 250.727 57.55 250.537 58.08C250.317 58.73 249.967 59.235 249.487 59.595C249.017 59.945 248.422 60.12 247.702 60.12C247.352 60.12 247.027 60.05 246.727 59.91C246.427 59.77 246.167 59.575 245.947 59.325C245.927 59.305 245.907 59.3 245.887 59.31C245.877 59.32 245.872 59.335 245.872 59.355V59.85C245.872 59.95 245.822 60 245.722 60H244.582C244.482 60 244.432 59.95 244.432 59.85V49.65C244.432 49.55 244.482 49.5 244.582 49.5H245.722C245.822 49.5 245.872 49.55 245.872 49.65V52.995C245.872 53.015 245.877 53.03 245.887 53.04C245.907 53.05 245.927 53.045 245.947 53.025C246.167 52.775 246.427 52.585 246.727 52.455C247.037 52.315 247.362 52.245 247.702 52.245C248.452 52.245 249.067 52.43 249.547 52.8C250.027 53.17 250.372 53.685 250.582 54.345ZM248.992 58.05C249.242 57.58 249.367 56.96 249.367 56.19C249.367 55.37 249.207 54.71 248.887 54.21C248.597 53.73 248.152 53.49 247.552 53.49C246.992 53.49 246.567 53.745 246.277 54.255C246.017 54.715 245.887 55.355 245.887 56.175C245.887 56.995 246.007 57.625 246.247 58.065C246.547 58.605 246.987 58.875 247.567 58.875C248.227 58.875 248.702 58.6 248.992 58.05ZM252.278 62.985C252.208 62.985 252.173 62.935 252.173 62.835V61.95C252.173 61.85 252.223 61.8 252.323 61.8H252.353C252.753 61.79 253.068 61.74 253.298 61.65C253.528 61.56 253.718 61.39 253.868 61.14C254.018 60.9 254.163 60.535 254.303 60.045C254.313 60.035 254.313 60.02 254.303 60C254.303 59.97 254.303 59.955 254.303 59.955L251.798 52.53L251.783 52.47C251.783 52.4 251.828 52.365 251.918 52.365H253.133C253.223 52.365 253.283 52.405 253.313 52.485L255.008 58.14C255.018 58.16 255.033 58.17 255.053 58.17C255.073 58.17 255.088 58.16 255.098 58.14L256.778 52.485C256.808 52.405 256.868 52.365 256.958 52.365H258.143C258.253 52.365 258.293 52.42 258.263 52.53L255.533 60.525C255.303 61.215 255.073 61.725 254.843 62.055C254.613 62.395 254.313 62.635 253.943 62.775C253.573 62.915 253.053 62.985 252.383 62.985H252.278ZM262.415 62.985C262.345 62.985 262.31 62.935 262.31 62.835V61.95C262.31 61.85 262.36 61.8 262.46 61.8H262.49C262.89 61.79 263.205 61.74 263.435 61.65C263.665 61.56 263.855 61.39 264.005 61.14C264.155 60.9 264.3 60.535 264.44 60.045C264.45 60.035 264.45 60.02 264.44 60C264.44 59.97 264.44 59.955 264.44 59.955L261.935 52.53L261.92 52.47C261.92 52.4 261.965 52.365 262.055 52.365H263.27C263.36 52.365 263.42 52.405 263.45 52.485L265.145 58.14C265.155 58.16 265.17 58.17 265.19 58.17C265.21 58.17 265.225 58.16 265.235 58.14L266.915 52.485C266.945 52.405 267.005 52.365 267.095 52.365H268.28C268.39 52.365 268.43 52.42 268.4 52.53L265.67 60.525C265.44 61.215 265.21 61.725 264.98 62.055C264.75 62.395 264.45 62.635 264.08 62.775C263.71 62.915 263.19 62.985 262.52 62.985H262.415ZM272.557 60.12C271.817 60.12 271.172 59.935 270.622 59.565C270.072 59.185 269.687 58.66 269.467 57.99C269.287 57.45 269.197 56.84 269.197 56.16C269.197 55.45 269.282 54.85 269.452 54.36C269.672 53.7 270.057 53.185 270.607 52.815C271.157 52.435 271.812 52.245 272.572 52.245C273.292 52.245 273.917 52.435 274.447 52.815C274.987 53.185 275.372 53.695 275.602 54.345C275.782 54.855 275.872 55.455 275.872 56.145C275.872 56.845 275.782 57.46 275.602 57.99C275.382 58.66 275.002 59.185 274.462 59.565C273.922 59.935 273.287 60.12 272.557 60.12ZM272.557 58.875C272.957 58.875 273.307 58.765 273.607 58.545C273.907 58.315 274.122 57.995 274.252 57.585C274.362 57.205 274.417 56.735 274.417 56.175C274.417 55.615 274.367 55.15 274.267 54.78C274.137 54.37 273.922 54.055 273.622 53.835C273.322 53.605 272.957 53.49 272.527 53.49C272.117 53.49 271.762 53.605 271.462 53.835C271.162 54.055 270.947 54.37 270.817 54.78C270.707 55.13 270.652 55.595 270.652 56.175C270.652 56.755 270.707 57.225 270.817 57.585C270.937 57.995 271.147 58.315 271.447 58.545C271.757 58.765 272.127 58.875 272.557 58.875ZM282.302 52.515C282.302 52.415 282.352 52.365 282.452 52.365H283.577C283.677 52.365 283.727 52.415 283.727 52.515V59.85C283.727 59.95 283.677 60 283.577 60H282.452C282.352 60 282.302 59.95 282.302 59.85V59.295C282.302 59.275 282.292 59.265 282.272 59.265C282.262 59.255 282.247 59.26 282.227 59.28C281.827 59.83 281.212 60.105 280.382 60.105C279.892 60.105 279.437 60.01 279.017 59.82C278.607 59.63 278.277 59.35 278.027 58.98C277.777 58.61 277.652 58.16 277.652 57.63V52.515C277.652 52.415 277.702 52.365 277.802 52.365H278.927C279.027 52.365 279.077 52.415 279.077 52.515V57.18C279.077 57.7 279.212 58.11 279.482 58.41C279.762 58.71 280.152 58.86 280.652 58.86C281.152 58.86 281.552 58.71 281.852 58.41C282.152 58.1 282.302 57.69 282.302 57.18V52.515ZM289.173 52.29C289.493 52.29 289.783 52.355 290.043 52.485C290.113 52.515 290.138 52.575 290.118 52.665L289.878 53.79C289.868 53.88 289.808 53.91 289.698 53.88C289.528 53.81 289.328 53.775 289.098 53.775L288.888 53.79C288.418 53.81 288.028 53.975 287.718 54.285C287.418 54.585 287.268 54.98 287.268 55.47V59.85C287.268 59.95 287.218 60 287.118 60H285.978C285.878 60 285.828 59.95 285.828 59.85V52.515C285.828 52.415 285.878 52.365 285.978 52.365H287.118C287.218 52.365 287.268 52.415 287.268 52.515V53.31C287.268 53.34 287.273 53.36 287.283 53.37C287.303 53.37 287.318 53.36 287.328 53.34C287.778 52.64 288.393 52.29 289.173 52.29ZM101.11 80.12C100.35 80.12 99.7 79.93 99.16 79.55C98.62 79.16 98.25 78.635 98.05 77.975C97.9 77.515 97.825 76.91 97.825 76.16C97.825 75.47 97.9 74.865 98.05 74.345C98.25 73.705 98.62 73.195 99.16 72.815C99.71 72.435 100.36 72.245 101.11 72.245C101.86 72.245 102.515 72.435 103.075 72.815C103.635 73.195 104 73.675 104.17 74.255C104.23 74.415 104.27 74.58 104.29 74.75C104.29 74.83 104.245 74.88 104.155 74.9L103.03 75.065H103C102.93 75.065 102.88 75.02 102.85 74.93L102.805 74.69C102.725 74.35 102.53 74.065 102.22 73.835C101.91 73.605 101.535 73.49 101.095 73.49C100.665 73.49 100.3 73.605 100 73.835C99.7 74.065 99.505 74.37 99.415 74.75C99.325 75.11 99.28 75.585 99.28 76.175C99.28 76.755 99.325 77.225 99.415 77.585C99.515 77.985 99.71 78.3 100 78.53C100.3 78.76 100.665 78.875 101.095 78.875C101.535 78.875 101.91 78.76 102.22 78.53C102.54 78.3 102.74 78 102.82 77.63C102.83 77.62 102.83 77.61 102.82 77.6C102.82 77.58 102.825 77.565 102.835 77.555V77.495C102.865 77.415 102.92 77.385 103 77.405L104.125 77.585C104.205 77.605 104.245 77.645 104.245 77.705V77.765C104.245 77.855 104.22 77.965 104.17 78.095C104 78.705 103.635 79.195 103.075 79.565C102.515 79.935 101.86 80.12 101.11 80.12ZM109.007 80.12C108.267 80.12 107.622 79.935 107.072 79.565C106.522 79.185 106.137 78.66 105.917 77.99C105.737 77.45 105.647 76.84 105.647 76.16C105.647 75.45 105.732 74.85 105.902 74.36C106.122 73.7 106.507 73.185 107.057 72.815C107.607 72.435 108.262 72.245 109.022 72.245C109.742 72.245 110.367 72.435 110.897 72.815C111.437 73.185 111.822 73.695 112.052 74.345C112.232 74.855 112.322 75.455 112.322 76.145C112.322 76.845 112.232 77.46 112.052 77.99C111.832 78.66 111.452 79.185 110.912 79.565C110.372 79.935 109.737 80.12 109.007 80.12ZM109.007 78.875C109.407 78.875 109.757 78.765 110.057 78.545C110.357 78.315 110.572 77.995 110.702 77.585C110.812 77.205 110.867 76.735 110.867 76.175C110.867 75.615 110.817 75.15 110.717 74.78C110.587 74.37 110.372 74.055 110.072 73.835C109.772 73.605 109.407 73.49 108.977 73.49C108.567 73.49 108.212 73.605 107.912 73.835C107.612 74.055 107.397 74.37 107.267 74.78C107.157 75.13 107.102 75.595 107.102 76.175C107.102 76.755 107.157 77.225 107.267 77.585C107.387 77.995 107.597 78.315 107.897 78.545C108.207 78.765 108.577 78.875 109.007 78.875ZM122.142 72.26C122.902 72.26 123.502 72.49 123.942 72.95C124.382 73.4 124.602 74.03 124.602 74.84V79.85C124.602 79.95 124.552 80 124.452 80H123.327C123.227 80 123.177 79.95 123.177 79.85V75.14C123.177 74.64 123.037 74.245 122.757 73.955C122.487 73.655 122.122 73.505 121.662 73.505C121.202 73.505 120.827 73.65 120.537 73.94C120.247 74.23 120.102 74.62 120.102 75.11V79.85C120.102 79.95 120.052 80 119.952 80H118.827C118.727 80 118.677 79.95 118.677 79.85V75.14C118.677 74.64 118.537 74.245 118.257 73.955C117.987 73.655 117.622 73.505 117.162 73.505C116.702 73.505 116.332 73.65 116.052 73.94C115.782 74.23 115.647 74.62 115.647 75.11V79.85C115.647 79.95 115.597 80 115.497 80H114.357C114.257 80 114.207 79.95 114.207 79.85V72.515C114.207 72.415 114.257 72.365 114.357 72.365H115.497C115.597 72.365 115.647 72.415 115.647 72.515V73.025C115.647 73.045 115.652 73.06 115.662 73.07C115.682 73.08 115.702 73.075 115.722 73.055C116.162 72.525 116.802 72.26 117.642 72.26C118.152 72.26 118.587 72.36 118.947 72.56C119.307 72.75 119.587 73.035 119.787 73.415C119.817 73.455 119.847 73.455 119.877 73.415C120.117 73.025 120.432 72.735 120.822 72.545C121.222 72.355 121.662 72.26 122.142 72.26ZM132.795 74.285C132.985 74.825 133.08 75.465 133.08 76.205C133.08 76.905 133 77.51 132.84 78.02C132.63 78.69 132.285 79.21 131.805 79.58C131.325 79.94 130.71 80.12 129.96 80.12C129.62 80.12 129.295 80.055 128.985 79.925C128.685 79.785 128.425 79.59 128.205 79.34C128.185 79.32 128.165 79.315 128.145 79.325C128.135 79.335 128.13 79.35 128.13 79.37V82.715C128.13 82.815 128.08 82.865 127.98 82.865H126.84C126.74 82.865 126.69 82.815 126.69 82.715V72.515C126.69 72.415 126.74 72.365 126.84 72.365H127.98C128.08 72.365 128.13 72.415 128.13 72.515V73.01C128.13 73.03 128.135 73.045 128.145 73.055C128.165 73.065 128.185 73.06 128.205 73.04C128.425 72.79 128.685 72.595 128.985 72.455C129.285 72.315 129.61 72.245 129.96 72.245C130.68 72.245 131.275 72.425 131.745 72.785C132.225 73.135 132.575 73.635 132.795 74.285ZM131.145 78.155C131.465 77.675 131.625 77.015 131.625 76.175C131.625 75.405 131.5 74.785 131.25 74.315C130.96 73.765 130.485 73.49 129.825 73.49C129.245 73.49 128.805 73.76 128.505 74.3C128.265 74.73 128.145 75.36 128.145 76.19C128.145 77.03 128.275 77.67 128.535 78.11C128.825 78.62 129.25 78.875 129.81 78.875C130.41 78.875 130.855 78.635 131.145 78.155ZM141.056 75.23C141.096 75.64 141.111 76.1 141.101 76.61C141.101 76.71 141.051 76.76 140.951 76.76H136.166C136.126 76.76 136.106 76.78 136.106 76.82C136.106 77.16 136.136 77.42 136.196 77.6C136.306 78 136.526 78.315 136.856 78.545C137.196 78.765 137.621 78.875 138.131 78.875C138.871 78.875 139.441 78.57 139.841 77.96C139.891 77.86 139.956 77.845 140.036 77.915L140.891 78.485C140.961 78.545 140.976 78.61 140.936 78.68C140.656 79.13 140.256 79.485 139.736 79.745C139.226 80.005 138.646 80.135 137.996 80.135C137.266 80.135 136.651 79.975 136.151 79.655C135.651 79.335 135.276 78.88 135.026 78.29C134.786 77.7 134.666 76.985 134.666 76.145C134.666 75.415 134.721 74.86 134.831 74.48C135.011 73.79 135.371 73.245 135.911 72.845C136.451 72.445 137.106 72.245 137.876 72.245C138.886 72.245 139.641 72.5 140.141 73.01C140.641 73.51 140.946 74.25 141.056 75.23ZM137.876 73.49C137.446 73.49 137.091 73.6 136.811 73.82C136.531 74.03 136.341 74.315 136.241 74.675C136.171 74.895 136.126 75.175 136.106 75.515C136.106 75.555 136.126 75.575 136.166 75.575H139.601C139.641 75.575 139.661 75.555 139.661 75.515C139.641 75.185 139.611 74.94 139.571 74.78C139.471 74.39 139.271 74.08 138.971 73.85C138.681 73.61 138.316 73.49 137.876 73.49ZM146.566 73.4C146.566 73.5 146.516 73.55 146.416 73.55H144.796C144.756 73.55 144.736 73.57 144.736 73.61V77.585C144.736 78.005 144.831 78.31 145.021 78.5C145.211 78.68 145.506 78.77 145.906 78.77H146.341C146.441 78.77 146.491 78.82 146.491 78.92V79.85C146.491 79.95 146.441 80 146.341 80C146.021 80.02 145.791 80.03 145.651 80.03C144.891 80.03 144.316 79.895 143.926 79.625C143.546 79.345 143.356 78.835 143.356 78.095V73.61C143.356 73.57 143.336 73.55 143.296 73.55H142.381C142.281 73.55 142.231 73.5 142.231 73.4V72.515C142.231 72.415 142.281 72.365 142.381 72.365H143.296C143.336 72.365 143.356 72.345 143.356 72.305V70.535C143.356 70.435 143.406 70.385 143.506 70.385H144.586C144.686 70.385 144.736 70.435 144.736 70.535V72.305C144.736 72.345 144.756 72.365 144.796 72.365H146.416C146.516 72.365 146.566 72.415 146.566 72.515V73.4ZM149.208 71.165C148.928 71.165 148.698 71.075 148.518 70.895C148.338 70.715 148.248 70.485 148.248 70.205C148.248 69.925 148.338 69.695 148.518 69.515C148.698 69.335 148.928 69.245 149.208 69.245C149.488 69.245 149.718 69.335 149.898 69.515C150.078 69.695 150.168 69.925 150.168 70.205C150.168 70.485 150.078 70.715 149.898 70.895C149.718 71.075 149.488 71.165 149.208 71.165ZM148.608 79.985C148.508 79.985 148.458 79.935 148.458 79.835V72.515C148.458 72.415 148.508 72.365 148.608 72.365H149.748C149.848 72.365 149.898 72.415 149.898 72.515V79.835C149.898 79.935 149.848 79.985 149.748 79.985H148.608ZM155.926 73.4C155.926 73.5 155.876 73.55 155.776 73.55H154.156C154.116 73.55 154.096 73.57 154.096 73.61V77.585C154.096 78.005 154.191 78.31 154.381 78.5C154.571 78.68 154.866 78.77 155.266 78.77H155.701C155.801 78.77 155.851 78.82 155.851 78.92V79.85C155.851 79.95 155.801 80 155.701 80C155.381 80.02 155.151 80.03 155.011 80.03C154.251 80.03 153.676 79.895 153.286 79.625C152.906 79.345 152.716 78.835 152.716 78.095V73.61C152.716 73.57 152.696 73.55 152.656 73.55H151.741C151.641 73.55 151.591 73.5 151.591 73.4V72.515C151.591 72.415 151.641 72.365 151.741 72.365H152.656C152.696 72.365 152.716 72.345 152.716 72.305V70.535C152.716 70.435 152.766 70.385 152.866 70.385H153.946C154.046 70.385 154.096 70.435 154.096 70.535V72.305C154.096 72.345 154.116 72.365 154.156 72.365H155.776C155.876 72.365 155.926 72.415 155.926 72.515V73.4ZM158.568 71.165C158.288 71.165 158.058 71.075 157.878 70.895C157.698 70.715 157.608 70.485 157.608 70.205C157.608 69.925 157.698 69.695 157.878 69.515C158.058 69.335 158.288 69.245 158.568 69.245C158.848 69.245 159.078 69.335 159.258 69.515C159.438 69.695 159.528 69.925 159.528 70.205C159.528 70.485 159.438 70.715 159.258 70.895C159.078 71.075 158.848 71.165 158.568 71.165ZM157.968 79.985C157.868 79.985 157.818 79.935 157.818 79.835V72.515C157.818 72.415 157.868 72.365 157.968 72.365H159.108C159.208 72.365 159.258 72.415 159.258 72.515V79.835C159.258 79.935 159.208 79.985 159.108 79.985H157.968ZM164.642 80.12C163.902 80.12 163.257 79.935 162.707 79.565C162.157 79.185 161.772 78.66 161.552 77.99C161.372 77.45 161.282 76.84 161.282 76.16C161.282 75.45 161.367 74.85 161.537 74.36C161.757 73.7 162.142 73.185 162.692 72.815C163.242 72.435 163.897 72.245 164.657 72.245C165.377 72.245 166.002 72.435 166.532 72.815C167.072 73.185 167.457 73.695 167.687 74.345C167.867 74.855 167.957 75.455 167.957 76.145C167.957 76.845 167.867 77.46 167.687 77.99C167.467 78.66 167.087 79.185 166.547 79.565C166.007 79.935 165.372 80.12 164.642 80.12ZM164.642 78.875C165.042 78.875 165.392 78.765 165.692 78.545C165.992 78.315 166.207 77.995 166.337 77.585C166.447 77.205 166.502 76.735 166.502 76.175C166.502 75.615 166.452 75.15 166.352 74.78C166.222 74.37 166.007 74.055 165.707 73.835C165.407 73.605 165.042 73.49 164.612 73.49C164.202 73.49 163.847 73.605 163.547 73.835C163.247 74.055 163.032 74.37 162.902 74.78C162.792 75.13 162.737 75.595 162.737 76.175C162.737 76.755 162.792 77.225 162.902 77.585C163.022 77.995 163.232 78.315 163.532 78.545C163.842 78.765 164.212 78.875 164.642 78.875ZM173.247 72.26C174.067 72.26 174.717 72.5 175.197 72.98C175.677 73.45 175.917 74.09 175.917 74.9V79.85C175.917 79.95 175.867 80 175.767 80H174.627C174.527 80 174.477 79.95 174.477 79.85V75.185C174.477 74.685 174.332 74.28 174.042 73.97C173.752 73.66 173.367 73.505 172.887 73.505C172.417 73.505 172.032 73.66 171.732 73.97C171.432 74.28 171.282 74.68 171.282 75.17V79.85C171.282 79.95 171.232 80 171.132 80H169.992C169.892 80 169.842 79.95 169.842 79.85V72.515C169.842 72.415 169.892 72.365 169.992 72.365H171.132C171.232 72.365 171.282 72.415 171.282 72.515V73.055C171.282 73.075 171.287 73.09 171.297 73.1C171.317 73.11 171.332 73.105 171.342 73.085C171.772 72.535 172.407 72.26 173.247 72.26ZM179.697 76.88C179.597 76.88 179.547 76.83 179.547 76.73V75.98C179.547 75.53 179.662 75.16 179.892 74.87C180.122 74.58 180.457 74.27 180.897 73.94C181.307 73.63 181.617 73.35 181.827 73.1C182.037 72.85 182.142 72.53 182.142 72.14C182.142 71.69 181.992 71.335 181.692 71.075C181.402 70.805 181.017 70.67 180.537 70.67C180.047 70.67 179.652 70.81 179.352 71.09C179.052 71.36 178.902 71.72 178.902 72.17V72.56C178.902 72.66 178.852 72.71 178.752 72.71L177.612 72.65C177.512 72.65 177.462 72.6 177.462 72.5V72.17C177.462 71.62 177.592 71.135 177.852 70.715C178.112 70.285 178.477 69.955 178.947 69.725C179.427 69.485 179.972 69.365 180.582 69.365C181.492 69.365 182.222 69.615 182.772 70.115C183.322 70.615 183.597 71.275 183.597 72.095C183.597 72.535 183.522 72.915 183.372 73.235C183.222 73.555 183.042 73.82 182.832 74.03C182.622 74.23 182.352 74.45 182.022 74.69C181.672 74.95 181.412 75.175 181.242 75.365C181.082 75.555 181.002 75.785 181.002 76.055V76.73C181.002 76.83 180.952 76.88 180.852 76.88H179.697ZM180.237 79.985C179.957 79.985 179.727 79.895 179.547 79.715C179.367 79.535 179.277 79.305 179.277 79.025C179.277 78.745 179.367 78.515 179.547 78.335C179.727 78.155 179.957 78.065 180.237 78.065C180.517 78.065 180.747 78.155 180.927 78.335C181.107 78.515 181.197 78.745 181.197 79.025C181.197 79.305 181.107 79.535 180.927 79.715C180.747 79.895 180.517 79.985 180.237 79.985ZM196.989 74.525C196.939 74.555 196.939 74.585 196.989 74.615C198.049 75.065 198.579 75.9 198.579 77.12C198.579 78.04 198.274 78.75 197.664 79.25C197.054 79.75 196.259 80 195.279 80H191.544C191.444 80 191.394 79.95 191.394 79.85V69.65C191.394 69.55 191.444 69.5 191.544 69.5H195.159C196.199 69.5 197.004 69.74 197.574 70.22C198.154 70.69 198.444 71.38 198.444 72.29C198.444 73.37 197.959 74.115 196.989 74.525ZM192.894 70.745C192.854 70.745 192.834 70.765 192.834 70.805V73.97C192.834 74.01 192.854 74.03 192.894 74.03H195.159C195.739 74.03 196.194 73.885 196.524 73.595C196.864 73.305 197.034 72.91 197.034 72.41C197.034 71.9 196.864 71.495 196.524 71.195C196.194 70.895 195.739 70.745 195.159 70.745H192.894ZM195.279 78.74C195.849 78.74 196.299 78.585 196.629 78.275C196.969 77.955 197.139 77.525 197.139 76.985C197.139 76.445 196.969 76.02 196.629 75.71C196.289 75.39 195.824 75.23 195.234 75.23H192.894C192.854 75.23 192.834 75.25 192.834 75.29V78.68C192.834 78.72 192.854 78.74 192.894 78.74H195.279ZM206.754 75.23C206.794 75.64 206.809 76.1 206.799 76.61C206.799 76.71 206.749 76.76 206.649 76.76H201.864C201.824 76.76 201.804 76.78 201.804 76.82C201.804 77.16 201.834 77.42 201.894 77.6C202.004 78 202.224 78.315 202.554 78.545C202.894 78.765 203.319 78.875 203.829 78.875C204.569 78.875 205.139 78.57 205.539 77.96C205.589 77.86 205.654 77.845 205.734 77.915L206.589 78.485C206.659 78.545 206.674 78.61 206.634 78.68C206.354 79.13 205.954 79.485 205.434 79.745C204.924 80.005 204.344 80.135 203.694 80.135C202.964 80.135 202.349 79.975 201.849 79.655C201.349 79.335 200.974 78.88 200.724 78.29C200.484 77.7 200.364 76.985 200.364 76.145C200.364 75.415 200.419 74.86 200.529 74.48C200.709 73.79 201.069 73.245 201.609 72.845C202.149 72.445 202.804 72.245 203.574 72.245C204.584 72.245 205.339 72.5 205.839 73.01C206.339 73.51 206.644 74.25 206.754 75.23ZM203.574 73.49C203.144 73.49 202.789 73.6 202.509 73.82C202.229 74.03 202.039 74.315 201.939 74.675C201.869 74.895 201.824 75.175 201.804 75.515C201.804 75.555 201.824 75.575 201.864 75.575H205.299C205.339 75.575 205.359 75.555 205.359 75.515C205.339 75.185 205.309 74.94 205.269 74.78C205.169 74.39 204.969 74.08 204.669 73.85C204.379 73.61 204.014 73.49 203.574 73.49ZM215.384 73.4C215.384 73.5 215.334 73.55 215.234 73.55H213.614C213.574 73.55 213.554 73.57 213.554 73.61V77.585C213.554 78.005 213.649 78.31 213.839 78.5C214.029 78.68 214.324 78.77 214.724 78.77H215.159C215.259 78.77 215.309 78.82 215.309 78.92V79.85C215.309 79.95 215.259 80 215.159 80C214.839 80.02 214.609 80.03 214.469 80.03C213.709 80.03 213.134 79.895 212.744 79.625C212.364 79.345 212.174 78.835 212.174 78.095V73.61C212.174 73.57 212.154 73.55 212.114 73.55H211.199C211.099 73.55 211.049 73.5 211.049 73.4V72.515C211.049 72.415 211.099 72.365 211.199 72.365H212.114C212.154 72.365 212.174 72.345 212.174 72.305V70.535C212.174 70.435 212.224 70.385 212.324 70.385H213.404C213.504 70.385 213.554 70.435 213.554 70.535V72.305C213.554 72.345 213.574 72.365 213.614 72.365H215.234C215.334 72.365 215.384 72.415 215.384 72.515V73.4ZM220.561 72.26C221.381 72.26 222.031 72.5 222.511 72.98C222.991 73.45 223.231 74.09 223.231 74.9V79.85C223.231 79.95 223.181 80 223.081 80H221.941C221.841 80 221.791 79.95 221.791 79.85V75.185C221.791 74.685 221.646 74.28 221.356 73.97C221.066 73.66 220.681 73.505 220.201 73.505C219.731 73.505 219.346 73.66 219.046 73.97C218.746 74.28 218.596 74.68 218.596 75.17V79.85C218.596 79.95 218.546 80 218.446 80H217.306C217.206 80 217.156 79.95 217.156 79.85V69.65C217.156 69.55 217.206 69.5 217.306 69.5H218.446C218.546 69.5 218.596 69.55 218.596 69.65V73.055C218.596 73.075 218.601 73.09 218.611 73.1C218.631 73.11 218.646 73.105 218.656 73.085C219.086 72.535 219.721 72.26 220.561 72.26ZM231.378 75.23C231.418 75.64 231.433 76.1 231.423 76.61C231.423 76.71 231.373 76.76 231.273 76.76H226.488C226.448 76.76 226.428 76.78 226.428 76.82C226.428 77.16 226.458 77.42 226.518 77.6C226.628 78 226.848 78.315 227.178 78.545C227.518 78.765 227.943 78.875 228.453 78.875C229.193 78.875 229.763 78.57 230.163 77.96C230.213 77.86 230.278 77.845 230.358 77.915L231.213 78.485C231.283 78.545 231.298 78.61 231.258 78.68C230.978 79.13 230.578 79.485 230.058 79.745C229.548 80.005 228.968 80.135 228.318 80.135C227.588 80.135 226.973 79.975 226.473 79.655C225.973 79.335 225.598 78.88 225.348 78.29C225.108 77.7 224.988 76.985 224.988 76.145C224.988 75.415 225.043 74.86 225.153 74.48C225.333 73.79 225.693 73.245 226.233 72.845C226.773 72.445 227.428 72.245 228.198 72.245C229.208 72.245 229.963 72.5 230.463 73.01C230.963 73.51 231.268 74.25 231.378 75.23ZM228.198 73.49C227.768 73.49 227.413 73.6 227.133 73.82C226.853 74.03 226.663 74.315 226.563 74.675C226.493 74.895 226.448 75.175 226.428 75.515C226.428 75.555 226.448 75.575 226.488 75.575H229.923C229.963 75.575 229.983 75.555 229.983 75.515C229.963 75.185 229.933 74.94 229.893 74.78C229.793 74.39 229.593 74.08 229.293 73.85C229.003 73.61 228.638 73.49 228.198 73.49ZM239.603 70.76C239.103 70.76 238.763 70.855 238.583 71.045C238.403 71.235 238.313 71.595 238.313 72.125V72.305C238.313 72.345 238.333 72.365 238.373 72.365H239.948C240.048 72.365 240.098 72.415 240.098 72.515V73.535C240.098 73.635 240.048 73.685 239.948 73.685H238.373C238.333 73.685 238.313 73.705 238.313 73.745V79.85C238.313 79.95 238.263 80 238.163 80H237.023C236.923 80 236.873 79.95 236.873 79.85V73.745C236.873 73.705 236.853 73.685 236.813 73.685H235.808C235.708 73.685 235.658 73.635 235.658 73.535V72.515C235.658 72.415 235.708 72.365 235.808 72.365H236.813C236.853 72.365 236.873 72.345 236.873 72.305V72.035C236.873 71.375 236.948 70.865 237.098 70.505C237.258 70.145 237.523 69.89 237.893 69.74C238.263 69.58 238.783 69.5 239.453 69.5H239.963C240.063 69.5 240.113 69.55 240.113 69.65V70.61C240.113 70.71 240.063 70.76 239.963 70.76H239.603ZM242.618 71.165C242.338 71.165 242.108 71.075 241.928 70.895C241.748 70.715 241.658 70.485 241.658 70.205C241.658 69.925 241.748 69.695 241.928 69.515C242.108 69.335 242.338 69.245 242.618 69.245C242.898 69.245 243.128 69.335 243.308 69.515C243.488 69.695 243.578 69.925 243.578 70.205C243.578 70.485 243.488 70.715 243.308 70.895C243.128 71.075 242.898 71.165 242.618 71.165ZM242.018 79.985C241.918 79.985 241.868 79.935 241.868 79.835V72.515C241.868 72.415 241.918 72.365 242.018 72.365H243.158C243.258 72.365 243.308 72.415 243.308 72.515V79.835C243.308 79.935 243.258 79.985 243.158 79.985H242.018ZM248.919 72.29C249.239 72.29 249.529 72.355 249.789 72.485C249.859 72.515 249.884 72.575 249.864 72.665L249.624 73.79C249.614 73.88 249.554 73.91 249.444 73.88C249.274 73.81 249.074 73.775 248.844 73.775L248.634 73.79C248.164 73.81 247.774 73.975 247.464 74.285C247.164 74.585 247.014 74.98 247.014 75.47V79.85C247.014 79.95 246.964 80 246.864 80H245.724C245.624 80 245.574 79.95 245.574 79.85V72.515C245.574 72.415 245.624 72.365 245.724 72.365H246.864C246.964 72.365 247.014 72.415 247.014 72.515V73.31C247.014 73.34 247.019 73.36 247.029 73.37C247.049 73.37 247.064 73.36 247.074 73.34C247.524 72.64 248.139 72.29 248.919 72.29ZM253.753 80.09C253.153 80.09 252.623 80 252.163 79.82C251.713 79.64 251.363 79.395 251.113 79.085C250.863 78.765 250.738 78.415 250.738 78.035V77.87C250.738 77.77 250.788 77.72 250.888 77.72H251.968C252.068 77.72 252.118 77.77 252.118 77.87V77.945C252.118 78.225 252.268 78.47 252.568 78.68C252.878 78.89 253.268 78.995 253.738 78.995C254.188 78.995 254.553 78.9 254.833 78.71C255.113 78.51 255.253 78.26 255.253 77.96C255.253 77.67 255.123 77.455 254.863 77.315C254.603 77.165 254.183 77.01 253.603 76.85C253.033 76.69 252.553 76.53 252.163 76.37C251.783 76.2 251.458 75.965 251.188 75.665C250.928 75.355 250.798 74.96 250.798 74.48C250.798 73.81 251.058 73.28 251.578 72.89C252.108 72.49 252.808 72.29 253.678 72.29C254.258 72.29 254.768 72.385 255.208 72.575C255.658 72.755 256.003 73.01 256.243 73.34C256.483 73.67 256.603 74.04 256.603 74.45V74.495C256.603 74.595 256.553 74.645 256.453 74.645H255.403C255.303 74.645 255.253 74.595 255.253 74.495V74.45C255.253 74.16 255.108 73.92 254.818 73.73C254.538 73.53 254.153 73.43 253.663 73.43C253.223 73.43 252.863 73.515 252.583 73.685C252.313 73.855 252.178 74.085 252.178 74.375C252.178 74.665 252.308 74.885 252.568 75.035C252.838 75.185 253.268 75.345 253.858 75.515C254.438 75.675 254.918 75.835 255.298 75.995C255.688 76.145 256.018 76.375 256.288 76.685C256.558 76.985 256.693 77.38 256.693 77.87C256.693 78.55 256.423 79.09 255.883 79.49C255.353 79.89 254.643 80.09 253.753 80.09ZM262.128 73.4C262.128 73.5 262.078 73.55 261.978 73.55H260.358C260.318 73.55 260.298 73.57 260.298 73.61V77.585C260.298 78.005 260.393 78.31 260.583 78.5C260.773 78.68 261.068 78.77 261.468 78.77H261.903C262.003 78.77 262.053 78.82 262.053 78.92V79.85C262.053 79.95 262.003 80 261.903 80C261.583 80.02 261.353 80.03 261.213 80.03C260.453 80.03 259.878 79.895 259.488 79.625C259.108 79.345 258.918 78.835 258.918 78.095V73.61C258.918 73.57 258.898 73.55 258.858 73.55H257.943C257.843 73.55 257.793 73.5 257.793 73.4V72.515C257.793 72.415 257.843 72.365 257.943 72.365H258.858C258.898 72.365 258.918 72.345 258.918 72.305V70.535C258.918 70.435 258.968 70.385 259.068 70.385H260.148C260.248 70.385 260.298 70.435 260.298 70.535V72.305C260.298 72.345 260.318 72.365 260.358 72.365H261.978C262.078 72.365 262.128 72.415 262.128 72.515V73.4ZM270.023 80.12C269.283 80.12 268.638 79.935 268.088 79.565C267.538 79.185 267.153 78.66 266.933 77.99C266.753 77.45 266.663 76.84 266.663 76.16C266.663 75.45 266.748 74.85 266.918 74.36C267.138 73.7 267.523 73.185 268.073 72.815C268.623 72.435 269.278 72.245 270.038 72.245C270.758 72.245 271.383 72.435 271.913 72.815C272.453 73.185 272.838 73.695 273.068 74.345C273.248 74.855 273.338 75.455 273.338 76.145C273.338 76.845 273.248 77.46 273.068 77.99C272.848 78.66 272.468 79.185 271.928 79.565C271.388 79.935 270.753 80.12 270.023 80.12ZM270.023 78.875C270.423 78.875 270.773 78.765 271.073 78.545C271.373 78.315 271.588 77.995 271.718 77.585C271.828 77.205 271.883 76.735 271.883 76.175C271.883 75.615 271.833 75.15 271.733 74.78C271.603 74.37 271.388 74.055 271.088 73.835C270.788 73.605 270.423 73.49 269.993 73.49C269.583 73.49 269.228 73.605 268.928 73.835C268.628 74.055 268.413 74.37 268.283 74.78C268.173 75.13 268.118 75.595 268.118 76.175C268.118 76.755 268.173 77.225 268.283 77.585C268.403 77.995 268.613 78.315 268.913 78.545C269.223 78.765 269.593 78.875 270.023 78.875ZM278.628 72.26C279.448 72.26 280.098 72.5 280.578 72.98C281.058 73.45 281.298 74.09 281.298 74.9V79.85C281.298 79.95 281.248 80 281.148 80H280.008C279.908 80 279.858 79.95 279.858 79.85V75.185C279.858 74.685 279.713 74.28 279.423 73.97C279.133 73.66 278.748 73.505 278.268 73.505C277.798 73.505 277.413 73.66 277.113 73.97C276.813 74.28 276.663 74.68 276.663 75.17V79.85C276.663 79.95 276.613 80 276.513 80H275.373C275.273 80 275.223 79.95 275.223 79.85V72.515C275.223 72.415 275.273 72.365 275.373 72.365H276.513C276.613 72.365 276.663 72.415 276.663 72.515V73.055C276.663 73.075 276.668 73.09 276.678 73.1C276.698 73.11 276.713 73.105 276.723 73.085C277.153 72.535 277.788 72.26 278.628 72.26ZM289.445 75.23C289.485 75.64 289.5 76.1 289.49 76.61C289.49 76.71 289.44 76.76 289.34 76.76H284.555C284.515 76.76 284.495 76.78 284.495 76.82C284.495 77.16 284.525 77.42 284.585 77.6C284.695 78 284.915 78.315 285.245 78.545C285.585 78.765 286.01 78.875 286.52 78.875C287.26 78.875 287.83 78.57 288.23 77.96C288.28 77.86 288.345 77.845 288.425 77.915L289.28 78.485C289.35 78.545 289.365 78.61 289.325 78.68C289.045 79.13 288.645 79.485 288.125 79.745C287.615 80.005 287.035 80.135 286.385 80.135C285.655 80.135 285.04 79.975 284.54 79.655C284.04 79.335 283.665 78.88 283.415 78.29C283.175 77.7 283.055 76.985 283.055 76.145C283.055 75.415 283.11 74.86 283.22 74.48C283.4 73.79 283.76 73.245 284.3 72.845C284.84 72.445 285.495 72.245 286.265 72.245C287.275 72.245 288.03 72.5 288.53 73.01C289.03 73.51 289.335 74.25 289.445 75.23ZM286.265 73.49C285.835 73.49 285.48 73.6 285.2 73.82C284.92 74.03 284.73 74.315 284.63 74.675C284.56 74.895 284.515 75.175 284.495 75.515C284.495 75.555 284.515 75.575 284.555 75.575H287.99C288.03 75.575 288.05 75.555 288.05 75.515C288.03 75.185 288 74.94 287.96 74.78C287.86 74.39 287.66 74.08 287.36 73.85C287.07 73.61 286.705 73.49 286.265 73.49ZM298.075 73.4C298.075 73.5 298.025 73.55 297.925 73.55H296.305C296.265 73.55 296.245 73.57 296.245 73.61V77.585C296.245 78.005 296.34 78.31 296.53 78.5C296.72 78.68 297.015 78.77 297.415 78.77H297.85C297.95 78.77 298 78.82 298 78.92V79.85C298 79.95 297.95 80 297.85 80C297.53 80.02 297.3 80.03 297.16 80.03C296.4 80.03 295.825 79.895 295.435 79.625C295.055 79.345 294.865 78.835 294.865 78.095V73.61C294.865 73.57 294.845 73.55 294.805 73.55H293.89C293.79 73.55 293.74 73.5 293.74 73.4V72.515C293.74 72.415 293.79 72.365 293.89 72.365H294.805C294.845 72.365 294.865 72.345 294.865 72.305V70.535C294.865 70.435 294.915 70.385 295.015 70.385H296.095C296.195 70.385 296.245 70.435 296.245 70.535V72.305C296.245 72.345 296.265 72.365 296.305 72.365H297.925C298.025 72.365 298.075 72.415 298.075 72.515V73.4ZM302.791 80.12C302.051 80.12 301.406 79.935 300.856 79.565C300.306 79.185 299.921 78.66 299.701 77.99C299.521 77.45 299.431 76.84 299.431 76.16C299.431 75.45 299.516 74.85 299.686 74.36C299.906 73.7 300.291 73.185 300.841 72.815C301.391 72.435 302.046 72.245 302.806 72.245C303.526 72.245 304.151 72.435 304.681 72.815C305.221 73.185 305.606 73.695 305.836 74.345C306.016 74.855 306.106 75.455 306.106 76.145C306.106 76.845 306.016 77.46 305.836 77.99C305.616 78.66 305.236 79.185 304.696 79.565C304.156 79.935 303.521 80.12 302.791 80.12ZM302.791 78.875C303.191 78.875 303.541 78.765 303.841 78.545C304.141 78.315 304.356 77.995 304.486 77.585C304.596 77.205 304.651 76.735 304.651 76.175C304.651 75.615 304.601 75.15 304.501 74.78C304.371 74.37 304.156 74.055 303.856 73.835C303.556 73.605 303.191 73.49 302.761 73.49C302.351 73.49 301.996 73.605 301.696 73.835C301.396 74.055 301.181 74.37 301.051 74.78C300.941 75.13 300.886 75.595 300.886 76.175C300.886 76.755 300.941 77.225 301.051 77.585C301.171 77.995 301.381 78.315 301.681 78.545C301.991 78.765 302.361 78.875 302.791 78.875ZM314.759 73.4C314.759 73.5 314.709 73.55 314.609 73.55H312.989C312.949 73.55 312.929 73.57 312.929 73.61V77.585C312.929 78.005 313.024 78.31 313.214 78.5C313.404 78.68 313.699 78.77 314.099 78.77H314.534C314.634 78.77 314.684 78.82 314.684 78.92V79.85C314.684 79.95 314.634 80 314.534 80C314.214 80.02 313.984 80.03 313.844 80.03C313.084 80.03 312.509 79.895 312.119 79.625C311.739 79.345 311.549 78.835 311.549 78.095V73.61C311.549 73.57 311.529 73.55 311.489 73.55H310.574C310.474 73.55 310.424 73.5 310.424 73.4V72.515C310.424 72.415 310.474 72.365 310.574 72.365H311.489C311.529 72.365 311.549 72.345 311.549 72.305V70.535C311.549 70.435 311.599 70.385 311.699 70.385H312.779C312.879 70.385 312.929 70.435 312.929 70.535V72.305C312.929 72.345 312.949 72.365 312.989 72.365H314.609C314.709 72.365 314.759 72.415 314.759 72.515V73.4ZM319.936 72.26C320.756 72.26 321.406 72.5 321.886 72.98C322.366 73.45 322.606 74.09 322.606 74.9V79.85C322.606 79.95 322.556 80 322.456 80H321.316C321.216 80 321.166 79.95 321.166 79.85V75.185C321.166 74.685 321.021 74.28 320.731 73.97C320.441 73.66 320.056 73.505 319.576 73.505C319.106 73.505 318.721 73.66 318.421 73.97C318.121 74.28 317.971 74.68 317.971 75.17V79.85C317.971 79.95 317.921 80 317.821 80H316.681C316.581 80 316.531 79.95 316.531 79.85V69.65C316.531 69.55 316.581 69.5 316.681 69.5H317.821C317.921 69.5 317.971 69.55 317.971 69.65V73.055C317.971 73.075 317.976 73.09 317.986 73.1C318.006 73.11 318.021 73.105 318.031 73.085C318.461 72.535 319.096 72.26 319.936 72.26ZM330.753 75.23C330.793 75.64 330.808 76.1 330.798 76.61C330.798 76.71 330.748 76.76 330.648 76.76H325.863C325.823 76.76 325.803 76.78 325.803 76.82C325.803 77.16 325.833 77.42 325.893 77.6C326.003 78 326.223 78.315 326.553 78.545C326.893 78.765 327.318 78.875 327.828 78.875C328.568 78.875 329.138 78.57 329.538 77.96C329.588 77.86 329.653 77.845 329.733 77.915L330.588 78.485C330.658 78.545 330.673 78.61 330.633 78.68C330.353 79.13 329.953 79.485 329.433 79.745C328.923 80.005 328.343 80.135 327.693 80.135C326.963 80.135 326.348 79.975 325.848 79.655C325.348 79.335 324.973 78.88 324.723 78.29C324.483 77.7 324.363 76.985 324.363 76.145C324.363 75.415 324.418 74.86 324.528 74.48C324.708 73.79 325.068 73.245 325.608 72.845C326.148 72.445 326.803 72.245 327.573 72.245C328.583 72.245 329.338 72.5 329.838 73.01C330.338 73.51 330.643 74.25 330.753 75.23ZM327.573 73.49C327.143 73.49 326.788 73.6 326.508 73.82C326.228 74.03 326.038 74.315 325.938 74.675C325.868 74.895 325.823 75.175 325.803 75.515C325.803 75.555 325.823 75.575 325.863 75.575H329.298C329.338 75.575 329.358 75.555 329.358 75.515C329.338 75.185 329.308 74.94 329.268 74.78C329.168 74.39 328.968 74.08 328.668 73.85C328.378 73.61 328.013 73.49 327.573 73.49ZM102.79 89.65C102.79 89.55 102.84 89.5 102.94 89.5H104.08C104.18 89.5 104.23 89.55 104.23 89.65V99.85C104.23 99.95 104.18 100 104.08 100H102.94C102.84 100 102.79 99.95 102.79 99.85V99.355C102.79 99.335 102.78 99.32 102.76 99.31C102.75 99.3 102.735 99.305 102.715 99.325C102.495 99.575 102.235 99.77 101.935 99.91C101.635 100.05 101.31 100.12 100.96 100.12C100.24 100.12 99.64 99.945 99.16 99.595C98.69 99.235 98.345 98.73 98.125 98.08C97.935 97.55 97.84 96.91 97.84 96.16C97.84 95.46 97.92 94.855 98.08 94.345C98.29 93.685 98.635 93.17 99.115 92.8C99.595 92.43 100.21 92.245 100.96 92.245C101.3 92.245 101.62 92.315 101.92 92.455C102.23 92.585 102.495 92.775 102.715 93.025C102.735 93.045 102.75 93.05 102.76 93.04C102.78 93.03 102.79 93.015 102.79 92.995V89.65ZM102.415 98.065C102.645 97.645 102.76 97.015 102.76 96.175C102.76 95.335 102.635 94.695 102.385 94.255C102.095 93.745 101.67 93.49 101.11 93.49C100.51 93.49 100.065 93.73 99.775 94.21C99.455 94.71 99.295 95.37 99.295 96.19C99.295 96.96 99.42 97.58 99.67 98.05C99.96 98.6 100.435 98.875 101.095 98.875C101.675 98.875 102.115 98.605 102.415 98.065ZM112.521 95.23C112.561 95.64 112.576 96.1 112.566 96.61C112.566 96.71 112.516 96.76 112.416 96.76H107.631C107.591 96.76 107.571 96.78 107.571 96.82C107.571 97.16 107.601 97.42 107.661 97.6C107.771 98 107.991 98.315 108.321 98.545C108.661 98.765 109.086 98.875 109.596 98.875C110.336 98.875 110.906 98.57 111.306 97.96C111.356 97.86 111.421 97.845 111.501 97.915L112.356 98.485C112.426 98.545 112.441 98.61 112.401 98.68C112.121 99.13 111.721 99.485 111.201 99.745C110.691 100.005 110.111 100.135 109.461 100.135C108.731 100.135 108.116 99.975 107.616 99.655C107.116 99.335 106.741 98.88 106.491 98.29C106.251 97.7 106.131 96.985 106.131 96.145C106.131 95.415 106.186 94.86 106.296 94.48C106.476 93.79 106.836 93.245 107.376 92.845C107.916 92.445 108.571 92.245 109.341 92.245C110.351 92.245 111.106 92.5 111.606 93.01C112.106 93.51 112.411 94.25 112.521 95.23ZM109.341 93.49C108.911 93.49 108.556 93.6 108.276 93.82C107.996 94.03 107.806 94.315 107.706 94.675C107.636 94.895 107.591 95.175 107.571 95.515C107.571 95.555 107.591 95.575 107.631 95.575H111.066C111.106 95.575 111.126 95.555 111.126 95.515C111.106 95.185 111.076 94.94 111.036 94.78C110.936 94.39 110.736 94.08 110.436 93.85C110.146 93.61 109.781 93.49 109.341 93.49ZM117.1 92.245C117.71 92.245 118.24 92.355 118.69 92.575C119.15 92.785 119.5 93.085 119.74 93.475C119.99 93.855 120.115 94.29 120.115 94.78V99.85C120.115 99.95 120.065 100 119.965 100H118.825C118.725 100 118.675 99.95 118.675 99.85V99.31C118.675 99.26 118.65 99.25 118.6 99.28C118.34 99.55 118.02 99.76 117.64 99.91C117.27 100.05 116.855 100.12 116.395 100.12C115.655 100.12 115.04 99.935 114.55 99.565C114.07 99.185 113.83 98.615 113.83 97.855C113.83 97.075 114.1 96.465 114.64 96.025C115.19 95.575 115.955 95.35 116.935 95.35H118.615C118.655 95.35 118.675 95.33 118.675 95.29V94.885C118.675 94.445 118.545 94.105 118.285 93.865C118.035 93.615 117.65 93.49 117.13 93.49C116.71 93.49 116.365 93.575 116.095 93.745C115.835 93.905 115.675 94.125 115.615 94.405C115.585 94.505 115.525 94.55 115.435 94.54L114.22 94.375C114.12 94.355 114.075 94.315 114.085 94.255C114.165 93.665 114.48 93.185 115.03 92.815C115.58 92.435 116.27 92.245 117.1 92.245ZM116.71 98.905C117.24 98.905 117.7 98.765 118.09 98.485C118.48 98.205 118.675 97.85 118.675 97.42V96.535C118.675 96.495 118.655 96.475 118.615 96.475H117.205C116.615 96.475 116.145 96.59 115.795 96.82C115.445 97.05 115.27 97.37 115.27 97.78C115.27 98.15 115.4 98.43 115.66 98.62C115.93 98.81 116.28 98.905 116.71 98.905ZM122.209 100C122.109 100 122.059 99.95 122.059 99.85V89.65C122.059 89.55 122.109 89.5 122.209 89.5H123.349C123.449 89.5 123.499 89.55 123.499 89.65V99.85C123.499 99.95 123.449 100 123.349 100H122.209ZM136.767 99.82C136.797 99.85 136.812 99.88 136.812 99.91C136.812 99.97 136.772 100 136.692 100H135.402C135.332 100 135.272 99.97 135.222 99.91L134.457 99.04C134.437 99.01 134.407 99.005 134.367 99.025C133.897 99.405 133.412 99.685 132.912 99.865C132.412 100.035 131.882 100.12 131.322 100.12C130.422 100.12 129.682 99.91 129.102 99.49C128.532 99.06 128.247 98.435 128.247 97.615C128.247 96.925 128.437 96.345 128.817 95.875C129.207 95.395 129.737 94.935 130.407 94.495C130.447 94.475 130.452 94.45 130.422 94.42C129.862 93.74 129.492 93.225 129.312 92.875C129.132 92.515 129.042 92.145 129.042 91.765C129.042 91.315 129.152 90.91 129.372 90.55C129.602 90.18 129.922 89.895 130.332 89.695C130.752 89.485 131.227 89.38 131.757 89.38C132.577 89.38 133.252 89.605 133.782 90.055C134.312 90.505 134.577 91.095 134.577 91.825C134.577 92.435 134.392 92.97 134.022 93.43C133.662 93.88 133.162 94.32 132.522 94.75C132.482 94.76 132.477 94.785 132.507 94.825C132.887 95.285 133.512 96.01 134.382 97L134.442 97.075C134.452 97.095 134.467 97.105 134.487 97.105C134.507 97.105 134.522 97.1 134.532 97.09C134.972 96.54 135.297 96.115 135.507 95.815C135.557 95.735 135.622 95.72 135.702 95.77L136.557 96.25C136.647 96.3 136.662 96.37 136.602 96.46C136.162 97.13 135.747 97.67 135.357 98.08V98.11C135.357 98.13 135.372 98.165 135.402 98.215C135.752 98.635 136.207 99.17 136.767 99.82ZM131.802 90.7C131.402 90.7 131.082 90.81 130.842 91.03C130.602 91.24 130.482 91.525 130.482 91.885C130.482 92.085 130.547 92.305 130.677 92.545C130.817 92.775 131.107 93.165 131.547 93.715C131.577 93.745 131.607 93.75 131.637 93.73C132.127 93.41 132.497 93.105 132.747 92.815C133.007 92.525 133.137 92.205 133.137 91.855C133.137 91.505 133.012 91.225 132.762 91.015C132.512 90.805 132.192 90.7 131.802 90.7ZM131.337 98.89C132.047 98.89 132.772 98.615 133.512 98.065C133.542 98.035 133.542 98.005 133.512 97.975L133.002 97.36C132.702 97.02 132.522 96.82 132.462 96.76L131.367 95.53C131.357 95.5 131.332 95.495 131.292 95.515C130.772 95.855 130.377 96.185 130.107 96.505C129.837 96.825 129.702 97.19 129.702 97.6C129.702 98 129.847 98.315 130.137 98.545C130.437 98.775 130.837 98.89 131.337 98.89ZM144.402 100.09C143.802 100.09 143.272 100 142.812 99.82C142.362 99.64 142.012 99.395 141.762 99.085C141.512 98.765 141.387 98.415 141.387 98.035V97.87C141.387 97.77 141.437 97.72 141.537 97.72H142.617C142.717 97.72 142.767 97.77 142.767 97.87V97.945C142.767 98.225 142.917 98.47 143.217 98.68C143.527 98.89 143.917 98.995 144.387 98.995C144.837 98.995 145.202 98.9 145.482 98.71C145.762 98.51 145.902 98.26 145.902 97.96C145.902 97.67 145.772 97.455 145.512 97.315C145.252 97.165 144.832 97.01 144.252 96.85C143.682 96.69 143.202 96.53 142.812 96.37C142.432 96.2 142.107 95.965 141.837 95.665C141.577 95.355 141.447 94.96 141.447 94.48C141.447 93.81 141.707 93.28 142.227 92.89C142.757 92.49 143.457 92.29 144.327 92.29C144.907 92.29 145.417 92.385 145.857 92.575C146.307 92.755 146.652 93.01 146.892 93.34C147.132 93.67 147.252 94.04 147.252 94.45V94.495C147.252 94.595 147.202 94.645 147.102 94.645H146.052C145.952 94.645 145.902 94.595 145.902 94.495V94.45C145.902 94.16 145.757 93.92 145.467 93.73C145.187 93.53 144.802 93.43 144.312 93.43C143.872 93.43 143.512 93.515 143.232 93.685C142.962 93.855 142.827 94.085 142.827 94.375C142.827 94.665 142.957 94.885 143.217 95.035C143.487 95.185 143.917 95.345 144.507 95.515C145.087 95.675 145.567 95.835 145.947 95.995C146.337 96.145 146.667 96.375 146.937 96.685C147.207 96.985 147.342 97.38 147.342 97.87C147.342 98.55 147.072 99.09 146.532 99.49C146.002 99.89 145.292 100.09 144.402 100.09ZM151.817 92.245C152.427 92.245 152.957 92.355 153.407 92.575C153.867 92.785 154.217 93.085 154.457 93.475C154.707 93.855 154.832 94.29 154.832 94.78V99.85C154.832 99.95 154.782 100 154.682 100H153.542C153.442 100 153.392 99.95 153.392 99.85V99.31C153.392 99.26 153.367 99.25 153.317 99.28C153.057 99.55 152.737 99.76 152.357 99.91C151.987 100.05 151.572 100.12 151.112 100.12C150.372 100.12 149.757 99.935 149.267 99.565C148.787 99.185 148.547 98.615 148.547 97.855C148.547 97.075 148.817 96.465 149.357 96.025C149.907 95.575 150.672 95.35 151.652 95.35H153.332C153.372 95.35 153.392 95.33 153.392 95.29V94.885C153.392 94.445 153.262 94.105 153.002 93.865C152.752 93.615 152.367 93.49 151.847 93.49C151.427 93.49 151.082 93.575 150.812 93.745C150.552 93.905 150.392 94.125 150.332 94.405C150.302 94.505 150.242 94.55 150.152 94.54L148.937 94.375C148.837 94.355 148.792 94.315 148.802 94.255C148.882 93.665 149.197 93.185 149.747 92.815C150.297 92.435 150.987 92.245 151.817 92.245ZM151.427 98.905C151.957 98.905 152.417 98.765 152.807 98.485C153.197 98.205 153.392 97.85 153.392 97.42V96.535C153.392 96.495 153.372 96.475 153.332 96.475H151.922C151.332 96.475 150.862 96.59 150.512 96.82C150.162 97.05 149.987 97.37 149.987 97.78C149.987 98.15 150.117 98.43 150.377 98.62C150.647 98.81 150.997 98.905 151.427 98.905ZM158.654 100C158.564 100 158.504 99.96 158.474 99.88L156.029 92.53L156.014 92.47C156.014 92.4 156.059 92.365 156.149 92.365H157.409C157.499 92.365 157.559 92.405 157.589 92.485L159.239 97.915C159.249 97.935 159.264 97.945 159.284 97.945C159.304 97.945 159.319 97.935 159.329 97.915L160.964 92.485C160.994 92.405 161.054 92.365 161.144 92.365L162.404 92.38C162.514 92.38 162.554 92.435 162.524 92.545L160.094 99.88C160.064 99.96 160.004 100 159.914 100H158.654ZM169.855 95.23C169.895 95.64 169.91 96.1 169.9 96.61C169.9 96.71 169.85 96.76 169.75 96.76H164.965C164.925 96.76 164.905 96.78 164.905 96.82C164.905 97.16 164.935 97.42 164.995 97.6C165.105 98 165.325 98.315 165.655 98.545C165.995 98.765 166.42 98.875 166.93 98.875C167.67 98.875 168.24 98.57 168.64 97.96C168.69 97.86 168.755 97.845 168.835 97.915L169.69 98.485C169.76 98.545 169.775 98.61 169.735 98.68C169.455 99.13 169.055 99.485 168.535 99.745C168.025 100.005 167.445 100.135 166.795 100.135C166.065 100.135 165.45 99.975 164.95 99.655C164.45 99.335 164.075 98.88 163.825 98.29C163.585 97.7 163.465 96.985 163.465 96.145C163.465 95.415 163.52 94.86 163.63 94.48C163.81 93.79 164.17 93.245 164.71 92.845C165.25 92.445 165.905 92.245 166.675 92.245C167.685 92.245 168.44 92.5 168.94 93.01C169.44 93.51 169.745 94.25 169.855 95.23ZM166.675 93.49C166.245 93.49 165.89 93.6 165.61 93.82C165.33 94.03 165.14 94.315 165.04 94.675C164.97 94.895 164.925 95.175 164.905 95.515C164.905 95.555 164.925 95.575 164.965 95.575H168.4C168.44 95.575 168.46 95.555 168.46 95.515C168.44 95.185 168.41 94.94 168.37 94.78C168.27 94.39 168.07 94.08 167.77 93.85C167.48 93.61 167.115 93.49 166.675 93.49ZM180.885 94.345C181.045 94.855 181.125 95.46 181.125 96.16C181.125 96.91 181.03 97.55 180.84 98.08C180.62 98.73 180.27 99.235 179.79 99.595C179.32 99.945 178.725 100.12 178.005 100.12C177.655 100.12 177.33 100.05 177.03 99.91C176.73 99.77 176.47 99.575 176.25 99.325C176.23 99.305 176.21 99.3 176.19 99.31C176.18 99.32 176.175 99.335 176.175 99.355V99.85C176.175 99.95 176.125 100 176.025 100H174.885C174.785 100 174.735 99.95 174.735 99.85V89.65C174.735 89.55 174.785 89.5 174.885 89.5H176.025C176.125 89.5 176.175 89.55 176.175 89.65V92.995C176.175 93.015 176.18 93.03 176.19 93.04C176.21 93.05 176.23 93.045 176.25 93.025C176.47 92.775 176.73 92.585 177.03 92.455C177.34 92.315 177.665 92.245 178.005 92.245C178.755 92.245 179.37 92.43 179.85 92.8C180.33 93.17 180.675 93.685 180.885 94.345ZM179.295 98.05C179.545 97.58 179.67 96.96 179.67 96.19C179.67 95.37 179.51 94.71 179.19 94.21C178.9 93.73 178.455 93.49 177.855 93.49C177.295 93.49 176.87 93.745 176.58 94.255C176.32 94.715 176.19 95.355 176.19 96.175C176.19 96.995 176.31 97.625 176.55 98.065C176.85 98.605 177.29 98.875 177.87 98.875C178.53 98.875 179.005 98.6 179.295 98.05ZM183.881 91.165C183.601 91.165 183.371 91.075 183.191 90.895C183.011 90.715 182.921 90.485 182.921 90.205C182.921 89.925 183.011 89.695 183.191 89.515C183.371 89.335 183.601 89.245 183.881 89.245C184.161 89.245 184.391 89.335 184.571 89.515C184.751 89.695 184.841 89.925 184.841 90.205C184.841 90.485 184.751 90.715 184.571 90.895C184.391 91.075 184.161 91.165 183.881 91.165ZM183.281 99.985C183.181 99.985 183.131 99.935 183.131 99.835V92.515C183.131 92.415 183.181 92.365 183.281 92.365H184.421C184.521 92.365 184.571 92.415 184.571 92.515V99.835C184.571 99.935 184.521 99.985 184.421 99.985H183.281ZM191.529 92.515C191.529 92.415 191.579 92.365 191.679 92.365H192.819C192.919 92.365 192.969 92.415 192.969 92.515V99.61C192.969 100.82 192.624 101.685 191.934 102.205C191.254 102.725 190.339 102.985 189.189 102.985C189.029 102.985 188.779 102.975 188.439 102.955C188.339 102.945 188.289 102.89 188.289 102.79L188.334 101.755C188.334 101.715 188.349 101.68 188.379 101.65C188.409 101.62 188.449 101.61 188.499 101.62C188.639 101.63 188.844 101.635 189.114 101.635C189.964 101.635 190.579 101.475 190.959 101.155C191.339 100.845 191.529 100.315 191.529 99.565V99.295C191.529 99.275 191.519 99.26 191.499 99.25C191.489 99.24 191.474 99.245 191.454 99.265C191.034 99.755 190.419 100 189.609 100C188.959 100 188.369 99.83 187.839 99.49C187.319 99.15 186.959 98.65 186.759 97.99C186.629 97.55 186.564 96.94 186.564 96.16C186.564 95.33 186.639 94.69 186.789 94.24C186.979 93.64 187.314 93.16 187.794 92.8C188.284 92.43 188.859 92.245 189.519 92.245C190.339 92.245 190.984 92.495 191.454 92.995C191.474 93.015 191.489 93.025 191.499 93.025C191.519 93.015 191.529 93 191.529 92.98V92.515ZM191.439 97.555C191.469 97.395 191.489 97.225 191.499 97.045C191.519 96.865 191.529 96.565 191.529 96.145C191.529 95.725 191.519 95.43 191.499 95.26C191.489 95.08 191.464 94.91 191.424 94.75C191.344 94.38 191.164 94.08 190.884 93.85C190.604 93.61 190.254 93.49 189.834 93.49C189.414 93.49 189.064 93.61 188.784 93.85C188.504 94.08 188.304 94.38 188.184 94.75C188.074 95.05 188.019 95.515 188.019 96.145C188.019 96.835 188.069 97.305 188.169 97.555C188.269 97.925 188.464 98.23 188.754 98.47C189.054 98.7 189.414 98.815 189.834 98.815C190.274 98.815 190.629 98.7 190.899 98.47C191.179 98.23 191.359 97.925 191.439 97.555ZM201.747 93.4C201.747 93.5 201.697 93.55 201.597 93.55H199.977C199.937 93.55 199.917 93.57 199.917 93.61V97.585C199.917 98.005 200.012 98.31 200.202 98.5C200.392 98.68 200.687 98.77 201.087 98.77H201.522C201.622 98.77 201.672 98.82 201.672 98.92V99.85C201.672 99.95 201.622 100 201.522 100C201.202 100.02 200.972 100.03 200.832 100.03C200.072 100.03 199.497 99.895 199.107 99.625C198.727 99.345 198.537 98.835 198.537 98.095V93.61C198.537 93.57 198.517 93.55 198.477 93.55H197.562C197.462 93.55 197.412 93.5 197.412 93.4V92.515C197.412 92.415 197.462 92.365 197.562 92.365H198.477C198.517 92.365 198.537 92.345 198.537 92.305V90.535C198.537 90.435 198.587 90.385 198.687 90.385H199.767C199.867 90.385 199.917 90.435 199.917 90.535V92.305C199.917 92.345 199.937 92.365 199.977 92.365H201.597C201.697 92.365 201.747 92.415 201.747 92.515V93.4ZM204.389 91.165C204.109 91.165 203.879 91.075 203.699 90.895C203.519 90.715 203.429 90.485 203.429 90.205C203.429 89.925 203.519 89.695 203.699 89.515C203.879 89.335 204.109 89.245 204.389 89.245C204.669 89.245 204.899 89.335 205.079 89.515C205.259 89.695 205.349 89.925 205.349 90.205C205.349 90.485 205.259 90.715 205.079 90.895C204.899 91.075 204.669 91.165 204.389 91.165ZM203.789 99.985C203.689 99.985 203.639 99.935 203.639 99.835V92.515C203.639 92.415 203.689 92.365 203.789 92.365H204.929C205.029 92.365 205.079 92.415 205.079 92.515V99.835C205.079 99.935 205.029 99.985 204.929 99.985H203.789ZM215.277 92.26C216.037 92.26 216.637 92.49 217.077 92.95C217.517 93.4 217.737 94.03 217.737 94.84V99.85C217.737 99.95 217.687 100 217.587 100H216.462C216.362 100 216.312 99.95 216.312 99.85V95.14C216.312 94.64 216.172 94.245 215.892 93.955C215.622 93.655 215.257 93.505 214.797 93.505C214.337 93.505 213.962 93.65 213.672 93.94C213.382 94.23 213.237 94.62 213.237 95.11V99.85C213.237 99.95 213.187 100 213.087 100H211.962C211.862 100 211.812 99.95 211.812 99.85V95.14C211.812 94.64 211.672 94.245 211.392 93.955C211.122 93.655 210.757 93.505 210.297 93.505C209.837 93.505 209.467 93.65 209.187 93.94C208.917 94.23 208.782 94.62 208.782 95.11V99.85C208.782 99.95 208.732 100 208.632 100H207.492C207.392 100 207.342 99.95 207.342 99.85V92.515C207.342 92.415 207.392 92.365 207.492 92.365H208.632C208.732 92.365 208.782 92.415 208.782 92.515V93.025C208.782 93.045 208.787 93.06 208.797 93.07C208.817 93.08 208.837 93.075 208.857 93.055C209.297 92.525 209.937 92.26 210.777 92.26C211.287 92.26 211.722 92.36 212.082 92.56C212.442 92.75 212.722 93.035 212.922 93.415C212.952 93.455 212.982 93.455 213.012 93.415C213.252 93.025 213.567 92.735 213.957 92.545C214.357 92.355 214.797 92.26 215.277 92.26ZM225.827 95.23C225.867 95.64 225.882 96.1 225.872 96.61C225.872 96.71 225.822 96.76 225.722 96.76H220.937C220.897 96.76 220.877 96.78 220.877 96.82C220.877 97.16 220.907 97.42 220.967 97.6C221.077 98 221.297 98.315 221.627 98.545C221.967 98.765 222.392 98.875 222.902 98.875C223.642 98.875 224.212 98.57 224.612 97.96C224.662 97.86 224.727 97.845 224.807 97.915L225.662 98.485C225.732 98.545 225.747 98.61 225.707 98.68C225.427 99.13 225.027 99.485 224.507 99.745C223.997 100.005 223.417 100.135 222.767 100.135C222.037 100.135 221.422 99.975 220.922 99.655C220.422 99.335 220.047 98.88 219.797 98.29C219.557 97.7 219.437 96.985 219.437 96.145C219.437 95.415 219.492 94.86 219.602 94.48C219.782 93.79 220.142 93.245 220.682 92.845C221.222 92.445 221.877 92.245 222.647 92.245C223.657 92.245 224.412 92.5 224.912 93.01C225.412 93.51 225.717 94.25 225.827 95.23ZM222.647 93.49C222.217 93.49 221.862 93.6 221.582 93.82C221.302 94.03 221.112 94.315 221.012 94.675C220.942 94.895 220.897 95.175 220.877 95.515C220.877 95.555 220.897 95.575 220.937 95.575H224.372C224.412 95.575 224.432 95.555 224.432 95.515C224.412 95.185 224.382 94.94 224.342 94.78C224.242 94.39 224.042 94.08 223.742 93.85C223.452 93.61 223.087 93.49 222.647 93.49ZM233.812 100.12C233.072 100.12 232.427 99.935 231.877 99.565C231.327 99.185 230.942 98.66 230.722 97.99C230.542 97.45 230.452 96.84 230.452 96.16C230.452 95.45 230.537 94.85 230.707 94.36C230.927 93.7 231.312 93.185 231.862 92.815C232.412 92.435 233.067 92.245 233.827 92.245C234.547 92.245 235.172 92.435 235.702 92.815C236.242 93.185 236.627 93.695 236.857 94.345C237.037 94.855 237.127 95.455 237.127 96.145C237.127 96.845 237.037 97.46 236.857 97.99C236.637 98.66 236.257 99.185 235.717 99.565C235.177 99.935 234.542 100.12 233.812 100.12ZM233.812 98.875C234.212 98.875 234.562 98.765 234.862 98.545C235.162 98.315 235.377 97.995 235.507 97.585C235.617 97.205 235.672 96.735 235.672 96.175C235.672 95.615 235.622 95.15 235.522 94.78C235.392 94.37 235.177 94.055 234.877 93.835C234.577 93.605 234.212 93.49 233.782 93.49C233.372 93.49 233.017 93.605 232.717 93.835C232.417 94.055 232.202 94.37 232.072 94.78C231.962 95.13 231.907 95.595 231.907 96.175C231.907 96.755 231.962 97.225 232.072 97.585C232.192 97.995 232.402 98.315 232.702 98.545C233.012 98.765 233.382 98.875 233.812 98.875ZM242.417 92.26C243.237 92.26 243.887 92.5 244.367 92.98C244.847 93.45 245.087 94.09 245.087 94.9V99.85C245.087 99.95 245.037 100 244.937 100H243.797C243.697 100 243.647 99.95 243.647 99.85V95.185C243.647 94.685 243.502 94.28 243.212 93.97C242.922 93.66 242.537 93.505 242.057 93.505C241.587 93.505 241.202 93.66 240.902 93.97C240.602 94.28 240.452 94.68 240.452 95.17V99.85C240.452 99.95 240.402 100 240.302 100H239.162C239.062 100 239.012 99.95 239.012 99.85V92.515C239.012 92.415 239.062 92.365 239.162 92.365H240.302C240.402 92.365 240.452 92.415 240.452 92.515V93.055C240.452 93.075 240.457 93.09 240.467 93.1C240.487 93.11 240.502 93.105 240.512 93.085C240.942 92.535 241.577 92.26 242.417 92.26ZM258.08 92.26C258.84 92.26 259.44 92.49 259.88 92.95C260.32 93.4 260.54 94.03 260.54 94.84V99.85C260.54 99.95 260.49 100 260.39 100H259.265C259.165 100 259.115 99.95 259.115 99.85V95.14C259.115 94.64 258.975 94.245 258.695 93.955C258.425 93.655 258.06 93.505 257.6 93.505C257.14 93.505 256.765 93.65 256.475 93.94C256.185 94.23 256.04 94.62 256.04 95.11V99.85C256.04 99.95 255.99 100 255.89 100H254.765C254.665 100 254.615 99.95 254.615 99.85V95.14C254.615 94.64 254.475 94.245 254.195 93.955C253.925 93.655 253.56 93.505 253.1 93.505C252.64 93.505 252.27 93.65 251.99 93.94C251.72 94.23 251.585 94.62 251.585 95.11V99.85C251.585 99.95 251.535 100 251.435 100H250.295C250.195 100 250.145 99.95 250.145 99.85V92.515C250.145 92.415 250.195 92.365 250.295 92.365H251.435C251.535 92.365 251.585 92.415 251.585 92.515V93.025C251.585 93.045 251.59 93.06 251.6 93.07C251.62 93.08 251.64 93.075 251.66 93.055C252.1 92.525 252.74 92.26 253.58 92.26C254.09 92.26 254.525 92.36 254.885 92.56C255.245 92.75 255.525 93.035 255.725 93.415C255.755 93.455 255.785 93.455 255.815 93.415C256.055 93.025 256.37 92.735 256.76 92.545C257.16 92.355 257.6 92.26 258.08 92.26ZM265.327 92.245C265.937 92.245 266.467 92.355 266.917 92.575C267.377 92.785 267.727 93.085 267.967 93.475C268.217 93.855 268.342 94.29 268.342 94.78V99.85C268.342 99.95 268.292 100 268.192 100H267.052C266.952 100 266.902 99.95 266.902 99.85V99.31C266.902 99.26 266.877 99.25 266.827 99.28C266.567 99.55 266.247 99.76 265.867 99.91C265.497 100.05 265.082 100.12 264.622 100.12C263.882 100.12 263.267 99.935 262.777 99.565C262.297 99.185 262.057 98.615 262.057 97.855C262.057 97.075 262.327 96.465 262.867 96.025C263.417 95.575 264.182 95.35 265.162 95.35H266.842C266.882 95.35 266.902 95.33 266.902 95.29V94.885C266.902 94.445 266.772 94.105 266.512 93.865C266.262 93.615 265.877 93.49 265.357 93.49C264.937 93.49 264.592 93.575 264.322 93.745C264.062 93.905 263.902 94.125 263.842 94.405C263.812 94.505 263.752 94.55 263.662 94.54L262.447 94.375C262.347 94.355 262.302 94.315 262.312 94.255C262.392 93.665 262.707 93.185 263.257 92.815C263.807 92.435 264.497 92.245 265.327 92.245ZM264.937 98.905C265.467 98.905 265.927 98.765 266.317 98.485C266.707 98.205 266.902 97.85 266.902 97.42V96.535C266.902 96.495 266.882 96.475 266.842 96.475H265.432C264.842 96.475 264.372 96.59 264.022 96.82C263.672 97.05 263.497 97.37 263.497 97.78C263.497 98.15 263.627 98.43 263.887 98.62C264.157 98.81 264.507 98.905 264.937 98.905ZM273.631 92.29C273.951 92.29 274.241 92.355 274.501 92.485C274.571 92.515 274.596 92.575 274.576 92.665L274.336 93.79C274.326 93.88 274.266 93.91 274.156 93.88C273.986 93.81 273.786 93.775 273.556 93.775L273.346 93.79C272.876 93.81 272.486 93.975 272.176 94.285C271.876 94.585 271.726 94.98 271.726 95.47V99.85C271.726 99.95 271.676 100 271.576 100H270.436C270.336 100 270.286 99.95 270.286 99.85V92.515C270.286 92.415 270.336 92.365 270.436 92.365H271.576C271.676 92.365 271.726 92.415 271.726 92.515V93.31C271.726 93.34 271.731 93.36 271.741 93.37C271.761 93.37 271.776 93.36 271.786 93.34C272.236 92.64 272.851 92.29 273.631 92.29ZM276.003 100C275.903 100 275.853 99.95 275.853 99.85V89.65C275.853 89.55 275.903 89.5 276.003 89.5H277.143C277.243 89.5 277.293 89.55 277.293 89.65V95.425C277.293 95.445 277.303 95.46 277.323 95.47C277.343 95.48 277.358 95.475 277.368 95.455L280.143 92.44C280.183 92.39 280.243 92.365 280.323 92.365H281.658C281.718 92.365 281.753 92.385 281.763 92.425C281.783 92.455 281.773 92.495 281.733 92.545L279.798 94.78C279.778 94.82 279.773 94.85 279.783 94.87L282.078 99.82L282.093 99.88C282.093 99.96 282.048 100 281.958 100H280.758C280.678 100 280.623 99.96 280.593 99.88L278.808 95.8C278.788 95.75 278.763 95.745 278.733 95.785L277.323 97.345C277.303 97.385 277.293 97.41 277.293 97.42V99.85C277.293 99.95 277.243 100 277.143 100H276.003ZM289.269 95.23C289.309 95.64 289.324 96.1 289.314 96.61C289.314 96.71 289.264 96.76 289.164 96.76H284.379C284.339 96.76 284.319 96.78 284.319 96.82C284.319 97.16 284.349 97.42 284.409 97.6C284.519 98 284.739 98.315 285.069 98.545C285.409 98.765 285.834 98.875 286.344 98.875C287.084 98.875 287.654 98.57 288.054 97.96C288.104 97.86 288.169 97.845 288.249 97.915L289.104 98.485C289.174 98.545 289.189 98.61 289.149 98.68C288.869 99.13 288.469 99.485 287.949 99.745C287.439 100.005 286.859 100.135 286.209 100.135C285.479 100.135 284.864 99.975 284.364 99.655C283.864 99.335 283.489 98.88 283.239 98.29C282.999 97.7 282.879 96.985 282.879 96.145C282.879 95.415 282.934 94.86 283.044 94.48C283.224 93.79 283.584 93.245 284.124 92.845C284.664 92.445 285.319 92.245 286.089 92.245C287.099 92.245 287.854 92.5 288.354 93.01C288.854 93.51 289.159 94.25 289.269 95.23ZM286.089 93.49C285.659 93.49 285.304 93.6 285.024 93.82C284.744 94.03 284.554 94.315 284.454 94.675C284.384 94.895 284.339 95.175 284.319 95.515C284.319 95.555 284.339 95.575 284.379 95.575H287.814C287.854 95.575 287.874 95.555 287.874 95.515C287.854 95.185 287.824 94.94 287.784 94.78C287.684 94.39 287.484 94.08 287.184 93.85C286.894 93.61 286.529 93.49 286.089 93.49ZM294.779 93.4C294.779 93.5 294.729 93.55 294.629 93.55H293.009C292.969 93.55 292.949 93.57 292.949 93.61V97.585C292.949 98.005 293.044 98.31 293.234 98.5C293.424 98.68 293.719 98.77 294.119 98.77H294.554C294.654 98.77 294.704 98.82 294.704 98.92V99.85C294.704 99.95 294.654 100 294.554 100C294.234 100.02 294.004 100.03 293.864 100.03C293.104 100.03 292.529 99.895 292.139 99.625C291.759 99.345 291.569 98.835 291.569 98.095V93.61C291.569 93.57 291.549 93.55 291.509 93.55H290.594C290.494 93.55 290.444 93.5 290.444 93.4V92.515C290.444 92.415 290.494 92.365 290.594 92.365H291.509C291.549 92.365 291.569 92.345 291.569 92.305V90.535C291.569 90.435 291.619 90.385 291.719 90.385H292.799C292.899 90.385 292.949 90.435 292.949 90.535V92.305C292.949 92.345 292.969 92.365 293.009 92.365H294.629C294.729 92.365 294.779 92.415 294.779 92.515V93.4ZM297.421 91.165C297.141 91.165 296.911 91.075 296.731 90.895C296.551 90.715 296.461 90.485 296.461 90.205C296.461 89.925 296.551 89.695 296.731 89.515C296.911 89.335 297.141 89.245 297.421 89.245C297.701 89.245 297.931 89.335 298.111 89.515C298.291 89.695 298.381 89.925 298.381 90.205C298.381 90.485 298.291 90.715 298.111 90.895C297.931 91.075 297.701 91.165 297.421 91.165ZM296.821 99.985C296.721 99.985 296.671 99.935 296.671 99.835V92.515C296.671 92.415 296.721 92.365 296.821 92.365H297.961C298.061 92.365 298.111 92.415 298.111 92.515V99.835C298.111 99.935 298.061 99.985 297.961 99.985H296.821ZM303.779 92.26C304.599 92.26 305.249 92.5 305.729 92.98C306.209 93.45 306.449 94.09 306.449 94.9V99.85C306.449 99.95 306.399 100 306.299 100H305.159C305.059 100 305.009 99.95 305.009 99.85V95.185C305.009 94.685 304.864 94.28 304.574 93.97C304.284 93.66 303.899 93.505 303.419 93.505C302.949 93.505 302.564 93.66 302.264 93.97C301.964 94.28 301.814 94.68 301.814 95.17V99.85C301.814 99.95 301.764 100 301.664 100H300.524C300.424 100 300.374 99.95 300.374 99.85V92.515C300.374 92.415 300.424 92.365 300.524 92.365H301.664C301.764 92.365 301.814 92.415 301.814 92.515V93.055C301.814 93.075 301.819 93.09 301.829 93.1C301.849 93.11 301.864 93.105 301.874 93.085C302.304 92.535 302.939 92.26 303.779 92.26ZM313.199 92.515C313.199 92.415 313.249 92.365 313.349 92.365H314.489C314.589 92.365 314.639 92.415 314.639 92.515V99.61C314.639 100.82 314.294 101.685 313.604 102.205C312.924 102.725 312.009 102.985 310.859 102.985C310.699 102.985 310.449 102.975 310.109 102.955C310.009 102.945 309.959 102.89 309.959 102.79L310.004 101.755C310.004 101.715 310.019 101.68 310.049 101.65C310.079 101.62 310.119 101.61 310.169 101.62C310.309 101.63 310.514 101.635 310.784 101.635C311.634 101.635 312.249 101.475 312.629 101.155C313.009 100.845 313.199 100.315 313.199 99.565V99.295C313.199 99.275 313.189 99.26 313.169 99.25C313.159 99.24 313.144 99.245 313.124 99.265C312.704 99.755 312.089 100 311.279 100C310.629 100 310.039 99.83 309.509 99.49C308.989 99.15 308.629 98.65 308.429 97.99C308.299 97.55 308.234 96.94 308.234 96.16C308.234 95.33 308.309 94.69 308.459 94.24C308.649 93.64 308.984 93.16 309.464 92.8C309.954 92.43 310.529 92.245 311.189 92.245C312.009 92.245 312.654 92.495 313.124 92.995C313.144 93.015 313.159 93.025 313.169 93.025C313.189 93.015 313.199 93 313.199 92.98V92.515ZM313.109 97.555C313.139 97.395 313.159 97.225 313.169 97.045C313.189 96.865 313.199 96.565 313.199 96.145C313.199 95.725 313.189 95.43 313.169 95.26C313.159 95.08 313.134 94.91 313.094 94.75C313.014 94.38 312.834 94.08 312.554 93.85C312.274 93.61 311.924 93.49 311.504 93.49C311.084 93.49 310.734 93.61 310.454 93.85C310.174 94.08 309.974 94.38 309.854 94.75C309.744 95.05 309.689 95.515 309.689 96.145C309.689 96.835 309.739 97.305 309.839 97.555C309.939 97.925 310.134 98.23 310.424 98.47C310.724 98.7 311.084 98.815 311.504 98.815C311.944 98.815 312.299 98.7 312.569 98.47C312.849 98.23 313.029 97.925 313.109 97.555ZM317.624 100C317.344 100 317.114 99.91 316.934 99.73C316.754 99.55 316.664 99.32 316.664 99.04C316.664 98.76 316.754 98.53 316.934 98.35C317.114 98.17 317.344 98.08 317.624 98.08C317.904 98.08 318.134 98.17 318.314 98.35C318.494 98.53 318.584 98.76 318.584 99.04C318.584 99.32 318.494 99.55 318.314 99.73C318.134 99.91 317.904 100 317.624 100Z" fill="#5F5F5F"/>
<path d="M99.888 35C99.756 35 99.672 34.94 99.636 34.82L96.45 22.634L96.432 22.562C96.432 22.454 96.498 22.4 96.63 22.4H98.862C98.982 22.4 99.06 22.46 99.096 22.58L100.806 29.906C100.818 29.954 100.836 29.978 100.86 29.978C100.884 29.978 100.902 29.954 100.914 29.906L102.57 22.598C102.606 22.466 102.684 22.4 102.804 22.4H104.982C105.114 22.4 105.198 22.46 105.234 22.58L107.034 29.906C107.046 29.942 107.064 29.966 107.088 29.978C107.112 29.978 107.13 29.954 107.142 29.906L108.798 22.598C108.834 22.466 108.912 22.4 109.032 22.4H111.156C111.324 22.4 111.39 22.478 111.354 22.634L108.402 34.82C108.366 34.94 108.282 35 108.15 35H106.008C105.888 35 105.81 34.94 105.774 34.82L103.938 27.026C103.926 26.978 103.908 26.954 103.884 26.954C103.86 26.954 103.842 26.978 103.83 27.026L102.12 34.802C102.096 34.934 102.018 35 101.886 35H99.888ZM117.545 25.604C118.505 25.604 119.279 25.898 119.867 26.486C120.455 27.074 120.749 27.872 120.749 28.88V34.784C120.749 34.844 120.725 34.898 120.677 34.946C120.641 34.982 120.593 35 120.533 35H118.427C118.367 35 118.313 34.982 118.265 34.946C118.229 34.898 118.211 34.844 118.211 34.784V29.402C118.211 28.922 118.073 28.532 117.797 28.232C117.533 27.932 117.179 27.782 116.735 27.782C116.291 27.782 115.931 27.932 115.655 28.232C115.391 28.532 115.259 28.922 115.259 29.402V34.784C115.259 34.844 115.235 34.898 115.187 34.946C115.151 34.982 115.103 35 115.043 35H112.937C112.877 35 112.823 34.982 112.775 34.946C112.739 34.898 112.721 34.844 112.721 34.784V22.616C112.721 22.556 112.739 22.508 112.775 22.472C112.823 22.424 112.877 22.4 112.937 22.4H115.043C115.103 22.4 115.151 22.424 115.187 22.472C115.235 22.508 115.259 22.556 115.259 22.616V26.594C115.259 26.63 115.271 26.654 115.295 26.666C115.319 26.678 115.337 26.672 115.349 26.648C115.841 25.952 116.573 25.604 117.545 25.604ZM126.598 35.144C125.59 35.144 124.726 34.88 124.006 34.352C123.286 33.824 122.794 33.104 122.53 32.192C122.362 31.628 122.278 31.016 122.278 30.356C122.278 29.648 122.362 29.012 122.53 28.448C122.806 27.56 123.304 26.864 124.024 26.36C124.744 25.856 125.608 25.604 126.616 25.604C127.6 25.604 128.44 25.856 129.136 26.36C129.832 26.852 130.324 27.542 130.612 28.43C130.804 29.03 130.9 29.66 130.9 30.32C130.9 30.968 130.816 31.574 130.648 32.138C130.384 33.074 129.892 33.812 129.172 34.352C128.464 34.88 127.606 35.144 126.598 35.144ZM126.598 32.966C126.994 32.966 127.33 32.846 127.606 32.606C127.882 32.366 128.08 32.036 128.2 31.616C128.296 31.232 128.344 30.812 128.344 30.356C128.344 29.852 128.296 29.426 128.2 29.078C128.068 28.67 127.864 28.352 127.588 28.124C127.312 27.896 126.976 27.782 126.58 27.782C126.172 27.782 125.83 27.896 125.554 28.124C125.29 28.352 125.098 28.67 124.978 29.078C124.882 29.366 124.834 29.792 124.834 30.356C124.834 30.896 124.876 31.316 124.96 31.616C125.08 32.036 125.278 32.366 125.554 32.606C125.842 32.846 126.19 32.966 126.598 32.966ZM132.748 35C132.688 35 132.634 34.982 132.586 34.946C132.55 34.898 132.532 34.844 132.532 34.784V22.616C132.532 22.556 132.55 22.508 132.586 22.472C132.634 22.424 132.688 22.4 132.748 22.4H134.854C134.914 22.4 134.962 22.424 134.998 22.472C135.046 22.508 135.07 22.556 135.07 22.616V34.784C135.07 34.844 135.046 34.898 134.998 34.946C134.962 34.982 134.914 35 134.854 35H132.748ZM145.116 29.42C145.188 29.876 145.212 30.386 145.188 30.95C145.176 31.094 145.098 31.166 144.954 31.166H139.392C139.32 31.166 139.296 31.196 139.32 31.256C139.356 31.496 139.422 31.736 139.518 31.976C139.83 32.648 140.466 32.984 141.426 32.984C142.194 32.972 142.8 32.66 143.244 32.048C143.292 31.976 143.346 31.94 143.406 31.94C143.442 31.94 143.484 31.964 143.532 32.012L144.828 33.29C144.888 33.35 144.918 33.404 144.918 33.452C144.918 33.476 144.894 33.524 144.846 33.596C144.45 34.088 143.94 34.472 143.316 34.748C142.692 35.012 142.008 35.144 141.264 35.144C140.232 35.144 139.356 34.91 138.636 34.442C137.928 33.974 137.418 33.32 137.106 32.48C136.854 31.88 136.728 31.094 136.728 30.122C136.728 29.462 136.818 28.88 136.998 28.376C137.274 27.524 137.754 26.846 138.438 26.342C139.134 25.838 139.956 25.586 140.904 25.586C142.104 25.586 143.064 25.934 143.784 26.63C144.516 27.326 144.96 28.256 145.116 29.42ZM140.922 27.782C140.166 27.782 139.668 28.136 139.428 28.844C139.38 29 139.338 29.192 139.302 29.42C139.302 29.48 139.332 29.51 139.392 29.51H142.506C142.578 29.51 142.602 29.48 142.578 29.42C142.518 29.072 142.488 28.904 142.488 28.916C142.38 28.556 142.188 28.28 141.912 28.088C141.648 27.884 141.318 27.782 140.922 27.782ZM150.319 35.126C149.515 35.126 148.813 35.012 148.213 34.784C147.613 34.556 147.145 34.238 146.809 33.83C146.485 33.422 146.323 32.96 146.323 32.444V32.264C146.323 32.204 146.341 32.156 146.377 32.12C146.425 32.072 146.479 32.048 146.539 32.048H148.537C148.597 32.048 148.645 32.072 148.681 32.12C148.729 32.156 148.753 32.204 148.753 32.264V32.282C148.753 32.546 148.897 32.774 149.185 32.966C149.485 33.146 149.857 33.236 150.301 33.236C150.709 33.236 151.039 33.158 151.291 33.002C151.543 32.834 151.669 32.63 151.669 32.39C151.669 32.174 151.561 32.012 151.345 31.904C151.129 31.796 150.775 31.682 150.283 31.562C149.719 31.418 149.275 31.28 148.951 31.148C148.183 30.884 147.571 30.56 147.115 30.176C146.659 29.792 146.431 29.24 146.431 28.52C146.431 27.632 146.773 26.93 147.457 26.414C148.153 25.886 149.071 25.622 150.211 25.622C150.979 25.622 151.651 25.748 152.227 26C152.803 26.24 153.247 26.582 153.559 27.026C153.883 27.47 154.045 27.974 154.045 28.538C154.045 28.598 154.021 28.652 153.973 28.7C153.937 28.736 153.889 28.754 153.829 28.754H151.903C151.843 28.754 151.789 28.736 151.741 28.7C151.705 28.652 151.687 28.598 151.687 28.538C151.687 28.274 151.549 28.052 151.273 27.872C151.009 27.692 150.655 27.602 150.211 27.602C149.815 27.602 149.491 27.674 149.239 27.818C148.987 27.962 148.861 28.16 148.861 28.412C148.861 28.652 148.981 28.832 149.221 28.952C149.473 29.072 149.887 29.198 150.463 29.33C150.595 29.366 150.745 29.408 150.913 29.456C151.081 29.492 151.261 29.54 151.453 29.6C152.305 29.852 152.977 30.176 153.469 30.572C153.961 30.968 154.207 31.544 154.207 32.3C154.207 33.188 153.853 33.884 153.145 34.388C152.449 34.88 151.507 35.126 150.319 35.126ZM159.355 25.604C160.135 25.604 160.831 25.742 161.443 26.018C162.055 26.282 162.529 26.648 162.865 27.116C163.213 27.584 163.387 28.106 163.387 28.682V34.784C163.387 34.844 163.363 34.898 163.315 34.946C163.279 34.982 163.231 35 163.171 35H161.065C161.005 35 160.951 34.982 160.903 34.946C160.867 34.898 160.849 34.844 160.849 34.784V34.19C160.849 34.154 160.837 34.13 160.813 34.118C160.789 34.106 160.765 34.118 160.741 34.154C160.237 34.814 159.427 35.144 158.311 35.144C157.375 35.144 156.619 34.916 156.043 34.46C155.467 34.004 155.179 33.332 155.179 32.444C155.179 31.52 155.503 30.806 156.151 30.302C156.799 29.786 157.723 29.528 158.923 29.528H160.759C160.819 29.528 160.849 29.498 160.849 29.438V29.042C160.849 28.646 160.729 28.34 160.489 28.124C160.249 27.896 159.889 27.782 159.409 27.782C159.037 27.782 158.725 27.848 158.473 27.98C158.233 28.112 158.077 28.298 158.005 28.538C157.969 28.67 157.891 28.73 157.771 28.718L155.593 28.43C155.449 28.406 155.383 28.352 155.395 28.268C155.443 27.764 155.641 27.308 155.989 26.9C156.349 26.492 156.817 26.174 157.393 25.946C157.981 25.718 158.635 25.604 159.355 25.604ZM158.995 33.254C159.511 33.254 159.949 33.116 160.309 32.84C160.669 32.564 160.849 32.21 160.849 31.778V31.13C160.849 31.07 160.819 31.04 160.759 31.04H159.463C158.923 31.04 158.497 31.142 158.185 31.346C157.885 31.55 157.735 31.838 157.735 32.21C157.735 32.534 157.849 32.792 158.077 32.984C158.305 33.164 158.611 33.254 158.995 33.254ZM165.39 35C165.33 35 165.276 34.982 165.228 34.946C165.192 34.898 165.174 34.844 165.174 34.784V22.616C165.174 22.556 165.192 22.508 165.228 22.472C165.276 22.424 165.33 22.4 165.39 22.4H167.496C167.556 22.4 167.604 22.424 167.64 22.472C167.688 22.508 167.712 22.556 167.712 22.616V34.784C167.712 34.844 167.688 34.898 167.64 34.946C167.604 34.982 167.556 35 167.496 35H165.39ZM177.759 29.42C177.831 29.876 177.855 30.386 177.831 30.95C177.819 31.094 177.741 31.166 177.597 31.166H172.035C171.963 31.166 171.939 31.196 171.963 31.256C171.999 31.496 172.065 31.736 172.161 31.976C172.473 32.648 173.109 32.984 174.069 32.984C174.837 32.972 175.443 32.66 175.887 32.048C175.935 31.976 175.989 31.94 176.049 31.94C176.085 31.94 176.127 31.964 176.175 32.012L177.471 33.29C177.531 33.35 177.561 33.404 177.561 33.452C177.561 33.476 177.537 33.524 177.489 33.596C177.093 34.088 176.583 34.472 175.959 34.748C175.335 35.012 174.651 35.144 173.907 35.144C172.875 35.144 171.999 34.91 171.279 34.442C170.571 33.974 170.061 33.32 169.749 32.48C169.497 31.88 169.371 31.094 169.371 30.122C169.371 29.462 169.461 28.88 169.641 28.376C169.917 27.524 170.397 26.846 171.081 26.342C171.777 25.838 172.599 25.586 173.547 25.586C174.747 25.586 175.707 25.934 176.427 26.63C177.159 27.326 177.603 28.256 177.759 29.42ZM173.565 27.782C172.809 27.782 172.311 28.136 172.071 28.844C172.023 29 171.981 29.192 171.945 29.42C171.945 29.48 171.975 29.51 172.035 29.51H175.149C175.221 29.51 175.245 29.48 175.221 29.42C175.161 29.072 175.131 28.904 175.131 28.916C175.023 28.556 174.831 28.28 174.555 28.088C174.291 27.884 173.961 27.782 173.565 27.782ZM184.003 25.622C184.435 25.622 184.777 25.706 185.029 25.874C185.125 25.922 185.161 26.012 185.137 26.144L184.759 28.196C184.747 28.34 184.663 28.382 184.507 28.322C184.327 28.262 184.117 28.232 183.877 28.232C183.781 28.232 183.649 28.244 183.481 28.268C183.049 28.304 182.683 28.466 182.383 28.754C182.083 29.03 181.933 29.402 181.933 29.87V34.784C181.933 34.844 181.909 34.898 181.861 34.946C181.825 34.982 181.777 35 181.717 35H179.611C179.551 35 179.497 34.982 179.449 34.946C179.413 34.898 179.395 34.844 179.395 34.784V25.964C179.395 25.904 179.413 25.856 179.449 25.82C179.497 25.772 179.551 25.748 179.611 25.748H181.717C181.777 25.748 181.825 25.772 181.861 25.82C181.909 25.856 181.933 25.904 181.933 25.964V26.648C181.933 26.684 181.945 26.708 181.969 26.72C181.993 26.732 182.011 26.726 182.023 26.702C182.515 25.982 183.175 25.622 184.003 25.622ZM189.835 35.126C189.031 35.126 188.329 35.012 187.729 34.784C187.129 34.556 186.661 34.238 186.325 33.83C186.001 33.422 185.839 32.96 185.839 32.444V32.264C185.839 32.204 185.857 32.156 185.893 32.12C185.941 32.072 185.995 32.048 186.055 32.048H188.053C188.113 32.048 188.161 32.072 188.197 32.12C188.245 32.156 188.269 32.204 188.269 32.264V32.282C188.269 32.546 188.413 32.774 188.701 32.966C189.001 33.146 189.373 33.236 189.817 33.236C190.225 33.236 190.555 33.158 190.807 33.002C191.059 32.834 191.185 32.63 191.185 32.39C191.185 32.174 191.077 32.012 190.861 31.904C190.645 31.796 190.291 31.682 189.799 31.562C189.235 31.418 188.791 31.28 188.467 31.148C187.699 30.884 187.087 30.56 186.631 30.176C186.175 29.792 185.947 29.24 185.947 28.52C185.947 27.632 186.289 26.93 186.973 26.414C187.669 25.886 188.587 25.622 189.727 25.622C190.495 25.622 191.167 25.748 191.743 26C192.319 26.24 192.763 26.582 193.075 27.026C193.399 27.47 193.561 27.974 193.561 28.538C193.561 28.598 193.537 28.652 193.489 28.7C193.453 28.736 193.405 28.754 193.345 28.754H191.419C191.359 28.754 191.305 28.736 191.257 28.7C191.221 28.652 191.203 28.598 191.203 28.538C191.203 28.274 191.065 28.052 190.789 27.872C190.525 27.692 190.171 27.602 189.727 27.602C189.331 27.602 189.007 27.674 188.755 27.818C188.503 27.962 188.377 28.16 188.377 28.412C188.377 28.652 188.497 28.832 188.737 28.952C188.989 29.072 189.403 29.198 189.979 29.33C190.111 29.366 190.261 29.408 190.429 29.456C190.597 29.492 190.777 29.54 190.969 29.6C191.821 29.852 192.493 30.176 192.985 30.572C193.477 30.968 193.723 31.544 193.723 32.3C193.723 33.188 193.369 33.884 192.661 34.388C191.965 34.88 191.023 35.126 189.835 35.126Z" fill="#3683BC"/>
</g>
<defs>
<filter id="filter0_d" x="-20" y="-4" width="388" height="187.692" filterUnits="userSpaceOnUse" color-interpolation-filters="sRGB">
<feFlood flood-opacity="0" result="BackgroundImageFix"/>
<feColorMatrix in="SourceAlpha" type="matrix" values="0 0 0 0 0 0 0 0 0 0 0 0 0 0 0 0 0 0 127 0"/>
<feOffset dy="10"/>
<feGaussianBlur stdDeviation="10"/>
<feColorMatrix type="matrix" values="0 0 0 0 0.268807 0 0 0 0 0.618425 0 0 0 0 1 0 0 0 0.1 0"/>
<feBlend mode="normal" in2="BackgroundImageFix" result="effect1_dropShadow"/>
<feBlend mode="normal" in="SourceGraphic" in2="effect1_dropShadow" result="shape"/>
</filter>
<clipPath id="clip0">
<rect width="354" height="161" fill="white"/>
</clipPath>
</defs>
</svg>
