<svg width="363" height="102" viewBox="0 0 363 102" fill="none" xmlns="http://www.w3.org/2000/svg">
<g filter="url(#filter0_d)">
<path d="M337 7H26C17.1634 7 10 15.2733 10 25.4789V70.5211C10 80.7267 17.1634 89 26 89H337C345.837 89 353 80.7267 353 70.5211V25.4789C353 15.2733 345.837 7 337 7Z" fill="white"/>
</g>
<circle cx="49" cy="41" r="25" fill="#3683BC"/>
<path d="M48.9072 34.1538H36.401C35.5718 34.1538 34.7765 34.478 34.1902 35.0551C33.6038 35.6321 33.2744 36.4147 33.2744 37.2308V43.3846C33.2744 44.2007 33.6038 44.9833 34.1902 45.5603C34.7765 46.1374 35.5718 46.4615 36.401 46.4615H37.9642V52.6154C37.9642 53.0234 38.1289 53.4147 38.4221 53.7032C38.7153 53.9918 39.1129 54.1538 39.5275 54.1538H42.6541C43.0687 54.1538 43.4663 53.9918 43.7595 53.7032C44.0526 53.4147 44.2173 53.0234 44.2173 52.6154V46.4615H48.9072L56.7235 52.6154V28L48.9072 34.1538ZM63.7583 40.3077C63.7583 42.9385 62.2575 45.3231 59.8501 46.4615V34.1538C62.2419 35.3077 63.7583 37.6923 63.7583 40.3077Z" fill="white"/>
<path d="M86.71 37.112C86.0287 37.112 85.4313 36.986 84.918 36.734C84.4047 36.4727 84.008 36.1087 83.728 35.642C83.448 35.1753 83.308 34.634 83.308 34.018V33.08C83.308 33.0333 83.322 32.996 83.35 32.968C83.3873 32.9307 83.4293 32.912 83.476 32.912H84.764C84.8107 32.912 84.848 32.9307 84.876 32.968C84.9133 32.996 84.932 33.0333 84.932 33.08V34.018C84.932 34.522 85.0907 34.9327 85.408 35.25C85.7347 35.558 86.1687 35.712 86.71 35.712C87.2327 35.712 87.662 35.558 87.998 35.25C88.334 34.9327 88.502 34.522 88.502 34.018V27.368C88.502 27.3213 88.516 27.284 88.544 27.256C88.5813 27.2187 88.6233 27.2 88.67 27.2H89.944C89.9907 27.2 90.028 27.2187 90.056 27.256C90.0933 27.284 90.112 27.3213 90.112 27.368V34.018C90.112 34.634 89.9673 35.1753 89.678 35.642C89.398 36.1087 88.9967 36.4727 88.474 36.734C87.9607 36.986 87.3727 37.112 86.71 37.112ZM95.0408 37.112C94.3034 37.112 93.6688 36.9253 93.1368 36.552C92.6141 36.1787 92.2454 35.6607 92.0308 34.998C91.8721 34.494 91.7928 33.962 91.7928 33.402C91.7928 32.8047 91.8674 32.2727 92.0168 31.806C92.2314 31.1527 92.6048 30.644 93.1368 30.28C93.6688 29.916 94.3081 29.734 95.0548 29.734C95.7641 29.734 96.3754 29.916 96.8888 30.28C97.4114 30.644 97.7801 31.148 97.9948 31.792C98.1628 32.24 98.2468 32.772 98.2468 33.388C98.2468 33.976 98.1674 34.508 98.0088 34.984C97.7941 35.6467 97.4254 36.1693 96.9028 36.552C96.3801 36.9253 95.7594 37.112 95.0408 37.112ZM95.0408 35.712C95.3861 35.712 95.6801 35.614 95.9228 35.418C96.1748 35.222 96.3568 34.9467 96.4688 34.592C96.5621 34.284 96.6088 33.892 96.6088 33.416C96.6088 32.912 96.5621 32.52 96.4688 32.24C96.3661 31.8853 96.1888 31.6147 95.9368 31.428C95.6848 31.232 95.3768 31.134 95.0128 31.134C94.6674 31.134 94.3688 31.232 94.1168 31.428C93.8648 31.6147 93.6828 31.8853 93.5708 32.24C93.4774 32.5667 93.4308 32.9587 93.4308 33.416C93.4308 33.8733 93.4774 34.2653 93.5708 34.592C93.6734 34.9467 93.8508 35.222 94.1028 35.418C94.3641 35.614 94.6768 35.712 95.0408 35.712ZM103.212 29.734C103.968 29.734 104.57 29.958 105.018 30.406C105.475 30.854 105.704 31.4653 105.704 32.24V36.832C105.704 36.8787 105.685 36.9207 105.648 36.958C105.62 36.986 105.583 37 105.536 37H104.248C104.201 37 104.159 36.986 104.122 36.958C104.094 36.9207 104.08 36.8787 104.08 36.832V32.576C104.08 32.1467 103.959 31.8013 103.716 31.54C103.473 31.2693 103.151 31.134 102.75 31.134C102.349 31.134 102.022 31.2647 101.77 31.526C101.527 31.7873 101.406 32.1327 101.406 32.562V36.832C101.406 36.8787 101.387 36.9207 101.35 36.958C101.322 36.986 101.285 37 101.238 37H99.9501C99.9034 37 99.8614 36.986 99.8241 36.958C99.7961 36.9207 99.7821 36.8787 99.7821 36.832V27.368C99.7821 27.3213 99.7961 27.284 99.8241 27.256C99.8614 27.2187 99.9034 27.2 99.9501 27.2H101.238C101.285 27.2 101.322 27.2187 101.35 27.256C101.387 27.284 101.406 27.3213 101.406 27.368V30.462C101.406 30.49 101.415 30.5087 101.434 30.518C101.453 30.5273 101.467 30.518 101.476 30.49C101.859 29.986 102.437 29.734 103.212 29.734ZM110.827 29.734C111.583 29.734 112.185 29.958 112.633 30.406C113.091 30.854 113.319 31.4653 113.319 32.24V36.832C113.319 36.8787 113.301 36.9207 113.263 36.958C113.235 36.986 113.198 37 113.151 37H111.863C111.817 37 111.775 36.986 111.737 36.958C111.709 36.9207 111.695 36.8787 111.695 36.832V32.576C111.695 32.1467 111.574 31.8013 111.331 31.54C111.089 31.2693 110.767 31.134 110.365 31.134C109.964 31.134 109.637 31.2647 109.385 31.526C109.143 31.7873 109.021 32.1327 109.021 32.562V36.832C109.021 36.8787 109.003 36.9207 108.965 36.958C108.937 36.986 108.9 37 108.853 37H107.565C107.519 37 107.477 36.986 107.439 36.958C107.411 36.9207 107.397 36.8787 107.397 36.832V30.014C107.397 29.9673 107.411 29.93 107.439 29.902C107.477 29.8647 107.519 29.846 107.565 29.846H108.853C108.9 29.846 108.937 29.8647 108.965 29.902C109.003 29.93 109.021 29.9673 109.021 30.014V30.462C109.021 30.49 109.031 30.5087 109.049 30.518C109.068 30.5273 109.082 30.518 109.091 30.49C109.474 29.986 110.053 29.734 110.827 29.734ZM118.137 37C118.091 37 118.049 36.986 118.011 36.958C117.983 36.9207 117.969 36.8787 117.969 36.832V27.368C117.969 27.3213 117.983 27.284 118.011 27.256C118.049 27.2187 118.091 27.2 118.137 27.2H121.553C122.216 27.2 122.799 27.3167 123.303 27.55C123.807 27.7833 124.195 28.1193 124.465 28.558C124.745 28.9873 124.885 29.4913 124.885 30.07V34.13C124.885 34.7087 124.745 35.2173 124.465 35.656C124.195 36.0853 123.807 36.4167 123.303 36.65C122.799 36.8833 122.216 37 121.553 37H118.137ZM119.593 35.53C119.593 35.5767 119.617 35.6 119.663 35.6H121.623C122.118 35.6 122.51 35.446 122.799 35.138C123.098 34.8207 123.252 34.4007 123.261 33.878V30.336C123.261 29.804 123.112 29.384 122.813 29.076C122.515 28.7587 122.113 28.6 121.609 28.6H119.663C119.617 28.6 119.593 28.6233 119.593 28.67V35.53ZM129.508 37.112C128.77 37.112 128.136 36.9253 127.604 36.552C127.081 36.1787 126.712 35.6607 126.498 34.998C126.339 34.494 126.26 33.962 126.26 33.402C126.26 32.8047 126.334 32.2727 126.484 31.806C126.698 31.1527 127.072 30.644 127.604 30.28C128.136 29.916 128.775 29.734 129.522 29.734C130.231 29.734 130.842 29.916 131.356 30.28C131.878 30.644 132.247 31.148 132.462 31.792C132.63 32.24 132.714 32.772 132.714 33.388C132.714 33.976 132.634 34.508 132.476 34.984C132.261 35.6467 131.892 36.1693 131.37 36.552C130.847 36.9253 130.226 37.112 129.508 37.112ZM129.508 35.712C129.853 35.712 130.147 35.614 130.39 35.418C130.642 35.222 130.824 34.9467 130.936 34.592C131.029 34.284 131.076 33.892 131.076 33.416C131.076 32.912 131.029 32.52 130.936 32.24C130.833 31.8853 130.656 31.6147 130.404 31.428C130.152 31.232 129.844 31.134 129.48 31.134C129.134 31.134 128.836 31.232 128.584 31.428C128.332 31.6147 128.15 31.8853 128.038 32.24C127.944 32.5667 127.898 32.9587 127.898 33.416C127.898 33.8733 127.944 34.2653 128.038 34.592C128.14 34.9467 128.318 35.222 128.57 35.418C128.831 35.614 129.144 35.712 129.508 35.712ZM140.283 32.618C140.32 32.8513 140.339 33.1127 140.339 33.402L140.325 33.836C140.325 33.948 140.269 34.004 140.157 34.004H135.775C135.728 34.004 135.705 34.0273 135.705 34.074C135.733 34.382 135.775 34.592 135.831 34.704C136.055 35.376 136.601 35.7167 137.469 35.726C138.104 35.726 138.608 35.4647 138.981 34.942C139.018 34.886 139.065 34.858 139.121 34.858C139.158 34.858 139.191 34.872 139.219 34.9L140.087 35.614C140.171 35.6793 140.185 35.754 140.129 35.838C139.84 36.2487 139.452 36.566 138.967 36.79C138.491 37.014 137.959 37.126 137.371 37.126C136.643 37.126 136.022 36.9627 135.509 36.636C135.005 36.3093 134.636 35.852 134.403 35.264C134.188 34.76 134.081 34.06 134.081 33.164C134.081 32.6227 134.137 32.184 134.249 31.848C134.436 31.1947 134.786 30.6813 135.299 30.308C135.822 29.9253 136.447 29.734 137.175 29.734C139.014 29.734 140.05 30.6953 140.283 32.618ZM137.175 31.134C136.83 31.134 136.54 31.2227 136.307 31.4C136.083 31.568 135.924 31.806 135.831 32.114C135.775 32.2727 135.738 32.478 135.719 32.73C135.7 32.7767 135.719 32.8 135.775 32.8H138.617C138.664 32.8 138.687 32.7767 138.687 32.73C138.668 32.4967 138.64 32.3193 138.603 32.198C138.519 31.862 138.351 31.6007 138.099 31.414C137.856 31.2273 137.548 31.134 137.175 31.134Z" fill="#5F5F5F"/>
<path d="M164.624 38.456C164.559 38.456 164.503 38.428 164.456 38.372C163.999 37.672 163.63 36.7993 163.35 35.754C163.07 34.7087 162.93 33.6073 162.93 32.45C162.93 31.274 163.07 30.1493 163.35 29.076C163.639 28.0027 164.017 27.1113 164.484 26.402C164.521 26.346 164.577 26.318 164.652 26.318H165.324C165.38 26.318 165.417 26.3367 165.436 26.374C165.455 26.402 165.45 26.4393 165.422 26.486C165.021 27.2047 164.694 28.0913 164.442 29.146C164.19 30.1913 164.064 31.288 164.064 32.436C164.064 33.5653 164.19 34.648 164.442 35.684C164.694 36.7107 165.021 37.5787 165.422 38.288C165.441 38.3253 165.45 38.3533 165.45 38.372C165.45 38.428 165.408 38.456 165.324 38.456H164.624ZM168.764 37C168.718 37 168.68 36.986 168.652 36.958C168.634 36.9207 168.634 36.8787 168.652 36.832L171.886 28.138C171.896 28.1193 171.896 28.1053 171.886 28.096C171.877 28.0773 171.863 28.068 171.844 28.068H168.064C168.027 28.068 168.008 28.0867 168.008 28.124V28.768C168.008 28.8613 167.962 28.908 167.868 28.908H167.294C167.201 28.908 167.154 28.8613 167.154 28.768L167.168 27.34C167.168 27.2467 167.215 27.2 167.308 27.2H172.824C172.918 27.2 172.964 27.2467 172.964 27.34V27.984C172.964 28.0213 172.955 28.0773 172.936 28.152L169.716 36.888C169.688 36.9627 169.632 37 169.548 37H168.764ZM179.442 32.884C179.619 33.2667 179.708 33.724 179.708 34.256C179.708 34.9 179.572 35.446 179.302 35.894C179.078 36.2767 178.76 36.5753 178.35 36.79C177.939 37.0047 177.463 37.112 176.922 37.112C176.362 37.112 175.872 37.0047 175.452 36.79C175.032 36.566 174.71 36.244 174.486 35.824C174.224 35.3573 174.094 34.83 174.094 34.242C174.094 33.7473 174.192 33.2807 174.388 32.842C174.602 32.3753 174.943 32.0253 175.41 31.792C175.456 31.7733 175.456 31.75 175.41 31.722C175.102 31.5447 174.85 31.3067 174.654 31.008C174.374 30.6067 174.234 30.1493 174.234 29.636C174.234 29.1133 174.374 28.6373 174.654 28.208C174.878 27.844 175.186 27.564 175.578 27.368C175.979 27.1627 176.427 27.06 176.922 27.06C177.435 27.06 177.883 27.1627 178.266 27.368C178.648 27.564 178.952 27.844 179.176 28.208C179.446 28.6467 179.582 29.1227 179.582 29.636C179.582 30.1493 179.442 30.616 179.162 31.036C178.994 31.288 178.746 31.5167 178.42 31.722C178.373 31.75 178.373 31.7733 178.42 31.792C178.896 32.0253 179.236 32.3893 179.442 32.884ZM175.438 28.81C175.288 29.09 175.214 29.3653 175.214 29.636C175.214 30.028 175.312 30.3687 175.508 30.658C175.657 30.8913 175.848 31.0687 176.082 31.19C176.324 31.3113 176.6 31.372 176.908 31.372C177.216 31.372 177.491 31.3113 177.734 31.19C177.976 31.0593 178.172 30.8773 178.322 30.644C178.499 30.392 178.588 30.0513 178.588 29.622C178.588 29.314 178.518 29.034 178.378 28.782C178.238 28.5207 178.042 28.3153 177.79 28.166C177.538 28.0073 177.239 27.928 176.894 27.928C176.567 27.928 176.278 28.0073 176.026 28.166C175.774 28.3247 175.578 28.5393 175.438 28.81ZM178.364 35.516C178.597 35.1613 178.714 34.718 178.714 34.186C178.714 33.7473 178.639 33.3693 178.49 33.052C178.21 32.436 177.682 32.128 176.908 32.128C176.17 32.128 175.657 32.4173 175.368 32.996C175.2 33.2947 175.116 33.696 175.116 34.2C175.116 34.7227 175.218 35.1473 175.424 35.474C175.741 35.9873 176.24 36.244 176.922 36.244C177.584 36.244 178.065 36.0013 178.364 35.516ZM186.784 32.394C186.98 32.814 187.078 33.346 187.078 33.99C187.078 34.5687 187.004 35.0353 186.854 35.39C186.658 35.9313 186.346 36.3513 185.916 36.65C185.487 36.9487 184.95 37.098 184.306 37.098C183.634 37.098 183.07 36.9393 182.612 36.622C182.155 36.3047 181.833 35.8567 181.646 35.278C181.534 34.9047 181.478 34.466 181.478 33.962V29.594C181.478 28.8287 181.73 28.222 182.234 27.774C182.738 27.3167 183.396 27.088 184.208 27.088C185.002 27.088 185.641 27.3073 186.126 27.746C186.612 28.1847 186.854 28.7633 186.854 29.482V29.678C186.854 29.7713 186.808 29.818 186.714 29.818H186C185.907 29.818 185.86 29.7713 185.86 29.678V29.566C185.86 29.09 185.706 28.7027 185.398 28.404C185.09 28.1053 184.694 27.956 184.208 27.956C183.704 27.956 183.289 28.1147 182.962 28.432C182.636 28.74 182.472 29.1507 182.472 29.664V31.722C182.472 31.7407 182.482 31.7547 182.5 31.764C182.519 31.764 182.533 31.7547 182.542 31.736C182.953 31.176 183.574 30.896 184.404 30.896C184.992 30.896 185.482 31.0267 185.874 31.288C186.276 31.5493 186.579 31.918 186.784 32.394ZM185.916 35.054C186.028 34.7647 186.084 34.41 186.084 33.99C186.084 33.5047 186.019 33.1313 185.888 32.87C185.776 32.5247 185.58 32.254 185.3 32.058C185.02 31.862 184.675 31.764 184.264 31.764C183.854 31.764 183.508 31.8667 183.228 32.072C182.948 32.268 182.752 32.5433 182.64 32.898C182.528 33.1873 182.472 33.5653 182.472 34.032C182.472 34.4427 182.519 34.7833 182.612 35.054C182.724 35.4087 182.92 35.6933 183.2 35.908C183.49 36.1227 183.849 36.23 184.278 36.23C184.68 36.23 185.025 36.132 185.314 35.936C185.604 35.7307 185.804 35.4367 185.916 35.054ZM189.803 26.318C189.869 26.318 189.925 26.346 189.971 26.402C190.419 27.102 190.783 27.9747 191.063 29.02C191.343 30.0653 191.483 31.1667 191.483 32.324C191.483 33.5093 191.339 34.6387 191.049 35.712C190.769 36.7853 190.396 37.672 189.929 38.372C189.892 38.428 189.836 38.456 189.761 38.456H189.103C189.047 38.456 189.01 38.4373 188.991 38.4C188.973 38.372 188.977 38.3347 189.005 38.288C189.407 37.5693 189.733 36.6873 189.985 35.642C190.237 34.5873 190.363 33.4907 190.363 32.352C190.363 31.2227 190.237 30.14 189.985 29.104C189.733 28.068 189.407 27.1953 189.005 26.486C188.987 26.4487 188.977 26.4207 188.977 26.402C188.977 26.346 189.019 26.318 189.103 26.318H189.803ZM196.747 27.242C196.803 27.214 196.863 27.2 196.929 27.2H197.685C197.778 27.2 197.825 27.2467 197.825 27.34V36.86C197.825 36.9533 197.778 37 197.685 37H196.971C196.877 37 196.831 36.9533 196.831 36.86V28.334C196.831 28.3153 196.821 28.3013 196.803 28.292C196.793 28.2827 196.779 28.2827 196.761 28.292L195.277 28.894L195.221 28.908C195.165 28.908 195.127 28.8707 195.109 28.796L195.039 28.264V28.236C195.039 28.1893 195.071 28.1427 195.137 28.096L196.747 27.242ZM201.249 36.062C201.221 36.1087 201.23 36.132 201.277 36.132H205.673C205.766 36.132 205.813 36.1787 205.813 36.272V36.86C205.813 36.9533 205.766 37 205.673 37H200.087C199.994 37 199.947 36.9533 199.947 36.86V36.272C199.947 36.2067 199.97 36.1507 200.017 36.104C200.334 35.7307 201.048 34.8533 202.159 33.472L203.195 32.184C204.072 31.0733 204.511 30.21 204.511 29.594C204.511 29.0993 204.343 28.7027 204.007 28.404C203.671 28.1053 203.232 27.956 202.691 27.956C202.159 27.956 201.73 28.11 201.403 28.418C201.076 28.7167 200.918 29.1133 200.927 29.608V30.042C200.927 30.1353 200.88 30.182 200.787 30.182H200.059C199.966 30.182 199.919 30.1353 199.919 30.042V29.482C199.938 28.7633 200.204 28.1847 200.717 27.746C201.24 27.3073 201.898 27.088 202.691 27.088C203.251 27.088 203.746 27.1953 204.175 27.41C204.604 27.6247 204.936 27.9233 205.169 28.306C205.402 28.6793 205.519 29.104 205.519 29.58C205.519 30.3733 205.08 31.33 204.203 32.45C203.746 33.038 202.864 34.1207 201.557 35.698L201.249 36.062ZM212.565 32.366C212.752 32.8233 212.845 33.3693 212.845 34.004C212.845 34.5173 212.775 34.97 212.635 35.362C212.448 35.922 212.131 36.356 211.683 36.664C211.244 36.9627 210.698 37.112 210.045 37.112C209.392 37.112 208.832 36.944 208.365 36.608C207.898 36.2627 207.576 35.8007 207.399 35.222C207.315 34.9607 207.264 34.606 207.245 34.158C207.245 34.0647 207.292 34.018 207.385 34.018H208.099C208.192 34.018 208.239 34.0647 208.239 34.158C208.258 34.4287 208.29 34.6807 208.337 34.914C208.44 35.3247 208.636 35.6513 208.925 35.894C209.224 36.1273 209.592 36.244 210.031 36.244C210.871 36.244 211.417 35.8707 211.669 35.124C211.781 34.816 211.837 34.4333 211.837 33.976C211.837 33.416 211.762 32.9587 211.613 32.604C211.314 31.932 210.787 31.596 210.031 31.596C209.891 31.596 209.718 31.6473 209.513 31.75C209.476 31.7687 209.448 31.778 209.429 31.778C209.392 31.778 209.359 31.7547 209.331 31.708L208.967 31.218C208.92 31.1433 208.925 31.078 208.981 31.022L211.445 28.138C211.473 28.0913 211.464 28.068 211.417 28.068H207.469C207.376 28.068 207.329 28.0213 207.329 27.928V27.34C207.329 27.2467 207.376 27.2 207.469 27.2H212.649C212.742 27.2 212.789 27.2467 212.789 27.34V28.026C212.789 28.0727 212.766 28.1287 212.719 28.194L210.479 30.882C210.46 30.9007 210.456 30.9193 210.465 30.938C210.474 30.9473 210.493 30.952 210.521 30.952C211.52 31.0173 212.201 31.4887 212.565 32.366ZM214.436 33.08C214.343 33.08 214.296 33.0333 214.296 32.94V32.352C214.296 32.2587 214.343 32.212 214.436 32.212H218.58C218.673 32.212 218.72 32.2587 218.72 32.352V32.94C218.72 33.0333 218.673 33.08 218.58 33.08H214.436ZM225.98 33.402C226.073 33.402 226.12 33.4487 226.12 33.542V34.158C226.12 34.2513 226.073 34.298 225.98 34.298H225.378C225.34 34.298 225.322 34.3167 225.322 34.354V36.86C225.322 36.9533 225.275 37 225.182 37H224.468C224.374 37 224.328 36.9533 224.328 36.86V34.354C224.328 34.3167 224.309 34.298 224.272 34.298H220.086C219.992 34.298 219.946 34.2513 219.946 34.158V33.64C219.946 33.5933 219.96 33.5373 219.988 33.472L222.858 27.298C222.886 27.2327 222.937 27.2 223.012 27.2H223.754C223.8 27.2 223.833 27.2187 223.852 27.256C223.88 27.284 223.884 27.3213 223.866 27.368L221.08 33.332C221.07 33.3507 221.07 33.3693 221.08 33.388C221.089 33.3973 221.103 33.402 221.122 33.402H224.272C224.309 33.402 224.328 33.3833 224.328 33.346V31.092C224.328 30.9987 224.374 30.952 224.468 30.952H225.182C225.275 30.952 225.322 30.9987 225.322 31.092V33.346C225.322 33.3833 225.34 33.402 225.378 33.402H225.98ZM233.341 32.716C233.425 33.1267 233.467 33.5467 233.467 33.976C233.467 34.4333 233.425 34.8253 233.341 35.152C233.182 35.7493 232.865 36.2253 232.389 36.58C231.913 36.9253 231.339 37.098 230.667 37.098C230.004 37.098 229.439 36.93 228.973 36.594C228.506 36.258 228.189 35.81 228.021 35.25C227.955 35.0447 227.913 34.8393 227.895 34.634V34.606C227.895 34.5313 227.937 34.494 228.021 34.494H228.763C228.856 34.494 228.907 34.5407 228.917 34.634C228.917 34.69 228.935 34.7833 228.973 34.914C229.066 35.3153 229.257 35.6373 229.547 35.88C229.845 36.1133 230.214 36.23 230.653 36.23C231.101 36.23 231.474 36.104 231.773 35.852C232.081 35.6 232.281 35.2547 232.375 34.816C232.431 34.6013 232.459 34.3213 232.459 33.976C232.459 33.6587 232.435 33.3553 232.389 33.066C232.323 32.6367 232.137 32.31 231.829 32.086C231.521 31.862 231.138 31.75 230.681 31.75C230.27 31.75 229.901 31.8433 229.575 32.03C229.248 32.2167 229.038 32.464 228.945 32.772C228.917 32.856 228.865 32.898 228.791 32.898H228.035C227.941 32.898 227.895 32.8513 227.895 32.758V27.34C227.895 27.2467 227.941 27.2 228.035 27.2H232.935C233.028 27.2 233.075 27.2467 233.075 27.34V27.928C233.075 28.0213 233.028 28.068 232.935 28.068H228.945C228.907 28.068 228.889 28.0867 228.889 28.124L228.875 31.512C228.875 31.5307 228.879 31.5447 228.889 31.554C228.907 31.5633 228.926 31.5587 228.945 31.54C229.178 31.3253 229.453 31.162 229.771 31.05C230.088 30.9287 230.424 30.868 230.779 30.868C231.441 30.868 232.001 31.0313 232.459 31.358C232.916 31.6753 233.21 32.128 233.341 32.716ZM240.378 32.394C240.574 32.814 240.672 33.346 240.672 33.99C240.672 34.5687 240.597 35.0353 240.448 35.39C240.252 35.9313 239.939 36.3513 239.51 36.65C239.081 36.9487 238.544 37.098 237.9 37.098C237.228 37.098 236.663 36.9393 236.206 36.622C235.749 36.3047 235.427 35.8567 235.24 35.278C235.128 34.9047 235.072 34.466 235.072 33.962V29.594C235.072 28.8287 235.324 28.222 235.828 27.774C236.332 27.3167 236.99 27.088 237.802 27.088C238.595 27.088 239.235 27.3073 239.72 27.746C240.205 28.1847 240.448 28.7633 240.448 29.482V29.678C240.448 29.7713 240.401 29.818 240.308 29.818H239.594C239.501 29.818 239.454 29.7713 239.454 29.678V29.566C239.454 29.09 239.3 28.7027 238.992 28.404C238.684 28.1053 238.287 27.956 237.802 27.956C237.298 27.956 236.883 28.1147 236.556 28.432C236.229 28.74 236.066 29.1507 236.066 29.664V31.722C236.066 31.7407 236.075 31.7547 236.094 31.764C236.113 31.764 236.127 31.7547 236.136 31.736C236.547 31.176 237.167 30.896 237.998 30.896C238.586 30.896 239.076 31.0267 239.468 31.288C239.869 31.5493 240.173 31.918 240.378 32.394ZM239.51 35.054C239.622 34.7647 239.678 34.41 239.678 33.99C239.678 33.5047 239.613 33.1313 239.482 32.87C239.37 32.5247 239.174 32.254 238.894 32.058C238.614 31.862 238.269 31.764 237.858 31.764C237.447 31.764 237.102 31.8667 236.822 32.072C236.542 32.268 236.346 32.5433 236.234 32.898C236.122 33.1873 236.066 33.5653 236.066 34.032C236.066 34.4427 236.113 34.7833 236.206 35.054C236.318 35.4087 236.514 35.6933 236.794 35.908C237.083 36.1227 237.443 36.23 237.872 36.23C238.273 36.23 238.619 36.132 238.908 35.936C239.197 35.7307 239.398 35.4367 239.51 35.054ZM243.481 37C243.435 37 243.397 36.986 243.369 36.958C243.351 36.9207 243.351 36.8787 243.369 36.832L246.603 28.138C246.613 28.1193 246.613 28.1053 246.603 28.096C246.594 28.0773 246.58 28.068 246.561 28.068H242.781C242.744 28.068 242.725 28.0867 242.725 28.124V28.768C242.725 28.8613 242.679 28.908 242.585 28.908H242.011C241.918 28.908 241.871 28.8613 241.871 28.768L241.885 27.34C241.885 27.2467 241.932 27.2 242.025 27.2H247.541C247.635 27.2 247.681 27.2467 247.681 27.34V27.984C247.681 28.0213 247.672 28.0773 247.653 28.152L244.433 36.888C244.405 36.9627 244.349 37 244.265 37H243.481Z" fill="#5F5F5F"/>
<path d="M98.92 48.636C98.984 48.612 99.044 48.6 99.1 48.6H100.252C100.292 48.6 100.324 48.616 100.348 48.648C100.38 48.672 100.396 48.704 100.396 48.744V56.856C100.396 56.896 100.38 56.932 100.348 56.964C100.324 56.988 100.292 57 100.252 57H99.148C99.108 57 99.072 56.988 99.04 56.964C99.016 56.932 99.004 56.896 99.004 56.856V50.04C99.004 50.024 98.996 50.012 98.98 50.004C98.964 49.988 98.948 49.984 98.932 49.992L97.732 50.364C97.716 50.372 97.696 50.376 97.672 50.376C97.64 50.376 97.612 50.364 97.588 50.34C97.572 50.316 97.564 50.284 97.564 50.244L97.528 49.452C97.528 49.372 97.56 49.316 97.624 49.284L98.92 48.636ZM110.029 48.6C110.069 48.6 110.101 48.616 110.125 48.648C110.157 48.672 110.173 48.704 110.173 48.744V49.668C110.173 49.708 110.157 49.744 110.125 49.776C110.101 49.8 110.069 49.812 110.029 49.812H107.821C107.781 49.812 107.761 49.832 107.761 49.872V56.856C107.761 56.896 107.745 56.932 107.713 56.964C107.689 56.988 107.657 57 107.617 57H106.513C106.473 57 106.437 56.988 106.405 56.964C106.381 56.932 106.369 56.896 106.369 56.856V49.872C106.369 49.832 106.349 49.812 106.309 49.812H104.185C104.145 49.812 104.109 49.8 104.077 49.776C104.053 49.744 104.041 49.708 104.041 49.668V48.744C104.041 48.704 104.053 48.672 104.077 48.648C104.109 48.616 104.145 48.6 104.185 48.6H110.029ZM114.266 50.772C114.914 50.772 115.43 50.964 115.814 51.348C116.206 51.732 116.402 52.256 116.402 52.92V56.856C116.402 56.896 116.386 56.932 116.354 56.964C116.33 56.988 116.298 57 116.258 57H115.154C115.114 57 115.078 56.988 115.046 56.964C115.022 56.932 115.01 56.896 115.01 56.856V53.208C115.01 52.84 114.906 52.544 114.698 52.32C114.49 52.088 114.214 51.972 113.87 51.972C113.526 51.972 113.246 52.084 113.03 52.308C112.822 52.532 112.718 52.828 112.718 53.196V56.856C112.718 56.896 112.702 56.932 112.67 56.964C112.646 56.988 112.614 57 112.574 57H111.47C111.43 57 111.394 56.988 111.362 56.964C111.338 56.932 111.326 56.896 111.326 56.856V48.744C111.326 48.704 111.338 48.672 111.362 48.648C111.394 48.616 111.43 48.6 111.47 48.6H112.574C112.614 48.6 112.646 48.616 112.67 48.648C112.702 48.672 112.718 48.704 112.718 48.744V51.396C112.718 51.42 112.726 51.436 112.742 51.444C112.758 51.452 112.77 51.444 112.778 51.42C113.106 50.988 113.602 50.772 114.266 50.772ZM122.979 53.244C123.011 53.444 123.027 53.668 123.027 53.916L123.015 54.288C123.015 54.384 122.967 54.432 122.871 54.432H119.115C119.075 54.432 119.055 54.452 119.055 54.492C119.079 54.756 119.115 54.936 119.163 55.032C119.355 55.608 119.823 55.9 120.567 55.908C121.111 55.908 121.543 55.684 121.863 55.236C121.895 55.188 121.935 55.164 121.983 55.164C122.015 55.164 122.043 55.176 122.067 55.2L122.811 55.812C122.883 55.868 122.895 55.932 122.847 56.004C122.599 56.356 122.267 56.628 121.851 56.82C121.443 57.012 120.987 57.108 120.483 57.108C119.859 57.108 119.327 56.968 118.887 56.688C118.455 56.408 118.139 56.016 117.939 55.512C117.755 55.08 117.663 54.48 117.663 53.712C117.663 53.248 117.711 52.872 117.807 52.584C117.967 52.024 118.267 51.584 118.707 51.264C119.155 50.936 119.691 50.772 120.315 50.772C121.891 50.772 122.779 51.596 122.979 53.244ZM120.315 51.972C120.019 51.972 119.771 52.048 119.571 52.2C119.379 52.344 119.243 52.548 119.163 52.812C119.115 52.948 119.083 53.124 119.067 53.34C119.051 53.38 119.067 53.4 119.115 53.4H121.551C121.591 53.4 121.611 53.38 121.611 53.34C121.595 53.14 121.571 52.988 121.539 52.884C121.467 52.596 121.323 52.372 121.107 52.212C120.899 52.052 120.635 51.972 120.315 51.972ZM129.641 57.096C129.041 57.096 128.513 56.98 128.057 56.748C127.601 56.508 127.249 56.172 127.001 55.74C126.753 55.308 126.629 54.812 126.629 54.252V51.348C126.629 50.78 126.753 50.284 127.001 49.86C127.249 49.428 127.601 49.096 128.057 48.864C128.513 48.624 129.041 48.504 129.641 48.504C130.233 48.504 130.753 48.62 131.201 48.852C131.657 49.084 132.009 49.4 132.257 49.8C132.505 50.2 132.629 50.652 132.629 51.156V51.252C132.629 51.292 132.613 51.328 132.581 51.36C132.557 51.384 132.525 51.396 132.485 51.396H131.393C131.353 51.396 131.317 51.384 131.285 51.36C131.261 51.328 131.249 51.292 131.249 51.252V51.192C131.249 50.76 131.101 50.404 130.805 50.124C130.517 49.844 130.129 49.704 129.641 49.704C129.153 49.704 128.761 49.852 128.465 50.148C128.169 50.436 128.021 50.82 128.021 51.3V54.3C128.021 54.78 128.177 55.168 128.489 55.464C128.801 55.752 129.205 55.896 129.701 55.896C130.181 55.896 130.557 55.772 130.829 55.524C131.109 55.268 131.249 54.92 131.249 54.48V53.736C131.249 53.696 131.229 53.676 131.189 53.676H129.713C129.673 53.676 129.637 53.664 129.605 53.64C129.581 53.608 129.569 53.572 129.569 53.532V52.644C129.569 52.604 129.581 52.572 129.605 52.548C129.637 52.516 129.673 52.5 129.713 52.5H132.485C132.525 52.5 132.557 52.516 132.581 52.548C132.613 52.572 132.629 52.604 132.629 52.644V54.18C132.629 55.1 132.357 55.816 131.813 56.328C131.277 56.84 130.553 57.096 129.641 57.096ZM136.354 50.772C136.858 50.772 137.302 50.86 137.686 51.036C138.07 51.212 138.366 51.456 138.574 51.768C138.782 52.072 138.886 52.42 138.886 52.812V56.856C138.886 56.896 138.87 56.932 138.838 56.964C138.814 56.988 138.782 57 138.742 57H137.638C137.598 57 137.562 56.988 137.53 56.964C137.506 56.932 137.494 56.896 137.494 56.856V56.472C137.494 56.448 137.486 56.436 137.47 56.436C137.454 56.428 137.438 56.432 137.422 56.448C137.03 56.88 136.462 57.096 135.718 57.096C135.118 57.096 134.622 56.944 134.23 56.64C133.846 56.336 133.654 55.884 133.654 55.284C133.654 54.66 133.87 54.176 134.302 53.832C134.742 53.48 135.358 53.304 136.15 53.304H137.434C137.474 53.304 137.494 53.284 137.494 53.244V52.956C137.494 52.644 137.402 52.404 137.218 52.236C137.034 52.06 136.758 51.972 136.39 51.972C136.086 51.972 135.838 52.028 135.646 52.14C135.462 52.244 135.346 52.392 135.298 52.584C135.274 52.68 135.218 52.72 135.13 52.704L133.966 52.56C133.926 52.552 133.89 52.54 133.858 52.524C133.834 52.5 133.826 52.472 133.834 52.44C133.898 51.952 134.158 51.552 134.614 51.24C135.078 50.928 135.658 50.772 136.354 50.772ZM136.066 55.992C136.458 55.992 136.794 55.888 137.074 55.68C137.354 55.472 137.494 55.208 137.494 54.888V54.324C137.494 54.284 137.474 54.264 137.434 54.264H136.426C136.002 54.264 135.666 54.344 135.418 54.504C135.178 54.664 135.058 54.892 135.058 55.188C135.058 55.444 135.15 55.644 135.334 55.788C135.526 55.924 135.77 55.992 136.066 55.992ZM143.441 51.852C143.441 51.892 143.425 51.928 143.393 51.96C143.369 51.984 143.337 51.996 143.297 51.996H142.073C142.033 51.996 142.013 52.016 142.013 52.056V54.948C142.013 55.252 142.077 55.472 142.205 55.608C142.341 55.744 142.553 55.812 142.841 55.812H143.201C143.241 55.812 143.273 55.828 143.297 55.86C143.329 55.884 143.345 55.916 143.345 55.956V56.856C143.345 56.944 143.297 56.996 143.201 57.012L142.577 57.024C141.945 57.024 141.473 56.916 141.161 56.7C140.849 56.484 140.689 56.076 140.681 55.476V52.056C140.681 52.016 140.661 51.996 140.621 51.996H139.937C139.897 51.996 139.861 51.984 139.829 51.96C139.805 51.928 139.793 51.892 139.793 51.852V51.012C139.793 50.972 139.805 50.94 139.829 50.916C139.861 50.884 139.897 50.868 139.937 50.868H140.621C140.661 50.868 140.681 50.848 140.681 50.808V49.404C140.681 49.364 140.693 49.332 140.717 49.308C140.749 49.276 140.785 49.26 140.825 49.26H141.869C141.909 49.26 141.941 49.276 141.965 49.308C141.997 49.332 142.013 49.364 142.013 49.404V50.808C142.013 50.848 142.033 50.868 142.073 50.868H143.297C143.337 50.868 143.369 50.884 143.393 50.916C143.425 50.94 143.441 50.972 143.441 51.012V51.852ZM149.732 53.244C149.764 53.444 149.78 53.668 149.78 53.916L149.768 54.288C149.768 54.384 149.72 54.432 149.624 54.432H145.868C145.828 54.432 145.808 54.452 145.808 54.492C145.832 54.756 145.868 54.936 145.916 55.032C146.108 55.608 146.576 55.9 147.32 55.908C147.864 55.908 148.296 55.684 148.616 55.236C148.648 55.188 148.688 55.164 148.736 55.164C148.768 55.164 148.796 55.176 148.82 55.2L149.564 55.812C149.636 55.868 149.648 55.932 149.6 56.004C149.352 56.356 149.02 56.628 148.604 56.82C148.196 57.012 147.74 57.108 147.236 57.108C146.612 57.108 146.08 56.968 145.64 56.688C145.208 56.408 144.892 56.016 144.692 55.512C144.508 55.08 144.416 54.48 144.416 53.712C144.416 53.248 144.464 52.872 144.56 52.584C144.72 52.024 145.02 51.584 145.46 51.264C145.908 50.936 146.444 50.772 147.068 50.772C148.644 50.772 149.532 51.596 149.732 53.244ZM147.068 51.972C146.772 51.972 146.524 52.048 146.324 52.2C146.132 52.344 145.996 52.548 145.916 52.812C145.868 52.948 145.836 53.124 145.82 53.34C145.804 53.38 145.82 53.4 145.868 53.4H148.304C148.344 53.4 148.364 53.38 148.364 53.34C148.348 53.14 148.324 52.988 148.292 52.884C148.22 52.596 148.076 52.372 147.86 52.212C147.652 52.052 147.388 51.972 147.068 51.972ZM152.235 57C152.147 57 152.091 56.96 152.067 56.88L150.351 51.024L150.339 50.976C150.339 50.896 150.383 50.856 150.471 50.856H151.611C151.699 50.856 151.755 50.896 151.779 50.976L152.775 54.984C152.783 55.008 152.795 55.02 152.811 55.02C152.827 55.02 152.839 55.008 152.847 54.984L153.891 50.976C153.915 50.896 153.971 50.856 154.059 50.856H155.055C155.143 50.856 155.199 50.896 155.223 50.976L156.291 54.984C156.299 55.008 156.311 55.02 156.327 55.02C156.343 55.02 156.355 55.008 156.363 54.984L157.431 50.976C157.455 50.896 157.511 50.856 157.599 50.856L158.727 50.88C158.775 50.88 158.807 50.896 158.823 50.928C158.847 50.952 158.855 50.988 158.847 51.036L157.119 56.88C157.095 56.96 157.043 57 156.963 57H155.811C155.723 57 155.667 56.96 155.643 56.88L154.587 53.22C154.579 53.196 154.567 53.184 154.551 53.184C154.535 53.184 154.523 53.196 154.515 53.22L153.543 56.88C153.519 56.96 153.463 57 153.375 57H152.235ZM161.982 50.772C162.486 50.772 162.93 50.86 163.314 51.036C163.698 51.212 163.994 51.456 164.202 51.768C164.41 52.072 164.514 52.42 164.514 52.812V56.856C164.514 56.896 164.498 56.932 164.466 56.964C164.442 56.988 164.41 57 164.37 57H163.266C163.226 57 163.19 56.988 163.158 56.964C163.134 56.932 163.122 56.896 163.122 56.856V56.472C163.122 56.448 163.114 56.436 163.098 56.436C163.082 56.428 163.066 56.432 163.05 56.448C162.658 56.88 162.09 57.096 161.346 57.096C160.746 57.096 160.25 56.944 159.858 56.64C159.474 56.336 159.282 55.884 159.282 55.284C159.282 54.66 159.498 54.176 159.93 53.832C160.37 53.48 160.986 53.304 161.778 53.304H163.062C163.102 53.304 163.122 53.284 163.122 53.244V52.956C163.122 52.644 163.03 52.404 162.846 52.236C162.662 52.06 162.386 51.972 162.018 51.972C161.714 51.972 161.466 52.028 161.274 52.14C161.09 52.244 160.974 52.392 160.926 52.584C160.902 52.68 160.846 52.72 160.758 52.704L159.594 52.56C159.554 52.552 159.518 52.54 159.486 52.524C159.462 52.5 159.454 52.472 159.462 52.44C159.526 51.952 159.786 51.552 160.242 51.24C160.706 50.928 161.286 50.772 161.982 50.772ZM161.694 55.992C162.086 55.992 162.422 55.888 162.702 55.68C162.982 55.472 163.122 55.208 163.122 54.888V54.324C163.122 54.284 163.102 54.264 163.062 54.264H162.054C161.63 54.264 161.294 54.344 161.046 54.504C160.806 54.664 160.686 54.892 160.686 55.188C160.686 55.444 160.778 55.644 160.962 55.788C161.154 55.924 161.398 55.992 161.694 55.992ZM165.663 59.388C165.639 59.388 165.619 59.372 165.603 59.34C165.587 59.316 165.579 59.284 165.579 59.244V58.38C165.579 58.34 165.591 58.304 165.615 58.272C165.647 58.248 165.683 58.236 165.723 58.236H165.735C166.063 58.228 166.319 58.192 166.503 58.128C166.687 58.072 166.839 57.96 166.959 57.792C167.079 57.624 167.187 57.372 167.283 57.036C167.291 57.02 167.291 56.996 167.283 56.964L165.303 51.024C165.295 51.008 165.291 50.988 165.291 50.964C165.291 50.892 165.331 50.856 165.411 50.856H166.587C166.675 50.856 166.731 50.896 166.755 50.976L167.955 55.2C167.963 55.224 167.975 55.236 167.991 55.236C168.007 55.236 168.019 55.224 168.027 55.2L169.227 50.976C169.251 50.896 169.307 50.856 169.395 50.856H170.535C170.583 50.856 170.615 50.872 170.631 50.904C170.655 50.928 170.659 50.968 170.643 51.024L168.531 57.336C168.331 57.904 168.135 58.328 167.943 58.608C167.751 58.888 167.487 59.088 167.151 59.208C166.823 59.328 166.355 59.388 165.747 59.388H165.663ZM171.173 58.092C171.077 58.092 171.033 58.04 171.041 57.936L171.485 55.248C171.493 55.16 171.545 55.116 171.641 55.116H172.601C172.705 55.116 172.745 55.168 172.721 55.272L172.013 57.972C171.989 58.052 171.933 58.092 171.845 58.092H171.173ZM182.572 49.656C182.572 49.696 182.556 49.732 182.524 49.764C182.5 49.788 182.468 49.8 182.428 49.8H178.348C178.308 49.8 178.288 49.82 178.288 49.86V52.104C178.288 52.144 178.308 52.164 178.348 52.164H181.096C181.136 52.164 181.168 52.18 181.192 52.212C181.224 52.236 181.24 52.268 181.24 52.308V53.22C181.24 53.26 181.224 53.296 181.192 53.328C181.168 53.352 181.136 53.364 181.096 53.364H178.348C178.308 53.364 178.288 53.384 178.288 53.424V56.856C178.288 56.896 178.272 56.932 178.24 56.964C178.216 56.988 178.184 57 178.144 57H177.04C177 57 176.964 56.988 176.932 56.964C176.908 56.932 176.896 56.896 176.896 56.856V48.744C176.896 48.704 176.908 48.672 176.932 48.648C176.964 48.616 177 48.6 177.04 48.6H182.428C182.468 48.6 182.5 48.616 182.524 48.648C182.556 48.672 182.572 48.704 182.572 48.744V49.656ZM186.1 50.796C186.356 50.796 186.58 50.848 186.772 50.952C186.836 50.984 186.86 51.044 186.844 51.132L186.64 52.212C186.632 52.308 186.576 52.336 186.472 52.296C186.352 52.256 186.212 52.236 186.052 52.236C185.948 52.236 185.868 52.24 185.812 52.248C185.476 52.264 185.196 52.384 184.972 52.608C184.748 52.824 184.636 53.108 184.636 53.46V56.856C184.636 56.896 184.62 56.932 184.588 56.964C184.564 56.988 184.532 57 184.492 57H183.388C183.348 57 183.312 56.988 183.28 56.964C183.256 56.932 183.244 56.896 183.244 56.856V51.012C183.244 50.972 183.256 50.94 183.28 50.916C183.312 50.884 183.348 50.868 183.388 50.868H184.492C184.532 50.868 184.564 50.884 184.588 50.916C184.62 50.94 184.636 50.972 184.636 51.012V51.552C184.636 51.584 184.64 51.604 184.648 51.612C184.664 51.612 184.68 51.6 184.696 51.576C185.032 51.056 185.5 50.796 186.1 50.796ZM187.835 59.388C187.811 59.388 187.791 59.372 187.775 59.34C187.759 59.316 187.751 59.284 187.751 59.244V58.38C187.751 58.34 187.763 58.304 187.787 58.272C187.819 58.248 187.855 58.236 187.895 58.236H187.907C188.235 58.228 188.491 58.192 188.675 58.128C188.859 58.072 189.011 57.96 189.131 57.792C189.251 57.624 189.359 57.372 189.455 57.036C189.463 57.02 189.463 56.996 189.455 56.964L187.475 51.024C187.467 51.008 187.463 50.988 187.463 50.964C187.463 50.892 187.503 50.856 187.583 50.856H188.759C188.847 50.856 188.903 50.896 188.927 50.976L190.127 55.2C190.135 55.224 190.147 55.236 190.163 55.236C190.179 55.236 190.191 55.224 190.199 55.2L191.399 50.976C191.423 50.896 191.479 50.856 191.567 50.856H192.707C192.755 50.856 192.787 50.872 192.803 50.904C192.827 50.928 192.831 50.968 192.815 51.024L190.703 57.336C190.503 57.904 190.307 58.328 190.115 58.608C189.923 58.888 189.659 59.088 189.323 59.208C188.995 59.328 188.527 59.388 187.919 59.388H187.835ZM198.67 53.244C198.702 53.444 198.718 53.668 198.718 53.916L198.706 54.288C198.706 54.384 198.658 54.432 198.562 54.432H194.806C194.766 54.432 194.746 54.452 194.746 54.492C194.77 54.756 194.806 54.936 194.854 55.032C195.046 55.608 195.514 55.9 196.258 55.908C196.802 55.908 197.234 55.684 197.554 55.236C197.586 55.188 197.626 55.164 197.674 55.164C197.706 55.164 197.734 55.176 197.758 55.2L198.502 55.812C198.574 55.868 198.586 55.932 198.538 56.004C198.29 56.356 197.958 56.628 197.542 56.82C197.134 57.012 196.678 57.108 196.174 57.108C195.55 57.108 195.018 56.968 194.578 56.688C194.146 56.408 193.83 56.016 193.63 55.512C193.446 55.08 193.354 54.48 193.354 53.712C193.354 53.248 193.402 52.872 193.498 52.584C193.658 52.024 193.958 51.584 194.398 51.264C194.846 50.936 195.382 50.772 196.006 50.772C197.582 50.772 198.47 51.596 198.67 53.244ZM196.006 51.972C195.71 51.972 195.462 52.048 195.262 52.2C195.07 52.344 194.934 52.548 194.854 52.812C194.806 52.948 194.774 53.124 194.758 53.34C194.742 53.38 194.758 53.4 194.806 53.4H197.242C197.282 53.4 197.302 53.38 197.302 53.34C197.286 53.14 197.262 52.988 197.23 52.884C197.158 52.596 197.014 52.372 196.798 52.212C196.59 52.052 196.326 51.972 196.006 51.972ZM202.846 50.796C203.102 50.796 203.326 50.848 203.518 50.952C203.582 50.984 203.606 51.044 203.59 51.132L203.386 52.212C203.378 52.308 203.322 52.336 203.218 52.296C203.098 52.256 202.958 52.236 202.798 52.236C202.694 52.236 202.614 52.24 202.558 52.248C202.222 52.264 201.942 52.384 201.718 52.608C201.494 52.824 201.382 53.108 201.382 53.46V56.856C201.382 56.896 201.366 56.932 201.334 56.964C201.31 56.988 201.278 57 201.238 57H200.134C200.094 57 200.058 56.988 200.026 56.964C200.002 56.932 199.99 56.896 199.99 56.856V51.012C199.99 50.972 200.002 50.94 200.026 50.916C200.058 50.884 200.094 50.868 200.134 50.868H201.238C201.278 50.868 201.31 50.884 201.334 50.916C201.366 50.94 201.382 50.972 201.382 51.012V51.552C201.382 51.584 201.386 51.604 201.394 51.612C201.41 51.612 201.426 51.6 201.442 51.576C201.778 51.056 202.246 50.796 202.846 50.796ZM206.712 57.072C206.208 57.072 205.764 57 205.38 56.856C205.004 56.704 204.712 56.5 204.504 56.244C204.296 55.98 204.192 55.688 204.192 55.368V55.26C204.192 55.22 204.204 55.188 204.228 55.164C204.26 55.132 204.296 55.116 204.336 55.116H205.392C205.432 55.116 205.464 55.132 205.488 55.164C205.52 55.188 205.536 55.22 205.536 55.26V55.284C205.536 55.484 205.644 55.66 205.86 55.812C206.084 55.956 206.364 56.028 206.7 56.028C207.02 56.028 207.28 55.964 207.48 55.836C207.68 55.7 207.78 55.532 207.78 55.332C207.78 55.148 207.696 55.012 207.528 54.924C207.368 54.828 207.104 54.728 206.736 54.624L206.28 54.48C205.872 54.36 205.528 54.232 205.248 54.096C204.968 53.96 204.732 53.776 204.54 53.544C204.348 53.304 204.252 53 204.252 52.632C204.252 52.072 204.472 51.628 204.912 51.3C205.352 50.964 205.932 50.796 206.652 50.796C207.14 50.796 207.568 50.876 207.936 51.036C208.304 51.188 208.588 51.404 208.788 51.684C208.988 51.956 209.088 52.268 209.088 52.62C209.088 52.66 209.072 52.696 209.04 52.728C209.016 52.752 208.984 52.764 208.944 52.764H207.924C207.884 52.764 207.848 52.752 207.816 52.728C207.792 52.696 207.78 52.66 207.78 52.62C207.78 52.412 207.676 52.24 207.468 52.104C207.268 51.96 206.992 51.888 206.64 51.888C206.328 51.888 206.072 51.948 205.872 52.068C205.68 52.18 205.584 52.34 205.584 52.548C205.584 52.74 205.676 52.888 205.86 52.992C206.052 53.088 206.368 53.196 206.808 53.316L207.072 53.388C207.496 53.516 207.852 53.648 208.14 53.784C208.428 53.912 208.672 54.096 208.872 54.336C209.072 54.568 209.172 54.872 209.172 55.248C209.172 55.816 208.948 56.264 208.5 56.592C208.052 56.912 207.456 57.072 206.712 57.072ZM214.672 57C214.584 57 214.528 56.96 214.504 56.88L212.32 48.756L212.308 48.708C212.308 48.636 212.352 48.6 212.44 48.6H213.616C213.704 48.6 213.76 48.64 213.784 48.72L215.152 54.192C215.16 54.216 215.172 54.228 215.188 54.228C215.204 54.228 215.216 54.216 215.224 54.192L216.532 48.72C216.556 48.64 216.608 48.6 216.688 48.6H217.84C217.928 48.6 217.984 48.64 218.008 48.72L219.4 54.204C219.408 54.228 219.42 54.24 219.436 54.24C219.452 54.24 219.464 54.228 219.472 54.204L220.816 48.72C220.84 48.64 220.896 48.6 220.984 48.6H222.1C222.212 48.6 222.256 48.652 222.232 48.756L220.156 56.88C220.132 56.96 220.076 57 219.988 57H218.872C218.784 57 218.728 56.96 218.704 56.88L217.3 51.156C217.292 51.132 217.28 51.12 217.264 51.12C217.248 51.112 217.236 51.124 217.228 51.156L215.884 56.88C215.86 56.96 215.808 57 215.728 57H214.672ZM224.959 50.772C225.463 50.772 225.907 50.86 226.291 51.036C226.675 51.212 226.971 51.456 227.179 51.768C227.387 52.072 227.491 52.42 227.491 52.812V56.856C227.491 56.896 227.475 56.932 227.443 56.964C227.419 56.988 227.387 57 227.347 57H226.243C226.203 57 226.167 56.988 226.135 56.964C226.111 56.932 226.099 56.896 226.099 56.856V56.472C226.099 56.448 226.091 56.436 226.075 56.436C226.059 56.428 226.043 56.432 226.027 56.448C225.635 56.88 225.067 57.096 224.323 57.096C223.723 57.096 223.227 56.944 222.835 56.64C222.451 56.336 222.259 55.884 222.259 55.284C222.259 54.66 222.475 54.176 222.907 53.832C223.347 53.48 223.963 53.304 224.755 53.304H226.039C226.079 53.304 226.099 53.284 226.099 53.244V52.956C226.099 52.644 226.007 52.404 225.823 52.236C225.639 52.06 225.363 51.972 224.995 51.972C224.691 51.972 224.443 52.028 224.251 52.14C224.067 52.244 223.951 52.392 223.903 52.584C223.879 52.68 223.823 52.72 223.735 52.704L222.571 52.56C222.531 52.552 222.495 52.54 222.463 52.524C222.439 52.5 222.431 52.472 222.439 52.44C222.503 51.952 222.763 51.552 223.219 51.24C223.683 50.928 224.263 50.772 224.959 50.772ZM224.671 55.992C225.063 55.992 225.399 55.888 225.679 55.68C225.959 55.472 226.099 55.208 226.099 54.888V54.324C226.099 54.284 226.079 54.264 226.039 54.264H225.031C224.607 54.264 224.271 54.344 224.023 54.504C223.783 54.664 223.663 54.892 223.663 55.188C223.663 55.444 223.755 55.644 223.939 55.788C224.131 55.924 224.375 55.992 224.671 55.992ZM228.64 59.388C228.616 59.388 228.596 59.372 228.58 59.34C228.564 59.316 228.556 59.284 228.556 59.244V58.38C228.556 58.34 228.568 58.304 228.592 58.272C228.624 58.248 228.66 58.236 228.7 58.236H228.712C229.04 58.228 229.296 58.192 229.48 58.128C229.664 58.072 229.816 57.96 229.936 57.792C230.056 57.624 230.164 57.372 230.26 57.036C230.268 57.02 230.268 56.996 230.26 56.964L228.28 51.024C228.272 51.008 228.268 50.988 228.268 50.964C228.268 50.892 228.308 50.856 228.388 50.856H229.564C229.652 50.856 229.708 50.896 229.732 50.976L230.932 55.2C230.94 55.224 230.952 55.236 230.968 55.236C230.984 55.236 230.996 55.224 231.004 55.2L232.204 50.976C232.228 50.896 232.284 50.856 232.372 50.856H233.512C233.56 50.856 233.592 50.872 233.608 50.904C233.632 50.928 233.636 50.968 233.62 51.024L231.508 57.336C231.308 57.904 231.112 58.328 230.92 58.608C230.728 58.888 230.464 59.088 230.128 59.208C229.8 59.328 229.332 59.388 228.724 59.388H228.64ZM234.15 58.092C234.054 58.092 234.01 58.04 234.018 57.936L234.462 55.248C234.47 55.16 234.522 55.116 234.618 55.116H235.578C235.682 55.116 235.722 55.168 235.698 55.272L234.99 57.972C234.966 58.052 234.91 58.092 234.822 58.092H234.15ZM242.584 57.096C241.96 57.096 241.416 56.996 240.952 56.796C240.488 56.596 240.128 56.316 239.872 55.956C239.624 55.596 239.5 55.172 239.5 54.684V54.384C239.5 54.344 239.512 54.312 239.536 54.288C239.568 54.256 239.604 54.24 239.644 54.24H240.712C240.752 54.24 240.784 54.256 240.808 54.288C240.84 54.312 240.856 54.344 240.856 54.384V54.612C240.856 54.98 241.02 55.288 241.348 55.536C241.676 55.776 242.124 55.896 242.692 55.896C243.18 55.896 243.548 55.792 243.796 55.584C244.044 55.376 244.168 55.108 244.168 54.78C244.168 54.556 244.1 54.368 243.964 54.216C243.828 54.056 243.632 53.912 243.376 53.784C243.128 53.656 242.752 53.496 242.248 53.304C241.68 53.096 241.22 52.9 240.868 52.716C240.516 52.532 240.22 52.284 239.98 51.972C239.748 51.652 239.632 51.256 239.632 50.784C239.632 50.08 239.888 49.524 240.4 49.116C240.912 48.708 241.596 48.504 242.452 48.504C243.052 48.504 243.58 48.608 244.036 48.816C244.5 49.024 244.86 49.316 245.116 49.692C245.372 50.06 245.5 50.488 245.5 50.976V51.18C245.5 51.22 245.484 51.256 245.452 51.288C245.428 51.312 245.396 51.324 245.356 51.324H244.276C244.236 51.324 244.2 51.312 244.168 51.288C244.144 51.256 244.132 51.22 244.132 51.18V51.048C244.132 50.672 243.976 50.356 243.664 50.1C243.36 49.836 242.936 49.704 242.392 49.704C241.952 49.704 241.608 49.796 241.36 49.98C241.12 50.164 241 50.424 241 50.76C241 51 241.064 51.196 241.192 51.348C241.32 51.5 241.512 51.64 241.768 51.768C242.024 51.888 242.42 52.044 242.956 52.236C243.524 52.452 243.976 52.648 244.312 52.824C244.656 53 244.948 53.248 245.188 53.568C245.436 53.88 245.56 54.272 245.56 54.744C245.56 55.464 245.292 56.036 244.756 56.46C244.228 56.884 243.504 57.096 242.584 57.096ZM247.622 50.028C247.374 50.028 247.17 49.948 247.01 49.788C246.85 49.628 246.77 49.424 246.77 49.176C246.77 48.928 246.85 48.724 247.01 48.564C247.17 48.404 247.374 48.324 247.622 48.324C247.87 48.324 248.074 48.404 248.234 48.564C248.394 48.724 248.474 48.928 248.474 49.176C248.474 49.424 248.394 49.628 248.234 49.788C248.074 49.948 247.87 50.028 247.622 50.028ZM247.046 57C247.006 57 246.97 56.988 246.938 56.964C246.914 56.932 246.902 56.896 246.902 56.856V51C246.902 50.96 246.914 50.928 246.938 50.904C246.97 50.872 247.006 50.856 247.046 50.856H248.15C248.19 50.856 248.222 50.872 248.246 50.904C248.278 50.928 248.294 50.96 248.294 51V56.856C248.294 56.896 248.278 56.932 248.246 56.964C248.222 56.988 248.19 57 248.15 57H247.046ZM250.033 57C249.993 57 249.957 56.988 249.925 56.964C249.901 56.932 249.889 56.896 249.889 56.856V48.744C249.889 48.704 249.901 48.672 249.925 48.648C249.957 48.616 249.993 48.6 250.033 48.6H251.137C251.177 48.6 251.209 48.616 251.233 48.648C251.265 48.672 251.281 48.704 251.281 48.744V56.856C251.281 56.896 251.265 56.932 251.233 56.964C251.209 56.988 251.177 57 251.137 57H250.033ZM252.927 57C252.887 57 252.851 56.988 252.819 56.964C252.795 56.932 252.783 56.896 252.783 56.856V48.744C252.783 48.704 252.795 48.672 252.819 48.648C252.851 48.616 252.887 48.6 252.927 48.6H254.031C254.071 48.6 254.103 48.616 254.127 48.648C254.159 48.672 254.175 48.704 254.175 48.744V53.076C254.175 53.1 254.183 53.116 254.199 53.124C254.215 53.132 254.231 53.124 254.247 53.1L256.191 50.952C256.247 50.896 256.307 50.868 256.371 50.868H257.643C257.723 50.868 257.763 50.896 257.763 50.952C257.763 50.976 257.751 51.008 257.727 51.048L256.203 52.872C256.179 52.896 256.175 52.924 256.191 52.956L257.991 56.832C258.007 56.864 258.015 56.888 258.015 56.904C258.015 56.968 257.971 57 257.883 57H256.719C256.639 57 256.583 56.964 256.551 56.892L255.243 53.844C255.235 53.828 255.219 53.82 255.195 53.82C255.179 53.812 255.167 53.816 255.159 53.832L254.199 54.936C254.183 54.968 254.175 54.996 254.175 55.02V56.856C254.175 56.896 254.159 56.932 254.127 56.964C254.103 56.988 254.071 57 254.031 57H252.927ZM260.505 57C260.417 57 260.361 56.96 260.337 56.88L258.621 51.024L258.609 50.976C258.609 50.896 258.653 50.856 258.741 50.856H259.881C259.969 50.856 260.025 50.896 260.049 50.976L261.045 54.984C261.053 55.008 261.065 55.02 261.081 55.02C261.097 55.02 261.109 55.008 261.117 54.984L262.161 50.976C262.185 50.896 262.241 50.856 262.329 50.856H263.325C263.413 50.856 263.469 50.896 263.493 50.976L264.561 54.984C264.569 55.008 264.581 55.02 264.597 55.02C264.613 55.02 264.625 55.008 264.633 54.984L265.701 50.976C265.725 50.896 265.781 50.856 265.869 50.856L266.997 50.88C267.045 50.88 267.077 50.896 267.093 50.928C267.117 50.952 267.125 50.988 267.117 51.036L265.389 56.88C265.365 56.96 265.313 57 265.233 57H264.081C263.993 57 263.937 56.96 263.913 56.88L262.857 53.22C262.849 53.196 262.837 53.184 262.821 53.184C262.805 53.184 262.793 53.196 262.785 53.22L261.813 56.88C261.789 56.96 261.733 57 261.645 57H260.505ZM270.457 57.096C269.825 57.096 269.281 56.936 268.825 56.616C268.377 56.296 268.061 55.852 267.877 55.284C267.741 54.852 267.673 54.396 267.673 53.916C267.673 53.404 267.737 52.948 267.865 52.548C268.049 51.988 268.369 51.552 268.825 51.24C269.281 50.928 269.829 50.772 270.469 50.772C271.077 50.772 271.601 50.928 272.041 51.24C272.489 51.552 272.805 51.984 272.989 52.536C273.133 52.92 273.205 53.376 273.205 53.904C273.205 54.408 273.137 54.864 273.001 55.272C272.817 55.84 272.501 56.288 272.053 56.616C271.605 56.936 271.073 57.096 270.457 57.096ZM270.457 55.896C270.753 55.896 271.005 55.812 271.213 55.644C271.429 55.476 271.585 55.24 271.681 54.936C271.761 54.672 271.801 54.336 271.801 53.928C271.801 53.496 271.761 53.16 271.681 52.92C271.593 52.616 271.441 52.384 271.225 52.224C271.009 52.056 270.745 51.972 270.433 51.972C270.137 51.972 269.881 52.056 269.665 52.224C269.449 52.384 269.293 52.616 269.197 52.92C269.117 53.2 269.077 53.536 269.077 53.928C269.077 54.32 269.117 54.656 269.197 54.936C269.285 55.24 269.437 55.476 269.653 55.644C269.877 55.812 270.145 55.896 270.457 55.896ZM277.125 57.096C276.493 57.096 275.949 56.936 275.493 56.616C275.045 56.296 274.729 55.852 274.545 55.284C274.409 54.852 274.341 54.396 274.341 53.916C274.341 53.404 274.405 52.948 274.533 52.548C274.717 51.988 275.037 51.552 275.493 51.24C275.949 50.928 276.497 50.772 277.137 50.772C277.745 50.772 278.269 50.928 278.709 51.24C279.157 51.552 279.473 51.984 279.657 52.536C279.801 52.92 279.873 53.376 279.873 53.904C279.873 54.408 279.805 54.864 279.669 55.272C279.485 55.84 279.169 56.288 278.721 56.616C278.273 56.936 277.741 57.096 277.125 57.096ZM277.125 55.896C277.421 55.896 277.673 55.812 277.881 55.644C278.097 55.476 278.253 55.24 278.349 54.936C278.429 54.672 278.469 54.336 278.469 53.928C278.469 53.496 278.429 53.16 278.349 52.92C278.261 52.616 278.109 52.384 277.893 52.224C277.677 52.056 277.413 51.972 277.101 51.972C276.805 51.972 276.549 52.056 276.333 52.224C276.117 52.384 275.961 52.616 275.865 52.92C275.785 53.2 275.745 53.536 275.745 53.928C275.745 54.32 275.785 54.656 275.865 54.936C275.953 55.24 276.105 55.476 276.321 55.644C276.545 55.812 276.813 55.896 277.125 55.896ZM284.993 48.744C284.993 48.704 285.005 48.672 285.029 48.648C285.061 48.616 285.097 48.6 285.137 48.6H286.241C286.281 48.6 286.313 48.616 286.337 48.648C286.369 48.672 286.385 48.704 286.385 48.744V56.856C286.385 56.896 286.369 56.932 286.337 56.964C286.313 56.988 286.281 57 286.241 57H285.137C285.097 57 285.061 56.988 285.029 56.964C285.005 56.932 284.993 56.896 284.993 56.856V56.496C284.993 56.472 284.985 56.456 284.969 56.448C284.953 56.44 284.937 56.448 284.921 56.472C284.569 56.888 284.109 57.096 283.541 57.096C282.973 57.096 282.493 56.948 282.101 56.652C281.709 56.356 281.425 55.944 281.249 55.416C281.105 54.968 281.033 54.468 281.033 53.916C281.033 53.348 281.101 52.86 281.237 52.452C281.413 51.924 281.697 51.512 282.089 51.216C282.481 50.92 282.973 50.772 283.565 50.772C284.117 50.772 284.569 50.972 284.921 51.372C284.937 51.388 284.953 51.396 284.969 51.396C284.985 51.388 284.993 51.372 284.993 51.348V48.744ZM284.705 55.32C284.889 54.992 284.981 54.528 284.981 53.928C284.981 53.304 284.881 52.828 284.681 52.5C284.465 52.148 284.161 51.972 283.769 51.972C283.361 51.972 283.041 52.14 282.809 52.476C282.569 52.828 282.449 53.316 282.449 53.94C282.449 54.5 282.545 54.96 282.737 55.32C282.961 55.704 283.301 55.896 283.757 55.896C284.165 55.896 284.481 55.704 284.705 55.32Z" fill="#919191"/>
<path d="M100.416 67.824C100.216 67.824 100.052 67.76 99.924 67.632C99.804 67.504 99.744 67.344 99.744 67.152C99.744 66.952 99.804 66.792 99.924 66.672C100.052 66.544 100.216 66.48 100.416 66.48C100.608 66.48 100.768 66.544 100.896 66.672C101.024 66.792 101.088 66.952 101.088 67.152C101.088 67.344 101.024 67.504 100.896 67.632C100.768 67.76 100.608 67.824 100.416 67.824ZM98.7 77.496C98.62 77.496 98.58 77.456 98.58 77.376V76.884C98.58 76.804 98.62 76.764 98.7 76.764C99.556 76.756 99.984 76.344 99.984 75.528V69.048C99.984 68.968 100.024 68.928 100.104 68.928H100.716C100.796 68.928 100.836 68.968 100.836 69.048V75.528C100.836 76.208 100.668 76.704 100.332 77.016C99.996 77.328 99.452 77.488 98.7 77.496ZM105.217 75.096C104.641 75.096 104.145 74.948 103.729 74.652C103.313 74.356 103.025 73.948 102.865 73.428C102.753 73.06 102.697 72.568 102.697 71.952C102.697 71.336 102.753 70.848 102.865 70.488C103.017 69.976 103.301 69.572 103.717 69.276C104.133 68.98 104.637 68.832 105.229 68.832C105.797 68.832 106.285 68.98 106.693 69.276C107.109 69.572 107.393 69.972 107.545 70.476C107.657 70.82 107.713 71.312 107.713 71.952C107.713 72.6 107.657 73.092 107.545 73.428C107.393 73.948 107.109 74.356 106.693 74.652C106.285 74.948 105.793 75.096 105.217 75.096ZM105.217 74.352C105.601 74.352 105.929 74.248 106.201 74.04C106.473 73.824 106.657 73.536 106.753 73.176C106.825 72.888 106.861 72.484 106.861 71.964C106.861 71.436 106.829 71.032 106.765 70.752C106.669 70.392 106.481 70.108 106.201 69.9C105.929 69.684 105.597 69.576 105.205 69.576C104.813 69.576 104.481 69.684 104.209 69.9C103.937 70.108 103.753 70.392 103.657 70.752C103.593 71.032 103.561 71.436 103.561 71.964C103.561 72.492 103.593 72.896 103.657 73.176C103.745 73.536 103.925 73.824 104.197 74.04C104.477 74.248 104.817 74.352 105.217 74.352ZM111.96 68.844C112.6 68.844 113.108 69.032 113.484 69.408C113.868 69.784 114.06 70.288 114.06 70.92V74.88C114.06 74.96 114.02 75 113.94 75H113.328C113.248 75 113.208 74.96 113.208 74.88V71.088C113.208 70.648 113.072 70.288 112.8 70.008C112.536 69.728 112.192 69.588 111.768 69.588C111.328 69.588 110.972 69.724 110.7 69.996C110.428 70.268 110.292 70.624 110.292 71.064V74.88C110.292 74.96 110.252 75 110.172 75H109.56C109.48 75 109.44 74.96 109.44 74.88V66.72C109.44 66.64 109.48 66.6 109.56 66.6H110.172C110.252 66.6 110.292 66.64 110.292 66.72V69.564C110.292 69.58 110.296 69.592 110.304 69.6C110.32 69.608 110.332 69.604 110.34 69.588C110.692 69.092 111.232 68.844 111.96 68.844ZM118.429 68.844C119.069 68.844 119.577 69.032 119.953 69.408C120.337 69.784 120.529 70.288 120.529 70.92V74.88C120.529 74.96 120.489 75 120.409 75H119.797C119.717 75 119.677 74.96 119.677 74.88V71.088C119.677 70.648 119.541 70.288 119.269 70.008C119.005 69.728 118.661 69.588 118.237 69.588C117.797 69.588 117.441 69.724 117.169 69.996C116.897 70.268 116.761 70.624 116.761 71.064V74.88C116.761 74.96 116.721 75 116.641 75H116.029C115.949 75 115.909 74.96 115.909 74.88V69.048C115.909 68.968 115.949 68.928 116.029 68.928H116.641C116.721 68.928 116.761 68.968 116.761 69.048V69.564C116.761 69.58 116.765 69.592 116.773 69.6C116.789 69.608 116.801 69.604 116.809 69.588C117.161 69.092 117.701 68.844 118.429 68.844ZM126.064 66.72C126.064 66.64 126.104 66.6 126.184 66.6H126.796C126.876 66.6 126.916 66.64 126.916 66.72V74.88C126.916 74.96 126.876 75 126.796 75H126.184C126.104 75 126.064 74.96 126.064 74.88V74.376C126.064 74.36 126.056 74.352 126.04 74.352C126.032 74.344 126.02 74.348 126.004 74.364C125.828 74.596 125.608 74.776 125.344 74.904C125.088 75.032 124.8 75.096 124.48 75.096C123.92 75.096 123.448 74.952 123.064 74.664C122.688 74.376 122.428 73.984 122.284 73.488C122.172 73.128 122.116 72.62 122.116 71.964C122.116 71.3 122.164 70.804 122.26 70.476C122.404 69.964 122.668 69.564 123.052 69.276C123.436 68.98 123.912 68.832 124.48 68.832C124.792 68.832 125.08 68.896 125.344 69.024C125.608 69.144 125.828 69.32 126.004 69.552C126.02 69.568 126.032 69.576 126.04 69.576C126.056 69.568 126.064 69.556 126.064 69.54V66.72ZM125.848 73.428C125.92 73.268 125.972 73.08 126.004 72.864C126.036 72.648 126.052 72.348 126.052 71.964C126.052 71.58 126.036 71.28 126.004 71.064C125.972 70.84 125.916 70.644 125.836 70.476C125.74 70.204 125.58 69.988 125.356 69.828C125.14 69.66 124.88 69.576 124.576 69.576C124.256 69.576 123.98 69.656 123.748 69.816C123.516 69.976 123.348 70.188 123.244 70.452C123.148 70.628 123.076 70.828 123.028 71.052C122.988 71.268 122.968 71.572 122.968 71.964C122.968 72.34 122.984 72.636 123.016 72.852C123.048 73.06 123.104 73.248 123.184 73.416C123.28 73.704 123.448 73.932 123.688 74.1C123.936 74.268 124.228 74.352 124.564 74.352C124.884 74.352 125.152 74.268 125.368 74.1C125.584 73.932 125.744 73.708 125.848 73.428ZM131.163 75.096C130.587 75.096 130.091 74.948 129.675 74.652C129.259 74.356 128.971 73.948 128.811 73.428C128.699 73.06 128.643 72.568 128.643 71.952C128.643 71.336 128.699 70.848 128.811 70.488C128.963 69.976 129.247 69.572 129.663 69.276C130.079 68.98 130.583 68.832 131.175 68.832C131.743 68.832 132.231 68.98 132.639 69.276C133.055 69.572 133.339 69.972 133.491 70.476C133.603 70.82 133.659 71.312 133.659 71.952C133.659 72.6 133.603 73.092 133.491 73.428C133.339 73.948 133.055 74.356 132.639 74.652C132.231 74.948 131.739 75.096 131.163 75.096ZM131.163 74.352C131.547 74.352 131.875 74.248 132.147 74.04C132.419 73.824 132.603 73.536 132.699 73.176C132.771 72.888 132.807 72.484 132.807 71.964C132.807 71.436 132.775 71.032 132.711 70.752C132.615 70.392 132.427 70.108 132.147 69.9C131.875 69.684 131.543 69.576 131.151 69.576C130.759 69.576 130.427 69.684 130.155 69.9C129.883 70.108 129.699 70.392 129.603 70.752C129.539 71.032 129.507 71.436 129.507 71.964C129.507 72.492 129.539 72.896 129.603 73.176C129.691 73.536 129.871 73.824 130.143 74.04C130.423 74.248 130.763 74.352 131.163 74.352ZM140.042 70.944C140.074 71.168 140.09 71.448 140.09 71.784V72.168C140.09 72.248 140.05 72.288 139.97 72.288H136.094C136.062 72.288 136.046 72.304 136.046 72.336C136.062 72.776 136.086 73.06 136.118 73.188C136.206 73.548 136.394 73.832 136.682 74.04C136.97 74.248 137.338 74.352 137.786 74.352C138.122 74.352 138.418 74.276 138.674 74.124C138.93 73.972 139.13 73.756 139.274 73.476C139.322 73.404 139.378 73.388 139.442 73.428L139.91 73.704C139.974 73.744 139.99 73.8 139.958 73.872C139.758 74.256 139.458 74.56 139.058 74.784C138.658 75 138.198 75.108 137.678 75.108C137.11 75.1 136.634 74.964 136.25 74.7C135.866 74.436 135.59 74.068 135.422 73.596C135.278 73.212 135.206 72.66 135.206 71.94C135.206 71.604 135.21 71.332 135.218 71.124C135.234 70.908 135.266 70.716 135.314 70.548C135.45 70.028 135.722 69.612 136.13 69.3C136.546 68.988 137.046 68.832 137.63 68.832C138.358 68.832 138.918 69.016 139.31 69.384C139.702 69.752 139.946 70.272 140.042 70.944ZM137.63 69.576C137.238 69.576 136.91 69.68 136.646 69.888C136.39 70.088 136.222 70.36 136.142 70.704C136.094 70.872 136.062 71.144 136.046 71.52C136.046 71.552 136.062 71.568 136.094 71.568H139.202C139.234 71.568 139.25 71.552 139.25 71.52C139.234 71.16 139.21 70.904 139.178 70.752C139.09 70.392 138.91 70.108 138.638 69.9C138.374 69.684 138.038 69.576 137.63 69.576ZM146.272 67.596C147 67.596 147.644 67.744 148.204 68.04C148.772 68.336 149.208 68.752 149.512 69.288C149.824 69.824 149.98 70.436 149.98 71.124C149.98 71.252 149.964 71.46 149.932 71.748C149.836 72.484 149.608 73.056 149.248 73.464C148.888 73.872 148.436 74.076 147.892 74.076C147.612 74.076 147.364 74.024 147.148 73.92C146.94 73.816 146.78 73.664 146.668 73.464C146.66 73.424 146.64 73.42 146.608 73.452C146.456 73.652 146.268 73.804 146.044 73.908C145.828 74.012 145.592 74.064 145.336 74.064C144.904 74.064 144.552 73.96 144.28 73.752C144.008 73.536 143.852 73.256 143.812 72.912C143.804 72.864 143.8 72.784 143.8 72.672C143.8 72.44 143.824 72.176 143.872 71.88C143.92 71.424 143.992 71.076 144.088 70.836C144.216 70.484 144.428 70.204 144.724 69.996C145.02 69.788 145.352 69.684 145.72 69.684C145.944 69.684 146.144 69.724 146.32 69.804C146.496 69.876 146.64 69.984 146.752 70.128C146.768 70.144 146.78 70.152 146.788 70.152C146.804 70.152 146.812 70.14 146.812 70.116L146.848 69.852C146.856 69.78 146.896 69.744 146.968 69.744H147.352C147.392 69.744 147.424 69.76 147.448 69.792C147.472 69.816 147.48 69.844 147.472 69.876L147.136 72.384C147.128 72.424 147.124 72.488 147.124 72.576C147.124 72.848 147.2 73.072 147.352 73.248C147.504 73.424 147.704 73.512 147.952 73.512C148.288 73.512 148.572 73.36 148.804 73.056C149.044 72.752 149.204 72.328 149.284 71.784C149.316 71.592 149.332 71.38 149.332 71.148C149.332 70.54 149.2 70.012 148.936 69.564C148.672 69.116 148.304 68.772 147.832 68.532C147.368 68.292 146.832 68.172 146.224 68.172C145.536 68.172 144.884 68.328 144.268 68.64C143.66 68.952 143.164 69.42 142.78 70.044C142.404 70.668 142.216 71.424 142.216 72.312C142.216 72.936 142.336 73.492 142.576 73.98C142.816 74.468 143.164 74.848 143.62 75.12C144.076 75.392 144.62 75.528 145.252 75.528C145.652 75.528 146.036 75.48 146.404 75.384C146.78 75.288 147.068 75.172 147.268 75.036C147.292 75.02 147.32 75.012 147.352 75.012C147.384 75.012 147.412 75.028 147.436 75.06L147.628 75.3C147.652 75.324 147.664 75.352 147.664 75.384C147.664 75.416 147.644 75.444 147.604 75.468C147.348 75.668 146.992 75.824 146.536 75.936C146.088 76.056 145.632 76.116 145.168 76.116C144.44 76.116 143.804 75.952 143.26 75.624C142.716 75.304 142.3 74.852 142.012 74.268C141.724 73.684 141.58 73.012 141.58 72.252C141.58 71.292 141.804 70.46 142.252 69.756C142.7 69.052 143.284 68.516 144.004 68.148C144.724 67.78 145.48 67.596 146.272 67.596ZM146.404 72.732C146.444 72.644 146.476 72.548 146.5 72.444C146.524 72.34 146.552 72.148 146.584 71.868C146.624 71.452 146.64 71.168 146.632 71.016C146.624 70.792 146.54 70.604 146.38 70.452C146.228 70.3 146.024 70.224 145.768 70.224C145.512 70.224 145.284 70.296 145.084 70.44C144.892 70.584 144.748 70.772 144.652 71.004C144.612 71.084 144.58 71.192 144.556 71.328C144.532 71.464 144.504 71.652 144.472 71.892C144.432 72.18 144.412 72.396 144.412 72.54C144.412 72.628 144.416 72.692 144.424 72.732C144.44 72.964 144.532 73.152 144.7 73.296C144.868 73.44 145.084 73.512 145.348 73.512C145.604 73.512 145.824 73.44 146.008 73.296C146.192 73.152 146.324 72.964 146.404 72.732ZM156.366 70.944C156.398 71.168 156.414 71.448 156.414 71.784V72.168C156.414 72.248 156.374 72.288 156.294 72.288H152.418C152.386 72.288 152.37 72.304 152.37 72.336C152.386 72.776 152.41 73.06 152.442 73.188C152.53 73.548 152.718 73.832 153.006 74.04C153.294 74.248 153.662 74.352 154.11 74.352C154.446 74.352 154.742 74.276 154.998 74.124C155.254 73.972 155.454 73.756 155.598 73.476C155.646 73.404 155.702 73.388 155.766 73.428L156.234 73.704C156.298 73.744 156.314 73.8 156.282 73.872C156.082 74.256 155.782 74.56 155.382 74.784C154.982 75 154.522 75.108 154.002 75.108C153.434 75.1 152.958 74.964 152.574 74.7C152.19 74.436 151.914 74.068 151.746 73.596C151.602 73.212 151.53 72.66 151.53 71.94C151.53 71.604 151.534 71.332 151.542 71.124C151.558 70.908 151.59 70.716 151.638 70.548C151.774 70.028 152.046 69.612 152.454 69.3C152.87 68.988 153.37 68.832 153.954 68.832C154.682 68.832 155.242 69.016 155.634 69.384C156.026 69.752 156.27 70.272 156.366 70.944ZM153.954 69.576C153.562 69.576 153.234 69.68 152.97 69.888C152.714 70.088 152.546 70.36 152.466 70.704C152.418 70.872 152.386 71.144 152.37 71.52C152.37 71.552 152.386 71.568 152.418 71.568H155.526C155.558 71.568 155.574 71.552 155.574 71.52C155.558 71.16 155.534 70.904 155.502 70.752C155.414 70.392 155.234 70.108 154.962 69.9C154.698 69.684 154.362 69.576 153.954 69.576ZM164.252 68.844C164.852 68.844 165.324 69.024 165.668 69.384C166.02 69.744 166.196 70.236 166.196 70.86V74.88C166.196 74.96 166.156 75 166.076 75H165.476C165.396 75 165.356 74.96 165.356 74.88V71.028C165.356 70.588 165.228 70.24 164.972 69.984C164.724 69.72 164.396 69.588 163.988 69.588C163.564 69.588 163.22 69.716 162.956 69.972C162.7 70.228 162.572 70.572 162.572 71.004V74.88C162.572 74.96 162.532 75 162.452 75H161.84C161.76 75 161.72 74.96 161.72 74.88V71.028C161.72 70.588 161.596 70.24 161.348 69.984C161.1 69.72 160.768 69.588 160.352 69.588C159.928 69.588 159.588 69.716 159.332 69.972C159.084 70.228 158.96 70.572 158.96 71.004V74.88C158.96 74.96 158.92 75 158.84 75H158.228C158.148 75 158.108 74.96 158.108 74.88V69.048C158.108 68.968 158.148 68.928 158.228 68.928H158.84C158.92 68.928 158.96 68.968 158.96 69.048V69.528C158.96 69.544 158.964 69.556 158.972 69.564C158.988 69.564 159.004 69.556 159.02 69.54C159.196 69.308 159.42 69.136 159.692 69.024C159.972 68.904 160.28 68.844 160.616 68.844C161.032 68.844 161.388 68.928 161.684 69.096C161.98 69.264 162.204 69.508 162.356 69.828C162.372 69.868 162.392 69.868 162.416 69.828C162.592 69.5 162.84 69.256 163.16 69.096C163.48 68.928 163.844 68.844 164.252 68.844ZM170.134 68.832C170.854 68.832 171.41 69.016 171.802 69.384C172.194 69.752 172.39 70.24 172.39 70.848V74.88C172.39 74.96 172.35 75 172.27 75H171.658C171.578 75 171.538 74.96 171.538 74.88V74.388C171.538 74.372 171.53 74.36 171.514 74.352C171.506 74.344 171.494 74.348 171.478 74.364C171.278 74.604 171.018 74.788 170.698 74.916C170.378 75.036 170.022 75.096 169.63 75.096C169.062 75.096 168.586 74.952 168.202 74.664C167.818 74.376 167.626 73.936 167.626 73.344C167.626 72.744 167.842 72.272 168.274 71.928C168.714 71.576 169.322 71.4 170.098 71.4H171.49C171.522 71.4 171.538 71.384 171.538 71.352V70.896C171.538 70.488 171.422 70.168 171.19 69.936C170.966 69.696 170.614 69.576 170.134 69.576C169.75 69.576 169.438 69.652 169.198 69.804C168.958 69.948 168.81 70.152 168.754 70.416C168.73 70.496 168.682 70.532 168.61 70.524L167.962 70.44C167.874 70.424 167.838 70.392 167.854 70.344C167.918 69.896 168.158 69.532 168.574 69.252C168.99 68.972 169.51 68.832 170.134 68.832ZM169.798 74.364C170.27 74.364 170.678 74.248 171.022 74.016C171.366 73.776 171.538 73.456 171.538 73.056V72.12C171.538 72.088 171.522 72.072 171.49 72.072H170.23C169.702 72.072 169.278 72.18 168.958 72.396C168.638 72.612 168.478 72.912 168.478 73.296C168.478 73.648 168.598 73.916 168.838 74.1C169.086 74.276 169.406 74.364 169.798 74.364ZM174.739 67.824C174.547 67.824 174.387 67.76 174.259 67.632C174.131 67.504 174.067 67.344 174.067 67.152C174.067 66.952 174.131 66.792 174.259 66.672C174.387 66.544 174.547 66.48 174.739 66.48C174.931 66.48 175.091 66.544 175.219 66.672C175.347 66.792 175.411 66.952 175.411 67.152C175.411 67.344 175.347 67.504 175.219 67.632C175.091 67.76 174.931 67.824 174.739 67.824ZM174.403 74.988C174.323 74.988 174.283 74.948 174.283 74.868V69.036C174.283 68.956 174.323 68.916 174.403 68.916H175.015C175.095 68.916 175.135 68.956 175.135 69.036V74.868C175.135 74.948 175.095 74.988 175.015 74.988H174.403ZM177.342 75C177.262 75 177.222 74.96 177.222 74.88V66.72C177.222 66.64 177.262 66.6 177.342 66.6H177.954C178.034 66.6 178.074 66.64 178.074 66.72V74.88C178.074 74.96 178.034 75 177.954 75H177.342ZM180.683 74.976C180.483 74.976 180.319 74.912 180.191 74.784C180.071 74.656 180.011 74.496 180.011 74.304C180.011 74.104 180.071 73.944 180.191 73.824C180.319 73.696 180.483 73.632 180.683 73.632C180.875 73.632 181.035 73.696 181.163 73.824C181.291 73.944 181.355 74.104 181.355 74.304C181.355 74.496 181.291 74.656 181.163 74.784C181.035 74.912 180.875 74.976 180.683 74.976ZM185.361 75.096C184.785 75.096 184.289 74.948 183.873 74.652C183.465 74.348 183.185 73.94 183.033 73.428C182.929 73.076 182.877 72.58 182.877 71.94C182.877 71.364 182.929 70.876 183.033 70.476C183.177 69.98 183.457 69.584 183.873 69.288C184.289 68.984 184.785 68.832 185.361 68.832C185.945 68.832 186.449 68.98 186.873 69.276C187.305 69.572 187.585 69.94 187.713 70.38C187.753 70.524 187.777 70.644 187.785 70.74V70.764C187.785 70.82 187.749 70.856 187.677 70.872L187.077 70.956H187.053C186.997 70.956 186.961 70.92 186.945 70.848L186.909 70.668C186.837 70.364 186.661 70.108 186.381 69.9C186.101 69.684 185.761 69.576 185.361 69.576C184.961 69.576 184.625 69.684 184.353 69.9C184.089 70.108 183.917 70.388 183.837 70.74C183.765 71.044 183.729 71.448 183.729 71.952C183.729 72.48 183.765 72.888 183.837 73.176C183.917 73.536 184.089 73.824 184.353 74.04C184.625 74.248 184.961 74.352 185.361 74.352C185.753 74.352 186.089 74.252 186.369 74.052C186.657 73.844 186.837 73.58 186.909 73.26V73.212L186.921 73.164C186.929 73.084 186.977 73.052 187.065 73.068L187.653 73.164C187.733 73.18 187.769 73.224 187.761 73.296L187.713 73.536C187.593 74 187.317 74.376 186.885 74.664C186.453 74.952 185.945 75.096 185.361 75.096ZM191.585 75.096C191.009 75.096 190.513 74.948 190.097 74.652C189.681 74.356 189.393 73.948 189.233 73.428C189.121 73.06 189.065 72.568 189.065 71.952C189.065 71.336 189.121 70.848 189.233 70.488C189.385 69.976 189.669 69.572 190.085 69.276C190.501 68.98 191.005 68.832 191.597 68.832C192.165 68.832 192.653 68.98 193.061 69.276C193.477 69.572 193.761 69.972 193.913 70.476C194.025 70.82 194.081 71.312 194.081 71.952C194.081 72.6 194.025 73.092 193.913 73.428C193.761 73.948 193.477 74.356 193.061 74.652C192.653 74.948 192.161 75.096 191.585 75.096ZM191.585 74.352C191.969 74.352 192.297 74.248 192.569 74.04C192.841 73.824 193.025 73.536 193.121 73.176C193.193 72.888 193.229 72.484 193.229 71.964C193.229 71.436 193.197 71.032 193.133 70.752C193.037 70.392 192.849 70.108 192.569 69.9C192.297 69.684 191.965 69.576 191.573 69.576C191.181 69.576 190.849 69.684 190.577 69.9C190.305 70.108 190.121 70.392 190.025 70.752C189.961 71.032 189.929 71.436 189.929 71.964C189.929 72.492 189.961 72.896 190.025 73.176C190.113 73.536 190.293 73.824 190.565 74.04C190.845 74.248 191.185 74.352 191.585 74.352ZM201.952 68.844C202.552 68.844 203.024 69.024 203.368 69.384C203.72 69.744 203.896 70.236 203.896 70.86V74.88C203.896 74.96 203.856 75 203.776 75H203.176C203.096 75 203.056 74.96 203.056 74.88V71.028C203.056 70.588 202.928 70.24 202.672 69.984C202.424 69.72 202.096 69.588 201.688 69.588C201.264 69.588 200.92 69.716 200.656 69.972C200.4 70.228 200.272 70.572 200.272 71.004V74.88C200.272 74.96 200.232 75 200.152 75H199.54C199.46 75 199.42 74.96 199.42 74.88V71.028C199.42 70.588 199.296 70.24 199.048 69.984C198.8 69.72 198.468 69.588 198.052 69.588C197.628 69.588 197.288 69.716 197.032 69.972C196.784 70.228 196.66 70.572 196.66 71.004V74.88C196.66 74.96 196.62 75 196.54 75H195.928C195.848 75 195.808 74.96 195.808 74.88V69.048C195.808 68.968 195.848 68.928 195.928 68.928H196.54C196.62 68.928 196.66 68.968 196.66 69.048V69.528C196.66 69.544 196.664 69.556 196.672 69.564C196.688 69.564 196.704 69.556 196.72 69.54C196.896 69.308 197.12 69.136 197.392 69.024C197.672 68.904 197.98 68.844 198.316 68.844C198.732 68.844 199.088 68.928 199.384 69.096C199.68 69.264 199.904 69.508 200.056 69.828C200.072 69.868 200.092 69.868 200.116 69.828C200.292 69.5 200.54 69.256 200.86 69.096C201.18 68.928 201.544 68.844 201.952 68.844Z" fill="#919191"/>
<path d="M92.4 68H82.8C82.5878 68 82.3843 68.0843 82.2343 68.2343C82.0843 68.3843 82 68.5878 82 68.8V75.2C82 75.4122 82.0843 75.6157 82.2343 75.7657C82.3843 75.9157 82.5878 76 82.8 76H92.4C92.6122 76 92.8157 75.9157 92.9657 75.7657C93.1157 75.6157 93.2 75.4122 93.2 75.2V68.8C93.2 68.5878 93.1157 68.3843 92.9657 68.2343C92.8157 68.0843 92.6122 68 92.4 68ZM91.52 68.8L87.6 71.512L83.68 68.8H91.52ZM82.8 75.2V69.164L87.372 72.328C87.439 72.3745 87.5185 72.3993 87.6 72.3993C87.6815 72.3993 87.761 72.3745 87.828 72.328L92.4 69.164V75.2H82.8Z" fill="#3683BC"/>
<path d="M303.15 33.667C303.311 33.9897 303.392 34.36 303.392 34.778C303.392 35.218 303.297 35.6177 303.106 35.977C302.915 36.3217 302.637 36.593 302.27 36.791C301.903 36.989 301.471 37.088 300.972 37.088C300.481 37.088 300.044 36.9927 299.663 36.802C299.282 36.604 298.996 36.318 298.805 35.944C298.614 35.5993 298.519 35.207 298.519 34.767C298.519 34.371 298.603 33.997 298.772 33.645C298.919 33.3443 299.128 33.117 299.399 32.963C299.436 32.941 299.439 32.9153 299.41 32.886C299.227 32.754 299.062 32.5707 298.915 32.336C298.724 32.028 298.629 31.687 298.629 31.313C298.629 30.851 298.765 30.4367 299.036 30.07C299.234 29.784 299.502 29.564 299.839 29.41C300.176 29.2487 300.554 29.168 300.972 29.168C301.405 29.168 301.782 29.2487 302.105 29.41C302.435 29.564 302.699 29.784 302.897 30.07C303.154 30.444 303.282 30.8583 303.282 31.313C303.282 31.7163 303.183 32.0683 302.985 32.369C302.846 32.5743 302.684 32.743 302.501 32.875C302.472 32.9043 302.472 32.93 302.501 32.952C302.78 33.1133 302.996 33.3517 303.15 33.667ZM300.026 30.829C299.938 31.0197 299.894 31.1883 299.894 31.335C299.894 31.5843 299.956 31.808 300.081 32.006C300.257 32.3067 300.55 32.457 300.961 32.457C301.357 32.457 301.658 32.303 301.863 31.995C301.973 31.8337 302.028 31.61 302.028 31.324C302.028 31.1627 301.988 30.994 301.907 30.818C301.812 30.6493 301.683 30.5173 301.522 30.422C301.361 30.3193 301.17 30.268 300.95 30.268C300.745 30.268 300.561 30.3193 300.4 30.422C300.239 30.5173 300.114 30.653 300.026 30.829ZM301.874 35.537C302.028 35.3243 302.105 35.0347 302.105 34.668C302.105 34.3307 302.046 34.0667 301.929 33.876C301.746 33.5387 301.423 33.37 300.961 33.37C300.528 33.37 300.213 33.5313 300.015 33.854C299.89 34.052 299.828 34.327 299.828 34.679C299.828 35.0163 299.894 35.2913 300.026 35.504C300.224 35.8267 300.539 35.988 300.972 35.988C301.383 35.988 301.683 35.8377 301.874 35.537ZM305.836 33.282C305.609 33.282 305.422 33.2087 305.275 33.062C305.129 32.9153 305.055 32.7283 305.055 32.501C305.055 32.2737 305.129 32.0867 305.275 31.94C305.422 31.7933 305.609 31.72 305.836 31.72C306.064 31.72 306.247 31.7933 306.386 31.94C306.533 32.0867 306.606 32.2737 306.606 32.501C306.606 32.7283 306.533 32.9153 306.386 33.062C306.24 33.2087 306.056 33.282 305.836 33.282ZM305.836 36.912C305.609 36.912 305.422 36.8387 305.275 36.692C305.129 36.5453 305.055 36.3583 305.055 36.131C305.055 35.9037 305.129 35.7167 305.275 35.57C305.422 35.4233 305.609 35.35 305.836 35.35C306.064 35.35 306.247 35.4233 306.386 35.57C306.533 35.7167 306.606 35.9037 306.606 36.131C306.606 36.3583 306.533 36.5453 306.386 36.692C306.24 36.8387 306.056 36.912 305.836 36.912ZM313.069 33.546C313.164 33.876 313.212 34.217 313.212 34.569C313.212 34.9137 313.164 35.24 313.069 35.548C312.915 36.0173 312.632 36.3913 312.222 36.67C311.811 36.9413 311.331 37.077 310.781 37.077C310.238 37.077 309.765 36.945 309.362 36.681C308.958 36.4097 308.676 36.0467 308.515 35.592C308.456 35.4307 308.408 35.2473 308.372 35.042V35.02C308.372 34.9393 308.416 34.899 308.504 34.899H309.549C309.622 34.899 309.67 34.9393 309.692 35.02C309.699 35.064 309.717 35.13 309.747 35.218C309.827 35.46 309.956 35.647 310.132 35.779C310.308 35.911 310.52 35.977 310.77 35.977C311.026 35.977 311.246 35.9073 311.43 35.768C311.613 35.6213 311.741 35.4233 311.815 35.174C311.881 34.998 311.914 34.7963 311.914 34.569C311.914 34.3563 311.884 34.1473 311.826 33.942C311.774 33.7 311.657 33.5167 311.474 33.392C311.29 33.26 311.067 33.194 310.803 33.194C310.553 33.194 310.326 33.2527 310.121 33.37C309.923 33.48 309.794 33.6267 309.736 33.81C309.706 33.8833 309.655 33.92 309.582 33.92H308.515C308.478 33.92 308.445 33.909 308.416 33.887C308.394 33.8577 308.383 33.8247 308.383 33.788V29.432C308.383 29.3953 308.394 29.366 308.416 29.344C308.445 29.3147 308.478 29.3 308.515 29.3H312.794C312.83 29.3 312.86 29.3147 312.882 29.344C312.911 29.366 312.926 29.3953 312.926 29.432V30.268C312.926 30.3047 312.911 30.3377 312.882 30.367C312.86 30.389 312.83 30.4 312.794 30.4H309.714C309.677 30.4 309.659 30.4183 309.659 30.455L309.648 32.435C309.648 32.4643 309.655 32.4827 309.67 32.49C309.684 32.49 309.699 32.4827 309.714 32.468C310.058 32.2113 310.473 32.083 310.957 32.083C311.47 32.083 311.914 32.215 312.288 32.479C312.669 32.7357 312.929 33.0913 313.069 33.546ZM316.757 37.121C315.987 37.121 315.374 36.9047 314.92 36.472C314.472 36.032 314.249 35.4417 314.249 34.701V31.599C314.249 30.8657 314.472 30.2863 314.92 29.861C315.374 29.4283 315.987 29.212 316.757 29.212C317.527 29.212 318.139 29.4283 318.594 29.861C319.056 30.2863 319.287 30.8657 319.287 31.599V34.701C319.287 35.4417 319.056 36.032 318.594 36.472C318.139 36.9047 317.527 37.121 316.757 37.121ZM316.757 36.01C317.138 36.01 317.442 35.9 317.67 35.68C317.897 35.4527 318.011 35.1483 318.011 34.767V31.555C318.011 31.1737 317.897 30.873 317.67 30.653C317.442 30.4257 317.138 30.312 316.757 30.312C316.383 30.312 316.082 30.4257 315.855 30.653C315.635 30.873 315.525 31.1737 315.525 31.555V34.767C315.525 35.1483 315.635 35.4527 315.855 35.68C316.082 35.9 316.383 36.01 316.757 36.01ZM325.992 29.289C326.454 29.289 326.861 29.3843 327.213 29.575C327.565 29.7657 327.836 30.037 328.027 30.389C328.225 30.7337 328.324 31.1333 328.324 31.588C328.324 32.0353 328.225 32.4313 328.027 32.776C327.829 33.1207 327.546 33.3883 327.18 33.579C326.82 33.7623 326.402 33.854 325.926 33.854H324.166C324.129 33.854 324.111 33.8723 324.111 33.909V36.868C324.111 36.9047 324.096 36.9377 324.067 36.967C324.045 36.989 324.015 37 323.979 37H322.967C322.93 37 322.897 36.989 322.868 36.967C322.846 36.9377 322.835 36.9047 322.835 36.868V29.421C322.835 29.3843 322.846 29.355 322.868 29.333C322.897 29.3037 322.93 29.289 322.967 29.289H325.992ZM325.805 32.82C326.179 32.82 326.479 32.71 326.707 32.49C326.934 32.27 327.048 31.9803 327.048 31.621C327.048 31.2543 326.934 30.9573 326.707 30.73C326.479 30.5027 326.179 30.389 325.805 30.389H324.166C324.129 30.389 324.111 30.4073 324.111 30.444V32.765C324.111 32.8017 324.129 32.82 324.166 32.82H325.805ZM334.404 29.388C334.44 29.3293 334.492 29.3 334.558 29.3H335.57C335.606 29.3 335.636 29.3147 335.658 29.344C335.687 29.366 335.702 29.3953 335.702 29.432V36.868C335.702 36.9047 335.687 36.9377 335.658 36.967C335.636 36.989 335.606 37 335.57 37H334.558C334.521 37 334.488 36.989 334.459 36.967C334.437 36.9377 334.426 36.9047 334.426 36.868V31.621C334.426 31.599 334.415 31.5843 334.393 31.577C334.378 31.5697 334.367 31.577 334.36 31.599L332.985 33.711C332.948 33.7697 332.897 33.799 332.831 33.799H332.325C332.259 33.799 332.207 33.7697 332.171 33.711L330.785 31.61C330.777 31.588 330.763 31.5807 330.741 31.588C330.726 31.5953 330.719 31.61 330.719 31.632V36.868C330.719 36.9047 330.704 36.9377 330.675 36.967C330.653 36.989 330.623 37 330.587 37H329.575C329.538 37 329.505 36.989 329.476 36.967C329.454 36.9377 329.443 36.9047 329.443 36.868V29.432C329.443 29.3953 329.454 29.366 329.476 29.344C329.505 29.3147 329.538 29.3 329.575 29.3H330.587C330.653 29.3 330.704 29.3293 330.741 29.388L332.534 32.105C332.548 32.1197 332.563 32.127 332.578 32.127C332.592 32.127 332.603 32.1197 332.611 32.105L334.404 29.388Z" fill="#5F5F5F"/>
<path d="M87.3264 58.9489C87.1494 58.8369 83.0004 56.1659 83.0004 51.8749C82.9495 51.2531 83.0281 50.6275 83.2312 50.0375C83.4343 49.4476 83.7575 48.9062 84.1803 48.4474C84.6031 47.9886 85.1164 47.6224 85.6879 47.3719C86.2593 47.1215 86.8764 46.9922 87.5004 46.9922C88.1243 46.9922 88.7414 47.1215 89.3128 47.3719C89.8843 47.6224 90.3976 47.9886 90.8204 48.4474C91.2432 48.9062 91.5664 49.4476 91.7695 50.0375C91.9726 50.6275 92.0512 51.2531 92.0004 51.8749C92.0004 56.1659 87.8514 58.8369 87.6754 58.9489C87.6232 58.9822 87.5627 58.9999 87.5009 58.9999C87.439 58.9999 87.3785 58.9822 87.3264 58.9489ZM83.6924 51.8749C83.6924 55.2679 86.7314 57.6369 87.5004 58.1819C88.2684 57.6369 91.3084 55.2619 91.3084 51.8749C91.3501 51.3494 91.2826 50.821 91.1102 50.3229C90.9378 49.8247 90.6641 49.3676 90.3064 48.9804C89.9487 48.5932 89.5148 48.2842 89.0319 48.0728C88.5489 47.8615 88.0275 47.7524 87.5004 47.7524C86.9732 47.7524 86.4518 47.8615 85.9688 48.0728C85.4859 48.2842 85.052 48.5932 84.6943 48.9804C84.3366 49.3676 84.0629 49.8247 83.8905 50.3229C83.7181 50.821 83.6506 51.3494 83.6924 51.8749ZM86.4614 51.8749C86.4775 51.673 86.5521 51.4802 86.6761 51.3201C86.8001 51.1599 86.968 51.0393 87.1595 50.9731C87.3509 50.9069 87.5574 50.898 87.7539 50.9473C87.9503 50.9967 88.1281 51.1022 88.2655 51.251C88.4029 51.3998 88.494 51.5854 88.5276 51.7851C88.5612 51.9848 88.5359 52.1901 88.4547 52.3756C88.3735 52.5612 88.24 52.719 88.0705 52.8299C87.901 52.9408 87.7029 52.9999 87.5004 52.9999C87.2136 52.988 86.9432 52.8629 86.7485 52.652C86.5538 52.4412 86.4505 52.1618 86.4614 51.8749Z" fill="#3683BC"/>
<defs>
<filter id="filter0_d" x="0" y="0" width="363" height="102" filterUnits="userSpaceOnUse" color-interpolation-filters="sRGB">
<feFlood flood-opacity="0" result="BackgroundImageFix"/>
<feColorMatrix in="SourceAlpha" type="matrix" values="0 0 0 0 0 0 0 0 0 0 0 0 0 0 0 0 0 0 127 0"/>
<feOffset dy="3"/>
<feGaussianBlur stdDeviation="5"/>
<feColorMatrix type="matrix" values="0 0 0 0 0 0 0 0 0 0 0 0 0 0 0 0 0 0 0.102 0"/>
<feBlend mode="normal" in2="BackgroundImageFix" result="effect1_dropShadow"/>
<feBlend mode="normal" in="SourceGraphic" in2="effect1_dropShadow" result="shape"/>
</filter>
</defs>
</svg>
