<svg width="1300" height="800" viewBox="0 0 1300 800" fill="none" xmlns="http://www.w3.org/2000/svg">
<mask id="mask0" mask-type="alpha" maskUnits="userSpaceOnUse" x="0" y="0" width="1280" height="800">
<rect width="1280" height="800" fill="white"/>
</mask>
<g mask="url(#mask0)">
<path fill-rule="evenodd" clip-rule="evenodd" d="M303 1461C798.399 1461 1200 1059.62 1200 564.5C1200 69.3767 798.399 -332 303 -332C-192.399 -332 -594 69.3767 -594 564.5C-594 1059.62 -192.399 1461 303 1461Z" fill="url(#paint0_linear)"/>
<path fill-rule="evenodd" clip-rule="evenodd" d="M283.805 1060C538.132 1060 744.305 853.827 744.305 599.5C744.305 345.173 538.132 139 283.805 139C29.4776 139 -176.695 345.173 -176.695 599.5C-176.695 853.827 29.4776 1060 283.805 1060Z" fill="url(#paint1_linear)"/>
<rect x="-371" y="747.896" width="921" height="144" rx="72" transform="rotate(-30 -371 747.896)" fill="url(#paint2_linear)"/>
<rect x="-686" y="709.896" width="921" height="144" rx="72" transform="rotate(-30 -686 709.896)" fill="url(#paint3_linear)"/>
<rect x="-635" y="1105.9" width="921" height="144" rx="72" transform="rotate(-30 -635 1105.9)" fill="url(#paint4_linear)"/>
</g>
<defs>
<linearGradient id="paint0_linear" x1="420.448" y1="-691.461" x2="-1156.78" y2="559.404" gradientUnits="userSpaceOnUse">
<stop stop-color="#5799CA"/>
<stop offset="1" stop-color="#0090FB"/>
</linearGradient>
<linearGradient id="paint1_linear" x1="334.1" y1="-40.6424" x2="-465.964" y2="601.442" gradientUnits="userSpaceOnUse">
<stop stop-color="#437BA5"/>
<stop offset="1" stop-color="#0262A9"/>
</linearGradient>
<linearGradient id="paint2_linear" x1="550" y1="747.896" x2="-371" y2="747.896" gradientUnits="userSpaceOnUse">
<stop stop-color="#1D96EF"/>
<stop offset="1" stop-color="#144A73"/>
</linearGradient>
<linearGradient id="paint3_linear" x1="235" y1="709.896" x2="-686" y2="709.896" gradientUnits="userSpaceOnUse">
<stop stop-color="#1D96EF"/>
<stop offset="1" stop-color="#144A73"/>
</linearGradient>
<linearGradient id="paint4_linear" x1="286" y1="1105.9" x2="-635" y2="1105.9" gradientUnits="userSpaceOnUse">
<stop stop-color="#1F6293"/>
<stop offset="0.389964" stop-color="#186EAE"/>
<stop offset="1" stop-color="#30A7FF"/>
</linearGradient>
</defs>
</svg>
