<svg width="97" height="97" viewBox="0 0 97 97" fill="none" xmlns="http://www.w3.org/2000/svg">
<path fill-rule="evenodd" clip-rule="evenodd" d="M36.8995 17.0782C14.457 22.7981 13.5894 38.6322 22.9738 47.1153C32.3583 55.5985 22.8131 76.3015 36.8222 81.4526C50.8313 86.6037 59.0636 55.9938 70.4535 62.8357C81.8435 69.6777 99.597 39.2332 84.6723 30.2679C69.7475 21.3026 59.342 11.3583 36.8995 17.0782Z" fill="#E4EAF0"/>
<path d="M45.6924 82.3076H53.3847V89.9999H45.6924V82.3076Z" fill="#3683BC"/>
<path d="M59.1543 82.3076H66.8466V89.9999H59.1543V82.3076Z" fill="#3683BC"/>
<path d="M45.6924 68.8462H53.3847V76.5385H45.6924V68.8462Z" fill="#3683BC"/>
<path d="M59.1543 68.8462H66.8466V76.5385H59.1543V68.8462Z" fill="#3683BC"/>
<path d="M41.8462 82.3077H16.8462V55.3846H63V65H66.8462V55.3846C66.8451 54.3649 66.4396 53.3872 65.7185 52.6661C64.9974 51.945 64.0197 51.5395 63 51.5385H51.4615V43.8462C51.4605 42.8264 51.055 41.8487 50.3339 41.1276C49.6128 40.4066 48.6351 40.001 47.6154 40H32.2308C31.211 40.001 30.2333 40.4066 29.5123 41.1276C28.7912 41.8487 28.3856 42.8264 28.3846 43.8462V51.5385H16.8462C15.8264 51.5395 14.8487 51.945 14.1276 52.6661C13.4066 53.3872 13.001 54.3649 13 55.3846V82.3077C13.001 83.3274 13.4066 84.3051 14.1276 85.0262C14.8487 85.7473 15.8264 86.1528 16.8462 86.1538H41.8462V82.3077ZM32.2308 43.8462H47.6154V51.5385H32.2308V43.8462Z" fill="#3683BC"/>
</svg>
