<svg width="6" height="337" viewBox="0 0 6 337" fill="none" xmlns="http://www.w3.org/2000/svg">
<path opacity="0.3" fill-rule="evenodd" clip-rule="evenodd" d="M6 254C6 255.657 4.65675 257 3 257C1.34325 257 0 255.657 0 254C0 252.343 1.34325 251 3 251C4.65675 251 6 252.343 6 254Z" fill="#3683BC"/>
<path opacity="0.3" fill-rule="evenodd" clip-rule="evenodd" d="M6 3C6 4.65675 4.65675 6 3 6C1.34325 6 0 4.65675 0 3C0 1.34325 1.34325 0 3 0C4.65675 0 6 1.34325 6 3Z" fill="#3683BC"/>
<path opacity="0.3" fill-rule="evenodd" clip-rule="evenodd" d="M6 285.5C6 287.433 4.65675 289 3 289C1.34325 289 0 287.433 0 285.5C0 283.567 1.34325 282 3 282C4.65675 282 6 283.567 6 285.5Z" fill="#3683BC"/>
<path opacity="0.3" fill-rule="evenodd" clip-rule="evenodd" d="M6 34.5C6 36.4329 4.65675 38 3 38C1.34325 38 0 36.4329 0 34.5C0 32.5671 1.34325 31 3 31C4.65675 31 6 32.5671 6 34.5Z" fill="#3683BC"/>
<path opacity="0.3" fill-rule="evenodd" clip-rule="evenodd" d="M6 317C6 318.657 4.65675 320 3 320C1.34325 320 0 318.657 0 317C0 315.343 1.34325 314 3 314C4.65675 314 6 315.343 6 317Z" fill="#3683BC"/>
<path opacity="0.3" fill-rule="evenodd" clip-rule="evenodd" d="M6 66C6 67.6568 4.65675 69 3 69C1.34325 69 0 67.6568 0 66C0 64.3433 1.34325 63 3 63C4.65675 63 6 64.3433 6 66Z" fill="#3683BC"/>
<path opacity="0.3" fill-rule="evenodd" clip-rule="evenodd" d="M6 97C6 98.6568 4.65675 100 3 100C1.34325 100 0 98.6568 0 97C0 95.3433 1.34325 94 3 94C4.65675 94 6 95.3433 6 97Z" fill="#3683BC"/>
<path opacity="0.3" fill-rule="evenodd" clip-rule="evenodd" d="M6 128.5C6 130.433 4.65675 132 3 132C1.34325 132 0 130.433 0 128.5C0 126.567 1.34325 125 3 125C4.65675 125 6 126.567 6 128.5Z" fill="#3683BC"/>
<path opacity="0.3" fill-rule="evenodd" clip-rule="evenodd" d="M6 160C6 161.657 4.65675 163 3 163C1.34325 163 0 161.657 0 160C0 158.343 1.34325 157 3 157C4.65675 157 6 158.343 6 160Z" fill="#3683BC"/>
<path opacity="0.3" fill-rule="evenodd" clip-rule="evenodd" d="M6 191C6 192.657 4.65675 194 3 194C1.34325 194 0 192.657 0 191C0 189.343 1.34325 188 3 188C4.65675 188 6 189.343 6 191Z" fill="#3683BC"/>
<path opacity="0.3" fill-rule="evenodd" clip-rule="evenodd" d="M6 222.5C6 224.433 4.65675 226 3 226C1.34325 226 0 224.433 0 222.5C0 220.567 1.34325 219 3 219C4.65675 219 6 220.567 6 222.5Z" fill="#3683BC"/>
</svg>
