<svg width="371" height="162" viewBox="0 0 371 162" fill="none" xmlns="http://www.w3.org/2000/svg">
<g filter="url(#filter0_d)">
<rect x="20" y="10" width="331" height="122" rx="20" fill="white"/>
</g>
<g filter="url(#filter1_d)">
<rect x="20" y="10" width="331" height="122" rx="20" fill="white"/>
</g>
<path d="M61.24 30.242C61.3147 30.214 61.3847 30.2 61.45 30.2H62.794C62.8407 30.2 62.878 30.2187 62.906 30.256C62.9433 30.284 62.962 30.3213 62.962 30.368V39.832C62.962 39.8787 62.9433 39.9207 62.906 39.958C62.878 39.986 62.8407 40 62.794 40H61.506C61.4593 40 61.4173 39.986 61.38 39.958C61.352 39.9207 61.338 39.8787 61.338 39.832V31.88C61.338 31.8613 61.3287 31.8473 61.31 31.838C61.2913 31.8193 61.2727 31.8147 61.254 31.824L59.854 32.258C59.8353 32.2673 59.812 32.272 59.784 32.272C59.7467 32.272 59.714 32.258 59.686 32.23C59.6673 32.202 59.658 32.1647 59.658 32.118L59.616 31.194C59.616 31.1007 59.6533 31.0353 59.728 30.998L61.24 30.242ZM74.2003 30.2C74.2469 30.2 74.2843 30.2187 74.3123 30.256C74.3496 30.284 74.3683 30.3213 74.3683 30.368V31.446C74.3683 31.4927 74.3496 31.5347 74.3123 31.572C74.2843 31.6 74.2469 31.614 74.2003 31.614H71.6243C71.5776 31.614 71.5543 31.6373 71.5543 31.684V39.832C71.5543 39.8787 71.5356 39.9207 71.4983 39.958C71.4703 39.986 71.4329 40 71.3863 40H70.0983C70.0516 40 70.0096 39.986 69.9723 39.958C69.9443 39.9207 69.9303 39.8787 69.9303 39.832V31.684C69.9303 31.6373 69.9069 31.614 69.8603 31.614H67.3823C67.3356 31.614 67.2936 31.6 67.2563 31.572C67.2283 31.5347 67.2143 31.4927 67.2143 31.446V30.368C67.2143 30.3213 67.2283 30.284 67.2563 30.256C67.2936 30.2187 67.3356 30.2 67.3823 30.2H74.2003ZM79.1437 32.734C79.8997 32.734 80.5017 32.958 80.9497 33.406C81.407 33.854 81.6357 34.4653 81.6357 35.24V39.832C81.6357 39.8787 81.617 39.9207 81.5797 39.958C81.5517 39.986 81.5144 40 81.4677 40H80.1797C80.133 40 80.091 39.986 80.0537 39.958C80.0257 39.9207 80.0117 39.8787 80.0117 39.832V35.576C80.0117 35.1467 79.8904 34.8013 79.6477 34.54C79.405 34.2693 79.083 34.134 78.6817 34.134C78.2804 34.134 77.9537 34.2647 77.7017 34.526C77.459 34.7873 77.3377 35.1327 77.3377 35.562V39.832C77.3377 39.8787 77.319 39.9207 77.2817 39.958C77.2537 39.986 77.2164 40 77.1697 40H75.8817C75.835 40 75.793 39.986 75.7557 39.958C75.7277 39.9207 75.7137 39.8787 75.7137 39.832V30.368C75.7137 30.3213 75.7277 30.284 75.7557 30.256C75.793 30.2187 75.835 30.2 75.8817 30.2H77.1697C77.2164 30.2 77.2537 30.2187 77.2817 30.256C77.319 30.284 77.3377 30.3213 77.3377 30.368V33.462C77.3377 33.49 77.347 33.5087 77.3657 33.518C77.3844 33.5273 77.3984 33.518 77.4077 33.49C77.7904 32.986 78.369 32.734 79.1437 32.734ZM89.3083 35.618C89.3456 35.8513 89.3643 36.1127 89.3643 36.402L89.3503 36.836C89.3503 36.948 89.2943 37.004 89.1823 37.004H84.8003C84.7536 37.004 84.7303 37.0273 84.7303 37.074C84.7583 37.382 84.8003 37.592 84.8563 37.704C85.0803 38.376 85.6263 38.7167 86.4943 38.726C87.1289 38.726 87.6329 38.4647 88.0063 37.942C88.0436 37.886 88.0903 37.858 88.1463 37.858C88.1836 37.858 88.2163 37.872 88.2443 37.9L89.1123 38.614C89.1963 38.6793 89.2103 38.754 89.1543 38.838C88.8649 39.2487 88.4776 39.566 87.9923 39.79C87.5163 40.014 86.9843 40.126 86.3963 40.126C85.6683 40.126 85.0476 39.9627 84.5343 39.636C84.0303 39.3093 83.6616 38.852 83.4283 38.264C83.2136 37.76 83.1063 37.06 83.1063 36.164C83.1063 35.6227 83.1623 35.184 83.2743 34.848C83.4609 34.1947 83.8109 33.6813 84.3243 33.308C84.8469 32.9253 85.4723 32.734 86.2003 32.734C88.0389 32.734 89.0749 33.6953 89.3083 35.618ZM86.2003 34.134C85.8549 34.134 85.5656 34.2227 85.3323 34.4C85.1083 34.568 84.9496 34.806 84.8563 35.114C84.8003 35.2727 84.7629 35.478 84.7443 35.73C84.7256 35.7767 84.7443 35.8 84.8003 35.8H87.6423C87.6889 35.8 87.7123 35.7767 87.7123 35.73C87.6936 35.4967 87.6656 35.3193 87.6283 35.198C87.5443 34.862 87.3763 34.6007 87.1243 34.414C86.8816 34.2273 86.5736 34.134 86.2003 34.134ZM97.0812 40.112C96.3812 40.112 95.7652 39.9767 95.2332 39.706C94.7012 39.426 94.2905 39.034 94.0012 38.53C93.7119 38.026 93.5672 37.4473 93.5672 36.794V33.406C93.5672 32.7433 93.7119 32.1647 94.0012 31.67C94.2905 31.166 94.7012 30.7787 95.2332 30.508C95.7652 30.228 96.3812 30.088 97.0812 30.088C97.7719 30.088 98.3785 30.2233 98.9012 30.494C99.4332 30.7647 99.8439 31.1333 100.133 31.6C100.423 32.0667 100.567 32.594 100.567 33.182V33.294C100.567 33.3407 100.549 33.3827 100.511 33.42C100.483 33.448 100.446 33.462 100.399 33.462H99.1252C99.0785 33.462 99.0365 33.448 98.9992 33.42C98.9712 33.3827 98.9572 33.3407 98.9572 33.294V33.224C98.9572 32.72 98.7845 32.3047 98.4392 31.978C98.1032 31.6513 97.6505 31.488 97.0812 31.488C96.5119 31.488 96.0545 31.6607 95.7092 32.006C95.3639 32.342 95.1912 32.79 95.1912 33.35V36.85C95.1912 37.41 95.3732 37.8627 95.7372 38.208C96.1012 38.544 96.5725 38.712 97.1512 38.712C97.7112 38.712 98.1499 38.5673 98.4672 38.278C98.7939 37.9793 98.9572 37.5733 98.9572 37.06V36.192C98.9572 36.1453 98.9339 36.122 98.8872 36.122H97.1652C97.1185 36.122 97.0765 36.108 97.0392 36.08C97.0112 36.0427 96.9972 36.0007 96.9972 35.954V34.918C96.9972 34.8713 97.0112 34.834 97.0392 34.806C97.0765 34.7687 97.1185 34.75 97.1652 34.75H100.399C100.446 34.75 100.483 34.7687 100.511 34.806C100.549 34.834 100.567 34.8713 100.567 34.918V36.71C100.567 37.7833 100.25 38.6187 99.6152 39.216C98.9899 39.8133 98.1452 40.112 97.0812 40.112ZM104.912 32.734C105.5 32.734 106.018 32.8367 106.466 33.042C106.914 33.2473 107.26 33.532 107.502 33.896C107.745 34.2507 107.866 34.6567 107.866 35.114V39.832C107.866 39.8787 107.848 39.9207 107.81 39.958C107.782 39.986 107.745 40 107.698 40H106.41C106.364 40 106.322 39.986 106.284 39.958C106.256 39.9207 106.242 39.8787 106.242 39.832V39.384C106.242 39.356 106.233 39.342 106.214 39.342C106.196 39.3327 106.177 39.3373 106.158 39.356C105.701 39.86 105.038 40.112 104.17 40.112C103.47 40.112 102.892 39.9347 102.434 39.58C101.986 39.2253 101.762 38.698 101.762 37.998C101.762 37.27 102.014 36.7053 102.518 36.304C103.032 35.8933 103.75 35.688 104.674 35.688H106.172C106.219 35.688 106.242 35.6647 106.242 35.618V35.282C106.242 34.918 106.135 34.638 105.92 34.442C105.706 34.2367 105.384 34.134 104.954 34.134C104.6 34.134 104.31 34.1993 104.086 34.33C103.872 34.4513 103.736 34.624 103.68 34.848C103.652 34.96 103.587 35.0067 103.484 34.988L102.126 34.82C102.08 34.8107 102.038 34.7967 102 34.778C101.972 34.75 101.963 34.7173 101.972 34.68C102.047 34.1107 102.35 33.644 102.882 33.28C103.424 32.916 104.1 32.734 104.912 32.734ZM104.576 38.824C105.034 38.824 105.426 38.7027 105.752 38.46C106.079 38.2173 106.242 37.9093 106.242 37.536V36.878C106.242 36.8313 106.219 36.808 106.172 36.808H104.996C104.502 36.808 104.11 36.9013 103.82 37.088C103.54 37.2747 103.4 37.5407 103.4 37.886C103.4 38.1847 103.508 38.418 103.722 38.586C103.946 38.7447 104.231 38.824 104.576 38.824ZM113.182 33.994C113.182 34.0407 113.163 34.0827 113.126 34.12C113.098 34.148 113.06 34.162 113.014 34.162H111.586C111.539 34.162 111.516 34.1853 111.516 34.232V37.606C111.516 37.9607 111.59 38.2173 111.74 38.376C111.898 38.5347 112.146 38.614 112.482 38.614H112.902C112.948 38.614 112.986 38.6327 113.014 38.67C113.051 38.698 113.07 38.7353 113.07 38.782V39.832C113.07 39.9347 113.014 39.9953 112.902 40.014L112.174 40.028C111.436 40.028 110.886 39.902 110.522 39.65C110.158 39.398 109.971 38.922 109.962 38.222V34.232C109.962 34.1853 109.938 34.162 109.892 34.162H109.094C109.047 34.162 109.005 34.148 108.968 34.12C108.94 34.0827 108.926 34.0407 108.926 33.994V33.014C108.926 32.9673 108.94 32.93 108.968 32.902C109.005 32.8647 109.047 32.846 109.094 32.846H109.892C109.938 32.846 109.962 32.8227 109.962 32.776V31.138C109.962 31.0913 109.976 31.054 110.004 31.026C110.041 30.9887 110.083 30.97 110.13 30.97H111.348C111.394 30.97 111.432 30.9887 111.46 31.026C111.497 31.054 111.516 31.0913 111.516 31.138V32.776C111.516 32.8227 111.539 32.846 111.586 32.846H113.014C113.06 32.846 113.098 32.8647 113.126 32.902C113.163 32.93 113.182 32.9673 113.182 33.014V33.994ZM120.521 35.618C120.558 35.8513 120.577 36.1127 120.577 36.402L120.563 36.836C120.563 36.948 120.507 37.004 120.395 37.004H116.013C115.966 37.004 115.943 37.0273 115.943 37.074C115.971 37.382 116.013 37.592 116.069 37.704C116.293 38.376 116.839 38.7167 117.707 38.726C118.342 38.726 118.846 38.4647 119.219 37.942C119.256 37.886 119.303 37.858 119.359 37.858C119.396 37.858 119.429 37.872 119.457 37.9L120.325 38.614C120.409 38.6793 120.423 38.754 120.367 38.838C120.078 39.2487 119.69 39.566 119.205 39.79C118.729 40.014 118.197 40.126 117.609 40.126C116.881 40.126 116.26 39.9627 115.747 39.636C115.243 39.3093 114.874 38.852 114.641 38.264C114.426 37.76 114.319 37.06 114.319 36.164C114.319 35.6227 114.375 35.184 114.487 34.848C114.674 34.1947 115.024 33.6813 115.537 33.308C116.06 32.9253 116.685 32.734 117.413 32.734C119.252 32.734 120.288 33.6953 120.521 35.618ZM117.413 34.134C117.068 34.134 116.778 34.2227 116.545 34.4C116.321 34.568 116.162 34.806 116.069 35.114C116.013 35.2727 115.976 35.478 115.957 35.73C115.938 35.7767 115.957 35.8 116.013 35.8H118.855C118.902 35.8 118.925 35.7767 118.925 35.73C118.906 35.4967 118.878 35.3193 118.841 35.198C118.757 34.862 118.589 34.6007 118.337 34.414C118.094 34.2273 117.786 34.134 117.413 34.134ZM123.441 40C123.338 40 123.273 39.9533 123.245 39.86L121.243 33.028L121.229 32.972C121.229 32.8787 121.28 32.832 121.383 32.832H122.713C122.816 32.832 122.881 32.8787 122.909 32.972L124.071 37.648C124.08 37.676 124.094 37.69 124.113 37.69C124.132 37.69 124.146 37.676 124.155 37.648L125.373 32.972C125.401 32.8787 125.466 32.832 125.569 32.832H126.731C126.834 32.832 126.899 32.8787 126.927 32.972L128.173 37.648C128.182 37.676 128.196 37.69 128.215 37.69C128.234 37.69 128.248 37.676 128.257 37.648L129.503 32.972C129.531 32.8787 129.596 32.832 129.699 32.832L131.015 32.86C131.071 32.86 131.108 32.8787 131.127 32.916C131.155 32.944 131.164 32.986 131.155 33.042L129.139 39.86C129.111 39.9533 129.05 40 128.957 40H127.613C127.51 40 127.445 39.9533 127.417 39.86L126.185 35.59C126.176 35.562 126.162 35.548 126.143 35.548C126.124 35.548 126.11 35.562 126.101 35.59L124.967 39.86C124.939 39.9533 124.874 40 124.771 40H123.441ZM134.813 32.734C135.401 32.734 135.919 32.8367 136.367 33.042C136.815 33.2473 137.16 33.532 137.403 33.896C137.646 34.2507 137.767 34.6567 137.767 35.114V39.832C137.767 39.8787 137.748 39.9207 137.711 39.958C137.683 39.986 137.646 40 137.599 40H136.311C136.264 40 136.222 39.986 136.185 39.958C136.157 39.9207 136.143 39.8787 136.143 39.832V39.384C136.143 39.356 136.134 39.342 136.115 39.342C136.096 39.3327 136.078 39.3373 136.059 39.356C135.602 39.86 134.939 40.112 134.071 40.112C133.371 40.112 132.792 39.9347 132.335 39.58C131.887 39.2253 131.663 38.698 131.663 37.998C131.663 37.27 131.915 36.7053 132.419 36.304C132.932 35.8933 133.651 35.688 134.575 35.688H136.073C136.12 35.688 136.143 35.6647 136.143 35.618V35.282C136.143 34.918 136.036 34.638 135.821 34.442C135.606 34.2367 135.284 34.134 134.855 34.134C134.5 34.134 134.211 34.1993 133.987 34.33C133.772 34.4513 133.637 34.624 133.581 34.848C133.553 34.96 133.488 35.0067 133.385 34.988L132.027 34.82C131.98 34.8107 131.938 34.7967 131.901 34.778C131.873 34.75 131.864 34.7173 131.873 34.68C131.948 34.1107 132.251 33.644 132.783 33.28C133.324 32.916 134.001 32.734 134.813 32.734ZM134.477 38.824C134.934 38.824 135.326 38.7027 135.653 38.46C135.98 38.2173 136.143 37.9093 136.143 37.536V36.878C136.143 36.8313 136.12 36.808 136.073 36.808H134.897C134.402 36.808 134.01 36.9013 133.721 37.088C133.441 37.2747 133.301 37.5407 133.301 37.886C133.301 38.1847 133.408 38.418 133.623 38.586C133.847 38.7447 134.132 38.824 134.477 38.824ZM139.107 42.786C139.079 42.786 139.056 42.7673 139.037 42.73C139.018 42.702 139.009 42.6647 139.009 42.618V41.61C139.009 41.5633 139.023 41.5213 139.051 41.484C139.088 41.456 139.13 41.442 139.177 41.442H139.191C139.574 41.4327 139.872 41.3907 140.087 41.316C140.302 41.2507 140.479 41.12 140.619 40.924C140.759 40.728 140.885 40.434 140.997 40.042C141.006 40.0233 141.006 39.9953 140.997 39.958L138.687 33.028C138.678 33.0093 138.673 32.986 138.673 32.958C138.673 32.874 138.72 32.832 138.813 32.832H140.185C140.288 32.832 140.353 32.8787 140.381 32.972L141.781 37.9C141.79 37.928 141.804 37.942 141.823 37.942C141.842 37.942 141.856 37.928 141.865 37.9L143.265 32.972C143.293 32.8787 143.358 32.832 143.461 32.832H144.791C144.847 32.832 144.884 32.8507 144.903 32.888C144.931 32.916 144.936 32.9627 144.917 33.028L142.453 40.392C142.22 41.0547 141.991 41.5493 141.767 41.876C141.543 42.2027 141.235 42.436 140.843 42.576C140.46 42.716 139.914 42.786 139.205 42.786H139.107ZM145.536 41.274C145.424 41.274 145.372 41.2133 145.382 41.092L145.9 37.956C145.909 37.8533 145.97 37.802 146.082 37.802H147.202C147.323 37.802 147.37 37.8627 147.342 37.984L146.516 41.134C146.488 41.2273 146.422 41.274 146.32 41.274H145.536ZM158.833 31.432C158.833 31.4787 158.815 31.5207 158.777 31.558C158.749 31.586 158.712 31.6 158.665 31.6H153.905C153.859 31.6 153.835 31.6233 153.835 31.67V34.288C153.835 34.3347 153.859 34.358 153.905 34.358H157.111C157.158 34.358 157.195 34.3767 157.223 34.414C157.261 34.442 157.279 34.4793 157.279 34.526V35.59C157.279 35.6367 157.261 35.6787 157.223 35.716C157.195 35.744 157.158 35.758 157.111 35.758H153.905C153.859 35.758 153.835 35.7813 153.835 35.828V39.832C153.835 39.8787 153.817 39.9207 153.779 39.958C153.751 39.986 153.714 40 153.667 40H152.379C152.333 40 152.291 39.986 152.253 39.958C152.225 39.9207 152.211 39.8787 152.211 39.832V30.368C152.211 30.3213 152.225 30.284 152.253 30.256C152.291 30.2187 152.333 30.2 152.379 30.2H158.665C158.712 30.2 158.749 30.2187 158.777 30.256C158.815 30.284 158.833 30.3213 158.833 30.368V31.432ZM162.95 32.762C163.249 32.762 163.51 32.8227 163.734 32.944C163.809 32.9813 163.837 33.0513 163.818 33.154L163.58 34.414C163.571 34.526 163.505 34.5587 163.384 34.512C163.244 34.4653 163.081 34.442 162.894 34.442C162.773 34.442 162.679 34.4467 162.614 34.456C162.222 34.4747 161.895 34.6147 161.634 34.876C161.373 35.128 161.242 35.4593 161.242 35.87V39.832C161.242 39.8787 161.223 39.9207 161.186 39.958C161.158 39.986 161.121 40 161.074 40H159.786C159.739 40 159.697 39.986 159.66 39.958C159.632 39.9207 159.618 39.8787 159.618 39.832V33.014C159.618 32.9673 159.632 32.93 159.66 32.902C159.697 32.8647 159.739 32.846 159.786 32.846H161.074C161.121 32.846 161.158 32.8647 161.186 32.902C161.223 32.93 161.242 32.9673 161.242 33.014V33.644C161.242 33.6813 161.247 33.7047 161.256 33.714C161.275 33.714 161.293 33.7 161.312 33.672C161.704 33.0653 162.25 32.762 162.95 32.762ZM164.974 42.786C164.946 42.786 164.923 42.7673 164.904 42.73C164.885 42.702 164.876 42.6647 164.876 42.618V41.61C164.876 41.5633 164.89 41.5213 164.918 41.484C164.955 41.456 164.997 41.442 165.044 41.442H165.058C165.441 41.4327 165.739 41.3907 165.954 41.316C166.169 41.2507 166.346 41.12 166.486 40.924C166.626 40.728 166.752 40.434 166.864 40.042C166.873 40.0233 166.873 39.9953 166.864 39.958L164.554 33.028C164.545 33.0093 164.54 32.986 164.54 32.958C164.54 32.874 164.587 32.832 164.68 32.832H166.052C166.155 32.832 166.22 32.8787 166.248 32.972L167.648 37.9C167.657 37.928 167.671 37.942 167.69 37.942C167.709 37.942 167.723 37.928 167.732 37.9L169.132 32.972C169.16 32.8787 169.225 32.832 169.328 32.832H170.658C170.714 32.832 170.751 32.8507 170.77 32.888C170.798 32.916 170.803 32.9627 170.784 33.028L168.32 40.392C168.087 41.0547 167.858 41.5493 167.634 41.876C167.41 42.2027 167.102 42.436 166.71 42.576C166.327 42.716 165.781 42.786 165.072 42.786H164.974ZM177.615 35.618C177.652 35.8513 177.671 36.1127 177.671 36.402L177.657 36.836C177.657 36.948 177.601 37.004 177.489 37.004H173.107C173.06 37.004 173.037 37.0273 173.037 37.074C173.065 37.382 173.107 37.592 173.163 37.704C173.387 38.376 173.933 38.7167 174.801 38.726C175.436 38.726 175.94 38.4647 176.313 37.942C176.35 37.886 176.397 37.858 176.453 37.858C176.49 37.858 176.523 37.872 176.551 37.9L177.419 38.614C177.503 38.6793 177.517 38.754 177.461 38.838C177.172 39.2487 176.784 39.566 176.299 39.79C175.823 40.014 175.291 40.126 174.703 40.126C173.975 40.126 173.354 39.9627 172.841 39.636C172.337 39.3093 171.968 38.852 171.735 38.264C171.52 37.76 171.413 37.06 171.413 36.164C171.413 35.6227 171.469 35.184 171.581 34.848C171.768 34.1947 172.118 33.6813 172.631 33.308C173.154 32.9253 173.779 32.734 174.507 32.734C176.346 32.734 177.382 33.6953 177.615 35.618ZM174.507 34.134C174.162 34.134 173.872 34.2227 173.639 34.4C173.415 34.568 173.256 34.806 173.163 35.114C173.107 35.2727 173.07 35.478 173.051 35.73C173.032 35.7767 173.051 35.8 173.107 35.8H175.949C175.996 35.8 176.019 35.7767 176.019 35.73C176 35.4967 175.972 35.3193 175.935 35.198C175.851 34.862 175.683 34.6007 175.431 34.414C175.188 34.2273 174.88 34.134 174.507 34.134ZM182.487 32.762C182.786 32.762 183.047 32.8227 183.271 32.944C183.346 32.9813 183.374 33.0513 183.355 33.154L183.117 34.414C183.108 34.526 183.042 34.5587 182.921 34.512C182.781 34.4653 182.618 34.442 182.431 34.442C182.31 34.442 182.216 34.4467 182.151 34.456C181.759 34.4747 181.432 34.6147 181.171 34.876C180.91 35.128 180.779 35.4593 180.779 35.87V39.832C180.779 39.8787 180.76 39.9207 180.723 39.958C180.695 39.986 180.658 40 180.611 40H179.323C179.276 40 179.234 39.986 179.197 39.958C179.169 39.9207 179.155 39.8787 179.155 39.832V33.014C179.155 32.9673 179.169 32.93 179.197 32.902C179.234 32.8647 179.276 32.846 179.323 32.846H180.611C180.658 32.846 180.695 32.8647 180.723 32.902C180.76 32.93 180.779 32.9673 180.779 33.014V33.644C180.779 33.6813 180.784 33.7047 180.793 33.714C180.812 33.714 180.83 33.7 180.849 33.672C181.241 33.0653 181.787 32.762 182.487 32.762ZM186.997 40.084C186.409 40.084 185.891 40 185.443 39.832C185.004 39.6547 184.663 39.4167 184.421 39.118C184.178 38.81 184.057 38.4693 184.057 38.096V37.97C184.057 37.9233 184.071 37.886 184.099 37.858C184.136 37.8207 184.178 37.802 184.225 37.802H185.457C185.503 37.802 185.541 37.8207 185.569 37.858C185.606 37.886 185.625 37.9233 185.625 37.97V37.998C185.625 38.2313 185.751 38.4367 186.003 38.614C186.264 38.782 186.591 38.866 186.983 38.866C187.356 38.866 187.659 38.7913 187.893 38.642C188.126 38.4833 188.243 38.2873 188.243 38.054C188.243 37.8393 188.145 37.6807 187.949 37.578C187.762 37.466 187.454 37.3493 187.025 37.228L186.493 37.06C186.017 36.92 185.615 36.7707 185.289 36.612C184.962 36.4533 184.687 36.2387 184.463 35.968C184.239 35.688 184.127 35.3333 184.127 34.904C184.127 34.2507 184.383 33.7327 184.897 33.35C185.41 32.958 186.087 32.762 186.927 32.762C187.496 32.762 187.995 32.8553 188.425 33.042C188.854 33.2193 189.185 33.4713 189.419 33.798C189.652 34.1153 189.769 34.4793 189.769 34.89C189.769 34.9367 189.75 34.9787 189.713 35.016C189.685 35.044 189.647 35.058 189.601 35.058H188.411C188.364 35.058 188.322 35.044 188.285 35.016C188.257 34.9787 188.243 34.9367 188.243 34.89C188.243 34.6473 188.121 34.4467 187.879 34.288C187.645 34.12 187.323 34.036 186.913 34.036C186.549 34.036 186.25 34.106 186.017 34.246C185.793 34.3767 185.681 34.5633 185.681 34.806C185.681 35.03 185.788 35.2027 186.003 35.324C186.227 35.436 186.595 35.562 187.109 35.702L187.417 35.786C187.911 35.9353 188.327 36.0893 188.663 36.248C188.999 36.3973 189.283 36.612 189.517 36.892C189.75 37.1627 189.867 37.5173 189.867 37.956C189.867 38.6187 189.605 39.1413 189.083 39.524C188.56 39.8973 187.865 40.084 186.997 40.084ZM196.284 40C196.181 40 196.116 39.9533 196.088 39.86L193.54 30.382L193.526 30.326C193.526 30.242 193.577 30.2 193.68 30.2H195.052C195.154 30.2 195.22 30.2467 195.248 30.34L196.844 36.724C196.853 36.752 196.867 36.766 196.886 36.766C196.904 36.766 196.918 36.752 196.928 36.724L198.454 30.34C198.482 30.2467 198.542 30.2 198.636 30.2H199.98C200.082 30.2 200.148 30.2467 200.176 30.34L201.8 36.738C201.809 36.766 201.823 36.78 201.842 36.78C201.86 36.78 201.874 36.766 201.884 36.738L203.452 30.34C203.48 30.2467 203.545 30.2 203.648 30.2H204.95C205.08 30.2 205.132 30.2607 205.104 30.382L202.682 39.86C202.654 39.9533 202.588 40 202.486 40H201.184C201.081 40 201.016 39.9533 200.988 39.86L199.35 33.182C199.34 33.154 199.326 33.14 199.308 33.14C199.289 33.1307 199.275 33.1447 199.266 33.182L197.698 39.86C197.67 39.9533 197.609 40 197.516 40H196.284ZM208.285 32.734C208.874 32.734 209.392 32.8367 209.84 33.042C210.288 33.2473 210.633 33.532 210.876 33.896C211.118 34.2507 211.24 34.6567 211.24 35.114V39.832C211.24 39.8787 211.221 39.9207 211.184 39.958C211.156 39.986 211.118 40 211.072 40H209.784C209.737 40 209.695 39.986 209.658 39.958C209.63 39.9207 209.616 39.8787 209.616 39.832V39.384C209.616 39.356 209.606 39.342 209.588 39.342C209.569 39.3327 209.55 39.3373 209.532 39.356C209.074 39.86 208.412 40.112 207.544 40.112C206.844 40.112 206.265 39.9347 205.808 39.58C205.36 39.2253 205.136 38.698 205.136 37.998C205.136 37.27 205.388 36.7053 205.892 36.304C206.405 35.8933 207.124 35.688 208.048 35.688H209.546C209.592 35.688 209.616 35.6647 209.616 35.618V35.282C209.616 34.918 209.508 34.638 209.294 34.442C209.079 34.2367 208.757 34.134 208.328 34.134C207.973 34.134 207.684 34.1993 207.46 34.33C207.245 34.4513 207.11 34.624 207.054 34.848C207.026 34.96 206.96 35.0067 206.858 34.988L205.5 34.82C205.453 34.8107 205.411 34.7967 205.374 34.778C205.346 34.75 205.336 34.7173 205.346 34.68C205.42 34.1107 205.724 33.644 206.256 33.28C206.797 32.916 207.474 32.734 208.285 32.734ZM207.95 38.824C208.407 38.824 208.799 38.7027 209.126 38.46C209.452 38.2173 209.616 37.9093 209.616 37.536V36.878C209.616 36.8313 209.592 36.808 209.546 36.808H208.37C207.875 36.808 207.483 36.9013 207.194 37.088C206.914 37.2747 206.774 37.5407 206.774 37.886C206.774 38.1847 206.881 38.418 207.096 38.586C207.32 38.7447 207.604 38.824 207.95 38.824ZM212.58 42.786C212.552 42.786 212.528 42.7673 212.51 42.73C212.491 42.702 212.482 42.6647 212.482 42.618V41.61C212.482 41.5633 212.496 41.5213 212.524 41.484C212.561 41.456 212.603 41.442 212.65 41.442H212.664C213.046 41.4327 213.345 41.3907 213.56 41.316C213.774 41.2507 213.952 41.12 214.092 40.924C214.232 40.728 214.358 40.434 214.47 40.042C214.479 40.0233 214.479 39.9953 214.47 39.958L212.16 33.028C212.15 33.0093 212.146 32.986 212.146 32.958C212.146 32.874 212.192 32.832 212.286 32.832H213.658C213.76 32.832 213.826 32.8787 213.854 32.972L215.254 37.9C215.263 37.928 215.277 37.942 215.296 37.942C215.314 37.942 215.328 37.928 215.338 37.9L216.738 32.972C216.766 32.8787 216.831 32.832 216.934 32.832H218.264C218.32 32.832 218.357 32.8507 218.376 32.888C218.404 32.916 218.408 32.9627 218.39 33.028L215.926 40.392C215.692 41.0547 215.464 41.5493 215.24 41.876C215.016 42.2027 214.708 42.436 214.316 42.576C213.933 42.716 213.387 42.786 212.678 42.786H212.58ZM219.008 41.274C218.896 41.274 218.845 41.2133 218.854 41.092L219.372 37.956C219.382 37.8533 219.442 37.802 219.554 37.802H220.674C220.796 37.802 220.842 37.8627 220.814 37.984L219.988 41.134C219.96 41.2273 219.895 41.274 219.792 41.274H219.008ZM228.848 40.112C228.12 40.112 227.485 39.9953 226.944 39.762C226.403 39.5287 225.983 39.202 225.684 38.782C225.395 38.362 225.25 37.8673 225.25 37.298V36.948C225.25 36.9013 225.264 36.864 225.292 36.836C225.329 36.7987 225.371 36.78 225.418 36.78H226.664C226.711 36.78 226.748 36.7987 226.776 36.836C226.813 36.864 226.832 36.9013 226.832 36.948V37.214C226.832 37.6433 227.023 38.0027 227.406 38.292C227.789 38.572 228.311 38.712 228.974 38.712C229.543 38.712 229.973 38.5907 230.262 38.348C230.551 38.1053 230.696 37.7927 230.696 37.41C230.696 37.1487 230.617 36.9293 230.458 36.752C230.299 36.5653 230.071 36.3973 229.772 36.248C229.483 36.0987 229.044 35.912 228.456 35.688C227.793 35.4453 227.257 35.2167 226.846 35.002C226.435 34.7873 226.09 34.498 225.81 34.134C225.539 33.7607 225.404 33.2987 225.404 32.748C225.404 31.9267 225.703 31.278 226.3 30.802C226.897 30.326 227.695 30.088 228.694 30.088C229.394 30.088 230.01 30.2093 230.542 30.452C231.083 30.6947 231.503 31.0353 231.802 31.474C232.101 31.9033 232.25 32.4027 232.25 32.972V33.21C232.25 33.2567 232.231 33.2987 232.194 33.336C232.166 33.364 232.129 33.378 232.082 33.378H230.822C230.775 33.378 230.733 33.364 230.696 33.336C230.668 33.2987 230.654 33.2567 230.654 33.21V33.056C230.654 32.6173 230.472 32.2487 230.108 31.95C229.753 31.642 229.259 31.488 228.624 31.488C228.111 31.488 227.709 31.5953 227.42 31.81C227.14 32.0247 227 32.328 227 32.72C227 33 227.075 33.2287 227.224 33.406C227.373 33.5833 227.597 33.7467 227.896 33.896C228.195 34.036 228.657 34.218 229.282 34.442C229.945 34.694 230.472 34.9227 230.864 35.128C231.265 35.3333 231.606 35.6227 231.886 35.996C232.175 36.36 232.32 36.8173 232.32 37.368C232.32 38.208 232.007 38.8753 231.382 39.37C230.766 39.8647 229.921 40.112 228.848 40.112ZM234.726 31.866C234.436 31.866 234.198 31.7727 234.012 31.586C233.825 31.3993 233.732 31.1613 233.732 30.872C233.732 30.5827 233.825 30.3447 234.012 30.158C234.198 29.9713 234.436 29.878 234.726 29.878C235.015 29.878 235.253 29.9713 235.44 30.158C235.626 30.3447 235.72 30.5827 235.72 30.872C235.72 31.1613 235.626 31.3993 235.44 31.586C235.253 31.7727 235.015 31.866 234.726 31.866ZM234.054 40C234.007 40 233.965 39.986 233.928 39.958C233.9 39.9207 233.886 39.8787 233.886 39.832V33C233.886 32.9533 233.9 32.916 233.928 32.888C233.965 32.8507 234.007 32.832 234.054 32.832H235.342C235.388 32.832 235.426 32.8507 235.454 32.888C235.491 32.916 235.51 32.9533 235.51 33V39.832C235.51 39.8787 235.491 39.9207 235.454 39.958C235.426 39.986 235.388 40 235.342 40H234.054ZM237.538 40C237.491 40 237.449 39.986 237.412 39.958C237.384 39.9207 237.37 39.8787 237.37 39.832V30.368C237.37 30.3213 237.384 30.284 237.412 30.256C237.449 30.2187 237.491 30.2 237.538 30.2H238.826C238.873 30.2 238.91 30.2187 238.938 30.256C238.975 30.284 238.994 30.3213 238.994 30.368V39.832C238.994 39.8787 238.975 39.9207 238.938 39.958C238.91 39.986 238.873 40 238.826 40H237.538ZM240.915 40C240.868 40 240.826 39.986 240.789 39.958C240.761 39.9207 240.747 39.8787 240.747 39.832V30.368C240.747 30.3213 240.761 30.284 240.789 30.256C240.826 30.2187 240.868 30.2 240.915 30.2H242.203C242.25 30.2 242.287 30.2187 242.315 30.256C242.352 30.284 242.371 30.3213 242.371 30.368V35.422C242.371 35.45 242.38 35.4687 242.399 35.478C242.418 35.4873 242.436 35.478 242.455 35.45L244.723 32.944C244.788 32.8787 244.858 32.846 244.933 32.846H246.417C246.51 32.846 246.557 32.8787 246.557 32.944C246.557 32.972 246.543 33.0093 246.515 33.056L244.737 35.184C244.709 35.212 244.704 35.2447 244.723 35.282L246.823 39.804C246.842 39.8413 246.851 39.8693 246.851 39.888C246.851 39.9627 246.8 40 246.697 40H245.339C245.246 40 245.18 39.958 245.143 39.874L243.617 36.318C243.608 36.2993 243.589 36.29 243.561 36.29C243.542 36.2807 243.528 36.2853 243.519 36.304L242.399 37.592C242.38 37.6293 242.371 37.662 242.371 37.69V39.832C242.371 39.8787 242.352 39.9207 242.315 39.958C242.287 39.986 242.25 40 242.203 40H240.915ZM249.755 40C249.653 40 249.587 39.9533 249.559 39.86L247.557 33.028L247.543 32.972C247.543 32.8787 247.595 32.832 247.697 32.832H249.027C249.13 32.832 249.195 32.8787 249.223 32.972L250.385 37.648C250.395 37.676 250.409 37.69 250.427 37.69C250.446 37.69 250.46 37.676 250.469 37.648L251.687 32.972C251.715 32.8787 251.781 32.832 251.883 32.832H253.045C253.148 32.832 253.213 32.8787 253.241 32.972L254.487 37.648C254.497 37.676 254.511 37.69 254.529 37.69C254.548 37.69 254.562 37.676 254.571 37.648L255.817 32.972C255.845 32.8787 255.911 32.832 256.013 32.832L257.329 32.86C257.385 32.86 257.423 32.8787 257.441 32.916C257.469 32.944 257.479 32.986 257.469 33.042L255.453 39.86C255.425 39.9533 255.365 40 255.271 40H253.927C253.825 40 253.759 39.9533 253.731 39.86L252.499 35.59C252.49 35.562 252.476 35.548 252.457 35.548C252.439 35.548 252.425 35.562 252.415 35.59L251.281 39.86C251.253 39.9533 251.188 40 251.085 40H249.755ZM261.367 40.112C260.63 40.112 259.995 39.9253 259.463 39.552C258.94 39.1787 258.572 38.6607 258.357 37.998C258.198 37.494 258.119 36.962 258.119 36.402C258.119 35.8047 258.194 35.2727 258.343 34.806C258.558 34.1527 258.931 33.644 259.463 33.28C259.995 32.916 260.634 32.734 261.381 32.734C262.09 32.734 262.702 32.916 263.215 33.28C263.738 33.644 264.106 34.148 264.321 34.792C264.489 35.24 264.573 35.772 264.573 36.388C264.573 36.976 264.494 37.508 264.335 37.984C264.12 38.6467 263.752 39.1693 263.229 39.552C262.706 39.9253 262.086 40.112 261.367 40.112ZM261.367 38.712C261.712 38.712 262.006 38.614 262.249 38.418C262.501 38.222 262.683 37.9467 262.795 37.592C262.888 37.284 262.935 36.892 262.935 36.416C262.935 35.912 262.888 35.52 262.795 35.24C262.692 34.8853 262.515 34.6147 262.263 34.428C262.011 34.232 261.703 34.134 261.339 34.134C260.994 34.134 260.695 34.232 260.443 34.428C260.191 34.6147 260.009 34.8853 259.897 35.24C259.804 35.5667 259.757 35.9587 259.757 36.416C259.757 36.8733 259.804 37.2653 259.897 37.592C260 37.9467 260.177 38.222 260.429 38.418C260.69 38.614 261.003 38.712 261.367 38.712ZM269.146 40.112C268.409 40.112 267.774 39.9253 267.242 39.552C266.72 39.1787 266.351 38.6607 266.136 37.998C265.978 37.494 265.898 36.962 265.898 36.402C265.898 35.8047 265.973 35.2727 266.122 34.806C266.337 34.1527 266.71 33.644 267.242 33.28C267.774 32.916 268.414 32.734 269.16 32.734C269.87 32.734 270.481 32.916 270.994 33.28C271.517 33.644 271.886 34.148 272.1 34.792C272.268 35.24 272.352 35.772 272.352 36.388C272.352 36.976 272.273 37.508 272.114 37.984C271.9 38.6467 271.531 39.1693 271.008 39.552C270.486 39.9253 269.865 40.112 269.146 40.112ZM269.146 38.712C269.492 38.712 269.786 38.614 270.028 38.418C270.28 38.222 270.462 37.9467 270.574 37.592C270.668 37.284 270.714 36.892 270.714 36.416C270.714 35.912 270.668 35.52 270.574 35.24C270.472 34.8853 270.294 34.6147 270.042 34.428C269.79 34.232 269.482 34.134 269.118 34.134C268.773 34.134 268.474 34.232 268.222 34.428C267.97 34.6147 267.788 34.8853 267.676 35.24C267.583 35.5667 267.536 35.9587 267.536 36.416C267.536 36.8733 267.583 37.2653 267.676 37.592C267.779 37.9467 267.956 38.222 268.208 38.418C268.47 38.614 268.782 38.712 269.146 38.712ZM278.326 30.368C278.326 30.3213 278.34 30.284 278.368 30.256C278.405 30.2187 278.447 30.2 278.494 30.2H279.782C279.828 30.2 279.866 30.2187 279.894 30.256C279.931 30.284 279.95 30.3213 279.95 30.368V39.832C279.95 39.8787 279.931 39.9207 279.894 39.958C279.866 39.986 279.828 40 279.782 40H278.494C278.447 40 278.405 39.986 278.368 39.958C278.34 39.9207 278.326 39.8787 278.326 39.832V39.412C278.326 39.384 278.316 39.3653 278.298 39.356C278.279 39.3467 278.26 39.356 278.242 39.384C277.831 39.8693 277.294 40.112 276.632 40.112C275.969 40.112 275.409 39.9393 274.952 39.594C274.494 39.2487 274.163 38.768 273.958 38.152C273.79 37.6293 273.706 37.046 273.706 36.402C273.706 35.7393 273.785 35.17 273.944 34.694C274.149 34.078 274.48 33.5973 274.938 33.252C275.395 32.9067 275.969 32.734 276.66 32.734C277.304 32.734 277.831 32.9673 278.242 33.434C278.26 33.4527 278.279 33.462 278.298 33.462C278.316 33.4527 278.326 33.434 278.326 33.406V30.368ZM277.99 38.04C278.204 37.6573 278.312 37.116 278.312 36.416C278.312 35.688 278.195 35.1327 277.962 34.75C277.71 34.3393 277.355 34.134 276.898 34.134C276.422 34.134 276.048 34.33 275.778 34.722C275.498 35.1327 275.358 35.702 275.358 36.43C275.358 37.0833 275.47 37.62 275.694 38.04C275.955 38.488 276.352 38.712 276.884 38.712C277.36 38.712 277.728 38.488 277.99 38.04Z" fill="#3683BC"/>
<path d="M76.356 98.368C76.356 98.3213 76.37 98.284 76.398 98.256C76.4353 98.2187 76.4773 98.2 76.524 98.2H77.812C77.8587 98.2 77.896 98.2187 77.924 98.256C77.9613 98.284 77.98 98.3213 77.98 98.368V107.832C77.98 107.879 77.9613 107.921 77.924 107.958C77.896 107.986 77.8587 108 77.812 108H76.524C76.4773 108 76.4353 107.986 76.398 107.958C76.37 107.921 76.356 107.879 76.356 107.832V103.828C76.356 103.781 76.3327 103.758 76.286 103.758H72.716C72.6693 103.758 72.646 103.781 72.646 103.828V107.832C72.646 107.879 72.6273 107.921 72.59 107.958C72.562 107.986 72.5247 108 72.478 108H71.19C71.1433 108 71.1013 107.986 71.064 107.958C71.036 107.921 71.022 107.879 71.022 107.832V98.368C71.022 98.3213 71.036 98.284 71.064 98.256C71.1013 98.2187 71.1433 98.2 71.19 98.2H72.478C72.5247 98.2 72.562 98.2187 72.59 98.256C72.6273 98.284 72.646 98.3213 72.646 98.368V102.288C72.646 102.335 72.6693 102.358 72.716 102.358H76.286C76.3327 102.358 76.356 102.335 76.356 102.288V98.368ZM82.8201 108.112C82.0827 108.112 81.4481 107.925 80.9161 107.552C80.3934 107.179 80.0247 106.661 79.8101 105.998C79.6514 105.494 79.5721 104.962 79.5721 104.402C79.5721 103.805 79.6467 103.273 79.7961 102.806C80.0107 102.153 80.3841 101.644 80.9161 101.28C81.4481 100.916 82.0874 100.734 82.8341 100.734C83.5434 100.734 84.1547 100.916 84.6681 101.28C85.1907 101.644 85.5594 102.148 85.7741 102.792C85.9421 103.24 86.0261 103.772 86.0261 104.388C86.0261 104.976 85.9467 105.508 85.7881 105.984C85.5734 106.647 85.2047 107.169 84.6821 107.552C84.1594 107.925 83.5387 108.112 82.8201 108.112ZM82.8201 106.712C83.1654 106.712 83.4594 106.614 83.7021 106.418C83.9541 106.222 84.1361 105.947 84.2481 105.592C84.3414 105.284 84.3881 104.892 84.3881 104.416C84.3881 103.912 84.3414 103.52 84.2481 103.24C84.1454 102.885 83.9681 102.615 83.7161 102.428C83.4641 102.232 83.1561 102.134 82.7921 102.134C82.4467 102.134 82.1481 102.232 81.8961 102.428C81.6441 102.615 81.4621 102.885 81.3501 103.24C81.2567 103.567 81.2101 103.959 81.2101 104.416C81.2101 104.873 81.2567 105.265 81.3501 105.592C81.4527 105.947 81.6301 106.222 81.8821 106.418C82.1434 106.614 82.4561 106.712 82.8201 106.712ZM91.205 101.994C91.205 102.041 91.1863 102.083 91.149 102.12C91.121 102.148 91.0836 102.162 91.037 102.162H89.609C89.5623 102.162 89.539 102.185 89.539 102.232V105.606C89.539 105.961 89.6136 106.217 89.763 106.376C89.9216 106.535 90.169 106.614 90.505 106.614H90.925C90.9716 106.614 91.009 106.633 91.037 106.67C91.0743 106.698 91.093 106.735 91.093 106.782V107.832C91.093 107.935 91.037 107.995 90.925 108.014L90.197 108.028C89.4596 108.028 88.909 107.902 88.545 107.65C88.181 107.398 87.9943 106.922 87.985 106.222V102.232C87.985 102.185 87.9616 102.162 87.915 102.162H87.117C87.0703 102.162 87.0283 102.148 86.991 102.12C86.963 102.083 86.949 102.041 86.949 101.994V101.014C86.949 100.967 86.963 100.93 86.991 100.902C87.0283 100.865 87.0703 100.846 87.117 100.846H87.915C87.9616 100.846 87.985 100.823 87.985 100.776V99.138C87.985 99.0913 87.999 99.054 88.027 99.026C88.0643 98.9887 88.1063 98.97 88.153 98.97H89.371C89.4176 98.97 89.455 98.9887 89.483 99.026C89.5203 99.054 89.539 99.0913 89.539 99.138V100.776C89.539 100.823 89.5623 100.846 89.609 100.846H91.037C91.0836 100.846 91.121 100.865 91.149 100.902C91.1863 100.93 91.205 100.967 91.205 101.014V101.994ZM99.888 98.368C99.888 98.3213 99.902 98.284 99.93 98.256C99.9674 98.2187 100.009 98.2 100.056 98.2H101.344C101.391 98.2 101.428 98.2187 101.456 98.256C101.493 98.284 101.512 98.3213 101.512 98.368V107.832C101.512 107.879 101.493 107.921 101.456 107.958C101.428 107.986 101.391 108 101.344 108H100.056C100.009 108 99.9674 107.986 99.93 107.958C99.902 107.921 99.888 107.879 99.888 107.832V107.412C99.888 107.384 99.8787 107.365 99.86 107.356C99.8414 107.347 99.8227 107.356 99.804 107.384C99.3934 107.869 98.8567 108.112 98.194 108.112C97.5314 108.112 96.9714 107.939 96.514 107.594C96.0567 107.249 95.7254 106.768 95.52 106.152C95.352 105.629 95.268 105.046 95.268 104.402C95.268 103.739 95.3474 103.17 95.506 102.694C95.7114 102.078 96.0427 101.597 96.5 101.252C96.9574 100.907 97.5314 100.734 98.222 100.734C98.866 100.734 99.3934 100.967 99.804 101.434C99.8227 101.453 99.8414 101.462 99.86 101.462C99.8787 101.453 99.888 101.434 99.888 101.406V98.368ZM99.552 106.04C99.7667 105.657 99.874 105.116 99.874 104.416C99.874 103.688 99.7574 103.133 99.524 102.75C99.272 102.339 98.9174 102.134 98.46 102.134C97.984 102.134 97.6107 102.33 97.34 102.722C97.06 103.133 96.92 103.702 96.92 104.43C96.92 105.083 97.032 105.62 97.256 106.04C97.5174 106.488 97.914 106.712 98.446 106.712C98.922 106.712 99.2907 106.488 99.552 106.04ZM109.304 103.618C109.342 103.851 109.36 104.113 109.36 104.402L109.346 104.836C109.346 104.948 109.29 105.004 109.178 105.004H104.796C104.75 105.004 104.726 105.027 104.726 105.074C104.754 105.382 104.796 105.592 104.852 105.704C105.076 106.376 105.622 106.717 106.49 106.726C107.125 106.726 107.629 106.465 108.002 105.942C108.04 105.886 108.086 105.858 108.142 105.858C108.18 105.858 108.212 105.872 108.24 105.9L109.108 106.614C109.192 106.679 109.206 106.754 109.15 106.838C108.861 107.249 108.474 107.566 107.988 107.79C107.512 108.014 106.98 108.126 106.392 108.126C105.664 108.126 105.044 107.963 104.53 107.636C104.026 107.309 103.658 106.852 103.424 106.264C103.21 105.76 103.102 105.06 103.102 104.164C103.102 103.623 103.158 103.184 103.27 102.848C103.457 102.195 103.807 101.681 104.32 101.308C104.843 100.925 105.468 100.734 106.196 100.734C108.035 100.734 109.071 101.695 109.304 103.618ZM106.196 102.134C105.851 102.134 105.562 102.223 105.328 102.4C105.104 102.568 104.946 102.806 104.852 103.114C104.796 103.273 104.759 103.478 104.74 103.73C104.722 103.777 104.74 103.8 104.796 103.8H107.638C107.685 103.8 107.708 103.777 107.708 103.73C107.69 103.497 107.662 103.319 107.624 103.198C107.54 102.862 107.372 102.601 107.12 102.414C106.878 102.227 106.57 102.134 106.196 102.134ZM113.506 100.734C114.094 100.734 114.612 100.837 115.06 101.042C115.508 101.247 115.854 101.532 116.096 101.896C116.339 102.251 116.46 102.657 116.46 103.114V107.832C116.46 107.879 116.442 107.921 116.404 107.958C116.376 107.986 116.339 108 116.292 108H115.004C114.958 108 114.916 107.986 114.878 107.958C114.85 107.921 114.836 107.879 114.836 107.832V107.384C114.836 107.356 114.827 107.342 114.808 107.342C114.79 107.333 114.771 107.337 114.752 107.356C114.295 107.86 113.632 108.112 112.764 108.112C112.064 108.112 111.486 107.935 111.028 107.58C110.58 107.225 110.356 106.698 110.356 105.998C110.356 105.27 110.608 104.705 111.112 104.304C111.626 103.893 112.344 103.688 113.268 103.688H114.766C114.813 103.688 114.836 103.665 114.836 103.618V103.282C114.836 102.918 114.729 102.638 114.514 102.442C114.3 102.237 113.978 102.134 113.548 102.134C113.194 102.134 112.904 102.199 112.68 102.33C112.466 102.451 112.33 102.624 112.274 102.848C112.246 102.96 112.181 103.007 112.078 102.988L110.72 102.82C110.674 102.811 110.632 102.797 110.594 102.778C110.566 102.75 110.557 102.717 110.566 102.68C110.641 102.111 110.944 101.644 111.476 101.28C112.018 100.916 112.694 100.734 113.506 100.734ZM113.17 106.824C113.628 106.824 114.02 106.703 114.346 106.46C114.673 106.217 114.836 105.909 114.836 105.536V104.878C114.836 104.831 114.813 104.808 114.766 104.808H113.59C113.096 104.808 112.704 104.901 112.414 105.088C112.134 105.275 111.994 105.541 111.994 105.886C111.994 106.185 112.102 106.418 112.316 106.586C112.54 106.745 112.825 106.824 113.17 106.824ZM118.259 108C118.212 108 118.17 107.986 118.133 107.958C118.105 107.921 118.091 107.879 118.091 107.832V98.368C118.091 98.3213 118.105 98.284 118.133 98.256C118.17 98.2187 118.212 98.2 118.259 98.2H119.547C119.593 98.2 119.631 98.2187 119.659 98.256C119.696 98.284 119.715 98.3213 119.715 98.368V107.832C119.715 107.879 119.696 107.921 119.659 107.958C119.631 107.986 119.593 108 119.547 108H118.259Z" fill="#C3C3C3"/>
<rect x="34" y="91" width="25" height="25" rx="12.5" fill="#C3C3C3"/>
<path d="M42.0879 100.297H44.2505C44.2505 99.0174 45.0009 98.0294 46.4787 98.0294C47.601 98.0294 48.6298 98.5914 48.6298 99.943C48.6298 100.983 48.0171 101.462 47.0488 102.189C45.9462 102.99 45.073 103.926 45.1352 105.445L45.1467 106.203H47.288V105.622C47.288 104.445 47.7353 104.103 48.9428 103.187C49.9405 102.428 50.9809 101.586 50.9809 99.8185C50.9809 97.343 48.8903 96.147 46.6016 96.147C44.4291 96.147 42.0371 97.207 42.0895 100.297H42.0879ZM44.647 109.334C44.647 110.207 45.3433 110.853 46.3017 110.853C47.2995 110.853 47.986 110.207 47.986 109.334C47.986 108.43 47.2979 107.794 46.3001 107.794C45.3433 107.794 44.647 108.43 44.647 109.334Z" fill="white"/>
<circle cx="46.5" cy="103.5" r="12.5" fill="#36BC74"/>
<path d="M41.5748 108.5H43.0438V99.3999H41.7698V104.847L40.3008 99.3999H38.5068V108.5H39.7938V101.909L41.5748 108.5Z" fill="white"/>
<path d="M45.4977 100.7H47.9677V99.3999H44.0677V108.5H47.9677V107.2H45.4977V104.535H47.4607V103.235H45.4977V100.7Z" fill="white"/>
<path d="M52.5458 108.5H54.4438L55.4578 99.3999H54.2098L53.4688 106.628L52.7538 99.3999H51.3758L50.6868 106.576L49.9198 99.3999H48.5288L49.5428 108.5H51.5058L52.0258 103.651L52.5458 108.5Z" fill="white"/>
<circle cx="46.5" cy="103.5" r="12.5" fill="#7E3602"/>
<path fill-rule="evenodd" clip-rule="evenodd" d="M50.4338 108.75C51.4835 108.75 52.2857 107.842 52.2857 106.786V100.893H41.2857V106.786C41.2857 107.842 42.0879 108.75 43.1376 108.75H50.4338ZM45.2143 102.464C45.1101 102.464 45.0102 102.506 44.9365 102.579C44.8628 102.653 44.8214 102.753 44.8214 102.857C44.8214 102.961 44.8628 103.061 44.9365 103.135C45.0102 103.209 45.1101 103.25 45.2143 103.25H48.3571C48.4613 103.25 48.5613 103.209 48.6349 103.135C48.7086 103.061 48.75 102.961 48.75 102.857C48.75 102.753 48.7086 102.653 48.6349 102.579C48.5613 102.506 48.4613 102.464 48.3571 102.464H45.2143ZM41.1286 97.75C40.9619 97.75 40.802 97.8162 40.6841 97.9341C40.5662 98.052 40.5 98.2119 40.5 98.3786V99.3214C40.5 99.4881 40.5662 99.648 40.6841 99.7659C40.802 99.8838 40.9619 99.95 41.1286 99.95H52.4429C52.6096 99.95 52.7694 99.8838 52.8873 99.7659C53.0052 99.648 53.0714 99.4881 53.0714 99.3214V98.3786C53.0714 98.2119 53.0052 98.052 52.8873 97.9341C52.7694 97.8162 52.6096 97.75 52.4429 97.75H41.1286Z" fill="white"/>
<circle cx="46.5" cy="103.5" r="12.5" fill="#C3C3C3"/>
<path d="M52.6281 103.459C52.7547 102.86 52.6515 102.281 52.3847 101.793C52.4648 101.162 52.2758 100.509 51.915 100.021C51.8892 98.5427 50.9448 97.5 48.8562 97.5C48.6667 97.5 48.45 97.5003 48.2545 97.5003C45.449 97.5003 44.577 98.5579 43.4667 98.5579H43.1729C43.0202 98.4264 42.8197 98.3464 42.6 98.3464H40.8667C40.388 98.3464 40 98.7253 40 99.1927V105.54C40 106.008 40.388 106.387 40.8667 106.387H42.6C42.9207 106.387 43.2006 106.216 43.3504 105.964H43.5414C44.06 106.412 44.7876 107.568 45.4037 108.169C45.7738 108.531 45.6786 111.042 47.3472 111.042C48.9066 111.042 49.9274 110.197 49.9274 108.272C49.9274 107.785 49.821 107.38 49.6877 107.041H50.6757C51.992 107.041 53 105.941 53 104.777C53 104.271 52.8657 103.852 52.6281 103.459ZM41.7333 105.329C41.3743 105.329 41.0833 105.045 41.0833 104.694C41.0833 104.343 41.3743 104.059 41.7333 104.059C42.0923 104.059 42.3833 104.343 42.3833 104.694C42.3833 105.045 42.0923 105.329 41.7333 105.329ZM50.6757 105.771H47.8593C47.8593 106.772 48.6274 107.236 48.6274 108.272C48.6274 108.9 48.6274 109.772 47.3472 109.772C46.835 109.272 47.091 108.022 46.3229 107.272C45.6035 106.569 44.5305 104.694 43.7624 104.694H43.4667V99.7701C44.9186 99.7701 46.175 98.7698 48.1153 98.7698H49.1395C50.1013 98.7698 50.7867 99.2226 50.5782 100.513C50.9899 100.729 51.2959 101.477 50.9557 102.035C51.5402 102.575 51.4622 103.386 51.0969 103.771C51.3528 103.771 51.7024 104.271 51.7 104.771C51.6976 105.271 51.2474 105.771 50.6757 105.771Z" fill="white"/>
<circle cx="46.5" cy="103.5" r="12.5" fill="#F7775B"/>
<path d="M43.9906 111.694C42.0792 105.396 46.1178 103.096 46.1178 103.096C45.8353 106.457 47.7451 109.075 47.7451 109.075C48.4475 108.863 49.7883 107.873 49.7883 107.873C49.7883 109.075 49.0808 111.693 49.0808 111.693C49.0808 111.693 51.5573 109.778 52.3369 106.597C53.1155 103.417 50.8539 100.224 50.8539 100.224C50.9902 102.475 50.2286 104.689 48.7366 106.38C48.8113 106.294 48.8739 106.199 48.922 106.095C49.19 105.559 49.6204 104.165 49.3684 100.939C49.0137 96.4099 44.9099 94.5 44.9099 94.5C45.2636 97.2596 44.203 97.8953 41.7185 103.133C39.234 108.37 43.9906 111.694 43.9906 111.694Z" fill="white"/>
<path d="M45.1 28C43.061 28 40 28.927 40 32.636C40 34.491 44.08 40.981 45.1 42.836C46.12 40.981 50.2 34.491 50.2 32.636C50.2 28.927 47.141 28 45.1 28ZM45.1 34.259C44.779 34.259 44.4652 34.1638 44.1983 33.9855C43.9314 33.8071 43.7234 33.5537 43.6006 33.2571C43.4777 32.9605 43.4456 32.6342 43.5082 32.3194C43.5708 32.0045 43.7254 31.7154 43.9524 31.4884C44.1793 31.2614 44.4685 31.1068 44.7834 31.0442C45.0982 30.9816 45.4245 31.0137 45.7211 31.1366C46.0177 31.2594 46.2711 31.4674 46.4495 31.7343C46.6278 32.0012 46.723 32.315 46.723 32.636C46.7231 32.8492 46.6812 33.0603 46.5997 33.2572C46.5182 33.4542 46.3987 33.6332 46.2479 33.7839C46.0972 33.9347 45.9182 34.0542 45.7213 34.1357C45.5243 34.2172 45.3132 34.2591 45.1 34.259Z" fill="#3683BC"/>
<path d="M40.77 79.144C39.894 79.144 39.126 78.982 38.466 78.658C37.806 78.322 37.296 77.854 36.936 77.254C36.576 76.654 36.396 75.958 36.396 75.166V73.96C36.396 73.9 36.414 73.852 36.45 73.816C36.498 73.768 36.552 73.744 36.612 73.744H38.268C38.328 73.744 38.376 73.768 38.412 73.816C38.46 73.852 38.484 73.9 38.484 73.96V75.166C38.484 75.814 38.688 76.342 39.096 76.75C39.516 77.146 40.074 77.344 40.77 77.344C41.442 77.344 41.994 77.146 42.426 76.75C42.858 76.342 43.074 75.814 43.074 75.166V66.616C43.074 66.556 43.092 66.508 43.128 66.472C43.176 66.424 43.23 66.4 43.29 66.4H44.928C44.988 66.4 45.036 66.424 45.072 66.472C45.12 66.508 45.144 66.556 45.144 66.616V75.166C45.144 75.958 44.958 76.654 44.586 77.254C44.226 77.854 43.71 78.322 43.038 78.658C42.378 78.982 41.622 79.144 40.77 79.144ZM51.481 79.144C50.533 79.144 49.717 78.904 49.033 78.424C48.361 77.944 47.887 77.278 47.611 76.426C47.407 75.778 47.305 75.094 47.305 74.374C47.305 73.606 47.401 72.922 47.593 72.322C47.869 71.482 48.349 70.828 49.033 70.36C49.717 69.892 50.539 69.658 51.499 69.658C52.411 69.658 53.197 69.892 53.857 70.36C54.529 70.828 55.003 71.476 55.279 72.304C55.495 72.88 55.603 73.564 55.603 74.356C55.603 75.112 55.501 75.796 55.297 76.408C55.021 77.26 54.547 77.932 53.875 78.424C53.203 78.904 52.405 79.144 51.481 79.144ZM51.481 77.344C51.925 77.344 52.303 77.218 52.615 76.966C52.939 76.714 53.173 76.36 53.317 75.904C53.437 75.508 53.497 75.004 53.497 74.392C53.497 73.744 53.437 73.24 53.317 72.88C53.185 72.424 52.957 72.076 52.633 71.836C52.309 71.584 51.913 71.458 51.445 71.458C51.001 71.458 50.617 71.584 50.293 71.836C49.969 72.076 49.735 72.424 49.591 72.88C49.471 73.3 49.411 73.804 49.411 74.392C49.411 74.98 49.471 75.484 49.591 75.904C49.723 76.36 49.951 76.714 50.275 76.966C50.611 77.218 51.013 77.344 51.481 77.344ZM61.9869 69.658C62.9589 69.658 63.7329 69.946 64.3089 70.522C64.8969 71.098 65.1909 71.884 65.1909 72.88V78.784C65.1909 78.844 65.1669 78.898 65.1189 78.946C65.0829 78.982 65.0349 79 64.9749 79H63.3189C63.2589 79 63.2049 78.982 63.1569 78.946C63.1209 78.898 63.1029 78.844 63.1029 78.784V73.312C63.1029 72.76 62.9469 72.316 62.6349 71.98C62.3229 71.632 61.9089 71.458 61.3929 71.458C60.8769 71.458 60.4569 71.626 60.1329 71.962C59.8209 72.298 59.6649 72.742 59.6649 73.294V78.784C59.6649 78.844 59.6409 78.898 59.5929 78.946C59.5569 78.982 59.5089 79 59.4489 79H57.7929C57.7329 79 57.6789 78.982 57.6309 78.946C57.5949 78.898 57.5769 78.844 57.5769 78.784V66.616C57.5769 66.556 57.5949 66.508 57.6309 66.472C57.6789 66.424 57.7329 66.4 57.7929 66.4H59.4489C59.5089 66.4 59.5569 66.424 59.5929 66.472C59.6409 66.508 59.6649 66.556 59.6649 66.616V70.594C59.6649 70.63 59.6769 70.654 59.7009 70.666C59.7249 70.678 59.7429 70.666 59.7549 70.63C60.2469 69.982 60.9909 69.658 61.9869 69.658ZM71.778 69.658C72.75 69.658 73.524 69.946 74.1 70.522C74.688 71.098 74.982 71.884 74.982 72.88V78.784C74.982 78.844 74.958 78.898 74.91 78.946C74.874 78.982 74.826 79 74.766 79H73.11C73.05 79 72.996 78.982 72.948 78.946C72.912 78.898 72.894 78.844 72.894 78.784V73.312C72.894 72.76 72.738 72.316 72.426 71.98C72.114 71.632 71.7 71.458 71.184 71.458C70.668 71.458 70.248 71.626 69.924 71.962C69.612 72.298 69.456 72.742 69.456 73.294V78.784C69.456 78.844 69.432 78.898 69.384 78.946C69.348 78.982 69.3 79 69.24 79H67.584C67.524 79 67.47 78.982 67.422 78.946C67.386 78.898 67.368 78.844 67.368 78.784V70.018C67.368 69.958 67.386 69.91 67.422 69.874C67.47 69.826 67.524 69.802 67.584 69.802H69.24C69.3 69.802 69.348 69.826 69.384 69.874C69.432 69.91 69.456 69.958 69.456 70.018V70.594C69.456 70.63 69.468 70.654 69.492 70.666C69.516 70.678 69.534 70.666 69.546 70.63C70.038 69.982 70.782 69.658 71.778 69.658ZM83.6425 79C83.5105 79 83.4265 78.94 83.3905 78.82L80.1145 66.634L80.0965 66.562C80.0965 66.454 80.1625 66.4 80.2945 66.4H82.0585C82.1905 66.4 82.2745 66.46 82.3105 66.58L84.3625 74.788C84.3745 74.824 84.3925 74.842 84.4165 74.842C84.4405 74.842 84.4585 74.824 84.4705 74.788L86.4325 66.58C86.4685 66.46 86.5465 66.4 86.6665 66.4H88.3945C88.5265 66.4 88.6105 66.46 88.6465 66.58L90.7345 74.806C90.7465 74.842 90.7645 74.86 90.7885 74.86C90.8125 74.86 90.8305 74.842 90.8425 74.806L92.8585 66.58C92.8945 66.46 92.9785 66.4 93.1105 66.4H94.7845C94.9525 66.4 95.0185 66.478 94.9825 66.634L91.8685 78.82C91.8325 78.94 91.7485 79 91.6165 79H89.9425C89.8105 79 89.7265 78.94 89.6905 78.82L87.5845 70.234C87.5725 70.198 87.5545 70.18 87.5305 70.18C87.5065 70.168 87.4885 70.186 87.4765 70.234L85.4605 78.82C85.4245 78.94 85.3465 79 85.2265 79H83.6425ZM99.0733 69.658C99.8293 69.658 100.495 69.79 101.071 70.054C101.647 70.318 102.091 70.684 102.403 71.152C102.715 71.608 102.871 72.13 102.871 72.718V78.784C102.871 78.844 102.847 78.898 102.799 78.946C102.763 78.982 102.715 79 102.655 79H100.999C100.939 79 100.885 78.982 100.837 78.946C100.801 78.898 100.783 78.844 100.783 78.784V78.208C100.783 78.172 100.771 78.154 100.747 78.154C100.723 78.142 100.699 78.148 100.675 78.172C100.087 78.82 99.2353 79.144 98.1193 79.144C97.2193 79.144 96.4753 78.916 95.8873 78.46C95.3113 78.004 95.0233 77.326 95.0233 76.426C95.0233 75.49 95.3473 74.764 95.9953 74.248C96.6553 73.72 97.5793 73.456 98.7673 73.456H100.693C100.753 73.456 100.783 73.426 100.783 73.366V72.934C100.783 72.466 100.645 72.106 100.369 71.854C100.093 71.59 99.6793 71.458 99.1273 71.458C98.6713 71.458 98.2993 71.542 98.0113 71.71C97.7353 71.866 97.5613 72.088 97.4893 72.376C97.4533 72.52 97.3693 72.58 97.2373 72.556L95.4913 72.34C95.4313 72.328 95.3773 72.31 95.3293 72.286C95.2933 72.25 95.2813 72.208 95.2933 72.16C95.3893 71.428 95.7793 70.828 96.4633 70.36C97.1593 69.892 98.0293 69.658 99.0733 69.658ZM98.6413 77.488C99.2293 77.488 99.7333 77.332 100.153 77.02C100.573 76.708 100.783 76.312 100.783 75.832V74.986C100.783 74.926 100.753 74.896 100.693 74.896H99.1813C98.5453 74.896 98.0413 75.016 97.6693 75.256C97.3093 75.496 97.1293 75.838 97.1293 76.282C97.1293 76.666 97.2673 76.966 97.5433 77.182C97.8313 77.386 98.1973 77.488 98.6413 77.488ZM108.802 79.144C107.878 79.144 107.08 78.91 106.408 78.442C105.736 77.962 105.268 77.32 105.004 76.516C104.812 75.976 104.716 75.256 104.716 74.356C104.716 73.492 104.812 72.784 105.004 72.232C105.256 71.44 105.718 70.816 106.39 70.36C107.074 69.892 107.878 69.658 108.802 69.658C109.738 69.658 110.554 69.892 111.25 70.36C111.946 70.828 112.408 71.416 112.636 72.124C112.696 72.316 112.738 72.508 112.762 72.7V72.736C112.762 72.856 112.696 72.928 112.564 72.952L110.944 73.186H110.908C110.8 73.186 110.728 73.126 110.692 73.006C110.692 72.946 110.686 72.898 110.674 72.862C110.65 72.766 110.626 72.682 110.602 72.61C110.494 72.274 110.278 71.998 109.954 71.782C109.63 71.566 109.246 71.458 108.802 71.458C108.346 71.458 107.956 71.578 107.632 71.818C107.32 72.046 107.11 72.364 107.002 72.772C106.882 73.156 106.822 73.69 106.822 74.374C106.822 75.034 106.876 75.568 106.984 75.976C107.104 76.396 107.32 76.732 107.632 76.984C107.944 77.224 108.334 77.344 108.802 77.344C109.258 77.344 109.648 77.23 109.972 77.002C110.308 76.762 110.524 76.444 110.62 76.048C110.632 76.024 110.638 75.994 110.638 75.958C110.65 75.946 110.656 75.928 110.656 75.904C110.692 75.76 110.776 75.7 110.908 75.724L112.528 75.976C112.588 75.988 112.636 76.018 112.672 76.066C112.72 76.102 112.738 76.156 112.726 76.228C112.69 76.42 112.66 76.558 112.636 76.642C112.408 77.41 111.946 78.022 111.25 78.478C110.554 78.922 109.738 79.144 108.802 79.144ZM118.94 69.658C119.912 69.658 120.686 69.946 121.262 70.522C121.85 71.098 122.144 71.884 122.144 72.88V78.784C122.144 78.844 122.12 78.898 122.072 78.946C122.036 78.982 121.988 79 121.928 79H120.272C120.212 79 120.158 78.982 120.11 78.946C120.074 78.898 120.056 78.844 120.056 78.784V73.312C120.056 72.76 119.9 72.316 119.588 71.98C119.276 71.632 118.862 71.458 118.346 71.458C117.83 71.458 117.41 71.626 117.086 71.962C116.774 72.298 116.618 72.742 116.618 73.294V78.784C116.618 78.844 116.594 78.898 116.546 78.946C116.51 78.982 116.462 79 116.402 79H114.746C114.686 79 114.632 78.982 114.584 78.946C114.548 78.898 114.53 78.844 114.53 78.784V66.616C114.53 66.556 114.548 66.508 114.584 66.472C114.632 66.424 114.686 66.4 114.746 66.4H116.402C116.462 66.4 116.51 66.424 116.546 66.472C116.594 66.508 116.618 66.556 116.618 66.616V70.594C116.618 70.63 116.63 70.654 116.654 70.666C116.678 70.678 116.696 70.666 116.708 70.63C117.2 69.982 117.944 69.658 118.94 69.658ZM128.157 79.144C127.209 79.144 126.393 78.904 125.709 78.424C125.037 77.944 124.563 77.278 124.287 76.426C124.083 75.778 123.981 75.094 123.981 74.374C123.981 73.606 124.077 72.922 124.269 72.322C124.545 71.482 125.025 70.828 125.709 70.36C126.393 69.892 127.215 69.658 128.175 69.658C129.087 69.658 129.873 69.892 130.533 70.36C131.205 70.828 131.679 71.476 131.955 72.304C132.171 72.88 132.279 73.564 132.279 74.356C132.279 75.112 132.177 75.796 131.973 76.408C131.697 77.26 131.223 77.932 130.551 78.424C129.879 78.904 129.081 79.144 128.157 79.144ZM128.157 77.344C128.601 77.344 128.979 77.218 129.291 76.966C129.615 76.714 129.849 76.36 129.993 75.904C130.113 75.508 130.173 75.004 130.173 74.392C130.173 73.744 130.113 73.24 129.993 72.88C129.861 72.424 129.633 72.076 129.309 71.836C128.985 71.584 128.589 71.458 128.121 71.458C127.677 71.458 127.293 71.584 126.969 71.836C126.645 72.076 126.411 72.424 126.267 72.88C126.147 73.3 126.087 73.804 126.087 74.392C126.087 74.98 126.147 75.484 126.267 75.904C126.399 76.36 126.627 76.714 126.951 76.966C127.287 77.218 127.689 77.344 128.157 77.344ZM136.28 79C136.16 79 136.082 78.94 136.046 78.82L133.148 70.036C133.136 70.012 133.13 69.982 133.13 69.946C133.13 69.838 133.196 69.784 133.328 69.784H135.164C135.296 69.784 135.38 69.844 135.416 69.964L137.162 75.976C137.174 76.012 137.192 76.03 137.216 76.03C137.24 76.03 137.258 76.012 137.27 75.976L139.016 69.964C139.052 69.844 139.136 69.784 139.268 69.784L141.104 69.82C141.176 69.82 141.23 69.844 141.266 69.892C141.302 69.928 141.308 69.988 141.284 70.072L138.404 78.82C138.368 78.94 138.29 79 138.17 79H136.28ZM145.671 79.108C144.915 79.108 144.249 79 143.673 78.784C143.109 78.556 142.671 78.25 142.359 77.866C142.047 77.47 141.891 77.032 141.891 76.552V76.39C141.891 76.33 141.909 76.282 141.945 76.246C141.993 76.198 142.047 76.174 142.107 76.174H143.691C143.751 76.174 143.799 76.198 143.835 76.246C143.883 76.282 143.907 76.33 143.907 76.39V76.426C143.907 76.726 144.069 76.99 144.393 77.218C144.729 77.434 145.149 77.542 145.653 77.542C146.133 77.542 146.523 77.446 146.823 77.254C147.123 77.05 147.273 76.798 147.273 76.498C147.273 76.222 147.147 76.018 146.895 75.886C146.655 75.742 146.259 75.592 145.707 75.436L145.023 75.22C144.411 75.04 143.895 74.848 143.475 74.644C143.055 74.44 142.701 74.164 142.413 73.816C142.125 73.456 141.981 73 141.981 72.448C141.981 71.608 142.311 70.942 142.971 70.45C143.631 69.946 144.501 69.694 145.581 69.694C146.313 69.694 146.955 69.814 147.507 70.054C148.059 70.282 148.485 70.606 148.785 71.026C149.085 71.434 149.235 71.902 149.235 72.43C149.235 72.49 149.211 72.544 149.163 72.592C149.127 72.628 149.079 72.646 149.019 72.646H147.489C147.429 72.646 147.375 72.628 147.327 72.592C147.291 72.544 147.273 72.49 147.273 72.43C147.273 72.118 147.117 71.86 146.805 71.656C146.505 71.44 146.091 71.332 145.563 71.332C145.095 71.332 144.711 71.422 144.411 71.602C144.123 71.77 143.979 72.01 143.979 72.322C143.979 72.61 144.117 72.832 144.393 72.988C144.681 73.132 145.155 73.294 145.815 73.474L146.211 73.582C146.847 73.774 147.381 73.972 147.813 74.176C148.245 74.368 148.611 74.644 148.911 75.004C149.211 75.352 149.361 75.808 149.361 76.372C149.361 77.224 149.025 77.896 148.353 78.388C147.681 78.868 146.787 79.108 145.671 79.108ZM151.344 79C151.284 79 151.23 78.982 151.182 78.946C151.146 78.898 151.128 78.844 151.128 78.784V66.616C151.128 66.556 151.146 66.508 151.182 66.472C151.23 66.424 151.284 66.4 151.344 66.4H153C153.06 66.4 153.108 66.424 153.144 66.472C153.192 66.508 153.216 66.556 153.216 66.616V73.114C153.216 73.15 153.228 73.174 153.252 73.186C153.276 73.198 153.3 73.186 153.324 73.15L156.24 69.928C156.324 69.844 156.414 69.802 156.51 69.802H158.418C158.538 69.802 158.598 69.844 158.598 69.928C158.598 69.964 158.58 70.012 158.544 70.072L156.258 72.808C156.222 72.844 156.216 72.886 156.24 72.934L158.94 78.748C158.964 78.796 158.976 78.832 158.976 78.856C158.976 78.952 158.91 79 158.778 79H157.032C156.912 79 156.828 78.946 156.78 78.838L154.818 74.266C154.806 74.242 154.782 74.23 154.746 74.23C154.722 74.218 154.704 74.224 154.692 74.248L153.252 75.904C153.228 75.952 153.216 75.994 153.216 76.03V78.784C153.216 78.844 153.192 78.898 153.144 78.946C153.108 78.982 153.06 79 153 79H151.344ZM160.352 82.582C160.316 82.582 160.286 82.558 160.262 82.51C160.238 82.474 160.226 82.426 160.226 82.366V81.07C160.226 81.01 160.244 80.956 160.28 80.908C160.328 80.872 160.382 80.854 160.442 80.854H160.46C160.952 80.842 161.336 80.788 161.612 80.692C161.888 80.608 162.116 80.44 162.296 80.188C162.476 79.936 162.638 79.558 162.782 79.054C162.794 79.03 162.794 78.994 162.782 78.946L159.812 70.036C159.8 70.012 159.794 69.982 159.794 69.946C159.794 69.838 159.854 69.784 159.974 69.784H161.738C161.87 69.784 161.954 69.844 161.99 69.964L163.79 76.3C163.802 76.336 163.82 76.354 163.844 76.354C163.868 76.354 163.886 76.336 163.898 76.3L165.698 69.964C165.734 69.844 165.818 69.784 165.95 69.784H167.66C167.732 69.784 167.78 69.808 167.804 69.856C167.84 69.892 167.846 69.952 167.822 70.036L164.654 79.504C164.354 80.356 164.06 80.992 163.772 81.412C163.484 81.832 163.088 82.132 162.584 82.312C162.092 82.492 161.39 82.582 160.478 82.582H160.352ZM173.356 79C173.296 79 173.242 78.982 173.194 78.946C173.158 78.898 173.14 78.844 173.14 78.784V66.616C173.14 66.556 173.158 66.508 173.194 66.472C173.242 66.424 173.296 66.4 173.356 66.4H177.748C178.6 66.4 179.35 66.55 179.998 66.85C180.646 67.15 181.144 67.582 181.492 68.146C181.852 68.698 182.032 69.346 182.032 70.09V75.31C182.032 76.054 181.852 76.708 181.492 77.272C181.144 77.824 180.646 78.25 179.998 78.55C179.35 78.85 178.6 79 177.748 79H173.356ZM175.228 77.11C175.228 77.17 175.258 77.2 175.318 77.2H177.838C178.474 77.2 178.978 77.002 179.35 76.606C179.734 76.198 179.932 75.658 179.944 74.986V70.432C179.944 69.748 179.752 69.208 179.368 68.812C178.984 68.404 178.468 68.2 177.82 68.2H175.318C175.258 68.2 175.228 68.23 175.228 68.29V77.11ZM187.975 79.144C187.027 79.144 186.211 78.904 185.527 78.424C184.855 77.944 184.381 77.278 184.105 76.426C183.901 75.778 183.799 75.094 183.799 74.374C183.799 73.606 183.895 72.922 184.087 72.322C184.363 71.482 184.843 70.828 185.527 70.36C186.211 69.892 187.033 69.658 187.993 69.658C188.905 69.658 189.691 69.892 190.351 70.36C191.023 70.828 191.497 71.476 191.773 72.304C191.989 72.88 192.097 73.564 192.097 74.356C192.097 75.112 191.995 75.796 191.791 76.408C191.515 77.26 191.041 77.932 190.369 78.424C189.697 78.904 188.899 79.144 187.975 79.144ZM187.975 77.344C188.419 77.344 188.797 77.218 189.109 76.966C189.433 76.714 189.667 76.36 189.811 75.904C189.931 75.508 189.991 75.004 189.991 74.392C189.991 73.744 189.931 73.24 189.811 72.88C189.679 72.424 189.451 72.076 189.127 71.836C188.803 71.584 188.407 71.458 187.939 71.458C187.495 71.458 187.111 71.584 186.787 71.836C186.463 72.076 186.229 72.424 186.085 72.88C185.965 73.3 185.905 73.804 185.905 74.392C185.905 74.98 185.965 75.484 186.085 75.904C186.217 76.36 186.445 76.714 186.769 76.966C187.105 77.218 187.507 77.344 187.975 77.344ZM201.829 73.366C201.877 73.666 201.901 74.002 201.901 74.374L201.883 74.932C201.883 75.076 201.811 75.148 201.667 75.148H196.033C195.973 75.148 195.943 75.178 195.943 75.238C195.979 75.634 196.033 75.904 196.105 76.048C196.393 76.912 197.095 77.35 198.211 77.362C199.027 77.362 199.675 77.026 200.155 76.354C200.203 76.282 200.263 76.246 200.335 76.246C200.383 76.246 200.425 76.264 200.461 76.3L201.577 77.218C201.685 77.302 201.703 77.398 201.631 77.506C201.259 78.034 200.761 78.442 200.137 78.73C199.525 79.018 198.841 79.162 198.085 79.162C197.149 79.162 196.351 78.952 195.691 78.532C195.043 78.112 194.569 77.524 194.269 76.768C193.993 76.12 193.855 75.22 193.855 74.068C193.855 73.372 193.927 72.808 194.071 72.376C194.311 71.536 194.761 70.876 195.421 70.396C196.093 69.904 196.897 69.658 197.833 69.658C200.197 69.658 201.529 70.894 201.829 73.366ZM197.833 71.458C197.389 71.458 197.017 71.572 196.717 71.8C196.429 72.016 196.225 72.322 196.105 72.718C196.033 72.922 195.985 73.186 195.961 73.51C195.937 73.57 195.961 73.6 196.033 73.6H199.687C199.747 73.6 199.777 73.57 199.777 73.51C199.753 73.21 199.717 72.982 199.669 72.826C199.561 72.394 199.345 72.058 199.021 71.818C198.709 71.578 198.313 71.458 197.833 71.458Z" fill="#5F5F5F"/>
<path d="M265.054 98.34C265.054 98.2467 265.101 98.2 265.194 98.2H265.908C266.002 98.2 266.048 98.2467 266.048 98.34V107.86C266.048 107.953 266.002 108 265.908 108H265.208C265.143 108 265.087 107.967 265.04 107.902L260.266 100.132C260.257 100.104 260.243 100.095 260.224 100.104C260.206 100.104 260.196 100.118 260.196 100.146L260.21 107.86C260.21 107.953 260.164 108 260.07 108H259.356C259.263 108 259.216 107.953 259.216 107.86V98.34C259.216 98.2467 259.263 98.2 259.356 98.2H260.056C260.122 98.2 260.178 98.2327 260.224 98.298L264.998 106.068C265.008 106.096 265.022 106.11 265.04 106.11C265.059 106.101 265.068 106.082 265.068 106.054L265.054 98.34ZM273.913 103.268C273.951 103.529 273.969 103.856 273.969 104.248V104.696C273.969 104.789 273.923 104.836 273.829 104.836H269.307C269.27 104.836 269.251 104.855 269.251 104.892C269.27 105.405 269.298 105.737 269.335 105.886C269.438 106.306 269.657 106.637 269.993 106.88C270.329 107.123 270.759 107.244 271.281 107.244C271.673 107.244 272.019 107.155 272.317 106.978C272.616 106.801 272.849 106.549 273.017 106.222C273.073 106.138 273.139 106.119 273.213 106.166L273.759 106.488C273.834 106.535 273.853 106.6 273.815 106.684C273.582 107.132 273.232 107.487 272.765 107.748C272.299 108 271.762 108.126 271.155 108.126C270.493 108.117 269.937 107.958 269.489 107.65C269.041 107.342 268.719 106.913 268.523 106.362C268.355 105.914 268.271 105.27 268.271 104.43C268.271 104.038 268.276 103.721 268.285 103.478C268.304 103.226 268.341 103.002 268.397 102.806C268.556 102.199 268.873 101.714 269.349 101.35C269.835 100.986 270.418 100.804 271.099 100.804C271.949 100.804 272.602 101.019 273.059 101.448C273.517 101.877 273.801 102.484 273.913 103.268ZM271.099 101.672C270.642 101.672 270.259 101.793 269.951 102.036C269.653 102.269 269.457 102.587 269.363 102.988C269.307 103.184 269.27 103.501 269.251 103.94C269.251 103.977 269.27 103.996 269.307 103.996H272.933C272.971 103.996 272.989 103.977 272.989 103.94C272.971 103.52 272.943 103.221 272.905 103.044C272.803 102.624 272.593 102.293 272.275 102.05C271.967 101.798 271.575 101.672 271.099 101.672ZM277.238 108C277.164 108 277.112 107.963 277.084 107.888L275.096 101.07L275.082 101.028C275.082 100.953 275.129 100.916 275.222 100.916H275.95C276.034 100.916 276.086 100.958 276.104 101.042L277.588 106.558C277.598 106.577 277.607 106.586 277.616 106.586C277.635 106.586 277.649 106.577 277.658 106.558L279.17 101.042C279.189 100.958 279.24 100.916 279.324 100.916H279.996C280.08 100.916 280.132 100.953 280.15 101.028L281.676 106.544C281.686 106.563 281.7 106.572 281.718 106.572C281.737 106.572 281.751 106.563 281.76 106.544L283.286 101.042C283.305 100.958 283.356 100.916 283.44 100.916L284.168 100.93C284.215 100.93 284.248 100.944 284.266 100.972C284.294 101 284.304 101.037 284.294 101.084L282.278 107.888C282.25 107.963 282.199 108 282.124 108H281.382C281.308 108 281.256 107.963 281.228 107.888L279.702 102.652C279.693 102.633 279.679 102.624 279.66 102.624C279.651 102.624 279.642 102.633 279.632 102.652L278.148 107.888C278.12 107.963 278.069 108 277.994 108H277.238ZM295.185 98.928C295.185 99.0213 295.138 99.068 295.045 99.068H289.907C289.87 99.068 289.851 99.0867 289.851 99.124V102.582C289.851 102.619 289.87 102.638 289.907 102.638H293.505C293.598 102.638 293.645 102.685 293.645 102.778V103.366C293.645 103.459 293.598 103.506 293.505 103.506H289.907C289.87 103.506 289.851 103.525 289.851 103.562V107.86C289.851 107.953 289.804 108 289.711 108H288.997C288.904 108 288.857 107.953 288.857 107.86V98.34C288.857 98.2467 288.904 98.2 288.997 98.2H295.045C295.138 98.2 295.185 98.2467 295.185 98.34V98.928ZM298.76 108.112C298.088 108.112 297.509 107.939 297.024 107.594C296.538 107.249 296.202 106.773 296.016 106.166C295.885 105.737 295.82 105.163 295.82 104.444C295.82 103.725 295.885 103.156 296.016 102.736C296.193 102.139 296.524 101.667 297.01 101.322C297.495 100.977 298.083 100.804 298.774 100.804C299.436 100.804 300.006 100.977 300.482 101.322C300.967 101.667 301.298 102.134 301.476 102.722C301.606 103.123 301.672 103.697 301.672 104.444C301.672 105.2 301.606 105.774 301.476 106.166C301.298 106.773 300.967 107.249 300.482 107.594C300.006 107.939 299.432 108.112 298.76 108.112ZM298.76 107.244C299.208 107.244 299.59 107.123 299.908 106.88C300.225 106.628 300.44 106.292 300.552 105.872C300.636 105.536 300.678 105.065 300.678 104.458C300.678 103.842 300.64 103.371 300.566 103.044C300.454 102.624 300.234 102.293 299.908 102.05C299.59 101.798 299.203 101.672 298.746 101.672C298.288 101.672 297.901 101.798 297.584 102.05C297.266 102.293 297.052 102.624 296.94 103.044C296.865 103.371 296.828 103.842 296.828 104.458C296.828 105.074 296.865 105.545 296.94 105.872C297.042 106.292 297.252 106.628 297.57 106.88C297.896 107.123 298.293 107.244 298.76 107.244ZM303.826 108C303.733 108 303.686 107.953 303.686 107.86V98.34C303.686 98.2467 303.733 98.2 303.826 98.2H304.54C304.634 98.2 304.68 98.2467 304.68 98.34V107.86C304.68 107.953 304.634 108 304.54 108H303.826ZM311.309 98.34C311.309 98.2467 311.356 98.2 311.449 98.2H312.163C312.256 98.2 312.303 98.2467 312.303 98.34V107.86C312.303 107.953 312.256 108 312.163 108H311.449C311.356 108 311.309 107.953 311.309 107.86V107.272C311.309 107.253 311.3 107.244 311.281 107.244C311.272 107.235 311.258 107.239 311.239 107.258C311.034 107.529 310.777 107.739 310.469 107.888C310.17 108.037 309.834 108.112 309.461 108.112C308.808 108.112 308.257 107.944 307.809 107.608C307.37 107.272 307.067 106.815 306.899 106.236C306.768 105.816 306.703 105.223 306.703 104.458C306.703 103.683 306.759 103.105 306.871 102.722C307.039 102.125 307.347 101.658 307.795 101.322C308.243 100.977 308.798 100.804 309.461 100.804C309.825 100.804 310.161 100.879 310.469 101.028C310.777 101.168 311.034 101.373 311.239 101.644C311.258 101.663 311.272 101.672 311.281 101.672C311.3 101.663 311.309 101.649 311.309 101.63V98.34ZM311.057 106.166C311.141 105.979 311.202 105.76 311.239 105.508C311.276 105.256 311.295 104.906 311.295 104.458C311.295 104.01 311.276 103.66 311.239 103.408C311.202 103.147 311.136 102.918 311.043 102.722C310.931 102.405 310.744 102.153 310.483 101.966C310.231 101.77 309.928 101.672 309.573 101.672C309.2 101.672 308.878 101.765 308.607 101.952C308.336 102.139 308.14 102.386 308.019 102.694C307.907 102.899 307.823 103.133 307.767 103.394C307.72 103.646 307.697 104.001 307.697 104.458C307.697 104.897 307.716 105.242 307.753 105.494C307.79 105.737 307.856 105.956 307.949 106.152C308.061 106.488 308.257 106.754 308.537 106.95C308.826 107.146 309.167 107.244 309.559 107.244C309.932 107.244 310.245 107.146 310.497 106.95C310.749 106.754 310.936 106.493 311.057 106.166ZM319.988 103.268C320.025 103.529 320.044 103.856 320.044 104.248V104.696C320.044 104.789 319.997 104.836 319.904 104.836H315.382C315.344 104.836 315.326 104.855 315.326 104.892C315.344 105.405 315.372 105.737 315.41 105.886C315.512 106.306 315.732 106.637 316.068 106.88C316.404 107.123 316.833 107.244 317.356 107.244C317.748 107.244 318.093 107.155 318.392 106.978C318.69 106.801 318.924 106.549 319.092 106.222C319.148 106.138 319.213 106.119 319.288 106.166L319.834 106.488C319.908 106.535 319.927 106.6 319.89 106.684C319.656 107.132 319.306 107.487 318.84 107.748C318.373 108 317.836 108.126 317.23 108.126C316.567 108.117 316.012 107.958 315.564 107.65C315.116 107.342 314.794 106.913 314.598 106.362C314.43 105.914 314.346 105.27 314.346 104.43C314.346 104.038 314.35 103.721 314.36 103.478C314.378 103.226 314.416 103.002 314.472 102.806C314.63 102.199 314.948 101.714 315.424 101.35C315.909 100.986 316.492 100.804 317.174 100.804C318.023 100.804 318.676 101.019 319.134 101.448C319.591 101.877 319.876 102.484 319.988 103.268ZM317.174 101.672C316.716 101.672 316.334 101.793 316.026 102.036C315.727 102.269 315.531 102.587 315.438 102.988C315.382 103.184 315.344 103.501 315.326 103.94C315.326 103.977 315.344 103.996 315.382 103.996H319.008C319.045 103.996 319.064 103.977 319.064 103.94C319.045 103.52 319.017 103.221 318.98 103.044C318.877 102.624 318.667 102.293 318.35 102.05C318.042 101.798 317.65 101.672 317.174 101.672ZM324.876 100.846C325.184 100.846 325.45 100.907 325.674 101.028C325.749 101.065 325.777 101.126 325.758 101.21L325.604 101.896C325.576 101.989 325.516 102.017 325.422 101.98C325.264 101.915 325.082 101.882 324.876 101.882L324.694 101.896C324.209 101.915 323.808 102.097 323.49 102.442C323.173 102.778 323.014 103.207 323.014 103.73V107.86C323.014 107.953 322.968 108 322.874 108H322.16C322.067 108 322.02 107.953 322.02 107.86V101.056C322.02 100.963 322.067 100.916 322.16 100.916H322.874C322.968 100.916 323.014 100.963 323.014 101.056V101.91C323.014 101.938 323.019 101.957 323.028 101.966C323.047 101.966 323.061 101.957 323.07 101.938C323.266 101.593 323.514 101.327 323.812 101.14C324.12 100.944 324.475 100.846 324.876 100.846Z" fill="#C3C3C3"/>
<defs>
<filter id="filter0_d" x="10" y="0" width="351" height="142" filterUnits="userSpaceOnUse" color-interpolation-filters="sRGB">
<feFlood flood-opacity="0" result="BackgroundImageFix"/>
<feColorMatrix in="SourceAlpha" type="matrix" values="0 0 0 0 0 0 0 0 0 0 0 0 0 0 0 0 0 0 127 0"/>
<feOffset/>
<feGaussianBlur stdDeviation="5"/>
<feColorMatrix type="matrix" values="0 0 0 0 0 0 0 0 0 0 0 0 0 0 0 0 0 0 0.1 0"/>
<feBlend mode="normal" in2="BackgroundImageFix" result="effect1_dropShadow"/>
<feBlend mode="normal" in="SourceGraphic" in2="effect1_dropShadow" result="shape"/>
</filter>
<filter id="filter1_d" x="0" y="0" width="371" height="162" filterUnits="userSpaceOnUse" color-interpolation-filters="sRGB">
<feFlood flood-opacity="0" result="BackgroundImageFix"/>
<feColorMatrix in="SourceAlpha" type="matrix" values="0 0 0 0 0 0 0 0 0 0 0 0 0 0 0 0 0 0 127 0"/>
<feOffset dy="10"/>
<feGaussianBlur stdDeviation="10"/>
<feColorMatrix type="matrix" values="0 0 0 0 0.268807 0 0 0 0 0.618425 0 0 0 0 1 0 0 0 0.1 0"/>
<feBlend mode="normal" in2="BackgroundImageFix" result="effect1_dropShadow"/>
<feBlend mode="normal" in="SourceGraphic" in2="effect1_dropShadow" result="shape"/>
</filter>
</defs>
</svg>
