<svg width="36" height="37" viewBox="0 0 36 37" fill="none" xmlns="http://www.w3.org/2000/svg">
<path d="M16.6541 9.20863C16.7618 9.31443 16.9067 9.37371 17.0577 9.37371C17.2087 9.37371 17.3536 9.31443 17.4613 9.20863C17.5674 9.09738 17.6266 8.94956 17.6266 8.79584C17.6266 8.64213 17.5674 8.49431 17.4613 8.38306L13.0583 3.98003C13.0045 3.92379 12.94 3.87887 12.8686 3.84793C12.7972 3.81698 12.7203 3.80063 12.6424 3.79984C12.5646 3.79904 12.4874 3.81381 12.4154 3.84329C12.3434 3.87277 12.278 3.91635 12.223 3.97147C12.1681 4.0266 12.1247 4.09215 12.0955 4.16428C12.0662 4.23641 12.0517 4.31366 12.0528 4.39148C12.0538 4.4693 12.0705 4.54613 12.1016 4.61744C12.1328 4.68874 12.178 4.7531 12.2344 4.80671L16.6541 9.20863Z" fill="#3683BC"/>
<path d="M27.1479 18.0908C27.0384 17.9813 26.89 17.9198 26.7351 17.9198C26.5803 17.9198 26.4318 17.9813 26.3223 18.0908C26.2129 18.2003 26.1514 18.3487 26.1514 18.5036C26.1514 18.6584 26.2129 18.8069 26.3223 18.9164L30.7254 23.3194C30.8331 23.4252 30.978 23.4845 31.129 23.4845C31.28 23.4845 31.4249 23.4252 31.5326 23.3194C31.6387 23.2081 31.6979 23.0603 31.6979 22.9066C31.6979 22.7529 31.6387 22.6051 31.5326 22.4938L27.1479 18.0908Z" fill="#3683BC"/>
<path d="M34.9814 13.0624H28.7621C28.6113 13.0624 28.4666 13.1223 28.3599 13.229C28.2533 13.3356 28.1934 13.4803 28.1934 13.6311C28.1934 13.7819 28.2533 13.9266 28.3599 14.0333C28.4666 14.1399 28.6113 14.1998 28.7621 14.1998H34.9814C35.1322 14.1998 35.2769 14.1399 35.3835 14.0333C35.4902 13.9266 35.5501 13.7819 35.5501 13.6311C35.5501 13.4803 35.4902 13.3356 35.3835 13.229C35.2769 13.1223 35.1322 13.0624 34.9814 13.0624Z" fill="#3683BC"/>
<path d="M26.7444 9.37533C26.8194 9.37546 26.8936 9.3608 26.9629 9.33218C27.0321 9.30356 27.0951 9.26154 27.148 9.20855L31.5511 4.80551C31.6606 4.69603 31.7221 4.54755 31.7221 4.39273C31.7221 4.2379 31.6606 4.08942 31.5511 3.97994C31.4969 3.92573 31.4325 3.88273 31.3617 3.8534C31.2909 3.82406 31.215 3.80896 31.1383 3.80896C30.9835 3.80896 30.835 3.87047 30.7255 3.97994L26.3225 8.38298C26.2164 8.49423 26.1572 8.64205 26.1572 8.79576C26.1572 8.94948 26.2164 9.09729 26.3225 9.20855C26.4384 9.31329 26.5883 9.37253 26.7444 9.37533Z" fill="#3683BC"/>
<path d="M21.9009 7.37508C22.0515 7.37435 22.1957 7.3142 22.3022 7.2077C22.4087 7.1012 22.4689 6.95697 22.4696 6.80636V0.568726C22.4696 0.41789 22.4097 0.273232 22.303 0.166575C22.1964 0.0599188 22.0517 0 21.9009 0C21.75 0 21.6054 0.0599188 21.4987 0.166575C21.3921 0.273232 21.3321 0.41789 21.3321 0.568726V6.78801C21.3307 6.86397 21.3442 6.93947 21.3721 7.01017C21.3999 7.08086 21.4414 7.14535 21.4943 7.19992C21.5472 7.25449 21.6103 7.29806 21.6801 7.32812C21.7499 7.35818 21.8249 7.37414 21.9009 7.37508Z" fill="#3683BC"/>
<path d="M26.2305 24.3084C25.9777 23.8496 25.5853 23.4833 25.1102 23.2627C25.6704 22.8963 26.0709 22.3312 26.2309 21.6812C26.3909 21.0313 26.2986 20.3448 25.9725 19.7603L25.7157 19.3016C25.4702 18.8633 25.1083 18.5014 24.6699 18.2559C25.2003 17.8594 25.5703 17.2854 25.7124 16.6387C25.8545 15.992 25.7591 15.3157 25.4438 14.7335L25.2581 14.3999C25.0228 13.973 24.6775 13.6169 24.2581 13.3685C23.8388 13.1201 23.3606 12.9885 22.8731 12.9873H22.7447C22.8572 12.6436 22.8974 12.2804 22.8626 11.9204C22.8279 11.5605 22.719 11.2116 22.5429 10.8958L22.2861 10.4372C22.0572 10.0197 21.72 9.67176 21.3099 9.4299C20.8999 9.18804 20.4322 9.06125 19.9561 9.06288C19.5071 9.06354 19.0655 9.1771 18.6719 9.39311L13.8102 12.1083L11.095 11.0809C10.4077 10.8123 9.66176 10.7299 8.93242 10.8419C7.98579 10.9964 7.12281 11.4766 6.4924 12.1995C6.47406 12.1995 6.47406 12.2178 6.47406 12.2362L1.33719 18.8591C1.31884 18.8958 1.30049 18.9147 1.28159 18.9508C-0.0566061 21.6534 -0.358941 24.7525 0.431678 27.6628C1.2223 30.5731 3.05115 33.0932 5.57288 34.7472C7.59031 35.9832 9.90243 36.6552 12.2681 36.693C13.557 36.6941 14.8362 36.4706 16.0484 36.0326C18.8862 34.9545 21.2123 32.8447 22.5613 30.1252L25.6067 28.4373C25.8977 28.2779 26.1544 28.0624 26.3619 27.8034C26.5693 27.5444 26.7236 27.2469 26.8156 26.9281C26.9077 26.6092 26.9358 26.2753 26.8984 25.9456C26.8609 25.6158 26.7586 25.2967 26.5974 25.0066L26.2305 24.3084ZM24.6894 19.8481L24.9462 20.3067C25.0425 20.4787 25.1037 20.6681 25.1262 20.8639C25.1488 21.0597 25.1323 21.2581 25.0777 21.4475C25.0231 21.6369 24.9315 21.8135 24.8082 21.9673C24.6848 22.121 24.5322 22.2488 24.3592 22.3431C23.6253 22.7835 19.259 25.3886 18.3417 25.6271C18.2269 25.6502 18.1102 25.6625 17.9931 25.6638C17.7245 25.6636 17.4607 25.5922 17.2286 25.4569C16.9965 25.3215 16.8046 25.127 16.6722 24.8932L16.4154 24.4346C16.3179 24.2636 16.2562 24.0746 16.2341 23.8791C16.2121 23.6835 16.23 23.4855 16.2869 23.2971C16.35 23.0596 16.4769 22.8439 16.6539 22.6734L23.2034 19.0981C23.259 19.0981 23.3146 19.0798 23.3701 19.0798C23.6392 19.0754 23.9043 19.1447 24.1368 19.2801C24.3693 19.4155 24.5604 19.6119 24.6894 19.8481ZM22.1026 14.3832C22.3319 14.2526 22.5909 14.1831 22.8548 14.1814C23.1304 14.1824 23.4008 14.2559 23.6391 14.3943C23.8773 14.5328 24.0751 14.7314 24.2124 14.9703L24.3959 15.3005C24.4977 15.4765 24.5618 15.6719 24.5839 15.874C24.606 16.0762 24.5857 16.2808 24.5243 16.4747C24.472 16.6723 24.3799 16.8572 24.2537 17.0181C24.1276 17.1789 23.9699 17.3124 23.7904 17.4103L22.7264 17.9974C20.5432 19.1899 18.36 20.3824 16.1769 21.5554C16.0618 21.5767 15.9453 21.5889 15.8283 21.5921C15.5311 21.5867 15.2404 21.5045 14.9844 21.3536C14.7729 21.2122 14.5971 21.0239 14.4707 20.8032L14.2872 20.473C14.2872 20.4546 14.2689 20.4546 14.2689 20.4363C14.0896 20.0852 14.0439 19.681 14.1405 19.2988C14.1948 19.1045 14.2884 18.9234 14.4156 18.7668C14.9422 18.7856 15.4695 18.767 15.9934 18.7112C16.5489 18.6513 17.0797 18.4493 17.5345 18.1247C17.6448 18.0545 17.7438 17.9679 17.828 17.8678C18.2807 17.4184 18.5876 16.843 18.7086 16.2167L19.6259 15.703L22.1026 14.3832ZM19.2039 10.4361C19.4281 10.3112 19.6813 10.2479 19.9378 10.2526C20.2064 10.2527 20.4702 10.3241 20.7023 10.4595C20.9343 10.5948 21.1263 10.7893 21.2587 11.0231L21.5155 11.4818C21.6118 11.6538 21.673 11.8432 21.6955 12.039C21.7181 12.2348 21.7016 12.4331 21.647 12.6225C21.5924 12.8119 21.5008 12.9886 21.3775 13.1423C21.2541 13.2961 21.1015 13.4238 20.9285 13.5182L18.8003 14.6951C18.7859 14.5347 18.7614 14.3754 18.7269 14.2181C18.7077 14.1269 18.6656 14.042 18.6046 13.9714C18.5437 13.9008 18.4658 13.8468 18.3784 13.8145L15.2229 12.6209L19.2039 10.4361ZM15.6815 35.0252C11.0033 36.7314 6.93048 34.3281 6.15995 33.8327C3.86532 32.3299 2.19949 30.0398 1.47634 27.3938C0.753189 24.7479 1.02264 21.9289 2.23391 19.4678L7.31575 12.8989C7.77964 12.3769 8.40678 12.0277 9.09475 11.9082C9.63885 11.8219 10.1962 11.8853 10.707 12.0916L12.5049 12.7704L12.5783 12.8071L13.2938 13.0823L13.9909 13.3603L15.5503 13.9474L17.7162 14.7501C17.7395 14.9327 17.7517 15.1165 17.7529 15.3005V15.4673C17.7453 15.6466 17.7207 15.8247 17.6796 15.9993C17.6612 16.0727 17.6429 16.1461 17.624 16.2011C17.5542 16.4359 17.449 16.6586 17.3121 16.8616C17.238 16.9587 17.1583 17.0515 17.0736 17.1396C17.0226 17.1881 16.9667 17.2311 16.9068 17.268C16.7724 17.3684 16.624 17.4487 16.4665 17.5065C16.2668 17.5853 16.0567 17.6348 15.8427 17.6532C15.5262 17.6917 15.2076 17.7102 14.8887 17.7088H14.3384C14.173 17.7119 14.0077 17.7058 13.843 17.6905C13.1765 17.6349 12.5181 17.5057 11.88 17.3052C11.5746 17.2114 11.2745 17.1012 10.9811 16.975L10.4857 16.7526C10.4213 16.7179 10.3499 16.6983 10.2768 16.6951C10.2038 16.6919 10.1309 16.7053 10.0638 16.7343C9.92867 16.7846 9.81738 16.8838 9.75187 17.0122L8.94465 18.7184C8.90141 18.8135 8.88537 18.9187 8.89833 19.0223C8.91128 19.126 8.95272 19.224 9.01803 19.3055C10.0984 20.5318 10.6579 22.1312 10.5774 23.7636C10.4894 24.9307 10.0622 26.0466 9.34826 26.9741C9.26547 27.0886 9.23108 27.2311 9.25251 27.3707C9.27394 27.5103 9.34948 27.6359 9.46279 27.7203C9.5761 27.8047 9.71807 27.8411 9.858 27.8216C9.99793 27.8021 10.1246 27.7283 10.2105 27.6162L10.3773 27.3938C11.1156 26.3381 11.5531 25.1015 11.6432 23.8164C11.7516 22.0178 11.1821 20.244 10.0471 18.8446L10.4874 17.9273C11.3258 18.2862 12.2079 18.533 13.1109 18.6612C12.9505 19.0425 12.8787 19.4553 12.9009 19.8684C12.9232 20.2815 13.0389 20.6842 13.2393 21.0461L13.386 21.303L13.4227 21.3764C13.599 21.6945 13.8358 21.9749 14.1199 22.2019C14.4563 22.459 14.8443 22.6405 15.2573 22.734C15.1181 23.0985 15.0591 23.4888 15.0845 23.8783C15.1098 24.2677 15.2188 24.6471 15.4041 24.9905L15.6609 25.4492C15.8523 25.7895 16.1156 26.084 16.4325 26.3121C16.7493 26.5402 17.1121 26.6965 17.4955 26.7701C17.2183 27.3351 17.1658 27.9842 17.3488 28.5863C17.4072 28.7639 17.4816 28.9359 17.5711 29.1L17.9564 29.7788C18.0576 29.9586 18.1809 30.125 18.3233 30.2742C18.5608 30.5277 18.8478 30.7298 19.1665 30.8681C19.4852 31.0064 19.8289 31.0778 20.1763 31.0781C20.3744 31.0808 20.572 31.0561 20.7634 31.0047C19.5323 32.844 17.7547 34.2504 15.6815 35.0252ZM25.7718 26.6228C25.6668 26.9878 25.4231 27.2972 25.093 27.485L22.4879 28.9344L21.754 29.338L20.8918 29.815C20.6809 29.9395 20.4395 30.003 20.1946 29.9984C20.011 30.0002 19.8288 29.9654 19.6588 29.8961C19.4887 29.8268 19.3341 29.7244 19.2039 29.5948C19.1041 29.4966 19.0177 29.3855 18.9471 29.2646L18.7086 28.8243L18.5618 28.5858C18.3828 28.2545 18.3368 27.8674 18.4334 27.5034C18.5385 27.1384 18.7821 26.8289 19.1122 26.6411L21.3299 25.4075L21.9903 25.0406L22.504 24.7654L23.3479 24.3067C23.5588 24.1822 23.8002 24.1187 24.0451 24.1233C24.3 24.121 24.5508 24.1881 24.7705 24.3173C24.9902 24.4466 25.1707 24.6332 25.2926 24.8571L25.6778 25.5359C25.8286 25.8768 25.8617 26.2582 25.7718 26.62V26.6228Z" fill="#24356C"/>
</svg>
