<svg width="290" height="67" viewBox="0 0 290 67" fill="none" xmlns="http://www.w3.org/2000/svg">
<path d="M82.8891 9.27301C74.3751 9.27301 69.9531 14.322 69.9531 23.166V51.909C69.9531 60.753 74.3751 65.802 82.8891 65.802C91.4031 65.802 95.8251 60.753 95.8251 51.909V34.386H83.6811V42.273H87.6411V52.473C87.6411 56.433 85.8921 57.852 83.1531 57.852C80.3811 57.852 78.6651 56.433 78.6651 52.473V22.638C78.6651 18.678 80.4141 17.193 83.1531 17.193C85.9251 17.193 87.6411 18.678 87.6411 22.638V28.545H95.8581V23.199C95.8251 14.355 91.4031 9.27301 82.8891 9.27301Z" fill="#24356C"/>
<path d="M113.909 9.27301C105.395 9.27301 100.709 14.322 100.709 23.166V51.909C100.709 60.753 105.362 65.802 113.909 65.802C122.456 65.802 127.109 60.753 127.109 51.909V23.199C127.109 14.355 122.456 9.27301 113.909 9.27301ZM118.43 52.473C118.43 56.433 116.681 57.918 113.942 57.918C111.17 57.918 109.454 56.433 109.454 52.473V22.638C109.454 18.678 111.203 17.193 113.942 17.193C116.714 17.193 118.43 18.678 118.43 22.638V52.473Z" fill="#24356C"/>
<path d="M152.783 9.93298L141.398 33.99V9.93298H132.719V65.175H141.398V48.213L144.071 43.164L152.519 65.175H161.462L149.384 34.551L161.462 9.93298H152.783Z" fill="white"/>
<path d="M185.155 42.999L176.212 9.93298H165.322V65.175H173.143V25.146L183.967 65.175H192.877V9.93298H185.155V42.999Z" fill="white"/>
<path d="M211.589 9.27301C203.075 9.27301 198.389 14.322 198.389 23.166V51.909C198.389 60.753 203.042 65.802 211.589 65.802C220.136 65.802 224.789 60.753 224.789 51.909V23.199C224.789 14.355 220.136 9.27301 211.589 9.27301ZM216.11 52.473C216.11 56.433 214.361 57.918 211.622 57.918C208.85 57.918 207.134 56.433 207.134 52.473V22.638C207.134 18.678 208.883 17.193 211.622 17.193C214.394 17.193 216.11 18.678 216.11 22.638V52.473Z" fill="white"/>
<path d="M242.608 9.27301C234.094 9.27301 229.672 14.322 229.672 23.166V51.909C229.672 60.753 234.094 65.802 242.608 65.802C251.122 65.802 255.544 60.753 255.544 51.909V44.55H247.327V52.473C247.327 56.433 245.578 57.852 242.839 57.852C240.067 57.852 238.351 56.433 238.351 52.473V22.638C238.351 18.678 240.1 17.193 242.839 17.193C245.611 17.193 247.327 18.678 247.327 22.638V28.545H255.544V23.199C255.577 14.355 251.155 9.27301 242.608 9.27301Z" fill="white"/>
<path d="M289.6 9.93298H280.921L269.536 33.99V9.93298H260.857V65.175H269.536V48.213L272.242 43.164L280.69 65.175H289.6L277.522 34.551L289.6 9.93298Z" fill="white"/>
<path d="M29.9564 16.564C30.1501 16.7543 30.4109 16.8609 30.6824 16.8609C30.954 16.8609 31.2147 16.7543 31.4084 16.564C31.5992 16.3639 31.7057 16.098 31.7057 15.8215C31.7057 15.545 31.5992 15.2791 31.4084 15.079L23.4884 7.15901C23.3916 7.05785 23.2756 6.97707 23.1472 6.9214C23.0187 6.86574 22.8804 6.83633 22.7404 6.83489C22.6005 6.83346 22.4616 6.86004 22.332 6.91306C22.2025 6.96608 22.0848 7.04447 21.986 7.14363C21.8872 7.24279 21.8092 7.36071 21.7566 7.49045C21.704 7.62019 21.6779 7.75914 21.6798 7.89913C21.6817 8.03911 21.7116 8.1773 21.7677 8.30556C21.8238 8.43383 21.9049 8.54958 22.0064 8.64601L29.9564 16.564Z" fill="white"/>
<path d="M48.8316 32.541C48.6347 32.3441 48.3676 32.2335 48.0891 32.2335C47.8106 32.2335 47.5435 32.3441 47.3466 32.541C47.1497 32.7379 47.0391 33.005 47.0391 33.2835C47.0391 33.562 47.1497 33.8291 47.3466 34.026L55.2666 41.946C55.4603 42.1363 55.7211 42.243 55.9926 42.243C56.2642 42.243 56.5249 42.1363 56.7186 41.946C56.9094 41.7459 57.0159 41.48 57.0159 41.2035C57.0159 40.927 56.9094 40.6611 56.7186 40.461L48.8316 32.541Z" fill="white"/>
<path d="M62.9229 23.496H51.7359C51.4646 23.496 51.2044 23.6038 51.0125 23.7956C50.8207 23.9875 50.7129 24.2477 50.7129 24.519C50.7129 24.7903 50.8207 25.0505 51.0125 25.2424C51.2044 25.4342 51.4646 25.542 51.7359 25.542H62.9229C63.1942 25.542 63.4544 25.4342 63.6463 25.2424C63.8381 25.0505 63.9459 24.7903 63.9459 24.519C63.9459 24.2477 63.8381 23.9875 63.6463 23.7956C63.4544 23.6038 63.1942 23.496 62.9229 23.496Z" fill="white"/>
<path d="M48.107 16.864C48.2418 16.8642 48.3754 16.8379 48.4999 16.7864C48.6245 16.7349 48.7377 16.6593 48.833 16.564L56.753 8.644C56.9499 8.44707 57.0606 8.17999 57.0606 7.9015C57.0606 7.62301 56.9499 7.35592 56.753 7.159C56.6555 7.06149 56.5398 6.98414 56.4124 6.93137C56.285 6.8786 56.1484 6.85144 56.0105 6.85144C55.732 6.85144 55.4649 6.96207 55.268 7.159L47.348 15.079C47.1572 15.2791 47.0508 15.545 47.0508 15.8215C47.0508 16.098 47.1572 16.3639 47.348 16.564C47.5565 16.7524 47.8261 16.859 48.107 16.864Z" fill="white"/>
<path d="M39.3943 13.266C39.6652 13.2647 39.9246 13.1565 40.1162 12.9649C40.3078 12.7734 40.416 12.5139 40.4173 12.243V1.023C40.4173 0.751684 40.3095 0.491479 40.1177 0.299629C39.9258 0.10778 39.6656 0 39.3943 0C39.123 0 38.8628 0.10778 38.6709 0.299629C38.4791 0.491479 38.3713 0.751684 38.3713 1.023V12.21C38.3686 12.3466 38.393 12.4824 38.4431 12.6096C38.4932 12.7368 38.5679 12.8528 38.663 12.9509C38.7581 13.0491 38.8717 13.1275 38.9972 13.1815C39.1227 13.2356 39.2576 13.2643 39.3943 13.266Z" fill="white"/>
<path d="M47.1823 43.725C46.7277 42.8997 46.0219 42.2408 45.1673 41.844C46.1749 41.185 46.8953 40.1685 47.1831 38.9994C47.471 37.8302 47.3048 36.5955 46.7183 35.544L46.2563 34.719C45.8147 33.9305 45.1637 33.2795 44.3753 32.838C45.3292 32.1249 45.9948 31.0923 46.2504 29.929C46.506 28.7657 46.3345 27.5493 45.7673 26.502L45.4333 25.902C45.01 25.1342 44.3889 24.4937 43.6346 24.0468C42.8802 23.6 42.02 23.3632 41.1433 23.361H40.9123C41.1146 22.7428 41.1869 22.0895 41.1244 21.442C41.0619 20.7946 40.8661 20.1671 40.5493 19.599L40.0873 18.774C39.6756 18.0231 39.069 17.3972 38.3314 16.9622C37.5938 16.5271 36.7526 16.2991 35.8963 16.302C35.0887 16.3032 34.2943 16.5074 33.5863 16.896L24.8413 21.78L19.9573 19.932C18.721 19.4489 17.3792 19.3005 16.0673 19.502C14.3645 19.78 12.8122 20.6437 11.6783 21.944C11.6453 21.944 11.6453 21.977 11.6453 22.01L2.40528 33.923C2.37228 33.989 2.33928 34.023 2.30528 34.088C-0.101821 38.9494 -0.645649 44.5239 0.776484 49.7588C2.19862 54.9937 5.48828 59.5268 10.0243 62.502C13.6531 64.7252 17.8121 65.9339 22.0673 66.002C24.3857 66.0039 26.6868 65.6019 28.8673 64.814C33.9718 62.8748 38.1558 59.0797 40.5823 54.188L46.0603 51.152C46.5838 50.8652 47.0455 50.4776 47.4187 50.0117C47.7919 49.5458 48.0693 49.0107 48.2349 48.4372C48.4005 47.8636 48.4511 47.263 48.3837 46.6699C48.3163 46.0767 48.1323 45.5028 47.8423 44.981L47.1823 43.725ZM44.4103 35.702L44.8723 36.527C45.0454 36.8364 45.1555 37.177 45.1961 37.5293C45.2367 37.8815 45.207 38.2382 45.1088 38.5789C45.0106 38.9196 44.8458 39.2374 44.6239 39.5139C44.402 39.7905 44.1275 40.0203 43.8163 40.19C42.4963 40.982 34.6423 45.668 32.9923 46.097C32.7858 46.1387 32.5759 46.1608 32.3653 46.163C31.882 46.1628 31.4075 46.0343 30.9901 45.7908C30.5727 45.5474 30.2274 45.1975 29.9893 44.777L29.5273 43.952C29.3519 43.6445 29.241 43.3045 29.2013 42.9528C29.1616 42.601 29.1939 42.2449 29.2963 41.906C29.4098 41.4788 29.638 41.0908 29.9563 40.784L41.7373 34.353C41.8373 34.353 41.9373 34.32 42.0373 34.32C42.5212 34.3122 42.9981 34.4368 43.4163 34.6804C43.8346 34.924 44.1783 35.2772 44.4103 35.702ZM39.7573 25.872C40.1697 25.637 40.6356 25.512 41.1103 25.509C41.606 25.5109 42.0924 25.6429 42.521 25.8919C42.9496 26.141 43.3052 26.4983 43.5523 26.928L43.8823 27.522C44.0655 27.8386 44.1808 28.19 44.2205 28.5536C44.2603 28.9173 44.2238 29.2853 44.1133 29.634C44.0192 29.9895 43.8536 30.3221 43.6266 30.6115C43.3997 30.9008 43.1161 31.1409 42.7933 31.317L40.8793 32.373C36.9523 34.518 33.0253 36.663 29.0983 38.773C28.8913 38.8113 28.6817 38.8333 28.4713 38.839C27.9367 38.8293 27.4138 38.6815 26.9533 38.41C26.573 38.1558 26.2567 37.8169 26.0293 37.42L25.6993 36.826C25.6993 36.793 25.6663 36.793 25.6663 36.76C25.3438 36.1286 25.2617 35.4014 25.4353 34.714C25.533 34.3645 25.7015 34.0387 25.9303 33.757C26.8774 33.7908 27.8258 33.7574 28.7683 33.657C29.7675 33.5492 30.7222 33.1859 31.5403 32.602C31.7388 32.4758 31.9168 32.32 32.0683 32.14C32.8826 31.3316 33.4346 30.2966 33.6523 29.17L35.3023 28.246L39.7573 25.872ZM34.5433 18.772C34.9464 18.5475 35.4019 18.4336 35.8633 18.442C36.3465 18.4422 36.821 18.5707 37.2384 18.8142C37.6558 19.0576 38.0012 19.4075 38.2393 19.828L38.7013 20.653C38.8744 20.9624 38.9845 21.303 39.0251 21.6553C39.0657 22.0075 39.036 22.3642 38.9378 22.7049C38.8396 23.0456 38.6748 23.3634 38.4529 23.6399C38.231 23.9165 37.9565 24.1463 37.6453 24.316L33.8173 26.433C33.7914 26.1445 33.7473 25.8579 33.6853 25.575C33.6506 25.4109 33.5749 25.2582 33.4653 25.1313C33.3556 25.0043 33.2156 24.9072 33.0583 24.849L27.3823 22.702L34.5433 18.772ZM28.2073 63.002C19.7923 66.071 12.4663 61.748 11.0803 60.857C6.95278 58.1538 3.95636 54.0344 2.65558 49.275C1.35481 44.5156 1.83947 39.4448 4.01827 35.018L13.1593 23.202C13.9937 22.2632 15.1218 21.635 16.3593 21.42C17.338 21.2648 18.3405 21.3789 19.2593 21.75L22.4933 22.971L22.6253 23.037L23.9123 23.532L25.1663 24.032L27.9713 25.088L31.8673 26.532C31.9091 26.8604 31.9311 27.191 31.9333 27.522V27.822C31.9196 28.1444 31.8754 28.4649 31.8013 28.779C31.7683 28.911 31.7353 29.043 31.7013 29.142C31.5757 29.5642 31.3865 29.9648 31.1403 30.33C31.007 30.5047 30.8637 30.6717 30.7113 30.83C30.6196 30.9173 30.5191 30.9947 30.4113 31.061C30.1694 31.2416 29.9026 31.3861 29.6193 31.49C29.26 31.6318 28.8821 31.7208 28.4973 31.754C27.9279 31.8231 27.3548 31.8565 26.7813 31.854H25.7913C25.4939 31.8595 25.1964 31.8485 24.9003 31.821C23.7013 31.7209 22.5171 31.4885 21.3693 31.128C20.82 30.9592 20.2802 30.7609 19.7523 30.534L18.8613 30.134C18.7454 30.0716 18.617 30.0362 18.4856 30.0305C18.3541 30.0248 18.2231 30.0489 18.1023 30.101C17.8593 30.1916 17.6591 30.37 17.5413 30.601L16.0893 33.67C16.0115 33.841 15.9826 34.0302 16.006 34.2167C16.0293 34.4031 16.1038 34.5794 16.2213 34.726C18.1646 36.9319 19.171 39.8088 19.0263 42.745C18.8679 44.8444 18.0994 46.8516 16.8153 48.52C16.6664 48.7259 16.6045 48.9822 16.643 49.2334C16.6816 49.4845 16.8175 49.7105 17.0213 49.8622C17.2251 50.014 17.4805 50.0795 17.7322 50.0444C17.9839 50.0094 18.2117 49.8767 18.3663 49.675L18.6663 49.275C19.9943 47.3759 20.7813 45.1517 20.9433 42.84C21.1383 39.6049 20.1139 36.4141 18.0723 33.897L18.8643 32.247C20.3724 32.8926 21.9591 33.3364 23.5833 33.567C23.2948 34.253 23.1657 34.9955 23.2057 35.7386C23.2457 36.4816 23.4538 37.206 23.8143 37.857L24.0783 38.319L24.1443 38.451C24.4613 39.0232 24.8873 39.5277 25.3983 39.936C26.0035 40.3985 26.7014 40.7249 27.4443 40.893C27.1938 41.5488 27.0878 42.2508 27.1333 42.9513C27.1789 43.6518 27.375 44.3342 27.7083 44.952L28.1703 45.777C28.5145 46.3891 28.9881 46.9188 29.5581 47.3292C30.128 47.7396 30.7806 48.0207 31.4703 48.153C30.9716 49.1692 30.8772 50.3369 31.2063 51.42C31.3114 51.7395 31.4453 52.0487 31.6063 52.344L32.2993 53.565C32.4813 53.8883 32.703 54.1876 32.9593 54.456C33.3865 54.912 33.9027 55.2757 34.4759 55.5244C35.0492 55.7731 35.6674 55.9016 36.2923 55.902C36.6487 55.907 37.0041 55.8625 37.3483 55.77C35.1339 59.0785 31.9365 61.6082 28.2073 63.002ZM46.3573 47.888C46.1683 48.5446 45.7301 49.1012 45.1363 49.439L40.4503 52.046L39.1303 52.772L37.5793 53.63C37.1999 53.854 36.7658 53.9682 36.3253 53.96C35.995 53.9631 35.6673 53.9006 35.3614 53.7759C35.0555 53.6513 34.7774 53.4671 34.5433 53.234C34.3637 53.0573 34.2083 52.8576 34.0813 52.64L33.6523 51.848L33.3883 51.419C33.0662 50.8231 32.9836 50.1267 33.1573 49.472C33.3462 48.8154 33.7844 48.2588 34.3783 47.921L38.3673 45.702L39.5553 45.042L40.4793 44.547L41.9973 43.722C42.3767 43.498 42.8108 43.3838 43.2513 43.392C43.7099 43.3879 44.1609 43.5086 44.5562 43.7411C44.9515 43.9736 45.2761 44.3092 45.4953 44.712L46.1883 45.933C46.4595 46.5462 46.519 47.2323 46.3573 47.883V47.888Z" fill="#24356C"/>
</svg>
