<svg width="69" height="71" viewBox="0 0 69 71" fill="none" xmlns="http://www.w3.org/2000/svg">
<path fill-rule="evenodd" clip-rule="evenodd" d="M55.4621 9.37581C39.0024 -6.91712 24.9823 0.492696 22.5427 12.9056C20.1031 25.3185 -2.55927 27.7969 0.238838 42.4584C3.03695 57.1198 33.5158 48.4146 33.5158 61.7015C33.5158 74.9885 68.7556 74.5303 68.7556 57.1198C68.7556 39.7093 71.9219 25.6687 55.4621 9.37581Z" fill="#E4EAF0"/>
<path d="M29.3285 44.4946C28.5704 45.7726 27.9422 47.1805 27.574 48.6751C21.7473 49.1733 16.1155 51.9025 16.1155 53.1588V55.5415H27.5957C27.9639 57.0144 28.5704 58.4007 29.3285 59.657H12V53.1588C12 47.3971 23.5451 44.4946 29.3285 44.4946ZM29.3285 25C31.6264 25 33.8302 25.9128 35.4551 27.5377C37.0799 29.1626 37.9928 31.3664 37.9928 33.6643C37.9928 35.6354 37.3213 37.4549 36.2166 38.9278C34.3538 39.6209 32.6859 40.7256 31.2996 42.1119L29.3285 42.3285C27.0306 42.3285 24.8268 41.4157 23.202 39.7908C21.5771 38.166 20.6643 35.9622 20.6643 33.6643C20.6643 31.3664 21.5771 29.1626 23.202 27.5377C24.8268 25.9128 27.0306 25 29.3285 25ZM29.3285 29.1155C28.1221 29.1155 26.9651 29.5948 26.1121 30.4478C25.259 31.3009 24.7798 32.4579 24.7798 33.6643C24.7798 34.8707 25.259 36.0276 26.1121 36.8807C26.9651 37.7338 28.1221 38.213 29.3285 38.213C30.5349 38.213 31.6919 37.7338 32.545 36.8807C33.398 36.0276 33.8773 34.8707 33.8773 33.6643C33.8773 32.4579 33.398 31.3009 32.545 30.4478C31.6919 29.5948 30.5349 29.1155 29.3285 29.1155ZM41.2419 42.3285C46.657 42.3285 50.9892 46.6607 50.9892 52.0758C50.9892 53.9819 50.4477 55.7798 49.4946 57.2744L56.1661 63.9892L53.1552 67L46.3971 60.3502C44.9025 61.2816 43.1264 61.8231 41.2419 61.8231C35.8267 61.8231 31.4946 57.491 31.4946 52.0758C31.4946 46.6607 35.8267 42.3285 41.2419 42.3285ZM41.2419 46.6607C39.8057 46.6607 38.4283 47.2312 37.4128 48.2467C36.3972 49.2623 35.8267 50.6396 35.8267 52.0758C35.8267 53.512 36.3972 54.8894 37.4128 55.9049C38.4283 56.9205 39.8057 57.491 41.2419 57.491C42.6781 57.491 44.0554 56.9205 45.071 55.9049C46.0865 54.8894 46.657 53.512 46.657 52.0758C46.657 50.6396 46.0865 49.2623 45.071 48.2467C44.0554 47.2312 42.6781 46.6607 41.2419 46.6607Z" fill="#3683BC"/>
</svg>
