<svg width="69" height="71" viewBox="0 0 69 71" fill="none" xmlns="http://www.w3.org/2000/svg">
<path fill-rule="evenodd" clip-rule="evenodd" d="M55.4621 9.37581C39.0024 -6.91712 24.9823 0.492696 22.5427 12.9056C20.1031 25.3185 -2.55927 27.7969 0.238838 42.4584C3.03695 57.1198 33.5158 48.4146 33.5158 61.7015C33.5158 74.9885 68.7556 74.5303 68.7556 57.1198C68.7556 39.7093 71.9219 25.6687 55.4621 9.37581Z" fill="#E4EAF0"/>
<path d="M47.0904 35.17L27.0735 25.2904C26.6862 25.0994 26.2601 25 25.8283 25C25.3964 25 24.9703 25.0994 24.583 25.2904L4.56612 35.17C3.79874 35.546 3.15178 36.1291 2.69833 36.8534C2.24487 37.5777 2.00299 38.4144 2 39.2689V60.4176C2 62.9483 4.0781 65 6.64193 65H45.0192C47.583 65 49.6611 62.9483 49.6611 60.4176V39.2689C49.6577 38.4139 49.4151 37.5769 48.9608 36.8525C48.5065 36.1282 47.8586 35.5454 47.0904 35.17V35.17Z" stroke="#3683BC" stroke-width="3" stroke-linecap="round" stroke-linejoin="round"/>
<path d="M42.0184 57.6682L27.2105 46.1505C26.7279 45.7751 26.1339 45.5713 25.5224 45.5713C24.911 45.5713 24.317 45.7751 23.8344 46.1505L9.02539 57.6682" stroke="#3683BC" stroke-width="3" stroke-linecap="round" stroke-linejoin="round"/>
<path d="M31.9375 49.3054L47.5175 37.5059" stroke="#3683BC" stroke-width="3" stroke-linecap="round" stroke-linejoin="round"/>
<path d="M3.52734 37.5059L19.451 49.5345" stroke="#3683BC" stroke-width="3" stroke-linecap="round" stroke-linejoin="round"/>
</svg>
