<svg width="420" height="449" viewBox="0 0 420 449" fill="none" xmlns="http://www.w3.org/2000/svg">
<g opacity="0.3">
<path d="M90.7331 24.9333H85.7331V29.9333V419.067V424.067H90.7331H330.2H335.2V419.067V29.9333V24.9333H330.2H90.7331ZM65.7998 29.9333C65.7998 23.3206 68.4267 16.9787 73.1026 12.3028C77.7785 7.6269 84.1204 5 90.7331 5H330.2C336.813 5 343.154 7.62689 347.83 12.3028C352.506 16.9787 355.133 23.3206 355.133 29.9333V419.067C355.133 425.679 352.506 432.021 347.83 436.697C343.154 441.373 336.813 444 330.2 444H90.7331C84.1204 444 77.7785 441.373 73.1026 436.697C68.4267 432.021 65.7998 425.679 65.7998 419.067V29.9333Z" fill="#3683BC" stroke="white" stroke-width="10"/>
<path d="M152 225.5C152 229.611 150.367 233.553 147.46 236.46C144.553 239.367 140.611 241 136.5 241C132.389 241 128.447 239.367 125.54 236.46C122.633 233.553 121 229.611 121 225.5C121 221.389 122.633 217.447 125.54 214.54C128.447 211.633 132.389 210 136.5 210C140.611 210 144.553 211.633 147.46 214.54C150.367 217.447 152 221.389 152 225.5Z" fill="#3683BC"/>
<path d="M5.93359 434.033C5.93359 431.39 6.98365 428.855 8.85276 426.986C10.7219 425.117 13.2569 424.067 15.9003 424.067H405.034C407.677 424.067 410.212 425.117 412.081 426.986C413.95 428.855 415 431.39 415 434.033C415 436.677 413.95 439.212 412.081 441.081C410.212 442.95 407.677 444 405.034 444H15.9003C13.2569 444 10.7219 442.95 8.85276 441.081C6.98365 439.212 5.93359 436.677 5.93359 434.033Z" fill="#3683BC" stroke="white" stroke-width="10"/>
</g>
</svg>
