<svg width="1280" height="840" viewBox="0 0 1280 840" fill="none" xmlns="http://www.w3.org/2000/svg">
<path d="M492.59 179.135C483.285 179.135 478.452 184.653 478.452 194.319V225.732C478.452 235.398 483.285 240.916 492.59 240.916C501.895 240.916 506.728 235.398 506.728 225.732V206.581H493.456V215.201H497.784V226.349C497.784 230.677 495.872 232.228 492.879 232.228C489.849 232.228 487.974 230.677 487.974 226.349V193.742C487.974 189.414 489.885 187.791 492.879 187.791C495.908 187.791 497.784 189.414 497.784 193.742V200.197H506.764V194.355C506.728 184.689 501.895 179.135 492.59 179.135Z" fill="#24356C"/>
<path d="M526.493 179.135C517.188 179.135 512.066 184.653 512.066 194.319V225.732C512.066 235.398 517.152 240.916 526.493 240.916C535.834 240.916 540.919 235.398 540.919 225.732V194.355C540.919 184.689 535.834 179.135 526.493 179.135ZM531.434 226.349C531.434 230.677 529.522 232.3 526.529 232.3C523.499 232.3 521.624 230.677 521.624 226.349V193.742C521.624 189.414 523.535 187.791 526.529 187.791C529.559 187.791 531.434 189.414 531.434 193.742V226.349Z" fill="#24356C"/>
<path d="M568.978 179.856L556.535 206.148V179.856H547.05V240.231H556.535V221.693L559.457 216.175L568.69 240.231H578.464L565.263 206.761L578.464 179.856H568.978Z" fill="#3683BC"/>
<path d="M604.359 215.994L594.585 179.856H582.684V240.231H591.231V196.483L603.061 240.231H612.799V179.856H604.359V215.994Z" fill="#3683BC"/>
<path d="M633.248 179.135C623.943 179.135 618.822 184.653 618.822 194.319V225.732C618.822 235.398 623.907 240.916 633.248 240.916C642.589 240.916 647.675 235.398 647.675 225.732V194.355C647.675 184.689 642.589 179.135 633.248 179.135ZM638.189 226.349C638.189 230.677 636.278 232.3 633.284 232.3C630.255 232.3 628.379 230.677 628.379 226.349V193.742C628.379 189.414 630.291 187.791 633.284 187.791C636.314 187.791 638.189 189.414 638.189 193.742V226.349Z" fill="#3683BC"/>
<path d="M667.151 179.135C657.846 179.135 653.013 184.653 653.013 194.319V225.732C653.013 235.398 657.846 240.916 667.151 240.916C676.456 240.916 681.289 235.398 681.289 225.732V217.69H672.308V226.349C672.308 230.677 670.397 232.228 667.403 232.228C664.374 232.228 662.498 230.677 662.498 226.349V193.742C662.498 189.414 664.41 187.791 667.403 187.791C670.433 187.791 672.308 189.414 672.308 193.742V200.197H681.289V194.355C681.325 184.689 676.492 179.135 667.151 179.135Z" fill="#3683BC"/>
<path d="M718.509 179.856H709.024L696.581 206.148V179.856H687.096V240.231H696.581V221.693L699.539 216.175L708.772 240.231H718.509L705.309 206.761L718.509 179.856Z" fill="#3683BC"/>
<path d="M434.74 187.103C434.951 187.311 435.236 187.427 435.533 187.427C435.83 187.427 436.115 187.311 436.327 187.103C436.535 186.884 436.651 186.594 436.651 186.291C436.651 185.989 436.535 185.699 436.327 185.48L427.671 176.824C427.565 176.713 427.438 176.625 427.298 176.564C427.157 176.504 427.006 176.471 426.853 176.47C426.7 176.468 426.548 176.497 426.407 176.555C426.265 176.613 426.137 176.699 426.029 176.807C425.921 176.916 425.835 177.044 425.778 177.186C425.72 177.328 425.692 177.48 425.694 177.633C425.696 177.786 425.729 177.937 425.79 178.077C425.851 178.217 425.94 178.344 426.051 178.449L434.74 187.103Z" fill="#3683BC"/>
<path d="M455.369 204.565C455.154 204.349 454.862 204.229 454.558 204.229C454.253 204.229 453.962 204.349 453.746 204.565C453.531 204.78 453.41 205.072 453.41 205.376C453.41 205.681 453.531 205.972 453.746 206.188L462.402 214.844C462.614 215.052 462.899 215.168 463.196 215.168C463.492 215.168 463.777 215.052 463.989 214.844C464.198 214.625 464.314 214.334 464.314 214.032C464.314 213.73 464.198 213.439 463.989 213.221L455.369 204.565Z" fill="#3683BC"/>
<path d="M470.77 194.679H458.544C458.247 194.679 457.963 194.797 457.753 195.007C457.544 195.216 457.426 195.501 457.426 195.797C457.426 196.094 457.544 196.378 457.753 196.588C457.963 196.798 458.247 196.915 458.544 196.915H470.77C471.067 196.915 471.351 196.798 471.561 196.588C471.771 196.378 471.888 196.094 471.888 195.797C471.888 195.501 471.771 195.216 471.561 195.007C471.351 194.797 471.067 194.679 470.77 194.679Z" fill="#3683BC"/>
<path d="M454.576 187.431C454.723 187.431 454.869 187.403 455.005 187.346C455.141 187.29 455.265 187.207 455.369 187.103L464.025 178.447C464.24 178.232 464.361 177.94 464.361 177.636C464.361 177.332 464.24 177.04 464.025 176.824C463.919 176.718 463.792 176.633 463.653 176.576C463.514 176.518 463.364 176.488 463.214 176.488C462.909 176.488 462.617 176.609 462.402 176.824L453.746 185.48C453.538 185.699 453.421 185.99 453.421 186.292C453.421 186.594 453.538 186.885 453.746 187.103C453.974 187.309 454.269 187.426 454.576 187.431Z" fill="#3683BC"/>
<path d="M445.055 183.499C445.351 183.497 445.634 183.379 445.844 183.17C446.053 182.96 446.171 182.677 446.173 182.381V170.118C446.173 169.822 446.055 169.537 445.845 169.327C445.636 169.118 445.351 169 445.055 169C444.758 169 444.474 169.118 444.264 169.327C444.055 169.537 443.937 169.822 443.937 170.118V182.345C443.934 182.494 443.961 182.642 444.015 182.781C444.07 182.92 444.152 183.047 444.256 183.154C444.359 183.262 444.484 183.347 444.621 183.406C444.758 183.465 444.905 183.497 445.055 183.499Z" fill="#3683BC"/>
<path d="M453.566 216.788C453.07 215.886 452.298 215.166 451.364 214.732C452.465 214.012 453.253 212.901 453.567 211.623C453.882 210.346 453.7 208.996 453.059 207.847L452.554 206.945C452.072 206.083 451.36 205.372 450.499 204.889C451.541 204.11 452.269 202.982 452.548 201.71C452.827 200.439 452.64 199.109 452.02 197.965L451.655 197.309C451.192 196.47 450.513 195.77 449.689 195.281C448.865 194.793 447.924 194.534 446.966 194.532H446.714C446.935 193.856 447.014 193.142 446.946 192.435C446.877 191.727 446.663 191.041 446.317 190.42L445.812 189.519C445.362 188.698 444.699 188.014 443.893 187.538C443.087 187.063 442.168 186.814 441.232 186.817C440.349 186.818 439.481 187.041 438.707 187.466L429.149 192.804L423.812 190.784C422.461 190.256 420.994 190.094 419.56 190.314C417.699 190.618 416.003 191.562 414.763 192.983C414.727 192.983 414.727 193.019 414.727 193.055L404.629 206.075C404.593 206.147 404.557 206.185 404.519 206.256C401.889 211.569 401.294 217.661 402.849 223.382C404.403 229.104 407.998 234.058 412.956 237.31C416.922 239.739 421.467 241.061 426.118 241.135C428.652 241.137 431.166 240.698 433.55 239.837C439.128 237.717 443.701 233.569 446.353 228.223L452.34 224.905C452.912 224.592 453.417 224.168 453.825 223.659C454.233 223.15 454.536 222.565 454.717 221.938C454.898 221.311 454.953 220.655 454.879 220.007C454.806 219.358 454.605 218.731 454.288 218.161L453.566 216.788ZM450.537 208.02L451.042 208.921C451.231 209.259 451.351 209.632 451.396 210.017C451.44 210.402 451.408 210.791 451.3 211.164C451.193 211.536 451.013 211.883 450.77 212.186C450.528 212.488 450.228 212.739 449.888 212.925C448.445 213.79 439.861 218.912 438.058 219.38C437.832 219.426 437.603 219.45 437.373 219.453C436.844 219.452 436.326 219.312 435.87 219.046C435.413 218.78 435.036 218.397 434.776 217.938L434.271 217.036C434.079 216.7 433.958 216.328 433.915 215.944C433.871 215.56 433.907 215.17 434.018 214.8C434.142 214.333 434.392 213.909 434.74 213.574L447.615 206.545C447.725 206.545 447.834 206.509 447.943 206.509C448.472 206.501 448.993 206.637 449.45 206.903C449.908 207.169 450.283 207.555 450.537 208.02ZM445.451 197.276C445.902 197.019 446.411 196.883 446.93 196.879C447.472 196.881 448.004 197.026 448.472 197.298C448.94 197.57 449.329 197.961 449.599 198.43L449.96 199.079C450.16 199.425 450.286 199.81 450.329 200.207C450.373 200.604 450.333 201.007 450.212 201.388C450.109 201.776 449.928 202.14 449.68 202.456C449.432 202.772 449.122 203.035 448.77 203.227L446.678 204.381C442.386 206.726 438.094 209.07 433.802 211.376C433.576 211.418 433.347 211.442 433.117 211.448C432.533 211.437 431.961 211.276 431.458 210.979C431.042 210.701 430.696 210.331 430.448 209.897L430.087 209.248C430.087 209.212 430.051 209.212 430.051 209.176C429.699 208.486 429.609 207.691 429.799 206.94C429.905 206.558 430.09 206.202 430.34 205.894C431.375 205.931 432.411 205.894 433.441 205.785C434.534 205.667 435.577 205.27 436.471 204.631C436.688 204.494 436.882 204.323 437.048 204.127C437.938 203.243 438.541 202.112 438.779 200.881L440.583 199.871L445.451 197.276ZM439.753 189.516C440.194 189.271 440.691 189.147 441.196 189.156C441.724 189.156 442.242 189.296 442.699 189.563C443.155 189.829 443.532 190.211 443.792 190.671L444.297 191.572C444.487 191.91 444.607 192.283 444.651 192.668C444.696 193.053 444.663 193.442 444.556 193.815C444.448 194.187 444.268 194.534 444.026 194.837C443.783 195.139 443.483 195.39 443.143 195.576L438.96 197.889C438.931 197.574 438.883 197.261 438.815 196.952C438.777 196.772 438.695 196.605 438.575 196.467C438.455 196.328 438.302 196.222 438.13 196.158L431.927 193.812L439.753 189.516ZM432.828 237.856C423.631 241.21 415.625 236.486 414.11 235.512C409.599 232.557 406.324 228.055 404.902 222.854C403.481 217.652 404.01 212.11 406.392 207.272L416.382 194.358C417.294 193.332 418.527 192.645 419.879 192.41C420.949 192.241 422.045 192.366 423.049 192.771L426.583 194.106L426.728 194.178L428.134 194.719L429.505 195.265L432.57 196.419L436.828 197.997C436.874 198.356 436.898 198.718 436.9 199.079V199.407C436.885 199.76 436.837 200.11 436.756 200.453C436.72 200.598 436.684 200.742 436.647 200.85C436.51 201.311 436.303 201.749 436.034 202.148C435.888 202.339 435.732 202.522 435.565 202.695C435.465 202.79 435.355 202.875 435.237 202.947C434.973 203.145 434.681 203.303 434.371 203.416C433.979 203.571 433.566 203.668 433.145 203.705C432.523 203.78 431.897 203.817 431.27 203.814H430.188C429.863 203.82 429.538 203.808 429.214 203.778C427.904 203.669 426.609 203.415 425.355 203.021C424.755 202.836 424.165 202.619 423.588 202.371L422.614 201.934C422.487 201.866 422.347 201.827 422.203 201.821C422.06 201.815 421.916 201.841 421.784 201.898C421.519 201.997 421.3 202.192 421.171 202.445L419.584 205.799C419.499 205.986 419.468 206.192 419.493 206.396C419.519 206.6 419.6 206.793 419.729 206.953C421.852 209.364 422.952 212.508 422.794 215.717C422.621 218.011 421.781 220.205 420.378 222.029C420.215 222.254 420.147 222.534 420.189 222.808C420.232 223.083 420.38 223.33 420.603 223.496C420.826 223.661 421.105 223.733 421.38 223.695C421.655 223.656 421.904 223.511 422.073 223.291L422.401 222.854C423.852 220.778 424.712 218.347 424.889 215.821C425.102 212.285 423.983 208.798 421.752 206.047L422.617 204.244C424.265 204.949 425.999 205.434 427.775 205.686C427.459 206.436 427.318 207.247 427.362 208.059C427.406 208.872 427.633 209.663 428.027 210.375L428.316 210.88L428.388 211.024C428.734 211.649 429.2 212.201 429.758 212.647C430.42 213.152 431.182 213.509 431.994 213.693C431.721 214.41 431.605 215.177 431.654 215.942C431.704 216.708 431.919 217.454 432.283 218.129L432.788 219.031C433.164 219.7 433.682 220.279 434.305 220.727C434.927 221.176 435.641 221.483 436.394 221.627C435.849 222.738 435.746 224.014 436.106 225.198C436.221 225.547 436.367 225.885 436.543 226.208L437.3 227.542C437.499 227.896 437.742 228.223 438.022 228.516C438.489 229.015 439.053 229.412 439.679 229.684C440.306 229.956 440.982 230.096 441.664 230.096C442.054 230.102 442.442 230.053 442.819 229.952C440.399 233.568 436.904 236.333 432.828 237.856ZM452.665 221.338C452.458 222.055 451.979 222.664 451.33 223.033L446.209 225.882L444.766 226.676L443.071 227.613C442.656 227.858 442.182 227.983 441.701 227.974C441.34 227.977 440.981 227.909 440.647 227.773C440.313 227.637 440.009 227.435 439.753 227.181C439.557 226.987 439.387 226.769 439.248 226.531L438.779 225.666L438.491 225.197C438.139 224.546 438.048 223.785 438.238 223.069C438.445 222.351 438.924 221.743 439.573 221.374L443.932 218.949L445.231 218.227L446.241 217.686L447.9 216.785C448.314 216.54 448.789 216.415 449.27 216.424C449.771 216.42 450.264 216.551 450.696 216.806C451.128 217.06 451.483 217.426 451.723 217.867L452.48 219.201C452.776 219.871 452.841 220.621 452.665 221.332V221.338Z" fill="#24356C"/>
<path d="M435.245 202.938L434.379 203.407C434.696 203.31 434.99 203.15 435.245 202.938Z" fill="#24356C"/>
<path d="M445.4 333.4H463.64V323.8H434.84V391H463.64V381.4H445.4V361.72H459.896V352.12H445.4V333.4ZM503.016 391C501.96 388.504 501.864 386.104 501.864 382.84V372.472C501.864 365.464 500.136 360.376 494.856 358.168C499.56 355.96 501.768 351.448 501.768 344.536V339.256C501.768 328.888 497.064 323.8 486.12 323.8H470.184V391H480.744V363.64H484.392C489.192 363.64 491.304 365.944 491.304 372.184V382.744C491.304 388.216 491.688 389.272 492.264 391H503.016ZM485.832 333.4C489.576 333.4 491.208 335.512 491.208 340.312V346.936C491.208 352.312 488.808 354.04 484.872 354.04H480.744V333.4H485.832ZM541.641 391C540.585 388.504 540.489 386.104 540.489 382.84V372.472C540.489 365.464 538.761 360.376 533.481 358.168C538.185 355.96 540.393 351.448 540.393 344.536V339.256C540.393 328.888 535.689 323.8 524.745 323.8H508.809V391H519.369V363.64H523.017C527.817 363.64 529.929 365.944 529.929 372.184V382.744C529.929 388.216 530.313 389.272 530.889 391H541.641ZM524.457 333.4C528.201 333.4 529.833 335.512 529.833 340.312V346.936C529.833 352.312 527.433 354.04 523.497 354.04H519.369V333.4H524.457ZM557.13 339.256C557.13 334.456 559.242 332.632 562.602 332.632C565.962 332.632 568.074 334.456 568.074 339.256V375.544C568.074 380.344 565.962 382.168 562.602 382.168C559.242 382.168 557.13 380.344 557.13 375.544V339.256ZM546.57 374.872C546.57 385.624 552.234 391.768 562.602 391.768C572.97 391.768 578.634 385.624 578.634 374.872V339.928C578.634 329.176 572.97 323.032 562.602 323.032C552.234 323.032 546.57 329.176 546.57 339.928V374.872ZM618.328 391C617.272 388.504 617.176 386.104 617.176 382.84V372.472C617.176 365.464 615.448 360.376 610.168 358.168C614.872 355.96 617.08 351.448 617.08 344.536V339.256C617.08 328.888 612.376 323.8 601.432 323.8H585.496V391H596.056V363.64H599.704C604.504 363.64 606.616 365.944 606.616 372.184V382.744C606.616 388.216 607 389.272 607.576 391H618.328ZM601.144 333.4C604.888 333.4 606.52 335.512 606.52 340.312V346.936C606.52 352.312 604.12 354.04 600.184 354.04H596.056V333.4H601.144ZM636.532 378.808H656.884V391H667.252V378.808H672.244V369.208H667.252V323.8H655.732L636.532 369.208V378.808ZM646.228 369.208L656.884 343.96V369.208H646.228ZM686.786 339.256C686.786 334.456 688.898 332.632 692.258 332.632C695.618 332.632 697.73 334.456 697.73 339.256V375.544C697.73 380.344 695.618 382.168 692.258 382.168C688.898 382.168 686.786 380.344 686.786 375.544V339.256ZM676.226 374.872C676.226 385.624 681.89 391.768 692.258 391.768C702.626 391.768 708.29 385.624 708.29 374.872V339.928C708.29 329.176 702.626 323.032 692.258 323.032C681.89 323.032 676.226 329.176 676.226 339.928V374.872ZM712.657 378.808H733.009V391H743.377V378.808H748.369V369.208H743.377V323.8H731.857L712.657 369.208V378.808ZM722.353 369.208L733.009 343.96V369.208H722.353Z" fill="#3683BC"/>
<path d="M457.031 559C456.751 559 456.581 558.87 456.521 558.61L451.001 538.51C450.981 538.47 450.971 538.41 450.971 538.33C450.971 538.11 451.101 538 451.361 538H453.521C453.781 538 453.941 538.13 454.001 538.39L457.901 553.15C457.921 553.21 457.951 553.24 457.991 553.24C458.031 553.24 458.061 553.21 458.081 553.15L461.741 538.39C461.801 538.13 461.961 538 462.221 538H464.351C464.611 538 464.771 538.13 464.831 538.39L468.701 553.15C468.721 553.21 468.751 553.24 468.791 553.24C468.831 553.24 468.861 553.21 468.881 553.15L472.781 538.39C472.841 538.13 473.001 538 473.261 538H475.271C475.431 538 475.541 538.05 475.601 538.15C475.681 538.23 475.701 538.35 475.661 538.51L470.291 558.61C470.231 558.87 470.071 559 469.811 559H467.741C467.481 559 467.321 558.87 467.261 558.61L463.391 543.31C463.371 543.25 463.341 543.22 463.301 543.22C463.261 543.22 463.231 543.25 463.211 543.31L459.461 558.61C459.401 558.87 459.241 559 458.981 559H457.031ZM492.443 540.04C492.443 540.18 492.403 540.29 492.323 540.37C492.243 540.45 492.133 540.49 491.993 540.49H481.523C481.423 540.49 481.373 540.54 481.373 540.64V547.03C481.373 547.13 481.423 547.18 481.523 547.18H488.663C488.803 547.18 488.913 547.22 488.993 547.3C489.073 547.38 489.113 547.49 489.113 547.63V549.22C489.113 549.36 489.073 549.47 488.993 549.55C488.913 549.63 488.803 549.67 488.663 549.67H481.523C481.423 549.67 481.373 549.72 481.373 549.82V556.36C481.373 556.46 481.423 556.51 481.523 556.51H491.993C492.133 556.51 492.243 556.55 492.323 556.63C492.403 556.71 492.443 556.82 492.443 556.96V558.55C492.443 558.69 492.403 558.8 492.323 558.88C492.243 558.96 492.133 559 491.993 559H478.943C478.803 559 478.693 558.96 478.613 558.88C478.533 558.8 478.493 558.69 478.493 558.55V538.45C478.493 538.31 478.533 538.2 478.613 538.12C478.693 538.04 478.803 538 478.943 538H491.993C492.133 538 492.243 538.04 492.323 538.12C492.403 538.2 492.443 538.31 492.443 538.45V540.04ZM515.299 559C515.039 559 514.869 558.88 514.789 558.64L513.739 555.28C513.699 555.2 513.649 555.16 513.589 555.16H505.219C505.159 555.16 505.109 555.2 505.069 555.28L504.019 558.64C503.939 558.88 503.769 559 503.509 559H501.379C501.039 559 500.919 558.83 501.019 558.49L507.499 538.36C507.579 538.12 507.749 538 508.009 538H510.769C511.029 538 511.199 538.12 511.279 538.36L517.819 558.49C517.839 558.53 517.849 558.59 517.849 558.67C517.849 558.89 517.719 559 517.459 559H515.299ZM505.849 552.7C505.829 552.82 505.869 552.88 505.969 552.88H512.839C512.959 552.88 512.999 552.82 512.959 552.7L509.479 541.51C509.459 541.43 509.429 541.39 509.389 541.39C509.349 541.39 509.319 541.43 509.299 541.51L505.849 552.7ZM533.415 559C533.175 559 533.005 558.89 532.905 558.67L528.765 549.79C528.725 549.71 528.665 549.67 528.585 549.67H524.355C524.255 549.67 524.205 549.72 524.205 549.82V558.55C524.205 558.69 524.165 558.8 524.085 558.88C524.005 558.96 523.895 559 523.755 559H521.775C521.635 559 521.525 558.96 521.445 558.88C521.365 558.8 521.325 558.69 521.325 558.55V538.42C521.325 538.28 521.365 538.17 521.445 538.09C521.525 538.01 521.635 537.97 521.775 537.97H529.695C530.895 537.97 531.945 538.22 532.845 538.72C533.765 539.22 534.475 539.92 534.975 540.82C535.475 541.72 535.725 542.76 535.725 543.94C535.725 545.32 535.355 546.5 534.615 547.48C533.875 548.44 532.875 549.09 531.615 549.43C531.535 549.47 531.505 549.53 531.525 549.61L535.785 558.46L535.845 558.7C535.845 558.9 535.715 559 535.455 559H533.415ZM524.355 540.46C524.255 540.46 524.205 540.51 524.205 540.61V547.27C524.205 547.37 524.255 547.42 524.355 547.42H529.335C530.375 547.42 531.215 547.1 531.855 546.46C532.515 545.82 532.845 544.99 532.845 543.97C532.845 542.91 532.525 542.06 531.885 541.42C531.245 540.78 530.395 540.46 529.335 540.46H524.355ZM553.674 540.04C553.674 540.18 553.634 540.29 553.554 540.37C553.474 540.45 553.364 540.49 553.224 540.49H542.754C542.654 540.49 542.604 540.54 542.604 540.64V547.03C542.604 547.13 542.654 547.18 542.754 547.18H549.894C550.034 547.18 550.144 547.22 550.224 547.3C550.304 547.38 550.344 547.49 550.344 547.63V549.22C550.344 549.36 550.304 549.47 550.224 549.55C550.144 549.63 550.034 549.67 549.894 549.67H542.754C542.654 549.67 542.604 549.72 542.604 549.82V556.36C542.604 556.46 542.654 556.51 542.754 556.51H553.224C553.364 556.51 553.474 556.55 553.554 556.63C553.634 556.71 553.674 556.82 553.674 556.96V558.55C553.674 558.69 553.634 558.8 553.554 558.88C553.474 558.96 553.364 559 553.224 559H540.174C540.034 559 539.924 558.96 539.844 558.88C539.764 558.8 539.724 558.69 539.724 558.55V538.45C539.724 538.31 539.764 538.2 539.844 538.12C539.924 538.04 540.034 538 540.174 538H553.224C553.364 538 553.474 538.04 553.554 538.12C553.634 538.2 553.674 538.31 553.674 538.45V540.04ZM567.949 559C567.669 559 567.499 558.87 567.439 558.61L561.919 538.51C561.899 538.47 561.889 538.41 561.889 538.33C561.889 538.11 562.019 538 562.279 538H564.439C564.699 538 564.859 538.13 564.919 538.39L568.819 553.15C568.839 553.21 568.869 553.24 568.909 553.24C568.949 553.24 568.979 553.21 568.999 553.15L572.659 538.39C572.719 538.13 572.879 538 573.139 538H575.269C575.529 538 575.689 538.13 575.749 538.39L579.619 553.15C579.639 553.21 579.669 553.24 579.709 553.24C579.749 553.24 579.779 553.21 579.799 553.15L583.699 538.39C583.759 538.13 583.919 538 584.179 538H586.189C586.349 538 586.459 538.05 586.519 538.15C586.599 538.23 586.619 538.35 586.579 538.51L581.209 558.61C581.149 558.87 580.989 559 580.729 559H578.659C578.399 559 578.239 558.87 578.179 558.61L574.309 543.31C574.289 543.25 574.259 543.22 574.219 543.22C574.179 543.22 574.149 543.25 574.129 543.31L570.379 558.61C570.319 558.87 570.159 559 569.899 559H567.949ZM595.782 559.27C594.322 559.27 593.032 558.97 591.912 558.37C590.792 557.77 589.922 556.93 589.302 555.85C588.682 554.75 588.372 553.49 588.372 552.07V544.93C588.372 543.51 588.682 542.26 589.302 541.18C589.922 540.1 590.792 539.26 591.912 538.66C593.032 538.06 594.322 537.76 595.782 537.76C597.262 537.76 598.562 538.06 599.682 538.66C600.802 539.26 601.672 540.1 602.292 541.18C602.912 542.26 603.222 543.51 603.222 544.93V552.07C603.222 553.49 602.912 554.75 602.292 555.85C601.672 556.93 600.802 557.77 599.682 558.37C598.562 558.97 597.262 559.27 595.782 559.27ZM595.782 556.78C597.142 556.78 598.242 556.36 599.082 555.52C599.922 554.68 600.342 553.57 600.342 552.19V544.9C600.342 543.5 599.922 542.38 599.082 541.54C598.242 540.68 597.142 540.25 595.782 540.25C594.422 540.25 593.322 540.68 592.482 541.54C591.662 542.38 591.252 543.5 591.252 544.9V552.19C591.252 553.57 591.662 554.68 592.482 555.52C593.322 556.36 594.422 556.78 595.782 556.78ZM619.695 559C619.455 559 619.285 558.89 619.185 558.67L615.045 549.79C615.005 549.71 614.945 549.67 614.865 549.67H610.635C610.535 549.67 610.485 549.72 610.485 549.82V558.55C610.485 558.69 610.445 558.8 610.365 558.88C610.285 558.96 610.175 559 610.035 559H608.055C607.915 559 607.805 558.96 607.725 558.88C607.645 558.8 607.605 558.69 607.605 558.55V538.42C607.605 538.28 607.645 538.17 607.725 538.09C607.805 538.01 607.915 537.97 608.055 537.97H615.975C617.175 537.97 618.225 538.22 619.125 538.72C620.045 539.22 620.755 539.92 621.255 540.82C621.755 541.72 622.005 542.76 622.005 543.94C622.005 545.32 621.635 546.5 620.895 547.48C620.155 548.44 619.155 549.09 617.895 549.43C617.815 549.47 617.785 549.53 617.805 549.61L622.065 558.46L622.125 558.7C622.125 558.9 621.995 559 621.735 559H619.695ZM610.635 540.46C610.535 540.46 610.485 540.51 610.485 540.61V547.27C610.485 547.37 610.535 547.42 610.635 547.42H615.615C616.655 547.42 617.495 547.1 618.135 546.46C618.795 545.82 619.125 544.99 619.125 543.97C619.125 542.91 618.805 542.06 618.165 541.42C617.525 540.78 616.675 540.46 615.615 540.46H610.635ZM626.453 559C626.313 559 626.203 558.96 626.123 558.88C626.043 558.8 626.003 558.69 626.003 558.55V538.45C626.003 538.31 626.043 538.2 626.123 538.12C626.203 538.04 626.313 538 626.453 538H628.433C628.573 538 628.683 538.04 628.763 538.12C628.843 538.2 628.883 538.31 628.883 538.45V547.81C628.883 547.87 628.903 547.91 628.943 547.93C628.983 547.95 629.023 547.93 629.063 547.87L637.553 538.24C637.693 538.08 637.873 538 638.093 538H640.343C640.583 538 640.703 538.08 640.703 538.24C640.703 538.34 640.663 538.44 640.583 538.54L633.653 546.79C633.593 546.87 633.583 546.94 633.623 547L641.153 558.46C641.213 558.54 641.243 558.63 641.243 558.73C641.243 558.91 641.113 559 640.853 559H638.603C638.363 559 638.183 558.9 638.063 558.7L631.643 549.04C631.563 548.92 631.493 548.91 631.433 549.01L628.943 551.77C628.903 551.85 628.883 551.92 628.883 551.98V558.55C628.883 558.69 628.843 558.8 628.763 558.88C628.683 558.96 628.573 559 628.433 559H626.453ZM644.939 559C644.799 559 644.689 558.96 644.609 558.88C644.529 558.8 644.489 558.69 644.489 558.55V538.45C644.489 538.31 644.529 538.2 644.609 538.12C644.689 538.04 644.799 538 644.939 538H646.919C647.059 538 647.169 538.04 647.249 538.12C647.329 538.2 647.369 538.31 647.369 538.45V558.55C647.369 558.69 647.329 558.8 647.249 558.88C647.169 558.96 647.059 559 646.919 559H644.939ZM652.732 559C652.592 559 652.482 558.96 652.402 558.88C652.322 558.8 652.282 558.69 652.282 558.55V538.45C652.282 538.31 652.322 538.2 652.402 538.12C652.482 538.04 652.592 538 652.732 538H654.652C654.892 538 655.072 538.1 655.192 538.3L664.372 553.15C664.412 553.21 664.452 553.24 664.492 553.24C664.532 553.22 664.552 553.17 664.552 553.09V538.45C664.552 538.31 664.592 538.2 664.672 538.12C664.752 538.04 664.862 538 665.002 538H666.982C667.122 538 667.232 538.04 667.312 538.12C667.392 538.2 667.432 538.31 667.432 538.45V558.55C667.432 558.69 667.392 558.8 667.312 558.88C667.232 558.96 667.122 559 666.982 559H665.032C664.792 559 664.612 558.9 664.492 558.7L655.312 543.76C655.272 543.7 655.232 543.68 655.192 543.7C655.152 543.7 655.132 543.74 655.132 543.82L655.162 558.55C655.162 558.69 655.122 558.8 655.042 558.88C654.962 558.96 654.852 559 654.712 559H652.732ZM679.071 559.24C677.631 559.24 676.351 558.96 675.231 558.4C674.131 557.82 673.271 557.01 672.651 555.97C672.051 554.91 671.751 553.7 671.751 552.34V544.66C671.751 543.28 672.051 542.07 672.651 541.03C673.271 539.99 674.131 539.19 675.231 538.63C676.351 538.05 677.631 537.76 679.071 537.76C680.511 537.76 681.781 538.04 682.881 538.6C683.981 539.16 684.831 539.94 685.431 540.94C686.051 541.92 686.361 543.03 686.361 544.27V544.45C686.361 544.59 686.321 544.7 686.241 544.78C686.161 544.86 686.051 544.9 685.911 544.9H683.931C683.791 544.9 683.681 544.87 683.601 544.81C683.521 544.75 683.481 544.68 683.481 544.6V544.33C683.481 543.13 683.071 542.16 682.251 541.42C681.451 540.66 680.391 540.28 679.071 540.28C677.731 540.28 676.651 540.67 675.831 541.45C675.031 542.23 674.631 543.27 674.631 544.57V552.43C674.631 553.73 675.051 554.77 675.891 555.55C676.731 556.33 677.831 556.72 679.191 556.72C680.511 556.72 681.551 556.38 682.311 555.7C683.091 555 683.481 554.05 683.481 552.85V550.57C683.481 550.47 683.431 550.42 683.331 550.42H679.461C679.321 550.42 679.211 550.38 679.131 550.3C679.051 550.22 679.011 550.11 679.011 549.97V548.41C679.011 548.27 679.051 548.16 679.131 548.08C679.211 548 679.321 547.96 679.461 547.96H685.911C686.051 547.96 686.161 548 686.241 548.08C686.321 548.16 686.361 548.27 686.361 548.41V552.07C686.361 554.37 685.701 556.14 684.381 557.38C683.081 558.62 681.311 559.24 679.071 559.24ZM703.361 559.27C701.901 559.27 700.611 558.97 699.491 558.37C698.371 557.77 697.501 556.93 696.881 555.85C696.261 554.75 695.951 553.49 695.951 552.07V544.93C695.951 543.51 696.261 542.26 696.881 541.18C697.501 540.1 698.371 539.26 699.491 538.66C700.611 538.06 701.901 537.76 703.361 537.76C704.841 537.76 706.141 538.06 707.261 538.66C708.381 539.26 709.251 540.1 709.871 541.18C710.491 542.26 710.801 543.51 710.801 544.93V552.07C710.801 553.49 710.491 554.75 709.871 555.85C709.251 556.93 708.381 557.77 707.261 558.37C706.141 558.97 704.841 559.27 703.361 559.27ZM703.361 556.78C704.721 556.78 705.821 556.36 706.661 555.52C707.501 554.68 707.921 553.57 707.921 552.19V544.9C707.921 543.5 707.501 542.38 706.661 541.54C705.821 540.68 704.721 540.25 703.361 540.25C702.001 540.25 700.901 540.68 700.061 541.54C699.241 542.38 698.831 543.5 698.831 544.9V552.19C698.831 553.57 699.241 554.68 700.061 555.52C700.901 556.36 702.001 556.78 703.361 556.78ZM715.633 559C715.493 559 715.383 558.96 715.303 558.88C715.223 558.8 715.183 558.69 715.183 558.55V538.45C715.183 538.31 715.223 538.2 715.303 538.12C715.383 538.04 715.493 538 715.633 538H717.553C717.793 538 717.973 538.1 718.093 538.3L727.273 553.15C727.313 553.21 727.353 553.24 727.393 553.24C727.433 553.22 727.453 553.17 727.453 553.09V538.45C727.453 538.31 727.493 538.2 727.573 538.12C727.653 538.04 727.763 538 727.903 538H729.883C730.023 538 730.133 538.04 730.213 538.12C730.293 538.2 730.333 538.31 730.333 538.45V558.55C730.333 558.69 730.293 558.8 730.213 558.88C730.133 558.96 730.023 559 729.883 559H727.933C727.693 559 727.513 558.9 727.393 558.7L718.213 543.76C718.173 543.7 718.133 543.68 718.093 543.7C718.053 543.7 718.033 543.74 718.033 543.82L718.063 558.55C718.063 558.69 718.023 558.8 717.943 558.88C717.863 558.96 717.753 559 717.613 559H715.633ZM741.678 559C741.538 559 741.428 558.96 741.348 558.88C741.268 558.8 741.228 558.69 741.228 558.55V538.45C741.228 538.31 741.268 538.2 741.348 538.12C741.428 538.04 741.538 538 741.678 538H743.658C743.798 538 743.908 538.04 743.988 538.12C744.068 538.2 744.108 538.31 744.108 538.45V558.55C744.108 558.69 744.068 558.8 743.988 558.88C743.908 558.96 743.798 559 743.658 559H741.678ZM762.221 538C762.361 538 762.471 538.04 762.551 538.12C762.631 538.2 762.671 538.31 762.671 538.45V540.07C762.671 540.21 762.631 540.32 762.551 540.4C762.471 540.48 762.361 540.52 762.221 540.52H756.641C756.541 540.52 756.491 540.57 756.491 540.67V558.55C756.491 558.69 756.451 558.8 756.371 558.88C756.291 558.96 756.181 559 756.041 559H754.061C753.921 559 753.811 558.96 753.731 558.88C753.651 558.8 753.611 558.69 753.611 558.55V540.67C753.611 540.57 753.561 540.52 753.461 540.52H748.151C748.011 540.52 747.901 540.48 747.821 540.4C747.741 540.32 747.701 540.21 747.701 540.07V538.45C747.701 538.31 747.741 538.2 747.821 538.12C747.901 538.04 748.011 538 748.151 538H762.221ZM768.017 552.04C767.877 552.04 767.767 552 767.687 551.92C767.607 551.84 767.567 551.73 767.567 551.59L767.297 538.45C767.297 538.31 767.337 538.2 767.417 538.12C767.497 538.04 767.607 538 767.747 538H769.727C769.867 538 769.977 538.04 770.057 538.12C770.137 538.2 770.177 538.31 770.177 538.45L769.937 551.59C769.937 551.73 769.897 551.84 769.817 551.92C769.737 552 769.627 552.04 769.487 552.04H768.017ZM768.677 558.91C768.057 558.91 767.537 558.71 767.117 558.31C766.717 557.91 766.517 557.42 766.517 556.84C766.517 556.28 766.737 555.8 767.177 555.4C767.617 554.98 768.117 554.77 768.677 554.77C769.257 554.77 769.767 554.98 770.207 555.4C770.647 555.8 770.867 556.28 770.867 556.84C770.867 557.42 770.657 557.91 770.237 558.31C769.817 558.71 769.297 558.91 768.677 558.91ZM378.207 595C378.067 595 377.957 594.96 377.877 594.88C377.797 594.8 377.757 594.69 377.757 594.55V574.45C377.757 574.31 377.797 574.2 377.877 574.12C377.957 574.04 378.067 574 378.207 574H380.217C380.457 574 380.637 574.1 380.757 574.3L385.797 582.34C385.857 582.46 385.917 582.46 385.977 582.34L391.047 574.3C391.167 574.1 391.347 574 391.587 574H393.597C393.737 574 393.847 574.04 393.927 574.12C394.007 574.2 394.047 574.31 394.047 574.45V594.55C394.047 594.69 394.007 594.8 393.927 594.88C393.847 594.96 393.737 595 393.597 595H391.617C391.477 595 391.367 594.96 391.287 594.88C391.207 594.8 391.167 594.69 391.167 594.55V579.31C391.167 579.23 391.147 579.19 391.107 579.19C391.067 579.17 391.027 579.19 390.987 579.25L386.907 585.91C386.787 586.11 386.607 586.21 386.367 586.21H385.407C385.167 586.21 384.987 586.11 384.867 585.91L380.817 579.25C380.777 579.19 380.737 579.17 380.697 579.19C380.657 579.19 380.637 579.23 380.637 579.31V594.55C380.637 594.69 380.597 594.8 380.517 594.88C380.437 594.96 380.327 595 380.187 595H378.207ZM412.595 576.04C412.595 576.18 412.555 576.29 412.475 576.37C412.395 576.45 412.285 576.49 412.145 576.49H401.675C401.575 576.49 401.525 576.54 401.525 576.64V583.03C401.525 583.13 401.575 583.18 401.675 583.18H408.815C408.955 583.18 409.065 583.22 409.145 583.3C409.225 583.38 409.265 583.49 409.265 583.63V585.22C409.265 585.36 409.225 585.47 409.145 585.55C409.065 585.63 408.955 585.67 408.815 585.67H401.675C401.575 585.67 401.525 585.72 401.525 585.82V592.36C401.525 592.46 401.575 592.51 401.675 592.51H412.145C412.285 592.51 412.395 592.55 412.475 592.63C412.555 592.71 412.595 592.82 412.595 592.96V594.55C412.595 594.69 412.555 594.8 412.475 594.88C412.395 594.96 412.285 595 412.145 595H399.095C398.955 595 398.845 594.96 398.765 594.88C398.685 594.8 398.645 594.69 398.645 594.55V574.45C398.645 574.31 398.685 574.2 398.765 574.12C398.845 574.04 398.955 574 399.095 574H412.145C412.285 574 412.395 574.04 412.475 574.12C412.555 574.2 412.595 574.31 412.595 574.45V576.04ZM429.444 595C429.184 595 429.014 594.88 428.934 594.64L427.884 591.28C427.844 591.2 427.794 591.16 427.734 591.16H419.364C419.304 591.16 419.254 591.2 419.214 591.28L418.164 594.64C418.084 594.88 417.914 595 417.654 595H415.524C415.184 595 415.064 594.83 415.164 594.49L421.644 574.36C421.724 574.12 421.894 574 422.154 574H424.914C425.174 574 425.344 574.12 425.424 574.36L431.964 594.49C431.984 594.53 431.994 594.59 431.994 594.67C431.994 594.89 431.864 595 431.604 595H429.444ZM419.994 588.7C419.974 588.82 420.014 588.88 420.114 588.88H426.984C427.104 588.88 427.144 588.82 427.104 588.7L423.624 577.51C423.604 577.43 423.574 577.39 423.534 577.39C423.494 577.39 423.464 577.43 423.444 577.51L419.994 588.7ZM435.921 595C435.781 595 435.671 594.96 435.591 594.88C435.511 594.8 435.471 594.69 435.471 594.55V574.45C435.471 574.31 435.511 574.2 435.591 574.12C435.671 574.04 435.781 574 435.921 574H437.841C438.081 574 438.261 574.1 438.381 574.3L447.561 589.15C447.601 589.21 447.641 589.24 447.681 589.24C447.721 589.22 447.741 589.17 447.741 589.09V574.45C447.741 574.31 447.781 574.2 447.861 574.12C447.941 574.04 448.051 574 448.191 574H450.171C450.311 574 450.421 574.04 450.501 574.12C450.581 574.2 450.621 574.31 450.621 574.45V594.55C450.621 594.69 450.581 594.8 450.501 594.88C450.421 594.96 450.311 595 450.171 595H448.221C447.981 595 447.801 594.9 447.681 594.7L438.501 579.76C438.461 579.7 438.421 579.68 438.381 579.7C438.341 579.7 438.321 579.74 438.321 579.82L438.351 594.55C438.351 594.69 438.311 594.8 438.231 594.88C438.151 594.96 438.041 595 437.901 595H435.921ZM459.8 595C459.52 595 459.35 594.87 459.29 594.61L453.77 574.51C453.75 574.47 453.74 574.41 453.74 574.33C453.74 574.11 453.87 574 454.13 574H456.29C456.55 574 456.71 574.13 456.77 574.39L460.67 589.15C460.69 589.21 460.72 589.24 460.76 589.24C460.8 589.24 460.83 589.21 460.85 589.15L464.51 574.39C464.57 574.13 464.73 574 464.99 574H467.12C467.38 574 467.54 574.13 467.6 574.39L471.47 589.15C471.49 589.21 471.52 589.24 471.56 589.24C471.6 589.24 471.63 589.21 471.65 589.15L475.55 574.39C475.61 574.13 475.77 574 476.03 574H478.04C478.2 574 478.31 574.05 478.37 574.15C478.45 574.23 478.47 574.35 478.43 574.51L473.06 594.61C473 594.87 472.84 595 472.58 595H470.51C470.25 595 470.09 594.87 470.03 594.61L466.16 579.31C466.14 579.25 466.11 579.22 466.07 579.22C466.03 579.22 466 579.25 465.98 579.31L462.23 594.61C462.17 594.87 462.01 595 461.75 595H459.8ZM493.254 574.45C493.254 574.31 493.294 574.2 493.374 574.12C493.454 574.04 493.564 574 493.704 574H495.684C495.824 574 495.934 574.04 496.014 574.12C496.094 574.2 496.134 574.31 496.134 574.45V594.55C496.134 594.69 496.094 594.8 496.014 594.88C495.934 594.96 495.824 595 495.684 595H493.704C493.564 595 493.454 594.96 493.374 594.88C493.294 594.8 493.254 594.69 493.254 594.55V585.82C493.254 585.72 493.204 585.67 493.104 585.67H484.614C484.514 585.67 484.464 585.72 484.464 585.82V594.55C484.464 594.69 484.424 594.8 484.344 594.88C484.264 594.96 484.154 595 484.014 595H482.034C481.894 595 481.784 594.96 481.704 594.88C481.624 594.8 481.584 594.69 481.584 594.55V574.45C481.584 574.31 481.624 574.2 481.704 574.12C481.784 574.04 481.894 574 482.034 574H484.014C484.154 574 484.264 574.04 484.344 574.12C484.424 574.2 484.464 574.31 484.464 574.45V583.03C484.464 583.13 484.514 583.18 484.614 583.18H493.104C493.204 583.18 493.254 583.13 493.254 583.03V574.45ZM501.37 595C501.23 595 501.12 594.96 501.04 594.88C500.96 594.8 500.92 594.69 500.92 594.55V574.45C500.92 574.31 500.96 574.2 501.04 574.12C501.12 574.04 501.23 574 501.37 574H503.35C503.49 574 503.6 574.04 503.68 574.12C503.76 574.2 503.8 574.31 503.8 574.45V594.55C503.8 594.69 503.76 594.8 503.68 594.88C503.6 594.96 503.49 595 503.35 595H501.37ZM509.163 595C509.023 595 508.913 594.96 508.833 594.88C508.753 594.8 508.713 594.69 508.713 594.55V574.45C508.713 574.31 508.753 574.2 508.833 574.12C508.913 574.04 509.023 574 509.163 574H511.143C511.283 574 511.393 574.04 511.473 574.12C511.553 574.2 511.593 574.31 511.593 574.45V592.36C511.593 592.46 511.643 592.51 511.743 592.51H521.913C522.053 592.51 522.163 592.55 522.243 592.63C522.323 592.71 522.363 592.82 522.363 592.96V594.55C522.363 594.69 522.323 594.8 522.243 594.88C522.163 594.96 522.053 595 521.913 595H509.163ZM539.772 576.04C539.772 576.18 539.732 576.29 539.652 576.37C539.572 576.45 539.462 576.49 539.322 576.49H528.852C528.752 576.49 528.702 576.54 528.702 576.64V583.03C528.702 583.13 528.752 583.18 528.852 583.18H535.992C536.132 583.18 536.242 583.22 536.322 583.3C536.402 583.38 536.442 583.49 536.442 583.63V585.22C536.442 585.36 536.402 585.47 536.322 585.55C536.242 585.63 536.132 585.67 535.992 585.67H528.852C528.752 585.67 528.702 585.72 528.702 585.82V592.36C528.702 592.46 528.752 592.51 528.852 592.51H539.322C539.462 592.51 539.572 592.55 539.652 592.63C539.732 592.71 539.772 592.82 539.772 592.96V594.55C539.772 594.69 539.732 594.8 539.652 594.88C539.572 594.96 539.462 595 539.322 595H526.272C526.132 595 526.022 594.96 525.942 594.88C525.862 594.8 525.822 594.69 525.822 594.55V574.45C525.822 574.31 525.862 574.2 525.942 574.12C526.022 574.04 526.132 574 526.272 574H539.322C539.462 574 539.572 574.04 539.652 574.12C539.732 574.2 539.772 574.31 539.772 574.45V576.04ZM556.508 595.24C555.068 595.24 553.788 594.96 552.668 594.4C551.568 593.82 550.708 593.01 550.088 591.97C549.488 590.91 549.188 589.7 549.188 588.34V580.66C549.188 579.28 549.488 578.07 550.088 577.03C550.708 575.99 551.568 575.19 552.668 574.63C553.788 574.05 555.068 573.76 556.508 573.76C557.948 573.76 559.218 574.04 560.318 574.6C561.418 575.16 562.268 575.94 562.868 576.94C563.488 577.92 563.798 579.03 563.798 580.27V580.45C563.798 580.59 563.758 580.7 563.678 580.78C563.598 580.86 563.488 580.9 563.348 580.9H561.368C561.228 580.9 561.118 580.87 561.038 580.81C560.958 580.75 560.918 580.68 560.918 580.6V580.33C560.918 579.13 560.508 578.16 559.688 577.42C558.888 576.66 557.828 576.28 556.508 576.28C555.168 576.28 554.088 576.67 553.268 577.45C552.468 578.23 552.068 579.27 552.068 580.57V588.43C552.068 589.73 552.488 590.77 553.328 591.55C554.168 592.33 555.268 592.72 556.628 592.72C557.948 592.72 558.988 592.38 559.748 591.7C560.528 591 560.918 590.05 560.918 588.85V586.57C560.918 586.47 560.868 586.42 560.768 586.42H556.898C556.758 586.42 556.648 586.38 556.568 586.3C556.488 586.22 556.448 586.11 556.448 585.97V584.41C556.448 584.27 556.488 584.16 556.568 584.08C556.648 584 556.758 583.96 556.898 583.96H563.348C563.488 583.96 563.598 584 563.678 584.08C563.758 584.16 563.798 584.27 563.798 584.41V588.07C563.798 590.37 563.138 592.14 561.818 593.38C560.518 594.62 558.748 595.24 556.508 595.24ZM574.791 595.27C573.331 595.27 572.041 594.97 570.921 594.37C569.801 593.77 568.931 592.93 568.311 591.85C567.691 590.75 567.381 589.49 567.381 588.07V580.93C567.381 579.51 567.691 578.26 568.311 577.18C568.931 576.1 569.801 575.26 570.921 574.66C572.041 574.06 573.331 573.76 574.791 573.76C576.271 573.76 577.571 574.06 578.691 574.66C579.811 575.26 580.681 576.1 581.301 577.18C581.921 578.26 582.231 579.51 582.231 580.93V588.07C582.231 589.49 581.921 590.75 581.301 591.85C580.681 592.93 579.811 593.77 578.691 594.37C577.571 594.97 576.271 595.27 574.791 595.27ZM574.791 592.78C576.151 592.78 577.251 592.36 578.091 591.52C578.931 590.68 579.351 589.57 579.351 588.19V580.9C579.351 579.5 578.931 578.38 578.091 577.54C577.251 576.68 576.151 576.25 574.791 576.25C573.431 576.25 572.331 576.68 571.491 577.54C570.671 578.38 570.261 579.5 570.261 580.9V588.19C570.261 589.57 570.671 590.68 571.491 591.52C572.331 592.36 573.431 592.78 574.791 592.78ZM603.869 584.05C603.749 584.11 603.739 584.17 603.839 584.23C605.939 585.17 606.989 586.84 606.989 589.24C606.989 591.08 606.379 592.5 605.159 593.5C603.939 594.5 602.349 595 600.389 595H593.069C592.929 595 592.819 594.96 592.739 594.88C592.659 594.8 592.619 594.69 592.619 594.55V574.45C592.619 574.31 592.659 574.2 592.739 574.12C592.819 574.04 592.929 574 593.069 574H600.149C602.229 574 603.839 574.48 604.979 575.44C606.139 576.38 606.719 577.76 606.719 579.58C606.719 581.72 605.769 583.21 603.869 584.05ZM595.649 576.49C595.549 576.49 595.499 576.54 595.499 576.64V582.91C595.499 583.01 595.549 583.06 595.649 583.06H600.149C601.309 583.06 602.219 582.77 602.879 582.19C603.559 581.61 603.899 580.82 603.899 579.82C603.899 578.8 603.559 577.99 602.879 577.39C602.219 576.79 601.309 576.49 600.149 576.49H595.649ZM600.389 592.48C601.529 592.48 602.429 592.17 603.089 591.55C603.769 590.91 604.109 590.05 604.109 588.97C604.109 587.89 603.769 587.04 603.089 586.42C602.409 585.78 601.479 585.46 600.299 585.46H595.649C595.549 585.46 595.499 585.51 595.499 585.61V592.33C595.499 592.43 595.549 592.48 595.649 592.48H600.389ZM623.331 595C623.071 595 622.901 594.88 622.821 594.64L621.771 591.28C621.731 591.2 621.681 591.16 621.621 591.16H613.251C613.191 591.16 613.141 591.2 613.101 591.28L612.051 594.64C611.971 594.88 611.801 595 611.541 595H609.411C609.071 595 608.951 594.83 609.051 594.49L615.531 574.36C615.611 574.12 615.781 574 616.041 574H618.801C619.061 574 619.231 574.12 619.311 574.36L625.851 594.49C625.871 594.53 625.881 594.59 625.881 594.67C625.881 594.89 625.751 595 625.491 595H623.331ZM613.881 588.7C613.861 588.82 613.901 588.88 614.001 588.88H620.871C620.991 588.88 621.031 588.82 620.991 588.7L617.511 577.51C617.491 577.43 617.461 577.39 617.421 577.39C617.381 577.39 617.351 577.43 617.331 577.51L613.881 588.7ZM635.668 595.27C634.228 595.27 632.948 594.99 631.828 594.43C630.728 593.85 629.868 593.04 629.248 592C628.648 590.94 628.348 589.73 628.348 588.37V580.6C628.348 579.24 628.648 578.05 629.248 577.03C629.868 575.99 630.728 575.19 631.828 574.63C632.948 574.05 634.228 573.76 635.668 573.76C637.108 573.76 638.378 574.04 639.478 574.6C640.578 575.14 641.428 575.91 642.028 576.91C642.648 577.91 642.958 579.07 642.958 580.39C642.958 580.59 642.808 580.71 642.508 580.75L640.528 580.87H640.408C640.308 580.87 640.228 580.85 640.168 580.81C640.108 580.77 640.078 580.73 640.078 580.69V580.51C640.078 579.23 639.678 578.2 638.878 577.42C638.078 576.64 637.008 576.25 635.668 576.25C634.328 576.25 633.248 576.64 632.428 577.42C631.628 578.2 631.228 579.23 631.228 580.51V588.49C631.228 589.77 631.628 590.8 632.428 591.58C633.248 592.36 634.328 592.75 635.668 592.75C637.008 592.75 638.078 592.36 638.878 591.58C639.678 590.8 640.078 589.77 640.078 588.49C640.078 588.37 640.118 588.28 640.198 588.22C640.278 588.16 640.388 588.14 640.528 588.16L642.508 588.28C642.808 588.32 642.958 588.37 642.958 588.43V588.58C642.958 589.9 642.648 591.07 642.028 592.09C641.428 593.09 640.578 593.87 639.478 594.43C638.378 594.99 637.108 595.27 635.668 595.27ZM647.591 595C647.451 595 647.341 594.96 647.261 594.88C647.181 594.8 647.141 594.69 647.141 594.55V574.45C647.141 574.31 647.181 574.2 647.261 574.12C647.341 574.04 647.451 574 647.591 574H649.571C649.711 574 649.821 574.04 649.901 574.12C649.981 574.2 650.021 574.31 650.021 574.45V583.81C650.021 583.87 650.041 583.91 650.081 583.93C650.121 583.95 650.161 583.93 650.201 583.87L658.691 574.24C658.831 574.08 659.011 574 659.231 574H661.481C661.721 574 661.841 574.08 661.841 574.24C661.841 574.34 661.801 574.44 661.721 574.54L654.791 582.79C654.731 582.87 654.721 582.94 654.761 583L662.291 594.46C662.351 594.54 662.381 594.63 662.381 594.73C662.381 594.91 662.251 595 661.991 595H659.741C659.501 595 659.321 594.9 659.201 594.7L652.781 585.04C652.701 584.92 652.631 584.91 652.571 585.01L650.081 587.77C650.041 587.85 650.021 587.92 650.021 587.98V594.55C650.021 594.69 649.981 594.8 649.901 594.88C649.821 594.96 649.711 595 649.571 595H647.591ZM684.833 574C684.973 574 685.083 574.04 685.163 574.12C685.243 574.2 685.283 574.31 685.283 574.45V576.07C685.283 576.21 685.243 576.32 685.163 576.4C685.083 576.48 684.973 576.52 684.833 576.52H679.253C679.153 576.52 679.103 576.57 679.103 576.67V594.55C679.103 594.69 679.063 594.8 678.983 594.88C678.903 594.96 678.793 595 678.653 595H676.673C676.533 595 676.423 594.96 676.343 594.88C676.263 594.8 676.223 594.69 676.223 594.55V576.67C676.223 576.57 676.173 576.52 676.073 576.52H670.763C670.623 576.52 670.513 576.48 670.433 576.4C670.353 576.32 670.313 576.21 670.313 576.07V574.45C670.313 574.31 670.353 574.2 670.433 574.12C670.513 574.04 670.623 574 670.763 574H684.833ZM694.469 595.27C693.009 595.27 691.719 594.97 690.599 594.37C689.479 593.77 688.609 592.93 687.989 591.85C687.369 590.75 687.059 589.49 687.059 588.07V580.93C687.059 579.51 687.369 578.26 687.989 577.18C688.609 576.1 689.479 575.26 690.599 574.66C691.719 574.06 693.009 573.76 694.469 573.76C695.949 573.76 697.249 574.06 698.369 574.66C699.489 575.26 700.359 576.1 700.979 577.18C701.599 578.26 701.909 579.51 701.909 580.93V588.07C701.909 589.49 701.599 590.75 700.979 591.85C700.359 592.93 699.489 593.77 698.369 594.37C697.249 594.97 695.949 595.27 694.469 595.27ZM694.469 592.78C695.829 592.78 696.929 592.36 697.769 591.52C698.609 590.68 699.029 589.57 699.029 588.19V580.9C699.029 579.5 698.609 578.38 697.769 577.54C696.929 576.68 695.829 576.25 694.469 576.25C693.109 576.25 692.009 576.68 691.169 577.54C690.349 578.38 689.939 579.5 689.939 580.9V588.19C689.939 589.57 690.349 590.68 691.169 591.52C692.009 592.36 693.109 592.78 694.469 592.78ZM844.609 595C843.989 595 843.469 594.8 843.049 594.4C842.649 594 842.449 593.5 842.449 592.9C842.449 592.34 842.669 591.86 843.109 591.46C843.549 591.06 844.049 590.86 844.609 590.86C845.169 590.86 845.669 591.06 846.109 591.46C846.569 591.86 846.799 592.34 846.799 592.9C846.799 593.48 846.589 593.98 846.169 594.4C845.749 594.8 845.229 595 844.609 595Z" fill="#454545"/>
<path d="M719.047 595.24C717.607 595.24 716.327 594.96 715.207 594.4C714.107 593.82 713.247 593.01 712.627 591.97C712.027 590.91 711.727 589.7 711.727 588.34V580.66C711.727 579.28 712.027 578.07 712.627 577.03C713.247 575.99 714.107 575.19 715.207 574.63C716.327 574.05 717.607 573.76 719.047 573.76C720.487 573.76 721.757 574.04 722.857 574.6C723.957 575.16 724.807 575.94 725.407 576.94C726.027 577.92 726.337 579.03 726.337 580.27V580.45C726.337 580.59 726.297 580.7 726.217 580.78C726.137 580.86 726.027 580.9 725.887 580.9H723.907C723.767 580.9 723.657 580.87 723.577 580.81C723.497 580.75 723.457 580.68 723.457 580.6V580.33C723.457 579.13 723.047 578.16 722.227 577.42C721.427 576.66 720.367 576.28 719.047 576.28C717.707 576.28 716.627 576.67 715.807 577.45C715.007 578.23 714.607 579.27 714.607 580.57V588.43C714.607 589.73 715.027 590.77 715.867 591.55C716.707 592.33 717.807 592.72 719.167 592.72C720.487 592.72 721.527 592.38 722.287 591.7C723.067 591 723.457 590.05 723.457 588.85V586.57C723.457 586.47 723.407 586.42 723.307 586.42H719.437C719.297 586.42 719.187 586.38 719.107 586.3C719.027 586.22 718.987 586.11 718.987 585.97V584.41C718.987 584.27 719.027 584.16 719.107 584.08C719.187 584 719.297 583.96 719.437 583.96H725.887C726.027 583.96 726.137 584 726.217 584.08C726.297 584.16 726.337 584.27 726.337 584.41V588.07C726.337 590.37 725.677 592.14 724.357 593.38C723.057 594.62 721.287 595.24 719.047 595.24ZM737.33 595.27C735.87 595.27 734.58 594.97 733.46 594.37C732.34 593.77 731.47 592.93 730.85 591.85C730.23 590.75 729.92 589.49 729.92 588.07V580.93C729.92 579.51 730.23 578.26 730.85 577.18C731.47 576.1 732.34 575.26 733.46 574.66C734.58 574.06 735.87 573.76 737.33 573.76C738.81 573.76 740.11 574.06 741.23 574.66C742.35 575.26 743.22 576.1 743.84 577.18C744.46 578.26 744.77 579.51 744.77 580.93V588.07C744.77 589.49 744.46 590.75 743.84 591.85C743.22 592.93 742.35 593.77 741.23 594.37C740.11 594.97 738.81 595.27 737.33 595.27ZM737.33 592.78C738.69 592.78 739.79 592.36 740.63 591.52C741.47 590.68 741.89 589.57 741.89 588.19V580.9C741.89 579.5 741.47 578.38 740.63 577.54C739.79 576.68 738.69 576.25 737.33 576.25C735.97 576.25 734.87 576.68 734.03 577.54C733.21 578.38 732.8 579.5 732.8 580.9V588.19C732.8 589.57 733.21 590.68 734.03 591.52C734.87 592.36 735.97 592.78 737.33 592.78ZM749.602 595C749.462 595 749.352 594.96 749.272 594.88C749.192 594.8 749.152 594.69 749.152 594.55V574.45C749.152 574.31 749.192 574.2 749.272 574.12C749.352 574.04 749.462 574 749.602 574H751.582C751.722 574 751.832 574.04 751.912 574.12C751.992 574.2 752.032 574.31 752.032 574.45V583.81C752.032 583.87 752.052 583.91 752.092 583.93C752.132 583.95 752.172 583.93 752.212 583.87L760.702 574.24C760.842 574.08 761.022 574 761.242 574H763.492C763.732 574 763.852 574.08 763.852 574.24C763.852 574.34 763.812 574.44 763.732 574.54L756.802 582.79C756.742 582.87 756.732 582.94 756.772 583L764.302 594.46C764.362 594.54 764.392 594.63 764.392 594.73C764.392 594.91 764.262 595 764.002 595H761.752C761.512 595 761.332 594.9 761.212 594.7L754.792 585.04C754.712 584.92 754.642 584.91 754.582 585.01L752.092 587.77C752.052 587.85 752.032 587.92 752.032 587.98V594.55C752.032 594.69 751.992 594.8 751.912 594.88C751.832 594.96 751.722 595 751.582 595H749.602ZM768.089 595C767.949 595 767.839 594.96 767.759 594.88C767.679 594.8 767.639 594.69 767.639 594.55V574.45C767.639 574.31 767.679 574.2 767.759 574.12C767.839 574.04 767.949 574 768.089 574H770.009C770.249 574 770.429 574.1 770.549 574.3L779.729 589.15C779.769 589.21 779.809 589.24 779.849 589.24C779.889 589.22 779.909 589.17 779.909 589.09V574.45C779.909 574.31 779.949 574.2 780.029 574.12C780.109 574.04 780.219 574 780.359 574H782.339C782.479 574 782.589 574.04 782.669 574.12C782.749 574.2 782.789 574.31 782.789 574.45V594.55C782.789 594.69 782.749 594.8 782.669 594.88C782.589 594.96 782.479 595 782.339 595H780.389C780.149 595 779.969 594.9 779.849 594.7L770.669 579.76C770.629 579.7 770.589 579.68 770.549 579.7C770.509 579.7 770.489 579.74 770.489 579.82L770.519 594.55C770.519 594.69 770.479 594.8 770.399 594.88C770.319 594.96 770.209 595 770.069 595H768.089ZM794.518 595.27C793.058 595.27 791.768 594.97 790.648 594.37C789.528 593.77 788.658 592.93 788.038 591.85C787.418 590.75 787.108 589.49 787.108 588.07V580.93C787.108 579.51 787.418 578.26 788.038 577.18C788.658 576.1 789.528 575.26 790.648 574.66C791.768 574.06 793.058 573.76 794.518 573.76C795.998 573.76 797.298 574.06 798.418 574.66C799.538 575.26 800.408 576.1 801.028 577.18C801.648 578.26 801.958 579.51 801.958 580.93V588.07C801.958 589.49 801.648 590.75 801.028 591.85C800.408 592.93 799.538 593.77 798.418 594.37C797.298 594.97 795.998 595.27 794.518 595.27ZM794.518 592.78C795.878 592.78 796.978 592.36 797.818 591.52C798.658 590.68 799.078 589.57 799.078 588.19V580.9C799.078 579.5 798.658 578.38 797.818 577.54C796.978 576.68 795.878 576.25 794.518 576.25C793.158 576.25 792.058 576.68 791.218 577.54C790.398 578.38 789.988 579.5 789.988 580.9V588.19C789.988 589.57 790.398 590.68 791.218 591.52C792.058 592.36 793.158 592.78 794.518 592.78ZM813.09 595.27C811.65 595.27 810.37 594.99 809.25 594.43C808.15 593.85 807.29 593.04 806.67 592C806.07 590.94 805.77 589.73 805.77 588.37V580.6C805.77 579.24 806.07 578.05 806.67 577.03C807.29 575.99 808.15 575.19 809.25 574.63C810.37 574.05 811.65 573.76 813.09 573.76C814.53 573.76 815.8 574.04 816.9 574.6C818 575.14 818.85 575.91 819.45 576.91C820.07 577.91 820.38 579.07 820.38 580.39C820.38 580.59 820.23 580.71 819.93 580.75L817.95 580.87H817.83C817.73 580.87 817.65 580.85 817.59 580.81C817.53 580.77 817.5 580.73 817.5 580.69V580.51C817.5 579.23 817.1 578.2 816.3 577.42C815.5 576.64 814.43 576.25 813.09 576.25C811.75 576.25 810.67 576.64 809.85 577.42C809.05 578.2 808.65 579.23 808.65 580.51V588.49C808.65 589.77 809.05 590.8 809.85 591.58C810.67 592.36 811.75 592.75 813.09 592.75C814.43 592.75 815.5 592.36 816.3 591.58C817.1 590.8 817.5 589.77 817.5 588.49C817.5 588.37 817.54 588.28 817.62 588.22C817.7 588.16 817.81 588.14 817.95 588.16L819.93 588.28C820.23 588.32 820.38 588.37 820.38 588.43V588.58C820.38 589.9 820.07 591.07 819.45 592.09C818.85 593.09 818 593.87 816.9 594.43C815.8 594.99 814.53 595.27 813.09 595.27ZM825.013 595C824.873 595 824.763 594.96 824.683 594.88C824.603 594.8 824.563 594.69 824.563 594.55V574.45C824.563 574.31 824.603 574.2 824.683 574.12C824.763 574.04 824.873 574 825.013 574H826.993C827.133 574 827.243 574.04 827.323 574.12C827.403 574.2 827.443 574.31 827.443 574.45V583.81C827.443 583.87 827.463 583.91 827.503 583.93C827.543 583.95 827.583 583.93 827.623 583.87L836.113 574.24C836.253 574.08 836.433 574 836.653 574H838.903C839.143 574 839.263 574.08 839.263 574.24C839.263 574.34 839.223 574.44 839.143 574.54L832.213 582.79C832.153 582.87 832.143 582.94 832.183 583L839.713 594.46C839.773 594.54 839.803 594.63 839.803 594.73C839.803 594.91 839.673 595 839.413 595H837.163C836.923 595 836.743 594.9 836.623 594.7L830.203 585.04C830.123 584.92 830.053 584.91 829.993 585.01L827.503 587.77C827.463 587.85 827.443 587.92 827.443 587.98V594.55C827.443 594.69 827.403 594.8 827.323 594.88C827.243 594.96 827.133 595 826.993 595H825.013Z" fill="#3683BC"/>
<path d="M709.837 598H840.583V599.5H709.837V598Z" fill="#3683BC"/>
<path d="M231.188 429.215C231.506 429.528 231.934 429.703 232.38 429.703C232.826 429.703 233.254 429.528 233.572 429.215C233.885 428.887 234.06 428.45 234.06 427.996C234.06 427.542 233.885 427.106 233.572 426.777L220.568 413.773C220.409 413.606 220.218 413.474 220.007 413.382C219.796 413.291 219.569 413.243 219.339 413.24C219.11 413.238 218.882 413.282 218.669 413.369C218.456 413.456 218.263 413.584 218.101 413.747C217.938 413.91 217.81 414.104 217.724 414.317C217.638 414.53 217.595 414.758 217.598 414.988C217.601 415.218 217.65 415.445 217.742 415.655C217.834 415.866 217.968 416.056 218.134 416.214L231.188 429.215Z" fill="#3683BC"/>
<path d="M262.182 455.45C261.859 455.126 261.42 454.945 260.963 454.945C260.506 454.945 260.067 455.126 259.744 455.45C259.42 455.773 259.239 456.212 259.239 456.669C259.239 457.126 259.42 457.565 259.744 457.888L272.748 470.893C273.066 471.205 273.495 471.38 273.94 471.38C274.386 471.38 274.814 471.205 275.133 470.893C275.446 470.564 275.621 470.128 275.621 469.674C275.621 469.22 275.446 468.783 275.133 468.454L262.182 455.45Z" fill="#3683BC"/>
<path d="M285.32 440.598H266.951C266.506 440.598 266.079 440.775 265.763 441.09C265.448 441.405 265.271 441.832 265.271 442.277C265.271 442.723 265.448 443.15 265.763 443.465C266.079 443.78 266.506 443.957 266.951 443.957H285.32C285.766 443.957 286.193 443.78 286.508 443.465C286.823 443.15 287 442.723 287 442.277C287 441.832 286.823 441.405 286.508 441.09C286.193 440.775 285.766 440.598 285.32 440.598Z" fill="#3683BC"/>
<path d="M260.99 429.708C261.211 429.709 261.43 429.665 261.635 429.581C261.839 429.496 262.025 429.372 262.182 429.216L275.186 416.211C275.51 415.888 275.691 415.449 275.691 414.992C275.691 414.534 275.51 414.096 275.186 413.773C275.026 413.612 274.836 413.485 274.627 413.399C274.418 413.312 274.194 413.268 273.967 413.268C273.51 413.268 273.071 413.449 272.748 413.773L259.743 426.777C259.43 427.106 259.255 427.542 259.255 427.996C259.255 428.45 259.43 428.887 259.743 429.216C260.086 429.525 260.528 429.7 260.99 429.708Z" fill="#3683BC"/>
<path d="M246.685 423.8C247.13 423.798 247.556 423.62 247.871 423.306C248.185 422.991 248.363 422.565 248.365 422.121V403.697C248.365 403.252 248.188 402.825 247.873 402.51C247.558 402.195 247.131 402.018 246.685 402.018C246.24 402.018 245.813 402.195 245.498 402.51C245.183 402.825 245.006 403.252 245.006 403.697V422.066C245.001 422.291 245.041 422.514 245.124 422.722C245.206 422.931 245.329 423.122 245.485 423.283C245.641 423.444 245.827 423.573 246.033 423.662C246.239 423.75 246.461 423.798 246.685 423.8Z" fill="#3683BC"/>
<path d="M259.473 473.814C258.727 472.459 257.568 471.377 256.164 470.726C257.819 469.643 259.002 467.974 259.475 466.055C259.947 464.135 259.674 462.107 258.711 460.381L257.953 459.026C257.228 457.732 256.159 456.663 254.864 455.938C256.43 454.767 257.523 453.071 257.943 451.161C258.363 449.251 258.081 447.254 257.15 445.534L256.601 444.549C255.906 443.288 254.886 442.236 253.648 441.503C252.409 440.769 250.997 440.38 249.557 440.377H249.178C249.51 439.362 249.629 438.289 249.526 437.226C249.424 436.162 249.102 435.132 248.582 434.199L247.823 432.845C247.147 431.612 246.151 430.584 244.94 429.87C243.729 429.155 242.348 428.781 240.942 428.786C239.615 428.788 238.311 429.123 237.149 429.761L222.789 437.781L214.77 434.746C212.74 433.953 210.537 433.709 208.382 434.04C205.586 434.497 203.038 435.915 201.176 438.05C201.121 438.05 201.121 438.104 201.121 438.158L185.949 457.719C185.895 457.828 185.841 457.883 185.785 457.99C181.833 465.973 180.94 475.126 183.275 483.722C185.61 492.317 191.012 499.761 198.46 504.646C204.418 508.296 211.247 510.281 218.234 510.393C222.041 510.396 225.82 509.736 229.4 508.442C237.782 505.258 244.652 499.026 248.636 490.994L257.631 486.009C258.49 485.538 259.248 484.902 259.861 484.137C260.474 483.372 260.93 482.493 261.201 481.551C261.473 480.61 261.556 479.624 261.446 478.65C261.335 477.676 261.033 476.733 260.557 475.876L259.473 473.814ZM254.921 460.64L255.68 461.995C255.964 462.503 256.145 463.062 256.212 463.641C256.278 464.219 256.23 464.805 256.068 465.364C255.907 465.924 255.637 466.445 255.272 466.9C254.908 467.354 254.457 467.731 253.946 468.01C251.779 469.31 238.882 477.005 236.173 477.709C235.834 477.777 235.489 477.814 235.144 477.817C234.35 477.817 233.571 477.606 232.886 477.206C232.2 476.806 231.633 476.232 231.242 475.542L230.484 474.187C230.196 473.682 230.014 473.124 229.948 472.546C229.883 471.969 229.936 471.384 230.104 470.827C230.291 470.126 230.665 469.489 231.188 468.985L250.532 458.425C250.697 458.425 250.861 458.371 251.025 458.371C251.82 458.358 252.603 458.563 253.289 458.963C253.976 459.363 254.541 459.943 254.921 460.64ZM247.281 444.5C247.958 444.114 248.724 443.908 249.503 443.904C250.317 443.907 251.116 444.123 251.819 444.532C252.523 444.941 253.107 445.528 253.513 446.234L254.055 447.209C254.355 447.729 254.545 448.306 254.61 448.903C254.675 449.5 254.615 450.104 254.434 450.677C254.279 451.261 254.007 451.807 253.635 452.282C253.262 452.757 252.796 453.151 252.266 453.44L249.124 455.174C242.675 458.696 236.227 462.218 229.779 465.683C229.439 465.746 229.095 465.782 228.75 465.791C227.872 465.775 227.013 465.533 226.257 465.087C225.633 464.67 225.113 464.113 224.74 463.461L224.198 462.486C224.198 462.432 224.144 462.432 224.144 462.378C223.614 461.341 223.48 460.147 223.765 459.018C223.925 458.444 224.202 457.909 224.577 457.447C226.133 457.502 227.69 457.447 229.237 457.283C230.878 457.106 232.446 456.509 233.789 455.55C234.115 455.343 234.407 455.087 234.656 454.792C235.993 453.464 236.899 451.765 237.257 449.915L239.966 448.398L247.281 444.5ZM238.72 432.841C239.382 432.473 240.13 432.286 240.887 432.3C241.681 432.3 242.46 432.511 243.145 432.911C243.831 433.31 244.398 433.885 244.789 434.575L245.547 435.93C245.832 436.438 246.012 436.997 246.079 437.576C246.146 438.154 246.097 438.74 245.936 439.299C245.774 439.859 245.504 440.38 245.14 440.835C244.775 441.289 244.324 441.666 243.813 441.945L237.528 445.421C237.485 444.947 237.413 444.476 237.311 444.012C237.254 443.742 237.13 443.492 236.95 443.283C236.77 443.075 236.54 442.915 236.282 442.82L226.962 439.294L238.72 432.841ZM228.316 505.467C214.499 510.506 202.47 503.408 200.194 501.945C193.416 497.506 188.496 490.742 186.36 482.927C184.225 475.112 185.02 466.786 188.598 459.517L203.607 440.115C204.978 438.574 206.83 437.542 208.862 437.189C210.469 436.935 212.115 437.122 213.624 437.731L218.934 439.736L219.151 439.845L221.264 440.657L223.323 441.478L227.929 443.212L234.326 445.583C234.395 446.122 234.431 446.665 234.434 447.209V447.701C234.412 448.231 234.339 448.757 234.218 449.273C234.163 449.49 234.109 449.706 234.053 449.869C233.847 450.562 233.537 451.22 233.132 451.82C232.913 452.107 232.678 452.381 232.428 452.641C232.277 452.784 232.112 452.911 231.935 453.02C231.538 453.316 231.1 453.554 230.635 453.724C230.045 453.957 229.424 454.103 228.792 454.158C227.858 454.271 226.916 454.326 225.975 454.322H224.349C223.861 454.331 223.372 454.313 222.886 454.268C220.917 454.104 218.973 453.722 217.088 453.13C216.186 452.853 215.3 452.527 214.433 452.155L212.97 451.498C212.78 451.395 212.569 451.337 212.353 451.328C212.137 451.318 211.922 451.358 211.724 451.444C211.325 451.592 210.996 451.885 210.803 452.265L208.419 457.304C208.291 457.585 208.243 457.895 208.282 458.201C208.32 458.508 208.442 458.797 208.635 459.038C211.826 462.66 213.479 467.384 213.241 472.205C212.981 475.652 211.719 478.948 209.611 481.687C209.366 482.026 209.264 482.446 209.328 482.859C209.391 483.271 209.614 483.642 209.949 483.891C210.284 484.141 210.703 484.248 211.116 484.191C211.529 484.133 211.903 483.915 212.157 483.584L212.65 482.927C214.83 479.809 216.123 476.157 216.389 472.361C216.709 467.049 215.027 461.81 211.675 457.677L212.975 454.967C215.451 456.027 218.057 456.756 220.724 457.135C220.25 458.261 220.038 459.48 220.104 460.7C220.169 461.921 220.511 463.11 221.103 464.179L221.536 464.938L221.645 465.154C222.165 466.094 222.865 466.922 223.704 467.593C224.698 468.352 225.844 468.888 227.063 469.164C226.652 470.241 226.478 471.394 226.553 472.544C226.628 473.694 226.95 474.814 227.497 475.829L228.255 477.184C228.821 478.189 229.598 479.058 230.534 479.732C231.47 480.406 232.542 480.868 233.674 481.085C232.855 482.754 232.7 484.671 233.241 486.449C233.413 486.974 233.633 487.482 233.897 487.966L235.035 489.971C235.334 490.502 235.698 490.994 236.119 491.434C236.82 492.183 237.668 492.78 238.609 493.189C239.551 493.597 240.566 493.808 241.592 493.809C242.177 493.817 242.761 493.744 243.326 493.592C239.69 499.025 234.44 503.178 228.316 505.467ZM258.118 480.65C257.808 481.728 257.089 482.642 256.114 483.196L248.419 487.477L246.252 488.669L243.705 490.078C243.082 490.446 242.369 490.633 241.646 490.62C241.104 490.625 240.566 490.522 240.063 490.318C239.561 490.113 239.104 489.811 238.72 489.428C238.425 489.138 238.17 488.81 237.961 488.453L237.257 487.152L236.823 486.448C236.295 485.469 236.159 484.326 236.444 483.251C236.754 482.173 237.474 481.259 238.449 480.704L244.999 477.06L246.95 475.977L248.467 475.164L250.959 473.809C251.582 473.441 252.295 473.254 253.018 473.267C253.771 473.261 254.512 473.459 255.161 473.841C255.81 474.222 256.343 474.773 256.703 475.435L257.841 477.44C258.286 478.447 258.384 479.573 258.118 480.642V480.65Z" fill="#24356C"/>
<path d="M231.947 453.006L230.646 453.711C231.122 453.564 231.564 453.325 231.947 453.006Z" fill="#24356C"/>
<path fill-rule="evenodd" clip-rule="evenodd" d="M1063.11 591.619C1063.11 580.361 1022.08 571.221 971.577 571.221C920.963 571.221 880.048 580.361 880.048 591.619C880.048 602.878 921.075 612.018 971.577 612.018C1022.19 612.018 1063.11 602.878 1063.11 591.619Z" fill="#5FBBD5" fill-opacity="0.302"/>
<path fill-rule="evenodd" clip-rule="evenodd" d="M970.016 529.198C969.236 538.784 954.074 569.326 942.257 577.574C939.915 579.135 937.797 579.915 935.902 579.469C927.318 577.797 923.304 537.001 922.858 514.039C922.635 505.122 923.193 498.88 924.085 498.768C931.777 496.873 970.908 517.94 970.016 529.198Z" fill="url(#paint0_linear)"/>
<path fill-rule="evenodd" clip-rule="evenodd" d="M970.016 532.431C970.016 532.431 959.537 538.116 943.26 529.979C930.439 523.625 921.966 502.67 924.085 498.991C926.203 495.202 975.925 517.606 970.016 532.431Z" fill="url(#paint1_linear)"/>
<path fill-rule="evenodd" clip-rule="evenodd" d="M970.016 529.198C969.236 538.785 954.074 569.326 942.257 577.575C951.175 567.32 951.398 546.476 945.824 537.001C941.588 529.756 928.878 519.055 922.858 514.151C922.635 505.233 923.193 498.991 924.085 498.88C931.777 496.873 970.908 517.94 970.016 529.198Z" fill="url(#paint2_linear)" fill-opacity="0.302"/>
<path fill-rule="evenodd" clip-rule="evenodd" d="M937.017 442.255C937.017 442.255 891.977 467.781 881.498 466.777C870.907 465.774 875.7 441.698 875.7 441.698C877.038 440.026 878.71 438.354 880.383 436.57C897.217 418.736 926.091 395.997 942.702 385.185C949.614 380.614 954.52 378.162 955.3 379.054C961.32 385.742 937.017 442.255 937.017 442.255Z" fill="url(#paint3_linear)"/>
<path fill-rule="evenodd" clip-rule="evenodd" d="M875.589 441.586C875.589 441.586 881.386 436.682 888.744 443.258C896.102 449.946 888.521 465.774 881.386 466.666C874.363 467.446 870.126 451.953 875.589 441.586Z" fill="url(#paint4_linear)"/>
<path fill-rule="evenodd" clip-rule="evenodd" d="M937.017 442.255C937.017 442.255 891.977 467.781 881.498 466.777C870.907 465.774 875.7 441.698 875.7 441.698C877.038 440.026 878.71 438.354 880.383 436.57C880.383 436.57 891.42 443.035 911.598 440.026C931.888 437.016 942.702 385.185 942.702 385.185C949.614 380.614 954.52 378.162 955.3 379.054C961.32 385.742 937.017 442.255 937.017 442.255Z" fill="url(#paint5_linear)" fill-opacity="0.302"/>
<path fill-rule="evenodd" clip-rule="evenodd" d="M905.69 218.098C905.69 218.098 890.528 234.149 888.856 263.687C887.183 293.226 921.52 250.534 921.52 250.534L905.69 218.098Z" fill="url(#paint6_linear)"/>
<path fill-rule="evenodd" clip-rule="evenodd" d="M895.879 250.534C895.879 250.534 902.791 214.085 914.051 206.282C925.422 198.591 945.824 205.502 945.824 205.502L895.879 250.534Z" fill="url(#paint7_linear)"/>
<path fill-rule="evenodd" clip-rule="evenodd" d="M1070.69 335.805C1045.04 376.268 917.73 382.621 895.768 362.446C887.072 354.42 881.498 343.831 878.711 331.793C866.893 280.63 906.693 204.722 972.692 197.142C1017.4 192.238 1054.74 229.133 1070.35 268.592C1080.16 293.337 1081.39 318.863 1070.69 335.805Z" fill="url(#paint8_linear)"/>
<path fill-rule="evenodd" clip-rule="evenodd" d="M1045.71 355.312C1029.99 362.223 1006.36 368.799 990.417 370.806C960.874 374.707 939.135 374.261 926.537 371.14C918.287 369.022 914.051 365.901 914.051 362C914.051 359.548 919.625 356.761 928.544 353.974C954.743 345.503 1010.04 336.586 1040.59 337.143C1043.15 337.254 1045.71 337.366 1047.94 337.477C1048.39 337.477 1048.84 337.589 1049.28 337.7C1049.39 337.7 1049.5 337.7 1049.62 337.7C1054.97 338.258 1058.76 339.372 1060.76 341.044C1061.21 341.379 1061.54 341.825 1061.77 342.382C1063.33 345.837 1056.42 350.63 1045.71 355.312Z" fill="url(#paint9_linear)"/>
<path fill-rule="evenodd" clip-rule="evenodd" d="M1070.69 335.805C1045.04 376.267 917.73 382.621 895.768 362.446C887.072 354.42 881.498 343.831 878.71 331.793C878.71 331.793 889.413 347.063 915.389 346.84C941.365 346.506 1015.39 332.796 1028.99 319.531C1042.59 306.378 1029.88 255.884 1029.88 255.884L1070.35 268.591C1080.16 293.337 1081.39 318.862 1070.69 335.805Z" fill="url(#paint10_linear)" fill-opacity="0.302"/>
<path fill-rule="evenodd" clip-rule="evenodd" d="M1045.71 355.312C1032.22 351.522 993.093 342.159 964.219 352.86C928.767 365.901 926.537 371.14 926.537 371.14C918.287 369.022 914.051 365.901 914.051 362C914.051 359.548 919.625 356.761 928.544 353.974C954.743 345.503 1010.04 336.586 1040.59 337.143C1043.82 337.366 1046.72 337.477 1049.28 337.589C1049.39 337.589 1049.5 337.589 1049.62 337.589C1054.97 338.146 1058.76 339.261 1060.76 340.933C1061.21 341.267 1061.54 341.713 1061.77 342.27C1063.33 345.837 1056.42 350.63 1045.71 355.312Z" fill="url(#paint11_linear)" fill-opacity="0.502"/>
<path fill-rule="evenodd" clip-rule="evenodd" d="M1047.94 337.254C1041.81 344.834 1009.15 355.2 990.083 357.653C955.858 362.223 934.341 359.548 928.544 353.751C956.972 344.611 1019.85 334.802 1047.94 337.254Z" fill="url(#paint12_linear)"/>
<path fill-rule="evenodd" clip-rule="evenodd" d="M878.711 334.245C886.18 349.181 995.546 340.264 1019.63 309.388C1043.71 278.4 1005.58 191.011 949.169 206.951C895.545 222.11 865.221 307.27 878.711 334.245Z" fill="#DFE3FB"/>
<path fill-rule="evenodd" clip-rule="evenodd" d="M878.711 331.904C886.18 346.84 995.546 337.923 1019.63 307.047C1043.71 276.06 1005.58 188.67 949.169 204.61C895.545 219.769 865.221 304.929 878.711 331.904Z" fill="url(#paint13_linear)"/>
<path fill-rule="evenodd" clip-rule="evenodd" d="M1033.79 482.829C1026.09 517.94 1006.03 532.877 970.016 532.431C934.787 531.985 913.048 493.752 924.419 448.832C931.666 420.185 940.138 394.771 955.077 378.943C963.662 370.025 974.141 364.229 987.854 362.557C998.668 361.219 1007.59 367.127 1014.72 376.936C1033.45 402.573 1039.69 455.742 1033.79 482.829Z" fill="url(#paint14_linear)"/>
<path fill-rule="evenodd" clip-rule="evenodd" d="M1025.09 212.19C1025.09 212.19 1019.18 266.028 1052.4 285.088C1052.4 285.088 1068.68 286.872 1078.16 276.951C1078.16 276.951 1063.44 290.885 1047.83 276.394C1032.22 261.903 1036.01 222.11 1047.83 209.18C1059.65 196.25 1076.82 199.594 1076.82 199.594L1069.91 193.463C1070.02 193.463 1044.82 188.336 1025.09 212.19Z" fill="url(#paint15_linear)"/>
<path fill-rule="evenodd" clip-rule="evenodd" d="M1014.94 416.841C1014.94 416.841 1018.62 444.15 1018.62 462.43C1018.62 484.055 1005.36 503.004 1005.36 503.004L1032.34 488.513C1032.34 488.513 1037.35 474.357 1036.13 459.867C1034.79 445.376 1033.67 438.8 1033.67 438.8L1014.94 416.841Z" fill="url(#paint16_linear)" fill-opacity="0.302"/>
<path fill-rule="evenodd" clip-rule="evenodd" d="M1070.02 193.464C1070.02 193.464 1051.51 191.792 1038.58 213.193C1024.87 236.044 1034.79 275.502 1051.4 281.41C1068.12 287.429 1084.84 223.671 1084.84 223.671L1075.15 198.368C1075.26 198.257 1073.47 194.69 1070.02 193.464Z" fill="url(#paint17_linear)"/>
<path fill-rule="evenodd" clip-rule="evenodd" d="M1093.87 247.859C1091.42 260.232 1086.41 270.264 1079.83 276.617H1079.72L1077.82 278.289C1072.47 282.636 1066 284.754 1059.09 283.862C1036.46 280.964 1033.56 248.416 1036.13 229.801C1039.14 208.511 1057.42 195.693 1072.02 197.476C1089.3 199.817 1098.56 223.671 1093.87 247.859Z" fill="url(#paint18_linear)"/>
<path fill-rule="evenodd" clip-rule="evenodd" d="M922.635 454.628C922.635 454.628 930.774 428.099 956.192 428.099C986.516 428.099 1007.03 461.65 1005.13 484.389C1003.24 507.128 996.326 528.418 967.675 529.422C967.786 529.422 913.94 528.195 922.635 454.628Z" fill="url(#paint19_linear)"/>
<path fill-rule="evenodd" clip-rule="evenodd" d="M922.635 457.526C922.635 457.526 930.774 430.997 956.192 430.997C986.516 430.997 1007.03 464.548 1005.13 487.287C1003.24 510.026 996.326 531.316 967.675 532.319C967.786 532.431 913.94 531.205 922.635 457.526Z" fill="url(#paint20_linear)"/>
<path fill-rule="evenodd" clip-rule="evenodd" d="M1029.21 446.379C1027.88 446.379 1026.54 445.265 1025.09 443.37C1018.73 434.898 1012.05 410.487 1012.05 396.777C1012.05 391.538 1013.16 387.86 1015.61 387.414C1019.74 386.634 1027.99 400.455 1031.89 419.627C1034.34 430.885 1034.79 446.379 1029.21 446.379Z" fill="url(#paint21_linear)"/>
<path fill-rule="evenodd" clip-rule="evenodd" d="M1025.09 443.37C1018.73 434.899 1012.05 410.488 1012.05 396.777C1016.06 402.016 1020.63 412.494 1023.42 425.536C1024.64 431.22 1025.42 438.02 1025.09 443.37Z" fill="url(#paint22_linear)"/>
<path fill-rule="evenodd" clip-rule="evenodd" d="M1089.3 496.873C1085.18 510.026 1069.68 511.475 1065.22 508.243C1061.21 505.456 1050.4 492.638 1040.03 469.23C1040.03 469.23 1040.03 469.23 1040.03 469.118C1038.47 465.663 1037.02 461.985 1035.46 458.083C1023.86 427.542 1015.06 371.363 1027.1 373.592C1027.1 373.592 1027.1 373.592 1027.21 373.592C1061.88 380.057 1093.43 483.72 1089.3 496.873Z" fill="url(#paint23_linear)"/>
<path fill-rule="evenodd" clip-rule="evenodd" d="M1032.67 589.836C1030.22 590.951 1026.98 589.725 1023.19 586.938C1019.07 583.928 1014.39 578.912 1009.7 573.339L1009.59 573.228C996.661 557.4 984.063 535.329 984.732 530.425C986.962 513.371 1010.15 498.546 1023.97 491.969C1029.33 489.405 1033.34 488.179 1034.01 488.402C1036.57 489.517 1045.05 583.928 1032.67 589.836Z" fill="url(#paint24_linear)"/>
<path fill-rule="evenodd" clip-rule="evenodd" d="M1057.53 499.994C1057.53 499.994 1057.75 487.845 1068.46 483.609C1079.27 479.373 1089.64 493.752 1089.64 493.752C1089.64 493.752 1089.75 507.351 1075.15 507.685C1060.65 507.797 1057.53 499.994 1057.53 499.994Z" fill="url(#paint25_linear)"/>
<path fill-rule="evenodd" clip-rule="evenodd" d="M886.849 456.857C886.849 456.857 877.93 470.902 868.343 477.702C858.755 484.501 839.914 487.399 839.914 487.399C839.914 487.399 826.536 481.268 826.536 472.128C826.536 472.128 840.918 464.883 846.38 453.291C846.38 453.291 864.998 446.603 873.137 448.832C881.386 450.95 886.849 456.857 886.849 456.857Z" fill="url(#paint26_linear)"/>
<path fill-rule="evenodd" clip-rule="evenodd" d="M875.366 317.636C875.366 317.636 860.65 324.101 848.275 338.926C835.901 353.751 834.897 369.022 852.735 364.34L860.204 357.875C860.204 357.875 849.725 361.442 849.056 350.296C848.387 339.038 875.366 319.866 875.366 319.866V317.636Z" fill="url(#paint27_linear)"/>
<path fill-rule="evenodd" clip-rule="evenodd" d="M847.829 355.869C843.481 362.334 854.964 365.344 864.106 365.121C874.362 364.787 891.977 360.328 889.524 350.296C887.072 340.264 857.974 340.598 847.829 355.869Z" fill="url(#paint28_linear)"/>
<path fill-rule="evenodd" clip-rule="evenodd" d="M848.61 356.872C848.498 358.544 884.619 353.974 884.619 347.621C884.508 341.044 849.279 343.608 848.61 356.872Z" fill="url(#paint29_linear)"/>
<path fill-rule="evenodd" clip-rule="evenodd" d="M891.754 296.681C894.318 305.152 911.71 302.811 916.392 289.658C921.074 276.505 916.058 259.674 907.25 259.005C898.22 258.448 886.626 280.072 891.754 296.681Z" fill="url(#paint30_linear)"/>
<path fill-rule="evenodd" clip-rule="evenodd" d="M961.989 268.48C961.432 269.706 974.476 257.222 999.782 261.903C1002.35 262.349 973.138 244.738 961.989 268.48Z" fill="url(#paint31_linear)"/>
<path fill-rule="evenodd" clip-rule="evenodd" d="M936.459 314.515C936.459 314.515 960.875 308.162 971.577 288.878C971.577 288.767 967.452 314.961 936.459 314.515Z" fill="#2F95CD"/>
<path fill-rule="evenodd" clip-rule="evenodd" d="M1014.94 376.825C1014.94 376.825 977.82 390.869 963.55 389.309C949.726 387.748 954.966 379.5 955.189 379.054C963.773 370.137 974.252 364.34 987.965 362.668C998.779 361.219 1007.81 367.016 1014.94 376.825Z" fill="url(#paint32_linear)" fill-opacity="0.502"/>
<path fill-rule="evenodd" clip-rule="evenodd" d="M1089.3 496.873C1085.18 510.026 1069.68 511.475 1065.22 508.243C1061.21 505.456 1050.4 492.638 1040.03 469.23C1041.03 471.125 1048.61 485.504 1055.52 485.504C1062.88 485.504 1077.15 464.994 1062.77 422.08C1048.84 380.392 1028.43 374.038 1027.1 373.704C1061.99 380.057 1093.43 483.72 1089.3 496.873Z" fill="url(#paint33_linear)" fill-opacity="0.302"/>
<path fill-rule="evenodd" clip-rule="evenodd" d="M1070.58 489.851C1076.71 488.179 1086.29 493.083 1089.64 497.988C1092.98 502.892 1101.34 523.625 1096.55 550.6C1096.55 550.6 1087.41 562.638 1077.15 560.074C1069.35 558.068 1067.45 534.883 1065.45 518.386C1063.44 502.001 1060.54 492.526 1070.58 489.851Z" fill="url(#paint34_linear)"/>
<path fill-rule="evenodd" clip-rule="evenodd" d="M1078.71 560.743C1078.71 560.743 1082.5 506.905 1060.54 498.211C1060.54 498.211 1060.43 506.905 1064.78 527.192C1069.24 547.367 1073.7 559.517 1078.71 560.743Z" fill="url(#paint35_linear)"/>
<path fill-rule="evenodd" clip-rule="evenodd" d="M1077.26 531.205C1077.26 531.205 1072.69 539.565 1069.24 541.237C1065.67 542.909 1062.77 541.794 1062.77 541.794L1073.81 516.38C1073.7 516.491 1077.15 525.743 1077.26 531.205Z" fill="url(#paint36_linear)" fill-opacity="0.502"/>
<path fill-rule="evenodd" clip-rule="evenodd" d="M1073.7 516.491C1073.7 516.491 1069.24 502.112 1060.1 499.437C1060.1 499.437 1052.63 508.466 1057.98 539.676C1057.98 539.676 1063.22 545.249 1069.01 538.562C1069.01 538.562 1073.36 527.192 1073.7 516.491Z" fill="url(#paint37_linear)"/>
<path fill-rule="evenodd" clip-rule="evenodd" d="M1068.12 511.698C1071.13 511.364 1067.9 525.186 1066.34 525.074C1064.67 524.851 1065.67 512.033 1068.12 511.698Z" fill="white"/>
<path fill-rule="evenodd" clip-rule="evenodd" d="M1032.67 589.836C1030.22 590.95 1026.98 589.724 1023.19 586.938L1009.7 573.339C1011.04 574.565 1025.98 587.495 1028.77 560.297C1031.78 531.874 1022.64 493.641 1022.64 493.641L1023.97 491.857C1029.33 489.294 1033.34 488.067 1034.01 488.29C1036.57 489.517 1045.05 583.928 1032.67 589.836Z" fill="url(#paint38_linear)" fill-opacity="0.302"/>
<path fill-rule="evenodd" clip-rule="evenodd" d="M1033.67 422.748C1028.43 425.869 1039.36 447.94 1041.81 448.386C1044.38 448.943 1037.24 420.631 1033.67 422.748Z" fill="white"/>
<path fill-rule="evenodd" clip-rule="evenodd" d="M1043.37 451.953C1042.26 452.064 1043.48 457.192 1044.26 457.86C1045.05 458.529 1046.83 458.641 1047.27 458.195C1047.83 457.86 1044.6 451.841 1043.37 451.953Z" fill="white"/>
<path fill-rule="evenodd" clip-rule="evenodd" d="M991.087 398.561C988.968 398.672 985.178 419.628 986.962 420.296C988.745 421.077 991.087 416.618 992.759 409.596C994.32 402.796 993.093 398.561 991.087 398.561Z" fill="white"/>
<path fill-rule="evenodd" clip-rule="evenodd" d="M896.213 424.755C896.659 426.316 907.25 421.523 907.362 416.952C907.362 412.271 895.544 422.526 896.213 424.755Z" fill="white"/>
<path fill-rule="evenodd" clip-rule="evenodd" d="M999.559 529.533C994.877 530.536 1001.68 542.017 1002.68 542.575C1003.8 543.021 1004.58 538.227 1003.8 534.661C1003.13 531.428 1001.23 529.199 999.559 529.533Z" fill="white"/>
<path fill-rule="evenodd" clip-rule="evenodd" d="M935.122 538.562C932.557 538.005 933.226 545.361 933.672 545.807C934.118 546.253 935.679 544.024 936.125 542.129C936.459 540.345 936.013 538.673 935.122 538.562Z" fill="white"/>
<path fill-rule="evenodd" clip-rule="evenodd" d="M1003.91 543.8C1003.02 544.581 1005.13 548.036 1005.8 547.367C1006.58 546.587 1006.36 544.804 1005.91 544.135C1005.47 543.577 1004.24 543.466 1003.91 543.8Z" fill="white"/>
<path fill-rule="evenodd" clip-rule="evenodd" d="M944.932 465.552C945.044 465.663 945.267 465.663 945.49 465.663C945.713 465.663 945.824 465.552 945.936 465.329C946.159 464.995 946.047 464.437 945.713 464.214L939.024 459.31C938.689 459.087 938.243 459.198 938.02 459.533C937.797 459.867 937.909 460.424 938.243 460.647L944.932 465.552Z" fill="white"/>
<path fill-rule="evenodd" clip-rule="evenodd" d="M960.317 475.026C959.983 474.803 959.537 474.915 959.314 475.249C959.091 475.583 959.202 476.141 959.537 476.364L966.226 481.268C966.337 481.38 966.56 481.38 966.783 481.38C967.006 481.38 967.118 481.268 967.229 481.045C967.452 480.711 967.341 480.154 967.006 479.931L960.317 475.026Z" fill="white"/>
<path fill-rule="evenodd" clip-rule="evenodd" d="M968.678 466.332L960.986 467.893C960.652 468.004 960.317 468.338 960.429 468.784C960.54 469.23 960.875 469.453 961.32 469.453L969.013 467.893C969.347 467.781 969.682 467.447 969.57 467.001C969.459 466.444 969.124 466.221 968.678 466.332Z" fill="white"/>
<path fill-rule="evenodd" clip-rule="evenodd" d="M957.53 463.322C957.753 463.322 957.865 463.211 957.976 462.988L962.213 455.965C962.435 455.631 962.324 455.074 961.99 454.851C961.655 454.628 961.209 454.739 960.986 455.074L956.75 462.096C956.527 462.431 956.638 462.988 956.973 463.211C957.084 463.322 957.307 463.322 957.53 463.322Z" fill="white"/>
<path fill-rule="evenodd" clip-rule="evenodd" d="M950.952 461.762C951.287 461.65 951.621 461.316 951.51 460.87L949.837 452.399C949.726 451.953 949.391 451.73 948.946 451.73C948.611 451.841 948.277 452.176 948.388 452.622L950.06 461.093C950.172 461.539 950.618 461.873 950.952 461.762Z" fill="white"/>
<path fill-rule="evenodd" clip-rule="evenodd" d="M960.875 483.721C960.429 483.163 959.871 482.717 959.202 482.606C960.429 481.268 960.54 479.151 959.314 477.59L958.868 477.033C958.422 476.475 957.864 476.141 957.307 475.918C958.422 474.58 958.422 472.463 957.307 470.902L956.973 470.456C956.081 469.342 954.854 468.896 953.628 469.119H953.517C953.628 468.115 953.294 467.112 952.736 466.332L952.29 465.775C951.51 464.66 950.172 464.214 949.057 464.437C948.5 464.549 947.942 464.771 947.608 465.217L942.257 470.122L938.578 469.342C937.909 469.23 936.905 469.119 935.791 469.565C934.23 470.122 933.449 471.348 933.115 472.017L928.544 482.272V482.383C928.098 484.389 927.541 488.402 929.102 492.749C929.659 494.421 932.112 500.106 938.02 502.781C938.912 503.116 942.591 504.676 946.828 503.785C948.277 503.45 949.838 502.893 951.287 502.001C955.635 499.214 957.307 494.533 957.753 492.415L961.097 489.405C962.435 488.179 962.547 485.95 961.432 484.501L960.875 483.721ZM957.753 478.036L958.199 478.593C958.868 479.485 958.868 480.823 957.976 481.491C957.196 482.272 952.513 486.842 951.398 487.399C951.175 487.511 950.952 487.511 950.952 487.511C950.284 487.622 949.615 487.399 949.057 486.842L948.611 486.284C948.277 485.839 948.165 485.281 948.165 484.724C948.165 484.389 948.277 484.055 948.5 483.832C950.841 481.714 953.294 479.485 955.635 477.367C955.746 477.367 955.746 477.367 955.858 477.256C956.638 477.144 957.307 477.479 957.753 478.036ZM953.071 471.237C953.294 471.014 953.628 470.902 953.963 470.791C954.631 470.679 955.412 470.902 955.858 471.571L956.192 472.017C956.527 472.463 956.75 473.02 956.638 473.577C956.638 474.135 956.415 474.692 955.969 475.026L954.854 476.03C952.513 478.147 950.061 480.377 947.719 482.495C947.608 482.495 947.385 482.606 947.273 482.606C946.939 482.717 946.493 482.606 946.159 482.495C945.824 482.383 945.601 482.16 945.378 481.826L945.044 481.38C944.709 480.934 944.598 480.377 944.598 479.819C944.598 479.485 944.709 479.262 944.821 479.039C945.49 478.928 946.159 478.816 946.716 478.593C947.385 478.37 947.942 478.036 948.5 477.367C948.611 477.256 948.723 477.144 948.834 476.921C949.28 476.141 949.503 475.249 949.503 474.469L950.507 473.577L953.071 471.237ZM948.388 466.555C948.611 466.332 948.946 466.221 949.28 466.109C949.949 465.998 950.618 466.221 951.175 466.778L951.621 467.335C952.29 468.227 952.29 469.565 951.398 470.233L949.057 472.351C948.946 472.017 948.834 471.794 948.834 471.682C948.723 471.459 948.5 471.237 948.277 471.237L944.04 470.345L948.388 466.555ZM950.618 500.775C945.267 504.23 939.581 502.001 938.466 501.444C933.003 498.991 930.885 493.864 930.328 492.304C928.879 488.291 929.324 484.724 929.77 482.829L934.341 472.686C934.564 472.24 935.233 471.348 936.237 470.902C937.017 470.568 937.797 470.679 938.243 470.791L940.696 471.237H940.807L941.811 471.459L942.703 471.682L944.821 472.128L947.719 472.686C947.831 472.908 947.831 473.131 947.942 473.466C947.942 473.577 947.942 473.577 947.942 473.689C947.942 473.912 947.942 474.135 947.942 474.469C947.942 474.58 947.942 474.692 947.942 474.803C947.942 475.138 947.831 475.472 947.719 475.807C947.608 475.918 947.608 476.141 947.496 476.252C947.496 476.364 947.385 476.364 947.273 476.475C947.162 476.698 946.939 476.81 946.828 476.921C946.605 477.033 946.382 477.144 946.047 477.256C945.713 477.367 945.267 477.479 944.932 477.59C944.821 477.59 944.709 477.59 944.598 477.702C944.486 477.702 944.375 477.702 944.263 477.813C944.04 477.813 943.817 477.924 943.594 477.924C942.814 478.036 941.922 478.036 941.03 477.924C940.696 477.924 940.25 477.813 939.804 477.702C939.581 477.59 939.358 477.59 939.135 477.479C938.912 477.367 938.801 477.479 938.578 477.59C938.466 477.702 938.243 477.813 938.243 478.036L937.686 480.6C937.574 480.934 937.686 481.157 937.909 481.38C938.689 482.049 940.584 483.944 941.03 487.065C941.253 489.071 940.807 490.743 940.361 491.746C940.25 492.081 940.361 492.526 940.696 492.749C941.03 492.972 941.476 492.749 941.588 492.415C941.588 492.304 941.699 492.192 941.699 492.081C942.145 490.854 942.591 489.071 942.368 486.953C941.922 483.721 940.138 481.603 939.024 480.6L939.358 479.262C940.473 479.596 941.699 479.708 942.814 479.596C942.591 480.711 942.926 481.826 943.594 482.829L943.817 483.163L943.929 483.275C944.263 483.721 944.598 483.944 945.044 484.278C945.49 484.501 946.047 484.724 946.605 484.724C946.493 485.727 946.716 486.842 947.385 487.733L947.831 488.291C948.5 489.182 949.503 489.628 950.507 489.628C950.284 490.409 950.395 491.3 950.841 492.081C950.952 492.304 951.064 492.526 951.287 492.749L951.956 493.53C952.179 493.753 952.29 493.976 952.513 494.087C953.294 494.644 954.185 494.867 955.077 494.756C955.3 494.756 955.523 494.644 955.746 494.533C955.077 496.205 953.517 498.991 950.618 500.775ZM960.875 486.953C960.875 487.511 960.652 487.956 960.317 488.291L957.419 490.854L956.638 491.635L955.746 492.526C955.523 492.749 955.3 492.861 954.966 492.972C954.52 493.084 953.963 492.972 953.628 492.638C953.517 492.526 953.294 492.415 953.182 492.304L952.736 491.746L952.513 491.412C952.179 490.966 952.067 490.52 952.067 489.963C952.067 489.405 952.29 488.96 952.736 488.625L955.189 486.396L955.858 485.727L956.415 485.281L957.307 484.501C957.53 484.278 957.753 484.167 958.087 484.055C958.756 483.944 959.425 484.167 959.871 484.724L960.54 485.504C960.763 485.95 960.986 486.396 960.875 486.953Z" fill="#24356C"/>
<path fill-rule="evenodd" clip-rule="evenodd" d="M947.385 476.364L946.939 476.81C947.162 476.698 947.273 476.587 947.385 476.364Z" fill="white"/>
<path d="M820.8 502.718H397.1C382.7 502.718 371 491.018 371 476.618V476.118C371 461.718 382.7 450.018 397.1 450.018H820.8C835.2 450.018 846.9 461.718 846.9 476.118V476.618C846.9 491.018 835.2 502.718 820.8 502.718ZM397.1 453.218C384.5 453.218 374.3 463.418 374.3 476.018V476.518C374.3 489.118 384.5 499.318 397.1 499.318H820.8C833.4 499.318 843.6 489.118 843.6 476.518V476.018C843.6 463.418 833.4 453.218 820.8 453.218H397.1Z" fill="#3683BC"/>
<path d="M567.7 493.417H543.2V459.317H567.7V493.417ZM535.1 459.317H510.6V493.417H535.1V459.317ZM469.9 459.317H445.4V493.417H469.9V459.317ZM412.9 493.417H437.4V459.317H412.9V493.417ZM502.5 459.317H478.1V493.417H502.6V459.317H502.5ZM404.7 459.317H397.1C387.8 459.317 380.3 466.917 380.3 476.117V476.617C380.3 485.917 387.9 493.417 397.1 493.417H404.7V459.317ZM665.5 459.317H641.1V493.417H665.6V459.317H665.5ZM600.3 459.317H575.8V493.417H600.3V459.317ZM632.9 459.317H608.4V493.417H632.9V459.317Z" fill="#3683BC"/>
<path fill-rule="evenodd" clip-rule="evenodd" d="M823.972 456.968C823.972 456.968 829.323 466.109 844.931 465.997C860.539 465.886 864.998 458.083 864.998 458.083L855.745 454.07L831.553 450.503C831.553 450.503 824.529 456.523 823.972 456.968Z" fill="url(#paint39_linear)" fill-opacity="0.502"/>
<path fill-rule="evenodd" clip-rule="evenodd" d="M881.275 444.708C881.275 444.708 871.687 434.676 863.66 434.007C855.633 433.338 835.232 442.144 829.1 453.625C829.1 453.625 829.992 456.412 837.015 457.972C843.928 459.644 859.981 452.176 859.981 452.176L886.737 456.746C886.849 456.969 886.849 450.95 881.275 444.708Z" fill="url(#paint40_linear)"/>
<path fill-rule="evenodd" clip-rule="evenodd" d="M837.127 448.386C837.239 450.392 851.508 443.816 851.508 441.475C851.508 439.023 836.904 445.042 837.127 448.386Z" fill="white"/>
<path fill-rule="evenodd" clip-rule="evenodd" d="M859.87 452.398L875.143 462.43L855.745 454.07L859.87 452.398Z" fill="url(#paint41_linear)"/>
<path fill-rule="evenodd" clip-rule="evenodd" d="M859.87 452.398C859.87 452.398 872.802 448.497 874.251 438.911L876.369 440.472C876.369 440.472 874.474 450.392 859.87 452.398Z" fill="url(#paint42_linear)"/>
<path opacity="0.5" d="M209.1 354.217C209.1 364.017 217.1 372.017 226.9 372.017C236.7 372.017 244.7 364.017 244.7 354.217C244.7 344.417 236.7 336.417 226.9 336.417C217 336.417 209.1 344.417 209.1 354.217Z" fill="#3683BC"/>
<path opacity="0.09" d="M152.3 371.017C152.3 380.817 160.3 388.817 170.1 388.817C179.9 388.817 187.9 380.817 187.9 371.017C187.9 361.217 179.9 353.217 170.1 353.217C160.3 353.217 152.3 361.117 152.3 371.017Z" fill="#3683BC"/>
<path opacity="0.28" d="M132.3 432.218C142.131 432.218 150.1 424.248 150.1 414.418C150.1 404.587 142.131 396.618 132.3 396.618C122.469 396.618 114.5 404.587 114.5 414.418C114.5 424.248 122.469 432.218 132.3 432.218Z" fill="#3683BC"/>
<path opacity="0.33" d="M123.8 491.618C133.631 491.618 141.6 483.648 141.6 473.818C141.6 463.987 133.631 456.018 123.8 456.018C113.969 456.018 106 463.987 106 473.818C106 483.648 113.969 491.618 123.8 491.618Z" fill="#3683BC"/>
<path opacity="0.6818" d="M130.4 526.717C130.4 536.517 138.4 544.517 148.2 544.517C158 544.517 166 536.517 166 526.717C166 516.917 158 508.917 148.2 508.917C138.4 509.017 130.4 516.917 130.4 526.717Z" fill="#3683BC"/>
<path opacity="0.7273" d="M179 558.217C179 568.017 187 576.017 196.8 576.017C206.6 576.017 214.6 568.017 214.6 558.217C214.6 548.417 206.6 540.417 196.8 540.417C186.9 540.417 179 548.317 179 558.217Z" fill="#3683BC"/>
<path opacity="0.7727" d="M239.2 558.217C239.2 568.017 247.2 576.017 257 576.017C266.8 576.017 274.8 568.017 274.8 558.217C274.8 548.417 266.8 540.417 257 540.417C247.1 540.417 239.2 548.317 239.2 558.217Z" fill="#3683BC"/>
<path opacity="0.8182" d="M287.7 526.717C287.7 536.517 295.7 544.517 305.5 544.517C315.3 544.517 323.3 536.517 323.3 526.717C323.3 516.917 315.3 508.917 305.5 508.917C295.7 509.017 287.7 516.917 287.7 526.717Z" fill="#3683BC"/>
<path opacity="0.8636" d="M329.9 491.618C339.731 491.618 347.7 483.648 347.7 473.818C347.7 463.987 339.731 456.018 329.9 456.018C320.069 456.018 312.1 463.987 312.1 473.818C312.1 483.648 320.069 491.618 329.9 491.618Z" fill="#3683BC"/>
<path opacity="0.9091" d="M321.3 432.218C331.131 432.218 339.1 424.248 339.1 414.418C339.1 404.587 331.131 396.618 321.3 396.618C311.469 396.618 303.5 404.587 303.5 414.418C303.5 424.248 311.469 432.218 321.3 432.218Z" fill="#3683BC"/>
<path opacity="0.9545" d="M265.8 371.017C265.8 380.817 273.8 388.817 283.6 388.817C293.4 388.817 301.4 380.817 301.4 371.017C301.4 361.217 293.4 353.217 283.6 353.217C273.8 353.217 265.8 361.117 265.8 371.017Z" fill="#3683BC"/>
<path d="M209.1 354.217C209.1 364.017 217.1 372.017 226.9 372.017C236.7 372.017 244.7 364.017 244.7 354.217C244.7 344.417 236.7 336.417 226.9 336.417C217 336.417 209.1 344.417 209.1 354.217Z" fill="#3683BC"/>
<defs>
<linearGradient id="paint0_linear" x1="929.444" y1="577.244" x2="952.998" y2="492.595" gradientUnits="userSpaceOnUse">
<stop stop-color="#C3D6EE"/>
<stop offset="1" stop-color="#DCE9F7"/>
</linearGradient>
<linearGradient id="paint1_linear" x1="924.958" y1="516.423" x2="965.125" y2="516.423" gradientUnits="userSpaceOnUse">
<stop stop-color="#3784BD"/>
<stop offset="1" stop-color="#24366C"/>
</linearGradient>
<linearGradient id="paint2_linear" x1="958.704" y1="571.941" x2="943.823" y2="510.29" gradientUnits="userSpaceOnUse">
<stop stop-color="#9D68C2"/>
<stop offset="1" stop-color="#CCEDFF"/>
</linearGradient>
<linearGradient id="paint3_linear" x1="904.053" y1="321.462" x2="914.929" y2="415.163" gradientUnits="userSpaceOnUse">
<stop stop-color="#C3D6EE"/>
<stop offset="1" stop-color="#DCE9F7"/>
</linearGradient>
<linearGradient id="paint4_linear" x1="892.127" y1="341.402" x2="890.127" y2="364.038" gradientUnits="userSpaceOnUse">
<stop stop-color="#3784BD"/>
<stop offset="1" stop-color="#24366C"/>
</linearGradient>
<linearGradient id="paint5_linear" x1="876.945" y1="476.834" x2="933.243" y2="409.915" gradientUnits="userSpaceOnUse">
<stop stop-color="#9D68C2"/>
<stop offset="1" stop-color="#CCEDFF"/>
</linearGradient>
<linearGradient id="paint6_linear" x1="905.136" y1="439.227" x2="905.136" y2="480.706" gradientUnits="userSpaceOnUse">
<stop stop-color="#66CCE8"/>
<stop offset="1" stop-color="#3784BD"/>
</linearGradient>
<linearGradient id="paint7_linear" x1="920.839" y1="515.438" x2="920.839" y2="559.893" gradientUnits="userSpaceOnUse">
<stop stop-color="#AECDEC"/>
<stop offset="1" stop-color="#D2DFF2"/>
</linearGradient>
<linearGradient id="paint8_linear" x1="988.417" y1="397.812" x2="1009.34" y2="565.753" gradientUnits="userSpaceOnUse">
<stop stop-color="#C3D6EE"/>
<stop offset="1" stop-color="#DCE9F7"/>
</linearGradient>
<linearGradient id="paint9_linear" x1="914.073" y1="355.29" x2="1060.25" y2="355.29" gradientUnits="userSpaceOnUse">
<stop stop-color="#3784BD"/>
<stop offset="1" stop-color="#24366C"/>
</linearGradient>
<linearGradient id="paint10_linear" x1="978.493" y1="404.109" x2="978.493" y2="513.474" gradientUnits="userSpaceOnUse">
<stop stop-color="#9D68C2"/>
<stop offset="1" stop-color="#CCEDFF"/>
</linearGradient>
<linearGradient id="paint11_linear" x1="988.029" y1="337.047" x2="988.029" y2="371.201" gradientUnits="userSpaceOnUse">
<stop stop-color="#8DA4E5"/>
<stop offset="1" stop-color="#755CBB"/>
</linearGradient>
<linearGradient id="paint12_linear" x1="970.41" y1="225.067" x2="973.192" y2="243.856" gradientUnits="userSpaceOnUse">
<stop stop-color="#3986C7"/>
<stop offset="1" stop-color="#4A5497"/>
</linearGradient>
<linearGradient id="paint13_linear" x1="949.011" y1="325.529" x2="956.632" y2="233.151" gradientUnits="userSpaceOnUse">
<stop stop-color="#0665BD"/>
<stop offset="1" stop-color="#1A1F77"/>
</linearGradient>
<linearGradient id="paint14_linear" x1="978.591" y1="468.805" x2="980.501" y2="398.283" gradientUnits="userSpaceOnUse">
<stop stop-color="#C3D6EE"/>
<stop offset="1" stop-color="#DCE9F7"/>
</linearGradient>
<linearGradient id="paint15_linear" x1="1051.5" y1="476.705" x2="1051.5" y2="559.329" gradientUnits="userSpaceOnUse">
<stop stop-color="#AECDEC"/>
<stop offset="1" stop-color="#D2DFF2"/>
</linearGradient>
<linearGradient id="paint16_linear" x1="1018.92" y1="517.936" x2="1024.28" y2="425.969" gradientUnits="userSpaceOnUse">
<stop stop-color="#9D68C2"/>
<stop offset="1" stop-color="#CCEDFF"/>
</linearGradient>
<linearGradient id="paint17_linear" x1="1058.54" y1="485.032" x2="1058.54" y2="566.459" gradientUnits="userSpaceOnUse">
<stop stop-color="#3784BD"/>
<stop offset="1" stop-color="#24366C"/>
</linearGradient>
<linearGradient id="paint18_linear" x1="1059.38" y1="282.366" x2="1070.49" y2="197.353" gradientUnits="userSpaceOnUse">
<stop stop-color="#66CCE8"/>
<stop offset="1" stop-color="#3784BD"/>
</linearGradient>
<linearGradient id="paint19_linear" x1="928.489" y1="478.712" x2="1003.47" y2="478.712" gradientUnits="userSpaceOnUse">
<stop stop-color="#3784BD"/>
<stop offset="1" stop-color="#24366C"/>
</linearGradient>
<linearGradient id="paint20_linear" x1="935.497" y1="464.272" x2="994.622" y2="502.242" gradientUnits="userSpaceOnUse">
<stop stop-color="#63ADE0"/>
<stop offset="1" stop-color="#3784BD"/>
</linearGradient>
<linearGradient id="paint21_linear" x1="1011.6" y1="416.874" x2="1031.71" y2="416.874" gradientUnits="userSpaceOnUse">
<stop stop-color="#3784BD"/>
<stop offset="1" stop-color="#24366C"/>
</linearGradient>
<linearGradient id="paint22_linear" x1="1011.59" y1="420.085" x2="1024.27" y2="420.085" gradientUnits="userSpaceOnUse">
<stop stop-color="#3784BD"/>
<stop offset="1" stop-color="#24366C"/>
</linearGradient>
<linearGradient id="paint23_linear" x1="1038.49" y1="287.763" x2="1052.23" y2="413.113" gradientUnits="userSpaceOnUse">
<stop stop-color="#C3D6EE"/>
<stop offset="1" stop-color="#DCE9F7"/>
</linearGradient>
<linearGradient id="paint24_linear" x1="977.343" y1="207.119" x2="988.128" y2="307.3" gradientUnits="userSpaceOnUse">
<stop stop-color="#C3D6EE"/>
<stop offset="1" stop-color="#DCE9F7"/>
</linearGradient>
<linearGradient id="paint25_linear" x1="1073.64" y1="309.989" x2="1073.64" y2="331.817" gradientUnits="userSpaceOnUse">
<stop stop-color="#3784BD"/>
<stop offset="1" stop-color="#24366C"/>
</linearGradient>
<linearGradient id="paint26_linear" x1="835.696" y1="310.086" x2="841.258" y2="350.902" gradientUnits="userSpaceOnUse">
<stop stop-color="#C3D6EE"/>
<stop offset="1" stop-color="#DCE9F7"/>
</linearGradient>
<linearGradient id="paint27_linear" x1="865.448" y1="414.043" x2="870.428" y2="460.377" gradientUnits="userSpaceOnUse">
<stop stop-color="#3784BD"/>
<stop offset="1" stop-color="#24366C"/>
</linearGradient>
<linearGradient id="paint28_linear" x1="868.347" y1="595.828" x2="868.347" y2="615.109" gradientUnits="userSpaceOnUse">
<stop stop-color="#20BADD"/>
<stop offset="1" stop-color="#4985C5"/>
</linearGradient>
<linearGradient id="paint29_linear" x1="866.662" y1="245.869" x2="866.662" y2="253.495" gradientUnits="userSpaceOnUse">
<stop stop-color="#20BADD"/>
<stop offset="1" stop-color="#4985C5"/>
</linearGradient>
<linearGradient id="paint30_linear" x1="903.098" y1="300.49" x2="905.517" y2="265.098" gradientUnits="userSpaceOnUse">
<stop stop-color="#66CCE8"/>
<stop offset="1" stop-color="#3784BD"/>
</linearGradient>
<linearGradient id="paint31_linear" x1="980.989" y1="394.451" x2="980.989" y2="400.511" gradientUnits="userSpaceOnUse">
<stop stop-color="#66CCE8"/>
<stop offset="1" stop-color="#3784BD"/>
</linearGradient>
<linearGradient id="paint32_linear" x1="984.452" y1="397.526" x2="984.452" y2="422.036" gradientUnits="userSpaceOnUse">
<stop stop-color="#8DA4E5"/>
<stop offset="1" stop-color="#755CBB"/>
</linearGradient>
<linearGradient id="paint33_linear" x1="1067.88" y1="493.475" x2="1050.31" y2="409.757" gradientUnits="userSpaceOnUse">
<stop stop-color="#9D68C2"/>
<stop offset="1" stop-color="#CCEDFF"/>
</linearGradient>
<linearGradient id="paint34_linear" x1="1002.76" y1="-224.008" x2="1009.84" y2="-156.885" gradientUnits="userSpaceOnUse">
<stop stop-color="#C3D6EE"/>
<stop offset="1" stop-color="#DCE9F7"/>
</linearGradient>
<linearGradient id="paint35_linear" x1="1075.59" y1="566.443" x2="1069.05" y2="515.612" gradientUnits="userSpaceOnUse">
<stop stop-color="#3784BD"/>
<stop offset="1" stop-color="#24366C"/>
</linearGradient>
<linearGradient id="paint36_linear" x1="1069.98" y1="83.98" x2="1069.98" y2="108.318" gradientUnits="userSpaceOnUse">
<stop stop-color="#8DA4E5"/>
<stop offset="1" stop-color="#755CBB"/>
</linearGradient>
<linearGradient id="paint37_linear" x1="994.697" y1="-176.652" x2="998.589" y2="-137.999" gradientUnits="userSpaceOnUse">
<stop stop-color="#C3D6EE"/>
<stop offset="1" stop-color="#DCE9F7"/>
</linearGradient>
<linearGradient id="paint38_linear" x1="1024.49" y1="597.36" x2="1024.65" y2="498.227" gradientUnits="userSpaceOnUse">
<stop stop-color="#9D68C2"/>
<stop offset="1" stop-color="#CCEDFF"/>
</linearGradient>
<linearGradient id="paint39_linear" x1="826.875" y1="325.74" x2="828.726" y2="339.571" gradientUnits="userSpaceOnUse">
<stop stop-color="#8DA4E5"/>
<stop offset="1" stop-color="#755CBB"/>
</linearGradient>
<linearGradient id="paint40_linear" x1="840.696" y1="339.46" x2="844.398" y2="364.277" gradientUnits="userSpaceOnUse">
<stop stop-color="#C3D6EE"/>
<stop offset="1" stop-color="#DCE9F7"/>
</linearGradient>
<linearGradient id="paint41_linear" x1="876.461" y1="326.476" x2="875.531" y2="337.606" gradientUnits="userSpaceOnUse">
<stop stop-color="#3784BD"/>
<stop offset="1" stop-color="#24366C"/>
</linearGradient>
<linearGradient id="paint42_linear" x1="884.511" y1="340.109" x2="882.655" y2="352.165" gradientUnits="userSpaceOnUse">
<stop stop-color="#3784BD"/>
<stop offset="1" stop-color="#24366C"/>
</linearGradient>
</defs>
</svg>
