<svg width="69" height="71" viewBox="0 0 69 71" fill="none" xmlns="http://www.w3.org/2000/svg">
<path fill-rule="evenodd" clip-rule="evenodd" d="M55.4621 9.37581C39.0024 -6.91712 24.9823 0.492696 22.5427 12.9056C20.1031 25.3185 -2.55927 27.7969 0.238838 42.4584C3.03695 57.1198 33.5158 48.4146 33.5158 61.7015C33.5158 74.9885 68.7556 74.5303 68.7556 57.1198C68.7556 39.7093 71.9219 25.6687 55.4621 9.37581Z" fill="#E4EAF0"/>
<path d="M45.6667 32H12.3333C10.4931 32 9 33.4931 9 35.3333V59.7778C9 61.6181 10.4931 63.1111 12.3333 63.1111H45.6667C47.5069 63.1111 49 61.6181 49 59.7778V35.3333C49 33.4931 47.5069 32 45.6667 32ZM45.6667 59.7778H12.3333V35.3333H45.6667V59.7778ZM23.4444 47.5556C25.8958 47.5556 27.8889 45.5625 27.8889 43.1111C27.8889 40.6597 25.8958 38.6667 23.4444 38.6667C20.9931 38.6667 19 40.6597 19 43.1111C19 45.5625 20.9931 47.5556 23.4444 47.5556ZM17.2222 56.4444H29.6667C30.5278 56.4444 31.2222 55.8472 31.2222 55.1111V53.7778C31.2222 51.5694 29.1319 49.7778 26.5556 49.7778C25.8056 49.7778 25.2569 50.3333 23.4444 50.3333C21.5764 50.3333 21.125 49.7778 20.3333 49.7778C17.7569 49.7778 15.6667 51.5694 15.6667 53.7778V55.1111C15.6667 55.8472 16.3611 56.4444 17.2222 56.4444ZM34 52H41.7778C42.0833 52 42.3333 51.75 42.3333 51.4444V50.3333C42.3333 50.0278 42.0833 49.7778 41.7778 49.7778H34C33.6944 49.7778 33.4444 50.0278 33.4444 50.3333V51.4444C33.4444 51.75 33.6944 52 34 52ZM34 47.5556H41.7778C42.0833 47.5556 42.3333 47.3056 42.3333 47V45.8889C42.3333 45.5833 42.0833 45.3333 41.7778 45.3333H34C33.6944 45.3333 33.4444 45.5833 33.4444 45.8889V47C33.4444 47.3056 33.6944 47.5556 34 47.5556ZM34 43.1111H41.7778C42.0833 43.1111 42.3333 42.8611 42.3333 42.5556V41.4444C42.3333 41.1389 42.0833 40.8889 41.7778 40.8889H34C33.6944 40.8889 33.4444 41.1389 33.4444 41.4444V42.5556C33.4444 42.8611 33.6944 43.1111 34 43.1111Z" fill="#3683BC"/>
</svg>
