<svg width="100" height="99" viewBox="0 0 100 99" fill="none" xmlns="http://www.w3.org/2000/svg">
<path fill-rule="evenodd" clip-rule="evenodd" d="M53.8703 82.708C77.022 82.0884 81.3668 66.8374 74.0888 56.4903C66.8107 46.1433 80.6945 28.0611 68.1699 19.9418C55.6453 11.8226 40.8528 39.857 31.2562 30.6674C21.6596 21.4778 -2.38213 47.2469 10.1927 59.2884C22.7676 71.3299 30.7187 83.3276 53.8703 82.708Z" fill="#E4EAF0"/>
<path d="M58.333 43.3333H26.333C24.133 43.3333 22.353 45.1333 22.353 47.3333L22.333 83.3333L30.333 75.3333H58.333C60.533 75.3333 62.333 73.5333 62.333 71.3333V47.3333C62.333 45.1333 60.533 43.3333 58.333 43.3333ZM36.333 61.3333H32.333V57.3333H36.333V61.3333ZM44.333 61.3333H40.333V57.3333H44.333V61.3333ZM52.333 61.3333H48.333V57.3333H52.333V61.3333Z" fill="#3683BC"/>
</svg>
