<svg width="81" height="83" viewBox="0 0 81 83" fill="none" xmlns="http://www.w3.org/2000/svg">
<path fill-rule="evenodd" clip-rule="evenodd" d="M24.313 70.8232C43.3158 84.0624 55.8628 74.3648 56.1444 61.7176C56.426 49.0704 78.3311 42.7541 73.0677 28.7869C67.8043 14.8196 39.2623 28.6073 36.9908 15.5159C34.7193 2.42457 0.0766715 8.90046 3.05311 26.0546C6.02955 43.2088 5.31022 57.584 24.313 70.8232Z" fill="#E4EAF0"/>
<path d="M43 44C45.6522 44 48.1957 45.0536 50.0711 46.9289C51.9464 48.8043 53 51.3478 53 54V66H33V54C33 51.3478 34.0536 48.8043 35.9289 46.9289C37.8043 45.0536 40.3478 44 43 44ZM29.576 50.012C29.2577 51.0856 29.0697 52.1935 29.016 53.312L29 54V66H23V57C22.9996 55.2751 23.6361 53.6109 24.7873 52.3264C25.9385 51.042 27.5234 50.2278 29.238 50.04L29.578 50.012H29.576ZM56.424 50.012C58.2038 50.1205 59.8752 50.9039 61.0972 52.2025C62.3192 53.501 62.9997 55.2169 63 57V66H57V54C57 52.614 56.8 51.276 56.424 50.012ZM30 38C31.3261 38 32.5979 38.5268 33.5355 39.4645C34.4732 40.4021 35 41.6739 35 43C35 44.3261 34.4732 45.5979 33.5355 46.5355C32.5979 47.4732 31.3261 48 30 48C28.6739 48 27.4021 47.4732 26.4645 46.5355C25.5268 45.5979 25 44.3261 25 43C25 41.6739 25.5268 40.4021 26.4645 39.4645C27.4021 38.5268 28.6739 38 30 38ZM56 38C57.3261 38 58.5979 38.5268 59.5355 39.4645C60.4732 40.4021 61 41.6739 61 43C61 44.3261 60.4732 45.5979 59.5355 46.5355C58.5979 47.4732 57.3261 48 56 48C54.6739 48 53.4021 47.4732 52.4645 46.5355C51.5268 45.5979 51 44.3261 51 43C51 41.6739 51.5268 40.4021 52.4645 39.4645C53.4021 38.5268 54.6739 38 56 38ZM43 26C45.1217 26 47.1566 26.8429 48.6569 28.3431C50.1571 29.8434 51 31.8783 51 34C51 36.1217 50.1571 38.1566 48.6569 39.6569C47.1566 41.1571 45.1217 42 43 42C40.8783 42 38.8434 41.1571 37.3431 39.6569C35.8429 38.1566 35 36.1217 35 34C35 31.8783 35.8429 29.8434 37.3431 28.3431C38.8434 26.8429 40.8783 26 43 26Z" fill="#3683BC"/>
</svg>
