<svg width="64" height="62" viewBox="0 0 64 62" fill="none" xmlns="http://www.w3.org/2000/svg">
<path d="M54.1051 21.0333H40.8288V9.93145C41.0518 7.79972 40.4217 5.66643 39.0772 4.00084C37.7328 2.33525 35.784 1.2738 33.6597 1.04996C33.1011 0.983346 32.5366 0.983346 31.978 1.04996H28.504C27.7644 1.07029 27.0524 1.33641 26.4798 1.80657C25.9071 2.27673 25.5062 2.92433 25.3399 3.6478V3.91424L23.1271 17.9914L15.2941 29.9148H1V61H43.0416C59.5042 61 62.956 51.3414 62.956 43.237V29.9148C63.1789 27.7831 62.5489 25.6498 61.2044 23.9842C59.8599 22.3186 57.9112 21.2571 55.7868 21.0333C55.2282 20.9667 54.6637 20.9667 54.1051 21.0333ZM14.2763 56.5593H5.42543V34.3555H14.2763V56.5593ZM58.5306 43.237C58.5306 52.3183 53.6183 56.5593 43.0416 56.5593H18.7017V32.8013L27.5526 19.6345L29.1678 7.71108L29.4776 5.4907H31.978C35.1643 5.4907 36.4034 6.73411 36.4034 9.93145V25.474H54.1051C57.2914 25.474 58.5306 26.7175 58.5306 29.9148V43.237Z" fill="#3683BC" stroke="#3683BC"/>
</svg>
