<svg width="1280" height="840" viewBox="0 0 1280 840" fill="none" xmlns="http://www.w3.org/2000/svg">
<path d="M492.59 179.135C483.285 179.135 478.452 184.653 478.452 194.318V225.732C478.452 235.398 483.285 240.916 492.59 240.916C501.895 240.916 506.728 235.398 506.728 225.732V206.581H493.455V215.201H497.783V226.349C497.783 230.677 495.872 232.227 492.878 232.227C489.849 232.227 487.973 230.677 487.973 226.349V193.741C487.973 189.413 489.885 187.79 492.878 187.79C495.908 187.79 497.783 189.413 497.783 193.741V200.197H506.764V194.355C506.728 184.689 501.895 179.135 492.59 179.135Z" fill="#24356C"/>
<path d="M526.493 179.135C517.188 179.135 512.066 184.653 512.066 194.318V225.732C512.066 235.398 517.152 240.916 526.493 240.916C535.834 240.916 540.919 235.398 540.919 225.732V194.355C540.919 184.689 535.834 179.135 526.493 179.135ZM531.434 226.349C531.434 230.677 529.522 232.3 526.529 232.3C523.499 232.3 521.624 230.677 521.624 226.349V193.741C521.624 189.413 523.535 187.79 526.529 187.79C529.558 187.79 531.434 189.413 531.434 193.741V226.349Z" fill="#24356C"/>
<path d="M568.978 179.856L556.536 206.148V179.856H547.05V240.231H556.536V221.693L559.457 216.175L568.69 240.231H578.464L565.264 206.761L578.464 179.856H568.978Z" fill="#3683BC"/>
<path d="M604.359 215.994L594.585 179.856H582.684V240.231H591.231V196.483L603.061 240.231H612.799V179.856H604.359V215.994Z" fill="#3683BC"/>
<path d="M633.248 179.135C623.943 179.135 618.822 184.653 618.822 194.318V225.732C618.822 235.398 623.907 240.916 633.248 240.916C642.59 240.916 647.675 235.398 647.675 225.732V194.355C647.675 184.689 642.59 179.135 633.248 179.135ZM638.19 226.349C638.19 230.677 636.278 232.3 633.285 232.3C630.255 232.3 628.38 230.677 628.38 226.349V193.741C628.38 189.413 630.291 187.79 633.285 187.79C636.314 187.79 638.19 189.413 638.19 193.741V226.349Z" fill="#3683BC"/>
<path d="M667.151 179.135C657.846 179.135 653.013 184.653 653.013 194.318V225.732C653.013 235.398 657.846 240.916 667.151 240.916C676.456 240.916 681.289 235.398 681.289 225.732V217.689H672.308V226.349C672.308 230.677 670.397 232.227 667.403 232.227C664.374 232.227 662.498 230.677 662.498 226.349V193.741C662.498 189.413 664.41 187.79 667.403 187.79C670.433 187.79 672.308 189.413 672.308 193.741V200.197H681.289V194.355C681.325 184.689 676.492 179.135 667.151 179.135Z" fill="#3683BC"/>
<path d="M718.509 179.856H709.024L696.581 206.148V179.856H687.096V240.231H696.581V221.693L699.539 216.175L708.772 240.231H718.509L705.309 206.761L718.509 179.856Z" fill="#3683BC"/>
<path d="M434.74 187.103C434.951 187.311 435.236 187.428 435.533 187.428C435.83 187.428 436.115 187.311 436.327 187.103C436.535 186.884 436.652 186.594 436.652 186.292C436.652 185.989 436.535 185.699 436.327 185.48L427.671 176.824C427.565 176.714 427.438 176.625 427.298 176.565C427.157 176.504 427.006 176.472 426.853 176.47C426.7 176.468 426.549 176.498 426.407 176.555C426.265 176.613 426.137 176.699 426.029 176.807C425.921 176.916 425.835 177.045 425.778 177.186C425.721 177.328 425.692 177.48 425.694 177.633C425.696 177.786 425.729 177.937 425.79 178.077C425.851 178.218 425.94 178.344 426.051 178.449L434.74 187.103Z" fill="#3683BC"/>
<path d="M455.37 204.565C455.154 204.349 454.862 204.229 454.558 204.229C454.254 204.229 453.962 204.349 453.747 204.565C453.531 204.78 453.41 205.072 453.41 205.376C453.41 205.681 453.531 205.972 453.747 206.188L462.402 214.844C462.614 215.052 462.899 215.168 463.196 215.168C463.493 215.168 463.778 215.052 463.989 214.844C464.198 214.625 464.314 214.334 464.314 214.032C464.314 213.73 464.198 213.439 463.989 213.221L455.37 204.565Z" fill="#3683BC"/>
<path d="M470.77 194.679H458.544C458.247 194.679 457.963 194.797 457.753 195.007C457.543 195.216 457.426 195.501 457.426 195.797C457.426 196.094 457.543 196.378 457.753 196.588C457.963 196.798 458.247 196.915 458.544 196.915H470.77C471.067 196.915 471.351 196.798 471.561 196.588C471.77 196.378 471.888 196.094 471.888 195.797C471.888 195.501 471.77 195.216 471.561 195.007C471.351 194.797 471.067 194.679 470.77 194.679Z" fill="#3683BC"/>
<path d="M454.576 187.431C454.723 187.431 454.869 187.402 455.005 187.346C455.142 187.29 455.265 187.207 455.369 187.103L464.025 178.447C464.241 178.232 464.362 177.94 464.362 177.636C464.362 177.331 464.241 177.039 464.025 176.824C463.919 176.718 463.792 176.633 463.653 176.575C463.514 176.518 463.365 176.488 463.214 176.488C462.91 176.488 462.618 176.609 462.402 176.824L453.746 185.48C453.538 185.699 453.422 185.989 453.422 186.292C453.422 186.594 453.538 186.884 453.746 187.103C453.974 187.309 454.269 187.425 454.576 187.431Z" fill="#3683BC"/>
<path d="M445.055 183.499C445.351 183.497 445.634 183.379 445.844 183.17C446.053 182.96 446.171 182.677 446.173 182.381V170.118C446.173 169.822 446.055 169.537 445.845 169.327C445.636 169.118 445.351 169 445.055 169C444.758 169 444.474 169.118 444.264 169.327C444.055 169.537 443.937 169.822 443.937 170.118V182.345C443.934 182.494 443.961 182.642 444.015 182.781C444.07 182.92 444.152 183.047 444.256 183.154C444.359 183.262 444.484 183.347 444.621 183.406C444.758 183.465 444.905 183.497 445.055 183.499Z" fill="#3683BC"/>
<path d="M453.566 216.788C453.07 215.886 452.298 215.166 451.364 214.732C452.465 214.012 453.253 212.901 453.567 211.623C453.882 210.346 453.7 208.996 453.059 207.847L452.554 206.945C452.072 206.083 451.36 205.372 450.499 204.889C451.541 204.11 452.269 202.982 452.548 201.71C452.827 200.439 452.64 199.109 452.02 197.965L451.655 197.309C451.192 196.47 450.513 195.77 449.689 195.281C448.865 194.793 447.924 194.534 446.966 194.532H446.714C446.935 193.856 447.014 193.142 446.946 192.435C446.877 191.727 446.663 191.041 446.317 190.42L445.812 189.519C445.362 188.698 444.699 188.014 443.893 187.538C443.087 187.063 442.168 186.814 441.232 186.817C440.349 186.818 439.481 187.041 438.707 187.466L429.149 192.804L423.812 190.784C422.461 190.256 420.994 190.094 419.56 190.314C417.699 190.618 416.003 191.562 414.763 192.983C414.727 192.983 414.727 193.019 414.727 193.055L404.629 206.075C404.593 206.147 404.557 206.185 404.519 206.256C401.889 211.569 401.294 217.661 402.849 223.382C404.403 229.104 407.998 234.058 412.956 237.31C416.922 239.739 421.467 241.061 426.118 241.135C428.652 241.137 431.166 240.698 433.55 239.837C439.128 237.717 443.701 233.569 446.353 228.223L452.34 224.905C452.912 224.592 453.417 224.168 453.825 223.659C454.233 223.15 454.536 222.565 454.717 221.938C454.898 221.311 454.953 220.655 454.879 220.007C454.806 219.358 454.605 218.731 454.288 218.161L453.566 216.788ZM450.537 208.02L451.042 208.921C451.231 209.259 451.351 209.632 451.396 210.017C451.44 210.402 451.408 210.791 451.3 211.164C451.193 211.536 451.013 211.883 450.77 212.186C450.528 212.488 450.228 212.739 449.888 212.925C448.445 213.79 439.861 218.912 438.058 219.38C437.832 219.426 437.603 219.45 437.373 219.453C436.844 219.452 436.326 219.312 435.87 219.046C435.413 218.78 435.036 218.397 434.776 217.938L434.271 217.036C434.079 216.7 433.958 216.328 433.915 215.944C433.871 215.56 433.907 215.17 434.018 214.8C434.142 214.333 434.392 213.909 434.74 213.574L447.615 206.545C447.725 206.545 447.834 206.509 447.943 206.509C448.472 206.501 448.993 206.637 449.45 206.903C449.908 207.169 450.283 207.555 450.537 208.02ZM445.451 197.276C445.902 197.019 446.411 196.883 446.93 196.879C447.472 196.881 448.004 197.026 448.472 197.298C448.94 197.57 449.329 197.961 449.599 198.43L449.96 199.079C450.16 199.425 450.286 199.81 450.329 200.207C450.373 200.604 450.333 201.007 450.212 201.388C450.109 201.776 449.928 202.14 449.68 202.456C449.432 202.772 449.122 203.035 448.77 203.227L446.678 204.381C442.386 206.726 438.094 209.07 433.802 211.376C433.576 211.418 433.347 211.442 433.117 211.448C432.533 211.437 431.961 211.276 431.458 210.979C431.042 210.701 430.696 210.331 430.448 209.897L430.087 209.248C430.087 209.212 430.051 209.212 430.051 209.176C429.699 208.486 429.609 207.691 429.799 206.94C429.905 206.558 430.09 206.202 430.34 205.894C431.375 205.931 432.411 205.894 433.441 205.785C434.534 205.667 435.577 205.27 436.471 204.631C436.688 204.494 436.882 204.323 437.048 204.127C437.938 203.243 438.541 202.112 438.779 200.881L440.583 199.871L445.451 197.276ZM439.753 189.516C440.194 189.271 440.691 189.147 441.196 189.156C441.724 189.156 442.242 189.296 442.699 189.563C443.155 189.829 443.532 190.211 443.792 190.671L444.297 191.572C444.487 191.91 444.607 192.283 444.651 192.668C444.696 193.053 444.663 193.442 444.556 193.815C444.448 194.187 444.268 194.534 444.026 194.837C443.783 195.139 443.483 195.39 443.143 195.576L438.96 197.889C438.931 197.574 438.883 197.261 438.815 196.952C438.777 196.772 438.695 196.605 438.575 196.467C438.455 196.328 438.302 196.222 438.13 196.158L431.927 193.812L439.753 189.516ZM432.828 237.856C423.631 241.21 415.625 236.486 414.11 235.512C409.599 232.557 406.324 228.055 404.902 222.854C403.481 217.652 404.01 212.11 406.392 207.272L416.382 194.358C417.294 193.332 418.527 192.645 419.879 192.41C420.949 192.241 422.045 192.366 423.049 192.771L426.583 194.106L426.728 194.178L428.134 194.719L429.505 195.265L432.57 196.419L436.828 197.997C436.874 198.356 436.898 198.718 436.9 199.079V199.407C436.885 199.76 436.837 200.11 436.756 200.453C436.72 200.598 436.684 200.742 436.647 200.85C436.51 201.311 436.303 201.749 436.034 202.148C435.888 202.339 435.732 202.522 435.565 202.695C435.465 202.79 435.355 202.875 435.237 202.947C434.973 203.145 434.681 203.303 434.371 203.416C433.979 203.571 433.566 203.668 433.145 203.705C432.523 203.78 431.897 203.817 431.27 203.814H430.188C429.863 203.82 429.538 203.808 429.214 203.778C427.904 203.669 426.609 203.415 425.355 203.021C424.755 202.836 424.165 202.619 423.588 202.371L422.614 201.934C422.487 201.866 422.347 201.827 422.203 201.821C422.06 201.815 421.916 201.841 421.784 201.898C421.519 201.997 421.3 202.192 421.171 202.445L419.584 205.799C419.499 205.986 419.468 206.192 419.493 206.396C419.519 206.6 419.6 206.793 419.729 206.953C421.852 209.364 422.952 212.508 422.794 215.717C422.621 218.011 421.781 220.205 420.378 222.029C420.215 222.254 420.147 222.534 420.189 222.808C420.232 223.083 420.38 223.33 420.603 223.496C420.826 223.661 421.105 223.733 421.38 223.695C421.655 223.656 421.904 223.511 422.073 223.291L422.401 222.854C423.852 220.778 424.712 218.347 424.889 215.821C425.102 212.285 423.983 208.798 421.752 206.047L422.617 204.244C424.265 204.949 425.999 205.434 427.775 205.686C427.459 206.436 427.318 207.247 427.362 208.059C427.406 208.872 427.633 209.663 428.027 210.375L428.316 210.88L428.388 211.024C428.734 211.649 429.2 212.201 429.758 212.647C430.42 213.152 431.182 213.509 431.994 213.693C431.721 214.41 431.605 215.177 431.654 215.942C431.704 216.708 431.919 217.454 432.283 218.129L432.788 219.031C433.164 219.7 433.682 220.279 434.305 220.727C434.927 221.176 435.641 221.483 436.394 221.627C435.849 222.738 435.746 224.014 436.106 225.198C436.221 225.547 436.367 225.885 436.543 226.208L437.3 227.542C437.499 227.896 437.742 228.223 438.022 228.516C438.489 229.015 439.053 229.412 439.679 229.684C440.306 229.956 440.982 230.096 441.664 230.096C442.054 230.102 442.442 230.053 442.819 229.952C440.399 233.568 436.904 236.333 432.828 237.856ZM452.665 221.338C452.458 222.055 451.979 222.664 451.33 223.033L446.209 225.882L444.766 226.676L443.071 227.613C442.656 227.858 442.182 227.983 441.701 227.974C441.34 227.977 440.981 227.909 440.647 227.773C440.313 227.637 440.009 227.435 439.753 227.181C439.557 226.987 439.387 226.769 439.248 226.531L438.779 225.666L438.491 225.197C438.139 224.546 438.048 223.785 438.238 223.069C438.445 222.351 438.924 221.743 439.573 221.374L443.932 218.949L445.231 218.227L446.241 217.686L447.9 216.785C448.314 216.54 448.789 216.415 449.27 216.424C449.771 216.42 450.264 216.551 450.696 216.806C451.128 217.06 451.483 217.426 451.723 217.867L452.48 219.201C452.776 219.871 452.841 220.621 452.665 221.332V221.338Z" fill="#24356C"/>
<path d="M435.245 202.938L434.379 203.407C434.696 203.31 434.99 203.15 435.245 202.938Z" fill="#24356C"/>
<path d="M231.188 429.216C231.506 429.528 231.934 429.703 232.38 429.703C232.826 429.703 233.254 429.528 233.572 429.216C233.885 428.887 234.06 428.451 234.06 427.997C234.06 427.543 233.885 427.106 233.572 426.777L220.568 413.773C220.409 413.607 220.218 413.474 220.007 413.383C219.796 413.291 219.569 413.243 219.339 413.241C219.11 413.238 218.882 413.282 218.669 413.369C218.456 413.456 218.263 413.585 218.101 413.748C217.938 413.91 217.81 414.104 217.724 414.317C217.638 414.53 217.595 414.758 217.598 414.988C217.601 415.218 217.65 415.445 217.742 415.655C217.834 415.866 217.968 416.056 218.134 416.214L231.188 429.216Z" fill="#3683BC"/>
<path d="M262.182 455.45C261.859 455.126 261.42 454.945 260.963 454.945C260.505 454.945 260.067 455.126 259.744 455.45C259.42 455.773 259.239 456.211 259.239 456.669C259.239 457.126 259.42 457.565 259.744 457.888L272.748 470.893C273.066 471.205 273.494 471.38 273.94 471.38C274.386 471.38 274.814 471.205 275.132 470.893C275.446 470.564 275.62 470.127 275.62 469.673C275.62 469.219 275.446 468.783 275.132 468.454L262.182 455.45Z" fill="#3683BC"/>
<path d="M285.32 440.598H266.951C266.506 440.598 266.079 440.775 265.764 441.09C265.449 441.405 265.272 441.832 265.272 442.278C265.272 442.723 265.449 443.15 265.764 443.465C266.079 443.78 266.506 443.957 266.951 443.957H285.32C285.766 443.957 286.193 443.78 286.508 443.465C286.823 443.15 287 442.723 287 442.278C287 441.832 286.823 441.405 286.508 441.09C286.193 440.775 285.766 440.598 285.32 440.598Z" fill="#3683BC"/>
<path d="M260.99 429.708C261.211 429.709 261.43 429.665 261.635 429.581C261.839 429.496 262.025 429.372 262.182 429.216L275.186 416.211C275.51 415.888 275.691 415.449 275.691 414.992C275.691 414.534 275.51 414.096 275.186 413.773C275.026 413.612 274.836 413.485 274.627 413.399C274.418 413.312 274.194 413.268 273.967 413.268C273.51 413.268 273.071 413.449 272.748 413.773L259.743 426.777C259.43 427.106 259.255 427.542 259.255 427.996C259.255 428.45 259.43 428.887 259.743 429.216C260.086 429.525 260.528 429.7 260.99 429.708Z" fill="#3683BC"/>
<path d="M246.685 423.8C247.13 423.798 247.556 423.62 247.871 423.306C248.185 422.991 248.363 422.565 248.365 422.121V403.697C248.365 403.252 248.188 402.825 247.873 402.51C247.558 402.195 247.131 402.018 246.685 402.018C246.24 402.018 245.813 402.195 245.498 402.51C245.183 402.825 245.006 403.252 245.006 403.697V422.066C245.001 422.291 245.041 422.514 245.124 422.722C245.206 422.931 245.329 423.122 245.485 423.283C245.641 423.444 245.827 423.573 246.033 423.662C246.239 423.75 246.461 423.798 246.685 423.8Z" fill="#3683BC"/>
<path d="M259.473 473.814C258.727 472.459 257.568 471.377 256.164 470.725C257.819 469.643 259.002 467.974 259.475 466.054C259.947 464.135 259.674 462.107 258.711 460.381L257.953 459.026C257.228 457.731 256.159 456.663 254.864 455.937C256.43 454.767 257.523 453.071 257.943 451.161C258.363 449.251 258.081 447.253 257.15 445.534L256.601 444.549C255.906 443.288 254.886 442.236 253.648 441.502C252.409 440.769 250.997 440.38 249.557 440.376H249.178C249.51 439.361 249.629 438.288 249.526 437.225C249.424 436.162 249.102 435.132 248.582 434.199L247.823 432.844C247.147 431.612 246.151 430.584 244.94 429.869C243.729 429.155 242.348 428.781 240.942 428.785C239.615 428.787 238.311 429.123 237.149 429.761L222.789 437.78L214.77 434.746C212.74 433.953 210.537 433.709 208.382 434.04C205.586 434.496 203.038 435.914 201.176 438.05C201.121 438.05 201.121 438.104 201.121 438.158L185.949 457.719C185.895 457.827 185.841 457.883 185.785 457.99C181.833 465.972 180.94 475.126 183.275 483.721C185.61 492.317 191.012 499.76 198.46 504.646C204.418 508.296 211.247 510.281 218.234 510.393C222.041 510.396 225.82 509.736 229.4 508.442C237.782 505.258 244.652 499.026 248.636 490.994L257.631 486.009C258.49 485.538 259.248 484.902 259.861 484.137C260.474 483.372 260.93 482.493 261.201 481.551C261.473 480.61 261.556 479.623 261.446 478.649C261.335 477.675 261.033 476.733 260.557 475.876L259.473 473.814ZM254.921 460.64L255.68 461.995C255.964 462.503 256.145 463.062 256.212 463.641C256.278 464.219 256.23 464.805 256.068 465.364C255.907 465.923 255.637 466.445 255.272 466.899C254.908 467.353 254.457 467.731 253.946 468.009C251.779 469.31 238.882 477.004 236.173 477.709C235.834 477.777 235.489 477.813 235.144 477.817C234.35 477.817 233.571 477.606 232.886 477.206C232.2 476.806 231.633 476.232 231.242 475.541L230.484 474.187C230.196 473.682 230.014 473.123 229.948 472.546C229.883 471.968 229.936 471.384 230.104 470.827C230.291 470.126 230.665 469.488 231.188 468.985L250.532 458.425C250.697 458.425 250.861 458.371 251.025 458.371C251.82 458.358 252.603 458.563 253.289 458.963C253.976 459.363 254.541 459.943 254.921 460.64ZM247.281 444.499C247.958 444.113 248.724 443.908 249.503 443.903C250.317 443.906 251.116 444.123 251.819 444.532C252.523 444.941 253.107 445.528 253.513 446.233L254.055 447.209C254.355 447.729 254.545 448.305 254.61 448.903C254.675 449.5 254.615 450.104 254.434 450.677C254.279 451.26 254.007 451.806 253.635 452.282C253.262 452.757 252.796 453.151 252.266 453.44L249.124 455.174C242.675 458.696 236.227 462.218 229.779 465.683C229.439 465.746 229.095 465.782 228.75 465.791C227.872 465.775 227.013 465.532 226.257 465.087C225.633 464.669 225.113 464.113 224.74 463.461L224.198 462.486C224.198 462.432 224.144 462.432 224.144 462.377C223.614 461.341 223.48 460.147 223.765 459.018C223.925 458.444 224.202 457.909 224.577 457.446C226.133 457.502 227.69 457.447 229.237 457.282C230.878 457.105 232.446 456.509 233.789 455.55C234.115 455.343 234.407 455.087 234.656 454.791C235.993 453.464 236.899 451.765 237.257 449.915L239.966 448.397L247.281 444.499ZM238.72 432.841C239.382 432.472 240.13 432.286 240.887 432.299C241.681 432.3 242.46 432.511 243.145 432.91C243.831 433.31 244.398 433.885 244.789 434.575L245.547 435.93C245.832 436.438 246.012 436.997 246.079 437.575C246.146 438.154 246.097 438.74 245.936 439.299C245.774 439.858 245.504 440.38 245.14 440.834C244.775 441.288 244.324 441.666 243.813 441.944L237.528 445.42C237.485 444.947 237.413 444.476 237.311 444.012C237.254 443.742 237.13 443.492 236.95 443.283C236.77 443.075 236.54 442.915 236.282 442.82L226.962 439.294L238.72 432.841ZM228.316 505.467C214.499 510.506 202.47 503.408 200.194 501.945C193.416 497.506 188.496 490.742 186.36 482.927C184.225 475.112 185.02 466.786 188.598 459.517L203.607 440.115C204.978 438.574 206.83 437.542 208.862 437.189C210.469 436.934 212.115 437.122 213.624 437.731L218.934 439.736L219.151 439.844L221.264 440.657L223.323 441.478L227.929 443.212L234.326 445.583C234.395 446.122 234.431 446.665 234.434 447.209V447.701C234.412 448.231 234.339 448.757 234.218 449.273C234.163 449.489 234.109 449.706 234.053 449.869C233.847 450.562 233.537 451.22 233.132 451.819C232.913 452.106 232.678 452.38 232.428 452.64C232.277 452.784 232.112 452.911 231.935 453.02C231.538 453.316 231.1 453.553 230.635 453.724C230.045 453.957 229.424 454.103 228.792 454.158C227.858 454.271 226.916 454.326 225.975 454.322H224.349C223.861 454.331 223.372 454.313 222.886 454.268C220.917 454.103 218.973 453.722 217.088 453.13C216.186 452.853 215.3 452.527 214.433 452.154L212.97 451.498C212.78 451.395 212.569 451.337 212.353 451.328C212.137 451.318 211.922 451.358 211.724 451.443C211.325 451.592 210.996 451.885 210.803 452.264L208.419 457.304C208.291 457.584 208.243 457.895 208.282 458.201C208.32 458.507 208.442 458.797 208.635 459.038C211.826 462.66 213.479 467.383 213.241 472.205C212.981 475.652 211.719 478.948 209.611 481.687C209.366 482.025 209.264 482.446 209.328 482.859C209.391 483.271 209.614 483.642 209.949 483.891C210.284 484.14 210.703 484.248 211.116 484.19C211.529 484.133 211.903 483.915 212.157 483.584L212.65 482.927C214.83 479.809 216.123 476.156 216.389 472.361C216.709 467.049 215.027 461.809 211.675 457.676L212.975 454.967C215.451 456.027 218.057 456.756 220.724 457.135C220.25 458.261 220.038 459.48 220.104 460.7C220.169 461.92 220.511 463.11 221.103 464.179L221.536 464.937L221.645 465.154C222.165 466.093 222.865 466.922 223.704 467.592C224.698 468.352 225.844 468.888 227.063 469.164C226.652 470.241 226.478 471.393 226.553 472.543C226.628 473.694 226.95 474.814 227.497 475.829L228.255 477.183C228.821 478.188 229.598 479.058 230.534 479.732C231.47 480.406 232.542 480.867 233.674 481.085C232.855 482.753 232.7 484.671 233.241 486.449C233.413 486.974 233.633 487.481 233.897 487.966L235.035 489.971C235.334 490.502 235.698 490.993 236.119 491.434C236.82 492.183 237.668 492.78 238.609 493.188C239.551 493.597 240.566 493.808 241.592 493.808C242.177 493.817 242.761 493.744 243.326 493.592C239.69 499.024 234.44 503.178 228.316 505.467ZM258.118 480.65C257.808 481.728 257.089 482.642 256.114 483.196L248.419 487.477L246.252 488.669L243.705 490.078C243.082 490.446 242.369 490.633 241.646 490.62C241.104 490.625 240.566 490.522 240.063 490.317C239.561 490.113 239.104 489.81 238.72 489.428C238.425 489.138 238.17 488.81 237.961 488.452L237.257 487.152L236.823 486.447C236.295 485.469 236.159 484.326 236.444 483.25C236.754 482.172 237.474 481.258 238.449 480.704L244.999 477.06L246.95 475.976L248.467 475.164L250.959 473.809C251.582 473.441 252.295 473.254 253.018 473.267C253.771 473.26 254.512 473.458 255.161 473.84C255.81 474.222 256.343 474.773 256.703 475.435L257.841 477.439C258.286 478.446 258.384 479.573 258.118 480.641V480.65Z" fill="#24356C"/>
<path d="M231.947 453.006L230.646 453.711C231.122 453.564 231.564 453.325 231.947 453.006Z" fill="#24356C"/>
<path fill-rule="evenodd" clip-rule="evenodd" d="M1063.11 591.619C1063.11 580.361 1022.08 571.221 971.577 571.221C920.963 571.221 880.048 580.361 880.048 591.619C880.048 602.878 921.075 612.018 971.577 612.018C1022.19 612.018 1063.11 602.878 1063.11 591.619Z" fill="#5FBBD5" fill-opacity="0.302"/>
<path fill-rule="evenodd" clip-rule="evenodd" d="M970.016 529.199C969.236 538.785 954.074 569.326 942.257 577.575C939.915 579.135 937.797 579.915 935.902 579.47C927.318 577.798 923.304 537.001 922.858 514.039C922.635 505.122 923.193 498.88 924.085 498.768C931.777 496.873 970.908 517.941 970.016 529.199Z" fill="url(#paint0_linear)"/>
<path fill-rule="evenodd" clip-rule="evenodd" d="M970.016 532.431C970.016 532.431 959.537 538.116 943.26 529.979C930.439 523.625 921.966 502.67 924.085 498.991C926.203 495.202 975.925 517.606 970.016 532.431Z" fill="url(#paint1_linear)"/>
<path fill-rule="evenodd" clip-rule="evenodd" d="M970.016 529.198C969.236 538.785 954.074 569.326 942.257 577.575C951.175 567.32 951.398 546.476 945.824 537.001C941.588 529.756 928.878 519.055 922.858 514.151C922.635 505.233 923.193 498.991 924.085 498.88C931.777 496.873 970.908 517.94 970.016 529.198Z" fill="url(#paint2_linear)" fill-opacity="0.302"/>
<path fill-rule="evenodd" clip-rule="evenodd" d="M937.017 442.255C937.017 442.255 891.977 467.781 881.498 466.778C870.907 465.775 875.7 441.698 875.7 441.698C877.038 440.026 878.71 438.354 880.383 436.571C897.217 418.736 926.091 395.997 942.702 385.185C949.614 380.615 954.52 378.162 955.3 379.054C961.32 385.742 937.017 442.255 937.017 442.255Z" fill="url(#paint3_linear)"/>
<path fill-rule="evenodd" clip-rule="evenodd" d="M875.589 441.586C875.589 441.586 881.386 436.682 888.744 443.258C896.102 449.946 888.521 465.775 881.386 466.666C874.363 467.447 870.126 451.953 875.589 441.586Z" fill="url(#paint4_linear)"/>
<path fill-rule="evenodd" clip-rule="evenodd" d="M937.017 442.255C937.017 442.255 891.977 467.781 881.498 466.778C870.907 465.775 875.7 441.698 875.7 441.698C877.038 440.026 878.71 438.354 880.383 436.571C880.383 436.571 891.42 443.036 911.598 440.026C931.888 437.016 942.702 385.185 942.702 385.185C949.614 380.615 954.52 378.162 955.3 379.054C961.32 385.742 937.017 442.255 937.017 442.255Z" fill="url(#paint5_linear)" fill-opacity="0.302"/>
<path fill-rule="evenodd" clip-rule="evenodd" d="M905.69 218.097C905.69 218.097 890.528 234.148 888.856 263.687C887.183 293.225 921.52 250.534 921.52 250.534L905.69 218.097Z" fill="url(#paint6_linear)"/>
<path fill-rule="evenodd" clip-rule="evenodd" d="M895.879 250.534C895.879 250.534 902.791 214.085 914.051 206.282C925.422 198.591 945.824 205.502 945.824 205.502L895.879 250.534Z" fill="url(#paint7_linear)"/>
<path fill-rule="evenodd" clip-rule="evenodd" d="M1070.69 335.805C1045.04 376.267 917.73 382.621 895.768 362.446C887.072 354.42 881.498 343.831 878.711 331.792C866.893 280.63 906.693 204.721 972.692 197.142C1017.4 192.237 1054.74 229.132 1070.35 268.591C1080.16 293.337 1081.39 318.862 1070.69 335.805Z" fill="url(#paint8_linear)"/>
<path fill-rule="evenodd" clip-rule="evenodd" d="M1045.71 355.312C1029.99 362.223 1006.36 368.799 990.417 370.806C960.874 374.707 939.135 374.261 926.537 371.14C918.287 369.022 914.051 365.901 914.051 362C914.051 359.548 919.625 356.761 928.544 353.974C954.743 345.503 1010.04 336.586 1040.59 337.143C1043.15 337.254 1045.71 337.366 1047.94 337.477C1048.39 337.477 1048.84 337.589 1049.28 337.7C1049.39 337.7 1049.5 337.7 1049.62 337.7C1054.97 338.258 1058.76 339.372 1060.76 341.044C1061.21 341.379 1061.54 341.825 1061.77 342.382C1063.33 345.837 1056.42 350.63 1045.71 355.312Z" fill="url(#paint9_linear)"/>
<path fill-rule="evenodd" clip-rule="evenodd" d="M1070.69 335.805C1045.04 376.267 917.73 382.621 895.768 362.446C887.072 354.42 881.498 343.831 878.71 331.793C878.71 331.793 889.413 347.063 915.389 346.84C941.365 346.506 1015.39 332.796 1028.99 319.531C1042.59 306.378 1029.88 255.884 1029.88 255.884L1070.35 268.591C1080.16 293.337 1081.39 318.862 1070.69 335.805Z" fill="url(#paint10_linear)" fill-opacity="0.302"/>
<path fill-rule="evenodd" clip-rule="evenodd" d="M1045.71 355.312C1032.22 351.522 993.093 342.159 964.219 352.86C928.767 365.901 926.537 371.14 926.537 371.14C918.287 369.022 914.051 365.901 914.051 362C914.051 359.548 919.625 356.761 928.544 353.974C954.743 345.503 1010.04 336.586 1040.59 337.143C1043.82 337.366 1046.72 337.477 1049.28 337.589C1049.39 337.589 1049.5 337.589 1049.62 337.589C1054.97 338.146 1058.76 339.261 1060.76 340.933C1061.21 341.267 1061.54 341.713 1061.77 342.27C1063.33 345.837 1056.42 350.63 1045.71 355.312Z" fill="url(#paint11_linear)" fill-opacity="0.502"/>
<path fill-rule="evenodd" clip-rule="evenodd" d="M1047.94 337.254C1041.81 344.834 1009.15 355.2 990.083 357.653C955.858 362.223 934.341 359.548 928.544 353.751C956.972 344.611 1019.85 334.802 1047.94 337.254Z" fill="url(#paint12_linear)"/>
<path fill-rule="evenodd" clip-rule="evenodd" d="M878.711 334.245C886.18 349.181 995.546 340.264 1019.63 309.388C1043.71 278.4 1005.58 191.011 949.169 206.951C895.545 222.11 865.221 307.27 878.711 334.245Z" fill="#DFE3FB"/>
<path fill-rule="evenodd" clip-rule="evenodd" d="M878.711 331.904C886.18 346.84 995.546 337.923 1019.63 307.047C1043.71 276.06 1005.58 188.67 949.169 204.61C895.545 219.769 865.221 304.929 878.711 331.904Z" fill="url(#paint13_linear)"/>
<path fill-rule="evenodd" clip-rule="evenodd" d="M1033.79 482.829C1026.09 517.94 1006.03 532.877 970.016 532.431C934.787 531.985 913.048 493.752 924.419 448.832C931.666 420.185 940.138 394.771 955.077 378.943C963.662 370.025 974.141 364.229 987.854 362.557C998.668 361.219 1007.59 367.127 1014.72 376.936C1033.45 402.573 1039.69 455.742 1033.79 482.829Z" fill="url(#paint14_linear)"/>
<path fill-rule="evenodd" clip-rule="evenodd" d="M1025.09 212.19C1025.09 212.19 1019.18 266.028 1052.4 285.088C1052.4 285.088 1068.68 286.872 1078.16 276.951C1078.16 276.951 1063.44 290.885 1047.83 276.394C1032.22 261.903 1036.01 222.11 1047.83 209.18C1059.65 196.25 1076.82 199.594 1076.82 199.594L1069.91 193.463C1070.02 193.463 1044.82 188.336 1025.09 212.19Z" fill="url(#paint15_linear)"/>
<path fill-rule="evenodd" clip-rule="evenodd" d="M1014.94 416.841C1014.94 416.841 1018.62 444.15 1018.62 462.431C1018.62 484.055 1005.36 503.004 1005.36 503.004L1032.34 488.514C1032.34 488.514 1037.35 474.357 1036.13 459.867C1034.79 445.376 1033.67 438.8 1033.67 438.8L1014.94 416.841Z" fill="url(#paint16_linear)" fill-opacity="0.302"/>
<path fill-rule="evenodd" clip-rule="evenodd" d="M1070.02 193.463C1070.02 193.463 1051.51 191.791 1038.58 213.193C1024.87 236.043 1034.79 275.502 1051.4 281.41C1068.12 287.429 1084.84 223.671 1084.84 223.671L1075.15 198.368C1075.26 198.256 1073.47 194.69 1070.02 193.463Z" fill="url(#paint17_linear)"/>
<path fill-rule="evenodd" clip-rule="evenodd" d="M1093.87 247.859C1091.42 260.232 1086.41 270.264 1079.83 276.617H1079.72L1077.82 278.289C1072.47 282.636 1066 284.754 1059.09 283.862C1036.46 280.964 1033.56 248.416 1036.13 229.801C1039.14 208.511 1057.42 195.693 1072.02 197.476C1089.3 199.817 1098.56 223.671 1093.87 247.859Z" fill="url(#paint18_linear)"/>
<path fill-rule="evenodd" clip-rule="evenodd" d="M922.635 454.628C922.635 454.628 930.774 428.099 956.192 428.099C986.516 428.099 1007.03 461.65 1005.13 484.389C1003.24 507.128 996.326 528.418 967.675 529.422C967.786 529.422 913.94 528.195 922.635 454.628Z" fill="url(#paint19_linear)"/>
<path fill-rule="evenodd" clip-rule="evenodd" d="M922.635 457.526C922.635 457.526 930.774 430.997 956.192 430.997C986.516 430.997 1007.03 464.548 1005.13 487.287C1003.24 510.026 996.326 531.316 967.675 532.319C967.786 532.431 913.94 531.205 922.635 457.526Z" fill="url(#paint20_linear)"/>
<path fill-rule="evenodd" clip-rule="evenodd" d="M1029.21 446.379C1027.88 446.379 1026.54 445.265 1025.09 443.37C1018.73 434.898 1012.05 410.487 1012.05 396.777C1012.05 391.538 1013.16 387.86 1015.61 387.414C1019.74 386.634 1027.99 400.456 1031.89 419.628C1034.34 430.886 1034.79 446.379 1029.21 446.379Z" fill="url(#paint21_linear)"/>
<path fill-rule="evenodd" clip-rule="evenodd" d="M1025.09 443.37C1018.73 434.898 1012.05 410.487 1012.05 396.777C1016.06 402.016 1020.63 412.494 1023.42 425.535C1024.64 431.22 1025.42 438.019 1025.09 443.37Z" fill="url(#paint22_linear)"/>
<path fill-rule="evenodd" clip-rule="evenodd" d="M1089.3 496.873C1085.18 510.026 1069.68 511.475 1065.22 508.243C1061.21 505.456 1050.4 492.638 1040.03 469.23C1040.03 469.23 1040.03 469.23 1040.03 469.118C1038.47 465.663 1037.02 461.985 1035.46 458.083C1023.86 427.542 1015.06 371.363 1027.1 373.592C1027.1 373.592 1027.1 373.592 1027.21 373.592C1061.88 380.057 1093.43 483.72 1089.3 496.873Z" fill="url(#paint23_linear)"/>
<path fill-rule="evenodd" clip-rule="evenodd" d="M1032.67 589.836C1030.22 590.951 1026.98 589.724 1023.19 586.938C1019.07 583.928 1014.39 578.912 1009.7 573.339L1009.59 573.227C996.661 557.399 984.063 535.329 984.732 530.425C986.962 513.37 1010.15 498.545 1023.97 491.969C1029.33 489.405 1033.34 488.179 1034.01 488.402C1036.57 489.517 1045.05 583.928 1032.67 589.836Z" fill="url(#paint24_linear)"/>
<path fill-rule="evenodd" clip-rule="evenodd" d="M1057.53 499.995C1057.53 499.995 1057.75 487.845 1068.46 483.609C1079.27 479.373 1089.64 493.752 1089.64 493.752C1089.64 493.752 1089.75 507.351 1075.15 507.686C1060.65 507.797 1057.53 499.995 1057.53 499.995Z" fill="url(#paint25_linear)"/>
<path fill-rule="evenodd" clip-rule="evenodd" d="M886.849 456.857C886.849 456.857 877.93 470.902 868.343 477.701C858.755 484.501 839.914 487.399 839.914 487.399C839.914 487.399 826.536 481.268 826.536 472.128C826.536 472.128 840.918 464.883 846.38 453.29C846.38 453.29 864.998 446.602 873.137 448.832C881.386 450.95 886.849 456.857 886.849 456.857Z" fill="url(#paint26_linear)"/>
<path fill-rule="evenodd" clip-rule="evenodd" d="M875.366 317.636C875.366 317.636 860.65 324.101 848.275 338.926C835.901 353.751 834.897 369.022 852.735 364.341L860.204 357.876C860.204 357.876 849.725 361.443 849.056 350.296C848.387 339.038 875.366 319.866 875.366 319.866V317.636Z" fill="url(#paint27_linear)"/>
<path fill-rule="evenodd" clip-rule="evenodd" d="M847.829 355.869C843.481 362.334 854.964 365.344 864.106 365.121C874.362 364.787 891.977 360.328 889.524 350.296C887.072 340.264 857.974 340.598 847.829 355.869Z" fill="url(#paint28_linear)"/>
<path fill-rule="evenodd" clip-rule="evenodd" d="M848.61 356.872C848.498 358.544 884.619 353.974 884.619 347.621C884.508 341.044 849.279 343.608 848.61 356.872Z" fill="url(#paint29_linear)"/>
<path fill-rule="evenodd" clip-rule="evenodd" d="M891.754 296.681C894.318 305.152 911.71 302.812 916.392 289.659C921.074 276.506 916.058 259.674 907.25 259.005C898.22 258.448 886.626 280.072 891.754 296.681Z" fill="url(#paint30_linear)"/>
<path fill-rule="evenodd" clip-rule="evenodd" d="M961.989 268.48C961.432 269.706 974.476 257.222 999.782 261.903C1002.35 262.349 973.138 244.738 961.989 268.48Z" fill="url(#paint31_linear)"/>
<path fill-rule="evenodd" clip-rule="evenodd" d="M936.459 314.515C936.459 314.515 960.875 308.162 971.577 288.878C971.577 288.767 967.452 314.961 936.459 314.515Z" fill="#2F95CD"/>
<path fill-rule="evenodd" clip-rule="evenodd" d="M1014.94 376.825C1014.94 376.825 977.82 390.869 963.55 389.309C949.726 387.748 954.966 379.5 955.189 379.054C963.773 370.137 974.252 364.34 987.965 362.668C998.779 361.219 1007.81 367.016 1014.94 376.825Z" fill="url(#paint32_linear)" fill-opacity="0.502"/>
<path fill-rule="evenodd" clip-rule="evenodd" d="M1089.3 496.873C1085.18 510.026 1069.68 511.475 1065.22 508.243C1061.21 505.456 1050.4 492.638 1040.03 469.23C1041.03 471.125 1048.61 485.504 1055.52 485.504C1062.88 485.504 1077.15 464.994 1062.77 422.08C1048.84 380.392 1028.43 374.038 1027.1 373.704C1061.99 380.057 1093.43 483.72 1089.3 496.873Z" fill="url(#paint33_linear)" fill-opacity="0.302"/>
<path fill-rule="evenodd" clip-rule="evenodd" d="M1070.58 489.851C1076.71 488.179 1086.29 493.084 1089.64 497.988C1092.98 502.893 1101.34 523.625 1096.55 550.6C1096.55 550.6 1087.41 562.638 1077.15 560.075C1069.35 558.068 1067.45 534.883 1065.45 518.386C1063.44 502.001 1060.54 492.526 1070.58 489.851Z" fill="url(#paint34_linear)"/>
<path fill-rule="evenodd" clip-rule="evenodd" d="M1078.71 560.743C1078.71 560.743 1082.5 506.905 1060.54 498.211C1060.54 498.211 1060.43 506.905 1064.78 527.192C1069.24 547.367 1073.7 559.517 1078.71 560.743Z" fill="url(#paint35_linear)"/>
<path fill-rule="evenodd" clip-rule="evenodd" d="M1077.26 531.205C1077.26 531.205 1072.69 539.565 1069.24 541.237C1065.67 542.909 1062.77 541.794 1062.77 541.794L1073.81 516.38C1073.7 516.491 1077.15 525.743 1077.26 531.205Z" fill="url(#paint36_linear)" fill-opacity="0.502"/>
<path fill-rule="evenodd" clip-rule="evenodd" d="M1073.7 516.491C1073.7 516.491 1069.24 502.112 1060.1 499.437C1060.1 499.437 1052.63 508.466 1057.98 539.676C1057.98 539.676 1063.22 545.249 1069.01 538.562C1069.01 538.562 1073.36 527.192 1073.7 516.491Z" fill="url(#paint37_linear)"/>
<path fill-rule="evenodd" clip-rule="evenodd" d="M1068.12 511.698C1071.13 511.364 1067.9 525.186 1066.34 525.074C1064.67 524.851 1065.67 512.033 1068.12 511.698Z" fill="white"/>
<path fill-rule="evenodd" clip-rule="evenodd" d="M1032.67 589.836C1030.22 590.95 1026.98 589.724 1023.19 586.938L1009.7 573.339C1011.04 574.565 1025.98 587.495 1028.77 560.297C1031.78 531.874 1022.64 493.641 1022.64 493.641L1023.97 491.857C1029.33 489.294 1033.34 488.067 1034.01 488.29C1036.57 489.517 1045.05 583.928 1032.67 589.836Z" fill="url(#paint38_linear)" fill-opacity="0.302"/>
<path fill-rule="evenodd" clip-rule="evenodd" d="M1033.67 422.749C1028.43 425.87 1039.36 447.94 1041.81 448.386C1044.38 448.943 1037.24 420.631 1033.67 422.749Z" fill="white"/>
<path fill-rule="evenodd" clip-rule="evenodd" d="M1043.37 451.953C1042.26 452.064 1043.48 457.192 1044.26 457.86C1045.05 458.529 1046.83 458.641 1047.27 458.195C1047.83 457.86 1044.6 451.841 1043.37 451.953Z" fill="white"/>
<path fill-rule="evenodd" clip-rule="evenodd" d="M991.087 398.561C988.968 398.672 985.178 419.628 986.962 420.296C988.745 421.077 991.087 416.618 992.759 409.596C994.32 402.796 993.093 398.561 991.087 398.561Z" fill="white"/>
<path fill-rule="evenodd" clip-rule="evenodd" d="M896.213 424.755C896.659 426.316 907.25 421.523 907.362 416.952C907.362 412.271 895.544 422.526 896.213 424.755Z" fill="white"/>
<path fill-rule="evenodd" clip-rule="evenodd" d="M999.559 529.533C994.877 530.536 1001.68 542.017 1002.68 542.574C1003.8 543.02 1004.58 538.227 1003.8 534.66C1003.13 531.428 1001.23 529.199 999.559 529.533Z" fill="white"/>
<path fill-rule="evenodd" clip-rule="evenodd" d="M935.122 538.562C932.557 538.004 933.226 545.361 933.672 545.807C934.118 546.253 935.679 544.023 936.125 542.129C936.459 540.345 936.013 538.673 935.122 538.562Z" fill="white"/>
<path fill-rule="evenodd" clip-rule="evenodd" d="M1003.91 543.8C1003.02 544.581 1005.13 548.036 1005.8 547.367C1006.58 546.587 1006.36 544.804 1005.91 544.135C1005.47 543.577 1004.24 543.466 1003.91 543.8Z" fill="white"/>
<path fill-rule="evenodd" clip-rule="evenodd" d="M944.932 465.551C945.044 465.663 945.267 465.663 945.49 465.663C945.713 465.663 945.824 465.551 945.936 465.329C946.159 464.994 946.047 464.437 945.713 464.214L939.024 459.309C938.689 459.086 938.243 459.198 938.02 459.532C937.797 459.867 937.909 460.424 938.243 460.647L944.932 465.551Z" fill="white"/>
<path fill-rule="evenodd" clip-rule="evenodd" d="M960.317 475.026C959.983 474.803 959.537 474.915 959.314 475.249C959.091 475.583 959.202 476.141 959.537 476.364L966.226 481.268C966.337 481.38 966.56 481.38 966.783 481.38C967.006 481.38 967.118 481.268 967.229 481.045C967.452 480.711 967.341 480.154 967.006 479.931L960.317 475.026Z" fill="white"/>
<path fill-rule="evenodd" clip-rule="evenodd" d="M968.678 466.332L960.986 467.892C960.652 468.004 960.317 468.338 960.429 468.784C960.54 469.23 960.875 469.453 961.32 469.453L969.013 467.892C969.347 467.781 969.682 467.446 969.57 467.001C969.459 466.443 969.124 466.22 968.678 466.332Z" fill="white"/>
<path fill-rule="evenodd" clip-rule="evenodd" d="M957.53 463.322C957.753 463.322 957.864 463.211 957.976 462.988L962.212 455.965C962.435 455.631 962.324 455.074 961.989 454.851C961.655 454.628 961.209 454.739 960.986 455.074L956.75 462.096C956.527 462.431 956.638 462.988 956.973 463.211C957.084 463.322 957.307 463.322 957.53 463.322Z" fill="white"/>
<path fill-rule="evenodd" clip-rule="evenodd" d="M950.952 461.762C951.287 461.65 951.621 461.316 951.51 460.87L949.838 452.399C949.726 451.953 949.392 451.73 948.946 451.73C948.611 451.841 948.277 452.176 948.388 452.621L950.061 461.093C950.172 461.539 950.618 461.873 950.952 461.762Z" fill="white"/>
<path fill-rule="evenodd" clip-rule="evenodd" d="M960.875 483.72C960.429 483.163 959.871 482.717 959.202 482.606C960.429 481.268 960.54 479.15 959.314 477.59L958.868 477.032C958.422 476.475 957.864 476.141 957.307 475.918C958.422 474.58 958.422 472.462 957.307 470.902L956.973 470.456C956.081 469.341 954.854 468.895 953.628 469.118H953.517C953.628 468.115 953.294 467.112 952.736 466.332L952.29 465.774C951.51 464.66 950.172 464.214 949.057 464.437C948.5 464.548 947.942 464.771 947.608 465.217L942.257 470.122L938.578 469.341C937.909 469.23 936.905 469.118 935.791 469.564C934.23 470.122 933.449 471.348 933.115 472.017L928.544 482.271V482.383C928.098 484.389 927.541 488.402 929.102 492.749C929.659 494.421 932.112 500.106 938.02 502.781C938.912 503.115 942.591 504.676 946.828 503.784C948.277 503.45 949.838 502.893 951.287 502.001C955.635 499.214 957.307 494.533 957.753 492.415L961.097 489.405C962.435 488.179 962.547 485.95 961.432 484.501L960.875 483.72ZM957.753 478.036L958.199 478.593C958.868 479.485 958.868 480.822 957.976 481.491C957.196 482.271 952.513 486.841 951.398 487.399C951.175 487.51 950.952 487.51 950.952 487.51C950.284 487.622 949.615 487.399 949.057 486.841L948.611 486.284C948.277 485.838 948.165 485.281 948.165 484.724C948.165 484.389 948.277 484.055 948.5 483.832C950.841 481.714 953.294 479.485 955.635 477.367C955.746 477.367 955.746 477.367 955.858 477.255C956.638 477.144 957.307 477.478 957.753 478.036ZM953.071 471.236C953.294 471.013 953.628 470.902 953.963 470.79C954.631 470.679 955.412 470.902 955.858 471.571L956.192 472.017C956.527 472.462 956.75 473.02 956.638 473.577C956.638 474.134 956.415 474.692 955.969 475.026L954.854 476.029C952.513 478.147 950.061 480.376 947.719 482.494C947.608 482.494 947.385 482.606 947.273 482.606C946.939 482.717 946.493 482.606 946.159 482.494C945.824 482.383 945.601 482.16 945.378 481.826L945.044 481.38C944.709 480.934 944.598 480.376 944.598 479.819C944.598 479.485 944.709 479.262 944.821 479.039C945.49 478.927 946.159 478.816 946.716 478.593C947.385 478.37 947.942 478.036 948.5 477.367C948.611 477.255 948.723 477.144 948.834 476.921C949.28 476.141 949.503 475.249 949.503 474.469L950.507 473.577L953.071 471.236ZM948.388 466.555C948.611 466.332 948.946 466.22 949.28 466.109C949.949 465.997 950.618 466.22 951.175 466.778L951.621 467.335C952.29 468.227 952.29 469.564 951.398 470.233L949.057 472.351C948.946 472.017 948.834 471.794 948.834 471.682C948.723 471.459 948.5 471.236 948.277 471.236L944.04 470.345L948.388 466.555ZM950.618 500.775C945.267 504.23 939.581 502.001 938.466 501.444C933.003 498.991 930.885 493.864 930.328 492.303C928.879 488.291 929.324 484.724 929.77 482.829L934.341 472.685C934.564 472.239 935.233 471.348 936.237 470.902C937.017 470.567 937.797 470.679 938.243 470.79L940.696 471.236H940.807L941.811 471.459L942.703 471.682L944.821 472.128L947.719 472.685C947.831 472.908 947.831 473.131 947.942 473.466C947.942 473.577 947.942 473.577 947.942 473.689C947.942 473.911 947.942 474.134 947.942 474.469C947.942 474.58 947.942 474.692 947.942 474.803C947.942 475.138 947.831 475.472 947.719 475.806C947.608 475.918 947.608 476.141 947.496 476.252C947.496 476.364 947.385 476.364 947.273 476.475C947.162 476.698 946.939 476.81 946.828 476.921C946.605 477.032 946.382 477.144 946.047 477.255C945.713 477.367 945.267 477.478 944.932 477.59C944.821 477.59 944.709 477.59 944.598 477.701C944.486 477.701 944.375 477.701 944.263 477.813C944.04 477.813 943.817 477.924 943.594 477.924C942.814 478.036 941.922 478.036 941.03 477.924C940.696 477.924 940.25 477.813 939.804 477.701C939.581 477.59 939.358 477.59 939.135 477.478C938.912 477.367 938.801 477.478 938.578 477.59C938.466 477.701 938.243 477.813 938.243 478.036L937.686 480.599C937.574 480.934 937.686 481.157 937.909 481.38C938.689 482.048 940.584 483.943 941.03 487.064C941.253 489.071 940.807 490.743 940.361 491.746C940.25 492.08 940.361 492.526 940.696 492.749C941.03 492.972 941.476 492.749 941.588 492.415C941.588 492.303 941.699 492.192 941.699 492.08C942.145 490.854 942.591 489.071 942.368 486.953C941.922 483.72 940.138 481.603 939.024 480.599L939.358 479.262C940.473 479.596 941.699 479.708 942.814 479.596C942.591 480.711 942.926 481.826 943.594 482.829L943.817 483.163L943.929 483.275C944.263 483.72 944.598 483.943 945.044 484.278C945.49 484.501 946.047 484.724 946.605 484.724C946.493 485.727 946.716 486.841 947.385 487.733L947.831 488.291C948.5 489.182 949.503 489.628 950.507 489.628C950.284 490.408 950.395 491.3 950.841 492.08C950.952 492.303 951.064 492.526 951.287 492.749L951.956 493.529C952.179 493.752 952.29 493.975 952.513 494.087C953.294 494.644 954.185 494.867 955.077 494.756C955.3 494.756 955.523 494.644 955.746 494.533C955.077 496.205 953.517 498.991 950.618 500.775ZM960.875 486.953C960.875 487.51 960.652 487.956 960.317 488.291L957.419 490.854L956.638 491.634L955.746 492.526C955.523 492.749 955.3 492.861 954.966 492.972C954.52 493.084 953.963 492.972 953.628 492.638C953.517 492.526 953.294 492.415 953.182 492.303L952.736 491.746L952.513 491.412C952.179 490.966 952.067 490.52 952.067 489.963C952.067 489.405 952.29 488.959 952.736 488.625L955.189 486.396L955.858 485.727L956.415 485.281L957.307 484.501C957.53 484.278 957.753 484.166 958.087 484.055C958.756 483.943 959.425 484.166 959.871 484.724L960.54 485.504C960.763 485.95 960.986 486.396 960.875 486.953Z" fill="#24356C"/>
<path fill-rule="evenodd" clip-rule="evenodd" d="M947.385 476.364L946.939 476.81C947.162 476.698 947.273 476.587 947.385 476.364Z" fill="white"/>
<path d="M820.8 502.718H397.1C382.7 502.718 371 491.018 371 476.618V476.118C371 461.718 382.7 450.018 397.1 450.018H820.8C835.2 450.018 846.9 461.718 846.9 476.118V476.618C846.9 491.018 835.2 502.718 820.8 502.718ZM397.1 453.218C384.5 453.218 374.3 463.418 374.3 476.018V476.518C374.3 489.118 384.5 499.318 397.1 499.318H820.8C833.4 499.318 843.6 489.118 843.6 476.518V476.018C843.6 463.418 833.4 453.218 820.8 453.218H397.1Z" fill="#00CDF1"/>
<path d="M567.7 493.418H543.2V459.318H567.7V493.418ZM535.1 459.318H510.6V493.418H535.1V459.318ZM469.9 459.318H445.4V493.418H469.9V459.318ZM412.9 493.418H437.4V459.318H412.9V493.418ZM502.5 459.318H478.1V493.418H502.6V459.318H502.5ZM404.7 459.318H397.1C387.8 459.318 380.3 466.918 380.3 476.118V476.618C380.3 485.918 387.9 493.418 397.1 493.418H404.7V459.318ZM665.5 459.318H641.1V493.418H665.6V459.318H665.5ZM600.3 459.318H575.8V493.418H600.3V459.318ZM632.9 459.318H608.4V493.418H632.9V459.318Z" fill="#00CDF1"/>
<path fill-rule="evenodd" clip-rule="evenodd" d="M823.972 456.969C823.972 456.969 829.323 466.109 844.931 465.997C860.539 465.886 864.998 458.083 864.998 458.083L855.745 454.071L831.553 450.504C831.553 450.504 824.529 456.523 823.972 456.969Z" fill="url(#paint39_linear)" fill-opacity="0.502"/>
<path fill-rule="evenodd" clip-rule="evenodd" d="M881.275 444.707C881.275 444.707 871.687 434.675 863.66 434.007C855.633 433.338 835.232 442.144 829.1 453.625C829.1 453.625 829.992 456.411 837.015 457.972C843.928 459.644 859.981 452.176 859.981 452.176L886.737 456.746C886.849 456.969 886.849 450.949 881.275 444.707Z" fill="url(#paint40_linear)"/>
<path fill-rule="evenodd" clip-rule="evenodd" d="M837.127 448.386C837.239 450.392 851.508 443.816 851.508 441.475C851.508 439.023 836.904 445.042 837.127 448.386Z" fill="white"/>
<path fill-rule="evenodd" clip-rule="evenodd" d="M859.87 452.398L875.143 462.43L855.745 454.07L859.87 452.398Z" fill="url(#paint41_linear)"/>
<path fill-rule="evenodd" clip-rule="evenodd" d="M859.87 452.398C859.87 452.398 872.802 448.497 874.251 438.911L876.369 440.472C876.369 440.472 874.474 450.392 859.87 452.398Z" fill="url(#paint42_linear)"/>
<path d="M400.1 410.317C400.1 416.617 402.9 418.817 407.2 418.817C411.6 418.817 414.3 416.617 414.3 410.317V342.817H427.3V409.417C427.3 423.417 420.3 431.417 406.8 431.417C393.3 431.417 386.3 423.417 386.3 409.417V342.817H400.1V410.317Z" fill="#24356C"/>
<path d="M477.5 364.417V375.817C477.5 389.817 470.7 397.417 457 397.417H450.5V430.317H436.7V342.817H457C470.7 342.817 477.5 350.417 477.5 364.417ZM450.5 384.917H457C461.4 384.917 463.8 382.917 463.8 376.617V363.517C463.8 357.217 461.4 355.217 457 355.217H450.5V384.917Z" fill="#24356C"/>
<path d="M506.2 342.817C520 342.817 526.7 350.417 526.7 364.417V408.717C526.7 422.717 519.9 430.317 506.2 430.317H484.4V342.817H506.2ZM498.2 417.817H506C510.4 417.817 513 415.517 513 409.317V363.817C513 357.517 510.4 355.317 506 355.317H498.2V417.817Z" fill="#24356C"/>
<path d="M566.1 430.317L563.7 414.417H546.8L544.4 430.317H531.8L545.8 342.817H566L580 430.317H566.1ZM561.8 402.517L555.2 358.217L548.6 402.517H561.8Z" fill="#24356C"/>
<path d="M624.8 342.817V355.317H610.4V430.317H596.6V355.317H582.2V342.817H624.8Z" fill="#24356C"/>
<path d="M644.6 342.817V430.317H630.8V342.817H644.6Z" fill="#24356C"/>
<path d="M666.8 430.317H654.4V342.817H671.7L685.8 395.217V342.817H698.1V430.317H684L666.9 366.917V430.317H666.8Z" fill="#24356C"/>
<path d="M747.8 381.517V409.317C747.8 423.317 740.8 431.317 727.3 431.317C713.8 431.317 706.8 423.317 706.8 409.317V363.817C706.8 349.817 713.8 341.817 727.3 341.817C740.8 341.817 747.8 349.817 747.8 363.817V372.317H734.8V362.917C734.8 356.617 732 354.317 727.7 354.317C723.3 354.317 720.6 356.717 720.6 362.917V410.217C720.6 416.517 723.4 418.717 727.7 418.717C732.1 418.717 734.8 416.517 734.8 410.217V394.017H728.5V381.517H747.8Z" fill="#24356C"/>
<path d="M768.7 430.317H755.4V417.017H768.7V430.317Z" fill="#24356C"/>
<path d="M792 430.317H778.7V417.017H792V430.317Z" fill="#24356C"/>
<path d="M815.2 430.317H802V417.017H815.3V430.317H815.2Z" fill="#24356C"/>
<path d="M393.5 524.717H396.3V544.517H393.5V524.717Z" fill="#24356C"/>
<path d="M419.2 524.717V544.517H416.9L405 529.717V544.417H402.2V524.617H404.5L416.4 539.317V524.617H419.2V524.717Z" fill="#24356C"/>
<path d="M446.5 526.517C448 527.717 448.7 529.417 448.7 531.617C448.7 533.717 448 535.417 446.5 536.717C445 537.917 443 538.517 440.5 538.517H435.6V544.517H432.8V524.717H440.5C443 524.717 445 525.317 446.5 526.517ZM444.4 534.817C445.3 534.017 445.8 532.917 445.8 531.517C445.8 530.117 445.3 529.017 444.4 528.217C443.5 527.417 442.1 527.117 440.3 527.117H435.5V536.017H440.3C442.1 536.017 443.5 535.617 444.4 534.817Z" fill="#24356C"/>
<path d="M466 544.417L461.7 538.317C461.2 538.317 460.8 538.417 460.5 538.417H455.6V544.417H452.8V524.617H460.5C463.1 524.617 465.1 525.217 466.5 526.417C468 527.617 468.7 529.317 468.7 531.517C468.7 533.017 468.3 534.317 467.6 535.417C466.8 536.517 465.8 537.317 464.4 537.717L469.1 544.317H466V544.417ZM464.5 534.917C465.4 534.117 465.9 533.017 465.9 531.617C465.9 530.217 465.4 529.117 464.5 528.317C463.6 527.517 462.2 527.217 460.4 527.217H455.6V536.117H460.4C462.2 536.017 463.6 535.617 464.5 534.917Z" fill="#24356C"/>
<path d="M476.9 543.317C475.3 542.417 474 541.217 473.1 539.717C472.2 538.217 471.7 536.417 471.7 534.517C471.7 532.617 472.2 530.917 473.1 529.317C474 527.817 475.3 526.517 476.9 525.717C478.5 524.817 480.3 524.417 482.3 524.417C484.3 524.417 486.1 524.817 487.7 525.717C489.3 526.617 490.6 527.817 491.5 529.317C492.4 530.817 492.9 532.617 492.9 534.517C492.9 536.417 492.4 538.117 491.5 539.717C490.6 541.217 489.3 542.417 487.7 543.317C486.1 544.217 484.3 544.617 482.3 544.617C480.3 544.717 478.5 544.217 476.9 543.317ZM486.2 541.217C487.4 540.517 488.3 539.617 488.9 538.517C489.5 537.417 489.9 536.017 489.9 534.617C489.9 533.217 489.6 531.917 488.9 530.717C488.2 529.517 487.3 528.617 486.2 528.017C485 527.317 483.7 527.017 482.3 527.017C480.9 527.017 479.5 527.317 478.4 528.017C477.2 528.717 476.3 529.617 475.6 530.717C474.9 531.817 474.6 533.217 474.6 534.617C474.6 536.017 474.9 537.317 475.6 538.517C476.3 539.717 477.2 540.617 478.4 541.217C479.6 541.917 480.9 542.217 482.3 542.217C483.7 542.117 485 541.817 486.2 541.217Z" fill="#24356C"/>
<path d="M510.7 534.417H513.4V542.117C512.4 542.917 511.3 543.517 510 544.017C508.7 544.417 507.3 544.617 505.9 544.617C503.9 544.617 502.1 544.217 500.5 543.317C498.9 542.417 497.6 541.217 496.7 539.717C495.8 538.217 495.3 536.417 495.3 534.517C495.3 532.617 495.8 530.817 496.7 529.317C497.6 527.817 498.9 526.617 500.5 525.717C502.1 524.817 503.9 524.417 505.9 524.417C507.5 524.417 508.9 524.717 510.2 525.217C511.5 525.717 512.6 526.517 513.5 527.517L511.7 529.317C510.1 527.817 508.2 527.017 506 527.017C504.5 527.017 503.1 527.317 502 528.017C500.8 528.617 499.9 529.617 499.2 530.717C498.5 531.917 498.2 533.217 498.2 534.617C498.2 536.017 498.5 537.317 499.2 538.517C499.9 539.717 500.8 540.617 502 541.217C503.2 541.917 504.5 542.217 506 542.217C507.8 542.217 509.3 541.817 510.6 540.917V534.417H510.7Z" fill="#24356C"/>
<path d="M532 544.417L527.7 538.317C527.2 538.317 526.8 538.417 526.5 538.417H521.6V544.417H518.8V524.617H526.5C529.1 524.617 531.1 525.217 532.5 526.417C534 527.617 534.7 529.317 534.7 531.517C534.7 533.017 534.3 534.317 533.6 535.417C532.8 536.517 531.8 537.317 530.4 537.717L535.1 544.317H532V544.417ZM530.5 534.917C531.4 534.117 531.9 533.017 531.9 531.617C531.9 530.217 531.4 529.117 530.5 528.317C529.6 527.517 528.2 527.217 526.4 527.217H521.6V536.117H526.4C528.2 536.017 529.6 535.617 530.5 534.917Z" fill="#24356C"/>
<path d="M553.7 542.017V544.517H539.4V524.717H553.3V527.217H542.2V533.317H552.1V535.717H542.2V542.117H553.7V542.017Z" fill="#24356C"/>
<path d="M559.7 544.017C558.3 543.517 557.2 542.917 556.4 542.217L557.4 540.017C558.2 540.717 559.1 541.217 560.3 541.717C561.5 542.117 562.7 542.317 563.9 542.317C565.5 542.317 566.8 542.017 567.6 541.517C568.4 540.917 568.8 540.217 568.8 539.317C568.8 538.617 568.6 538.117 568.1 537.617C567.7 537.217 567.1 536.917 566.5 536.617C565.9 536.417 564.9 536.117 563.7 535.817C562.2 535.417 561 535.117 560.1 534.717C559.2 534.317 558.4 533.817 557.8 533.017C557.2 532.317 556.8 531.317 556.8 530.017C556.8 528.917 557.1 528.017 557.6 527.117C558.2 526.317 559 525.617 560.1 525.117C561.2 524.617 562.6 524.317 564.3 524.317C565.5 524.317 566.6 524.517 567.7 524.817C568.8 525.117 569.8 525.517 570.6 526.117L569.7 528.417C568.9 527.917 568 527.517 567 527.217C566.1 526.917 565.1 526.817 564.2 526.817C562.6 526.817 561.4 527.117 560.6 527.717C559.8 528.317 559.4 529.017 559.4 530.017C559.4 530.717 559.6 531.217 560.1 531.717C560.6 532.117 561.1 532.517 561.8 532.717C562.5 532.917 563.4 533.217 564.5 533.417C566 533.817 567.2 534.117 568.1 534.517C569 534.917 569.8 535.417 570.4 536.117C571 536.817 571.4 537.817 571.4 539.117C571.4 540.117 571.1 541.117 570.6 541.917C570 542.817 569.2 543.417 568 543.917C566.9 544.417 565.4 544.617 563.8 544.617C562.5 544.717 561.1 544.417 559.7 544.017Z" fill="#24356C"/>
<path d="M577.2 544.017C575.8 543.517 574.7 542.917 573.9 542.217L574.9 540.017C575.7 540.717 576.6 541.217 577.8 541.717C579 542.117 580.2 542.317 581.4 542.317C583 542.317 584.3 542.017 585.1 541.517C585.9 540.917 586.3 540.217 586.3 539.317C586.3 538.617 586.1 538.117 585.6 537.617C585.2 537.217 584.6 536.917 584 536.617C583.4 536.417 582.4 536.117 581.2 535.817C579.7 535.417 578.5 535.117 577.6 534.717C576.7 534.317 575.9 533.817 575.3 533.017C574.7 532.317 574.3 531.317 574.3 530.017C574.3 528.917 574.6 528.017 575.1 527.117C575.7 526.317 576.5 525.617 577.6 525.117C578.7 524.617 580.1 524.317 581.8 524.317C583 524.317 584.1 524.517 585.2 524.817C586.3 525.117 587.3 525.517 588.1 526.117L587.2 528.417C586.4 527.917 585.5 527.517 584.5 527.217C583.6 526.917 582.6 526.817 581.7 526.817C580.1 526.817 578.9 527.117 578.1 527.717C577.3 528.317 576.9 529.017 576.9 530.017C576.9 530.717 577.1 531.217 577.6 531.717C578.1 532.117 578.6 532.517 579.3 532.717C580 532.917 580.9 533.217 582 533.417C583.5 533.817 584.7 534.117 585.6 534.517C586.5 534.917 587.3 535.417 587.9 536.117C588.5 536.817 588.9 537.817 588.9 539.117C588.9 540.117 588.6 541.117 588.1 541.917C587.5 542.817 586.7 543.417 585.5 543.917C584.4 544.417 582.9 544.617 581.3 544.617C580 544.717 578.6 544.417 577.2 544.017Z" fill="#24356C"/>
<path d="M595.5 541.317C595.8 541.717 596 542.117 596 542.717C596 543.017 596 543.317 595.9 543.517C595.8 543.817 595.7 544.217 595.5 544.717L594.2 548.617H592.4L593.4 544.417C593 544.317 592.8 544.017 592.5 543.717C592.3 543.417 592.2 543.017 592.2 542.617C592.2 542.017 592.4 541.617 592.7 541.217C593 540.817 593.5 540.717 594.1 540.717C594.7 540.717 595.1 540.917 595.5 541.317Z" fill="#24356C"/>
<path d="M624.9 524.717V544.517H622V535.717H610.7V544.517H607.9V524.717H610.7V533.217H622V524.717H624.9Z" fill="#24356C"/>
<path d="M643.4 539.517H632.9L630.7 544.417H627.8L636.7 524.617H639.5L648.5 544.417H645.5L643.4 539.517ZM642.4 537.217L638.1 527.517L633.8 537.217H642.4Z" fill="#24356C"/>
<path d="M668.4 524.717V544.517H666.1L654.2 529.817V544.517H651.4V524.717H653.7L665.6 539.417V524.717H668.4Z" fill="#24356C"/>
<path d="M688 534.417H690.7V542.117C689.7 542.917 688.6 543.517 687.3 544.017C686 544.417 684.6 544.617 683.2 544.617C681.2 544.617 679.4 544.217 677.8 543.317C676.2 542.417 674.9 541.217 674 539.717C673.1 538.217 672.6 536.417 672.6 534.517C672.6 532.617 673.1 530.817 674 529.317C674.9 527.817 676.2 526.617 677.8 525.717C679.4 524.817 681.2 524.417 683.2 524.417C684.8 524.417 686.2 524.717 687.5 525.217C688.8 525.717 689.9 526.517 690.8 527.517L689 529.317C687.4 527.817 685.5 527.017 683.3 527.017C681.8 527.017 680.4 527.317 679.3 528.017C678.1 528.617 677.2 529.617 676.5 530.717C675.8 531.917 675.5 533.217 675.5 534.617C675.5 536.017 675.8 537.317 676.5 538.517C677.2 539.717 678.1 540.617 679.3 541.217C680.5 541.917 681.8 542.217 683.3 542.217C685.1 542.217 686.6 541.817 687.9 540.917V534.417H688Z" fill="#24356C"/>
<path d="M703.7 524.717H706.5V544.517H703.7V524.717Z" fill="#24356C"/>
<path d="M729.5 524.717V544.517H727.2L715.3 529.817V544.517H712.5V524.717H714.8L726.7 539.417V524.717H729.5Z" fill="#24356C"/>
<path d="M746.9 527.117H740.1V524.617H756.4V527.117H749.6V544.417H746.8V527.117H746.9Z" fill="#24356C"/>
<path d="M759.6 524.717H762.4V544.517H759.6V524.717Z" fill="#24356C"/>
<path d="M782 534.417H784.7V542.117C783.7 542.917 782.6 543.517 781.3 544.017C780 544.417 778.6 544.617 777.2 544.617C775.2 544.617 773.4 544.217 771.8 543.317C770.2 542.417 768.9 541.217 768 539.717C767.1 538.217 766.6 536.417 766.6 534.517C766.6 532.617 767.1 530.817 768 529.317C768.9 527.817 770.2 526.617 771.8 525.717C773.4 524.817 775.2 524.417 777.2 524.417C778.8 524.417 780.2 524.717 781.5 525.217C782.8 525.717 783.9 526.517 784.8 527.517L783 529.317C781.4 527.817 779.5 527.017 777.3 527.017C775.8 527.017 774.4 527.317 773.3 528.017C772.1 528.617 771.2 529.617 770.5 530.717C769.8 531.917 769.5 533.217 769.5 534.617C769.5 536.017 769.8 537.317 770.5 538.517C771.2 539.717 772.1 540.617 773.3 541.217C774.5 541.917 775.8 542.217 777.3 542.217C779.1 542.217 780.6 541.817 781.9 540.917V534.417H782Z" fill="#24356C"/>
<path d="M807.1 524.717V544.517H804.3V535.717H793V544.517H790.2V524.717H793V533.217H804.3V524.717H807.1Z" fill="#24356C"/>
<path d="M816.9 527.117H810.1V524.617H826.4V527.117H819.6V544.417H816.8V527.117H816.9Z" fill="#24356C"/>
<path d="M827.6 544.017C827.2 543.617 827 543.217 827 542.617C827 542.117 827.2 541.617 827.6 541.217C828 540.817 828.4 540.617 829 540.617C829.5 540.617 830 540.817 830.3 541.117C830.6 541.417 830.8 541.917 830.8 542.517C830.8 543.117 830.6 543.517 830.3 543.917C829.9 544.317 829.5 544.417 829 544.417C828.4 544.617 828 544.417 827.6 544.017Z" fill="#24356C"/>
<path d="M413 558.517L406.5 578.317H401.6L397.3 564.917L392.8 578.317H387.9L381.4 558.517H386.1L390.6 572.417L395.3 558.517H399.5L404 572.517L408.6 558.517H413Z" fill="#24356C"/>
<path d="M430.8 574.617V578.317H415.5V558.517H430.4V562.217H420V566.517H429.2V570.117H420V574.717H430.8V574.617Z" fill="#24356C"/>
<path d="M437.8 557.917C438.3 558.417 438.6 559.117 438.6 559.917C438.6 560.317 438.6 560.717 438.5 561.017C438.4 561.417 438.2 561.917 437.9 562.717L436.3 566.817H433.5L434.7 562.317C434.2 562.117 433.9 561.817 433.6 561.417C433.3 561.017 433.2 560.517 433.2 559.917C433.2 559.117 433.5 558.417 434 557.917C434.5 557.417 435.2 557.217 436 557.217C436.8 557.217 437.3 557.417 437.8 557.917Z" fill="#24356C"/>
<path d="M441.8 558.517H446.4V574.517H456.3V578.217H441.8V558.517Z" fill="#24356C"/>
<path d="M458.9 558.517H463.5V574.517H473.4V578.217H458.9V558.517Z" fill="#24356C"/>
<path d="M501.1 569.817C501.7 570.617 502.1 571.717 502.1 572.917C502.1 574.617 501.4 576.017 500.1 576.917C498.8 577.817 496.8 578.317 494.2 578.317H484V558.517H493.7C496.1 558.517 498 559.017 499.2 559.917C500.5 560.817 501.1 562.117 501.1 563.717C501.1 564.717 500.9 565.517 500.4 566.317C499.9 567.117 499.3 567.617 498.5 568.117C499.6 568.417 500.4 569.017 501.1 569.817ZM488.5 562.017V566.717H493C494.1 566.717 495 566.517 495.6 566.117C496.2 565.717 496.5 565.117 496.5 564.317C496.5 563.517 496.2 563.017 495.6 562.617C495 562.217 494.2 562.017 493 562.017H488.5ZM496.5 574.317C497.1 573.917 497.4 573.317 497.4 572.517C497.4 570.917 496.2 570.017 493.8 570.017H488.5V574.917H493.8C495 574.917 495.9 574.717 496.5 574.317Z" fill="#24356C"/>
<path d="M520.8 574.617V578.317H505.5V558.517H520.4V562.217H510V566.517H519.2V570.117H510V574.717H520.8V574.617Z" fill="#24356C"/>
<path d="M549.6 569.817C550.2 570.617 550.6 571.717 550.6 572.917C550.6 574.617 549.9 576.017 548.6 576.917C547.3 577.817 545.3 578.317 542.7 578.317H532.5V558.517H542.2C544.6 558.517 546.5 559.017 547.7 559.917C549 560.817 549.6 562.117 549.6 563.717C549.6 564.717 549.4 565.517 548.9 566.317C548.4 567.117 547.8 567.617 547 568.117C548.1 568.417 549 569.017 549.6 569.817ZM537 562.017V566.717H541.5C542.6 566.717 543.5 566.517 544.1 566.117C544.7 565.717 545 565.117 545 564.317C545 563.517 544.7 563.017 544.1 562.617C543.5 562.217 542.7 562.017 541.5 562.017H537ZM545 574.317C545.6 573.917 545.9 573.317 545.9 572.517C545.9 570.917 544.7 570.017 542.3 570.017H537V574.917H542.3C543.5 574.917 544.4 574.717 545 574.317Z" fill="#24356C"/>
<path d="M567 574.117H557.8L556 578.317H551.3L560.1 558.517H564.6L573.4 578.317H568.6L567 574.117ZM565.6 570.617L562.5 563.017L559.4 570.617H565.6Z" fill="#24356C"/>
<path d="M579.4 577.317C577.8 576.417 576.5 575.217 575.6 573.717C574.7 572.117 574.2 570.417 574.2 568.417C574.2 566.417 574.7 564.717 575.6 563.117C576.5 561.517 577.8 560.317 579.4 559.517C581 558.617 582.9 558.217 584.9 558.217C586.6 558.217 588.2 558.517 589.5 559.117C590.8 559.717 592 560.617 593 561.717L590.1 564.417C588.8 562.917 587.1 562.117 585.1 562.117C583.9 562.117 582.8 562.417 581.8 562.917C580.8 563.417 580.1 564.217 579.6 565.117C579.1 566.117 578.8 567.217 578.8 568.417C578.8 569.617 579.1 570.717 579.6 571.717C580.1 572.717 580.9 573.417 581.8 573.917C582.7 574.417 583.9 574.717 585.1 574.717C587.1 574.717 588.7 573.917 590.1 572.417L593 575.117C592.1 576.217 590.9 577.117 589.5 577.717C588.1 578.317 586.6 578.617 584.8 578.617C582.8 578.617 581 578.217 579.4 577.317Z" fill="#24356C"/>
<path d="M603.2 570.517L600.5 573.317V578.317H596V558.517H600.5V567.717L609.2 558.517H614.3L606.1 567.317L614.8 578.317H609.5L603.2 570.517Z" fill="#24356C"/>
<path d="M628.9 577.317C627.3 576.417 626 575.217 625 573.617C624.1 572.017 623.6 570.317 623.6 568.417C623.6 566.517 624.1 564.717 625 563.217C625.9 561.617 627.2 560.417 628.9 559.517C630.5 558.617 632.4 558.217 634.4 558.217C636.4 558.217 638.3 558.617 639.9 559.517C641.5 560.417 642.8 561.617 643.8 563.217C644.7 564.817 645.2 566.517 645.2 568.417C645.2 570.317 644.7 572.117 643.8 573.617C642.9 575.217 641.6 576.417 639.9 577.317C638.3 578.217 636.4 578.617 634.4 578.617C632.4 578.617 630.6 578.217 628.9 577.317ZM637.7 573.917C638.6 573.417 639.4 572.617 639.9 571.717C640.4 570.717 640.7 569.717 640.7 568.417C640.7 567.217 640.4 566.117 639.9 565.117C639.4 564.117 638.6 563.417 637.7 562.917C636.8 562.417 635.7 562.117 634.5 562.117C633.3 562.117 632.3 562.417 631.3 562.917C630.4 563.417 629.6 564.217 629.1 565.117C628.6 566.117 628.3 567.217 628.3 568.417C628.3 569.617 628.6 570.717 629.1 571.717C629.6 572.717 630.4 573.417 631.3 573.917C632.2 574.417 633.3 574.717 634.5 574.717C635.7 574.717 636.7 574.517 637.7 573.917Z" fill="#24356C"/>
<path d="M666.9 558.517V578.317H663.1L653.3 566.317V578.317H648.8V558.517H652.6L662.4 570.517V558.517H666.9Z" fill="#24356C"/>
<path d="M671.5 558.517H676.1V574.517H686V578.217H671.5V558.517Z" fill="#24356C"/>
<path d="M688.6 558.517H693.2V578.317H688.6V558.517Z" fill="#24356C"/>
<path d="M716 558.517V578.317H712.2L702.4 566.317V578.317H697.9V558.517H701.7L711.5 570.517V558.517H716Z" fill="#24356C"/>
<path d="M736 574.617V578.317H720.7V558.517H735.6V562.217H725.2V566.517H734.4V570.117H725.2V574.717H736V574.617Z" fill="#24356C"/>
<path d="M749.5 578.017C748 577.617 746.9 577.017 746 576.317L747.6 572.917C748.4 573.517 749.5 574.017 750.6 574.417C751.8 574.817 752.9 575.017 754.1 575.017C755.4 575.017 756.4 574.817 757 574.417C757.6 574.017 757.9 573.517 757.9 572.917C757.9 572.417 757.7 572.017 757.4 571.717C757 571.417 756.6 571.117 756 571.017C755.4 570.817 754.6 570.617 753.7 570.417C752.2 570.017 751 569.717 750 569.317C749 568.917 748.2 568.417 747.5 567.617C746.8 566.817 746.5 565.817 746.5 564.417C746.5 563.317 746.8 562.217 747.4 561.317C748 560.417 749 559.617 750.2 559.117C751.4 558.617 753 558.317 754.8 558.317C756.1 558.317 757.3 558.517 758.5 558.817C759.7 559.117 760.8 559.517 761.7 560.117L760.3 563.617C758.5 562.617 756.6 562.017 754.8 562.017C753.5 562.017 752.6 562.217 752 562.617C751.4 563.017 751.1 563.617 751.1 564.217C751.1 564.817 751.5 565.417 752.2 565.717C752.9 566.017 754 566.417 755.4 566.717C756.9 567.117 758.1 567.417 759.1 567.817C760.1 568.217 760.9 568.717 761.6 569.517C762.3 570.317 762.6 571.317 762.6 572.617C762.6 573.717 762.3 574.817 761.7 575.717C761.1 576.617 760.1 577.417 758.9 577.917C757.6 578.417 756.1 578.717 754.3 578.717C752.5 578.617 751 578.417 749.5 578.017Z" fill="#24356C"/>
<path d="M769.6 577.317C768 576.417 766.7 575.217 765.7 573.617C764.8 572.017 764.3 570.317 764.3 568.417C764.3 566.517 764.8 564.717 765.7 563.217C766.6 561.617 767.9 560.417 769.6 559.517C771.2 558.617 773.1 558.217 775.1 558.217C777.1 558.217 779 558.617 780.6 559.517C782.2 560.417 783.5 561.617 784.5 563.217C785.4 564.817 785.9 566.517 785.9 568.417C785.9 570.317 785.4 572.117 784.5 573.617C783.6 575.217 782.3 576.417 780.6 577.317C779 578.217 777.1 578.617 775.1 578.617C773.1 578.617 771.3 578.217 769.6 577.317ZM778.3 573.917C779.2 573.417 780 572.617 780.5 571.717C781 570.717 781.3 569.717 781.3 568.417C781.3 567.217 781 566.117 780.5 565.117C780 564.117 779.2 563.417 778.3 562.917C777.4 562.417 776.3 562.117 775.1 562.117C773.9 562.117 772.9 562.417 771.9 562.917C771 563.417 770.2 564.217 769.7 565.117C769.2 566.117 768.9 567.217 768.9 568.417C768.9 569.617 769.2 570.717 769.7 571.717C770.2 572.717 771 573.417 771.9 573.917C772.8 574.417 773.9 574.717 775.1 574.717C776.3 574.717 777.4 574.517 778.3 573.917Z" fill="#24356C"/>
<path d="M793.4 577.317C791.8 576.417 790.5 575.217 789.5 573.617C788.6 572.017 788.1 570.317 788.1 568.417C788.1 566.517 788.6 564.717 789.5 563.217C790.4 561.617 791.7 560.417 793.4 559.517C795 558.617 796.9 558.217 798.9 558.217C800.9 558.217 802.8 558.617 804.4 559.517C806 560.417 807.3 561.617 808.3 563.217C809.2 564.817 809.7 566.517 809.7 568.417C809.7 570.317 809.2 572.117 808.3 573.617C807.4 575.217 806.1 576.417 804.4 577.317C802.8 578.217 800.9 578.617 798.9 578.617C796.9 578.617 795.1 578.217 793.4 577.317ZM802.1 573.917C803 573.417 803.8 572.617 804.3 571.717C804.8 570.717 805.1 569.717 805.1 568.417C805.1 567.217 804.8 566.117 804.3 565.117C803.8 564.117 803 563.417 802.1 562.917C801.2 562.417 800.1 562.117 798.9 562.117C797.7 562.117 796.7 562.417 795.7 562.917C794.8 563.417 794 564.217 793.5 565.117C793 566.117 792.7 567.217 792.7 568.417C792.7 569.617 793 570.717 793.5 571.717C794 572.717 794.8 573.417 795.7 573.917C796.6 574.417 797.7 574.717 798.9 574.717C800.1 574.717 801.2 574.517 802.1 573.917Z" fill="#24356C"/>
<path d="M831.3 558.517V578.317H827.5L817.7 566.317V578.317H813.2V558.517H817L826.8 570.517V558.517H831.3Z" fill="#24356C"/>
<path d="M835.8 577.817C835.3 577.317 835 576.717 835 576.017C835 575.317 835.3 574.717 835.8 574.217C836.3 573.717 837 573.517 837.7 573.517C838.5 573.517 839.1 573.717 839.6 574.217C840.1 574.717 840.4 575.317 840.4 576.017C840.4 576.717 840.1 577.317 839.6 577.817C839.1 578.317 838.4 578.517 837.7 578.517C837 578.517 836.4 578.317 835.8 577.817ZM835.2 558.517H840.4L839.5 571.417H836L835.2 558.517Z" fill="#24356C"/>
<path opacity="0.5" d="M209.1 354.217C209.1 364.017 217.1 372.017 226.9 372.017C236.7 372.017 244.7 364.017 244.7 354.217C244.7 344.417 236.7 336.417 226.9 336.417C217 336.417 209.1 344.417 209.1 354.217Z" fill="#3683BC"/>
<path opacity="0.09" d="M152.3 371.018C152.3 380.818 160.3 388.818 170.1 388.818C179.9 388.818 187.9 380.818 187.9 371.018C187.9 361.218 179.9 353.218 170.1 353.218C160.3 353.218 152.3 361.118 152.3 371.018Z" fill="#3683BC"/>
<path opacity="0.28" d="M132.3 432.217C142.131 432.217 150.1 424.248 150.1 414.417C150.1 404.587 142.131 396.617 132.3 396.617C122.469 396.617 114.5 404.587 114.5 414.417C114.5 424.248 122.469 432.217 132.3 432.217Z" fill="#3683BC"/>
<path opacity="0.33" d="M123.8 491.618C133.631 491.618 141.6 483.648 141.6 473.818C141.6 463.987 133.631 456.018 123.8 456.018C113.969 456.018 106 463.987 106 473.818C106 483.648 113.969 491.618 123.8 491.618Z" fill="#3683BC"/>
<path opacity="0.6818" d="M130.4 526.717C130.4 536.517 138.4 544.517 148.2 544.517C158 544.517 166 536.517 166 526.717C166 516.917 158 508.917 148.2 508.917C138.4 509.017 130.4 516.917 130.4 526.717Z" fill="#3683BC"/>
<path opacity="0.7273" d="M179 558.217C179 568.017 187 576.017 196.8 576.017C206.6 576.017 214.6 568.017 214.6 558.217C214.6 548.417 206.6 540.417 196.8 540.417C186.9 540.417 179 548.317 179 558.217Z" fill="#3683BC"/>
<path opacity="0.7727" d="M239.2 558.217C239.2 568.017 247.2 576.017 257 576.017C266.8 576.017 274.8 568.017 274.8 558.217C274.8 548.417 266.8 540.417 257 540.417C247.1 540.417 239.2 548.317 239.2 558.217Z" fill="#3683BC"/>
<path opacity="0.8182" d="M287.7 526.717C287.7 536.517 295.7 544.517 305.5 544.517C315.3 544.517 323.3 536.517 323.3 526.717C323.3 516.917 315.3 508.917 305.5 508.917C295.7 509.017 287.7 516.917 287.7 526.717Z" fill="#3683BC"/>
<path opacity="0.8636" d="M329.9 491.618C339.731 491.618 347.7 483.648 347.7 473.818C347.7 463.987 339.731 456.018 329.9 456.018C320.069 456.018 312.1 463.987 312.1 473.818C312.1 483.648 320.069 491.618 329.9 491.618Z" fill="#3683BC"/>
<path opacity="0.9091" d="M321.3 432.217C331.131 432.217 339.1 424.248 339.1 414.417C339.1 404.587 331.131 396.617 321.3 396.617C311.469 396.617 303.5 404.587 303.5 414.417C303.5 424.248 311.469 432.217 321.3 432.217Z" fill="#3683BC"/>
<path opacity="0.9545" d="M265.8 371.018C265.8 380.818 273.8 388.818 283.6 388.818C293.4 388.818 301.4 380.818 301.4 371.018C301.4 361.218 293.4 353.218 283.6 353.218C273.8 353.218 265.8 361.118 265.8 371.018Z" fill="#3683BC"/>
<path d="M209.1 354.217C209.1 364.017 217.1 372.017 226.9 372.017C236.7 372.017 244.7 364.017 244.7 354.217C244.7 344.417 236.7 336.417 226.9 336.417C217 336.417 209.1 344.417 209.1 354.217Z" fill="#3683BC"/>
<defs>
<linearGradient id="paint0_linear" x1="929.444" y1="577.244" x2="952.998" y2="492.595" gradientUnits="userSpaceOnUse">
<stop stop-color="#C3D6EE"/>
<stop offset="1" stop-color="#DCE9F7"/>
</linearGradient>
<linearGradient id="paint1_linear" x1="924.958" y1="516.423" x2="965.125" y2="516.423" gradientUnits="userSpaceOnUse">
<stop stop-color="#3784BD"/>
<stop offset="1" stop-color="#24366C"/>
</linearGradient>
<linearGradient id="paint2_linear" x1="958.704" y1="571.941" x2="943.823" y2="510.29" gradientUnits="userSpaceOnUse">
<stop stop-color="#9D68C2"/>
<stop offset="1" stop-color="#CCEDFF"/>
</linearGradient>
<linearGradient id="paint3_linear" x1="904.053" y1="321.463" x2="914.929" y2="415.164" gradientUnits="userSpaceOnUse">
<stop stop-color="#C3D6EE"/>
<stop offset="1" stop-color="#DCE9F7"/>
</linearGradient>
<linearGradient id="paint4_linear" x1="892.127" y1="341.402" x2="890.127" y2="364.038" gradientUnits="userSpaceOnUse">
<stop stop-color="#3784BD"/>
<stop offset="1" stop-color="#24366C"/>
</linearGradient>
<linearGradient id="paint5_linear" x1="876.945" y1="476.834" x2="933.243" y2="409.915" gradientUnits="userSpaceOnUse">
<stop stop-color="#9D68C2"/>
<stop offset="1" stop-color="#CCEDFF"/>
</linearGradient>
<linearGradient id="paint6_linear" x1="905.136" y1="439.226" x2="905.136" y2="480.706" gradientUnits="userSpaceOnUse">
<stop stop-color="#66CCE8"/>
<stop offset="1" stop-color="#3784BD"/>
</linearGradient>
<linearGradient id="paint7_linear" x1="920.839" y1="515.438" x2="920.839" y2="559.893" gradientUnits="userSpaceOnUse">
<stop stop-color="#AECDEC"/>
<stop offset="1" stop-color="#D2DFF2"/>
</linearGradient>
<linearGradient id="paint8_linear" x1="988.417" y1="397.812" x2="1009.34" y2="565.753" gradientUnits="userSpaceOnUse">
<stop stop-color="#C3D6EE"/>
<stop offset="1" stop-color="#DCE9F7"/>
</linearGradient>
<linearGradient id="paint9_linear" x1="914.073" y1="355.29" x2="1060.25" y2="355.29" gradientUnits="userSpaceOnUse">
<stop stop-color="#3784BD"/>
<stop offset="1" stop-color="#24366C"/>
</linearGradient>
<linearGradient id="paint10_linear" x1="978.493" y1="404.109" x2="978.493" y2="513.474" gradientUnits="userSpaceOnUse">
<stop stop-color="#9D68C2"/>
<stop offset="1" stop-color="#CCEDFF"/>
</linearGradient>
<linearGradient id="paint11_linear" x1="988.029" y1="337.047" x2="988.029" y2="371.201" gradientUnits="userSpaceOnUse">
<stop stop-color="#8DA4E5"/>
<stop offset="1" stop-color="#755CBB"/>
</linearGradient>
<linearGradient id="paint12_linear" x1="970.41" y1="225.067" x2="973.192" y2="243.856" gradientUnits="userSpaceOnUse">
<stop stop-color="#3986C7"/>
<stop offset="1" stop-color="#4A5497"/>
</linearGradient>
<linearGradient id="paint13_linear" x1="949.011" y1="325.529" x2="956.632" y2="233.151" gradientUnits="userSpaceOnUse">
<stop stop-color="#0665BD"/>
<stop offset="1" stop-color="#1A1F77"/>
</linearGradient>
<linearGradient id="paint14_linear" x1="978.591" y1="468.805" x2="980.501" y2="398.283" gradientUnits="userSpaceOnUse">
<stop stop-color="#C3D6EE"/>
<stop offset="1" stop-color="#DCE9F7"/>
</linearGradient>
<linearGradient id="paint15_linear" x1="1051.5" y1="476.705" x2="1051.5" y2="559.329" gradientUnits="userSpaceOnUse">
<stop stop-color="#AECDEC"/>
<stop offset="1" stop-color="#D2DFF2"/>
</linearGradient>
<linearGradient id="paint16_linear" x1="1018.92" y1="517.936" x2="1024.28" y2="425.97" gradientUnits="userSpaceOnUse">
<stop stop-color="#9D68C2"/>
<stop offset="1" stop-color="#CCEDFF"/>
</linearGradient>
<linearGradient id="paint17_linear" x1="1058.54" y1="485.031" x2="1058.54" y2="566.459" gradientUnits="userSpaceOnUse">
<stop stop-color="#3784BD"/>
<stop offset="1" stop-color="#24366C"/>
</linearGradient>
<linearGradient id="paint18_linear" x1="1059.38" y1="282.366" x2="1070.49" y2="197.353" gradientUnits="userSpaceOnUse">
<stop stop-color="#66CCE8"/>
<stop offset="1" stop-color="#3784BD"/>
</linearGradient>
<linearGradient id="paint19_linear" x1="928.489" y1="478.712" x2="1003.47" y2="478.712" gradientUnits="userSpaceOnUse">
<stop stop-color="#3784BD"/>
<stop offset="1" stop-color="#24366C"/>
</linearGradient>
<linearGradient id="paint20_linear" x1="935.497" y1="464.272" x2="994.622" y2="502.242" gradientUnits="userSpaceOnUse">
<stop stop-color="#63ADE0"/>
<stop offset="1" stop-color="#3784BD"/>
</linearGradient>
<linearGradient id="paint21_linear" x1="1011.6" y1="416.874" x2="1031.71" y2="416.874" gradientUnits="userSpaceOnUse">
<stop stop-color="#3784BD"/>
<stop offset="1" stop-color="#24366C"/>
</linearGradient>
<linearGradient id="paint22_linear" x1="1011.59" y1="420.085" x2="1024.27" y2="420.085" gradientUnits="userSpaceOnUse">
<stop stop-color="#3784BD"/>
<stop offset="1" stop-color="#24366C"/>
</linearGradient>
<linearGradient id="paint23_linear" x1="1038.49" y1="287.763" x2="1052.23" y2="413.113" gradientUnits="userSpaceOnUse">
<stop stop-color="#C3D6EE"/>
<stop offset="1" stop-color="#DCE9F7"/>
</linearGradient>
<linearGradient id="paint24_linear" x1="977.343" y1="207.119" x2="988.128" y2="307.3" gradientUnits="userSpaceOnUse">
<stop stop-color="#C3D6EE"/>
<stop offset="1" stop-color="#DCE9F7"/>
</linearGradient>
<linearGradient id="paint25_linear" x1="1073.64" y1="309.989" x2="1073.64" y2="331.817" gradientUnits="userSpaceOnUse">
<stop stop-color="#3784BD"/>
<stop offset="1" stop-color="#24366C"/>
</linearGradient>
<linearGradient id="paint26_linear" x1="835.696" y1="310.086" x2="841.258" y2="350.902" gradientUnits="userSpaceOnUse">
<stop stop-color="#C3D6EE"/>
<stop offset="1" stop-color="#DCE9F7"/>
</linearGradient>
<linearGradient id="paint27_linear" x1="865.448" y1="414.043" x2="870.428" y2="460.377" gradientUnits="userSpaceOnUse">
<stop stop-color="#3784BD"/>
<stop offset="1" stop-color="#24366C"/>
</linearGradient>
<linearGradient id="paint28_linear" x1="868.347" y1="595.828" x2="868.347" y2="615.109" gradientUnits="userSpaceOnUse">
<stop stop-color="#20BADD"/>
<stop offset="1" stop-color="#4985C5"/>
</linearGradient>
<linearGradient id="paint29_linear" x1="866.662" y1="245.869" x2="866.662" y2="253.496" gradientUnits="userSpaceOnUse">
<stop stop-color="#20BADD"/>
<stop offset="1" stop-color="#4985C5"/>
</linearGradient>
<linearGradient id="paint30_linear" x1="903.098" y1="300.49" x2="905.517" y2="265.098" gradientUnits="userSpaceOnUse">
<stop stop-color="#66CCE8"/>
<stop offset="1" stop-color="#3784BD"/>
</linearGradient>
<linearGradient id="paint31_linear" x1="980.989" y1="394.451" x2="980.989" y2="400.511" gradientUnits="userSpaceOnUse">
<stop stop-color="#66CCE8"/>
<stop offset="1" stop-color="#3784BD"/>
</linearGradient>
<linearGradient id="paint32_linear" x1="984.452" y1="397.526" x2="984.452" y2="422.036" gradientUnits="userSpaceOnUse">
<stop stop-color="#8DA4E5"/>
<stop offset="1" stop-color="#755CBB"/>
</linearGradient>
<linearGradient id="paint33_linear" x1="1067.88" y1="493.475" x2="1050.31" y2="409.757" gradientUnits="userSpaceOnUse">
<stop stop-color="#9D68C2"/>
<stop offset="1" stop-color="#CCEDFF"/>
</linearGradient>
<linearGradient id="paint34_linear" x1="1002.76" y1="-224.007" x2="1009.84" y2="-156.885" gradientUnits="userSpaceOnUse">
<stop stop-color="#C3D6EE"/>
<stop offset="1" stop-color="#DCE9F7"/>
</linearGradient>
<linearGradient id="paint35_linear" x1="1075.59" y1="566.443" x2="1069.05" y2="515.612" gradientUnits="userSpaceOnUse">
<stop stop-color="#3784BD"/>
<stop offset="1" stop-color="#24366C"/>
</linearGradient>
<linearGradient id="paint36_linear" x1="1069.98" y1="83.98" x2="1069.98" y2="108.318" gradientUnits="userSpaceOnUse">
<stop stop-color="#8DA4E5"/>
<stop offset="1" stop-color="#755CBB"/>
</linearGradient>
<linearGradient id="paint37_linear" x1="994.697" y1="-176.652" x2="998.589" y2="-137.999" gradientUnits="userSpaceOnUse">
<stop stop-color="#C3D6EE"/>
<stop offset="1" stop-color="#DCE9F7"/>
</linearGradient>
<linearGradient id="paint38_linear" x1="1024.49" y1="597.36" x2="1024.65" y2="498.227" gradientUnits="userSpaceOnUse">
<stop stop-color="#9D68C2"/>
<stop offset="1" stop-color="#CCEDFF"/>
</linearGradient>
<linearGradient id="paint39_linear" x1="826.875" y1="325.74" x2="828.726" y2="339.571" gradientUnits="userSpaceOnUse">
<stop stop-color="#8DA4E5"/>
<stop offset="1" stop-color="#755CBB"/>
</linearGradient>
<linearGradient id="paint40_linear" x1="840.696" y1="339.46" x2="844.398" y2="364.277" gradientUnits="userSpaceOnUse">
<stop stop-color="#C3D6EE"/>
<stop offset="1" stop-color="#DCE9F7"/>
</linearGradient>
<linearGradient id="paint41_linear" x1="876.461" y1="326.476" x2="875.531" y2="337.606" gradientUnits="userSpaceOnUse">
<stop stop-color="#3784BD"/>
<stop offset="1" stop-color="#24366C"/>
</linearGradient>
<linearGradient id="paint42_linear" x1="884.511" y1="340.109" x2="882.655" y2="352.165" gradientUnits="userSpaceOnUse">
<stop stop-color="#3784BD"/>
<stop offset="1" stop-color="#24366C"/>
</linearGradient>
</defs>
</svg>
