<svg width="26" height="23" viewBox="0 0 26 23" fill="none" xmlns="http://www.w3.org/2000/svg">
<path fill-rule="evenodd" clip-rule="evenodd" d="M19.8676 22.5C21.967 22.5 23.5714 20.685 23.5714 18.5714V6.78571H1.57143V18.5714C1.57143 20.685 3.17586 22.5 5.27529 22.5H19.8676ZM9.42857 9.92857C9.22019 9.92857 9.02034 10.0114 8.87299 10.1587C8.72564 10.3061 8.64286 10.5059 8.64286 10.7143C8.64286 10.9227 8.72564 11.1225 8.87299 11.2699C9.02034 11.4172 9.22019 11.5 9.42857 11.5H15.7143C15.9227 11.5 16.1225 11.4172 16.2699 11.2699C16.4172 11.1225 16.5 10.9227 16.5 10.7143C16.5 10.5059 16.4172 10.3061 16.2699 10.1587C16.1225 10.0114 15.9227 9.92857 15.7143 9.92857H9.42857ZM1.25714 0.5C0.923728 0.5 0.603969 0.632449 0.368209 0.868209C0.132449 1.10397 0 1.42373 0 1.75714L0 3.64286C0 3.97627 0.132449 4.29603 0.368209 4.53179C0.603969 4.76755 0.923728 4.9 1.25714 4.9H23.8857C24.2191 4.9 24.5389 4.76755 24.7746 4.53179C25.0104 4.29603 25.1429 3.97627 25.1429 3.64286V1.75714C25.1429 1.42373 25.0104 1.10397 24.7746 0.868209C24.5389 0.632449 24.2191 0.5 23.8857 0.5H1.25714Z" fill="white"/>
</svg>
