<svg width="23" height="35" viewBox="0 0 23 35" fill="none" xmlns="http://www.w3.org/2000/svg">
<path d="M5.98112 34.3884C2.15841 21.792 10.2357 17.1927 10.2357 17.1927C9.67056 23.9142 13.4903 29.1508 13.4903 29.1508C14.8951 28.7269 17.5765 26.7459 17.5765 26.7459C17.5765 29.1508 16.1617 34.3854 16.1617 34.3854C16.1617 34.3854 21.1146 30.5556 22.6738 24.1948C24.2309 17.834 19.7078 11.4481 19.7078 11.4481C19.9804 15.9502 18.4573 20.3781 15.4733 23.7609C15.6226 23.5886 15.7478 23.3972 15.844 23.1898C16.3801 22.1176 17.2408 19.331 16.7368 12.878C16.0274 3.8197 7.81983 0 7.81983 0C8.52725 5.51913 6.40597 6.7907 1.43695 17.2668C-3.53207 27.741 5.98112 34.3884 5.98112 34.3884Z" fill="white"/>
</svg>
