<svg width="24" height="26" viewBox="0 0 24 26" fill="none" xmlns="http://www.w3.org/2000/svg">
<path d="M23.4847 4.10821C23.4154 4.10821 23.3493 4.12288 23.2889 4.14847V4.1454C22.1418 4.76508 20.8666 5.08864 19.5721 5.08844C17.0883 5.08844 14.8674 3.92807 13.3877 2.10409C12.0507 0.800767 10.2499 5.69024e-06 8.26688 5.69024e-06C6.43239 -0.00229937 4.6618 0.695784 3.29532 1.96011C3.01722 1.35485 2.425 0.933488 1.73337 0.933488C1.27371 0.933488 0.832871 1.12209 0.50781 1.4578C0.182749 1.79352 8.7588e-05 2.24886 0 2.72368V24.2095C9.68785e-09 24.6843 0.182623 25.1398 0.507693 25.4756C0.832763 25.8114 1.27365 26 1.73337 26C2.19309 26 2.63398 25.8114 2.95905 25.4756C3.28412 25.1398 3.46674 24.6843 3.46674 24.2095V14.5348C4.59144 13.9473 5.83433 13.6417 7.09467 13.643C9.58177 13.643 11.805 14.8064 13.2847 16.6341C14.6675 17.983 16.498 18.7334 18.3999 18.7311C20.5435 18.7311 22.4717 17.7938 23.8335 16.2991C23.8859 16.2496 23.9278 16.1894 23.9564 16.1223C23.9851 16.0553 23.9999 15.9828 24 15.9095V4.64012C23.9999 4.49902 23.9456 4.36373 23.849 4.26398C23.7523 4.16424 23.6213 4.10821 23.4847 4.10821Z" fill="white"/>
</svg>
