<svg width="26" height="28" viewBox="0 0 26 28" fill="none" xmlns="http://www.w3.org/2000/svg">
<path d="M25.2563 11.9183C25.5095 10.7203 25.3031 9.56232 24.7693 8.58626C24.9296 7.32371 24.5515 6.01731 23.8301 5.04268C23.7784 2.08536 21.8897 0 17.7125 0C17.3333 0 16.9 0.000528971 16.5089 0.000528971C10.8981 0.000528971 9.154 2.11589 6.93333 2.11589H6.3459C6.0404 1.85272 5.63945 1.69271 5.2 1.69271H1.73333C0.776046 1.69271 0 2.45057 0 3.38542V16.0807C0 17.0156 0.776046 17.7734 1.73333 17.7734H5.2C5.84144 17.7734 6.40115 17.4329 6.70085 16.9271H7.08283C8.11991 17.8238 9.5752 20.1355 10.8073 21.3387C11.5476 22.0616 11.3573 27.0833 14.6943 27.0833C17.8132 27.0833 19.8548 25.394 19.8548 21.5434C19.8548 20.5696 19.6419 19.7592 19.3754 19.0816H21.3514C23.984 19.0816 26 16.8829 26 14.5546C26 13.5417 25.7313 12.7038 25.2563 11.9183ZM3.46667 15.6576C2.74869 15.6576 2.16667 15.0892 2.16667 14.388C2.16667 13.6869 2.74869 13.1185 3.46667 13.1185C4.18465 13.1185 4.76667 13.6869 4.76667 14.388C4.76667 15.0892 4.18465 15.6576 3.46667 15.6576ZM21.3514 16.5425H15.7186C15.7186 18.5431 17.2548 19.4714 17.2548 21.5434C17.2548 22.7997 17.2548 24.5443 14.6943 24.5443C13.67 23.544 14.1819 21.0435 12.6458 19.5434C11.2071 18.1379 9.061 14.388 7.52483 14.388H6.93333V4.54016C9.83726 4.54016 12.3501 2.53959 16.2305 2.53959H18.2791C20.2027 2.53959 21.5735 3.44519 21.1564 6.02551C21.9797 6.45715 22.5918 7.95308 21.9115 9.0708C23.0805 10.1491 22.9244 11.772 22.1937 12.5419C22.7056 12.5419 23.4049 13.5422 23.4 14.542C23.3951 15.5422 22.4949 16.5425 21.3514 16.5425Z" fill="white"/>
</svg>
