<svg width="31" height="27" viewBox="0 0 31 27" fill="none" xmlns="http://www.w3.org/2000/svg">
<path d="M15.9062 6.15385H3.39999C2.57078 6.15385 1.77552 6.47802 1.18918 7.05506C0.602841 7.63209 0.273438 8.41472 0.273438 9.23077V15.3846C0.273438 16.2007 0.602841 16.9833 1.18918 17.5603C1.77552 18.1374 2.57078 18.4615 3.39999 18.4615H4.96326V24.6154C4.96326 25.0234 5.12797 25.4147 5.42114 25.7032C5.71431 25.9918 6.11193 26.1538 6.52654 26.1538H9.65309C10.0677 26.1538 10.4653 25.9918 10.7585 25.7032C11.0517 25.4147 11.2164 25.0234 11.2164 24.6154V18.4615H15.9062L23.7226 24.6154V0L15.9062 6.15385ZM30.7573 12.3077C30.7573 14.9385 29.2566 17.3231 26.8491 18.4615V6.15385C29.2409 7.30769 30.7573 9.69231 30.7573 12.3077Z" fill="white"/>
</svg>
