<svg xmlns="http://www.w3.org/2000/svg" viewBox="0 0 39 35.21"><defs><style>.cls-1{fill:#fff;}</style></defs><g id="Layer_2" data-name="Layer 2"><g id="Layer_1-2" data-name="Layer 1"><path class="cls-1" d="M29.27,25.65l-.74-.9a27.05,27.05,0,0,0-7.18-5.42l-.62,1a2.09,2.09,0,0,1-2.26.9h0A2.06,2.06,0,0,1,17,18.84a8.6,8.6,0,0,1,1.07-2.67L17,16a3.34,3.34,0,0,0-2.18.41l-.61.33a2.9,2.9,0,0,1-2.47.12l-1.31-.53-5,7.71,1.85,1.23,1-1a2,2,0,0,1,1.39-.58,2,2,0,0,1,1.4.58,1.92,1.92,0,0,1,.57,1.23,2,2,0,0,1,1.89.49,2,2,0,0,1,.57,1.4,2.09,2.09,0,0,1-.08.49,1.86,1.86,0,0,1,1.19.57h0a2,2,0,0,1,.49,1.89,1.83,1.83,0,0,1,1.2.58h0a2,2,0,0,1,.57,1.39A1.86,1.86,0,0,1,17,33.57l1,1.24a1.42,1.42,0,0,0,2,0,1.43,1.43,0,0,0,.41-1,1.3,1.3,0,0,0-.36-.94l-.41-.41a.47.47,0,0,1,0-.7.46.46,0,0,1,.69,0l.41.41.33.33a1.47,1.47,0,0,0,2,0l0,0a1.39,1.39,0,0,0,0-1.93l-.74-.95a.49.49,0,0,1,.7-.7l1.23,1.24a1.47,1.47,0,0,0,2,0,1.43,1.43,0,0,0,.41-1,1.47,1.47,0,0,0-.36-1L25,26.88a.6.6,0,0,1-.16-.37.49.49,0,0,1,.16-.36.47.47,0,0,1,.7,0l1.6,1.6a1.65,1.65,0,0,0,1.15.45,1.44,1.44,0,0,0,1-.41,1.37,1.37,0,0,0,.37-.95,2.43,2.43,0,0,0-.08-.53C29.6,26.06,29.43,25.86,29.27,25.65Z"/><path class="cls-1" d="M23.4,16l-1.81-.62a2.14,2.14,0,0,0-2.42.82l-.08.13A7.63,7.63,0,0,0,18,19a1.12,1.12,0,0,0,.74,1.27,1,1,0,0,0,1.15-.45l.86-1.39a.45.45,0,0,1,.41-.25c.08,0,.17,0,.21,0,.29.13,6.44,3.2,9.27,7.68l3-1.69-5-7.92A9.29,9.29,0,0,1,23.4,16Z"/><path class="cls-1" d="M16.26,31.6a1,1,0,0,0-.7-.28,1,1,0,0,0-.7.28L13.51,33a1,1,0,1,0,1.35,1.35L16.22,33a1,1,0,0,0,.28-.7.88.88,0,0,0-.24-.66Z"/><path class="cls-1" d="M14.53,29.18a1,1,0,0,0-.69-.29.91.91,0,0,0-.7.29l-1.68,1.69a1,1,0,0,0-.29.69.94.94,0,0,0,.29.7,1,1,0,0,0,1.35,0l1.68-1.68A1,1,0,0,0,14.53,29.18Z"/><path class="cls-1" d="M13.1,27.42a1,1,0,0,0-1.68-.7L9.36,28.77a1,1,0,0,0-.28.7.92.92,0,0,0,.28.7,1,1,0,0,0,1.36,0l2-2.05A1.06,1.06,0,0,0,13.1,27.42Z"/><path class="cls-1" d="M10.35,25h0a1,1,0,0,0-.7-.29A1,1,0,0,0,9,25L7.27,26.68a1,1,0,0,0-.29.7.93.93,0,0,0,.29.69,1,1,0,0,0,1.35,0l1.69-1.68A.91.91,0,0,0,10.35,25Z"/><path class="cls-1" d="M9.65,14,7.31,12.56a.89.89,0,0,0-1.19.25l-6,9.35a.89.89,0,0,0,.24,1.19l2.34,1.48a.89.89,0,0,0,.66.12.78.78,0,0,0,.53-.36l6-9.36A.82.82,0,0,0,9.65,14ZM3.58,22.57a.92.92,0,0,1-1.24.29.91.91,0,0,1-.28-1.23.92.92,0,0,1,1.23-.29A.86.86,0,0,1,3.58,22.57Z"/><path class="cls-1" d="M38.87,22.16l-6-9.35a.79.79,0,0,0-.53-.37,1,1,0,0,0-.66.12L29.35,14a.82.82,0,0,0-.24,1.19l6,9.36a.82.82,0,0,0,1.19.24l2.34-1.48A.87.87,0,0,0,38.87,22.16Zm-2.25.7a.9.9,0,1,1-.95-1.52.89.89,0,0,1,1.23.29A.92.92,0,0,1,36.62,22.86Z"/><path class="cls-1" d="M19.5,13.22a6.61,6.61,0,1,0-6.61-6.61A6.61,6.61,0,0,0,19.5,13.22ZM16.55,5.75a.68.68,0,0,1,.9.08L18.72,7l2.79-2.83a.72.72,0,0,1,1,0,.74.74,0,0,1,.08.94l-3.08,4,0,0a.92.92,0,0,1-1.31.17c-.08,0-.13-.13-.21-.21L16.34,6.77A.76.76,0,0,1,16.55,5.75Z"/></g></g></svg>