<svg xmlns="http://www.w3.org/2000/svg" viewBox="0 0 46.7 19.9"><defs><style>.cls-1{fill:#fff;}</style></defs><g id="Layer_2" data-name="Layer 2"><g id="Layer_1-2" data-name="Layer 1"><path class="cls-1" d="M33.3,13.2a4.86,4.86,0,0,1-1.7-.6l-11.5-6V18.2a1.69,1.69,0,0,0,1.7,1.7H45a1.69,1.69,0,0,0,1.7-1.7V6.6L35.1,12.7A4.83,4.83,0,0,1,33.3,13.2ZM44.9,0H21.7A1.69,1.69,0,0,0,20,1.7V2.9l13.2,7,13.2-7V1.6A1.44,1.44,0,0,0,44.9,0Z"/><line class="cls-1" y1="1.6" x2="16" y2="1.6"/><path class="cls-1" d="M16,3.1H6A1.56,1.56,0,0,1,4.4,1.6,1.64,1.64,0,0,1,6,0H16a1.58,1.58,0,0,1,1.6,1.6A1.5,1.5,0,0,1,16,3.1Z"/><line class="cls-1" x1="8" y1="7.6" x2="16" y2="7.6"/><path class="cls-1" d="M16,9.1H10A1.56,1.56,0,0,1,8.4,7.6,1.64,1.64,0,0,1,10,6h6a1.58,1.58,0,0,1,1.6,1.6A1.5,1.5,0,0,1,16,9.1Z"/><line class="cls-1" x1="12" y1="13.6" x2="16" y2="13.6"/><path class="cls-1" d="M16,15.1H14a1.6,1.6,0,0,1,0-3.2h2a1.6,1.6,0,1,1,0,3.2Z"/></g></g></svg>