<svg width="30" height="34" viewBox="0 0 30 34" fill="none" xmlns="http://www.w3.org/2000/svg">
<path d="M29.3718 8.52139C29.375 7.99358 29.2437 7.47366 28.9904 7.01059C28.7371 6.54751 28.3701 6.15653 27.9239 5.87445C27.4778 5.59237 26.9672 5.42848 26.4403 5.3982C25.9133 5.36793 25.3873 5.47226 24.9118 5.70139C24.8804 5.16986 24.7165 4.65464 24.4349 4.20271C24.1533 3.75079 23.7631 3.37653 23.2998 3.11407C22.8365 2.85161 22.3149 2.70929 21.7825 2.70009C21.2501 2.69089 20.7239 2.8151 20.2518 3.06139C20.1986 2.29702 19.8802 1.57519 19.3517 1.02047C18.8231 0.465738 18.1175 0.112897 17.3566 0.0228194C16.5957 -0.0672579 15.8272 0.111079 15.1837 0.52706C14.5402 0.943041 14.0621 1.57058 13.8318 2.30139C13.3304 2.00062 12.7566 1.84163 12.1718 1.84139C11.7416 1.8427 11.3158 1.92891 10.9189 2.09508C10.522 2.26125 10.1618 2.50412 9.85898 2.80975C9.55613 3.11539 9.31658 3.47779 9.15405 3.87619C8.99152 4.27458 8.90921 4.70113 8.91185 5.13139V17.7914C7.63185 16.1914 6.38185 14.6114 6.19185 14.3414C5.90265 13.8822 5.50107 13.5043 5.02511 13.2436C4.54914 12.9829 4.01453 12.8479 3.47185 12.8514C3.01154 12.8375 2.55326 12.9181 2.1253 13.0881C1.69735 13.2582 1.30879 13.5142 0.983624 13.8403C0.658457 14.1664 0.403577 14.5557 0.234718 14.9842C0.0658589 15.4126 -0.0133957 15.8711 0.00184647 16.3314C0.0918465 18.1314 3.57185 24.4914 5.91185 27.9514C9.45185 33.1914 12.8318 33.9514 12.9818 33.9514H23.5018C23.7009 33.9492 23.8939 33.8826 24.0518 33.7614C25.8476 32.1065 27.1462 29.9837 27.8018 27.6314C28.8018 24.5414 29.3318 20.1014 29.3818 14.0714L29.3718 8.52139ZM26.0918 27.0714C25.5303 28.9747 24.5224 30.7163 23.1518 32.1514H13.2418C12.7718 32.0114 10.1718 31.0514 7.37185 26.9014C4.57185 22.7514 1.85185 17.2214 1.80185 16.2414C1.79379 16.0321 1.82967 15.8234 1.90717 15.6287C1.98468 15.4341 2.10209 15.2579 2.25185 15.1114C2.39936 14.9596 2.57696 14.8402 2.77327 14.761C2.96958 14.6818 3.18027 14.6445 3.39185 14.6514C3.65602 14.636 3.91927 14.6942 4.15232 14.8196C4.38537 14.9449 4.57906 15.1325 4.71185 15.3614C5.00185 15.7914 7.07185 18.3614 8.28185 19.8914L10.7118 18.2514V5.13139C10.695 4.92748 10.7207 4.7223 10.7872 4.52881C10.8537 4.33532 10.9596 4.15772 11.0982 4.00722C11.2368 3.85672 11.4051 3.7366 11.5925 3.65443C11.7799 3.57226 11.9822 3.52984 12.1868 3.52984C12.3914 3.52984 12.5938 3.57226 12.7812 3.65443C12.9686 3.7366 13.1369 3.85672 13.2755 4.00722C13.4141 4.15772 13.52 4.33532 13.5865 4.52881C13.653 4.7223 13.6786 4.92748 13.6618 5.13139V16.2714H15.4618V3.27139C15.5044 2.90341 15.6807 2.56391 15.9573 2.31748C16.2339 2.07105 16.5914 1.93489 16.9618 1.93489C17.3323 1.93489 17.6898 2.07105 17.9664 2.31748C18.2429 2.56391 18.4193 2.90341 18.4618 3.27139V16.4014H20.2618V5.95139C20.2453 5.75423 20.2699 5.55577 20.334 5.36858C20.3981 5.1814 20.5004 5.00955 20.6343 4.86392C20.7682 4.71828 20.9309 4.60202 21.1121 4.5225C21.2933 4.44298 21.489 4.40192 21.6868 4.40192C21.8847 4.40192 22.0804 4.44298 22.2616 4.5225C22.4428 4.60202 22.6055 4.71828 22.7394 4.86392C22.8733 5.00955 22.9756 5.1814 23.0397 5.36858C23.1038 5.55577 23.1284 5.75423 23.1118 5.95139V17.3914H24.9118V8.49139C24.9407 8.15985 25.0928 7.85117 25.3381 7.62627C25.5834 7.40137 25.9041 7.27661 26.2368 7.27661C26.5696 7.27661 26.8903 7.40137 27.1356 7.62627C27.3809 7.85117 27.533 8.15985 27.5618 8.49139V14.0414C27.5318 19.9514 27.0518 24.1614 26.0918 27.0714Z" fill="white"/>
</svg>
