<svg width="30" height="29" viewBox="0 0 30 29" fill="none" xmlns="http://www.w3.org/2000/svg">
<path d="M23.5169 19.5971L23.6097 19.69L23.7389 19.6662C24.0101 19.6163 24.2761 19.5833 24.5508 19.5833C27.0776 19.5833 29.1328 21.6399 29.1328 24.1667C29.1328 26.6933 27.0762 28.7499 24.5494 28.75C23.605 28.747 22.6847 28.4517 21.9149 27.9048C21.1448 27.3577 20.5631 26.5857 20.2495 25.6948L20.1907 25.5278H20.0137H9.75194H9.57486L9.5161 25.6948C9.20271 26.5859 8.62101 27.358 7.85097 27.9051C7.0811 28.452 6.16075 28.7472 5.21636 28.75C2.68966 28.75 0.633046 26.6936 0.632813 24.1671C0.636151 23.2226 0.93154 22.3022 1.4785 21.5321C2.02554 20.7619 2.79744 20.1798 3.68837 19.8655L3.85521 19.8067V19.6298V9.36861V9.19234L3.68918 9.13313C1.91293 8.49978 0.632812 6.81988 0.632812 4.83333C0.632812 2.30664 2.68955 0.25 5.21641 0.25C7.74328 0.25 9.80002 2.30664 9.80002 4.83333C9.80002 5.1066 9.76698 5.37578 9.71718 5.64497L9.69327 5.77426L9.78624 5.86723L23.5169 19.5971ZM6.57761 19.6298V19.8061L6.74376 19.8653C7.38308 20.0929 7.96364 20.4601 8.44324 20.9402C8.92284 21.4203 9.28942 22.0012 9.51634 22.6408L9.57538 22.8072H9.75194H20.0153H20.1916L20.2508 22.6411C20.4277 22.1444 20.6902 21.6825 21.0264 21.2762L21.1714 21.1009L21.0106 20.9401L8.4448 8.375L8.28476 8.21496L8.10964 8.35835C7.70395 8.69054 7.24546 8.95477 6.74322 9.1349L6.57761 9.19429V9.37022V19.6298ZM5.20524 26.0275L5.21641 26.028L5.22759 26.0275C5.70674 26.0061 6.15916 25.8007 6.49065 25.4541C6.82214 25.1074 7.00715 24.6463 7.00715 24.1667C7.00715 23.687 6.82214 23.2259 6.49065 22.8793C6.15916 22.5327 5.70674 22.3272 5.22758 22.3058L5.21641 22.3053L5.20524 22.3058C4.72609 22.3272 4.27367 22.5327 3.94218 22.8793C3.61068 23.2259 3.42568 23.687 3.42568 24.1667C3.42568 24.6463 3.61068 25.1074 3.94218 25.4541C4.27367 25.8007 4.72609 26.0061 5.20524 26.0275ZM24.5396 26.0275L24.5508 26.028L24.562 26.0275C25.0411 26.0061 25.4936 25.8007 25.8251 25.4541C26.1566 25.1074 26.3416 24.6463 26.3416 24.1667C26.3416 23.687 26.1566 23.2259 25.8251 22.8793C25.4936 22.5327 25.0411 22.3272 24.562 22.3058L24.5508 22.3053L24.5397 22.3058C24.0605 22.3272 23.6081 22.5327 23.2766 22.8793C22.9451 23.2259 22.7601 23.687 22.7601 24.1667C22.7601 24.6463 22.9451 25.1074 23.2766 25.4541C23.6081 25.8007 24.0605 26.0061 24.5396 26.0275ZM6.25178 3.28537C5.94523 3.08088 5.58491 2.9719 5.21641 2.97222L3.60521 4.83333L3.35521 4.83308C3.35521 4.83317 3.35521 4.83325 3.35521 4.83333C3.35489 5.20182 3.46388 5.56212 3.66838 5.86866C3.87293 6.17527 4.16384 6.41431 4.5043 6.55552C4.84476 6.69673 5.21946 6.73378 5.58098 6.66197C5.9425 6.59015 6.27459 6.41271 6.53523 6.15209C6.79586 5.89147 6.97331 5.5594 7.04513 5.19789C7.11695 4.83638 7.0799 4.46169 6.93868 4.12125C6.79746 3.7808 6.5584 3.4899 6.25178 3.28537Z" fill="#5F5F5F" stroke="white" stroke-width="0.5"/>
</svg>
