<svg width="30" height="29" viewBox="0 0 30 29" fill="none" xmlns="http://www.w3.org/2000/svg">
<path d="M24.5495 2.97222C24.918 2.9719 25.2783 3.08088 25.5848 3.28537C25.8914 3.48991 26.1304 3.78081 26.2717 4.12125C26.4129 4.4617 26.4499 4.83638 26.3781 5.19789C26.3063 5.55939 26.1289 5.89147 25.8682 6.15209C25.6076 6.41271 25.2755 6.59015 24.914 6.66197C24.5525 6.73378 24.1778 6.69673 23.8374 6.55552C23.497 6.4143 23.2061 6.17527 23.0015 5.86866C22.797 5.56205 22.688 5.20165 22.6884 4.83308M24.5495 2.97222C23.522 2.97222 22.6885 3.80757 22.6884 4.83308M24.5495 2.97222V3.22222M24.5495 2.97222V3.22222M24.5495 2.97222C24.5494 2.97222 24.5493 2.97222 24.5492 2.97222L24.5495 3.22222M24.5495 2.97222V3.22222M22.6884 4.83308L22.9384 4.83333H22.6884C22.6884 4.83325 22.6884 4.83317 22.6884 4.83308ZM20.0142 3.47222H20.1913L20.25 3.30517C20.5634 2.4141 21.1451 1.64198 21.9151 1.0949C22.685 0.5479 23.6054 0.252748 24.5498 0.25C27.0763 0.25019 29.1327 2.3066 29.1328 4.83307C29.1296 5.77776 28.8341 6.69831 28.2868 7.4684C27.7395 8.23864 26.9672 8.82061 26.076 9.13441L25.909 9.1932V9.37022V19.6298V19.8067L26.0758 19.8655C26.9667 20.1798 27.7385 20.7619 28.2856 21.5321C28.8325 22.3022 29.1278 23.2225 29.1312 24.167C29.131 26.6935 27.0746 28.7499 24.548 28.75C23.6037 28.747 22.6835 28.4517 21.9137 27.9048C21.1437 27.3578 20.562 26.5857 20.2484 25.6948L20.1896 25.5278H20.0126H9.75142H9.57434L9.51558 25.6948C9.20221 26.5859 8.62054 27.358 7.85054 27.9051C7.08071 28.452 6.16042 28.7472 5.21609 28.75C2.68955 28.75 0.633046 26.6936 0.632813 24.1671C0.636151 23.2226 0.931525 22.3022 1.47845 21.5321C2.02546 20.7619 2.79732 20.1798 3.6882 19.8655L3.85503 19.8067V19.6298V9.36861V9.19234L3.689 9.13313C1.91286 8.49978 0.632812 6.81989 0.632812 4.83333C0.632812 2.30675 2.68925 0.250193 5.21579 0.25C6.16022 0.252748 7.08063 0.5479 7.85054 1.0949C8.62054 1.64198 9.20221 2.4141 9.51558 3.30516L9.57434 3.47222H9.75142H20.0142ZM20.0142 22.8056H20.1907L20.2498 22.6392C20.4769 22 20.8435 21.4194 21.3231 20.9395C21.8026 20.4597 22.3831 20.0928 23.0222 19.8653L23.1884 19.8062V19.6298V9.36861V9.19212L23.0221 9.13303C22.3828 8.90594 21.8022 8.53929 21.3224 8.05973C20.8425 7.58017 20.4756 6.99975 20.2481 6.36062L20.189 6.19444H20.0126H9.75142H9.57493L9.51585 6.36075C9.28875 7 8.9221 7.58063 8.44254 8.06045C7.96298 8.54028 7.38256 8.90724 6.74344 9.13469L6.57726 9.19383V9.37022V19.6298V19.8062L6.74344 19.8653C7.38256 20.0928 7.96298 20.4597 8.44254 20.9395C8.9221 21.4194 9.28875 22 9.51585 22.6392L9.57493 22.8056H9.75142H20.0142ZM5.20497 26.0275L5.21615 26.028L5.22732 26.0275C5.70645 26.0061 6.15885 25.8007 6.49033 25.454C6.8218 25.1074 7.0068 24.6463 7.0068 24.1667C7.0068 23.6871 6.8218 23.2259 6.49033 22.8793C6.15886 22.5327 5.70645 22.3272 5.22732 22.3058L5.21615 22.3053L5.20498 22.3058C4.72584 22.3272 4.27344 22.5327 3.94196 22.8793C3.61049 23.2259 3.42549 23.6871 3.42549 24.1667C3.42549 24.6463 3.61049 25.1074 3.94196 25.454C4.27344 25.8007 4.72584 26.0061 5.20497 26.0275ZM24.5383 26.0275L24.5495 26.028L24.5607 26.0275C25.0398 26.0061 25.4922 25.8007 25.8237 25.454C26.1551 25.1074 26.3401 24.6463 26.3401 24.1667C26.3401 23.6871 26.1551 23.2259 25.8237 22.8793C25.4922 22.5327 25.0398 22.3272 24.5607 22.3058L24.5495 22.3053L24.5383 22.3058C24.0592 22.3272 23.6068 22.5327 23.2753 22.8793C22.9438 23.2259 22.7588 23.6871 22.7588 24.1667C22.7588 24.6463 22.9438 25.1074 23.2753 25.454C23.6068 25.8007 24.0592 26.0061 24.5383 26.0275ZM6.25147 3.28537C5.94493 3.08088 5.58463 2.9719 5.21615 2.97222L3.60503 4.83333L3.35504 4.83308C3.35504 4.83317 3.35503 4.83325 3.35503 4.83333C3.35472 5.20182 3.46369 5.56212 3.66818 5.86866C3.87272 6.17526 4.16362 6.4143 4.50406 6.55552C4.84451 6.69673 5.21919 6.73378 5.5807 6.66196C5.9422 6.59015 6.27428 6.41271 6.5349 6.15209C6.79552 5.89147 6.97296 5.55939 7.04478 5.19789C7.11659 4.83638 7.07955 4.4617 6.93833 4.12125C6.79712 3.78081 6.55808 3.48991 6.25147 3.28537Z" fill="#5F5F5F" stroke="white" stroke-width="0.5"/>
</svg>
